<svg xmlns="http://www.w3.org/2000/svg" viewBox="0 0 420 520" aria-label="Map of Angola">
  <path fill="currentColor" d="M56.875,45.079L56.608,45.997L55.465,46.411L49.19,47.879L48.222,48.429L47.687,49.026L47.324,49.702L47.116,50.421L47.05,51.167L46.752,51.554L45.316,52.39L44.837,52.784L44.559,53.47L44.493,53.977L44.259,54.345L43.476,54.611L42.244,54.703L41.96,54.921L41.864,55.574L41.346,56.784L40.154,57.55L37.472,58.478L37.204,58.511L36.967,58.478L36.765,58.541L36.607,58.853L36.59,59.124L36.65,59.469L36.775,59.774L36.957,59.943L38.925,60.64L39.311,60.915L39.523,61.993L39.427,64.457L39.321,67.193L39.173,71.028L39.021,75.026L38.942,77.11L38.829,80.084L36.481,80.061L33.571,80.031L30.84,80.419L29.293,81.278L29.285,81.267L27.735,78.638L27.269,76.605L28.003,74.572L28.393,74.206L28.744,74.123L29.11,74.097L29.55,73.914L29.859,73.579L29.984,73.169L29.984,72.163L29.891,71.756L29.407,70.612L28.84,69.483L28.041,67.333L28.064,66.466L26.794,64.234L26.547,62.703L24.793,60.616L23.304,58.249L23.309,57.904L23.688,58.008L24.315,58.132L24.732,58.257L24.94,58.445L25.15,59.196L25.777,59.341L26.297,59.007L26.631,58.486L26.673,58.047L26.965,57.88L26.944,57.255L26.798,56.963L26.506,56.859L26.172,56.838L25.922,57.193L25.859,57.652L25.88,58.34L25.692,58.507L25.462,58.403L25.316,57.756L25.108,57.423L24.857,57.339L24.691,57.631L24.377,57.652L24.001,57.444L23.541,57.507L22.872,57.403L23.142,57.049L26.745,53.981L27.587,52.622L28.558,49.334L28.707,49.188L29.086,49.188L29.387,49.37L29.678,49.738L30.081,50.487L30.365,50.242L30.827,50.063L31.312,49.947L32.396,49.834L32.851,49.659L33.185,49.264L34.519,46.613L34.671,45.944L34.632,44.569L34.932,44.121L35.797,44.231L36.276,44.188L38.453,43.475L41.997,42.826L42.499,42.64L42.852,42.269L43.546,40.977L43.991,40.464L44.513,40.046L45.091,39.715L45.524,39.198L45.781,38.433L46.145,37.694L46.904,37.254L47.344,37.413L47.575,37.538L48.163,37.857L48.602,37.949L49.097,37.847L49.48,37.674L49.864,37.635L50.362,37.92L50.828,38.565L51.403,40.106L52.027,40.815L53.292,41.825L55.389,44.337ZM404.988,246.326L405.206,247.923L405.407,248.475L406.028,249.434L406.147,249.911L405.942,250.537L405.827,251.119L405.853,252.923L405.711,254.178L405.893,254.629L406.517,254.73L406.385,259.37L406.57,260.201L407.98,263.348L408,263.738L407.693,264.18L406.692,264.965L406.345,265.45L406.269,265.811L406.259,266.222L406.342,267.007L406.339,267.536L406.2,267.921L405.315,269.293L404.747,270.594L404.578,271.238L404.578,272.064L404.823,272.695L405.156,273.315L405.431,274.105L405.566,276.544L405.715,277.347L405.662,277.677L404.975,279.267L404.783,283.473L404.569,288.056L404.737,289.519L405.431,290.533L406.24,291.385L406.567,292.209L406.699,294.207L407.013,295.681L406.923,296.239L406.662,296.797L405.582,298.383L404.136,300.515L403.749,301.459L403.175,303.74L402.567,306.157L401.946,307.633L401.735,308.93L402.025,309.98L402.676,310.898L404.417,312.697L405.127,313.639L405.672,314.679L406.048,315.872L405.014,315.872L401.048,315.872L397.075,315.872L393.105,315.872L389.132,315.872L385.159,315.872L381.189,315.872L377.216,315.872L373.243,315.872L369.273,315.872L365.3,315.872L361.33,315.872L357.36,315.872L353.39,315.872L349.421,315.872L345.447,315.872L341.474,315.872L341.478,320.816L341.481,325.757L341.484,330.71L341.488,335.663L341.49,338.643L341.491,340.622L341.494,345.578L341.497,350.543L341.501,355.505L341.504,360.474L341.507,365.45L341.511,370.426L341.514,375.405L341.517,380.387L341.521,385.373L341.524,390.363L341.527,395.356L341.527,396.675L341.527,397.377L341.527,398.381L341.527,399.842L341.524,403.229L341.517,406.616L341.507,410.003L341.504,413.396L341.497,414.898L341.527,414.99L341.527,417.1L341.527,419.118L341.527,419.654L341.6,420.373L342.449,421.446L343.562,423.248L342.752,423.276L342.492,423.248L342.832,423.716L342.947,424.136L343.003,424.559L343.145,425.048L343.287,425.244L343.671,425.581L343.78,425.729L343.832,426.053L343.849,426.789L343.902,426.989L344.965,427.233L345.49,427.481L345.428,427.898L345.13,428.325L344.866,428.91L344.698,429.533L344.671,430.091L344.82,430.504L345.368,431.431L345.547,431.909L345.523,432.364L345.441,432.723L345.573,432.964L346.184,433.046L346.531,433.253L346.669,433.735L346.755,434.301L346.963,434.755L349.715,437.017L350.147,437.168L350.395,437.141L350.877,436.955L351.184,436.879L351.3,436.775L351.409,436.713L351.564,436.806L351.802,437.065L351.927,437.141L352.779,437.289L353.093,437.606L353.305,438.044L353.807,438.73L354.024,439.13L354.196,439.33L354.375,439.42L354.886,439.517L355.184,439.696L355.431,439.986L357.747,443.688L358.087,444.626L358.367,445.051L358.827,445.334L359.837,445.652L360.243,446.076L360.309,446.345L360.306,446.929L360.442,447.216L360.63,447.361L361.036,447.364L362.942,448.141L363.388,448.473L364.821,450.037L365.468,450.911L365.917,451.803L366.271,453.362L366.568,453.856L366.987,454.215L367.982,454.751L369.253,455.909L370.115,456.48L372.044,457.324L373.566,457.742L374.029,458.009L375.363,459.458L375.555,459.839L375.802,460.739L376.407,461.735L377.193,462.642L377.956,463.269L379.369,463.823L379.703,464.183L379.795,464.72L379.726,465.242L379.746,465.72L380.135,466.139L380.687,466.295L381.238,466.233L381.783,466.091L382.328,466.015L383.365,466.101L383.831,466.24L384.303,466.469L384.957,466.95L385.558,467.691L386.288,468.301L386.06,468.783L386.087,469.212L386.268,469.646L383.597,470.172L377.074,471.465L370.551,472.762L364.028,474.063L357.502,475.356L349.483,476.907L341.461,478.458L333.442,480.006L325.423,481.559L323.121,482.003L322.524,482.177L322.342,482.114L321.82,481.423L320.869,480.951L319.049,480.298L317.599,479.489L317.084,479.361L315.78,479.448L315.317,479.361L314.736,479.465L314.191,479.711L313.659,479.843L313.137,479.611L310.185,480.416L309.729,480.541L307.232,481.225L306.79,482.114L305.739,482.323L304.792,482.677L303.969,482.746L303.279,482.114L302.315,481.621L301.773,481.472L301.532,481.77L301.294,481.909L300.772,481.819L300.244,481.59L300.006,481.308L299.497,481.027L298.341,480.916L297.083,480.979L296.277,481.194L295.874,480.989L294.95,480.298L293.85,479.746L293.529,479.486L292.909,478.792L292.189,478.146L291.393,477.799L290.567,478.007L289.319,476.952L288.949,476.817L287.882,477.015L287.439,477.042L287.096,476.817L285.986,477.754L285.233,477.438L284.378,477.396L283.615,477.598L283.146,478.007L282.908,477.754L282.456,477.955L282.039,478.021L281.164,478.007L279.302,478.195L278.991,478.149L277.872,477.754L276.673,477.067L271.623,477.067L271.421,477.206L271.048,477.83L270.89,478.007L270.384,477.966L269.645,477.73L268.981,477.424L268.69,477.181L268.403,476.577L267.746,476.407L267.016,476.484L265.196,476.897L259.713,476.97L254.637,475.443L254.132,475.11L252.702,475.214L251.751,475.016L251.391,475.006L250.704,475.152L249.611,475.585L246.909,475.724L242.738,474.95L239.888,473.518L238.646,473.22L238.206,472.838L237.569,471.985L235.736,470.048L235.429,469.833L234.838,469.542L234.534,469.237L234.362,468.932L234.2,468.339L234.098,468.093L232.43,466.701L232.004,466.469L231.902,466.098L230.805,463.954L230.042,463.726L229.95,463.657L229.894,463.31L229.369,462.043L229.16,461.874L228.952,461.742L228.837,461.431L228.791,461.226L228.54,461.206L226.832,461.206L218.632,461.202L214.312,461.2L210.434,461.199L202.237,461.195L194.04,461.195L191.256,461.194L185.839,461.192L177.639,461.188L169.442,461.188L161.244,461.185L153.05,461.185L144.85,461.185L136.653,461.182L136.297,461.181L128.455,461.178L120.258,461.175L112.058,461.175L103.857,461.171L95.66,461.168L93.477,461.168L93.467,461.168L93.104,461.164L93.074,461.334L92.773,461.998L92.067,462.109L90.653,461.874L90.435,461.953L89.933,462.251L89.583,462.355L89.203,462.355L88.685,462.189L87.991,462.102L87.407,461.915L87.047,461.874L86.759,461.95L86.251,462.279L85.854,462.355L85.111,462.206L84.646,461.839L83.179,459.86L82.78,459.507L79.777,457.819L76.701,456.096L73.9,453.78L71.179,452.259L71.486,451.302L71.209,450.756L70.746,450.307L70.327,448.987L69.851,448.528L69.184,448.245L68.425,448.151L67.853,447.975L66.727,447.195L66.142,446.988L65.575,447.139L64.795,447.347L64.593,447.33L64.375,447.188L63.883,447.309L63.068,447.696L63.068,447.447L62.737,447.571L62.358,447.561L61.641,447.447L61.297,447.274L61.086,446.95L60.851,446.76L60.429,446.988L59.834,446.549L59.137,446.594L58.411,446.843L54.976,447.447L53.295,448.431L52.298,448.659L51.677,448.97L50.914,449.181L50.759,449.505L50.702,449.882L50.57,450.182L50.293,450.376L49.725,450.552L49.48,450.659L49.186,450.918L48.926,451.406L48.714,451.689L47.628,452.031L46.207,452.715L45.085,453.676L44.483,453.987L43.678,454.105L42.895,454.374L41.465,455.626L40.689,456.027L40.286,456.062L39.156,455.802L37.28,455.643L36.679,455.439L35.92,454.986L35.589,455.007L35.153,455.363L34.691,455.553L32.62,455.477L30.318,455.702L30.213,455.564L30.123,455.249L29.972,454.934L29.668,454.793L29.331,454.71L28.971,454.513L28.657,454.288L28.479,454.105L28.353,453.842L28.3,453.586L28.224,453.358L28.02,453.171L27.726,453.075L27.57,453.168L27.399,453.32L27.035,453.4L25.939,453.068L25.609,452.853L25.381,452.836L25.193,452.909L24.968,452.964L23.488,453.165L22.022,453.597L20.714,454.219L19.208,455.36L17.897,455.989L17.309,456.39L17.121,456.66L17.051,456.881L16.89,457.026L16.417,457.075L16.074,457.006L15.519,456.708L15.093,456.636L15.091,456.634L15.091,456.386L14.831,456.182L14.665,455.847L14.6,455.436L14.633,454.995L14.852,453.708L14.873,449.286L15.282,446.415L15.535,443.824L15.156,441.455L15.155,440.445L15.724,440.287L15.882,441.708L16.292,442.307L16.828,440.886L16.737,438.324L16.911,437.466L16.615,434.296L16.875,430.802L15.507,418.177L15.528,417.525L15.679,416.986L16.397,415.482L15.674,413.946L14.148,411.539L14.113,410.108L14.633,408.181L15.008,407.878L15.684,407.456L16.331,407.189L16.615,407.381L16.761,407.959L17.127,408.137L17.588,407.997L19.2,406.44L19.476,405.932L19.577,405.487L19.608,404.56L19.694,404.101L20.344,403.312L22.31,402.146L22.729,401.384L22.835,400.423L23.475,397.929L23.855,397.039L23.525,396.165L23.634,395.185L24.055,393.305L24.367,389.41L24.539,388.906L24.82,388.469L25.92,387.413L26.159,387.354L26.648,387.618L26.91,387.618L27.207,387.275L27.35,386.723L27.324,386.136L27.129,385.689L26.653,385.446L26.315,385.554L26.159,385.505L26.239,384.802L26.554,383.752L27.394,381.762L27.566,380.605L27.693,380.158L28,379.792L28.362,379.455L28.655,379.116L28.832,378.667L29.126,376.853L29.129,376.417L29.204,376.181L29.441,375.879L29.657,375.874L29.867,375.936L30.093,375.842L30.372,375.411L30.642,374.497L31.279,373.448L31.266,372.862L31.131,372.265L31.076,371.646L31.152,371.232L31.404,370.48L31.919,368.061L32.119,365.422L32.275,364.977L32.78,364.139L33.152,362.978L33.498,360.788L33.602,358.673L33.498,357.599L33.16,356.488L32.925,355.957L32.858,355.708L32.824,355.367L32.78,355.193L32.637,354.879L32.606,354.691L32.65,354.452L32.759,354.466L32.905,354.535L33.18,354.401L33.565,354.332L33.713,354.24L33.846,353.988L33.916,353.688L33.934,353.377L33.914,353.092L33.659,352.637L33.269,352.191L33.071,351.725L33.581,350.888L33.742,350.186L34.384,349.409L34.533,348.937L34.621,348.438L34.806,347.94L35.344,347.093L35.438,346.756L35.479,345.604L35.578,345.084L35.843,344.69L36.603,344.449L36.787,344.28L36.961,344.16L37.206,344.205L37.643,344.553L37.851,344.671L38.085,344.642L38.621,343.921L38.829,342.748L39.063,339.31L38.948,336.077L39.05,335.687L39.505,334.825L39.624,334.381L39.297,333.921L39.25,333.691L39.307,333.552L39.39,333.429L39.406,332.386L39.328,331.888L39.018,330.845L38.948,330.335L39.031,329.805L39.25,329.3L39.596,328.92L40.051,328.776L40.717,328.701L40.953,328.49L41.125,328.14L41.57,327.653L42.092,327.375L42.511,327.284L42.839,327.092L43.094,326.509L43.12,326.205L43.044,325.959L42.948,325.734L42.896,325.491L42.966,325.275L43.263,324.949L43.338,324.719L43.543,324.211L44.456,323.725L44.664,323.351L44.745,322.988L44.932,322.972L45.151,323.089L45.32,323.127L45.912,322.731L45.949,322.678L46.524,322.43L46.898,322.154L48.997,319.425L49.91,318.76L50.237,318.405L50.786,317.53L52.757,315.245L53.199,314.364L53.204,313.5L52.905,312.614L52.437,311.686L52.203,310.645L52.585,309.813L54.063,308.288L54.827,307.842L56.918,305.827L57.75,305.382L58.01,305.155L58.561,304.172L58.764,303.916L59.685,303.084L60.226,302.773L60.847,302.695L60.876,302.834L61.583,302.951L61.958,303.143L62.969,302.146L63.367,302.005L63.924,302.098L64.475,302.535L65.013,302.695L66.152,302.477L67.076,301.747L68.506,300.218L69.211,299.679L69.515,299.272L69.634,298.758L69.697,297.405L69.827,296.795L70.069,296.196L70.677,295.232L72.69,293.273L72.909,293.273L72.909,293.496L72.573,293.619L72.36,293.824L72.313,294.095L72.472,294.407L72.974,293.912L73.613,292.858L74.659,291.703L74.966,291.221L75.725,288.635L76.677,286.696L77.051,285.642L77.374,283.366L77.608,282.856L78.071,282.364L78.448,281.824L78.76,281.213L79.012,280.495L79.524,277.243L79.836,276.265L79.912,275.588L79.371,269.679L79.506,266.154L79.636,265.411L79.912,264.836L79.657,264.541L79.68,264.175L79.823,263.772L79.912,263.379L79.899,261.605L79.933,261.302L80.089,260.949L80.692,260.109L80.775,259.719L80.78,258.828L81.571,254.184L81.6,252.286L81.633,249.899L81.472,248.715L80.999,247.672L78.143,243.432L77.894,242.81L77.883,242.254L78.149,241.704L79.119,240.534L79.181,240.002L78.965,239.486L78.58,238.97L77.254,237.861L77.051,237.533L76.916,237.174L73.889,233.51L71.85,231.836L71.379,231.18L71.221,230.572L71.161,228.378L71.052,227.67L70.784,226.975L69.062,224.53L68.665,223.804L68.298,222.219L67.791,221.553L66.558,220.277L64.662,217.214L64.74,216.736L65.037,216.279L65.232,215.603L64.974,214.283L64.28,212.871L63.404,211.549L60.865,208.533L60.629,207.929L60.787,207.369L61.505,206.604L61.721,206.024L61.674,205.47L61.479,204.821L61.219,204.278L60.957,204.054L60.988,203.682L59.95,200.681L59.898,200.064L59.974,198.612L59.841,198.114L59.24,196.98L59.102,196.271L58.374,195.715L55.971,191.7L55.059,189.556L54.403,188.618L54.276,186.812L55.488,184.274L57.282,182.099L58.884,181.41L58.187,182.441L55.888,184.368L54.739,187.057L54.525,187.912L54.936,188.292L55.269,188.007L57.064,184.955L57.136,184.626L57.298,184.279L57.68,184.174L58.114,184.163L58.447,184.1L58.913,183.668L59.258,182.605L59.646,181.957L60.449,181.104L60.629,180.746L60.66,180.391L60.611,179.633L60.738,179.309L61.682,178.267L62.239,177.841L62.813,177.652L61.222,179.252L60.847,179.862L61.3,179.594L62.361,179.115L62.946,178.733L63.201,178.678L63.404,178.546L63.484,178.196L63.5,177.973L63.562,177.802L63.695,177.691L63.921,177.652L65.9,177.936L66.667,177.66L67.089,176.018L67.559,174.81L67.65,174.326L67.497,173.848L66.558,172.538L66.197,171.575L65.77,169.406L65.45,168.364L65.879,168.272L66.184,168.315L66.425,168.267L66.659,167.923L66.745,167.607L66.777,165.176L66.628,164.477L66.324,163.714L63.367,159.045L62.985,158.748L62.535,157.287L62.267,156.73L62.015,156.368L61.63,155.517L61.406,155.181L60.847,153.967L60.569,152.489L58.447,148.669L54.082,138.779L52.58,135.082L51.691,131.832L50.81,130.887L50.335,130.346L49.725,129.603L49.893,128.487L49.722,127.643L49.192,121.226L48.877,120.241L48.809,119.725L48.757,119.56L48.661,119.442L48.614,119.332L48.7,119.177L48.913,118.923L49.007,118.758L49.085,118.428L49.176,118.328L49.2,118.216L49.049,117.967L48.115,118.569L47.478,118.294L45.153,115.06L42.39,112.504L40.16,109.217L37.206,103.849L36.048,101.123L35.205,99.305L34.351,98.124L33.575,97.045L32.763,95.952L31.494,93.624L31.354,92.565L31.841,91.982L32.556,91.787L33.226,91.398L33.014,91.892L32.943,92.809L33.649,92.737L34.778,92.417L36.4,92.379L38.444,91.917L39.43,91.282L40.134,91.034L41.119,90.892L42.787,89.981L43.192,89.808L43.969,89.832L44.638,90.077L45.448,90.323L46.293,90.463L47.208,90.216L48.686,89.897L50.093,89.402L50.761,88.909L52.205,88.274L52.803,87.463L53.436,86.688L53.646,86.089L54.069,85.701L54.876,85.523L55.474,85.452L56.002,85.204L56.565,85.274L57.734,85.382L58.093,85.35L58.647,85.136L59.942,84.435L60.395,84.266L60.429,84.263L63.127,84.492L64.458,84.828L65.465,85.362L65.819,85.106L66.466,84.409L66.677,84.263L67.728,84.283L70.281,84.33L71.222,84.622L71.608,84.605L72.193,84.359L72.497,84.296L75.02,84.565L80.312,84.137L84.672,83.788L85.911,84.164L86.677,84.602L87.152,84.781L90.954,84.492L91.687,84.575L93.576,85.246L94.204,85.329L97.536,85.392L100.429,85.452L101.882,85.199L103.913,85.717L104.901,85.814L108.963,85.067L110.75,85.037L111.949,85.017L114.865,84.967L117.778,84.917L120.694,84.871L123.61,84.821L126.527,84.771L129.44,84.725L132.356,84.675L135.272,84.628L138.188,84.579L141.105,84.532L144.018,84.482L146.937,84.433L149.85,84.383L152.766,84.333L153.609,84.319L155.679,84.283L158.599,84.237L160.475,84.207L161.291,84.373L161.842,84.708L162.347,85.113L163.044,85.475L163.566,85.561L164.045,85.492L165.069,85.189L165.703,85.093L166.278,85.113L166.846,85.249L168.054,85.741L168.289,85.87L169.475,86.458L169.369,86.73L168.94,87.238L168.943,87.444L169.25,87.849L169.409,88.188L169.468,88.487L169.597,90.503L169.696,90.865L169.881,90.845L170.181,90.695L170.465,90.655L170.588,90.974L169.914,91.761L170.548,91.824L170.934,92.113L171.479,92.861L171.853,93.06L172.279,93.193L172.622,93.405L172.767,93.837L173.326,94.472L173.61,94.957L173.534,95.382L173.306,95.791L173.226,96.319L173.246,98.675L173.296,98.947L173.398,99.246L173.468,99.562L173.425,99.881L173.243,99.997L172.949,100.02L172.672,100.12L172.549,100.442L172.53,101.682L172.586,101.805L172.767,102.097L172.979,102.23L173.19,102.184L173.359,102.227L173.425,102.646L173.24,103.065L172.949,103.51L172.949,103.826L173.643,103.856L173.435,104.324L173.448,104.687L173.649,104.986L173.979,105.292L174.267,105.657L174.25,105.966L173.857,106.635L173.738,107.196L173.841,107.718L174.31,108.796L174.448,109.364L174.541,110.551L174.683,111.126L174.931,111.652L176.688,114.123L176.81,114.595L176.863,115.064L177.001,115.496L177.371,115.839L177.718,115.959L178.488,116.039L178.851,116.119L179.624,116.664L180.007,117.452L180.248,119.292L180.172,119.425L180.06,119.728L180.063,120.031L180.347,120.171L180.714,120.247L180.912,120.443L181.041,120.7L181.209,120.949L181.483,121.515L181.361,122.017L181.136,122.566L181.1,123.269L180.076,122.992L180.01,123.798L180.664,125.905L180.605,127.629L180.77,127.905L181.08,128.095L181.473,128.518L181.992,129.247L182.074,129.753L182.074,130.252L182.216,130.635L183.072,130.895L184.152,131.664L184.977,132.064L185.324,132.387L185.466,132.873L185.469,133.224L185.476,133.999L185.664,134.442L186.117,134.745L186.374,134.292L186.566,134.232L186.757,134.365L187.012,134.505L187.692,134.681L187.983,134.831L188.102,135.064L187.93,135.264L187.553,135.391L187.184,135.574L187.012,135.957L187.088,136.263L187.293,136.473L187.563,136.67L187.864,136.946L188.293,137.673L188.825,139.218L189.301,139.918L190.859,140.704L191.494,141.181L191.375,141.787L191.527,142.31L191.497,143.067L191.573,143.577L192.048,143.35L192.118,143.597L192.187,143.653L192.187,143.67L192.048,143.81L192.58,144.033L192.587,144.317L192.382,144.62L192.266,144.91L192.438,145.323L193.016,145.84L193.138,146.13L193.284,146.303L194.02,146.41L194.337,146.57L194.387,146.873L194.36,147.273L194.515,147.567L195.123,147.573L195.123,147.793L194.826,148.083L195.047,148.153L195.47,148.157L195.78,148.233L195.876,148.597L195.86,149.01L195.965,149.254L196.431,149.114L196.798,149.527L196.679,149.814L196.381,150.114L196.213,150.554L196.332,150.767L196.619,150.977L197.306,151.318L197.154,151.558L197.138,151.651L197.207,151.741L197.306,151.978L197.395,151.838L197.59,151.674L197.739,151.518L198.03,152.545L198.198,152.858L198.522,153.158L199.225,153.522L199.486,153.759L199.598,154.306L199.225,155.226L199.476,155.704L199.486,155.723L199.734,156.007L201.52,156.451L202.422,156.434L205.134,155.477L206.095,155.553L207.178,155.96L207.571,155.91L209.559,154.813L210.078,154.706L211.144,154.823L212.086,155.276L213.717,156.671L214.569,156.861L217.433,156.798L217.228,155.987L217.264,155.09L217.561,154.346L218.143,153.996L218.635,153.869L219.939,153.245L220.455,153.172L222.839,153.265L224.401,153.325L225.597,153.785L226.01,153.812L226.502,153.669L227.202,153.292L227.734,153.215L229.692,153.185L229.887,153.215L230.518,153.192L230.346,151.985L230.412,151.358L230.802,151.084L233.107,151.088L235.607,151.088L237.896,151.088L238.177,151.264L238.329,152.171L238.527,152.568L239.022,153.335L240.436,153.335L244.508,153.335L248.587,153.335L252.662,153.335L256.741,153.335L257.613,153.335L256.926,150.827L256.827,150L256.919,148.99L257.388,147.513L257.692,146.547L258.323,144.563L258.439,143.72L258.425,142.94L258.178,142.104L257.814,141.241L257.554,140.378L257.616,139.535L259.822,139.715L260.437,139.571L260.896,139.088L261.229,137.826L261.665,137.259L261.688,137.239L261.715,137.223L261.741,137.209L262.65,136.483L262.669,135.484L261.821,133.343L261.573,132.237L261.474,131.215L261.821,125.994L262.134,124.959L262.504,124.364L263.386,123.242L263.591,122.723L263.515,122.38L262.927,121.102L264.595,121.102L265.939,121.102L267.28,121.102L268.621,121.102L269.962,121.102L271.306,121.102L272.65,121.102L273.991,121.102L275.332,121.102L276.676,121.102L277.027,121.102L278.017,121.102L279.361,121.102L280.705,121.102L282.046,121.102L283.387,121.102L284.728,121.102L286.075,121.102L287.611,121.102L287.608,120.636L287.75,119.575L287.895,119.113L288.153,118.627L288.417,118.417L288.787,118.361L290.468,118.357L293.14,118.347L295.901,118.341L297.747,118.334L297.001,120.294L296.132,122.58L295.637,123.891L294.966,125.648L294.768,127.15L294.804,128.678L294.841,130.262L296.327,130.256L298.652,130.249L300.977,130.246L303.299,130.236L305.624,130.229L307.949,130.226L310.274,130.216L312.599,130.209L314.921,130.206L317.249,130.199L319.568,130.192L321.893,130.186L324.221,130.179L326.543,130.172L328.871,130.166L331.196,130.159L333.518,130.152L334.592,130.146L335.246,130.166L335.236,130.279L335.351,130.435L335.559,130.509L335.807,130.665L336.008,130.908L336.728,132.447L336.907,132.653L337.082,132.953L337.003,133.219L336.844,133.449L336.778,133.626L336.963,133.989L337.187,134.215L337.376,134.455L337.455,134.855L337.419,135.051L337.254,135.344L337.217,135.504L337.29,135.691L337.6,135.987L337.673,136.174L337.614,136.587L337.323,137.239L337.217,137.606L337.194,138.009L337.267,138.209L337.372,138.385L337.455,138.705L337.455,139.918L337.349,140.165L336.884,140.638L336.778,140.828L336.718,141.427L336.575,141.84L336.352,142.48L335.979,143.574L335.569,144.763L335.318,145.483L334.965,146.507L334.783,147.037L334.595,148.453L334.796,149.287L334.836,149.664L334.73,150.04L334.268,150.677L334.162,150.988L334.255,153.185L334.4,153.759L334.71,154.019L335.714,154.589L335.929,154.963L335.999,155.747L336.21,156.394L336.557,156.964L337.363,157.902L337.557,158.336L337.65,158.879L337.723,160.257L338.066,161.796L338.327,162.377L339.262,163.294L339.579,163.892L339.342,164.021L339.09,164.159L338.918,164.533L339.288,165.354L340.071,166.606L340.325,167.991L340.2,169.414L339.44,171.899L339.602,171.955L339.701,172.026L339.83,172.082L340.071,172.102L339.489,173.138L339.143,174.117L338.766,176.485L338.436,178.54L338.211,178.764L337.967,179.834L337.64,180.613L337.379,183.183L337.455,184.865L336.996,188.57L337.386,191.825L337.376,193.147L337.039,194.509L336.051,196.527L335.847,197.655L335.513,198.321L335.47,198.729L335.606,199.084L336.147,199.744L336.362,200.075L336.755,201.394L337.121,204.238L337.455,205.587L338.248,206.86L340.275,208.995L340.728,210.255L340.926,210.147L341.422,209.943L341.62,209.832L341.679,210.881L342.066,211.79L343.902,213.938L344.219,214.123L344.443,214.052L344.671,213.818L345.025,213.995L345.556,214.458L346.792,215.246L347.228,215.759L347.472,216.48L347.73,217.623L348.384,219.397L348.664,220.766L348.819,221.168L348.598,222.222L349.183,223.701L349.969,225.161L350.537,226.688L351.287,228.017L351.561,228.998L352.026,229.572L352.132,229.948L352.096,230.317L351.931,230.955L351.894,231.288L351.739,231.778L351.022,232.95L350.804,233.625L350.874,234.317L351.194,234.753L351.59,235.183L351.894,235.865L352.007,237.24L351.978,237.876L351.947,238.56L352.026,239.706L352.548,240.546L352.376,240.745L352.327,240.845L352.419,242.092L352.327,242.714L352.013,242.99L351.405,243.084L350.613,243.319L349.275,243.878L348.701,244.295L347.957,244.964L347.406,245.677L347.413,246.211L347.703,246.716L348.384,248.989L348.384,250.231L348.486,250.396L348.955,250.739L349.057,250.897L349.166,251.459L349.701,252.415L349.909,253.03L350.283,255.905L350.17,257.275L349.711,258.609L350.524,258.565L351.121,258.191L352.525,256.679L352.991,256.349L356.188,255.265L357.116,254.468L358.126,251.863L359.296,251.691L361.726,252.68L362.919,253.162L364.134,253.508L365.372,253.633L366.538,253.428L367.212,253.037L367.902,252.536L368.616,252.179L369.379,252.209L370.033,252.556L371.235,253.357L371.872,253.633L373.101,253.818L374.531,253.818L377.738,253.266L380.36,252.822L383.867,250.863L386.001,249.672L387.348,249.286L388.643,249.212L389.885,249.319L391.873,249.874L394.575,250.628L395.638,250.709L396.893,250.608L398.112,250.749L399.436,251.17L400.714,251.408L401.791,251.015L402.006,250.705L402.25,249.979L402.442,249.649L402.745,249.39L403.426,248.986L403.726,248.704L403.987,248.048L404.129,247.277L404.387,246.625ZM13.801,435.447L13.83,436.721L14.177,437.92L14.209,438.362L13.483,437.668L13.041,436.689L12,433.406L12.063,432.49L12.379,432.08L13.041,431.512L13.609,431.701L13.666,433.347L13.801,434.076Z"/>
</svg>
