<svg xmlns="http://www.w3.org/2000/svg" viewBox="0 0 420 520" aria-label="Map of Burkina Faso">
  <path fill="currentColor" d="M408,278.152L406.195,283.096L405.491,284.425L403.567,286.588L403.029,288.036L402.998,288.928L403.04,289.488L402.859,289.974L402.166,290.65L399.486,292.158L395.829,295.162L389.246,301.911L389.012,302.151L387.642,302.809L385.873,302.671L383.757,301.847L382.459,301.234L381.848,301.144L381.367,301.466L380.498,301.202L379.542,301.4L377.576,302.196L376.63,302.264L374.416,302.106L373.635,302.354L372.678,302.817L370.366,303.309L369.512,303.765L368.535,304.102L367.485,302.143L366.616,302.196L366.704,301.858L366.817,301.14L366.921,300.802L362.214,300.421L361.247,300.221L360.43,299.757L360.14,300.491L359.628,300.773L359.608,300.78L359.002,300.979L358.35,301.466L357.937,302.074L357.874,302.503L358.35,303.591L357.528,304.102L356.395,304.602L355.397,305.255L354.962,306.221L355.252,307.096L355.738,307.795L355.837,308.45L354.962,309.198L354.616,308.777L354.259,308.635L353.907,308.777L353.566,309.198L353.25,308.648L352.666,307.979L352.107,307.698L351.859,308.312L351.968,308.716L352.459,309.206L352.573,309.707L352.495,310.104L351.859,311.288L350.199,310.493L349.387,310.259L348.44,310.212L348.006,310.312L347.747,310.471L347.483,310.601L347.043,310.594L347.111,310.333L346.733,309.752L346.252,309.367L345.73,310.167L345.212,310.664L344.964,311.303L345.9,312.851L346.097,314.59L346.356,315.469L345.838,315.287L344.84,314.809L344.307,314.803L344.085,315.064L343.744,315.994L343.454,316.199L341.804,316.574L341.545,316.687L341.597,317.456L341.783,317.387L342.099,317.101L342.569,317.21L342.626,317.418L342.538,318.052L342.569,318.287L342.714,318.387L343.19,318.606L343.283,318.603L343.387,319.209L343.397,319.786L343.48,320.341L343.795,320.883L344.364,321.472L344.307,322.29L344.142,322.52L343.775,322.176L343.418,321.669L343.283,321.419L342.776,321.242L341.235,321.072L341.038,321.126L340.495,321.403L340.18,321.419L340.092,321.302L339.828,320.804L339.683,320.693L339.414,320.582L339.161,320.344L338.825,320.104L337.728,319.929L337.495,319.846L337.273,319.935L336.942,320.388L336.647,321.004L336.223,321.651L336.047,321.769L335.99,322.284L336.016,322.856L336.192,323.32L336.59,323.51L336.88,323.784L336.926,324.382L336.802,324.977L336.59,325.25L335.695,325.242L335.023,325.15L333.497,324.301L326.995,324.422L322.18,324.516L319.04,325.126L312.787,327.335L313.392,325.171L312.585,324.966L312.761,324.764L312.833,324.555L312.87,324.343L312.937,324.117L312.911,323.956L312.844,323.84L312.735,323.768L307.138,322.615L302.773,321.717L291.364,319.373L285.223,318.11L282.624,317.574L280.069,317.048L273.284,315.622L273.144,316.446L273.341,316.924L273.453,317.384L273.062,318.142L272.427,318.762L269.918,320.606L269.018,319.525L268.069,318.757L267.102,318.757L266.142,319.983L265.91,320.724L265.798,321.881L265.527,322.421L264.935,322.905L263.618,323.533L263.147,324.117L263.147,324.125L263.023,324.254L262.873,324.367L262.71,324.454L262.535,324.511L260.585,324.444L259.545,324.555L258.826,324.827L258.363,325.676L257.998,326.928L257.492,328.079L256.615,328.623L254.212,326.297L254.362,325.941L254.737,325.537L254.952,325.128L254.654,324.771L254.189,324.729L253.84,324.858L253.617,324.811L253.55,324.235L253.199,324.229L247.496,324.125L247.496,324.112L247.237,323.747L246.955,323.633L246.661,323.757L246.373,324.112L245.303,324.292L244.183,325.53L243.311,325.653L243.645,324.956L243.123,324.977L242.867,324.814L242.517,324.125L242.137,323.859L241.716,323.773L234.816,323.222L233.396,323.444L232.954,324.22L226.923,324.162L220.556,324.098L219.301,323.867L217.64,323.215L217.138,323.018L216.513,322.773L210.19,322.576L209.319,322.85L208.959,323.744L208.375,324.077L200.598,324.154L189.648,324.262L178.388,324.375L166.282,324.495L156.514,324.595L151.817,324.642L150.721,324.653L150.7,324.112L146.385,324.033L146.455,324.328L146.316,324.69L146.616,325.663L147.165,326.567L147.465,327.543L147.183,328.71L146.509,329.456L145.711,330.071L145.039,330.849L144.669,331.91L144.117,334.274L143.275,335.653L143.094,336.817L142.82,337.3L142.285,337.833L142.132,338.138L142.25,338.653L142.303,338.882L142.401,338.882L142.617,338.922L142.847,339.033L142.992,339.259L142.993,339.588L142.882,339.813L142.741,340.008L142.436,340.844L141.765,342.059L141.622,342.563L141.835,343.536L143.334,346.214L143.456,346.715L143.539,347.802L143.673,348.299L143.905,348.597L144.581,349.275L144.728,349.514L144.881,350.508L145.273,351.151L147.03,352.708L147.646,353.024L148.46,353.162L149.684,353.193L149.878,353.411L149.66,353.889L149.203,354.367L148.654,354.584L148.006,354.637L147.522,354.81L147.136,355.122L146.779,355.595L146.438,356.339L146.187,357.376L146.187,358.444L146.593,359.273L147.03,359.465L147.542,359.523L147.969,359.628L148.149,359.968L148.27,360.548L148.595,360.669L149.032,360.656L149.513,360.837L150.012,361.148L150.338,361.301L150.509,361.572L150.537,362.225L150.372,362.901L149.999,363.349L148.985,364.15L148.331,365.195L148.308,366.208L148.83,368.505L148.83,372.86L149.076,373.889L150.211,375.604L150.537,376.518L150.478,377.82L150.012,380.127L150.229,381.408L151.419,383.336L151.561,383.833L151.243,384.35L149.513,386.294L148.675,387.99L148.489,389.053L148.83,390.106L149.239,390.564L149.513,390.611L149.792,390.58L150.229,390.8L150.483,391.211L150.545,391.675L150.705,392.141L151.086,392.438L151.248,392.564L150.609,393.119L150.18,393.863L149.932,394.693L149.854,395.51L149.942,396.336L150.201,396.858L151.993,398.501L153.798,400.792L152.234,402.289L151.01,404.882L150.071,405.705L148.874,405.612L147.732,404.73L142.741,398.052L140.252,393.185L139.354,390.821L138.745,389.641L137.96,388.842L137.011,388.616L135.289,389.126L134.386,389.083L133.512,388.35L133.021,387.167L132.394,384.722L131.391,383.491L130.232,383.228L129.108,383.205L128.235,382.686L128.015,381.67L128.124,380.472L128.107,379.493L127.497,379.117L126.722,379.671L125.029,382.092L124.339,382.783L123.144,382.901L122.64,382.241L122.552,381.203L122.593,380.19L122.371,379.843L121.854,380.048L121.267,380.414L120.811,380.572L120.277,380.292L119.399,379.48L118.768,379.238L110.896,378.583L107.904,378.987L107.049,378.806L106.515,378.425L106.188,378.012L105.806,377.646L105.131,377.425L104.962,377.543L104.498,378.12L104.231,378.275L103.916,378.211L103.263,377.839L102.889,377.786L100.458,378.088L99.729,378.319L99.222,378.657L98.42,379.522L97.995,379.841L97.033,380.129L93.718,380.192L93.622,380.221L92.698,380.496L90.814,381.721L89.741,381.994L88.997,382.392L88.787,383.223L88.468,383.936L86.864,383.959L86.449,384.096L85.681,384.467L85.629,384.606L85.611,384.871L85.512,385.111L85.202,385.18L84.91,385.088L84.387,384.798L81.54,383.954L80.679,384.061L79.776,384.745L78.341,386.77L77.418,387.283L75.532,387.527L74.67,387.838L74.004,388.443L74.226,388.487L74.811,388.684L73.295,390.279L73.02,390.742L73.012,391.19L73.161,392.389L73.035,393.028L72.388,394.301L72.06,394.689L72.056,394.693L70.699,394.128L69.931,393.918L69.781,394.719L69.791,395.552L69.623,396.01L68.938,395.682L68.601,395.13L68.172,393.463L67.725,392.722L66.51,392.431L64.717,392.517L63.09,392.352L62.379,391.303L62.493,390.373L62.984,389.058L63.095,388.184L62.978,387.935L62.678,387.78L62.286,387.701L61.377,387.701L61.219,387.799L61.179,387.998L61.021,388.342L60.776,389.04L60.752,389.723L60.563,390.248L59.837,390.454L59.256,390.245L58.536,389.163L57.97,388.689L57.323,389.365L56.733,389.677L56.114,389.763L55.378,389.76L55.432,389.888L55.255,390.19L54.927,390.533L54.522,390.8L54.114,390.979L54.077,390.939L54.09,390.742L53.837,390.454L53.162,390.174L52.893,389.962L52.784,389.572L52.712,389.037L52.526,388.705L51.946,388.184L51.664,387.822L51.499,387.548L51.248,387.37L50.732,387.301L50.234,387.362L50.057,387.532L50.141,387.767L50.426,388.027L49.665,388.171L49.003,387.104L48.34,387.301L48.196,386.893L48.101,386.694L47.656,386.294L47.656,385.916L48.142,385.95L48.567,385.887L49.368,385.599L48.892,384.745L48.646,383.593L48.239,382.83L47.283,383.139L46.947,382.097L46.237,381.463L45.243,381.145L44.071,381.059L43.655,380.952L43.483,380.713L43.257,380.475L42.688,380.366L42.302,380.598L42.039,381.056L41.755,381.387L41.322,381.232L39.851,379.859L39.789,379.283L40.508,377.199L40.414,376.878L39.869,375.688L39.308,374.952L39.084,374.437L40.144,374.399L40.334,373.712L39.988,372.781L39.428,372.007L38.821,371.615L38.163,371.3L37.627,370.812L37.373,369.894L36.875,370.32L36.289,370.573L35.733,370.492L35.326,369.894L36.008,369.578L35.682,369.475L35.393,369.339L35.065,369.236L34.645,369.231L35.099,368.809L36.271,368.401L36.178,368.001L34.914,367.165L34.614,366.646L34.952,365.729L33.613,365.785L33.641,365.232L34.069,364.313L33.928,363.268L33.782,363.604L33.553,363.934L33.256,364.192L32.903,364.31L32.294,364.255L32.237,364.029L32.427,363.733L32.558,363.457L32.558,360.663L32.188,359.906L32.153,359.884L31.363,359.36L30.543,359.291L30.171,359.968L29.723,360.018L27.264,358.563L26.465,358.78L24.15,358.437L23.307,358.406L22.932,358.641L22.678,358.993L22.363,359.31L21.784,359.446L21.212,359.465L20.948,359.42L20.728,359.273L20.47,359.157L20.284,359.354L20.095,359.641L19.859,359.796L18.848,359.757L18.008,359.549L17.322,359.194L16.784,358.72L16.629,358.411L16.459,357.956L16.241,357.542L15.944,357.363L15.481,357.342L15.134,357.28L14.423,357.018L14.366,356.133L13.756,354.85L12.874,353.698L12,353.193L12.274,352.456L12.68,349.862L12.872,349.443L14.048,347.603L14.726,344.93L14.578,344.445L14.203,344.095L14.26,343.315L14.607,342.498L15.103,342.041L14.335,341.745L14.273,341.316L14.025,340.481L13.999,340.021L14.478,337.289L14.734,336.535L15.072,336.16L15.484,335.96L15.809,335.719L15.882,335.216L15.866,334.787L16.562,331.847L16.378,331.225L15.781,330.15L14.853,326.588L14.175,325.179L13.04,325.45L13.35,324.125L12.85,321.485L12.763,321.027L12.918,320.225L13.642,319.744L18.628,319.102L19.484,318.844L20.322,318.48L21.512,317.732L22.021,317.019L22.329,314.939L22.802,313.762L24.377,312.164L24.998,311.099L25.094,310.275L24.747,304.953L24.967,304.025L25.733,303.362L26.821,302.835L27.227,302.391L27.184,301.73L26.912,300.562L26.909,296.336L26.446,294.537L24.667,293.101L24.103,293.016L23.591,293.082L23.141,292.982L22.759,292.409L22.748,291.828L23.025,291.273L23.4,290.74L23.677,290.222L24.106,288.226L24.212,287.103L24.163,286.205L23.783,285.188L23.19,284.486L22.399,283.984L21.424,283.558L20.904,283.4L20.472,283.368L19.603,283.545L19.409,283.331L18.114,282.568L17.834,282.459L17.524,281.883L17.516,281.63L17.837,281.532L18.52,281.434L18.74,281.513L19.355,281.952L19.642,282.058L19.909,281.976L20.284,281.574L20.446,281.466L22.187,281.175L22.396,281.077L22.585,280.895L22.813,280.734L23.131,280.718L23.467,280.879L23.739,281.088L24.015,281.225L24.383,281.175L24.729,280.887L25.73,279.487L27.67,277.898L28.999,276.394L29.754,275.741L31.297,275.258L32.951,274.253L33.683,273.92L34.461,273.857L36.436,273.92L37.35,273.817L37.917,273.849L38.441,273.716L38.927,273.444L39.381,273.05L40.467,272.598L41.552,272.699L42.623,272.955L43.66,272.966L45.798,272.191L46.849,272.209L47.821,273.05L48.686,272.767L50.1,272.521L50.82,272.088L51.216,271.569L51.551,270.953L51.909,270.295L52.435,269.84L52.965,269.713L53.982,269.837L54.489,269.803L55.483,269.322L55.532,269.194L55.735,268.666L55.836,267.843L56.363,266.843L58.156,265.82L59.661,265.751L60.15,265.209L58.895,262.764L63.305,259.104L63.499,258.892L63.563,258.585L63.476,258.008L63.651,257.206L63.641,256.794L63.768,256.441L64.317,256.103L65.053,256.058L65.544,256.463L65.938,257.019L66.388,257.413L67.873,257.119L67.412,254.925L65.596,250.569L65.994,249.332L66.848,248.296L67.8,247.359L68.508,246.41L68.837,245.706L68.819,245.512L68.548,245.335L68.11,244.67L67.055,242.269L66.225,241.445L64.05,239.754L63.61,238.906L63.914,236.244L64.091,236.104L64.43,236.189L64.959,236.112L66.416,235.539L68.079,235.121L69.739,234.997L71.211,235.315L72.638,236.175L73.324,236.374L74.371,236.244L75.305,235.923L75.914,235.513L75.989,235.462L76.481,234.824L77.525,231.498L77.595,230.881L76.956,228.555L77.123,225.642L76.722,224.219L75.795,223.038L74.34,221.791L73.699,220.906L72.364,217.958L70.915,216.612L70.629,216.148L70.629,215.519L70.888,215.066L71.203,214.647L71.831,212.938L72.675,212.578L75.879,212.736L76.448,212.575L76.8,212.121L76.687,211.673L75.627,211.077L75.282,210.595L75.512,209.826L76.249,208.916L77.155,208.091L77.914,207.569L78.398,207.481L78.867,207.577L79.347,207.601L79.89,207.303L80.837,206.2L81.614,204.954L82.461,202.861L82.981,201.926L83.817,201.139L84.23,200.927L85.569,200.573L86.022,200.292L86.787,199.414L87.396,199.196L87.931,199.003L88.688,198.508L89.354,197.917L89.619,197.437L89.226,197.157L88.587,197.114L88.3,196.893L88.975,196.094L89.137,195.943L89.313,195.894L89.495,195.945L89.684,196.088L89.927,196.445L89.976,196.518L90.236,197.54L90.398,197.864L90.827,198.042L92.032,198.27L92.304,198.409L92.273,198.962L91.925,199.168L91.456,199.241L91.065,199.392L90.05,200.359L89.619,200.608L88.997,201.218L89.619,201.717L90.78,202.022L91.761,202.051L92.759,201.963L93.574,202.12L95.301,202.81L97.352,203.367L98.277,203.755L101.99,206.754L104.278,208.147L108.373,211.352L108.727,211.455L109.388,211.357L109.72,211.487L110.523,212.336L110.967,212.632L111.295,212.688L112.415,212.663L114.527,212.986L115.144,213.081L115.75,212.924L116.251,212.1L116.195,211.175L115.611,209.393L115.797,207.939L116.898,207.505L125.112,207.007L125.801,206.551L124.034,193.718L124.773,191.819L125.037,190.606L125.247,187.74L124.918,186.502L123.884,185.707L124.879,184.714L126.213,185.182L128.444,186.885L129.84,187.029L130.936,186.795L131.984,186.763L133.238,187.512L134.13,188.362L134.376,188.848L134.516,189.602L134.866,190.394L135.441,190.184L136.312,189.219L136.895,188.922L137.288,188.811L138.506,188.941L138.925,189.091L139.279,189.323L139.63,189.483L139.996,189.421L141.724,188.759L143.487,188.083L142.079,183.221L141.845,180.46L142.64,178.485L143.526,177.009L145.482,170.326L145.4,170.244L145.321,170.117L145.173,170.04L144.886,170.101L146.209,167.911L153.599,163.773L154.446,162.817L157.274,159.623L158.394,158.657L162.459,156.305L165.185,155.631L168.992,156.468L180.689,162.073L182.293,162.453L183.069,162.329L184.036,161.891L186.493,160.778L186.925,160.422L187.119,159.879L188.039,147.194L188.438,145.827L189.94,145.152L192.338,145.043L196.45,145.367L199.967,145.181L203.458,144.512L220.806,133.194L222.935,132.175L232.496,129.806L234.405,128.982L236.168,127.866L236.177,127.858L246.523,118.644L246.531,118.639L249.205,115.929L249.783,115.502L250.703,114.823L252.363,114.37L263.342,114.305L264.966,114.295L265.429,114.525L266.582,117.651L267.076,118.301L268.48,118.325L270.292,117.517L273.409,115.599L276.536,115.036L280.025,115.862L286.71,118.647L286.721,118.647L299.315,123.047L299.434,124.226L298.984,124.921L298.291,125.491L297.678,126.299L297.596,127.781L299.046,130.779L299.377,132.353L296.036,141.897L296.331,144.512L297.823,147.012L298.51,147.643L305.716,154.254L307.839,157.144L307.982,157.438L307.93,157.866L307.455,158.484L307.271,158.952L307.007,160.55L306.769,161.162L305.571,163.033L305.355,163.64L305.577,164.231L306.211,165.192L306.522,165.545L306.836,165.788L307.11,166.06L307.322,166.496L307.265,166.83L306.852,167.661L306.857,168.114L307.317,168.643L307.969,168.964L308.494,169.417L308.597,170.332L308.994,171.242L309.82,171.806L310.698,172.265L311.238,172.87L311.216,173.319L310.806,174.249L310.834,174.79L311.143,175.164L312.187,175.856L312.58,176.299L313.004,177.254L313.401,177.811L313.609,178.103L314.37,178.81L316.056,179.923L316.568,180.606L317.132,181.212L318.094,181.569L318.435,182.052L318.135,183.024L317.649,184.098L317.432,184.882L318.125,186.165L319.444,186.624L326.085,186.411L326.592,186.518L326.737,186.875L326.726,187.294L326.768,187.608L326.732,187.798L326.561,188.011L326.602,188.352L327.202,188.925L328.185,189.406L329.075,189.453L330.957,189.27L333.269,189.974L335.975,191.607L337.997,193.774L338.256,196.094L339.192,197.657L340.842,198.878L346.293,201.414L347.188,201.71L349.309,201.974L350.152,202.189L350.918,202.73L351.875,203.811L350.514,204.352L349.542,203.885L348.725,203.15L347.819,202.882L347.556,203.161L347.318,203.731L346.816,205.489L346.469,205.598L345.357,205.132L342.668,204.453L338.664,202.845L337.604,202.661L336.947,204.722L336.968,209.083L336.994,213.922L337.01,217.191L337.014,218.14L337.159,219.115L337.604,219.936L339.042,220.731L342.621,221.033L344.131,221.791L346.981,224.206L349.976,226.745L353.682,229.89L354.973,230.984L359.049,234.439L361.805,236.772L365.245,239.69L366.647,240.477L368.307,240.912L373.433,241.363L379.769,241.911L380.654,241.813L381.502,241.251L382.102,240.371L382.629,239.359L383.478,238.103L383.819,237.416L384.042,237.169L384.45,237.082L384.802,237.254L385.195,237.328L385.748,236.955L386.597,236.016L387.057,235.754L391.924,236.162L393.931,236.708L395.24,238.248L395.529,239.248L395.721,239.523L396.254,240.075L396.781,240.499L397.697,241.068L398.147,241.641L398.483,242.335L398.643,242.982L399.026,246.071L399.269,246.723L399.678,247.518L399.962,247.912L400.598,248.614L400.8,249.001L400.8,249.218L400.64,249.756L400.635,250.013L400.733,251.141L400.381,251.689L399.647,251.88L396.672,252.134L396.419,252.089L395.881,251.827L395.731,251.776L395.416,251.951L395.054,252.454L394.826,252.629L391.94,253.233L391.185,253.868L391.066,255.353L392.023,257.148L394.169,260.166L397.909,265.415L401.426,270.364L405.393,275.924Z"/>
</svg>
