<svg xmlns="http://www.w3.org/2000/svg" viewBox="0 0 420 520" aria-label="Map of Burundi">
  <path fill="currentColor" d="M348.107,48.942L341.005,57.879L338.135,62.426L330.003,82.232L328.253,89.042L327.322,91.304L325.261,93.988L320.143,98.846L318.392,101.508L317.561,106.787L319.943,109.094L324.109,109.138L328.629,107.652L336.318,104.147L341.237,102.328L339.853,106.387L327.522,119.342L325.793,122.16L325.095,125.487L325.018,130.944L320.342,137.267L317.883,142.037L318.348,145.742L323.71,152.686L326.968,155.748L330.867,156.813L329.893,159.165L331.133,160.873L332.995,162.714L333.898,165.384L333.925,165.466L334.956,164.978L339.199,159.12L341.747,157.013L344.738,155.903L346.478,156.192L360.404,164.534L363.241,165.732L364.171,166.353L364.725,167.662L365.323,171.168L365.9,172.1L368.758,172.721L370.996,172.166L373.134,171.323L375.782,171.146L378.419,172.122L383.327,175.339L386.152,176.183L391.16,175.739L401.175,172.943L406.183,172.987L404.753,175.546L404.111,176.693L397.475,184.348L396.057,187.765L397.12,190.916L402.394,195.887L404.51,198.86L404.543,199.992L403.524,202.855L403.347,204.097L404.111,205.717L406.892,207.759L407.779,209.29L408,211.997L407.623,214.683L405.762,219.809L402.726,224.137L402.837,225.712L403.79,229.53L403.901,230.773L400.666,236.543L395.503,240.072L389.553,240.738L383.881,237.919L383.227,240.472L381.853,242.403L379.759,243.579L377.123,243.912L371.262,246.131L366.531,249.061L362.487,252.834L358.543,257.585L360.038,258.401L366.509,261.935L366.232,267.662L360.604,273.123L350.544,277.807L347.752,281.136L346.046,282.624L344.572,283.157L338.867,284.466L338.534,284.999L338.169,286.864L337.936,287.33L333.837,287.663L333.726,287.264L333.305,287.219L329.737,287.752L329.183,288.418L328.386,290.949L327.854,291.815L321.882,296.099L320.719,298.675L321.229,302.982L321.151,306.911L319.545,310.908L310.703,324.829L309.197,328.693L309.187,328.852L308.953,332.845L309.862,336.465L311.08,339.773L311.745,343.126L311.014,346.901L301.452,343.77L296.035,347.235L287.792,361.492L276.536,373.041L273.965,377.438L270.243,392.92L266.905,400.979L266.343,402.338L261.313,411.046L254.843,418.932L240.24,431.107L238.025,434.306L232.551,447.415L229.848,450.837L225.084,453.526L222.913,455.281L215.556,459.458L207.867,466.681L196.478,472.036L194.595,472.681L191.005,472.081L188.678,470.903L186.396,470.614L182.917,472.747L182.529,473.503L182.075,477.014L180.967,478.859L177.311,480.57L175.959,481.837L175.162,484.881L175.051,487.659L174.397,490.082L171.927,491.993L170.952,491.616L162.199,490.927L151.652,488.438L101.464,489.082L94.728,437.128L93.541,433.018L87.593,412.423L74.353,390.01L66.221,381.214L62.953,376.594L60.914,370.864L59.097,345.525L61.36,329.911L62.676,320.833L63.086,303.981L59.119,249.416L59.563,243.135L60.493,240.272L65.432,235.711L66.454,234.768L62.798,231.838L61.313,227.643L60.715,213.329L61.446,208.979L63.052,205.362L65.789,203.831L66.764,201.368L66.595,199.956L65.113,187.588L63.13,184.414L60.161,182.129L56.505,180.731L52.538,180.265L48.417,178.623L46.578,174.785L45.736,170.347L44.484,166.93L41.26,164.756L37.338,163.447L34.059,161.716L32.662,158.277L32.33,154.816L31.444,152.686L28.253,148.005L26.281,142.259L25.328,140.551L22.115,139.131L17.628,138.709L13.717,137.578L12,133.962L12.41,129.391L13.85,125.731L16.576,123.38L20.941,122.825L18.104,117.634L21.794,96.162L26.658,91.393L39.133,90.572L42.622,91.082L55.64,96.761L60.427,98.225L69.478,99.356L74.01,100.443L77.932,102.683L80.546,104.635L80.701,105.633L80.424,108.162L81.161,111.07L81.211,111.268L85.864,115.638L87.172,118.3L86.706,120.74L83.737,124.378L83.006,126.619L83.493,129.103L85.487,133.562L85.742,136.246L87.637,140.329L92.911,139.841L102.162,135.825L106.006,135.381L110.146,136.153L117.905,137.6L122.891,140.417L126.968,139.042L130.978,136.491L135.676,135.869L137.892,135.958L139.598,135.293L141.193,134.317L147.575,132.009L149.104,132.098L151.398,132.856L160.316,135.803L164.36,136.424L169.157,135.825L171.24,134.561L172.17,132.564L172.879,128.06L174.475,126.064L176.935,126.042L181.721,127.484L187.05,127.639L191.382,126.818L195.414,124.445L199.802,119.986L202.66,116.104L205.275,111.667L207.313,106.986L208.466,102.262L208.563,99.871L209.463,77.863L214.105,61.65L212.565,45.149L213.961,34.172L213.939,32.176L214.559,30.978L216.753,30.912L218.47,31.887L219.938,33.151L220.311,33.472L224.087,36.722L225.749,36.966L227.555,36.788L229.616,36.855L232.064,37.72L234.679,39.738L241.326,47.611L244.849,50.694L249.325,53.666L254.244,55.573L259.031,55.418L262.687,52.889L272.37,40.736L272.813,39.228L272.924,37.21L273.688,35.768L276.181,36.012L282.873,39.272L285.532,39.871L288.988,39.716L293.088,38.873L297.121,37.565L300.201,35.99L302.959,33.44L303.944,32.146L304.832,30.978L306.925,29.027L310.371,28.007L311.412,28.539L318.193,30.158L318.924,29.892L319.943,31.067L321.051,34.083L322.281,35.768L333.925,45.327L341.06,48.675Z"/>
</svg>
