<svg xmlns="http://www.w3.org/2000/svg" viewBox="0 0 420 520" aria-label="Map of Benin">
  <path fill="currentColor" d="M312.644,68.893L310.902,70.73L305.409,80.135L304.469,83.773L303.97,85.001L302.384,89.343L302.523,91.198L303.701,93.392L317.875,113.486L319.788,115.312L320.442,115.423L321.186,115.287L321.279,115.292L321.922,115.327L322.584,115.968L321.774,119.098L321.774,120.843L322.093,122.453L322.682,123.931L323.491,125.307L323.491,125.328L325.118,132.503L325.028,134.876L323.311,139.116L323.213,140.51L323.614,141.472L324.251,142.142L324.946,142.728L325.543,143.419L325.935,144.282L326.679,146.924L327.423,147.816L328.437,148.126L329.557,148.338L330.562,148.921L331.29,150.476L331.682,152.818L331.693,154.767L331.707,157.238L331.11,159.396L329.091,163.413L328.379,165.558L328.298,169.71L327.775,171.198L326.573,172.704L325.339,172.895L320.27,170.232L318.603,169.934L317.05,170.439L315.505,171.979L314.981,172.733L314.761,173.244L314.679,174.828L314.368,175.783L312.374,178.87L310.747,182.508L310.821,184.011L311.949,185.845L317.328,191.423L318.039,192.434L318.268,193.69L318.056,195.129L317.99,195.579L317.27,197.341L316.281,198.082L315.129,198.637L313.902,199.818L313.387,201.117L312.897,207.978L312.096,209.573L309.537,212.646L307.453,216.467L306.055,217.78L301.297,217.26L298.215,218.083L292.526,220.431L291.251,221.383L290.556,222.988L290.376,224.805L290.654,226.383L291.627,228.854L292.256,231.294L291.7,233.396L289.125,234.845L287.728,234.762L286.183,234.472L284.907,234.866L284.311,236.843L284.409,237.384L284.826,238.406L284.736,238.821L279.913,245.162L279.324,245.68L278.049,246.113L277.477,246.54L275.956,249.016L275.646,251.237L276.177,253.474L277.182,255.993L277.452,257.331L277.444,262.535L276.954,264.2L275.327,267.314L272.695,275.533L271.485,278.037L269.539,279.395L264.136,280.804L263.212,280.812L262.419,280.427L261.651,279.9L260.784,279.486L259.926,279.382L257.498,279.461L256.648,279.622L255.806,280.169L255.136,280.876L254.375,281.443L253.313,281.592L247.215,281.09L247.468,283.213L247.296,288.288L246.863,290.481L246.61,290.967L245.719,292.314L245.522,292.48L245.661,293.135L245.997,293.311L246.389,293.452L246.691,294.01L246.659,295.233L245.67,297.512L245.375,298.747L245.473,299.456L245.882,300.687L245.784,301.396L245.359,301.818L244.026,302.432L243.577,303.036L243.552,303.886L243.559,303.973L245.101,323.473L245.285,325.807L244.664,328.508L244.035,329.45L242.457,331.237L242.04,332.237L242.024,332.945L242.22,334.422L242.22,335.164L241.615,338.475L241.517,340.006L241.803,341.91L242.416,343.673L243.969,347L244.509,348.702L244.468,350.455L243.847,351.923L243.021,353.256L242.408,354.609L242.195,356.07L242.024,360.847L241.026,365.905L240.724,370.94L240.446,371.65L239.637,373.173L239.457,373.783L239.505,374.141L239.547,374.448L240.184,375.426L241.076,377.716L242.972,379.84L243.675,380.987L243.896,382.134L243.139,392.892L242.956,395.506L243.373,398.636L244.958,401.605L247.296,404.404L249.046,407.327L248.833,410.662L248.645,411.375L248.588,411.824L248.334,411.985L246.626,411.643L245.8,411.634L245.195,411.985L244.999,412.867L246.659,432.48L246.577,433.584L246.315,434.338L245.686,435.162L244.958,436.674L244.615,437.205L244.533,437.757L244.836,438.795L245.514,439.652L247.591,441.361L248.048,442.115L247.738,442.975L246.928,443.408L245.915,443.708L244.991,444.149L242.939,447.015L243.201,449.905L244.272,452.961L244.664,456.299L243.822,459.64L243.61,461.365L244.01,462.935L244.615,463.744L245.285,464.228L246.095,464.47L247.076,464.563L247.542,464.923L247.697,465.732L247.958,469.405L247.517,470.304L246.544,470.948L245.114,472.226L244.206,473.938L244.182,475.569L244.86,478.927L244.697,480.612L243.231,484.889L242.964,485.67L242.687,487.297L242.081,490.859L242.048,495.709L242.005,495.712L210.659,498.643L204.318,500.061L177.246,503.153L156.295,508L155.725,506.34L157.36,505.47L167.521,503.056L169.164,502.958L167.676,497.118L166.14,491.142L164.104,487.858L163.426,487.348L161.725,486.47L161.202,486.04L161.03,485.345L161.227,483.637L161.129,482.837L160.63,482.158L159.314,481.07L159.109,480.517L159.003,479.606L158.431,479.404L157.654,479.478L156.91,479.392L156.289,479.021L155.627,478.489L155.006,477.859L154.532,477.205L154.278,476.39L154.327,475.656L154.466,474.989L154.45,474.37L153.583,472.775L152.562,471.942L152.055,471.047L152.709,469.261L153.886,467.677L154.507,466.841L154.826,465.608L154.36,463.686L153.755,462.056L153.412,460.683L153.363,459.323L153.959,455.978L153.796,454.871L153.085,454.01L151.912,453.13L151.785,453.035L150.894,451.713L149.357,446.051L155.333,446.093L156.772,445.664L156.714,433.959L156.665,422.386L156.616,410.48L156.58,402.64L156.549,395.772L156.543,394.368L156.477,378.545L156.428,365.905L156.624,353.178L156.763,344.02L155.921,337.164L155.521,336.426L155.053,336.267L154.826,335.934L155.218,333.984L155.218,332.596L155.341,331.919L157.94,327.605L158.235,326.191L157.9,325.41L155.856,322.809L155.455,321.914L155.341,320.971L155.311,318.583L155.177,307.872L155.079,300.451L154.965,291.712L154.834,281.692L154.409,279.506L153.78,277.577L152.153,274.707L147.24,269.521L140.921,262.866L140.516,262.24L139.016,259.92L137.872,256.724L137.332,248.599L136.425,246.324L135.068,246.99L133.899,245.79L133.098,243.83L132.845,242.197L133.172,241.154L134.578,238.982L135.068,237.965L135.166,237.146L135.142,235.536L135.33,234.738L135.444,233.761L134.823,230.015L134.725,223.782L134.578,215.011L134.489,209.097L134.48,208.48L133.466,205.747L125.12,200.158L113.79,192.575L107.056,188.066L102.501,185.014L94.98,179.978L88.996,175.964L88.359,174.753L88.293,172.904L89.397,164.62L90.558,160.139L90.615,156.993L89.986,149.742L91.122,147.051L95.422,142.928L96.443,141.447L96.689,140.619L96.811,138.779L96.967,137.918L98.201,135.544L98.087,134.672L97.424,133.036L97.236,132.168L97.465,130.567L99.493,125.607L101.904,126.948L102.967,127.093L104.381,127.106L104.716,126.675L104.912,125.734L104.839,124.789L104.381,124.356L103.751,124.056L103.474,123.323L103.433,122.42L103.523,121.605L103.801,121.418L104.471,120.396L104.937,119.423L105.46,118.707L105.811,118.565L106.179,118.696L107.912,118.973L108.444,119.352L108.844,119.729L109.269,119.904L109.498,120.079L109.915,120.866L110.054,121.052L110.553,121.027L111.411,120.589L111.722,120.504L114.158,120.773L114.959,121.052L115.171,121.447L115.735,122.249L116.316,122.792L116.577,122.428L116.667,121.135L115.768,120.204L115.269,119.348L115.139,118.471L115.122,117.559L114.959,116.601L114.812,116.606L114.06,116.26L113.831,116.102L113.782,115.731L113.921,114.729L113.831,114.4L113.087,114.227L112.588,114.679L112.294,114.789L112.212,113.573L112.621,113.394L115.229,112.802L115.686,112.477L116.226,111.009L116.577,110.596L117.419,110.605L118.997,111.361L119.814,111.648L119.406,110.259L119.095,107.511L117.616,105.065L118.008,104.054L118.825,103.269L119.651,102.004L120.411,102.612L121.008,103.531L120.902,103.944L121.596,103.954L122.013,103.75L122.422,103.498L123.109,103.34L124.605,103.415L125.888,103.783L128.512,105.04L129.518,103.169L129.64,102.542L129.46,101.75L128.684,100.976L128.512,100.337L128.905,99.368L129.787,99.812L130.711,100.868L131.21,101.737L131.749,101.072L132.305,100.847L132.869,101.072L133.417,101.737L134.798,100.556L134.643,99.52L133.875,98.415L133.417,97.033L134.103,95.505L135.681,94.473L137.471,93.683L138.771,92.877L138.019,91.157L138.117,90.479L138.771,89.518L139.801,88.748L140.759,88.433L140.79,88.423L141.6,87.977L142.057,86.817L143.349,87.549L144.878,87.866L152.316,88.469L152.153,89.003L151.973,90.137L151.834,90.671L153.207,90.587L154.867,93.683L156.412,93.152L157.761,92.43L161.415,91.653L162.927,90.921L164.161,90.529L167.66,90.779L169.156,90.671L172.262,89.414L173.775,89.101L175.148,89.518L175.908,89.009L176.873,89.151L178.924,90.12L182.268,91.421L185.064,91.64L187.23,90.6L187.599,90.221L198.004,79.555L203.783,74.807L208.018,72.424L209.113,71.356L209.399,70.588L209.334,69.703L209.383,68.292L210.233,66.005L213.274,62.586L214.386,60.486L217.239,52.672L217.083,51.845L216.159,50.445L216.053,49.56L216.503,48.52L217.173,48.344L217.917,48.448L218.604,48.252L219.135,47.646L219.756,46.476L220.304,45.896L221.097,45.82L221.923,46.125L222.503,46L222.552,44.613L222.388,43.606L221.874,43.226L221.121,43.046L220.279,42.661L219.462,41.989L218.898,41.333L218.457,40.53L215.792,32.948L215.015,28.44L214.95,26.6L215.645,25.195L217.557,24.308L218.645,24.17L220.459,24.246L221.473,24.145L221.661,23.936L222.315,23.028L222.724,22.727L223.312,22.865L223.762,23.334L224.162,23.468L224.612,22.623L224.98,21.623L225.536,21.393L226.28,21.506L227.211,21.539L227.432,21.723L227.555,22.167L227.8,22.531L228.397,22.489L228.846,22.217L229.566,21.523L229.925,21.288L232.737,20.519L233.048,20.577L233.727,20.979L234.119,21.021L234.601,20.782L235.549,20.075L236.097,19.971L238.885,20.719L239.604,20.301L240.708,18.544L240.969,17.917L241.125,17.281L241.353,16.699L241.778,16.222L242.637,15.887L243.471,16.452L244.296,16.247L245.024,15.653L246.291,14.13L247.166,13.553L247.926,13.402L249.528,13.46L250.337,13.297L252.217,13.23L253.157,12L256.95,15.415L258.561,16.285L259.354,17.151L259.967,18.147L260.474,19.967L261.119,20.644L261.994,21.1L262.926,21.447L265.55,21.744L266.212,21.953L266.507,22.376L267.283,23.882L270.487,28.633L284.09,41.111L284.335,41.541L285.406,42.356L285.651,42.791L285.847,44.517L286.24,46.351L286.82,47.822L288.627,50.884L289.755,52.2L290.425,52.831L291.398,53.49L292.493,53.775L293.556,53.277L294.668,52.609L295.6,52.793L296.45,53.294L297.333,53.582L300.88,55.788L303.774,56.823L304.657,57.441L305.295,58.051L307.943,61.855L308.475,62.327L308.916,62.594L309.267,62.924L309.562,63.559L309.962,64.836L310.257,65.454L310.412,66.168L310.69,66.785L311.352,67.149L312.088,68.43Z"/>
</svg>
