<svg xmlns="http://www.w3.org/2000/svg" viewBox="0 0 420 520" aria-label="Map of Botswana">
  <path fill="currentColor" d="M235.166,52.168L233.458,55.972L233.458,57.224L233.742,58.285L234.965,61.361L236.712,64.36L237.856,65.605L239.293,66.459L240.563,67.489L241.463,69.134L242.817,72.568L244.184,74.804L244.52,75.691L244.915,77.569L245.129,78.162L245.675,79.064L248.461,82.029L249.898,83.01L250.475,83.608L252.479,86.501L253.693,87.579L255.327,88.404L256.384,89.367L256.868,90.939L257.126,94.203L258.637,97.561L263.939,102.351L265.068,105.865L265.083,105.912L264.939,106.835L264.249,108.494L264.113,109.409L264.271,110.486L264.607,111.327L265.646,113.102L266.926,114.804L267.895,116.769L271.948,128.296L273.014,129.913L274.66,130.946L276.547,131.452L278.809,131.498L279.267,131.711L279.678,132.022L280.01,132.374L280.429,132.954L280.534,133.315L280.233,134.252L279.927,134.808L279.647,134.957L279.634,135.035L280.15,135.383L280.486,135.532L281.77,135.763L282.722,136.278L283.888,138.097L284.691,138.857L285.469,139.164L287.137,139.549L287.945,139.878L289.652,140.992L290.373,141.744L290.731,142.584L291.032,143.601L291.609,144.204L292.391,144.557L294.308,145.11L294.915,145.454L295.057,145.608L295.378,145.955L295.963,146.763L296.609,147.432L297.33,147.813L298.168,147.98L299.168,147.99L300.749,148.287L305.531,150.736L307.053,151.019L308.457,151.001L309.824,151.149L311.239,151.935L311.624,152.376L312.353,153.418L312.811,153.794L313.331,153.99L313.759,154.018L314.178,153.976L314.694,153.994L315.582,154.138L316.462,154.399L317.224,154.878L317.779,155.664L319.939,161.233L320.698,166.518L320.039,173.023L321.629,172.193L323.096,171.997L327.878,172.011L331.267,172.45L333.665,172.011L335.141,172.701L336.839,172.725L337.591,173.037L338.198,173.624L338.512,174.417L338.388,176.199L337.87,177.794L337.536,179.413L338.586,182.998L338.682,184.805L338.04,188.468L337.813,188.977L337.508,189.365L337.263,189.776L337.211,190.375L337.224,190.889L337.119,191.903L337.121,192.347L337.446,194.887L337.388,195.841L336.874,198.241L336.866,199.032L337.211,199.888L338.665,201.897L339.307,202.585L342.242,204.749L343.499,206.304L344.578,208.024L346.093,209.861L346.491,210.503L346.587,210.869L346.565,211.572L346.635,211.915L346.906,212.337L347.596,213.082L348.849,215.676L348.967,216.145L348.825,216.502L348.5,217.046L348.412,217.478L348.559,217.563L348.858,217.661L349.028,217.924L348.81,218.511L348.976,218.952L349.181,218.999L349.419,218.952L349.709,219.13L349.928,219.501L350.308,220.426L350.548,220.834L351.061,221.393L351.653,221.788L352.343,222.013L354.788,222.168L357.955,222.802L362.99,222.877L364.556,223.178L366.239,223.76L369.676,225.555L370.584,225.762L371.294,225.63L371.967,225.362L373.454,224.977L373.895,224.761L374.362,224.681L375.711,225.038L376.969,225.16L377.561,225.353L379.196,226.655L381.131,227.27L387.328,230.176L388.603,230.519L391.176,230.674L392.398,230.97L393.154,231.478L394.844,232.019L395.543,232.569L395.643,233.444L395.128,234.508L394.429,235.604L393.966,236.583L393.791,238.508L394.119,240.439L394.92,242.177L396.198,243.548L397.77,244.377L399.329,244.655L403.321,244.533L403.535,244.674L403.945,245.193L404.177,245.603L404.504,246.503L404.77,246.927L408,249.738L407.216,250.016L406.006,249.898L403.696,249.398L402.591,249.53L401.777,250.091L401.093,250.695L400.342,250.983L395.228,251.271L394.844,251.436L393.962,252.644L393.971,252.856L393.324,253.238L392.521,254.088L391.527,255.376L391.852,258.582L391.66,259.121L391.241,259.513L390.267,261.346L389.512,261.932L387.688,261.714L386.725,261.762L386.311,262.366L386.075,263.241L385.468,263.728L384.62,263.969L383.69,264.115L381.856,264.687L378.799,266.427L377.314,266.924L376.187,266.919L375.358,266.796L374.609,266.933L373.707,267.723L373.03,267.931L370.364,267.236L366.877,267.482L365.259,267.922L363.706,268.801L363.073,269.35L361.54,271.172L361.123,271.413L360.095,271.517L359.636,271.645L359.243,271.905L357.911,273.6L357.701,274.036L357.618,274.627L357.701,275.186L357.828,275.541L357.819,275.906L357.5,276.503L357.116,276.858L356.684,277.024L356.26,277.123L355.915,277.303L355.736,277.573L355.505,278.274L355.334,278.554L354.705,278.824L353.732,279.108L352.946,279.478L352.871,279.975L353.234,280.956L353.055,281.976L352.535,282.895L351.876,283.592L351.303,283.967L350.504,284.379L349.618,284.711L348.805,284.844L348.312,285.3L348.329,286.348L348.674,288.293L347.998,289.579L346.539,290.609L344.775,291.35L343.167,291.768L343.443,292.608L342.774,292.855L341.866,292.793L341.412,292.708L341.307,293.069L341.429,293.425L341.617,293.743L341.7,293.966L341.785,294.099L341.969,294.299L342.049,294.484L341.851,294.565L341.796,294.627L341.477,294.883L341.412,294.907L340.787,296.674L340.543,297.102L339.931,297.416L339.364,297.145L338.211,295.848L336.534,297.225L336.042,297.416L335.464,297.225L334.861,296.931L334.389,296.917L334.018,298.2L333.223,299.084L333.04,299.787L333.005,300.049L332.913,300.31L332.767,300.51L332.61,300.586L332.501,300.71L332.568,301.014L332.689,301.38L332.756,301.685L332.516,302.717L331.892,303.544L331.044,304.111L330.132,304.387L328.376,304.448L327.826,304.672L327.424,305.124L327.079,305.652L326.664,305.933L326.07,305.614L326.38,304.948L326.044,304.858L325.424,305.076L324.913,305.329L324.791,305.595L324.389,306.133L323.961,306.385L323.487,304.957L322.878,305.462L321.882,307.056L321.188,307.732L320.45,308.28L318.827,309.098L317.255,309.589L316.79,310.132L317.388,311.018L316.965,311.203L316.585,311.213L316.248,311.041L315.943,310.675L315.838,310.951L315.523,311.332L315.34,311.646L314.999,311.222L314.515,311.032L314.082,311.108L313.899,311.475L314.082,312.042L314.432,312.347L314.663,312.642L314.475,313.19L313.956,312.866L313.488,312.918L313.082,313.261L312.746,313.819L313.03,313.819L312.252,314.381L312.008,314.658L311.877,315.082L311.589,314.901L311.298,314.767L311.366,315.682L311.632,316.488L311.658,317.151L311.012,317.628L310.287,317.594L309.96,317.089L309.724,316.526L309.283,316.34L308.874,316.679L308.13,318.576L307.311,320.041L307.095,320.904L307.2,321.353L307.287,321.725L306.084,323.927L306.374,324.868L306.213,326.114L303.243,338.398L303.16,340.46L302.348,344.525L301.902,345.335L301.23,345.948L300.343,346.451L296.614,347.668L295.723,348.162L295.349,348.852L292.788,351.542L290.037,353.34L288.888,354.29L287.827,355.691L286.591,358.994L286.281,359.527L283.53,362.38L283.514,362.377L282.569,362.226L281.805,362.159L281.001,361.972L280.206,361.895L278.224,362.178L273.454,363.683L267.017,365.715L265.646,366.729L265.009,367.066L262.838,366.984L261.445,367.465L261.122,367.523L260.882,367.744L260.821,368.884L261.257,372.285L261.235,374.163L260.79,375.66L259.558,378.502L259.48,380.236L258.2,382.497L257.27,385.603L253.575,393.944L252.226,400.025L251.774,401.116L249.916,405.609L249.003,408.431L243.559,412.729L240.52,414.246L231.703,415.173L229.934,414.857L228.004,414.251L226.375,413.98L224.75,414.222L222.833,415.153L220.317,417.088L219.479,417.442L216.959,418.117L215.679,418.267L214.5,417.957L213.116,417.641L210.033,417.991L208.539,417.651L206.303,416.113L203.097,414.918L201.233,414.222L200.39,414.329L199.543,414.693L198.381,414.993L196.254,414.634L194.473,413.306L191.555,409.812L189.686,408.732L187.468,408.746L183.079,409.943L182.175,410.078L182.114,409.856L182.341,409.453L182.301,409.071L181.86,408.703L181.428,408.431L180.939,408.339L178.755,408.887L177.952,408.383L177.314,407.463L175.401,406.068L173.798,403.939L173.423,403.702L172.567,403.421L172.174,403.179L171.89,402.763L171.458,401.786L171.06,401.428L168.698,400.697L168.169,400.146L167.85,399.682L163.387,396.157L162.322,395.5L161.086,394.925L160.662,394.611L160.107,394.017L159.461,393.022L159.086,392.645L158.479,392.457L157.933,392.558L156.548,393.075L155.797,393.133L155.142,392.978L153.216,392.235L150.906,391.795L148.81,391.945L146.801,392.544L143.626,394.06L143.224,394.399L142.709,394.693L142.447,394.452L142.263,393.978L141.984,393.597L140.975,393.452L139.975,393.983L138.329,395.669L138.097,396.085L138.001,396.486L137.826,396.849L137.346,397.158L136.761,397.419L136.32,397.709L135.957,398.11L135.608,398.685L134.931,400.504L134.472,401.055L133.398,401.49L133.114,401.95L132.271,404.849L131.939,405.57L131.821,405.952L131.795,406.349L132.04,406.809L132.442,407.308L132.638,407.802L132.258,408.257L131.686,408.703L131.634,409.076L131.795,409.483L131.861,409.991L131.769,410.66L131.66,411.144L131.415,411.605L129.529,413.839L128.965,414.799L128.712,415.818L128.743,416.467L128.904,416.618L129.153,416.71L129.45,417.176L129.712,417.85L129.769,418.141L129.315,418.932L128.673,419.64L127.826,420.383L127.376,421.169L127.917,422.014L128.136,422.606L128.153,423.655L128.026,424.763L127.821,425.55L127.446,426.143L127.031,426.444L125.83,426.896L125.38,427.275L125.402,427.693L125.559,428.164L125.524,428.709L123.76,431.431L123.659,431.536L123.249,431.962L122.419,432.555L121.943,433.183L121.249,434.813L120.458,436.049L119.733,436.346L117.816,435.927L116.475,436.175L115.545,436.949L114.117,439.087L111.912,441.23L110.894,441.771L110.235,441.995L108.296,442.341L107.916,442.624L107.47,443.56L105.767,445.319L104.959,447.012L103.601,450.754L101.994,453.244L99.863,455.402L97.382,456.946L94.714,457.591L90.613,457.62L89.281,457.86L88.154,458.266L87.652,458.764L87.6,459.502L87.98,461.624L88.023,462.539L87.849,463.405L87.381,464.241L86.6,465L84.206,466.644L83.25,467.016L82.355,467.002L79.844,466.321L76.241,466.228L74.162,465.279L73.197,465.103L71.262,465.166L67.716,466.135L67.122,466.16L65.939,466.008L65.336,466.018L61.654,467.085L60.344,467.124L54.763,465.856L53.064,464.789L51.269,464.031L48.911,464.339L47.819,464.921L45.85,466.306L43.125,467.584L42.221,468.245L42.103,468.377L41.889,467.902L41.456,466.4L41.042,465.881L40.404,465.435L40.164,465.191L39.902,464.833L39.317,463.527L38.889,461.815L38.657,460.064L38.644,458.642L39.565,455.436L39.635,454.347L39.439,453.663L38.753,452.677L38.491,452.101L38.364,450.895L38.491,449.529L39.037,447.002L39.22,446.426L40.469,445.495L41.055,444.739L42.304,442.39L44.745,439.291L45.714,437.611L46.496,435.791L48.322,433.197L48.47,432.467L46.885,429.642L46.741,428.757L46.837,425.375L46.47,421.305L45.33,418.51L45.321,418.335L44.85,417.787L44.605,417.763L44.186,417.981L43.614,418.18L43.64,417.748L44.09,416.846L43.199,413.733L42.784,412.899L42.347,412.535L41.269,411.992L40.924,411.513L40.919,411.028L41.286,410.015L41.26,409.497L40.932,409.216L40.439,409.139L40.002,408.979L39.871,408.47L40.098,408.136L41.024,407.565L41.286,407.105L40.945,405.865L39.05,404.166L39.129,402.86L39.404,402.119L40.657,401.326L40.107,400.837L39.723,400.852L39.351,401.089L38.967,401.249L38.548,401.055L38.517,400.576L38.749,399.996L38.775,399.604L38.137,399.691L37.998,398.773L37.762,398.342L36.526,397.781L35.827,397.322L35.556,396.805L35.277,395.35L35.102,394.983L34.661,394.379L34.486,394.051L34.482,393.698L34.67,393.437L34.827,393.152L34.735,392.713L34.46,392.428L33.696,392.032L33.43,391.756L33.347,391.452L33.268,390.231L32.456,389.912L31.67,389.429L31.272,388.797L31.643,388.015L31.709,387.33L31.25,386.322L30.106,384.503L28.783,381.625L28.333,381.022L22.874,376.493L19.647,374.519L19.215,374.394L18.341,374.336L17.939,374.225L17.472,373.898L16.341,372.608L14.153,370.866L13.358,369.601L12.616,369.033L12.341,368.706L12.131,367.946L12.127,359.945L12.118,351.959L12.105,343.989L12.1,336.02L12.092,328.067L12.09,326.773L12.083,320.127L12.074,312.194L12.065,304.268L12.064,301.14L12.061,296.356L12.052,288.454L12.039,280.568L12.035,272.682L12.026,265.793L12.022,258.913L12.013,252.044L12.004,245.179L12,241.254L21.892,241.254L31.783,241.254L41.675,241.254L51.566,241.254L53.986,241.254L54.527,239.582L54.523,237.708L54.514,235.082L54.505,232.461L54.497,229.842L54.488,227.219L54.479,224.597L54.471,221.976L54.457,219.356L54.453,216.741L54.444,214.123L54.436,211.507L54.427,208.895L54.418,206.281L54.414,203.671L54.405,201.063L54.392,198.452L54.388,195.841L54.387,195.806L54.37,190.188L54.353,184.534L54.335,178.891L54.318,173.247L54.3,167.612L54.298,166.498L54.287,161.982L54.27,156.357L54.252,150.731L54.239,145.115L54.222,139.498L54.2,133.89L54.187,128.287L54.169,122.683L54.147,117.088L54.139,113.564L54.134,111.498L54.117,105.912L54.117,104.083L54.117,102.259L54.117,100.436L54.117,98.617L54.117,96.795L54.117,94.973L54.117,93.151L54.117,91.33L54.117,89.51L54.117,87.689L54.117,85.874L54.117,84.05L54.117,82.227L54.117,80.408L54.117,78.595L54.117,76.777L54.117,75.512L54.892,75.479L56.191,75.425L58.576,75.328L60.956,75.227L63.345,75.13L65.729,75.029L67.712,74.946L69.703,74.863L71.686,74.781L73.673,74.698L74.472,74.661L75.271,74.629L75.996,74.491L76.712,74.348L77.437,74.206L78.158,74.063L81.726,73.369L85.285,72.674L88.853,71.975L92.417,71.276L95.989,70.582L99.548,69.883L103.112,69.189L106.68,68.491L110.248,67.792L113.811,67.098L117.375,66.4L120.939,65.701L124.506,65.007L128.07,64.309L131.638,63.616L135.202,62.917L138.892,62.201L143.888,61.765L147.53,61.448L150.452,61.195L152.05,61.264L152.596,61.553L152.841,61.746L152.897,62.045L152.893,62.642L153.028,62.959L153.338,63.051L153.648,63.087L153.784,63.234L153.731,64.291L153.784,64.599L153.902,64.837L154.387,65.508L154.871,66.606L156.146,68.123L156.404,68.573L156.426,68.84L156.347,69.589L156.404,69.819L156.636,69.948L157.016,70.086L157.378,70.132L157.823,69.69L158.452,70.233L159.064,70.987L159.291,71.336L159.867,71.575L160.439,71.676L160.872,71.869L161.046,72.398L161.282,72.886L161.723,73.235L161.959,73.658L161.601,74.371L162.981,75.875L163.374,76.809L162.776,77.743L163.151,78.351L163.82,80.261L164.151,82.125L164.702,82.586L165.449,82.563L166.951,82.043L167.139,81.928L167.418,81.697L168.418,80.505L169.296,80.348L169.925,79.953L173.899,75.618L174.563,75.411L175.056,74.909L175.816,73.764L176.336,73.29L177.58,72.435L178.253,71.791L178.384,70.256L179.856,69.208L180.1,69.162L180.327,69.217L180.528,69.341L180.716,69.483L180.873,69.18L181.074,68.95L181.585,68.573L182.79,68.049L183.122,67.792L184.341,66.602L184.686,66.432L186.227,66.147L187.642,65.109L189.669,62.619L191.158,61.87L192.001,61.751L192.887,61.87L193.346,62.013L194.08,62.398L194.46,62.477L194.857,62.173L196.058,60.047L196.748,59.359L197.368,59.125L198.814,59.194L199.748,59.377L200.268,59.855L200.993,61.264L201.307,61.567L201.587,61.696L201.783,61.953L201.857,62.642L203.299,63.992L203.84,63.859L205.784,63.657L206.211,63.551L206.347,63.285L206.941,62.573L207.076,62.325L207.229,62.233L209.365,59.657L209.993,59.083L211.448,58.152L212.583,56.687L212.81,56.508L213.125,56.32L213.492,56.169L213.88,56.105L214.238,55.967L214.5,55.338L214.762,55.196L215.627,55.008L216.618,54.173L217.348,53.985L218.164,53.921L221.278,52.898L221.553,52.746L221.872,52.43L222.016,52.132L222.217,51.916L222.68,51.838L222.418,52.471L222.863,52.769L223.139,53.155L223.484,53.338L224.126,53.049L224.488,53.572L225.021,53.485L226.196,52.746L226.597,53.659L227.903,53.618L229.296,53.031L230.694,51.623L232.393,51.646Z"/>
</svg>
