<svg xmlns="http://www.w3.org/2000/svg" viewBox="0 0 420 520" aria-label="Map of Democratic Republic of the Congo">
  <path fill="currentColor" d="M145.23,102.61L144.536,97.764L144.948,95.184L144.931,94.5L144.925,94.24L144.966,93.774L145.399,93.061L145.545,92.592L145.622,92.089L145.648,90.766L145.36,89.008L145.09,88.193L144.347,86.814L144.238,86.417L144.111,86.192L143.54,85.706L143.375,85.351L143.476,84.897L143.785,84.35L144.193,83.962L144.594,83.993L144.978,84.232L145.386,84.312L145.805,84.285L146.225,84.2L147.195,83.866L147.865,83.382L148.357,82.698L149.421,80.062L149.923,79.352L150.632,78.783L150.868,78.174L150.915,78.142L151.005,78.065L151.406,77.919L151.496,77.845L152.205,76.636L152.582,76.324L152.947,76.09L153.228,75.79L153.398,74.993L153.546,74.822L153.731,74.686L153.904,74.501L154.005,74.3L154.188,73.649L154.422,73.16L154.718,72.783L155.204,72.321L155.4,72.134L155.75,71.999L156.705,72.01L157.051,71.928L157.446,71.391L157.759,70.848L157.909,70.668L158.882,70.22L160.736,69.068L161.174,68.455L161.481,68.175L161.948,68.059L163.298,68.104L163.725,68.059L164.38,67.738L164.799,67.658L165.563,68.01L167.93,68.059L168.121,68.103L168.537,68.299L169.168,68.43L170.113,68.872L170.402,69.068L170.643,69.356L170.808,69.636L171.168,70.246L171.269,70.569L171.488,70.849L171.997,71.037L173.836,71.425L174.398,71.769L174.888,72.189L175.547,72.639L176.922,73.172L177.319,73.429L178.264,74.594L178.667,74.929L179.045,75.121L180.019,75.444L180.451,75.498L180.792,75.647L181.105,75.991L181.513,76.636L181.966,77.622L182.138,77.774L182.487,77.93L182.895,78.31L183.232,78.781L183.37,79.209L183.247,79.511L183.037,79.861L182.934,80.26L183.146,80.709L183.238,80.795L185.378,82.804L185.803,83.082L186.278,83.192L188.048,82.92L189.699,82.92L190.197,82.849L190.512,82.681L190.755,82.488L191.038,82.339L191.851,82.283L193.761,82.692L195.757,83.424L196.099,83.489L196.268,83.64L196.667,84.368L196.878,84.627L197.384,84.797L197.635,84.921L197.803,85.265L197.957,85.328L198.374,85.351L198.584,85.417L198.734,85.547L198.899,85.653L199.159,85.634L199.346,85.523L199.485,85.361L199.599,85.191L199.726,85.053L199.885,84.936L200.041,84.851L200.237,84.8L200.507,84.782L200.726,84.848L200.863,84.995L200.964,85.142L201.96,85.778L202.303,85.932L202.778,86.068L203.177,86.1L204.076,86.062L204.344,86.117L204.537,86.245L204.692,86.388L204.844,86.488L205.07,86.531L205.48,86.534L205.694,86.63L207.688,85.598L208.04,85.568L208.826,85.634L209.532,85.578L209.83,85.615L210.27,85.777L210.369,85.859L210.427,85.952L210.53,86.029L210.759,86.062L211.36,86.036L211.545,86.062L211.923,86.242L212.21,86.483L212.539,86.694L213.034,86.785L214.245,86.863L214.678,86.785L214.876,86.714L214.964,86.665L215.069,86.638L215.316,86.63L215.47,86.677L216.045,86.947L216.485,87.153L217.537,87.355L217.94,87.495L218.048,87.587L218.434,87.987L218.647,88.118L219.121,88.297L219.589,88.594L221.583,89.044L224.061,88.917L224.252,88.839L224.661,88.67L224.783,88.62L225.517,88.1L225.886,87.741L226.047,87.418L226.128,87.323L226.508,86.992L226.626,86.785L226.618,86.603L226.493,86.166L226.485,85.932L227.092,84.82L227.257,84.627L227.495,84.557L227.742,84.383L227.937,84.158L228.03,83.929L227.978,83.773L227.62,83.346L227.517,82.937L227.474,82.366L227.588,81.86L227.959,81.64L228.873,81.67L229.315,81.63L229.603,81.485L229.719,81.281L229.762,81.061L229.76,80.567L229.824,80.456L230.105,80.245L230.169,80.135L230.215,80.004L230.416,79.639L230.468,79.494L230.44,79.296L230.315,78.874L230.311,78.628L230.607,78.442L230.833,78.223L231.013,77.962L231.174,77.645L231.408,76.935L231.607,76.632L231.957,76.507L232.273,76.633L232.672,76.849L233.015,76.911L233.254,76.339L233.711,75.989L233.882,75.783L233.7,75.547L233.608,75.301L233.618,75.046L233.741,74.786L233.94,74.57L234.097,74.557L234.29,74.621L234.591,74.632L234.835,74.546L235.076,74.42L235.325,74.326L235.582,74.347L235.754,74.511L235.973,75.072L236.2,75.511L236.282,75.819L236.411,76.093L236.66,76.209L236.939,76.25L237.196,76.358L237.434,76.516L237.658,76.707L238.115,76.903L238.623,76.82L239.555,76.351L239.866,76.619L240.383,77.342L240.636,77.489L240.707,77.561L241.28,77.917L241.551,78.498L241.722,78.562L242.18,78.654L242.272,78.705L242.321,78.776L242.551,79.016L242.622,79.068L243.025,79.087L243.401,79.154L243.759,79.286L244.115,79.494L244.274,79.404L244.658,79.42L244.826,79.352L244.927,79.201L244.946,79.049L244.944,78.867L244.98,78.628L245.128,78.259L245.36,77.991L245.708,77.828L246.193,77.774L246.56,77.636L247.816,76.636L248.262,76.438L249.217,76.205L250.02,75.745L250.438,75.616L251.374,75.498L251.833,75.323L252.632,74.754L253.009,74.632L253.25,74.658L253.657,74.77L253.81,74.786L254.001,74.726L254.215,74.541L254.364,74.501L255.246,74.691L255.744,74.693L255.724,74.424L255.628,74.217L255.636,73.984L255.705,73.777L255.795,73.649L255.926,73.586L256.05,73.63L256.36,73.933L256.729,73.706L257.791,73.208L258.321,72.763L258.677,72.556L259.068,72.497L259.306,72.584L259.708,72.864L259.989,72.923L260.199,72.815L260.781,72.057L261.169,71.807L261.588,71.703L261.929,71.851L262.071,72.355L262.199,72.355L262.375,72.233L262.414,72.077L262.416,71.884L262.485,71.643L262.727,71.051L262.766,70.996L262.976,70.825L264.468,70.634L264.835,70.427L265.095,70.142L265.058,69.889L264.541,69.78L264.318,69.581L264.455,69.131L264.76,68.645L265.047,68.344L265.157,68.569L265.361,69.187L265.474,69.366L265.76,69.488L265.818,69.319L265.809,69.031L265.884,68.796L266.361,68.653L266.801,68.76L266.934,68.792L267.483,69.075L267.885,69.366L268.003,69.527L268.183,69.924L268.31,70.078L268.516,70.166L269.039,70.246L269.301,70.349L269.486,70.545L269.484,70.961L269.597,71.204L269.846,71.375L270.458,71.575L270.745,71.785L270.469,72.148L270.402,72.364L270.612,72.469L271.988,72.613L272.387,72.587L272.731,72.355L272.978,72.591L273.209,72.564L273.43,72.375L273.658,72.134L273.834,72.05L274.003,72.104L274.194,72.192L274.433,72.212L274.845,72.053L275.596,71.585L276.068,71.488L276.177,71.426L276.562,71.15L276.712,71.073L276.946,71.072L277.716,71.291L278.425,71.683L279.163,71.897L279.343,71.847L279.461,71.425L279.678,71.007L279.768,70.919L279.955,70.855L280.109,70.713L280.27,70.505L280.493,70.519L280.648,70.598L280.792,70.699L280.981,70.776L282.307,70.694L282.552,70.569L282.743,70.39L283.653,70.304L283.97,70.22L284.161,70.012L284.247,69.804L284.267,69.288L284.331,69.056L284.625,68.701L284.691,68.569L284.721,68.352L284.835,67.94L284.82,67.787L284.668,67.649L284.258,67.575L284.112,67.49L283.972,67.03L284.148,66.677L284.412,66.39L284.55,66.13L284.584,65.644L284.713,65.224L284.973,64.921L285.4,64.784L285.134,64.418L285.279,64.287L285.584,64.19L285.799,63.93L286.166,64.147L286.617,64.04L287.548,63.529L287.591,63.452L287.652,63.485L287.873,63.709L288.058,63.756L288.566,63.556L288.813,63.503L288.646,63.132L288.873,63.068L289.249,63.116L289.524,63.076L289.652,63.076L289.813,63.339L289.882,63.612L290.052,63.795L290.517,63.788L290.453,63.862L290.399,63.938L290.337,64.014L290.232,64.085L290.232,64.215L290.528,64.431L290.687,64.392L290.828,64.263L291.082,64.215L291.2,64.268L291.352,64.447L291.444,64.487L291.472,64.51L291.934,64.642L292.224,64.855L292.799,65.496L293.026,65.668L293.322,65.797L293.608,65.775L293.803,65.496L293.556,65.365L293.745,65.282L294.035,65.413L294.084,65.923L294.183,65.887L294.406,65.834L294.498,65.794L294.432,66.079L294.49,66.273L294.589,66.42L294.737,66.834L294.947,66.723L295.151,66.48L295.22,66.351L295.698,66.367L295.93,66.65L296.125,67.032L296.497,67.347L296.531,66.924L296.804,66.686L297.168,66.638L297.488,66.778L297.484,66.414L297.576,66.212L297.765,66.147L298.057,66.195L298.278,66.322L298.636,66.739L298.907,66.933L299.124,66.766L299.407,66.719L299.649,66.721L299.757,66.706L299.812,66.468L299.95,66.383L300.134,66.406L300.325,66.493L300.252,66.326L300.184,65.794L300.287,65.859L300.392,65.898L300.519,65.919L300.684,65.923L300.832,65.857L300.946,65.71L301.047,65.496L301.343,65.643L301.48,65.89L301.615,66.046L301.896,65.923L301.989,66.021L302.122,66.107L302.18,66.195L302.401,65.998L302.465,65.923L302.65,66.563L302.783,66.741L303.045,66.635L303.034,66.744L303.045,67.075L303.139,67.033L303.375,66.973L303.47,66.933L303.622,67.301L304.006,67.577L304.407,67.746L304.938,67.84L305.332,67.795L305.684,67.812L305.88,68.059L306.019,67.963L306.459,67.787L306.657,68.107L306.951,68.335L307.264,68.521L307.524,68.719L307.914,69.517L307.955,69.65L308.215,69.699L308.784,69.904L309.142,69.935L309.318,69.891L309.593,69.786L309.857,69.646L310.005,69.495L310.146,69.65L310.389,69.343L310.773,69.213L311.129,69.262L311.295,69.495L311.423,69.495L311.548,69.275L311.722,69.26L312.003,69.366L312.211,69.26L312.494,69.032L312.711,68.925L313.703,68.925L313.999,68.97L314.143,69.056L314.999,69.965L315.134,70.078L315.287,70.056L315.503,69.835L315.638,69.78L315.78,69.827L315.894,69.928L315.965,70.031L315.984,70.078L316.353,70.11L316.469,70.022L316.707,69.78L316.821,69.598L317.021,69.1L317.119,68.925L317.736,68.254L318.317,67.741L318.941,67.322L319.684,66.933L320.643,66.654L321.53,66.717L322.384,67.028L324.091,67.873L324.571,68.007L325.02,68.059L325.382,68.142L325.67,68.341L325.938,68.583L326.231,68.796L326.41,68.864L326.614,68.903L327.011,68.925L327.241,68.971L327.531,69.166L327.728,69.21L328.277,69.419L328.314,69.689L328.174,70.619L328.288,70.727L328.414,70.821L328.552,70.897L328.698,70.958L329.347,71.455L329.524,71.658L329.601,71.855L329.687,72.301L329.799,72.51L330.173,72.819L330.591,72.967L332.424,73.166L332.793,73.402L333.066,73.897L333.229,74.76L333.357,75.105L333.63,75.323L333.785,75.323L334.186,75.212L334.373,75.203L334.568,75.315L334.742,75.527L334.879,75.764L334.961,75.955L335.038,76.407L334.871,77.621L334.911,78.479L335.004,78.977L335.154,79.316L335.246,79.317L335.755,79.425L335.918,79.479L336.13,79.654L336.508,80.062L336.746,80.203L336.908,80.219L337.502,80.131L337.616,80.149L337.968,80.298L338.094,80.285L338.143,80.196L338.156,80.095L338.174,80.046L338.137,80.017L338.225,79.952L338.41,79.854L338.515,79.892L338.727,80.118L338.867,80.146L339.101,80.115L340.171,80.27L340.234,80.498L340.131,80.858L340.064,81.331L340.078,81.554L340.113,81.726L340.174,81.891L340.275,82.088L340.912,82.996L341.12,82.977L341.464,82.61L341.656,82.492L341.992,82.517L342.129,82.687L342.213,83.09L342.791,83.825L343.175,84.211L343.567,84.494L344.385,84.602L345.3,84.428L346.175,84.389L346.874,84.905L347.061,85.344L347.129,85.637L347.301,85.834L347.801,85.992L348.271,85.939L348.714,85.668L349.098,85.3L349.897,84.249L350.197,84.04L350.662,83.928L350.86,83.939L351.061,83.981L351.263,84.002L351.452,83.946L351.597,83.757L351.647,83.517L351.727,83.288L351.974,83.132L352.83,82.929L353.141,82.727L353.454,82.297L354.315,80.633L354.5,80.604L354.925,80.604L355.208,80.46L355.388,80.285L355.566,80.187L355.852,80.275L356.152,80.679L356.182,81.145L356.283,81.55L356.809,81.764L357.026,81.762L357.659,81.677L358.644,81.758L359.099,81.712L360.359,81.397L360.522,81.573L361.524,82.242L361.75,82.337L361.807,82.634L361.868,82.61L362.692,82.967L362.926,83.137L364.248,84.478L364.718,84.705L365.24,84.63L365.394,84.296L365.454,83.904L365.688,83.658L366.199,83.647L366.613,83.737L366.956,83.662L367.263,83.164L367.476,82.667L367.682,82.363L368.748,81.442L369.006,81.06L369.177,80.639L369.311,80.156L369.448,79.936L369.839,79.574L369.877,79.344L369.858,79.131L369.922,78.768L369.974,78.04L370.148,77.78L370.459,77.725L370.905,77.806L370.989,77.862L371.203,78.076L371.303,78.142L371.626,77.981L371.755,77.964L371.991,78.034L372.62,78.303L373.245,78.314L373.489,78.363L374.356,78.768L374.597,78.937L375.198,79.472L375.499,79.652L375.657,79.683L376.118,79.564L376.256,79.619L376.728,79.906L376.938,79.994L377.189,80.145L377.118,80.366L377.014,80.492L376.919,80.607L376.794,80.815L376.811,80.997L376.955,81.342L376.987,81.527L376.96,81.742L376.775,82.367L376.763,83.278L377.005,84.044L377.566,84.503L378.518,84.493L378.975,84.56L379.51,84.869L379.964,85.297L380.167,85.72L380.099,85.929L379.943,86.136L379.816,86.357L379.835,86.61L380.002,86.807L380.22,86.856L380.459,86.855L380.705,86.897L381.19,87.189L381.51,87.575L381.99,88.508L382.301,88.952L382.611,89.149L383.483,89.327L383.958,89.59L384.173,90L384.287,90.481L384.473,90.96L384.973,91.553L385.109,91.784L385.156,92.01L385.158,92.23L385.192,92.441L385.343,92.637L385.686,92.756L387.037,92.776L388.428,93.225L390.11,94.227L390.897,94.479L391.082,94.511L391.5,94.521L391.7,94.49L391.908,94.434L392.116,94.412L392.318,94.48L392.601,95.021L393.099,98.074L393.086,98.48L392.934,99.291L392.818,99.547L392.695,99.676L392.687,99.779L392.904,99.954L393.086,100.02L393.302,100.026L393.713,99.975L393.972,99.909L394.627,99.547L394.987,99.411L395.228,99.381L395.809,99.383L396.251,99.136L396.597,98.727L396.921,98.49L397.299,98.764L397.383,98.969L397.447,99.683L397.589,99.994L397.859,100.2L398.505,100.455L398.806,100.825L398.598,101.897L398.844,102.332L399.295,102.166L399.688,101.829L400.025,101.713L400.293,102.209L400.299,102.395L400.16,102.983L400.192,103.221L400.4,103.658L400.439,103.901L400.308,104.346L400.202,104.499L400.044,104.729L399.445,105.388L399.034,106.096L398.997,106.197L398.971,106.416L398.904,106.523L398.808,106.572L398.558,106.629L398.483,106.676L398.11,107.412L397.263,109.961L396.941,110.933L396.857,111.375L396.883,111.773L397.132,112.082L398.099,112.755L398.458,113.086L398.937,113.926L399.162,114.749L399.132,115.577L398.619,116.976L398.477,117.182L398.396,117.223L398.145,117.271L398.057,117.329L398.005,117.446L398.001,117.653L397.975,117.76L397.282,119.631L397.234,119.893L397.219,119.98L397.17,120.142L396.765,120.776L396.679,120.988L396.653,121.375L396.732,122.144L396.715,122.517L396.556,122.851L396.295,123.274L396.106,123.707L396.166,124.064L396.464,124.154L397.919,124.168L398.125,124.287L398.171,124.54L398.168,124.856L398.224,125.16L398.434,125.501L398.778,125.909L399.164,126.255L399.514,126.414L400.112,126.125L400.4,125.456L400.742,124.885L401.512,124.888L401.862,125.113L403.034,126.431L403.081,126.518L403.13,126.671L403.098,126.791L402.982,126.852L402.914,126.936L403.021,127.123L403.323,127.282L404.233,127.439L404.515,127.452L404.86,127.398L405.863,127.019L405.895,127.916L405.965,128.353L406.124,128.711L406.556,129.047L407.731,129.714L407.965,130.072L408,130.126L407.993,130.167L407.813,131.174L407.219,132.251L405.983,133.808L404.65,135.488L404.17,136.091L402.713,137.921L401.23,139.117L398.376,141.427L395.567,143.694L393.814,145.952L392.909,147.116L391.342,149.131L390.927,149.483L390.663,149.667L390.373,149.788L389.981,149.891L389.702,149.921L389.232,149.869L388.989,149.891L388.641,150.161L388.389,150.58L388.135,150.85L387.776,150.683L387.551,150.501L387.36,150.467L387.183,150.523L387.004,150.613L386.371,151.262L386.315,151.397L386.272,151.842L386.218,152.056L386.145,152.238L385.881,152.486L385.888,152.887L385.999,153.732L385.856,154.117L385.388,154.609L385.291,154.944L385.227,155.019L384.851,155.718L384.626,155.984L384.424,156.098L382.207,156.602L381.336,156.996L381.041,157.223L380.584,157.574L380.316,157.73L379.921,158.552L379.891,158.762L380.005,159.836L379.75,161.591L379.739,162.018L380.123,163.697L380.175,164.506L379.876,165.155L379.81,165.298L379.415,165.754L378.318,167.021L378.08,167.41L377.935,167.856L377.271,171.273L377.198,171.432L376.992,171.563L376.85,171.507L376.698,171.376L376.453,171.279L376.339,171.513L375.426,172.786L375.245,173.348L375.215,173.707L375.46,174.612L375.479,175.009L375.368,175.4L375.057,176.164L374.695,178.282L374.57,179.025L374.225,181.062L374.163,181.425L373.715,184.041L373.766,184.431L373.823,184.551L374.041,185.006L374.137,185.326L374.206,186.599L374.161,186.889L373.994,187.002L373.772,187.017L373.579,187.073L373.496,187.301L373.53,187.425L373.691,187.646L373.739,187.771L373.712,187.932L373.612,188.037L373.496,188.123L373.427,188.23L373.167,189.866L373.15,190.299L373.335,191.108L373.382,191.546L373.328,192.796L373.27,193.096L373.036,193.375L372.423,193.583L372.191,193.948L372.163,194.137L372.176,194.343L372.256,194.734L372.281,195.041L372.201,195.242L372.098,195.419L372.094,195.425L372.034,195.674L372.091,196.039L372.397,196.837L372.483,197.239L372.463,197.612L372.21,198.896L372.212,199.396L372.383,199.731L372.596,200.049L372.719,200.497L372.698,200.673L372.502,201.199L372.513,201.42L372.755,201.837L372.837,202.071L372.841,202.468L372.646,203.687L371.83,203.977L371.002,204.574L370.287,205.319L369.887,205.949L369.817,206.06L369.774,206.105L369.728,206.135L369.676,206.148L368.089,206.212L367.763,206.35L367.523,206.659L366.954,207.831L366.744,208.104L365.741,208.935L365.49,209.302L365.052,210.133L364.521,210.984L363.745,212.224L363.355,213.139L363.252,213.882L363.297,214.642L363.848,217.904L363.891,218.651L363.771,219.519L363.445,220.503L362.926,221.312L362.211,221.877L361.287,222.122L360.689,222.103L360.513,222.165L360.3,222.365L360.275,222.545L360.204,222.769L360.048,223.078L359.807,223.454L359.512,223.755L359.153,223.967L358.719,224.094L358.161,224.287L357.869,224.539L357.714,225.084L357.755,225.529L357.833,225.941L358.043,226.317L358.116,226.571L357.755,226.893L357.68,227.166L357.758,227.432L357.942,227.559L358.175,227.671L358.389,227.888L358.528,228.371L358.389,229.959L358.55,230.124L359.324,230.631L359.601,230.741L360.221,230.807L360.647,231.018L360.964,231.372L361.239,231.875L360.816,231.929L360.552,232.157L360.412,232.511L360.373,232.954L360.539,233.304L360.918,233.414L361.352,233.455L361.664,233.592L361.756,233.758L361.947,234.314L362.256,234.768L362.342,234.974L362.374,235.309L362.509,235.642L362.827,235.81L363.207,235.937L363.519,236.147L363.64,236.478L363.722,236.908L363.9,237.28L364.299,237.439L364.683,237.484L365.037,237.619L365.325,237.841L365.517,238.148L365.661,239.346L365.677,239.483L365.583,239.721L365.318,239.87L365.162,240.22L365.091,240.641L365.149,242.028L365.293,242.434L365.647,242.718L365.548,242.809L365.07,243.251L364.98,243.528L364.937,244.137L365.321,249.422L365.281,251.054L365.154,251.933L364.934,253.445L365.11,255.9L365.308,256.455L365.624,256.902L366.412,257.754L367.694,259.925L368.271,261.92L368.386,262.318L369.038,267.35L369.102,267.617L369.177,268.444L368.979,270.205L367.722,273.639L367.311,275.403L367.368,277.15L367.763,278.813L367.793,278.939L368.491,280.639L370.107,283.609L370.952,286.982L372.97,291.751L373.363,293.505L373.167,295.118L372.5,296.294L370.946,298.395L370.532,299.72L370.585,300.549L371.211,302.887L371.558,305.38L371.811,306.201L372.399,307.185L373.809,309.012L374.856,311.825L375.326,312.616L375.983,313.307L378.775,315.436L380.769,316.457L381.675,316.921L383.297,318.276L386.284,321.772L387.525,323.704L389.086,327.07L389.82,329.703L390.022,331.084L390.581,333.061L395.011,339.999L396.531,343.705L397.029,345.594L393.492,346.136L388.158,346.953L383.978,347.595L378.464,348.441L372.944,349.289L372.603,349.341L368.244,350.009L364.967,350.513L361.374,351.064L358.885,351.444L358.343,351.658L358.419,352.053L359.305,353.92L359.201,355.791L358.425,357.595L355.773,361.131L352.319,364.545L350.391,365.976L348.499,366.874L347.61,367.463L347.198,368.239L347.532,369.009L348.422,369.353L349.441,369.566L350.166,369.948L350.594,370.477L350.639,370.879L350.6,371.26L350.568,371.565L350.671,371.893L350.918,372.13L351.417,372.5L351.566,372.72L351.651,372.953L351.689,373.227L351.699,373.584L351.801,373.863L352.054,373.965L352.708,373.95L352.569,374.113L352.102,374.265L351.997,374.381L352.081,374.579L352.474,375.025L352.564,375.31L352.607,375.512L352.791,375.95L352.834,376.179L352.861,377.158L352.988,377.578L353.272,377.99L353.48,378.134L353.66,378.199L353.791,378.323L353.841,378.63L354.384,379.188L354.343,379.284L353.96,379.438L353.76,379.813L353.557,380.723L352.919,382.085L352.834,382.54L352.988,384.059L352.931,385.74L352.746,386.566L352.422,387.216L351.909,387.816L351.714,388.206L352.422,388.812L352.463,388.908L352.506,389.133L352.564,389.244L352.615,389.283L352.798,389.392L352.834,389.403L352.946,389.816L352.888,390.143L352.769,390.479L352.708,390.922L352.772,391.45L352.933,391.825L353.122,392.161L353.272,392.573L353.296,392.824L353.263,393.091L353.182,393.335L353.06,393.525L352.972,393.723L353.143,394.044L353.06,394.245L353.064,394.535L353.336,394.92L353.841,395.483L353.848,395.732L353.733,396.182L353.699,396.426L353.811,396.64L354.296,397.013L354.407,397.149L354.298,397.575L354.032,397.968L353.707,398.295L353.416,398.527L353.298,398.558L353.034,398.538L352.911,398.597L352.821,398.706L352.506,399.224L352.358,399.685L352.203,399.89L351.851,400.266L351.581,400.716L351.392,401.203L351.289,401.701L351.289,402.639L351.242,402.868L351.038,403.299L350.991,403.518L350.913,403.743L350.549,404.119L350.425,404.313L350.4,404.525L350.441,404.978L350.425,405.192L350.347,405.42L350.074,405.934L349.78,406.343L349.767,406.548L349.99,407.675L349.999,407.939L349.945,408.138L349.768,408.405L349.716,408.528L349.69,408.755L349.716,409.469L349.329,410.274L349.132,410.504L348.937,410.812L348.85,411.276L349.008,412.064L348.896,412.128L348.434,412.491L348.364,412.576L347.293,414.155L347.239,414.532L347.265,415.664L347.361,415.99L347.471,416.161L347.717,416.785L347.872,417.002L348.177,417.316L348.299,417.508L348.658,418.771L348.645,418.983L348.568,419.071L348.707,419.266L349.008,419.551L349.072,419.766L349.276,421.232L349.445,421.5L349.78,421.603L350.031,421.824L350.203,422.857L350.425,423.184L350.701,423.034L350.918,423.05L351.104,423.168L351.289,423.328L351.388,423.445L351.634,423.857L351.699,424.052L352.186,423.771L352.467,423.98L352.834,424.776L353.105,424.984L354.125,425.546L354.562,425.66L355.287,425.55L355.476,425.719L355.541,426.312L355.659,426.632L355.944,426.858L356.676,427.255L356.938,427.493L357.219,427.841L357.446,428.248L357.539,428.645L357.728,428.895L358.957,429.587L359.496,430.261L361.187,433.384L361.239,433.597L361.275,433.876L361.374,433.933L361.531,433.931L361.741,434.039L362.041,434.059L362.398,433.881L362.726,433.83L362.951,434.243L363.305,434.017L363.738,433.824L364.246,433.694L365.94,433.663L366.149,433.764L366.523,434.18L366.781,434.404L366.975,434.485L367.216,434.524L368.049,434.544L368.212,434.579L369.074,435.056L369.628,435.261L369.766,435.276L370.058,435.25L370.195,435.261L370.306,435.322L370.379,435.412L370.467,435.498L370.622,435.551L371.021,435.511L371.332,435.316L371.54,435.004L371.613,434.606L371.515,434.223L371.266,434.114L370.946,434.092L370.622,433.969L369.997,433.169L369.918,433.002L369.951,432.826L370.027,432.635L370.112,432.136L370.362,431.306L370.493,431.038L370.811,430.801L371.723,430.487L372.13,430.241L372.431,429.956L372.621,429.879L372.903,429.879L373.17,429.98L373.543,430.349L373.766,430.472L374.12,430.403L375.207,429.898L375.906,429.385L376.346,429.231L377.243,429.156L377.245,429.193L377.249,429.261L377.249,429.271L377.245,431.53L377.24,434.006L377.236,437.545L377.23,440.729L377.226,444.449L377.22,447.64L377.215,450.658L377.211,453.845L377.209,456.204L376.889,456.874L376.575,456.932L375.24,456.916L374.414,456.687L373.966,456.508L373.646,456.323L373.466,456.14L373.326,455.921L373.219,455.685L373.139,455.438L373.139,455.14L373.3,455.026L373.498,454.988L373.627,454.922L373.665,454.723L373.624,454.295L373.657,454.115L373.803,453.956L374.174,453.863L374.327,453.755L374.425,453.592L374.506,453.38L374.541,453.151L374.487,452.937L374.298,452.701L374.137,452.697L373.957,452.758L373.708,452.73L373.309,452.474L372.955,452.178L372.573,451.96L372.088,451.934L371.609,452.145L370.405,453.292L369.98,453.559L367.046,454.697L365.84,455.506L365.368,455.703L365.089,455.864L364.69,456.347L364.469,456.473L364.153,456.409L363.971,456.157L363.83,455.835L363.645,455.568L363.181,455.352L362.681,455.359L362.159,455.442L362.003,455.444L361.614,455.449L361.237,455.59L360.859,455.674L360.52,455.599L360.247,455.264L359.614,454.639L359.277,453.757L358.64,450.614L358.399,450.295L358.209,450.215L357.805,450.196L357.606,450.077L357.41,449.336L357.341,449.288L357.227,449.263L357.109,449.226L357.028,449.133L357.003,449.014L357.032,448.792L357.017,448.697L357.021,448.6L357.12,448.367L357.133,448.259L357.054,448.168L356.775,448.067L356.688,447.972L356.504,447.206L356.354,446.974L355.987,446.655L354.581,444.805L353.748,443.945L352.778,443.733L352.508,443.914L352.208,444.528L352.006,444.783L351.684,444.929L351.37,444.915L351.152,444.717L351.081,443.614L350.752,443.11L350.295,442.648L349.866,442.087L349.722,441.541L349.929,441.238L350.265,440.998L350.503,440.646L350.517,440.091L350.304,439.691L349.603,438.948L349.347,438.468L348.942,437.419L348.658,436.962L346.934,435.456L346.576,435.256L346.185,435.135L345.773,435.107L345.359,435.168L344.812,435.171L344.449,434.922L344.136,434.612L343.736,434.434L343.217,434.568L342.91,434.874L342.605,435.004L342.101,434.599L342.007,434.408L341.965,434.201L341.891,434.021L341.7,433.905L340.171,433.755L339.858,433.775L339.485,433.841L339.021,433.698L338.887,433.246L338.809,432.712L338.506,432.327L337.326,431.618L336.903,431.458L336.378,431.405L336.106,431.572L335.877,431.862L335.483,432.182L334.828,432.347L333.873,432.391L332.948,432.314L332.366,432.121L331.475,431.137L331.362,431.044L330.246,430.133L329.921,429.699L328.911,426.768L328.823,425.919L327.85,424.228L323.976,421.833L323.474,419.985L323.515,419.27L323.425,418.234L323.208,417.265L322.854,416.755L322.719,416.774L322.124,417.002L321.236,417.079L320.45,417.337L320.244,417.346L319.787,417.278L319.607,417.305L319.327,417.607L319.339,418.01L319.596,418.906L319.56,419.474L319.345,419.798L319.038,420.092L318.72,420.559L318.519,421.396L318.435,423.133L318.027,423.956L317.302,424.664L316.501,425.127L315.619,425.318L314.649,425.213L314.117,425.219L313.801,425.485L313.56,425.849L313.245,426.16L312.823,426.255L312.464,426.088L312.11,425.812L311.711,425.577L310.93,425.412L309.247,425.296L308.505,425.052L308.123,424.758L307.805,424.44L307.451,424.166L306.957,424.013L306.163,424.035L305.39,424.164L305.176,424.256L304.768,424.537L304.536,424.636L304.292,424.622L303.862,424.416L303.115,424.465L302.695,424.263L302.274,423.993L301.808,423.813L298.224,423.864L297.956,423.826L297.591,423.657L297.306,422.997L297.01,422.778L296.565,422.607L295.432,421.682L295.353,421.581L295.248,421.508L295.022,421.469L294.87,421.508L294.458,421.703L294.228,421.73L293.033,421.721L292.651,421.651L291.857,421.188L291.2,420.59L290.487,420.132L289.536,420.099L289.373,420.235L289.313,420.452L289.232,420.649L289.009,420.719L288.747,420.756L288.601,420.881L288.474,421.024L288.281,421.127L287.873,421.142L287.559,421L287.428,420.71L287.608,420.18L287.618,420.066L287.608,419.952L287.574,419.842L287.209,419.52L286.02,418.948L285.838,418.775L285.739,418.595L285.606,418.455L285.331,418.398L285.067,418.4L284.891,418.376L284.745,418.293L284.576,418.109L284.38,417.752L283.82,416.021L283.76,415.644L283.764,415.447L283.848,415.246L284.131,414.908L284.159,414.707L284.005,414.335L283.535,413.511L283.376,413.082L283.354,412.563L283.528,412.327L283.771,412.132L283.947,411.742L283.839,411.561L283.608,411.379L283.494,411.197L283.734,411.009L284.168,410.841L284.329,410.696L284.339,410.49L284.297,410.057L284.322,409.514L284.279,409.04L284.026,408.814L283.372,408.924L281.403,409.913L280.163,410.177L277.193,410.447L276.396,410.377L275.527,410.646L273.984,411.414L273.179,411.589L271.613,411.593L270.814,411.924L270.591,412.136L270.211,412.653L270.007,412.861L269.788,412.966L269.323,413.069L269.136,413.152L268.956,413.316L268.831,413.491L268.745,413.693L268.679,413.932L268.543,414.107L268.325,414.142L268.082,414.122L267.878,414.137L267.011,414.464L266.569,414.549L266.088,414.508L265.672,414.306L264.968,413.656L264.504,413.375L264.12,413.31L263.255,413.301L262.92,413.143L262.744,412.762L263.011,412.537L263.875,412.272L264.135,411.996L264.801,410.941L264.961,410.6L265.041,410.188L265.077,409.735L265.052,409.293L264.942,408.922L264.798,408.74L264.446,408.423L264.328,408.178L264.343,407.878L264.498,407.675L264.672,407.489L264.745,407.244L264.511,406.813L263.987,406.349L263.386,405.964L262.918,405.756L262.53,405.706L261.759,405.708L261.349,405.649L260.581,405.422L260.233,405.411L259.815,405.547L259.396,405.608L259.261,405.345L259.296,404.641L259.257,404.399L259.111,403.972L259.059,403.741L259.074,403.546L259.19,403.168L259.188,402.984L258.716,402.532L257.821,402.204L256.847,402.016L256.141,401.992L255.75,402.187L255.583,402.611L255.49,403.111L255.321,403.537L255.125,403.721L254.683,403.983L254.486,404.152L254.361,404.366L254.203,404.838L254.063,405.039L253.363,405.295L252.533,405.14L251.672,404.867L250.88,404.775L250.065,404.84L249.374,404.788L247.618,404.298L246.326,403.937L245.519,403.867L244.678,403.916L243.802,404.167L242.416,404.941L240.136,406.214L238.432,406.502L236.348,406.861L235.419,406.861L234.621,406.741L234.206,406.561L233.425,406.041L233,405.816L232.505,405.796L232.041,406.028L231.592,406.354L231.155,406.607L230.397,406.741L229.592,406.66L228.802,406.434L228.028,406.122L226.448,405.479L225.688,405.59L225.032,407.283L224.428,407.801L222.351,408.506L222.048,408.72L221.136,409.703L220.748,409.946L220.22,409.974L220.518,409.107L220.591,408.217L220.349,406.349L220.213,405.949L219.866,405.328L219.795,404.963L219.728,404.86L219.424,404.637L219.357,404.53L219.357,403.723L218.915,402.246L218.726,401.918L218.722,401.57L219.08,401.107L219.563,400.672L219.936,400.401L220.806,400.039L221.321,399.886L221.716,399.825L221.92,399.645L221.98,399.241L221.92,398.431L221.952,398.365L222.063,398.236L221.724,397.69L221.673,396.946L221.693,396.501L221.711,396.088L221.638,395.195L221.441,394.752L221.183,394.472L220.975,394.188L220.93,393.739L221.072,393.3L221.538,392.538L221.638,392.22L221.662,392.004L221.769,391.589L221.793,391.349L221.724,391.105L221.422,390.732L221.243,390.095L220.756,389.231L220.387,388.239L219.876,387.29L219.496,386.329L219.64,385.644L219.539,385.382L219.357,384.493L218.932,383.34L218.765,382.597L218.606,382.129L218.323,381.795L217.52,381.283L217.174,380.983L216.945,380.867L216.797,381.02L216.651,381.065L216.445,380.946L215.251,379.549L215,378.959L214.962,378.277L214.833,378.349L214.511,378.482L214.382,378.552L214.088,377.733L212.77,376.346L212.255,375.519L212.038,374.642L211.8,372.794L211.545,371.937L211.405,371.721L211.053,371.293L210.965,371.062L210.993,370.797L211.21,370.364L211.343,369.631L211.985,368.32L212.204,367.435L212.21,366.576L211.957,364.461L212.255,362.053L212.206,360.96L212.375,359.289L212.588,358.783L212.747,358.088L212.893,357.943L213.107,356.607L213.352,355.068L213.577,354.432L213.955,353.759L213.798,353.746L213.715,353.709L213.65,353.664L213.545,353.627L214.039,352.012L214.12,351.088L213.955,350.187L213.446,349.374L213.206,348.84L213.318,348.597L213.481,348.508L213.635,348.424L213.429,348.035L212.822,347.439L212.652,347.062L212.429,346.062L212.382,345.166L212.322,344.813L212.195,344.531L211.671,343.922L211.446,343.551L211.309,343.131L211.264,342.621L211.124,342.378L210.472,342.008L210.27,341.839L210.176,341.466L210.115,340.038L210.184,339.836L210.485,339.423L210.553,339.178L210.528,338.933L210.397,338.391L210.519,337.47L210.637,337.126L210.867,336.461L211.03,335.993L211.296,335.22L211.538,334.51L211.683,334.093L211.777,333.825L211.815,333.436L211.884,333.312L212.187,333.005L212.255,332.845L212.255,332.056L212.202,331.849L212.133,331.734L212.086,331.604L212.101,331.342L212.169,331.104L212.358,330.68L212.397,330.411L212.35,330.29L212.148,330.097L212.101,329.976L212.124,329.872L212.232,329.682L212.255,329.554L212.204,329.294L212.081,329.139L211.935,328.991L211.815,328.755L211.858,328.641L211.961,328.491L212.013,328.318L211.899,328.124L211.783,327.989L211.315,326.99L211.184,326.832L211.023,326.73L210.888,326.682L210.813,326.581L210.819,326.507L210.394,326.494L209.697,326.499L208.188,326.503L206.677,326.507L205.164,326.512L203.655,326.516L202.142,326.52L200.631,326.524L199.125,326.529L197.612,326.533L196.103,326.535L194.592,326.54L193.081,326.546L191.57,326.548L190.059,326.553L188.551,326.559L187.04,326.561L185.529,326.566L184.563,326.57L184.539,325.54L184.516,324.547L184.644,323.572L185.08,322.43L185.402,321.578L185.966,320.092L186.452,318.819L185.252,318.823L183.458,318.827L181.721,318.834L180.629,318.836L180.389,318.873L180.217,319.009L180.049,319.324L179.955,319.625L179.863,320.315L179.865,320.617L178.867,320.617L177.991,320.617L177.12,320.617L176.249,320.617L175.377,320.617L174.504,320.617L173.63,320.617L172.987,320.617L172.759,320.617L171.885,320.617L171.014,320.617L170.143,320.617L169.269,320.617L168.396,320.617L167.524,320.617L166.653,320.617L165.782,320.617L164.908,320.617L163.824,320.617L164.206,321.448L164.256,321.671L164.122,322.008L163.549,322.737L163.309,323.124L163.105,323.797L162.88,327.189L162.944,327.853L163.105,328.572L163.657,329.963L163.644,330.613L163.054,331.084L163.037,331.093L163.019,331.104L163.004,331.117L162.721,331.485L162.504,332.305L162.206,332.619L161.807,332.712L160.373,332.596L160.332,333.143L160.502,333.704L160.738,334.265L160.899,334.809L160.908,335.315L160.832,335.863L160.422,337.152L160.225,337.78L159.92,338.74L159.86,339.397L159.925,339.934L160.371,341.564L159.804,341.564L157.154,341.564L154.505,341.564L151.855,341.564L149.209,341.564L148.29,341.564L147.968,341.065L147.839,340.807L147.741,340.218L147.558,340.103L146.071,340.103L144.446,340.103L142.948,340.101L142.695,340.278L142.652,340.686L142.764,341.47L142.354,341.486L142.227,341.466L140.954,341.486L140.609,341.535L140.154,341.78L139.834,341.873L139.566,341.856L138.789,341.557L137.774,341.518L136.224,341.457L135.889,341.505L135.042,341.91L134.722,341.993L134.344,342.22L134.151,342.704L134.127,343.287L134.26,343.813L132.4,343.855L131.846,343.731L130.786,342.825L130.174,342.53L129.481,342.454L129.144,342.524L127.852,343.237L127.596,343.269L126.892,343.005L126.268,342.955L124.506,343.577L123.92,343.588L122.759,343.3L122.598,343.115L122.591,343.103L122.428,342.792L122.671,342.194L122.598,341.839L122.428,341.685L121.971,341.449L121.761,341.254L121.651,341.05L121.463,340.382L121.366,340.484L121.239,340.59L121.181,340.681L121.117,340.528L121.072,340.469L121.083,340.408L121.181,340.252L120.735,340.031L120.548,339.895L120.471,339.756L120.581,339.47L120.774,339.275L120.851,339.089L120.613,338.82L120.31,338.911L120.241,338.753L120.252,338.484L120.19,338.248L119.988,338.198L119.713,338.196L119.57,338.151L119.763,337.962L119.763,337.819L119.368,337.815L119.267,337.624L119.284,337.364L119.252,337.167L119.046,337.063L118.567,336.994L118.473,336.881L118.394,336.693L118.018,336.357L117.906,336.089L117.981,335.9L118.115,335.703L118.11,335.519L117.765,335.374L117.855,335.283L117.855,335.272L117.81,335.235L117.765,335.075L117.456,335.222L117.406,334.891L117.426,334.399L117.327,334.059L117.404,333.665L116.992,333.356L115.979,332.845L115.67,332.39L115.324,331.385L115.045,330.913L114.85,330.734L114.674,330.606L114.541,330.47L114.492,330.271L114.603,330.022L114.844,329.903L115.088,329.82L115.2,329.69L115.123,329.539L114.934,329.442L114.492,329.327L114.326,329.236L114.202,329.149L114.078,329.188L113.91,329.483L113.616,329.286L113.494,328.998L113.489,328.494L113.487,328.266L113.395,327.95L113.17,327.741L112.633,327.481L111.931,326.981L111.375,326.812L111.283,326.563L111.283,326.239L111.23,325.91L110.893,325.436L110.637,325.161L110.435,325.038L110.328,324.859L110.367,323.738L109.942,322.369L109.985,321.846L110.65,322.025L110.674,321.569L110.82,321.212L110.899,320.886L110.721,320.518L110.611,320.356L110.528,320.189L110.399,320.062L110.161,320.012L109.976,319.921L109.974,319.724L110.047,319.528L110.096,319.441L109.94,318.246L109.691,317.733L109.189,317.379L108.952,317.327L108.452,317.275L108.227,317.197L107.987,316.975L107.896,316.694L107.862,316.389L107.783,316.082L106.641,314.476L106.48,314.135L106.388,313.761L106.328,312.989L106.237,312.62L105.933,311.92L105.866,311.581L105.943,311.216L106.199,310.782L106.21,310.581L106.023,310.343L105.808,310.144L105.677,309.95L105.669,309.714L105.804,309.41L105.353,309.39L105.353,309.185L105.542,308.896L105.662,308.624L105.619,308.352L105.51,308.323L105.373,308.354L105.235,308.267L105.117,308.077L105.081,307.997L105.094,307.192L105.173,306.982L105.353,306.918L105.544,306.902L105.662,306.827L105.69,306.62L105.645,306.414L105.579,306.22L105.546,306.043L105.534,304.512L105.585,304.169L105.733,303.903L105.783,303.627L105.598,303.312L105.235,302.9L105.141,302.619L104.918,302.481L104.641,302.395L104.398,302.265L104.044,301.779L103.793,301.592L103.381,301.551L103.819,301.039L103.739,300.832L103.555,300.858L103.359,300.955L103.239,300.968L103.175,300.733L103.091,299.423L103.053,299.228L102.95,299.008L102.75,298.745L102.748,298.611L103.027,298.281L103.095,298.104L102.325,297.722L102.173,297.638L101.387,297.319L101.018,297.23L100.645,297.217L100.232,297.28L99.567,297.476L99.256,297.522L98.917,297.465L98.464,297.23L98.136,296.967L97.777,296.749L97.247,296.641L96.028,296.661L94.131,296.691L92.785,296.714L92.238,296.723L90.343,296.756L88.45,296.788L86.553,296.82L84.66,296.853L82.765,296.883L80.869,296.915L78.974,296.946L77.079,296.978L75.186,297.008L73.291,297.04L71.396,297.073L69.501,297.103L67.608,297.135L65.713,297.168L64.934,297.181L63.773,297.2L61.133,297.686L60.491,297.623L59.171,297.286L58.227,297.45L56.347,297.412L54.182,297.371L53.774,297.317L52.546,296.881L52.07,296.827L49.599,297.015L49.29,296.898L48.792,296.613L47.988,296.369L45.155,296.596L41.715,296.874L40.076,296.7L39.878,296.741L39.498,296.9L39.247,296.911L38.636,296.721L36.977,296.691L36.294,296.678L36.157,296.773L35.736,297.226L35.506,297.392L34.852,297.045L33.987,296.827L32.233,296.678L32.211,296.68L32.222,296.674L31.938,296.542L31.608,296.59L30.946,296.805L30.631,296.815L30.26,296.766L29.79,296.808L29.149,296.695L28.171,296.246L27.892,296.185L27.167,295.9L26.822,295.806L26.238,295.805L25.46,295.908L24.706,296.122L24.181,296.449L24.017,296.528L23.544,296.864L23.293,297.208L23.065,297.596L22.528,298.243L22.633,299.243L21.582,299.679L20.233,299.635L19.182,300.208L17.511,300.622L16.962,300.761L16.664,300.738L16.596,300.395L16.687,300.235L17.122,299.959L17.126,299.461L17.122,299.296L16.916,299.182L16.573,299.159L16.229,299.228L16.16,299.388L16.023,299.48L15.863,299.801L15.618,299.349L15.51,298.968L15.441,298.813L15.334,298.72L15.081,298.584L15.003,298.528L14.567,297.972L13.164,296.562L12.804,296.102L12,294.738L13.006,294.18L14.781,293.928L16.671,293.947L18.197,293.962L18.27,292.03L18.322,290.675L18.421,288.077L18.517,285.585L18.586,283.807L18.648,282.206L18.511,281.505L18.26,281.327L16.98,280.874L16.862,280.764L16.781,280.566L16.742,280.342L16.753,280.165L16.856,279.963L16.987,279.922L17.141,279.943L17.315,279.922L19.058,279.318L19.833,278.821L20.17,278.034L20.232,277.61L20.417,277.469L21.217,277.409L21.726,277.236L21.878,276.997L21.921,276.668L22.101,276.222L22.412,275.965L23.346,275.423L23.539,275.171L23.582,274.686L23.717,274.219L23.953,273.779L24.301,273.392L24.93,273.034L29.008,272.08L29.75,271.811L29.924,271.215L29.879,270.513L30.22,270.052L30.727,269.998L31.178,270.528L31.345,270.84L31.716,271.383L31.974,272.065L32.176,272.272L32.729,272.627L33.706,273.478L34.083,273.726L35.341,274.178L35.648,274.346L35.843,274.537L35.955,274.789L36.105,275.515L36.547,276.424L36.766,276.248L37.339,275.55L38.408,274.761L38.642,274.639L38.702,274.481L38.618,274.303L38.408,274.122L39.082,273.728L39.32,273.693L39.584,273.812L39.994,274.238L40.245,274.352L40.435,274.292L40.674,274.217L41.125,273.379L41.559,273.097L41.76,273.11L42.235,273.243L42.417,273.224L42.527,273.077L42.469,272.694L42.555,272.466L42.724,272.377L42.896,272.427L43.051,272.444L43.189,272.263L42.911,271.368L42.984,270.911L43.307,270.069L43.382,269.667L43.159,267.656L43.24,267.417L43.481,267.286L44.798,266.825L45.223,266.868L45.689,267.171L45.88,267.425L46.172,267.972L46.399,268.172L46.59,268.222L47.174,268.183L47.196,268.189L47.801,268.364L48.007,268.355L48.224,268.226L48.574,267.804L48.904,267.565L48.949,267.52L48.986,267.46L49.597,266.633L50.372,266.323L52.198,266.102L52.995,265.843L53.774,265.475L54.551,264.791L54.973,264.496L55.918,264.268L56.813,263.781L57.197,263.753L57.317,263.85L57.369,264.016L57.366,264.238L57.33,264.504L57.24,264.804L57.169,264.916L57.175,265.028L57.315,265.329L57.654,265.845L58.06,266.321L58.779,266.784L58.914,266.924L58.847,267.313L58.555,267.729L58.208,268.119L57.976,268.444L57.727,268.698L56.942,269.025L56.613,269.324L56.444,269.626L56.426,269.789L56.583,270.252L56.755,271.047L57.07,271.441L57.379,271.731L57.609,272.063L57.693,272.584L57.656,272.782L57.497,273.148L57.446,273.344L57.459,273.59L57.542,273.788L57.648,273.975L57.727,274.191L57.392,275.81L57.48,276.444L57.843,276.379L58.24,276.317L58.493,276.187L58.92,275.733L59.167,275.601L59.573,275.494L59.955,275.507L60.124,275.733L60.217,275.817L60.661,275.795L60.833,275.81L60.931,275.907L61.101,276.181L61.195,276.237L61.455,276.325L62.103,276.719L62.335,276.806L63.129,276.728L63.741,276.513L65.116,275.651L66.093,275.229L66.419,274.96L66.632,274.649L66.79,274.307L68.492,271.456L70.096,269.875L70.229,269.604L70.398,269.376L71.506,268.814L71.958,268.394L73.054,266.837L73.83,265.734L73.942,265.454L74.16,265.043L74.667,264.748L75.236,264.502L75.641,264.238L77.953,263.071L78.76,262.776L79.275,262.507L79.455,262.436L79.537,262.296L79.996,261.812L80.108,261.631L80.747,259.583L81.009,259.191L81.327,258.946L81.696,258.776L84.694,257.821L85.606,257.685L86.538,257.543L87.456,257.268L88.261,256.846L88.365,256.746L88.866,256.265L89.244,255.041L89.364,254.831L89.51,254.669L90.156,253.54L90.506,252.551L90.8,252.256L90.954,251.787L91.798,250.075L93.09,248.499L93.553,247.594L93.981,246.482L95.004,244.706L95.275,244.079L95.376,243.694L95.414,243.208L95.303,242.984L95.06,242.817L94.815,242.576L94.706,242.137L94.833,241.23L94.828,240.753L94.635,240.362L94.547,240.016L94.633,238.892L94.521,237.722L94.601,236.689L94.511,235.941L94.367,234.735L94.391,234.437L94.446,234.146L94.938,232.662L95.376,229.596L94.685,224.605L94.672,223.602L94.633,223.407L94.584,223.299L94.393,223.011L94.322,222.691L94.365,222.354L94.635,221.42L94.637,221.287L94.607,221.126L94.582,220.644L94.732,220.176L94.985,219.738L95.494,219.074L96.009,218.613L96.597,218.213L97.756,217.103L98.636,216.439L99.945,215.157L100.262,214.749L100.451,214.58L100.55,214.526L100.872,214.391L101.235,214.114L101.363,214.054L101.43,213.77L101.542,213.521L101.592,213.454L103.237,211.284L103.508,210.757L103.63,210.143L103.617,209.437L103.645,209.201L103.75,208.857L103.902,208.516L104.312,207.881L104.594,207.447L105.072,206.483L105.757,205.59L106.529,204.05L106.873,203.563L107.193,202.797L107.673,201.938L107.899,201.358L107.993,201.208L108.128,201.073L108.603,200.789L109.571,200.006L110.221,199.25L111.032,198.533L111.521,197.964L111.579,197.838L111.706,197.786L111.925,197.636L112.052,197.582L112.713,197.473L113.713,197.192L115.099,196.623L115.503,196.513L116.552,196.365L117.638,196.058L117.853,195.932L118.26,195.449L118.318,195.341L118.876,195.071L119.035,194.94L119.46,194.425L120.001,193.925L122.792,190.563L123.961,189.155L124.394,188.835L124.66,188.528L124.905,188.35L124.974,188.275L125.006,188.189L125.047,187.885L125.135,187.724L125.248,187.578L126.575,186.339L126.865,185.929L127.021,185.723L126.839,182.042L126.33,179.967L126.277,179.441L126.332,178.92L127.178,175.05L127.558,174.305L129.191,169.848L130.975,167.352L131.09,167.019L131.226,165.004L131.183,164.647L131.052,164.246L130.833,163.909L130.528,163.739L130.131,162.741L130.004,162.235L129.992,161.649L130.303,160.046L130.305,159.477L129.687,156.83L129.693,155.184L129.453,153.742L129.59,153.264L129.989,152.479L130.453,151.968L131.314,150.522L131.462,150.111L131.537,148.817L132.264,146.49L132.361,145.729L132.477,145.323L133.704,142.633L133.752,142.199L133.595,136.244L133.638,135.886L133.848,135.199L133.915,134.84L133.919,134.51L133.801,133.553L133.9,131.565L133.848,130.928L133.726,130.297L133.726,129.989L134.531,127.801L134.685,127.558L135.185,126.961L135.269,126.749L135.623,126.642L135.836,126.329L136.125,125.606L136.357,125.228L136.537,124.836L136.668,124.427L136.898,123.204L137.061,122.869L137.334,122.53L138.525,121.415L138.737,121.344L138.8,121.17L140.388,118.481L140.909,117.066L140.982,116.503L141.051,116.226L141.551,115.169L141.927,114.63L142.019,114.416L142.103,113.959L142.182,113.747L142.508,113.234L143.195,111.181L143.465,110.806L143.895,110.515L144.626,110.144L144.953,109.863L145.09,109.518L145.135,109.27L145.328,108.806L145.562,105.793L145.399,103.185ZM26.427,296.952L27.022,297.042L27.434,296.996L27.823,296.926L28.281,296.926L27.756,297.338L27.161,297.522L25.994,297.753L25.696,297.959L25.056,298.166L24.394,298.715L23.891,298.853L23.433,298.808L23.101,298.428L23.523,298.007L24.14,297.526L24.825,297L25.374,296.93Z"/>
</svg>
