<svg xmlns="http://www.w3.org/2000/svg" viewBox="0 0 420 520" aria-label="Map of Central African Republic">
  <path fill="currentColor" d="M269.056,128.562L269.122,129.406L273.44,135.737L276.59,137.97L282.105,143.362L287.153,151.563L292.201,159.757L292.831,161.133L293.718,166.45L293.568,167.63L293.157,168.539L292.035,170.274L291.659,171.163L291.677,171.499L291.972,172.261L292.035,172.666L291.994,173.623L292.079,173.914L292.308,174.303L292.533,174.293L292.712,174.363L292.878,174.612L292.894,174.816L292.135,177.207L292.094,177.753L292.405,178.697L292.449,179.145L292.179,179.512L291.778,179.825L290.605,181.305L289.94,181.983L289.589,182.201L289.1,182.287L288.119,182.246L287.658,182.431L287.311,182.952L287.156,183.184L286.488,187.092L286.567,187.842L286.965,188.467L287.774,188.936L288.605,188.869L289.73,187.758L290.263,187.783L290.486,188.447L290.439,189.516L290.066,191.262L289.552,192.108L288.301,193.525L287.902,194.325L287.887,195.062L288.138,195.884L288.598,196.555L289.219,196.839L289.668,196.737L290.382,196.188L290.806,195.949L291.364,195.836L291.878,195.895L292.355,196.099L292.809,196.419L293.204,196.577L294.176,196.556L295.151,196.823L295.643,196.674L296.597,196.232L297.644,196.205L299.562,196.645L301.249,196.472L302.456,196.976L303.04,197.063L303.899,196.919L307.065,197.448L308.774,197.212L309.081,197.169L310.21,197.145L310.759,197.437L310.69,197.873L310.131,198.684L310.015,199.122L310.232,199.553L311.056,200.204L311.207,200.578L311,200.868L309.771,201.687L309.467,202.026L307.767,204.895L307.404,205.937L307.294,206.936L307.592,207.833L308.244,208.605L309.065,209.223L309.874,209.666L310.354,209.852L311.404,210.098L311.59,210.119L312.132,210.179L312.571,210.179L312.79,210.213L313.019,210.332L313.521,210.73L313.681,210.817L315.637,210.14L316.684,210.03L317.405,210.727L317.527,211L317.691,211.201L317.91,211.332L318.208,211.402L319.164,211.999L320.13,212.031L322.259,211.693L323.958,212.009L324.55,212.015L325.162,212.087L326.124,212.622L327.88,212.823L328.849,213.269L331.454,215.681L331.752,216.173L331.821,217.261L332.442,217.906L332.505,218.452L332.671,218.678L332.875,218.879L333.113,219.052L333.373,219.194L334.831,220.833L335.737,221.529L336.659,221.872L337.079,221.845L338.02,221.638L338.449,221.637L339.195,221.76L339.418,221.899L339.568,222.086L339.753,222.255L340.521,222.51L340.91,222.892L341.205,223.371L341.515,224.339L341.967,225.154L342.13,225.673L342.152,226.121L342.036,227.439L342.152,227.896L342.327,228.321L342.418,228.774L342.283,229.31L341.603,229.908L339.6,230.591L338.954,231.209L338.935,231.594L339.07,232.089L339.719,233.618L341.525,234.573L341.929,234.846L342.12,235.055L342.412,235.54L342.591,235.747L342.829,235.882L343.337,236.04L343.534,236.187L343.776,236.625L343.97,237.505L344.133,237.949L344.462,238.395L344.864,238.684L346.566,239.535L347.748,240.439L348.538,240.807L349.12,240.605L349.618,240.692L350.07,240.974L351.434,242.224L351.913,242.487L353.782,242.972L354.35,243.203L355.086,243.79L355.331,243.858L355.92,243.849L356.221,243.98L356.701,244.465L357.036,244.55L357.792,244.583L357.955,244.836L357.958,245.242L358.234,245.737L358.689,245.895L360.053,246.024L360.56,246.263L360.689,246.504L360.761,247.078L360.902,247.359L361.858,247.901L362.166,247.981L362.774,248.071L363.078,248.196L363.254,248.411L363.269,248.643L363.351,248.836L363.705,248.935L365.069,249.046L365.257,249.736L365.364,251.32L365.655,252.01L365.812,252.102L366.003,252.08L366.201,252.029L366.376,252.029L366.511,252.149L366.495,252.315L366.436,252.503L366.448,252.689L366.574,253.081L366.624,253.426L366.734,253.762L367.044,254.129L367.728,254.553L368.276,254.697L368.756,254.912L369.7,256.097L370.935,256.964L371.443,257.499L372.487,258.035L374.28,258.704L375.745,259.537L375.781,260.207L375.801,260.561L375.572,260.865L375.08,261.791L374.117,263.082L373.531,264.312L373.271,264.538L372.967,264.701L372.681,264.909L372.474,265.267L373.048,265.457L373.095,265.907L372.926,266.481L372.857,267.031L373.064,267.661L373.399,267.948L373.857,268.139L374.447,268.474L374.948,268.969L375.679,269.939L376.249,270.307L377.51,270.576L377.989,270.925L378.09,271.713L378.099,272.445L378.381,272.63L378.823,272.61L379.319,272.73L379.717,273.208L379.733,273.79L379.447,274.352L378.946,274.765L378.394,275.074L377.795,275.504L377.3,276.027L377.058,276.619L377.165,277.267L377.644,277.128L378.87,276.275L379.41,276.431L379.745,276.954L379.993,277.611L380.294,278.16L380.767,278.536L382.545,279.153L383.52,279.279L385.664,279.178L387.828,280.029L388.375,280.377L388.699,280.782L388.875,282.149L389.119,282.69L389.825,283.006L390.527,282.954L391.035,282.772L391.405,282.842L391.694,283.533L392.079,284.062L392.716,284.097L394.039,283.771L394.365,284.121L394.719,284.988L395.28,285.42L395.509,285.884L395.707,286.029L395.989,286.036L396.541,285.855L396.82,285.844L398.096,286.33L398.368,286.529L398.585,287.035L398.601,287.361L398.748,287.588L399.353,287.787L399.782,288.004L400.145,288.398L400.4,288.874L400.493,289.347L400.507,289.622L400.571,289.8L400.714,289.937L401.237,290.292L401.262,290.454L401.187,290.653L401.14,291.181L401.004,291.624L401.024,291.829L401.206,292.118L401.366,292.15L401.508,292.078L401.623,292.051L401.73,292.014L401.896,291.917L402.121,291.899L402.413,292.098L402.532,292.356L402.466,292.893L402.523,293.189L401.291,296.523L401.228,296.991L401.291,297.37L401.537,298.146L401.701,299.649L401.827,300.109L402.636,302.029L403.134,302.931L403.753,303.703L405.489,304.874L406.316,305.572L406.812,306.77L407.693,307.406L408,307.799L407.197,307.494L406.909,307.43L406.486,307.144L406.15,307.078L405.57,307.045L405.272,306.988L405.011,306.889L404.583,306.578L404.191,306.225L403.771,305.933L403.241,305.812L402.585,305.736L401.885,305.54L399.391,304.306L398.143,303.852L396.848,303.76L395.446,304.167L394.362,304.736L393.449,305.348L392.601,306.098L391.7,307.078L391.556,307.334L391.264,308.061L391.098,308.327L390.75,308.68L390.581,308.809L390.041,308.762L390.013,308.693L389.91,308.543L389.743,308.395L389.536,308.327L389.339,308.407L389.022,308.729L388.8,308.762L388.602,308.597L387.351,307.269L387.141,307.143L386.708,307.078L385.26,307.078L384.943,307.234L384.529,307.567L384.225,307.722L383.815,307.567L383.561,307.589L383.379,307.911L383.191,307.911L382.949,307.57L382.429,307.497L381.868,307.689L381.513,308.136L381.306,307.911L381.09,308.13L380.704,308.335L380.303,308.488L380.046,308.553L379.522,308.507L378.692,308.209L378.312,308.136L378.253,307.942L377.682,306.777L377.303,306.487L376.845,306.216L376.415,305.883L376.127,305.414L375.484,305.672L375.28,305.812L374.995,305.452L374.481,305.427L373.904,305.493L373.13,305.355L372.543,305.108L371.982,304.705L371.76,304.167L371.622,304.225L371.277,304.313L371.139,304.375L371.123,303.891L371.139,303.732L370.756,303.888L370.562,303.627L370.292,302.692L370.198,302.802L369.875,303.09L369.791,302.96L369.596,302.835L369.461,302.692L369.051,302.872L368.853,302.644L368.653,302.284L368.22,302.068L368.073,302.381L367.906,302.596L367.69,302.692L367.449,302.686L367.264,302.656L367.11,302.599L366.96,302.503L367.06,303.281L367.166,303.525L366.887,303.397L366.618,303.364L366.417,303.489L366.336,303.836L366.179,303.858L365.825,303.855L365.411,303.924L365.094,304.167L364.699,303.884L364.175,303.275L363.852,303.09L363.426,303.019L363.15,303.115L363.015,303.41L363.022,303.941L362.554,303.737L362.022,303.807L361.623,304.154L361.573,304.772L361.031,304.312L360.745,303.754L360.407,303.341L359.708,303.317L359.607,303.506L359.309,303.861L359.002,304.023L358.786,303.418L358.642,303.203L358.557,302.92L358.654,302.503L358.519,302.561L358.193,302.64L358.049,302.692L357.977,301.947L357.554,301.755L357.278,301.877L357.638,302.068L357.353,302.476L356.936,302.508L356.503,302.32L356.171,302.068L355.331,301.132L354.908,300.821L354.234,300.628L354.193,300.594L354.058,300.536L353.835,300.274L353.663,300.197L353.293,300.268L353.086,300.455L352.854,300.512L352.421,300.197L352.421,300.007L352.575,299.903L352.666,299.793L352.744,299.681L352.838,299.573L352.158,299.583L351.91,299.317L351.81,298.918L351.575,298.533L351.387,298.533L350.985,298.591L350.437,298.522L350.104,298.614L350.349,299.157L349.988,299.234L349.245,299.527L348.976,299.458L348.653,299.13L348.563,299.083L348.501,299.195L347.14,299.941L346.482,300.098L345.945,299.78L345.632,300.161L345.187,300.302L344.974,300.494L345.362,301.028L344.738,301.228L344.359,301.67L344.171,302.285L344.121,302.995L343.92,303.374L343.534,303.793L343.277,304.309L343.481,304.981L343.694,305.105L344.293,305.214L344.516,305.414L344.538,305.638L344.372,306.241L344.328,306.558L344.23,306.75L343.801,307.269L343.707,307.608L343.679,308.361L343.553,308.666L343.274,308.97L342.81,309.092L341.481,309.218L341.202,309.48L340.844,309.661L338.907,309.781L338.631,309.669L338.421,309.522L338.195,309.406L337.869,309.385L337.634,309.69L337.408,309.897L337.135,309.99L337.004,310.119L336.687,310.73L336.515,311.347L336.251,311.419L335.173,311.107L334.138,310.533L333.013,310.214L332.671,310.216L332.451,310.328L331.89,310.731L331.73,310.821L331.04,310.964L329.943,311.646L329.341,311.879L328.993,311.849L328.714,311.721L328.466,311.643L328.209,311.766L327.877,312.118L327.554,312.393L327.215,312.433L326.855,312.088L326.353,312.427L325.77,312.465L323.76,312.255L323.453,312.102L323.55,311.786L323.955,311.255L323.535,310.949L322.641,310.656L322.277,310.406L322.111,310.052L322.114,309.443L321.845,309.158L321.462,309.007L320.697,308.89L320.396,308.762L320.211,308.537L319.948,307.956L319.775,307.722L319.189,307.296L318.387,306.883L318.193,306.836L317.549,306.681L316.853,306.889L316.744,307.232L316.756,307.653L316.672,307.9L316.255,307.722L316.088,307.46L315.791,306.558L315.631,306.228L315.211,306.668L314.765,307.378L314.565,308.036L314.891,308.327L315.646,308.485L315.7,308.856L315.32,309.272L314.784,309.574L312.605,309.853L312.298,310.103L312.241,310.183L311.887,311.048L311.787,311.4L311.784,311.683L311.727,311.91L311.47,312.088L311.282,312.088L311.075,311.351L310.577,311.135L309.965,311.287L309.398,311.653L308.548,312.76L308.241,312.919L307.83,312.832L307.244,312.422L306.896,312.295L306.325,312.382L305.805,312.685L305.03,313.335L303.478,314.062L302.939,314.394L302.488,313.951L302.306,313.886L302.115,313.978L301.983,314.165L301.883,314.468L301.87,314.809L302.011,315.111L302.039,315.503L301.312,315.5L300.023,315.223L299.807,315.282L299.494,315.552L299.214,315.64L298.992,315.616L298.396,315.453L298.045,315.415L297.493,315.593L296.327,316.425L295.656,316.679L294.289,316.852L293.678,317.04L292.505,317.712L291.11,318.053L290.458,318.342L288.624,319.803L288.087,320.004L287.379,320.084L286.871,320.322L286.532,320.712L286.316,321.252L286.263,321.602L286.266,321.868L286.238,322.089L286.09,322.31L285.846,322.409L285.285,322.385L285.053,322.517L284.532,322.213L284.008,322.021L283.46,321.923L282.87,321.894L282.767,321.819L282.431,321.469L282.359,321.365L282.225,321.29L281.557,321.155L281.306,321.062L280.911,320.213L280.074,319.693L279.97,319.588L279.6,319.374L278.845,318.317L278.39,317.926L277.029,318.61L276.286,318.731L275.619,318.445L275.292,318.167L274.944,317.935L274.568,317.778L274.161,317.718L273.797,317.548L273.609,317.149L273.49,316.698L273.157,316.057L272.838,315.238L272.587,314.998L272.211,314.968L271.847,315.105L271.496,315.289L271.138,315.415L270.699,315.398L270.417,315.305L270.188,315.324L269.897,315.64L269.718,316.019L269.702,316.392L269.837,316.752L270.104,317.095L269.853,317.397L269.185,317.909L268.837,318.743L268.335,318.653L267.752,318.337L267.291,318.153L266.78,318.336L266.489,318.779L266.147,319.816L265.912,320.279L265.648,320.661L265.319,320.981L264.887,321.252L264.893,321.611L265.075,322.229L265.115,322.517L265.04,322.729L264.745,323.263L264.68,323.453L264.586,323.614L264.175,323.923L264.081,324.085L264.084,324.807L264.021,325.128L263.852,325.426L263.432,325.637L262.786,325.695L261.45,325.653L260.908,325.973L260.742,326.713L260.804,327.547L260.955,328.145L261.479,328.768L261.554,328.996L261.419,329.33L261.134,329.659L260.773,329.914L260.425,330.015L260.184,330.298L259.296,331.922L259.309,332.264L259.491,332.902L259.503,333.169L259.331,333.47L258.776,333.955L258.657,334.093L258.422,334.565L257.882,335.089L256.81,335.849L256.633,335.922L256.036,336.168L255.757,336.283L252.135,336.468L249.223,335.811L248.539,335.376L247.846,335.115L247.536,334.924L246.972,334.34L246.815,334.206L246.226,334L244.689,333.705L244.046,333.404L243.206,333.011L242.981,332.941L242.62,332.954L242.466,332.993L242.338,333.064L242.049,333.169L241.416,333.282L239.648,333.169L238.924,333.036L238.444,332.728L238.024,332.376L237.472,332.111L237.202,332.074L236.324,332.111L235.989,332.064L235.838,331.951L235.754,331.815L235.61,331.696L234.967,331.459L234.531,331.406L233.5,331.487L232.352,331.39L231.838,331.434L228.925,332.941L228.612,332.802L228.013,332.797L227.684,332.734L227.461,332.589L227.235,332.379L226.953,332.192L226.561,332.111L225.248,332.168L224.664,332.121L223.971,331.922L223.47,331.697L222.015,330.768L221.868,330.554L221.667,330.338L221.347,330.242L220.952,330.268L220.667,330.343L220.438,330.467L220.206,330.638L220.021,330.839L219.855,331.087L219.651,331.324L219.378,331.487L218.999,331.514L218.758,331.36L218.538,331.169L218.231,331.073L217.623,331.04L217.397,330.947L217.152,330.445L216.785,330.263L216.046,330.015L215.738,329.637L215.155,328.573L214.907,328.353L214.409,328.258L211.493,327.189L208.703,326.591L207.515,326.673L207.101,326.891L206.746,327.173L206.286,327.419L205.558,327.522L203.147,327.522L200.561,327.919L199.868,327.759L199.247,327.353L196.119,324.418L195.986,324.293L195.676,323.636L195.826,323.053L196.134,322.542L196.312,322.101L196.112,321.475L195.619,320.787L195.024,320.232L194.513,320.004L194.262,319.783L193.6,318.342L193.005,317.4L192.547,316.897L192.048,316.679L191.418,316.601L189.995,316.13L189.443,315.849L188.853,315.359L187.474,313.656L186.894,313.281L184.884,312.502L183.922,311.846L183.207,311.232L182.385,310.73L179.699,310.163L178.955,309.888L178.636,309.48L178.488,309.007L177.962,308.116L177.72,307.707L177.369,307.287L176.946,306.999L175.566,306.354L174.645,306.164L174.036,305.876L173.757,305.812L170.299,305.741L169.183,305.226L168.572,305.343L167.615,305.812L166.991,305.878L165.019,305.812L164.336,305.982L163.887,306.39L163.248,307.287L160.539,308.97L159.119,309.624L158.899,309.886L158.442,310.679L157.865,311.465L157.36,311.584L155.965,311.569L155.454,311.766L155.167,312.038L154.457,312.713L154.024,313.264L153.682,313.978L153.416,314.93L153.268,315.223L153.014,315.494L152.745,315.691L152.528,315.942L152.281,317.106L151.87,317.545L151.337,317.887L150.785,318.342L149.751,320.108L149.619,320.216L149.033,320.429L148.901,320.543L148.832,320.588L148.487,321.478L147.452,322.31L146.719,323.347L145.164,327.198L144.446,328.197L143.468,328.904L142.05,329.393L141.436,329.517L140.825,329.555L140.229,329.438L139.668,329.09L139.081,329.044L138.486,329.61L138.034,330.41L137.887,331.073L138.128,331.592L138.962,332.302L139.147,332.631L139.307,333.211L140.392,335.225L140.787,336.416L141.207,338.984L141.169,340.916L141.057,341.652L140.843,342.337L140.21,343.378L140.15,344.059L140.16,344.438L140.185,345.438L139.583,349.206L140.596,356.286L139.263,356.27L138.893,355.898L138.41,354.781L137.169,352.779L136.673,352.195L135.915,351.569L135.52,351.589L135.184,351.995L134.629,352.537L134.353,352.654L133.839,352.624L133.494,352.669L133.359,352.797L133.234,353.212L133.118,353.322L132.905,353.317L132.563,353.146L132.381,353.107L129.964,353.322L129.629,353.311L129.356,353.235L129.133,353.306L128.951,353.725L128.735,354.643L128.619,354.94L128.268,355.463L127.738,355.968L127.101,356.27L126.443,356.181L126.045,355.738L125.659,354.524L125.126,354.002L124.082,353.654L123.023,353.664L121.991,353.942L121.044,354.403L120.668,354.443L120.376,354.334L119.304,353.654L119.144,353.589L118.972,353.718L117.812,354.284L117.238,354.449L116.805,354.362L116.598,353.886L116.454,353.283L116.169,352.726L115.78,352.282L115.319,352.011L115.056,351.989L114.47,352.107L114.191,352.102L113.999,351.994L113.705,351.657L113.501,351.564L113.284,351.575L112.933,351.707L112.77,351.74L110.287,351.743L109.058,351.563L107.958,351.08L106.835,350.136L106.697,350.058L106.274,350.014L106.127,349.894L106.007,349.495L105.876,349.359L105.18,349.252L104.688,349.465L104.227,349.804L103.832,350.008L102.656,350.615L102.051,351.375L101.402,351.981L100.301,352.06L99.518,351.797L99.129,351.756L98.69,351.917L98.27,352.266L98.022,352.588L97.749,352.869L97.241,353.099L96.806,353.163L95.589,353.126L95.172,353.24L94.357,353.558L93.94,353.624L93.122,353.572L92.849,353.638L92.344,353.876L92.134,354.016L91.792,354.312L91.538,354.424L91.353,354.436L90.946,354.383L90.711,354.428L90.306,354.565L90.062,354.414L89.839,354.157L89.507,353.969L89.209,353.944L88.369,354.044L88.09,353.991L87.535,353.784L87.249,353.712L86.804,353.756L86.763,354.005L86.848,354.326L86.788,354.585L86.193,354.888L85.553,354.924L83.054,354.3L82.443,354.254L81.744,354.3L80.32,354.713L79.079,355.532L78.144,356.665L77.659,358.021L77.389,360.562L76.63,362.474L76.611,363.219L76.439,363.871L75.395,365.325L75.044,366.02L75.022,366.771L75.263,367.415L75.58,368.036L75.812,368.714L75.611,369.806L74.439,372.061L74.523,373.403L74.893,373.976L75.332,374.469L75.599,375.015L75.458,375.747L74.592,377.591L73.891,379.082L73.473,379.972L72.181,382.713L70.802,385.641L69.827,387.719L68.447,390.648L66.889,393.962L66.773,393.869L66.375,393.642L66.422,393.351L66.594,392.964L66.582,392.71L66.472,392.605L66.052,392.34L65.958,392.191L65.92,391.583L65.864,391.309L65.754,391.033L65.544,390.719L64.97,390.065L64.591,389.313L64.349,388.679L64.305,388.433L64.305,387.3L64.171,386.745L63.785,386.035L63.663,385.641L63.691,384.965L64.164,383.925L64.305,383.343L64.215,382.723L63.747,381.663L63.663,381.044L63.766,380.703L63.998,380.256L64.274,379.843L63.929,379.766L63.54,379.736L63.133,379.801L62.822,379.79L62.722,379.528L62.744,379.102L62.628,378.07L62.741,377.269L63.559,376.45L63.81,375.733L63.725,374.927L63.424,374.248L63.051,373.612L62.603,372.604L61.96,371.667L61.719,371.413L61.402,371.276L61.108,371.262L60.785,371.338L60.377,371.482L60.248,371.353L60.142,371.207L60.06,371.043L59.656,369.514L59.408,368.922L58.903,368.291L58.314,367.799L57.822,367.63L56.517,367.768L56.401,367.724L56.075,367.512L55.894,367.477L55.74,367.535L55.389,367.733L55.267,367.768L54.887,367.71L54.649,367.638L54.42,367.495L52.147,365.08L49.3,362.062L46.3,358.877L43.146,355.525L40.59,352.817L38.545,350.641L38.252,350.329L35.784,347.711L33.163,343.854L31.376,339.589L31.896,339.587L32.868,339.836L33.37,339.9L33.962,339.776L35.151,339.211L35.819,339.05L36.414,338.794L36.345,338.463L35.978,338.209L35.514,338.134L35.091,338.134L34.912,337.936L34.812,337.506L34.618,337.082L34.16,336.906L33.699,336.964L33.354,336.678L33.15,335.863L33.103,334.132L32.796,332.294L32.523,331.457L32.059,330.599L31.009,329.303L30.812,328.892L30.605,328.118L30.404,327.811L30.043,327.592L28.717,327.122L23.905,323.802L22.813,322.739L22.011,321.459L21.616,320.019L21.406,317.71L21.205,317.195L21.24,316.995L21.368,316.659L21.506,315.912L21.531,315.604L21.092,312.727L20.929,312.36L20.754,312.061L20.641,311.755L20.713,310.94L20.572,310.65L20.377,310.388L20.258,310.043L20.278,309.604L20.283,309.472L20.5,308.346L20.365,307.168L20.371,305.633L20.239,304.941L20.017,304.242L19.681,303.611L19.195,303.129L18.562,302.818L17.255,302.381L16.625,301.979L16.145,301.434L16.023,301.102L16.27,301.028L16.621,300.706L16.888,300.19L17.057,299.65L17.117,299.251L17.264,299.125L17.568,298.654L17.825,298.146L17.835,297.909L18.236,297.767L18.371,297.419L18.34,296.546L18.44,296.042L18.882,295.182L18.982,294.864L19.026,293.945L18.976,293.567L18.775,293.085L18.349,292.367L18.195,291.949L18.155,291.421L18.236,290.946L18.775,289.566L19.192,287.905L19.396,287.465L19.183,286.847L18.982,283.595L18.543,283.033L18.393,282.42L17.991,281.812L17.618,281.789L16.797,282.296L16.349,282.346L15.395,282.236L14.878,282.233L14.38,281.896L14.151,281.416L14.019,280.883L13.809,280.391L13.367,279.92L12.919,279.56L12.571,279.14L12.317,278.892L12.066,278.529L12,278.286L12.091,278.08L12.317,277.831L12.461,277.803L12.778,278.042L12.937,278.039L13.069,277.91L13.176,277.65L13.27,277.519L13.405,277.223L13.379,277.063L13.351,276.895L13.314,276.79L13.718,276.418L14.42,275.737L14.878,275.6L15.753,274.738L16.208,274.166L16.48,273.677L17.738,273.687L22.064,271.609L22.544,271.225L23.679,269.764L23.986,269.201L24.055,268.864L24.046,268.532L23.914,267.814L23.98,267.466L24.742,266.422L28.218,258.525L28.538,257.796L28.952,257.324L29.445,256.99L31.266,256.078L31.636,255.765L31.868,255.338L32.379,253.947L33.022,252.67L34.022,250.023L34.499,248.135L34.718,247.56L35.047,247.054L35.323,246.872L36.019,246.549L36.276,246.236L36.358,245.925L36.21,244.149L36.248,243.86L36.389,243.523L36.809,242.823L37.38,241.377L38.067,240.79L38.515,240.407L40.847,239.094L42.277,237.987L42.393,237.81L42.644,237.303L42.82,237.131L43.014,237.091L43.585,237.056L43.716,237.028L43.782,236.625L43.193,236.076L43.312,235.596L44.945,233.376L45.18,232.943L46.228,233.281L47.331,233.352L49.542,233.05L50.868,233.156L52.429,234.614L53.592,235.014L54.671,234.94L58.656,234.016L59.198,233.798L60.186,233.189L60.631,232.754L61.296,231.809L61.722,231.363L62.227,231.086L62.901,230.863L64.829,230.61L65.857,230.254L66.553,230.265L67.209,230.18L67.817,229.811L68.867,229.006L69.501,228.755L72.172,228.375L72.542,228.125L72.667,227.697L72.664,225.616L72.821,224.974L73.282,224.593L73.608,224.599L73.884,224.733L74.191,224.828L74.602,224.714L74.793,224.483L75.163,223.681L75.354,223.376L75.84,222.964L76.37,222.687L77.568,222.328L77.611,222.583L77.63,222.858L77.615,223.14L77.452,224.074L77.586,224.634L77.916,225.093L78.408,225.458L78.725,225.588L79.016,225.662L79.283,225.782L79.521,226.058L79.675,226.483L79.615,226.803L79.483,227.108L79.424,227.485L79.555,228.158L79.869,228.492L81.041,228.837L81.759,229.193L82.455,229.745L83.575,231.005L84.239,232.117L84.656,232.395L85.359,232.318L85.581,232.195L85.649,232.138L86.306,231.589L86.393,231.591L86.719,231.638L86.826,231.589L86.886,231.347L86.782,231.198L86.65,231.062L86.622,230.852L86.854,230.243L87.177,229.846L87.638,229.588L88.82,229.245L90.127,229.043L90.711,229.103L90.924,228.734L91.184,228.552L91.51,228.524L92.441,228.682L92.535,228.543L92.504,228.283L92.642,228.002L93.059,227.64L93.658,227.842L93.996,228.029L94.156,228.2L94.351,228.215L94.786,227.935L95.37,227.377L96.432,226.078L96.981,225.57L97.216,225.539L97.464,225.58L97.661,225.442L97.765,224.876L97.953,224.528L98.351,224.141L98.376,224.116L98.869,223.773L102.96,222.314L103.575,221.929L103.973,221.464L105.406,221.896L105.769,221.66L106.039,220.967L106.537,220.606L107.149,220.461L108.24,220.347L108.876,220.166L109.459,219.867L110.086,218.998L110.67,218.805L111.334,218.767L111.88,218.8L116.05,219.508L117.31,219.558L118.495,219.343L120.903,218.433L123.731,217.759L137.012,217.407L139.47,216.88L140.339,215.586L140.361,214.099L140.966,212.904L141.997,211.988L143.286,211.34L145.067,210.728L145.596,210.46L146.258,209.876L147.528,207.933L148.515,206.978L148.935,206.436L149.211,205.689L149.519,205.102L152.55,201.622L153.789,199.167L154.121,198.975L154.406,198.811L154.704,198.331L155.695,197.649L155.081,196.944L154.159,196.254L153.682,195.973L153.406,195.483L149.779,193.921L149.421,193.657L149.274,193.25L149.189,192.731L148.986,192.439L148.487,192.715L147.979,192.298L147.976,191.847L148.675,190.808L148.939,190.93L149.218,190.922L149.434,190.781L149.525,190.504L149.591,190.186L149.763,190.079L150.001,190.028L150.475,189.763L151.077,189.572L151.199,189.456L151.277,189.226L151.469,189.012L151.914,188.607L152.594,188.128L153.77,187.546L154.98,187.205L155.773,187.454L155.983,187.454L156.241,187.408L157.049,187.606L157.225,187.558L157.379,187.205L157.755,187.054L158.993,186.989L159.617,186.816L159.915,186.806L160.279,186.999L160.599,187.281L160.893,187.382L161.175,187.034L161.523,187.271L162.041,187.473L162.615,187.611L163.135,187.662L163.536,187.576L164.699,187.139L164.979,187.279L167.299,187.244L167.455,187.296L167.578,187.384L167.744,187.403L168.032,187.244L168.728,187.265L169.619,186.896L170.544,186.701L171.346,187.244L171.842,187.021L173.165,187.042L173.437,186.919L173.588,186.779L174.322,186.465L174.585,186.405L174.936,186.385L175.732,186.177L176.366,186.104L178.912,186.25L179.297,186.083L179.67,185.546L180.103,185.752L180.205,185.729L180.548,185.65L181.326,185.128L181.551,185.088L181.824,185.119L182.053,185.076L182.153,184.822L182.179,184.645L182.251,184.47L182.354,184.341L182.473,184.288L182.702,184.407L182.809,184.877L183.003,184.917L183.185,184.791L183.172,184.634L183.125,184.462L183.21,184.288L184.1,183.547L184.348,183.431L184.599,183.474L185.013,183.646L185.279,183.659L185.314,183.553L185.286,183.337L185.329,183.125L185.59,183.03L185.819,183.197L186.079,183.564L186.439,183.932L186.954,184.098L187.408,183.96L188.27,183.358L188.716,183.22L189.029,183.313L189.377,183.54L190.061,184.098L190.663,183.965L193.168,184.098L193.741,183.986L193.926,183.878L194.488,183.466L194.776,183.31L195.099,183.274L195.466,183.431L196.08,182.78L196.45,182.017L196.88,181.386L197.651,181.122L197.827,180.796L197.513,180.072L197.316,179.351L197.864,179.025L198.234,178.96L198.454,178.775L198.563,178.481L198.592,178.089L198.701,177.791L198.977,177.833L199.626,178.203L199.664,178.175L200.231,178.208L200.25,178.203L200.761,178.37L200.971,178.394L202.526,178.394L202.131,177.135L203.373,176.505L204.74,176.085L205.031,175.857L205.257,176.085L205.521,175.795L205.655,175.441L205.821,175.142L206.179,175.016L206.301,174.951L206.48,174.663L206.593,174.596L206.737,174.664L206.934,174.794L206.954,174.802L207.148,174.883L207.326,174.826L207.524,174.236L207.574,173.461L207.79,172.786L208.468,172.497L208.784,172.23L209.951,170.943L210.211,170.492L210.327,170.166L210.606,169.936L211.264,169.556L211.402,169.288L211.456,169.017L211.619,168.904L212.089,169.117L212.048,168.714L211.998,168.617L211.866,168.487L211.866,168.278L212.296,168.134L212.481,167.744L212.506,166.702L212.603,166.233L213.033,165.4L213.127,164.812L213.205,164.678L213.377,164.514L213.581,164.368L213.747,164.286L213.785,164.24L213.816,164.16L213.895,164.089L214.067,164.055L214.205,164.125L214.487,164.423L214.597,164.476L214.82,164.379L215.036,164.226L215.425,163.865L215.544,163.833L215.682,163.868L215.792,163.875L215.839,163.751L215.814,163.325L215.839,163.215L216.293,162.093L216.604,161.553L218.281,160.454L218.529,160.387L218.62,159.904L218.839,159.478L220.394,157.663L220.83,157.309L221.25,157.576L222.492,158.064L222.899,158.151L223.956,157.745L224.943,156.745L225.746,155.498L227.326,151.854L228.17,150.738L229.132,150.137L229.421,150.179L229.791,150.307L230.173,150.376L230.49,150.242L230.603,150.305L231.568,149.999L231.731,149.908L232.509,149.716L232.891,149.237L233.136,148.622L233.5,148.013L233.757,147.905L234.105,147.87L234.406,147.775L234.534,147.486L234.506,147.234L234.374,146.777L234.346,146.444L234.456,145.796L235.384,144.223L235.158,144.002L235.133,143.792L235.183,143.587L235.177,143.381L234.989,143.106L234.456,142.489L234.346,142.202L234.28,141.697L234.001,140.515L233.935,139.886L234.001,139.287L234.28,138.374L234.346,137.769L234.522,137.284L234.942,136.992L235.456,136.851L235.911,136.812L236.086,136.714L236.224,136.495L236.409,136.277L236.729,136.18L236.977,136.143L237.553,135.986L237.867,135.949L238.469,136.252L238.798,136.32L238.942,136.064L239.055,136.022L239.751,135.355L240.679,134.709L241.209,134.458L243.053,133.994L243.379,133.646L243.084,132.998L243.282,132.573L243.492,131.937L243.83,131.355L244.41,131.1L246.953,131.361L247.433,131.292L248.285,131.742L248.693,131.091L249.022,130.122L249.894,129.402L250.22,128.971L250.612,128.681L251.079,128.876L251.323,128.89L251.65,128.661L252.217,128.148L252.606,127.938L253.233,127.679L253.891,127.496L253.999,127.479L254.822,127.346L255.283,127.206L255.653,126.968L256.211,126.325L256.5,126.117L256.904,126.038L257.384,126.127L257.823,126.275L258.19,126.306L258.466,126.038L259.155,126.666L259.795,126.714L260.441,126.524L261.162,126.441L261.413,126.521L261.993,126.802L262.3,126.863L263.357,126.834L263.645,126.863L264.774,127.156L265.539,127.8L267.385,128.397Z"/>
</svg>
