<svg xmlns="http://www.w3.org/2000/svg" viewBox="0 0 420 520" aria-label="Map of Republic of the Congo">
  <path fill="currentColor" d="M407.157,42.411L407.587,43.868L408,50.475L407.407,58.107L406.918,59.283L406.804,59.909L406.456,60.783L405.63,61.496L403.776,62.435L402.689,63.173L402.004,64.123L400.264,69.322L399.438,70.623L399.236,71.159L399.024,72.316L398.791,72.86L397.839,74.224L396.573,76.902L396.399,77.604L396.214,79.03L394.893,82.614L390.87,89.425L390.712,89.866L390.174,90.045L387.157,92.87L386.466,93.73L386.053,94.578L385.471,97.675L385.14,98.711L384.683,99.704L384.096,100.662L383.362,102.493L382.824,103.287L381.927,103.556L381.715,104.095L380.448,105.608L380.057,106.222L378.018,111.764L378.018,112.544L378.328,114.144L378.458,115.757L378.208,120.793L378.507,123.217L378.496,124.052L378.328,124.961L377.795,126.701L377.686,127.608L378.083,142.693L377.964,143.792L374.854,150.606L374.56,151.635L374.316,153.562L372.473,159.458L372.283,162.734L371.907,163.775L369.727,167.44L368.553,168.734L367.542,170.721L367.194,171.931L367.803,175.585L367.787,179.755L369.352,186.459L369.347,187.9L368.559,191.961L368.591,193.445L368.912,194.729L369.918,197.257L370.69,197.686L371.244,198.54L371.576,199.556L371.685,200.459L371.342,205.564L371.048,206.406L366.531,212.729L362.394,224.021L361.431,225.907L359.289,235.709L359.148,237.03L359.284,238.362L360.572,243.619L361.034,252.943L360.638,253.465L359.904,254.503L356.544,257.64L356.256,258.01L356.033,258.418L355.93,259.19L355.848,259.407L355.674,259.598L355.054,260.049L354.38,260.826L353.282,261.636L350.321,265.203L343.252,273.717L341.882,274.984L340.805,276.289L340.403,276.621L338.99,277.306L338.843,277.578L337.81,278.801L337.266,279.122L334.515,279.899L331.857,280.275L330.835,280.552L327.323,281.993L324.79,282.705L323.115,282.982L322.794,283.118L322.24,283.499L321.919,283.63L321.772,283.95L320.533,285.391L318.478,287.207L316.831,289.121L314.379,291.106L313.177,291.824L312.835,292.167L312.596,292.547L312.025,294.015L310.807,296.191L309.997,298.132L309.127,299.366L307.17,303.266L305.436,305.528L304.224,307.97L303.512,309.071L302.473,310.678L302.087,311.543L301.821,312.413L301.75,313.011L301.783,314.801L301.473,316.356L300.788,317.689L296.621,323.187L296.493,323.356L296.21,323.987L296.042,324.705L295.716,324.858L294.797,325.559L293.981,325.902L293.731,326.038L293.253,326.468L292.448,327.501L289.132,330.749L286.903,332.43L283.967,335.242L282.478,336.254L281.173,337.424L279.885,339.105L279.243,340.215L278.863,341.401L278.928,342.619L279.004,343.027L278.998,343.365L278.313,345.731L278.205,346.585L278.384,347.396L278.868,348.125L278.993,348.397L279.091,348.892L279.123,351.433L280.874,364.075L279.765,371.841L278.52,375.602L278.379,376.337L278.319,377.094L278.685,380.148L278.911,382.042L278.71,384.66L278.993,387.622L278.776,390.469L278.998,391.346L279.488,392.337L279.499,393.546L279.178,395.844L279.455,396.954L280.075,397.564L280.689,397.989L280.972,398.555L280.874,399.786L280.618,400.761L279.933,402.351L277.34,406.849L276.258,409.665L275.084,411.958L271.811,415.951L269.675,420.287L269.283,421.475L268.539,422.221L267.653,424.727L266.016,427.588L265.646,427.997L265.342,428.53L264.385,431.631L263.117,432.848L262.852,433.102L260.813,434.17L258.487,434.868L256.127,435.228L253.817,435.571L246.222,437.991L245.287,438.421L244.482,439.042L243.819,440.034L242.199,445.223L241.916,445.681L240.753,446.908L240.546,447.262L240.09,447.442L238.785,448.123L236.741,448.87L230.886,451.825L229.858,452.496L228.418,453.117L227.135,453.864L226.58,454.905L226.297,455.614L224.332,458.408L221.557,462.354L220.41,463.417L217.605,464.841L217.175,465.419L216.838,466.106L212.777,470.109L208.466,477.331L208.064,478.199L207.525,478.984L206.699,479.666L204.225,480.736L200.741,482.918L199.191,483.464L197.18,483.66L196.593,483.442L194.951,482.444L194.293,482.22L194.054,482.078L193.624,481.385L193.374,481.14L192.939,481.101L191.814,481.156L191.58,480.943L191.151,480.37L190.183,480.337L189.156,480.61L188.53,480.943L187.449,482.094L186.807,482.422L185.801,482.58L184.883,482.744L184.66,481.14L185.508,477.037L185.307,476.491L185.04,476.017L184.828,475.515L184.796,474.893L184.926,474.397L185.328,473.469L185.421,472.967L185.209,471.647L184.627,470.807L183.844,470.071L183.045,469.073L182.61,467.06L182.213,465.888L182.257,465.473L182.686,464.71L183.518,463.952L185.508,463.123L186.138,462.479L186.726,461.656L187.606,460.669L188.346,459.616L188.514,458.629L188.172,458.275L186.35,457.103L185.323,455.898L184.464,454.589L184.111,453.826L184.094,453.542L184.274,453.259L184.502,452.501L184.594,451.825L184.6,451.263L184.469,450.844L184.165,450.598L183.192,450.669L180.925,451.901L178.533,452.479L177.462,453.226L175.494,454.96L173.52,455.892L171.503,456.546L166.877,457.108L164.914,457.893L163.365,459.987L163.273,460.14L163.159,460.254L162.321,460.86L161.435,461.928L160.886,462.256L160.364,462.277L158.831,461.835L158.777,461.819L157.298,461.918L156.814,461.792L156.238,461.285L155.499,459.9L155.015,459.256L153.835,458.488L152.759,458.379L149.421,459.545L148.812,459.878L148.605,460.483L149.171,465.577L148.98,466.597L148.162,468.729L147.977,469.885L148.681,472.155L148.333,472.613L147.939,472.569L147.504,472.444L147.075,472.667L146.857,473.246L147.004,474.216L146.727,474.587L146.265,474.637L145.063,474.298L144.552,474.266L143.454,474.98L142.312,477.102L141.706,477.294L141.225,477.446L140.589,477.157L139.551,476.077L138.882,475.777L138.279,475.864L136.572,476.862L137.104,477.321L137.316,477.773L137.164,478.172L136.572,478.483L133.864,480.479L132.413,482.247L131.858,482.695L130.738,480.392L130.358,478.553L130.075,477.915L129.58,477.43L128.803,477.004L125.617,475.859L124.66,475.231L122.187,473.076L120.784,472.176L120.273,471.653L119.621,469.924L118.68,468.549L118.256,467.758L117.114,466.417L115.832,466.553L114.967,467.72L115.081,469.498L112.635,468.276L109.183,464.143L107.101,462.479L106.073,461.312L105.127,458.777L104.361,457.713L103.54,457.244L102.909,457.31L102.278,457.593L101.463,457.762L100.74,457.61L99.772,457.085L99.392,456.879L98.669,456.617L97.418,457.343L96.82,458.558L96.396,459.818L95.684,460.669L94.733,461.214L93.874,461.901L93.14,462.746L91.998,464.873L91.416,465.484L90.59,465.789L84.757,466.858L81.174,468.031L80.386,468.102L78.961,467.922L78.467,468.658L78.532,470.922L78.282,472.024L76.086,476.388L75.536,477.037L74.786,477.326L73.003,477.511L72.204,477.702L71.443,477.997L70.975,478.401L70.312,477.168L69.834,476.562L69.339,476.262L68.714,476.262L68.469,476.502L66.871,481.914L65.485,484.151L59.554,489.203L59.109,489.785L58.304,489.054L57.577,488.191L56.387,486.21L54.409,483.808L53.119,482.553L52.62,481.106L49.692,478.033L49.146,477.387L49.097,477.09L49.349,476.731L49.659,476.793L50.362,477.598L50.631,477.453L50.878,476.813L50.733,475.7L49.349,473.898L47.117,471.878L46.869,471.216L46.91,470.679L48.153,470.692L49.144,469.602L49.379,468.413L48.42,466.427L42.454,460.431L36.991,455.746L32.192,451.492L29.704,449.946L27.117,447.658L26.122,446.058L25.87,445.723L25.189,444.568L25.048,444.057L25.104,442.899L25.052,442.302L24.847,441.886L20.214,438.185L15.072,434.797L13.319,433.511L12,432.655L12.821,431.126L16.317,421.687L17.182,420.026L18.552,418.854L20.346,417.689L21.911,416.398L23.608,415.352L25.771,414.916L27.777,414.246L28.952,412.737L29.936,411.114L31.387,410.117L34.024,410.498L35.975,411.996L40.151,418.762L41.031,419.715L42.173,420.102L45.038,419.732L46.093,419.851L49.121,420.718L50.099,420.745L50.23,420.695L51.154,420.342L52.29,419.492L53.22,418.38L53.633,417.193L53.263,416.076L52.252,415.531L51.007,415.128L49.92,414.48L49.398,413.38L49.545,412.16L52.546,405.058L53.258,403.789L55.525,402.089L56.232,400.957L55.677,399.258L53.644,398.305L51.149,397.619L49.235,396.709L47.115,394.961L46.006,394.297L43.027,393.05L42.619,392.745L42.168,392.293L42.07,392.092L42.157,391.792L42.206,388.145L42.467,387.219L43.162,385.912L43.711,385.58L44.435,385.64L45.647,385.515L46.946,384.715L46.946,383.582L46.174,382.368L42.173,378.112L40.357,375.471L39.498,374.503L38.449,374.16L36.954,374.617L34.823,376.114L33.92,376.266L33.649,375.031L34.174,373.014L34.274,372.63L38.107,366.371L38.59,365.038L38.846,363.944L38.846,362.85L38.563,361.506L38.068,360.325L36.737,358.197L36.329,357.087L36.307,356.167L36.688,353.251L36.497,352.092L35.367,349.023L35.785,347.989L35.899,347.957L37.846,348.022L40.504,348.827L41.227,349.197L41.553,349.605L41.765,350.046L42.168,350.514L43.945,351.907L44.902,352.413L45.772,352.484L46.647,351.972L48.43,350.329L49.599,349.861L51.497,349.486L53.715,348.773L55.362,347.957L55.905,348.278L56.857,348.98L58.64,351.194L60.249,352.299L61.88,352.478L82.762,348L82.164,346.841L82.544,345.138L83.251,343.326L83.615,341.814L83.24,339.638L83.338,338.86L83.713,338.06L84.659,336.57L84.893,335.661L82.843,334.731L81.75,333.044L81.299,330.917L80.859,325.244L81.06,324.531L81.647,324.667L82.274,325.333L83.273,326.392L84.197,326.68L84.876,326.31L85.105,325.777L85.143,325.206L85.235,324.749L85.556,324.08L85.817,323.737L86.138,323.438L88.714,321.708L89.28,321.502L91.868,321.431L94.107,322.361L97.582,324.879L97.815,325.048L100.039,325.766L100.925,326.375L101.534,327.659L102.692,331.478L103.165,332.593L103.469,332.979L104.29,333.784L104.524,334.1L104.73,335.302L104.638,335.324L104.638,335.569L104.583,335.884L104.698,336.156L105.687,336.412L105.654,336.716L105.448,337.065L105.35,337.315L105.127,337.712L105.035,338.044L105.16,338.392L105.85,339.067L106.051,339.437L106.089,339.981L106.318,340.916L107.068,340.889L108.346,340.236L108.802,340.682L109.786,342.293L110.281,342.897L110.547,344.317L110.689,344.741L111.064,345.144L111.384,345.133L111.635,345.187L111.765,345.78L111.325,346.248L111.031,346.678L110.922,347.211L110.884,347.663L110.738,348.125L110.526,348.566L110.281,348.936L109.694,349.431L109.422,349.921L109.574,350.236L110.281,350.198L110.889,349.589L111.841,348.637L112.521,348.435L113.825,348.669L117.218,350.209L118.316,350.476L118.892,350.356L119.898,349.768L120.507,349.687L121.023,349.801L130.195,353.207L131.13,353.316L132.141,353.066L133.282,353.251L133.554,353.256L134.294,353.028L134.631,353.115L135.071,353.762L135.343,353.849L135.897,353.534L136.137,353.109L136.283,352.62L136.572,352.114L137.093,351.608L138.8,350.427L139.246,349.986L140.013,349.023L140.535,348.555L141.16,348.24L142.416,347.837L142.943,347.478L143.177,347.01L143.329,345.895L143.682,345.35L147.684,341.471L148.108,340.884L148.301,340.334L148.382,339.295L148.524,338.713L149.078,337.663L150.176,336.026L150.296,335.743L150.464,335.808L151.019,336.205L151.742,336.901L152.378,337.897L152.835,339.007L153.313,341.183L154.509,343.626L155.156,344.594L156.118,345.574L156.472,346.09L156.646,347.554L157.053,347.94L157.608,348.207L158.152,348.593L158.869,349.573L158.646,349.915L158.021,350.302L157.276,351.89L156.184,352.44L155.792,352.903L155.754,354.932L155.694,355.193L156.553,355.95L157.755,356.347L159.043,356.412L160.147,356.184L161.055,355.634L161.56,355.406L162.071,355.406L162.555,355.759L162.713,356.723L163.05,357.033L163.452,357.038L165.871,356.282L166.203,356.222L166.73,356.265L167.54,356.733L168.062,356.951L168.541,356.88L168.856,356.483L169.094,355.799L169.421,354.861L169.867,354.394L170.373,353.996L170.742,353.539L170.721,352.157L170.96,351.624L171.389,351.172L172.395,350.318L172.873,349.997L173.395,349.758L175.907,349.17L176.135,349.317L175.744,347.641L171.759,344.268L171.59,342.467L172.303,341.912L174.108,341.254L174.809,340.487L174.82,340.1L174.494,339.159L174.553,338.642L174.836,338.392L175.744,338.071L176.103,337.712L176.347,336.961L176.641,334.187L176.989,333.148L177.043,332.626L176.788,332.179L176.358,331.864L176.086,331.592L176.054,331.266L176.331,330.771L176.304,330.167L176.434,329.699L176.695,329.307L177.07,328.926L183.192,326.534L183.306,326.49L184.703,325.728L185.084,325.005L184.681,322.709L184.714,322.263L185.035,320.909L185.198,316.715L185.535,315.579L186.171,314.871L187.411,314.121L187.008,313.773L185.899,313.588L185.002,313.311L184.366,311.179L183.344,310.608L182.996,310.216L183.469,309.797L184.546,309.416L185.04,309.172L185.54,308.807L185.894,308.274L186.106,307.665L186.443,307.208L188.166,306.882L188.144,306.088L187.557,305.142L186.867,304.457L187.53,302.934L187.617,301.667L187.807,301.172L188.416,300.585L189.085,300.155L189.46,299.551L189.167,298.458L187.318,297.235L186.546,296.435L186.231,295.429L186.378,294.847L186.742,294.467L187.177,294.13L187.557,293.7L187.851,293.145L188.041,292.64L188.253,291.46L188.308,289.818L188.221,289.344L187.813,288.665L186.92,287.785L186.704,287.572L186.334,286.93L186.318,286.479L186.611,285.571L186.655,285.119L186.475,284.505L185.916,283.369L184.415,279.242L184.426,278.486L184.98,277.366L185.241,275.093L185.519,273.886L186.329,272.592L187.258,271.57L187.851,270.444L187.628,268.846L187.275,267.508L187.264,266.214L187.557,264.926L189.694,260.304L190.053,258.597L189.58,257.021L188.346,254.482L187.699,253.791L185.606,252.35L184.442,250.785L182.67,249.676L180.669,248.789L179.201,248.365L178.299,248.507L177.484,248.893L176.679,249.164L175.825,248.963L174.863,248.572L173.961,248.577L173.091,248.876L172.205,249.349L172.112,247.381L171.726,245.212L171.079,243.103L170.193,241.303L168.823,239.96L166.899,239.025L164.789,238.699L162.876,239.205L162.495,238.694L162.071,238.34L161.56,238.139L159.679,237.922L159.271,238.063L159.07,238.411L158.929,238.792L158.706,239.025L158.01,239.281L157.673,239.346L157.358,239.112L154.928,236.215L154.977,234.725L155.531,233.42L157.917,230.254L158.57,229.386L159.108,228.875L159.657,228.196L159.603,227.641L159.331,227.054L159.228,226.282L159.451,225.76L160.196,224.798L160.277,224.249L159.864,223.602L159.233,223.488L158.619,223.472L158.277,223.113L158.054,219.313L157.804,218.03L157.293,216.399L157.032,215.078L157.271,213.822L159.059,211.158L160.924,206.977L162.044,205.787L165.931,203.645L166.915,202.514L167.122,201.427L166.796,200.35L166.203,199.252L167.801,197.034L170.405,196.68L173.357,197.012L175.999,196.871L176.706,196.599L177.005,196.381L177.201,196.104L181.099,192.733L181.447,191.608L181.604,188.908L183.127,186.72L185.551,184.641L187.351,182.474L187.003,180.024L186.823,179.375L187.22,178.948L187.845,178.576L188.329,178.086L188.427,177.371L188.025,176.95L186.769,176.316L185.769,175.406L184.888,174.367L184.149,173.214L183.567,171.986L182.746,169.294L182.028,168.223L179.506,167.059L178.685,165.961L178.256,164.618L178.31,160.648L178.169,159.273L177.386,155.988L177.07,155.401L176.505,154.96L175.907,154.71L175.456,154.419L175.374,154.128L175.293,153.836L174.667,153.717L174.271,153.428L173.934,153.079L173.477,152.769L171.406,152.202L170.351,152.099L169.405,152.343L167.524,153.071L166.41,153.003L165.583,152.411L164.806,151.649L163.849,151.076L162.941,150.875L153.009,149.949L152.264,150.129L152.22,150.379L151.726,151.738L151.084,152.997L150.91,153.112L150.345,153.325L150.187,153.271L149.573,152.976L149.306,152.921L148.948,153.057L148.317,153.551L147.977,153.719L147.01,153.897L146.526,153.93L146.031,153.908L144.987,154.003L144.242,154.49L143.557,155.053L141.671,155.787L140.469,157.402L139.79,157.891L138.029,158.218L136.441,158.226L134.816,157.913L132.978,157.258L132.179,157.185L131.032,157.315L130.004,157.598L129.58,157.992L129.243,158.925L128.352,159.164L127.395,159.3L126.416,160.496L125.454,160.915L124.367,161.138L122.556,161.002L121.485,161.173L120.931,161.1L120.93,161.094L120.768,160.366L120.268,160.029L119.637,159.773L119.104,159.305L120.105,159.202L120.496,158.555L120.692,157.821L121.11,157.473L121.85,157.369L122.741,157.065L123.491,156.559L123.986,155.504L124.307,155.319L124.421,155.042L123.981,154.403L123.807,154.05L123.785,153.646L123.818,153.216L123.747,150.728L123.801,150.289L122.959,149.762L122.013,147.217L120.931,146.663L121.246,145.917L121.181,145.198L120.811,144.576L120.213,144.118L119.854,144.508L118.881,143.162L118.022,141.634L118.925,140.593L119.093,139.328L118.778,136.932L118.979,135.824L119.338,134.836L119.49,133.915L119.104,133.012L119.767,132.626L120.306,131.926L120.708,131.133L121.252,129.201L121.328,128.358L121.11,127.735L120.838,127.342L120.414,126.391L119.735,125.459L119.952,125.219L120.578,125.04L120.931,124.216L121.29,123.604L121.643,123.181L121.991,122.853L122.263,122.486L122.372,121.954L122.073,120.968L122.089,120.525L122.567,120.336L122.845,120.143L123.801,119.096L124.117,118.855L125.992,117.82L126.53,116.558L126.715,114.866L126.699,111.709L135.745,111.791L143.835,111.864L146.04,111.883L154.547,111.954L163.952,112.038L172.313,112.112L177.848,112.163L178.337,112.104L180.653,111.203L183.986,111.655L184.812,112.125L185.829,113.067L186.579,113.233L186.883,113.135L187.96,112.474L192.108,111.587L192.581,111.421L192.749,110.967L192.63,110.482L192.619,109.993L193.108,109.533L193.374,109.196L194.728,109.568L196.468,111.511L197.723,112.071L197.278,112.906L197.789,113.167L199.153,113.116L199.887,113.562L200.926,114.632L201.703,114.945L201.344,113.661L201.725,113.471L203.144,114.228L202.388,114.817L202.062,114.945L202.578,115.13L203.127,115.071L203.589,114.945L203.856,114.945L203.916,115.316L203.867,116.492L204.035,116.741L207.27,116.384L208.053,116.191L208.422,115.702L208.526,115.062L208.526,114.408L208.885,114.084L209.646,114.836L210.336,115.866L210.505,116.384L211.532,117.087L210.967,118.558L210.749,119.85L212.837,120.011L213.978,119.88L214.462,119.638L214.881,118.373L215.392,118.444L217.893,120.434L218.703,120.668L219.725,120.336L220.345,121.273L221.225,121.006L222.068,120.143L222.601,119.291L222.921,119.291L223.693,119.581L224.384,118.029L226.064,118.643L226.77,118.346L227.591,118.101L228.7,118.539L228.961,118.855L229.249,119.657L229.456,120.011L229.744,120.17L231.533,120.829L231.946,121.159L232.245,121.568L232.359,121.954L232.288,122.644L232.196,122.941L232.272,123.156L232.685,123.604L232.941,123.647L234.175,124.199L234.153,124.32L234.773,124.224L235.762,123.721L236.822,123.368L239.508,121.775L241.808,121.458L244.107,121.881L248.587,123.211L253.583,123.767L253.811,124.009L254.36,124.312L255.018,124.571L256.247,124.766L256.627,124.991L258.639,127.557L259.297,127.901L260.699,128.389L261.955,129.214L262.466,129.462L262.82,129.833L262.955,130.626L263.216,131.066L263.842,131.042L264.548,130.767L265.108,130.463L265.271,131.293L266.049,131.68L267.071,131.904L267.979,132.26L268.522,131.967L269.153,131.98L269.735,132.222L270.164,132.618L270.393,133.223L270.316,133.74L270.164,134.236L270.164,134.776L270.61,135.691L272.681,138.367L275.046,134.972L275.508,134.838L276.639,135.222L277.204,134.972L277.373,134.144L276.112,128.328L274.339,123.723L273.399,122.134L272.948,121.734L272.621,121.576L272.42,121.295L272.361,119.351L272.502,118.845L273.306,117.722L273.296,117.258L273.116,116.847L273.04,116.384L273.013,116.354L272.98,116.215L272.98,115.978L273.04,115.664L273.198,115.436L273.431,115.365L273.644,115.357L273.758,115.305L273.872,114.56L273.731,114.073L273.508,113.612L273.399,112.936L273.518,112.335L274.149,111.157L274.497,109.998L275.34,109.484L276.405,109.669L277.384,110.602L279.499,109.019L279.933,108.445L279.651,107.974L279.352,107.74L282.054,101.995L284.446,96.916L286.136,93.313L288.529,88.236L290.768,83.482L291.494,81.94L292.709,79.354L294.21,76.156L294.454,74.888L293.992,73.941L293.231,73.086L292.59,72.093L292.443,69.766L294.476,65.854L294.824,63.962L294.422,62.786L293.873,61.708L293.454,60.592L293.492,59.291L294.101,58.085L295.911,55.564L296.21,54.434L296.243,53.141L297.558,49.826L298.026,45.42L298.869,43.069L300.489,41.104L302.642,39.685L305.11,38.967L306.322,38.888L307.382,38.967L311.715,40.05L312.824,39.987L313.857,39.463L313.96,39.014L313.813,38.457L313.884,38.025L314.656,37.949L315.151,38.074L316.113,38.432L316.597,38.523L318.054,38.35L318.57,38.394L319.147,38.721L319.533,39.166L319.957,39.428L320.658,39.191L321.066,39.112L321.772,39.204L322.093,39.183L322.534,38.989L323.126,38.476L323.49,38.233L324.366,37.821L324.839,37.706L326.257,37.796L326.981,37.682L328.394,37.13L329.117,36.932L331.226,36.997L331.982,36.885L332.863,36.486L333.336,36L333.765,35.442L334.494,34.836L335.255,34.557L335.929,34.627L337.288,35.084L339.196,34.946L340.322,33.896L341.371,32.578L343.41,31.525L344.095,31.172L344.894,30.584L345.747,30.215L346.954,30.4L347.182,30.636L347.389,31.329L347.644,31.536L348.378,31.612L348.618,31.748L350.564,33.384L352.472,34.223L354.603,34.535L358.909,34.529L359.192,34.472L359.8,34.243L360.176,34.224L360.529,34.385L361.04,34.969L361.372,35.157L361.855,35.165L362.872,34.961L363.329,34.999L364.128,35.469L364.802,36.238L365.297,37.204L365.547,38.25L365.906,39.076L366.656,39.226L367.651,38.94L369.662,37.96L369.961,37.735L370.238,37.848L372.098,39.027L372.603,39.215L373.256,39.147L374.897,38.348L376.686,37.864L378.524,37.848L380.334,38.451L381.258,39.357L381.927,41.461L382.617,42.23L383.759,42.384L384.862,41.86L385.781,40.984L386.39,40.077L386.591,39.562L386.966,37.971L387.282,37.245L387.668,37.122L388.141,37.253L388.722,37.272L392.914,36.899L393.229,36.967L393.822,37.264L394.191,37.272L394.393,37.081L394.61,36.361L394.844,36.14L395.442,36.061L396.333,36.113L396.812,35.91L397.774,34.972L398.356,34.268L399.041,34.232L400.356,35.318L401.215,36.331L403.368,39.802L404.205,41.74L404.847,42.384Z"/>
</svg>
