<svg xmlns="http://www.w3.org/2000/svg" viewBox="0 0 420 520" aria-label="Map of Ivory Coast">
  <path fill="currentColor" d="M52.754,88.528L53.97,88.984L55.332,88.96L56.682,88.596L57.853,88.04L59.065,87.024L59.675,86.63L61.335,86.393L61.97,86.162L62.537,85.781L63.163,85.259L64.713,83.272L64.961,82.77L65.189,82.058L65.61,81.695L66.089,81.389L66.451,80.868L66.575,79.921L67.348,78.592L66.494,77.476L67.8,77.2L69.231,76.341L69.966,75.253L69.186,74.287L69.785,73.984L70.077,73.878L70.077,73.427L70.96,72.694L71.533,72.558L72.303,72.653L72.879,72.466L73.207,71.777L73.461,70.961L73.826,70.41L75.169,70.19L77.496,71.623L79.009,71.768L79.662,71.702L80.825,71.719L81.406,71.506L81.911,71.036L83.452,69.048L84.382,68.994L85.136,69.16L85.758,69.543L86.317,70.149L86.669,70.914L86.722,71.671L86.669,72.364L86.716,72.948L86.974,73.604L88.062,75.437L88.152,76.152L87.991,76.783L88.078,77.19L88.922,77.221L89.518,77.066L91.279,76.399L92.749,76.494L93.137,77.503L92.725,80.193L92.782,81.779L93.328,82.59L94.393,82.872L98.47,82.961L103.606,83.755L109.981,85.548L111.075,86.186L112.133,87.439L113.097,88.924L114.246,89.972L115.849,89.917L117.363,89.376L118.709,88.368L119.502,86.98L119.358,85.3L118.739,84.573L117.888,84.026L117.202,83.432L117.058,82.553L118.611,77.316L119.382,76.487L120.841,76.259L124.514,76.725L125.763,76.555L129.576,74.775L130.989,74.632L132.405,75.088L134.846,76.542L136.285,76.698L137.772,76.213L138.321,75.424L138.363,75.106L138.642,72.988L138.923,72.503L139.349,71.996L139.68,71.416L139.69,70.703L139.288,70.219L138.599,69.921L137.886,69.703L137.403,69.451L136.58,68.166L136.466,67.039L137.099,64.92L137.42,61.921L137.239,61.392L137.005,60.935L136.885,60.375L137.022,59.161L137.33,57.928L137.477,57.873L138.388,56.323L138.304,56.109L139.734,55.635L140.584,56.184L141.903,58.461L142.877,59.355L144.206,60.263L146.831,61.676L147.879,62.037L151.405,62.74L152.764,62.825L154.351,62.539L155.563,61.713L155.794,60.174L155.312,59.556L154.508,59.171L153.755,58.692L153.42,57.786L153.541,55.201L153.992,54.003L155.107,53.456L156.517,53.381L157.846,53.596L159.52,53.651L160.782,53.054L161.991,52.218L163.517,51.552L165.074,51.34L165.73,51.719L165.821,52.633L165.496,55.354L165.68,55.88L166.902,56.327L167.605,56.706L168.194,57.204L168.412,57.727L168.067,58.508L167.418,58.897L166.711,59.222L166.196,59.811L166.571,60.726L166.755,61.521L166.668,62.299L166.243,62.846L165.057,63.815L164.753,64.348L164.729,65.34L165.071,65.504L165.613,65.357L166.196,65.429L166.53,65.769L166.875,66.231L167.247,66.622L167.686,66.755L168.429,66.639L168.951,66.619L169.329,66.852L169.621,67.499L169.51,67.889L168.817,69.075L168.676,69.644L168.901,70.277L169.959,71.525L168.981,73.567L168.78,74.779L169.741,75.567L168.161,77.336L168.194,77.564L168.352,77.952L168.442,78.386L168.302,78.73L167.769,78.929L167.331,78.76L167.023,78.488L166.865,78.383L166.065,79.273L165.894,80.166L166.109,82.607L167.093,82.403L167.793,82.876L169.068,84.434L169.939,84.983L174.833,86.732L180.625,86.693L181.844,85.487L182.614,84.23L183.063,82.825L183.294,81.178L184.054,80.579L187.073,81.639L187.83,81.069L187.555,77.462L187.823,76.263L188.57,75.16L189.558,74.433L194.208,71.969L202.547,70.122L206.16,69.765L207.958,69.303L208.584,69.283L209.404,69.571L210.83,70.509L212.588,71.177L213.72,71.831L214.861,73.322L215.651,74.983L215.725,76.128L216.646,76.468L217.094,76.548L217.694,76.576L218.079,76.807L218.36,77.343L218.581,77.932L218.782,78.332L219.478,78.946L220.365,79.405L221.453,79.674L222.762,79.725L223.067,79.524L223.311,79.153L223.552,78.898L223.887,79.048L224.172,79.239L224.513,79.296L225.253,79.273L226.003,79.096L226.412,78.686L226.74,78.23L227.225,77.925L228.317,77.966L231.313,78.41L232.347,78.129L235.531,80.013L236.111,79.948L236.593,79.072L237.654,79.16L238.677,79.838L238.722,79.868L239.201,80.848L239.201,84.465L239.032,84.822L238.786,85.204L238.859,85.497L239.648,85.568L240.105,85.415L240.49,85.082L240.786,84.655L240.975,84.22L241.158,85.572L240.603,86.762L240.567,87.478L242.301,87.405L241.862,88.592L242.251,89.264L243.888,90.347L244.008,90.864L242.49,91.393L241.902,91.939L242.446,91.946L242.872,92.078L243.245,92.255L243.667,92.388L242.785,92.798L243.312,93.571L244.032,93.677L244.79,93.349L245.434,92.798L245.763,93.986L246.457,94.617L247.309,95.025L248.094,95.533L248.819,96.535L249.268,97.74L249.022,98.629L247.649,98.678L247.939,99.345L248.665,100.298L249.372,101.838L249.492,102.254L248.561,104.951L248.642,105.697L250.547,107.475L251.108,107.675L251.474,107.247L251.816,106.654L252.314,106.353L253.051,106.494L253.344,106.804L253.567,107.113L254.106,107.25L255.622,107.363L256.91,107.774L257.829,108.594L258.264,109.943L259.501,109.544L260.028,110.531L260.346,112.023L260.962,113.129L259.926,113.501L259.375,113.582L258.746,113.538L258.746,114.027L259.322,114.545L259.446,114.804L259.631,115.332L260.49,115.077L261.347,116.458L262.331,116.271L261.963,115.935L261.854,115.631L262.084,115.41L262.728,115.332L263.396,115.42L263.721,115.651L263.935,116.006L264.3,116.475L265.05,117.149L265.291,117.579L265.385,118.272L265.525,118.776L265.874,119.051L266.747,119.413L267.076,119.787L267.059,120.041L267.106,120.092L267.635,119.861L268.159,119.515L268.584,119.072L268.813,118.681L268.743,118.515L269.695,118.518L270.497,118.408L271.26,118.003L272.097,117.129L272.831,117.742L273.763,119.143L274.515,119.413L275.455,119.146L275.7,118.467L275.73,117.582L276.048,116.679L276.252,116.234L276.304,115.976L276.508,115.85L277.685,115.85L278.192,115.952L278.581,116.152L278.733,116.475L278.589,117.606L277.953,119.308L277.806,120.512L278.726,121.87L280.832,122.084L283.154,121.972L284.726,122.349L285.305,123.308L285.861,125.466L286.296,126.181L287.183,126.605L287.401,126.013L287.387,124.935L287.582,123.897L288.576,124.169L290.334,124.901L290.338,124.895L290.762,124.393L291.601,122.745L291.763,121.918L291.571,120.366L291.581,119.787L291.937,119.187L293.899,117.122L293.143,116.867L292.855,116.809L293.717,116.027L294.833,115.624L297.274,115.308L298.469,114.644L300.327,112.023L301.496,111.138L302.611,110.998L306.297,112.091L306.973,112.466L307.351,112.585L307.753,112.497L307.88,112.186L307.904,111.843L307.97,111.663L308.965,111.182L309.502,111.005L311.58,110.975L311.991,110.052L312.264,108.977L313.227,108.462L314.616,108.109L317.055,106.522L318.252,106.166L318.376,106.129L322.666,106.047L323.912,105.674L324.462,105.261L325.5,104.141L326.156,103.704L327.101,103.405L330.248,103.014L330.731,103.082L331.577,103.565L331.985,103.646L332.33,103.446L332.931,102.7L333.15,102.547L334.024,102.832L334.518,103.306L334.941,103.842L335.633,104.335L336.739,104.569L340.613,104.046L350.804,104.894L351.621,105.206L352.757,106.258L353.449,106.62L354.038,106.416L354.798,105.942L355.468,105.677L355.756,106.126L355.702,107.437L355.816,108.781L356.469,109.636L358.015,109.483L358.909,108.588L361.101,105.454L362.103,104.737L362.893,105.223L362.915,106.491L362.774,108.042L363.059,109.357L364.189,110.028L365.644,110.059L367.145,110.399L368.443,111.992L369.254,115.159L369.89,116.689L371.022,117.638L372.191,117.694L374.42,117.034L375.649,117.326L376.665,118.36L377.453,119.888L378.615,122.948L381.838,129.249L388.299,137.894L389.777,139.036L391.327,139.156L392.543,138.091L394.126,134.734L396.152,132.796L397.029,133.913L397.099,134.848L396.835,136.945L396.918,137.456L397.24,138.557L397.24,140.328L396.908,141.447L396.138,141.937L395.254,142.349L394.588,143.224L394.481,144.463L394.99,145.475L395.907,146.152L397.039,146.403L398.057,146.968L397.97,148.215L397.196,149.463L395.141,150.545L394.384,151.735L393.256,154.06L391.876,155.484L391.605,156.03L391.481,159.313L391.213,160.342L390.604,161.269L391.237,161.63L391.652,162.064L392.161,162.421L393.058,162.571L394.719,162.652L396.356,163.022L397.993,163.898L398.412,164.952L398.478,166.293L399.49,169.37L399.875,169.665L400.31,169.729L400.671,169.885L400.819,170.449L400.899,171.576L402.218,176.15L402.148,177.047L401.461,177.429L400.983,177.865L400.815,178.7L401.129,179.215L401.143,179.238L401.729,178.964L402.037,179.992L405.019,198.347L408,216.688L407.555,217.686L404.645,219.409L403.762,219.708L403.015,219.629L402.191,219.24L401.656,219.206L401.241,219.595L400.789,220.469L400.514,221.501L400.671,222.328L401.528,224.211L401.947,225.777L401.887,226.918L401.247,227.765L399.911,228.446L396.045,229.745L394.853,230.597L391.896,234.021L390.839,234.914L390.748,234.704L390.42,234.332L389.988,234.045L389.581,234.092L389.392,234.572L389.111,239.456L388.897,240.179L388.381,240.737L386.94,241.609L386.382,242.14L386.329,242.467L386.518,243.316L386.501,243.67L386.252,244.1L385.601,244.894L385.35,245.323L380.671,255.383L379.805,258.032L376.635,278.056L376.695,278.822L377.104,279.733L377.537,280.273L377.825,280.803L377.778,281.694L377.202,282.963L374.233,286.692L373.905,287.349L373.369,290.615L373.041,291.077L369.832,292.127L369.759,292.172L369.715,292.2L368.916,292.7L361.444,305.557L360.359,308.069L360.269,310.427L360.55,311.088L361.36,312.135L362.234,313.826L362.384,314.26L361.112,317.84L360.761,318.267L359.567,318.929L359.1,319.613L359.01,320.709L364.122,343.739L364.892,344.672L365.081,344.902L366.988,346.647L368.367,350.284L370.331,361.151L371.272,363.478L373.767,368.054L374.558,370.412L374.723,372.766L374.089,380.196L378.297,379.836L377.643,383.905L377.992,385.587L379.524,386.443L380.791,386.285L382.901,385.007L383.953,384.586L388.569,385.779L389.399,386.453L389.908,387.306L390.152,388.357L390.306,391.768L391.455,396.426L393.222,400.576L393.5,401.747L393.336,402.881L392.693,403.7L391.833,403.858L389.65,403.458L389.225,407.485L389.409,408.387L390.313,409.69L390.601,410.438L390.567,410.995L390.293,412.355L390.346,412.948L390.551,413.173L391.404,413.904L391.759,414.323L391.136,415.548L390.212,416.209L388.724,416.424L386.143,416.323L385.982,414.51L383.831,414.227L381.174,414.542L379.471,414.505L380.003,415.815L379.676,417.125L378.738,418.141L377.457,418.544L376.444,418.247L373.017,416.649L371.947,415.833L370.655,416.196L368.088,416.268L367.002,416.765L366.504,415.529L365.491,414.044L364.297,412.805L363.261,412.286L362.731,411.799L363.427,410.772L364.432,409.835L364.827,409.618L365.135,408.699L365.325,406.775L365.71,406.023L366.598,405.467L367.286,405.298L367.729,404.887L367.887,403.603L367.74,402.629L367.308,402.163L366.554,402.028L365.473,402.028L365.172,402.171L364.787,402.488L364.308,402.809L363.722,402.952L363.182,402.87L362.294,402.507L361.729,402.47L361.102,402.692L359.858,403.555L359.038,403.847L359.686,405.329L360.019,406.664L359.541,407.574L357.707,407.797L357.994,408.294L357.994,408.755L357.738,409.192L357.266,409.618L357.86,410.01L358.15,410.1L357.707,410.1L358.326,410.336L358.99,410.486L359.689,410.55L360.406,410.508L360.406,410.952L359.794,411.233L358.803,411.146L358.15,411.355L357.599,411.773L357.1,412.329L356.689,412.969L356.383,413.655L355.701,413.192L355.239,413.435L355.35,414.002L356.383,414.505L355.998,415.37L356.381,415.894L357.195,416.178L358.15,416.323L355.793,418.221L351.525,418.009L335.073,414.505L332.057,414.325L330.011,413.917L329.5,413.748L329.278,413.414L329.394,412.811L329.547,412.35L329.442,411.905L328.796,411.355L329.278,410.508L328.614,411.058L328.097,411.9L327.736,412.837L327.554,413.655L327.069,413.655L326.294,413.208L325.039,413.081L322.406,413.171L321.538,412.938L318.625,411.355L314.094,410.764L312.069,410.153L311.104,408.686L312.307,409.089L313.672,408.951L314.869,408.342L315.573,407.357L316.514,408.525L316.978,408.988L317.521,409.176L317.945,409.009L318.119,408.623L318.043,408.167L317.74,407.797L317.74,407.357L318.633,407.556L320.871,408.475L321.317,408.485L321.976,408.273L323.434,408.842L325.783,410.1L325.63,409.682L325.519,409.033L325.34,408.686L326.347,408.715L328.087,408.954L328.796,408.686L329.65,407.659L329.247,407.093L328.414,406.603L327.955,405.822L327.211,403.656L327.069,402.711L326.85,402.2L326.31,401.853L325.603,401.771L324.902,402.028L324.478,401.744L323.869,401.564L323.326,401.665L323.089,402.247L323.278,402.615L324.66,403.603L326.299,405.816L327.275,406.86L328.398,407.357L327.818,408.199L326.816,408.109L325.725,407.871L324.902,408.284L324.415,408.284L323.605,407.302L322.999,407.048L322.329,407.079L321.317,406.952L320.632,406.711L319.867,406.272L319.271,405.634L319.108,404.773L318.799,405.062L318.412,405.35L318.227,405.621L317.959,405.086L317.785,404.577L317.705,404.032L317.74,403.359L317.299,403.359L317.21,404.276L316.894,405.062L316.35,405.451L315.573,405.176L315.069,405.557L314.363,405.666L313.593,405.536L312.876,405.176L311.363,405.411L310.625,405.621L311.255,406.206L312.267,406.447L313.34,406.38L314.162,406.023L315.082,406.952L314.22,407.619L313.108,408.263L311.938,408.517L310.867,408.04L310.055,407.572L308.637,406.936L307.285,406.537L306.681,406.73L306.143,407.302L304.952,406.984L303.101,406.023L302.242,406.285L301.551,406.73L300.855,406.936L299.964,406.507L299.59,406.886L299.168,406.891L298.709,406.584L298.237,406.023L296.474,407.22L295.614,407.553L294.66,407.357L294.789,407.061L294.976,406.314L295.103,406.023L293.442,405.7L292.725,405.822L291.966,406.507L291.484,406.063L290.898,405.777L290.405,405.793L290.005,406.817L288.977,407.638L288.47,408.284L288.006,407.807L287.229,407.209L286.398,406.701L285.808,406.507L285.128,406.875L284.448,407.479L283.773,407.707L283.119,406.952L283.314,406.807L283.393,406.791L283.456,406.743L283.599,406.507L281.2,406.621L280.282,407.071L280.024,408.284L280.641,407.971L281.184,408.062L281.598,408.485L281.835,409.176L280.601,408.89L276.001,408.686L275.748,408.067L275.437,407.516L274.715,406.507L274.346,407.13L274.322,407.643L274.591,408.035L275.113,408.284L275.113,408.686L273.945,408.914L273.059,409.332L271.573,410.508L270.376,409.724L268.992,409.814L267.787,410.365L267.157,410.952L266.711,410.952L266.279,410.762L265.72,410.418L265.219,410.01L264.943,409.618L265.699,409.279L266.332,409.353L267.038,409.565L267.998,409.618L267.861,408.988L267.655,408.586L267.297,408.369L266.711,408.284L266.711,407.797L267.376,407.495L267.798,407.034L267.998,406.412L267.998,405.621L267.6,405.621L266.801,407.119L265.718,407.919L264.349,408.231L262.689,408.284L264.444,409.613L263.147,410.764L260.738,411.784L259.154,412.726L258.75,413.668L258.845,414.282L259.43,414.671L260.48,414.944L261.639,415.008L262.791,414.812L263.453,414.356L263.132,413.655L263.132,413.171L264.769,412.726L265.573,412.276L265.86,412.575L266.179,413.001L266.711,413.171L267.513,412.969L268.826,412.4L269.806,412.286L271.82,412.286L272.432,412.416L272.843,412.702L273.123,413.004L273.344,413.171L274.306,413.306L274.978,413.21L276.481,412.726L275.811,412.805L275.026,412.742L274.409,412.445L274.235,411.842L274.63,411.503L276.884,410.952L276.884,411.842L277.367,411.842L278.798,411.146L282.618,411.384L284.484,410.508L284.793,411.476L285.296,411.082L285.829,410.179L286.251,409.618L287.437,409.65L288.447,410.126L289.348,410.354L290.194,409.618L291.418,410.113L292.683,409.899L293.98,409.433L296.64,408.956L298.301,408.014L299.321,407.797L307.314,407.59L309.338,408.284L308.732,408.564L308.083,408.707L307.395,408.739L306.681,408.686L311.505,410.952L291.267,412.609L271.03,414.266L260.395,416.659L254.519,417.162L253.399,417.654L252.698,417.284L251.938,417.152L248.445,417.085L247.61,417.167L247.61,416.765L247.821,416.749L248.248,416.784L248.453,416.765L248.453,416.323L246.634,416.347L246.199,415.577L246.231,414.394L245.801,413.171L246.634,412.181L245.812,411.969L242.279,412.414L241.122,412.779L240.049,413.353L239.169,414.1L238.085,413.163L236.216,412.218L234.044,411.762L232.088,412.286L231.838,412.006L231.392,411.662L231.281,411.514L231.165,411.355L230.762,411.355L230.05,412.096L228.896,411.752L227.662,411.209L226.697,411.355L226.299,411.355L225.614,411.048L225.242,411.318L225.181,411.942L225.455,412.726L225.255,412.654L224.528,412.286L224.562,412.969L224.528,413.171L225.06,413.02L225.16,413.218L225.424,413.613L225.455,413.655L225.909,413.393L226.262,413.287L227.179,413.171L227.179,413.655L226.684,414.208L225.165,414.96L224.528,415.389L224.528,414.1L223.605,416.797L223.162,417.654L220.99,414.505L220.505,414.505L220.478,414.706L220.505,415.389L219.627,414.944L220.594,416.786L223.257,417.988L226.436,418.337L228.991,417.654L227.949,416.866L226.855,416.887L225.703,417.07L224.528,416.765L224.528,416.323L225.187,416.363L225.716,416.278L226.194,416.098L226.697,415.833L227.042,415.553L227.86,414.701L228.105,414.505L229.072,414.722L230.143,415.262L231.189,415.529L232.088,414.944L232.882,415.431L233.672,415.606L234.334,415.339L234.74,414.505L233.554,414.679L233.032,414.155L232.594,413.467L231.645,413.171L231.645,412.726L232.531,413.171L234.693,412.861L238.62,415.161L240.292,414.722L241.201,414.004L242.055,413.862L244.293,414.1L244.557,414.592L244.926,415.712L245.48,416.911L246.286,417.654L229.9,418.149L227.377,419.126L214.331,419.825L212.443,419.531L210.777,418.544L208.969,419.872L210.313,420.269L210.777,420.317L205.613,421.91L191.291,424.072L190.814,424.221L183.509,426.502L182.407,427.071L181.943,427.663L181.176,427.632L177.788,428.896L172.679,431.534L154.951,437.474L154.398,437.913L154.018,438.897L153.053,439.421L146.207,441.106L144.868,441.265L143.832,441.601L142.089,443.267L141.048,443.929L132.852,446.352L126.351,446.788L124.677,447.613L123.146,447.997L122.431,448.407L120.62,450.626L117.13,453.556L113.099,455.992L110.445,456.804L105.634,457.306L101.788,458.961L100.984,459.506L100.335,460.767L99.637,460.892L98.83,460.881L98.202,461.093L97.045,462.071L93.557,463.98L88.449,468.21L87.278,468.66L85.718,468.525L82.902,467.97L81.843,468.089L79.699,466.624L79.347,465.86L79.434,465.202L80.11,463.99L80.311,463.347L80.221,462.737L79.759,461.426L79.883,459.78L79.765,459.104L79.591,458.504L79.498,457.92L79.782,444.009L79.498,440.633L79.324,440.048L78.935,439.576L78.426,439.193L77.934,438.725L77.609,437.974L77.611,437.898L77.619,437.393L77.984,436.049L78.075,435.314L77.613,433.305L77.643,432.692L79.622,431.123L80.475,431.213L81.014,431.598L81.269,431.622L81.265,430.635L80.894,429.375L80.291,428.52L79.839,427.623L79.93,426.225L79.919,426.225L79.414,422.462L79.568,421.335L80.381,420.158L81.443,419.668L82.539,419.688L83.452,420.051L85.196,416.873L85.577,415.73L85.628,414.635L85.095,411.569L85.778,409.425L86.053,408.834L86.535,408.234L88.209,407.328L88.37,407.147L89.11,407.278L89.006,407.532L88.678,407.854L88.748,408.194L88.956,408.619L88.959,409.11L89.11,409.361L89.739,409.08L90.064,408.673L90.301,407.602L90.459,407.167L91.242,406.066L91.621,405.392L91.681,404.66L91.51,403.404L91.155,402.184L90.673,402.083L89.993,402.214L89.033,401.673L88.423,400.793L87.975,399.68L87.72,398.518L87.703,397.481L88.611,397.962L88.902,397.272L88.858,394.822L89.327,393.872L90.084,393.265L90.429,392.725L90.318,392.619L89.662,391.987L90.084,392.007L91.369,391.931L90.496,390.798L90.184,389.563L90.626,388.78L91.985,389.003L91.172,387.954L89.793,385.176L88.946,383.469L87.75,378.365L87.811,375.976L88.232,373.227L87.941,370.969L85.865,370.062L85.665,371.994L85.343,373.062L84.841,373.558L84.225,373.173L83.907,372.256L83.468,371.406L82.464,371.225L82.678,370.129L82.198,370.324L81.396,371.003L80.646,371.366L80.184,371.114L79.327,370.032L78.828,369.613L79.354,368.934L79.026,368.51L77.626,367.896L77.449,367.859L76.113,367.127L76.016,366.888L74.867,366.713L73.91,365.944L73.204,365.121L72.785,364.783L72.069,365.643L71.312,366.935L70.408,367.4L69.256,365.779L68.466,365L65.908,363.66L65.065,362.598L64.998,362.125L65.045,360.274L65.189,359.974L65.781,359.646L65.918,359.299L65.771,358.883L65.44,358.715L65.092,358.611L64.884,358.378L64.673,356.894L64.415,356.296L63.786,355.717L63.203,355.676L62.393,355.895L61.77,356.229L61.744,356.533L61.037,355.626L60.863,354.309L61.024,352.831L61.325,351.463L62.182,348.949L62.021,348.068L61.017,346.836L58.138,344.515L57.914,344.204L57.743,343.444L57.632,343.229L57.232,343.094L56.929,343.178L56.651,343.293L56.303,343.249L52.125,342.254L51.067,341.531L49.945,341.272L48.191,341.312L45.178,341.733L44.421,342.045L42.975,342.848L42.085,343.067L41.033,343.08L40.484,342.895L40.052,342.57L39.349,342.159L38.578,341.873L33.557,340.731L32.968,340.515L32.871,340.246L32.871,339.796L32.797,339.262L32.473,338.737L32.001,338.478L31.729,338.68L31.515,338.976L31.2,339.01L30.514,338.39L29.888,337.674L29.218,337.406L28.375,338.122L27.688,337.819L26.895,337.795L26.101,338.099L25.405,338.777L24.635,337.997L24.864,337.6L25.459,337.268L25.783,336.677L25.636,336.177L25.054,334.986L24.936,334.369L25.271,333.291L25.75,332.877L25.84,332.499L24.987,331.529L22.954,330.439L22.205,329.464L21.796,329.191L21.481,329.74L21.187,330.946L20.678,332.158L19.871,332.823L18.679,332.417L16.754,329.834L16.031,329.194L15.281,328.973L13.724,329.021L13.093,328.886L12,328.815L13.594,326.79L13.902,326.648L14.682,326.52L14.98,326.337L15.117,326.057L15.408,325.149L15.338,325.048L15.408,325.028L16.486,324.426L16.637,324.433L17.517,323.369L22.198,319.647L23.472,318.219L29.295,311.693L30.219,310.264L31.03,308.372L31.572,306.413L31.679,305.5L31.631,304.616L31.314,304.235L30.785,303.881L30.467,303.392L31.294,301.591L31.354,300.569L31.274,299.497L31.354,298.34L31.706,297.78L33.028,296.748L33.514,296.134L33.678,294.562L32.57,288.338L32.479,286.745L32.302,286.138L31.903,285.46L30.949,284.495L30.722,284.087L30.668,283.668L30.805,282.841L30.772,282.409L30.511,281.897L29.734,280.921L29.429,280.405L28.92,278.38L28.502,277.519L27.397,275.943L26.969,275.163L26.62,273.898L25.837,267.564L24.511,262.949L23.343,260.649L20.634,259.285L23.577,256.545L25.211,255.694L26.761,257.467L27.966,257.37L30.266,256.68L32.439,257.238L34.893,259.149L37.25,260.179L39.112,258.086L39.142,257.626L38.931,256.566L38.958,256.069L39.266,255.326L40.561,253.671L40.849,253.414L41.582,252.999L41.847,252.732L41.887,252.462L41.706,251.82L41.75,251.549L43.832,249.151L44.14,248.205L44.374,246.026L44.626,244.975L44.927,244.613L45.352,244.356L45.719,243.995L45.844,243.339L45.513,242.626L44.066,241.369L43.584,240.69L43.735,238.064L46.959,233.152L47.622,230.607L47.729,229.024L47.609,228.467L48.596,228.5L51.308,228.056L51.944,228.26L52.57,228.801L53.357,229.298L54.505,229.39L54.311,228.62L54.144,227.959L53.354,226.522L52.276,225.322L51.067,224.593L50.705,223.665L50.679,222.679L51.067,220.687L51.549,219.884L51.927,218.976L51.871,218.338L51.067,218.349L47.163,219.691L46.544,219.779L40.233,217.839L34.853,214.284L34.943,213.596L36.001,212.478L36.192,211.725L36.042,210.497L36.042,209.27L36.842,205.541L36.738,204.194L36.4,203.364L35.948,202.643L35.61,201.94L35.603,201.154L35.961,200.691L39.108,198.185L40.012,198.063L42.332,198.535L43.655,198.397L45.807,197.538L47.12,197.437L47.672,197.62L48.379,198.249L48.802,198.458L49.333,198.491L50.471,198.397L51.067,198.488L52.999,197.982L53.993,197.85L54.917,198.019L55.721,198.657L56.169,199.522L56.517,200.465L57.02,201.333L57.729,201.961L58.655,202.479L59.708,202.795L60.793,202.832L61.894,202.325L62.011,201.404L61.841,200.323L62.078,199.333L63.498,199.101L64.884,200.978L66.919,205.083L68.389,206.013L70.177,206.26L73.954,205.846L72.608,203.066L72.196,201.668L72.397,200.101L72.862,198.454L72.865,197.317L72.059,194.593L71.911,193.21L72.065,190.696L71.727,189.47L71.265,188.905L69.459,187.686L68.851,186.976L67.301,184.147L66.853,183.593L65.631,182.518L65.321,182.155L64.804,181.33L64.382,181.047L64.002,181.037L63.32,181.384L63.033,181.422L59.149,180.24L57.713,180.073L54.746,179.171L54.097,177.148L55.279,171.464L55.553,168.247L55.868,166.698L56.497,165.108L56.501,165.101L57.478,164.066L63.29,161.082L64.536,160.937L65.815,160.937L67.361,160.703L68.398,159.929L68.49,159.86L67.673,158.862L64.974,157.344L63.528,156.217L62.825,155.495L61.938,153.816L61.399,153.707L60.746,153.982L59.942,154.121L56.648,152.811L56.578,150.421L58.891,144.721L59.099,143.204L60.806,137.972L60.468,137.402L57.793,137.398L56.424,137.687L53.96,139.085L52.63,139.587L51.445,139.699L49.992,139.631L48.583,139.339L47.522,138.784L46.437,137.612L42.667,132.243L42.182,131.194L41.874,130.028L41.653,128.534L41.616,127.086L41.7,126.483L44.083,109.391L43.785,107.984L42.57,108.086L42.302,107.991L42.038,107.393L42.229,107.157L42.54,107.072L42.647,106.916L42.547,106.559L42.396,105.414L42.158,105.047L41.787,104.951L41.425,104.931L41.207,104.798L40.973,104.263L40.765,103.592L40.822,103.011L42.212,102.477L43.009,101.838L43.256,101.197L42.439,100.905L41.817,100.179L42.513,98.527L43.822,96.745L45.037,95.622L48.335,94.379L49.825,93.542L51.067,91.925L51.285,90.972L51.616,90.086L52.095,89.271ZM368.547,419.01L368.267,420.082L368.228,420.071L365.404,419.417L359.038,418.803L358.113,418.34L358.374,417.411L359.607,416.291L360.849,415.389L362.581,415.833L363.04,416.148L363.227,416.532L363.322,416.903L363.501,417.167L364.033,417.419L365.431,417.861L365.71,417.856L365.966,417.705L366.535,418.115L367.484,418.988L368.351,419.063Z"/>
</svg>
