<svg xmlns="http://www.w3.org/2000/svg" viewBox="0 0 420 520" aria-label="Map of Cameroon">
  <path fill="currentColor" d="M165.55,486.018L152.696,486.021L139.838,486.023L126.984,486.023L126.34,486.023L116.898,486.025L114.129,486.025L108.346,486.025L107.476,485.883L104.758,484.525L104.011,484.349L103.239,484.063L102.15,483.318L101.156,482.438L100.605,481.756L100.511,480.869L100.649,479.98L100.614,479.175L100.12,478.45L100.662,477.94L100.662,477.673L100.963,476.936L101.124,468.935L102.425,463.169L103.166,461.399L103.33,460.692L103.481,455.233L103.918,453.275L104.579,451.493L105.383,450.248L106.3,449.134L106.831,447.957L106.929,446.591L105.282,440.313L104.527,439.297L104.527,439.027L104.936,439.038L105.209,438.962L105.702,438.733L105.702,438.442L105.034,438.495L104.569,438.384L104.222,438.152L103.918,437.854L103.642,437.461L102.516,435.342L99.319,431.33L97.518,429.766L93.353,426.926L94.304,426.716L95.353,426.192L98.882,423.496L99.83,423.131L100.98,423.101L99.606,422.704L98.403,423.175L97.287,423.9L96.136,424.279L93.195,424.543L92.671,424.302L92.461,423.751L92.66,423.163L93.353,422.809L92.083,419.781L90.044,416.942L89.46,415.852L89.219,414.842L90.296,415.883L90.541,416.02L90.751,416.213L91.097,417.149L91.296,417.489L91.842,417.745L92.587,417.834L94.234,417.811L93.8,417.582L92.45,417.198L92.017,416.956L91.849,416.777L91.726,416.551L91.433,416.167L91.079,415.274L91.205,414.175L91.705,413.146L92.45,412.466L94.08,413.922L94.968,414.134L95.402,413.079L96.85,413.801L97.402,414.217L97.752,414.842L98.004,414.385L98.011,413.933L97.812,413.496L97.486,413.079L97.623,413.06L98.074,413.079L96.052,412.35L95.105,411.793L94.821,410.994L95.378,410.415L96.486,410.031L97.703,409.833L98.609,409.816L98.606,409.626L98.546,409.495L98.34,409.227L98.452,409.169L98.546,409.174L98.609,409.127L98.609,408.906L94.328,409.642L93.031,409.521L92.356,408.782L92.562,407.686L93.258,406.696L94.087,406.261L94.793,405.616L96.654,402.785L97.917,402.143L98.095,401.911L98.284,401.48L98.186,401.228L97.486,401.527L96.679,402.122L96.311,402.52L95.99,403.026L95.696,403.026L95.696,402.143L94.933,402.721L93.534,404.857L92.765,405.698L91.828,406.184L90.656,406.513L89.796,406.35L89.806,405.377L89.219,405.966L88.39,405.532L87.613,404.739L87.183,403.747L87.428,402.732L86.819,402.082L86.323,402.274L85.113,403.614L85.221,403.758L85.41,404.01L85.749,404.14L86.141,404.224L86.575,404.494L86.617,404.69L87.057,405.717L87.547,406.235L88.26,406.811L88.642,407.528L88.044,408.347L87.428,408.101L87.12,408.035L86.819,407.907L86.253,407.465L85.7,406.555L85.456,406.377L85.263,406.271L85.148,406.093L85.113,405.698L84.581,405.761L84.204,405.93L83.983,406.235L83.91,406.713L85.071,407.413L85.379,407.76L85.477,408.264L85.372,408.645L85.2,409.059L85.113,409.668L85.239,409.998L85.917,410.373L86.253,410.699L85.7,410.952L85.022,411.134L83.469,411.288L82.665,411.197L81.196,410.79L80.521,410.699L79.241,410.052L78.762,408.582L78.978,406.99L79.776,405.966L79.776,405.698L78.713,405.938L78.234,406.655L77.978,407.407L76.516,408.761L75.243,408.538L74.813,408.613L74.831,407.824L74.922,407.221L74.81,406.724L74.201,406.261L73.697,406.173L72.914,406.173L72.152,406.254L71.718,406.408L71.06,406.303L68.773,404.858L65.045,403.091L64.52,402.732L64.444,401.517L65.262,398.934L65.37,397.703L64.052,396.478L63.02,395.029L62.275,393.369L61.236,387.229L61.464,386.169L62.579,384.25L62.996,383.229L62.044,384.292L61.485,384.594L61.236,383.98L61.341,383.457L61.527,382.929L61.646,382.371L61.53,381.759L61.194,381.447L60.254,381.108L59.918,380.408L59.582,379.924L59.184,379.503L58.865,379.377L58.697,379.938L60.03,381.961L60.331,382.938L60.079,383.605L59.687,383.766L59.337,383.482L59.184,382.801L57.103,381.166L57.078,381.721L57.141,382.173L57.344,382.503L57.715,382.666L57.145,383.708L56.956,383.845L56.665,383.74L55.812,383.236L55.634,383.085L55.315,382.721L54.609,382.456L53.903,382.058L53.577,381.314L53.119,379.721L51.203,376.956L50.937,375.254L50.23,376.34L50.517,377.591L51.168,378.887L52.252,382.887L52.643,383.229L53.137,383.471L53.577,383.845L53.84,384.961L52.937,385.471L47.565,385.876L47.083,385.645L47.293,385.11L47.824,384.52L48.3,384.113L47.782,383.868L47.303,383.864L46.964,384.096L46.695,385.022L46.348,385.19L45.876,385.159L45.369,385.022L44.712,384.361L44.488,383.331L44.698,382.559L45.369,382.666L45.593,382.11L46.509,380.58L45.918,381.015L45.376,381.024L44.963,380.656L44.753,379.963L44.858,379.391L45.18,378.803L45.929,377.929L47.177,377.077L47.418,376.728L47.432,376.198L47.265,375.682L47.177,375.169L47.418,374.64L47.712,374.961L47.558,373.253L47.639,372.39L48.139,372.014L48.317,371.932L48.358,371.931L49.091,371.217L48.931,370.598L48.802,370.002L48.664,369.084L49.042,368.423L50.215,367.555L50.477,366.774L52.164,364.099L52.164,364.093L52.804,363.197L53.204,362.345L53.839,360.462L54.105,359.886L54.94,358.606L55.371,358.146L55.851,357.927L56.357,357.839L56.806,357.634L57.117,357.077L58.267,351.215L58.223,350.755L57.867,349.712L57.819,349.143L58.094,348.099L59.018,346.273L59.302,345.307L59.28,344.396L59.129,343.561L59.067,342.717L59.333,341.782L59.977,340.942L60.786,340.165L61.438,339.323L61.63,338.281L61.19,337.13L60.381,336.279L59.422,335.535L58.556,334.694L57.992,333.601L58.32,332.981L59.08,332.417L59.835,331.49L60.026,330.405L59.649,329.652L59.187,328.966L59.107,328.09L59.564,327.379L61.083,326.359L61.661,325.624L62.393,324.918L63.317,325.05L64.254,325.388L65.014,325.294L65.169,324.73L65.263,323.5L65.494,323.206L66.182,322.849L66.724,322.267L67.643,320.933L67.643,320.927L71.61,316.792L77.504,312.026L78.601,310.485L79.827,307.888L80.413,307.218L81.004,306.893L81.51,306.842L82.052,306.889L82.732,306.849L83.931,306.121L85.232,303.6L86.498,302.807L86.755,302.711L88.475,302.071L89.35,301.632L90.029,300.965L91.033,299.056L91.673,298.517L92.947,298.259L93.469,298.256L95.004,298.247L95.541,297.82L95.582,297.69L98.841,287.331L99.645,286.421L100.667,286.495L101.502,286.905L102.337,287.151L103.345,286.726L113.867,277.778L114.876,277.203L115.475,277.331L115.826,278.034L116.444,281.219L116.892,282.063L117.794,282.767L118.98,283.121L130.048,282.962L130.075,281.989L130.253,281.311L130.603,280.725L131.132,280.014L131.403,279.81L131.647,279.752L131.829,279.609L132.083,276.293L132.447,274.664L132.98,273.09L133.602,271.871L134.397,272.891L134.628,275.022L135.405,275.642L136.537,276.018L139.544,277.617L143.076,278.951L144.484,279.908L145.185,281.636L145.581,283.606L146.442,285.497L147.815,286.875L151.821,287.611L153.287,288.767L154.113,290.506L154.246,292.567L154.175,294.285L154.313,295.974L155.037,299.315L155.881,301.375L156.587,302.028L157.742,302.189L160.402,301.91L161.668,301.777L161.899,301.853L162.379,302.158L162.69,302.203L162.947,302.091L163.405,301.681L163.565,301.587L164.036,301.63L164.968,301.86L165.439,301.887L166.501,301.634L167.602,301.088L168.442,300.302L168.713,299.315L168.975,297.522L169.619,296.059L170.751,295.139L172.448,294.971L173.616,294.316L174.633,292.897L175.877,289.981L176.157,288.83L176.268,287.656L176.059,286.878L175.113,285.807L174.833,285.16L175.073,284L175.85,282.902L178.493,280.468L180.98,278.895L181.14,278.669L181.296,278.103L181.469,277.899L181.673,277.846L182.113,277.89L182.593,277.776L183.263,277.749L183.556,277.644L183.805,277.304L183.881,276.888L184.005,276.499L184.645,276.085L186.47,274.422L186.963,274.124L187.549,273.943L188.029,273.988L188.416,274.167L188.78,274.27L189.193,274.1L189.584,273.117L189.051,272.032L187.376,270.201L185.24,267.096L184.636,266.581L183.614,266.387L183.366,266.134L183.708,265.749L184.476,265.169L185.346,264.347L188.011,260.366L190.539,257.888L193.23,255.25L194.376,253.534L195.051,253.064L195.589,252.571L195.758,251.688L195.145,249.145L195.074,248.231L195.207,247.276L195.5,246.386L197.046,243.565L201.314,237.604L202.94,235.897L203.184,235.267L203.069,234.549L202.771,233.484L202.536,231.818L202.531,230.132L202.775,229.078L204.53,226.572L204.728,226.009L204.858,225.638L204.899,224.775L204.214,221.267L204.108,219.291L204.441,217.416L205.427,216.007L206.364,215.615L208.016,215.894L208.923,215.766L209.433,215.399L209.775,214.9L210.051,214.373L210.375,213.93L211.668,213.027L212.041,212.628L212.014,211.424L211.894,210.808L210.886,208.344L210.535,207.715L211.716,208.098L212.329,208.197L212.924,208.141L213.604,207.844L214.102,207.493L214.639,207.212L215.421,207.121L215.98,207.281L217.366,207.92L218.001,208.044L218.663,207.885L223.065,205.553L223.829,204.711L224.459,203.311L224.837,202.082L225.148,201.571L225.636,201.329L226.249,201.354L226.796,201.453L227.329,201.462L227.902,201.217L228.83,199.931L229.31,198.066L230.278,189.868L229.967,188.281L230.016,186.524L230.878,184.451L232.863,180.868L233.129,180.118L233.294,179.313L233.334,177.59L232.987,176.284L232.57,175.403L231.348,175.211L231.144,175.067L231.446,174.276L231.73,174.067L234.253,172.865L234.609,172.62L235.084,172.142L236.327,170.531L236.905,170.073L239.881,168.769L243.261,168.245L246.059,167.126L247.263,164.035L247.476,161.211L248.031,158.272L248.449,157.229L248.853,156.511L248.959,155.813L248.489,154.831L247.24,153.527L246.801,152.828L246.73,151.842L247.058,150.957L248.071,149.355L248.249,148.32L248.08,147.483L247.565,146.056L247.551,145.185L248.315,143.697L249.75,143.143L253.121,142.774L253.921,142.423L254.535,142.058L254.933,141.821L255.848,141.119L256.35,140.467L257.034,138.993L257.128,138.41L257.056,137.903L256.763,137.014L256.777,136.447L257.736,133.734L259.202,125.487L260.814,120.019L261.996,117.5L269.651,106.498L269.884,105.975L270.193,105.283L269.908,103.621L270.099,102.723L270.575,101.971L271.267,101.375L272.902,100.422L273.417,99.742L274.154,98L275.185,96.164L276.606,94.345L278.223,92.693L279.875,91.355L281.199,91.35L282.891,91.841L285.903,93.131L286.791,93.262L287.746,93.017L288.661,92.539L289.429,91.974L290.611,90.74L291.135,90.514L292.294,90.374L292.632,90.234L296.46,86.676L297.269,86.221L299.814,85.419L300.715,84.885L302.292,83.463L303.194,82.913L305.415,82.102L306.152,81.703L306.667,80.901L307.116,79.85L307.444,78.762L307.604,77.846L307.587,76.735L307.338,75.853L306.858,75.105L306.156,74.395L305.93,74.103L305.779,73.79L305.601,73.506L305.281,73.311L304.549,73.32L304.375,73.255L303.984,72.724L303.922,72.341L304.122,71.955L305.699,69.859L306.019,69.122L306.938,64.652L307.427,63.265L307.587,61.792L307.578,61.479L307.502,61L306.689,59.104L306.605,58.262L307.373,57.753L307.276,57.292L308.017,54.14L308.275,53.629L308.488,53.365L308.595,53.09L309.425,52.241L309.354,51.773L309.146,51.355L308.635,51.082L308.275,51.22L307.68,51.534L307.12,51.734L306.876,51.532L306.596,50.618L305.917,50.053L305.05,49.589L304.207,48.98L304.628,48.746L304.793,48.68L304.793,48.353L304.322,48.151L303.047,47.187L302.741,46.878L302.656,46.471L302.878,45.823L302.741,45.375L301.568,44.748L298.819,44.073L289.984,43.802L289.323,43.661L288.754,43.313L288.363,42.645L288.332,42.131L288.59,40.785L288.603,39.941L288.38,39.216L288.314,39.004L288.257,35.603L285.84,23.877L283.424,12.139L298.606,12L299.347,12.479L301.308,15.557L301.355,15.631L301.963,16.294L302.323,16.946L302.452,17.677L302.385,18.575L301.719,20.591L301.697,21.153L302.141,21.792L303.456,22.799L304.229,23.594L304.229,25.258L304.318,25.65L304.477,25.856L304.731,25.885L305.104,25.745L305.104,26.177L305.161,26.583L305.357,26.825L305.77,26.761L306.592,26.125L306.876,26.056L307.209,26.195L307.293,26.422L307.311,26.695L307.462,26.958L308.213,27.442L308.488,27.697L309.19,28.1L310.46,27.758L311.144,27.999L311.437,28.723L310.807,30.169L311.304,30.895L311.957,29.807L312.184,29.666L312.579,29.809L312.957,30.171L313.241,30.617L313.356,31.034L313.676,31.744L314.422,31.833L315.839,31.498L316.337,32.404L317.758,37.81L317.598,38.047L317.252,38.724L317.172,39.013L317.145,39.502L317.207,39.584L317.398,39.611L317.758,39.941L317.674,39.723L317.847,39.698L318.127,39.793L318.344,39.941L318.389,40.116L318.318,40.621L318.344,40.814L318.935,41.895L319.668,45.228L319.583,45.621L319.521,48.68L319.446,49.214L319.228,49.953L319.228,50.48L319.352,50.807L319.566,51L319.748,51.232L319.81,51.682L319.632,51.975L319.308,52.05L319.09,52.243L319.228,52.884L319.446,53.188L320.547,53.947L321.493,55.057L322.097,55.537L322.613,55.462L323.345,54.91L324.118,54.826L324.918,55.164L325.735,55.882L325.526,56.154L325.366,56.629L325.353,57.154L325.575,57.574L325.891,57.928L325.917,58.198L325.811,58.534L325.735,59.075L326.175,59.717L326.912,60.353L327.099,60.843L325.868,61.038L325.686,61.234L325.784,61.67L325.997,62.126L326.161,62.375L326.335,62.793L326.042,63.181L325.628,63.544L325.415,63.887L325.509,64.988L325.802,65.678L326.308,66.034L327.041,66.134L327.321,66.606L328.378,69.133L328.138,69.58L327.441,70.243L327.201,70.658L327.276,70.839L327.734,71.275L327.787,71.558L327.609,71.767L327.321,71.799L327.041,71.781L326.881,71.83L326.543,72.767L326.468,73.622L326.592,74.493L327.272,76.463L327.725,77.241L328.933,78.776L329.439,80.195L328.866,81.405L326.881,83.594L326.49,84.372L326.215,85.224L325.944,87.505L325.735,88.179L325.735,88.681L325.868,89.008L326.095,89.203L326.286,89.436L326.321,89.879L326.033,90.603L325.042,92.055L324.825,92.747L324.523,95.461L324.849,99.943L325.122,103.69L326.295,106.489L326.734,107.142L327.005,107.913L326.859,108.992L326.321,110.862L326.441,112.509L329.724,118.891L330.052,119.944L329.99,120.634L329.559,121.406L329.297,122.468L329.271,123.548L329.55,124.38L329.817,124.614L330.212,124.804L330.687,124.93L331.176,124.977L331.629,125.07L331.918,125.274L332.127,125.48L332.993,125.885L333.375,126.632L333.974,128.259L334.596,128.952L335.16,129.42L335.573,129.947L335.738,130.807L335.826,131.912L336.097,132.799L336.564,133.552L342.484,139.077L344.083,141.369L344.696,141.731L344.674,141.921L346.651,143.649L349.516,145.374L351.026,145.856L352.887,147.543L352.136,147.769L342.493,150.143L340.068,150.209L332.846,147.857L330.292,147.751L328.32,147.969L327.938,148.084L327.454,148.377L326.69,149.085L326.241,149.378L325.029,149.656L323.714,149.56L321.209,148.96L319.233,148.887L313.836,150.577L312.113,150.487L299.565,147.368L289.073,148.073L288.443,148.115L288.092,148.253L287.99,148.576L287.968,149.002L287.87,149.443L285.783,153.619L284.437,155.468L280.924,158.536L278.312,162.313L278.383,162.962L282.203,165.969L294.444,180.153L294.866,182.022L295.656,183.409L305.204,191.128L314.751,198.844L315.439,199.062L315.839,198.931L316.217,198.864L316.594,198.871L316.994,198.958L317.589,199.292L319.286,200.553L319.668,200.965L319.885,201.504L320.17,201.71L320.485,201.825L320.792,202.089L321.036,202.495L321.422,203.598L321.524,204.128L321.524,204.531L321.68,204.818L322.257,204.995L323.861,205.235L324.953,205.578L325.842,206.228L326.557,207.094L328.369,210.081L330.852,212.538L331.505,213.383L332.665,215.874L338.451,228.287L341.081,237.592L342.551,241.157L344.576,242.652L345.5,242.693L346.851,243.004L347.801,243.195L347.77,247.63L347.201,250.205L346.042,252.577L344.283,254.867L343.95,255.481L341.636,258.625L341.467,259.306L342.302,260.083L342.209,260.655L342.023,260.695L341.214,260.744L340.939,260.8L340.69,261.044L340.335,261.763L340.17,262.014L338.145,263.581L334.84,265.442L334.206,265.984L333.233,266.816L332.424,268.865L331.829,269.856L331.629,270.333L331.576,270.743L331.785,273.258L331.669,273.699L331.305,274.142L330.319,274.601L329.928,274.858L329.462,275.574L329.151,276.389L328.476,279.065L327.059,282.814L326.148,284.624L325.424,286.593L325.095,287.199L324.571,287.642L321.991,288.934L321.293,289.408L320.707,290.076L320.253,291.109L315.328,302.297L314.249,303.775L314.156,304.268L314.342,305.286L314.356,305.756L314.258,306.233L313.823,307.031L312.215,309.101L311.535,309.645L305.406,312.588L303.625,312.575L303.238,313.267L302.594,314.077L301.355,315.299L300.706,315.492L299.712,316.458L299.139,316.984L299.192,317.133L299.231,317.371L299.267,317.598L299.076,318.017L298.943,318.203L298.792,318.571L298.606,318.754L298.379,318.758L297.931,318.419L297.726,318.459L297.406,318.812L297.278,319.103L297.371,319.448L297.726,319.962L298.086,320.314L298.579,320.909L299.214,321.419L299.84,322.086L300.138,322.783L300.325,323.538L300.649,324.218L301.355,324.695L302.088,324.699L303.438,324.855L304.073,324.784L305.237,324.066L305.766,324.1L306.334,324.96L306.547,325.829L307.169,326.625L307.453,331.232L307.755,332.107L307.467,332.731L306.876,335.083L306.112,337.038L305.997,337.711L306.054,338.46L306.272,339.052L306.876,340.069L307.16,340.751L307.231,341.288L307.169,342.59L307.027,343.04L306.401,344.258L306.259,344.972L306.303,346.208L306.112,346.702L305.543,346.903L305.53,347.239L305.166,347.958L304.735,348.626L304.526,348.805L304.442,349.37L304.202,350.135L303.825,350.866L303.327,351.322L302.976,351.426L303.149,351.897L303.829,352.669L304.722,353.239L306.574,353.857L307.471,354.298L308.16,354.98L308.635,355.874L308.95,356.866L309.137,357.846L309.128,360.02L309.319,361.688L309.012,363.284L309.004,363.471L308.977,364.093L309.146,364.581L309.421,364.952L309.621,365.363L309.519,366.518L309.679,366.952L309.927,367.375L310.158,367.896L310.78,371.971L310.745,372.407L310.549,373.465L310.367,373.941L310.318,374.224L310.602,374.954L310.9,378.225L311.46,380.266L312.597,382.079L314.142,383.585L320.96,388.288L322.839,388.954L323.35,389.264L323.634,389.699L323.927,390.795L324.207,391.378L325.695,393.214L326.352,394.43L326.739,395.615L327.174,398.219L327.241,400.671L327.529,401.826L328.018,402.231L328.671,402.148L329.319,402.398L329.595,402.999L329.737,403.608L329.99,403.888L330.59,403.888L331.247,403.995L331.767,404.355L331.865,404.823L331.021,405.186L330.075,405.414L328.391,406.215L327.552,406.391L326.841,406.299L325.464,405.948L324.727,405.95L327.259,411.992L330.972,417.456L334.467,421.165L334.883,421.606L337.781,424.689L341.401,428.527L345.869,433.274L350.12,437.787L354.153,442.062L357.373,445.483L357.697,445.685L358.035,445.788L358.572,445.87L358.745,445.821L359.243,445.541L359.46,445.458L359.718,445.507L360.18,445.808L360.344,445.87L362.192,445.674L362.889,445.914L363.724,446.61L364.439,447.505L364.79,448.343L365.363,450.509L365.479,450.743L365.63,450.949L365.812,451.132L366.389,450.927L366.847,450.82L367.264,450.84L367.713,451.034L368.055,451.394L368.965,452.722L369.601,454.149L370.129,455.05L370.555,456.013L370.675,457.153L370.32,458.17L369.161,459.33L369.001,460.464L369.165,461.927L369.134,462.53L369.276,462.901L369.716,462.916L370.293,462.825L370.844,462.868L371.333,462.977L370.942,463.561L370.613,464.195L370.467,464.677L370.587,465.555L371.248,467.056L371.377,467.934L371.177,468.759L370.507,470.233L370.467,471.191L370.64,471.749L371.186,472.754L371.377,473.541L371.377,475.145L371.439,475.494L371.781,476.392L372.319,477.457L373.132,478.384L373.429,478.828L373.585,479.22L373.665,479.609L373.718,480.469L373.851,480.68L374.446,481.056L374.602,481.204L374.62,481.564L374.375,482.113L374.309,482.525L374.873,482.847L375.037,482.978L375.281,483.169L375.512,483.554L375.157,484.023L373.429,485.316L372.63,484.554L371.759,484.403L371.071,484.823L370.786,485.769L370.271,486.732L370.173,487.223L370.262,487.775L370.444,488.152L370.56,488.55L370.467,489.158L370.373,489.201L370.2,489.207L370.009,489.265L369.88,489.452L369.831,489.708L369.831,489.902L369.858,490.015L369.88,490.04L369.943,490.419L370.089,490.754L370.098,491.133L369.441,492.051L369.325,492.464L369.374,494.052L369.538,494.282L369.805,494.411L370.173,494.737L370.942,496.036L372.39,499.798L373.42,504.55L373.283,505.226L372.821,505.431L371.897,505.117L371.519,505.226L369.587,508L367.895,505.814L367.531,505.066L367.531,504.625L367.655,504.22L367.717,503.797L367.531,503.303L367.18,502.98L366.705,502.782L366.189,502.771L365.745,503.011L365.003,502.72L364.168,502.537L363.533,502.221L363.4,501.542L362.943,501.791L362.365,502.016L361.854,502.036L361.641,501.676L361.53,501.028L361.241,500.725L360.824,500.522L359.798,499.848L358.652,499.449L358.114,499.168L356.471,497.072L356.16,496.888L355.156,496.728L354.619,496.517L354.17,496.269L353.984,496.072L349.902,495.617L346.242,494.531L344.363,494.185L342.484,494.444L340.29,495.746L339.424,496.034L338.616,496.445L338.109,496.524L338.127,496.425L337.119,495.974L336.91,495.938L336.573,495.573L336.51,495.397L336.586,495.154L336.644,494.591L336.55,494.275L336.306,493.941L335.969,493.672L334.507,493.133L334.272,493.003L334.103,492.714L333.868,492.059L333.654,491.801L332.748,491.443L332.078,491.643L331.5,491.885L330.128,491.384L329.564,492.652L328.933,492.415L328.671,492.415L328.236,493.111L327.547,493.816L326.828,494.034L326.321,493.269L325.486,493.54L324.825,493.348L322.781,491.723L322.364,491.665L322.022,492.699L321.627,492.896L320.694,493.003L318.988,492.872L319.166,491.816L319.628,490.614L318.788,490.04L318.651,489.616L318.087,488.775L317.465,488.161L317.172,488.425L317.172,488.96L317.087,489.483L316.785,489.882L316.146,490.04L313.503,490.332L313.365,490.129L313.405,489.167L313.356,488.864L313.139,488.864L312.761,488.967L312.313,489.015L311.891,488.864L312.157,488.76L312.774,488.278L311.615,487.66L311.304,487.815L311.597,488.864L310.962,488.608L310.114,487.734L309.514,487.37L308.399,487.412L307.982,487.198L308.346,486.516L307.32,486.058L305.899,484.472L304.793,484.167L304.575,484.443L304.175,484.818L304.184,485.218L304.282,485.614L304.144,485.985L303.758,486.121L300.369,486.845L299.49,487.385L299.241,487.465L298.628,487.33L297.797,486.561L297.122,486.176L294.399,485.807L292.507,486.543L292.108,486.592L287.586,486.549L280.755,486.489L273.071,486.421L266.12,486.362L264.319,486.347L257.709,486.287L250.319,486.221L250.305,485.158L250.483,483.865L250.301,483.234L249.892,482.729L249.248,482.149L248.582,481.669L248.098,481.471L247.8,481.54L247.183,481.796L246.783,481.791L246.499,481.669L245.899,481.204L244.7,480.969L243.39,480.911L243.017,481.06L242.519,481.418L241.657,482.247L241.249,482.416L239.419,482.645L238.215,482.125L237.527,481.965L236.936,482.247L236.465,482.38L235.719,482.256L234.426,481.791L233.987,482.2L233.498,482.38L232.952,482.336L232.348,482.087L231.979,482.611L231.131,482.425L230.149,481.998L229.416,481.791L228.874,482.018L228.381,482.416L227.782,482.796L226.911,482.967L221.097,482.098L220.071,481.72L219.387,481.204L218.383,481.438L217.642,481.204L215.243,480.422L213.591,480.309L211.223,480.851L210.446,480.693L209.038,479.833L208.505,479.64L208.096,479.689L207.199,480.169L206.751,480.286L205.902,480.409L204.25,480.962L203.393,481.124L201.527,481.044L199.791,480.769L199.013,480.74L196.486,480.933L193.23,480.729L189.948,481.016L186.182,480.898L184.72,481.098L184.058,481.024L181.851,480.3L180.976,479.582L180.554,479.342L179.954,479.277L179.412,479.4L178.293,479.798L166.82,480.22L166.74,480.611L166.936,481.171L167.007,481.742L166.749,482.347L166.416,482.8L166.145,483.291L166.07,483.996L166.07,484.534L165.994,485.06L165.826,485.565Z"/>
</svg>
