<svg xmlns="http://www.w3.org/2000/svg" viewBox="0 0 420 520" aria-label="Map of Cabo Verde">
  <path fill="currentColor" d="M108.446,428.231L110.097,429.772L111.03,431.982L111.443,434.525L111.544,437.106L111.012,439.513L109.774,440.614L108.434,441.431L107.531,442.965L106.436,442.965L105.342,441.419L102.524,439.519L101.507,437.669L100.419,438.721L101.041,437.36L101.256,436.06L101.041,434.767L100.419,433.43L102.416,433.43L101.818,430.565L103.553,429.568L106.239,429.203ZM168.393,425.687L167.663,427.371L168.147,429.048L168.871,430.738L168.937,432.483L167.95,433.981L162.818,438.721L156.633,441.134L150.974,440.392L145.968,437.774L137.516,430.645L135.488,427.755L134.627,424.598L135.452,421.471L137.492,417.831L140.112,414.58L143.689,411.967L152.679,407.353L155.305,406.517L158.35,406.232L161.526,406.944L163.589,408.771L164.923,411.162L166.82,416.27L168.506,423.719ZM291.839,409.539L292.162,410.258L292.557,410.84L293.077,411.255L293.849,411.515L293.155,413.787L292.15,415.286L288.735,417.849L289.829,418.89L288.394,421.267L287.496,423.663L286.366,425.514L284.266,426.257L283.1,426.405L280.803,427.043L279.709,427.197L278.524,427.061L277.28,426.411L276.191,426.257L271.31,426.145L267.237,425.6L263.475,424.325L259.539,422.951L253.868,417.942L251.595,415.298L251.572,410.326L249.903,409.13L247.516,408.375L245.488,407.359L245.399,406.796L244.394,403.302L243.987,402.707L243.401,402.119L242.838,401.314L242.474,400.087L242.874,398.86L244.968,395.143L245.488,393.755L245.363,391.76L243.479,386.573L244.884,386.158L245.775,385.129L246.272,383.641L246.403,381.85L246.727,380.207L247.456,379.172L248.174,378.41L248.503,377.591L248.006,375.025L246.78,372.061L245.147,369.643L243.479,368.7L244.453,368.347L247.498,366.71L245.345,365.835L244.394,365.674L248.503,362.461L249.598,362.461L249.681,363.621L249.909,364.26L250.22,364.812L250.507,365.674L253.258,363.962L255.609,365.401L256.405,368.012L254.514,369.835L256.476,372.631L258.767,374.336L263.648,377.021L262.542,378.162L265.084,378.688L266.334,379.767L268.565,383.449L273.105,388.413L275.581,389.987L277.788,389.696L278.261,390.403L278.506,390.923L278.871,391.351L279.709,391.772L279.493,391.97L280.426,392.894L281.479,393.749L281.706,393.755L282.113,393.854L283.417,393.656L283.812,393.755L283.896,394.232L283.716,395.465L283.812,395.936L289.829,407.359L290.404,407.929L290.834,408.096L291.265,408.431ZM340.2,365.674L341.067,367.584L341.27,369.99L341.115,374.095L342.748,382.78L342.532,386.963L340.2,390.818L339.464,391.109L337.131,391.407L336.18,391.772L335.636,392.503L334.93,394.306L334.17,394.895L332.125,395.087L330.181,394.561L327.064,392.813L323.613,390.297L321.932,388.506L321.035,386.573L321.483,384.695L322.632,382.811L323.224,380.964L322.04,379.203L324.121,377.963L325.048,375.992L324.462,374.336L322.04,374.095L322.865,371.862L326.041,369.481L328.147,365.674L327.459,365.389L327.357,365.252L327.387,365.041L327.064,364.533L329.104,363.658L331.078,362.461L331.12,362.957L331.078,364.533L332.34,363.528L332.681,363.193L333.076,362.461L334.17,363.59L333.076,364.533L335.181,365.538L338.477,364.744ZM405.715,243.213L406.265,243.474L407.378,244.95L408,246.6L407.127,247.384L406.672,248.044L406.451,249.476L406.056,250.92L403.61,252.495L395.576,258.974L390.211,261.873L387.483,262.744L379.026,263.286L377.524,263.055L376.089,262.315L374.013,260.517L372.32,260.019L366.991,257.58L365.196,255.874L364.281,252.607L364.389,249.7L365.196,246.973L366.716,244.95L368.893,244.159L371.692,241.382L370.095,228.005L371.393,223.258L371.979,224.367L372.625,225.177L374.408,226.491L376.932,227.706L380.665,228.977L384.062,229.375L385.545,228.005L386.67,225.638L389.296,225.189L397.987,227.407L399.578,228.055L401.049,229.108L401.642,230.198L402.533,233.113L403.149,233.71L405.661,234.788L406.218,237.372ZM202.057,166.559L204.934,168.875L206.483,169.767L207.159,169.18L207.159,174.46L205.502,174.847L195.118,174.941L183.765,169.848L177.688,168.369L171.952,170.653L169.888,173.181L165.629,180.9L164.253,186.689L162.973,184.805L160.904,179.128L160.036,177.83L159.038,176.794L158.236,175.503L157.901,173.425L157.805,171.833L157.458,170.666L156.699,169.954L155.377,169.705L151.967,168.669L149.551,166.066L148.678,162.639L149.862,159.136L158.846,156.177L159.911,156.326L161.921,157.132L163.667,158.293L167.125,161.346L168.937,162.277L170.474,162.352L178.645,161.084L180.068,161.378L185.44,163.962L186.63,164.231L198.755,165.248ZM369.395,169.705L367.601,158.05L365.376,153.435L362.277,155.034L361.667,152.811L361.464,149.813L361.919,147.04L363.276,145.516L363.276,144.466L361.524,143.929L360.567,142.461L360.226,140.405L360.339,135.594L363.378,133.17L370.388,128.739L371.19,129.832L373.846,132.345L374.408,133.501L374.228,134.157L373.283,135.975L372.249,137.481L372.518,137.906L373.092,138.219L373.415,138.75L373.002,147.852L373.415,150.75L374.073,151.774L376.011,153.591L376.43,154.472L376.274,156.183L375.652,159.23L375.509,160.803L375.221,161.652L373.864,162.639L373.415,163.413L373.469,164.231L373.774,165.373L374.151,166.322L374.408,166.559L373.433,167.789L372.386,168.357L371.094,168.818ZM76.78,123.394L76.313,124.051L77.557,125.495L79.663,126.939L81.756,127.595L82.462,128.432L83.168,130.345L83.563,132.482L83.347,133.982L80.991,135.857L77.402,137.157L73.382,137.925L69.668,138.169L68.729,138.506L67.305,139.943L66.743,140.281L65.684,140.131L56.431,136.519L54.953,135.682L53.787,134.551L53.057,133.032L51.143,133.982L51.789,130.707L53.488,128.007L55.635,126.17L57.615,125.495L62.221,125.401L64.105,124.532L63.19,122.444L67.335,120.187L68.202,119.106L69.207,119.106L70.098,121.269L71.57,120.981L74.136,119.106L75.607,119.906L76.923,121.369L77.521,122.769ZM58.076,101.882L56.813,103.458L47.949,107.662L43.899,111.877L41.028,115.679L37.367,118.312L30.979,119.106L25.411,119.106L23.7,119.456L22.402,120L21.074,119.968L19.297,118.63L18.915,116.73L18.843,106.511L16.833,102.933L16.319,102.514L13.782,102.026L12.819,101.356L12,98.779L12.712,96.576L16.337,92.383L18.412,90.957L20.565,90.656L22.48,90.819L23.855,90.769L25.351,89.692L28.916,86.25L31.715,85.023L35.184,82.857L38.588,81.993L47.542,77.611L49.899,77.035L51.598,77.586L53.296,78.763L57.053,78.638L59.17,79.214L60.546,80.284L61.12,81.48L61.18,84.986L61.957,85.687L65.415,86.638L66.192,87.139L66.647,87.94L68.663,89.667L69.207,90.769L68.95,92.415L68.071,93.91L62.759,99.717L62.089,99.736L61.467,100.293L58.704,101.356ZM124.862,164.965L128.265,165.63L127.414,167.85L125.288,167.628L123.586,167.184L123.161,165.408ZM98.279,137.652L101.894,138.985L103.808,141.206L105.297,144.538L108.061,145.204L109.763,144.094L111.464,144.76L111.251,146.759L108.699,147.869L105.722,148.092L103.17,148.092L101.894,146.759L101.043,144.982L98.279,143.872L96.152,141.873L96.152,139.651Z"/>
</svg>
