<svg xmlns="http://www.w3.org/2000/svg" viewBox="0 0 420 520" aria-label="Map of Djibouti">
  <path fill="currentColor" d="M365.787,340.512L353.473,359.895L290.595,458.781L286.894,457.477L284.516,459.53L282.139,462.458L278.633,463.744L275.52,463.22L269.661,461.522L259.856,460.517L254.561,459.343L250.541,455.941L244.559,442.779L240,441.061L234.337,440.837L217.521,436.821L215.748,436.959L206.637,437.67L185.286,444.202L169.524,454.636L164.425,457.064L160.846,456.877L157.169,455.616L151.8,454.742L144.054,457.377L142.02,457.576L137.779,457.427L135.744,457.639L127.287,461.459L124.076,462.271L119.59,462.221L107.406,459.406L94.341,460.841L87.967,462.958L80.613,470.461L74.068,472.115L60.635,472.677L59.017,473.339L57.938,474.543L56.688,475.442L54.629,475.143L53.207,473.944L52.594,472.515L51.785,471.279L23.767,465.573L17.859,463.307L16.13,461.033L14.893,459.406L19.158,452.526L20.653,442.204L21.217,395.705L18.3,369.412L12.172,341.595L12,328.387L19.011,306.429L22.271,288.069L26.022,280.37L29.527,277.979L38.842,273.873L41.195,270.768L42.519,267.312L44.529,265.885L47.201,265.071L50.511,263.481L53.796,260.939L56.419,258.272L65.501,245.314L85.099,217.348L94.684,199.427L97.307,196.531L102.896,193.774L104.784,190.778L108.387,181.94L139.985,138.559L147.216,122.687L161.508,103.371L173.715,90.152L177.883,89.411L184.33,91.118L195.214,96.002L232.376,129.086L235.514,124.519L236.63,124.205L244.118,122.097L247.354,117.416L249.364,115.232L256.448,113.889L259.415,112.295L260.787,105.756L258.581,98.136L257.748,90.905L268.092,81.086L273.608,67.937L277.579,64.433L279.687,64.697L282.629,67.046L285.056,66.807L336.602,44.558L340.462,47.16L342.682,51.463L344.535,56.271L347.064,60.405L370.265,86.986L375.862,95.933L379.221,99.462L382.927,100.509L386.806,97.821L386.806,106.37L387.25,110.462L388.428,114.544L390.3,117.884L392.462,120.542L394.199,123.506L394.913,127.804L395.203,137.071L395.936,141.99L397.403,145.369L406.263,157.793L406.958,161.882L406.263,176.021L408,194.313L406.726,202.07L403.271,209.283L398.137,215.273L391.806,219.367L389.933,219.92L383.564,221.025L377.078,224.34L372.349,225.218L362.158,225.445L357.68,226.668L349.959,232.202L331.738,254.126L330.503,254.915L329.093,255.507L326.758,256.513L325.098,257.588L324.037,259.244L323.129,262.606L321.855,264.046L318.536,265.278L305.565,265.87L302.167,267.142L298.616,269.656L295.084,271.263L288.656,268.897L284.139,269.626L262.058,277.522L255.843,281.337L250.361,287.221L233.761,317.66L232.178,319.738L229.939,320.98L222.586,323.157L220.385,323.275L214.71,322.231L208.456,322.467L206.468,322.231L205.156,321.305L202.917,318.142L201.624,317.285L196.47,317.611L193.69,319.63L193.652,321.305L196.76,320.576L197.802,325.836L197.802,326.082L197.937,331.884L199.288,336.848L207.086,339.881L211.815,344.234L214.71,345.376L218.011,344.766L221.775,341.25L224.438,340.423L226.504,340.984L228.723,342.018L231.021,342.481L233.182,341.319L234.572,338.247L232.951,336.414L230.519,335.164L229.303,333.805L231.387,329.796L236.135,326.447L246.964,322.231L263.023,320.32L268.157,318.94L270.628,317.128L272.52,315.128L274.488,314.389L277.133,316.369L279.082,317.315L285.143,317.226L318.304,316.773L323.361,315.749L328.09,315.896L333.205,318.94L337.876,317.847L340.366,314.507L342.161,311.286L344.709,310.517L346.137,313.049L349.534,327.196L349.747,327.491L352.295,331.145L354.977,333.145L362.37,337.114Z"/>
</svg>
