<svg xmlns="http://www.w3.org/2000/svg" viewBox="0 0 420 520" aria-label="Map of Algeria">
  <path fill="currentColor" d="M86.033,333.553L82.704,331.288L79.376,329.02L76.048,326.75L72.718,324.478L70.397,322.966L69.927,322.659L67.183,320.872L63.968,318.774L60.754,316.675L57.54,314.574L53.745,312.092L49.95,309.608L46.155,307.122L42.36,304.631L38.565,302.14L34.771,299.644L30.976,297.149L27.18,294.648L23.386,292.148L19.592,289.642L15.796,287.136L12,284.626L12,282.595L12,280.565L12,278.533L12,276.498L12,275.199L12,273.901L12,272.603L12,271.303L12,270.002L12,268.7L12,267.399L12,266.095L12,264.793L12,263.489L12,262.184L12,260.878L12,259.571L12,258.264L12,256.957L12,255.648L12,254.65L12.069,254.062L12.283,253.649L12.643,253.338L15.098,252L15.961,251.307L16.832,250.82L17.074,250.572L17.732,249.402L18.02,249.166L18.695,248.863L19.011,248.673L20.282,247.452L21.589,246.558L23.749,245.597L24.389,245.147L26.14,243.47L28.17,242.09L29.342,240.985L30.263,240.505L30.557,240.27L31.727,239.074L32.382,238.783L33.279,238.823L34.126,238.969L34.555,238.985L34.979,238.936L35.377,238.789L37.557,238.915L39.299,237.068L41.443,236.144L42.917,235.99L45.062,236.144L48.412,237.53L50.02,235.99L52.7,235.682L55.515,234.912L58.195,234.604L61.009,234.604L63.422,234.604L65.7,234.142L68.112,233.833L68.782,235.836L70.39,236.452L72.267,235.836L74.277,233.217L76.019,230.439L77.359,227.813L79.235,225.803L81.246,224.41L83.39,222.552L84.998,221.312L87.008,220.226L89.823,218.985L92.503,216.811L94.647,214.013L96.523,212.924L98.802,212.301L101.75,212.146L104.966,211.367L108.585,209.497L108.451,208.094L108.317,206.69L109.255,205.753L110.327,204.035L109.29,202.358L109.264,201.923L109.179,201.527L108.995,201.113L108.77,200.908L108.078,200.567L107.737,200.238L107.212,199.394L106.938,199.101L106.603,199.014L106.318,199.165L105.757,199.698L105.416,199.85L105.096,199.829L104.869,199.627L104.801,199.238L104.929,198.799L105.335,198.11L105.375,197.598L105.254,195.904L105.331,195.493L105.575,195.19L106.63,194.415L108.049,194.324L108.317,188.507L109.623,187.821L110.441,188.008L111.154,187.945L116.76,186.932L120.914,185.671L124.264,185.198L123.46,182.99L122.138,179.459L123.241,178.833L126.801,178.53L130.241,177.568L132.878,177.69L134.095,177.747L135.471,177.812L136.973,177.882L138.569,177.958L140.226,178.037L141.911,178.116L143.591,178.195L145.233,178.272L146.805,178.346L148.273,178.416L149.605,178.479L150.769,178.534L151.733,178.578L152.461,178.612L152.921,178.634L153.083,178.643L154.529,178.712L155.281,178.53L155.66,177.725L155.563,177.254L155.252,176.975L154.852,176.854L154.485,176.858L153.773,177.144L153.463,177.138L153.378,176.769L153.453,176.627L153.769,176.375L153.888,176.254L154.01,176.012L154.037,175.826L154.031,175.635L154.071,175.364L154.376,173.291L154.633,172.473L154.824,172.071L155.134,171.662L155.447,171.498L156.241,171.382L156.953,171.087L157.589,170.599L158.701,169.349L158.403,168.835L153.044,164.695L151.826,164.242L151.196,163.703L148.599,159.339L149.413,158.748L149.556,158.592L149.669,158.402L149.749,158.188L149.793,157.953L149.854,157.453L149.86,156.919L149.736,156.445L149.413,156.13L148.854,155.721L148.357,155.26L147.961,154.696L147.701,153.977L147.357,153.322L146.385,152.374L146.21,151.62L146.213,149.362L146.412,148.779L146.675,148.201L147.035,146.92L147.322,146.49L147.565,145.864L147.477,145.105L146.612,143.027L146.404,142.755L146.069,142.506L145.404,142.266L145.11,142.062L144.994,141.698L145.081,141.343L145.267,141.111L145.49,140.915L145.684,140.668L145.83,140.328L145.843,140.074L145.641,139.401L145.468,138.266L145.532,137.182L146.426,133.457L146.474,132.993L146.427,132.696L146.376,132.374L145.008,128.1L144.524,127.069L143.789,126.192L145.835,123.7L145.619,123.575L144.92,123.362L142.61,120.977L142.767,120.582L143.772,119.017L144.24,117.965L144.489,117.773L144.558,117.603L144.209,117.245L142.194,115.961L141.544,115.344L140.527,114.709L140.264,114.392L140.169,114.068L140.145,113.749L140.069,113.472L139.827,113.284L138.964,113.203L138.318,112.782L137.722,112.215L137.007,111.697L136.423,111.473L136.08,111.009L135.899,110.388L135.871,109.466L136.302,109.306L136.378,109.335L136.445,109.345L136.506,109.379L136.565,109.48L137.13,109.192L137.795,109.34L138.488,109.638L139.135,109.801L140.375,109.626L140.815,109.772L140.974,109.801L141.101,109.751L141.433,109.48L143.232,108.96L143.73,108.593L143.89,108.556L144.468,108.574L144.719,108.521L145.017,108.305L145.646,107.56L146.873,107.142L147.086,106.999L147.243,106.583L149.528,104.628L149.902,104.499L151.723,104.301L152.228,104.149L152.334,104.091L152.431,104L152.935,103.362L153.297,103.259L153.661,103.004L153.971,102.689L154.18,102.399L154.344,101.929L154.572,100.812L154.769,100.389L154.992,100.023L155.664,98.258L155.799,98.015L156.025,97.907L156.476,97.882L156.576,97.769L157.071,97.062L157.275,96.912L157.727,96.579L158.316,96.022L158.54,95.657L158.683,95.511L159.378,95.346L159.743,95.106L160.052,94.835L160.344,94.645L160.797,94.506L161.036,94.526L161.142,94.725L161.243,94.821L161.47,94.723L162.201,94.29L162.67,93.481L163.118,93.354L163.274,93.445L163.416,93.609L163.587,93.768L163.839,93.839L164.031,93.866L164.406,93.985L164.623,94.014L164.85,94.085L164.954,94.258L165.042,94.466L165.212,94.645L165.401,94.691L166.131,94.645L166.477,94.558L166.867,94.37L167.189,94.097L167.421,93.427L167.655,93.389L167.919,93.47L168.117,93.5L168.319,93.378L168.453,93.218L169.342,91.334L169.361,91.08L169.316,91.014L169.279,90.867L169.27,90.71L169.296,90.608L169.405,90.579L169.516,90.638L169.614,90.722L169.687,90.756L169.881,90.742L170.28,90.779L170.474,90.756L171.277,90.364L171.806,90.205L172.044,90.352L172.134,90.619L172.34,90.748L172.561,90.818L172.701,90.902L172.766,91.149L172.649,91.472L172.701,91.725L173.014,92.069L173.515,92.323L174.884,92.614L175.708,92.966L176.114,93.047L176.31,93.002L176.897,92.871L177.752,92.423L178.546,91.838L179.152,91.241L179.831,89.855L180.027,89.259L180.676,87.761L180.837,87.213L180.864,86.946L180.931,86.8L181.09,86.685L181.28,86.581L181.443,86.462L182.366,85.477L182.699,85.239L183.925,84.814L184.136,84.664L184.225,84.506L184.646,84.234L184.804,84.089L184.871,83.879L184.963,83.316L185.054,83.115L185.394,82.927L185.862,82.83L186.705,82.79L187.145,82.705L187.469,82.49L187.755,82.22L189.164,81.258L189.891,81.042L190.222,80.748L190.517,80.421L190.84,80.193L191.208,80.103L192.688,79.98L192.934,79.96L193.231,79.815L193.874,79.365L195.072,79.037L195.375,78.804L195.573,78.584L196.013,78.281L196.23,78.065L196.314,77.88L196.364,77.675L196.444,77.459L196.622,77.251L196.948,77.112L197.802,76.904L198.524,76.427L199.908,76.421L200.328,76.272L201.093,75.854L201.551,75.771L202.372,75.79L202.756,75.749L203.193,75.608L204.314,75.041L204.716,74.971L205.067,75.037L205.902,75.346L206.348,75.446L206.799,75.423L207.587,75.19L211.106,74.988L211.406,74.971L211.601,74.921L212.051,74.703L212.263,74.644L212.431,74.671L212.843,74.79L213.062,74.793L214.11,74.504L215.189,74.438L216.083,74.63L216.32,74.644L217.99,74.44L222.782,72.998L223.161,72.837L223.583,72.811L223.999,72.918L224.355,73.148L224.477,73.362L224.514,73.579L224.589,73.747L224.819,73.815L225.025,73.84L225.418,73.953L225.605,73.978L228.361,73.815L228.979,73.605L230.792,72.168L232.047,71.506L232.54,71.077L233.018,70.371L233.138,70.044L233.632,69.547L234.734,68.738L235.577,68.564L235.727,68.585L236.288,68.663L236.935,69.064L237.435,69.629L237.969,70.095L238.704,70.341L239.339,70.317L239.456,70.313L240.052,69.964L240.258,69.628L240.352,69.274L240.375,68.649L240.577,68.631L241.827,69.213L242.546,69.406L244.851,69.54L245.23,69.489L245.97,69.265L246.368,69.213L246.572,69.149L246.719,69L246.838,68.84L246.958,68.738L247.147,68.705L247.557,68.75L247.754,68.738L248.475,68.37L249.621,67.19L250.243,66.759L251.884,66.238L252.774,66.135L253.517,66.269L254.2,66.708L254.503,66.759L254.71,66.733L255.124,66.621L255.795,66.601L255.949,66.621L256.831,66.738L257.202,66.938L258.001,66.504L258.251,66.447L258.482,66.496L258.971,66.709L259.228,66.759L259.465,66.687L259.972,66.359L260.216,66.269L260.534,66.297L261.06,66.537L261.335,66.595L263.643,66.269L263.878,66.306L264.169,66.404L264.443,66.537L264.626,66.677L264.858,66.804L265.478,66.821L265.749,66.938L266.344,66.669L266.534,66.661L267.137,66.634L268.577,66.759L269.939,66.595L270.286,66.658L273.407,67.991L273.76,68.329L273.863,68.491L274.093,68.535L274.359,68.534L274.546,68.559L274.683,68.681L274.852,68.976L274.927,69.064L275.248,69.219L275.626,69.339L276.021,69.403L276.378,69.391L275.994,70.557L276.097,70.936L276.639,71.352L278.89,72.51L279.527,72.673L280.204,72.7L281.509,72.51L282.576,72.201L282.687,72.168L283.282,72.168L283.372,72.109L283.614,71.81L283.747,71.693L284.515,71.393L284.895,71.105L285.159,70.237L285.417,69.869L285.757,69.569L286.103,69.391L286.946,69.14L287.303,68.953L287.991,68.333L288.438,68.169L288.918,68.144L290.242,68.423L291.028,68.394L294.255,67.66L297.322,66.492L298.063,66.039L298.469,65.449L298.501,64.945L298.428,64.549L298.422,64.173L298.661,63.721L298.806,63.566L299.577,62.98L299.85,62.661L300.039,62.484L300.669,62.143L301.516,61.915L302.411,61.891L303.183,62.155L303.871,62.698L303.979,62.736L303.988,62.982L304.033,63.158L304.133,63.267L304.307,63.304L304.527,63.481L304.728,64.393L305.038,64.794L305.319,64.68L305.655,64.811L306.029,65.016L306.413,65.122L309.306,65.285L309.551,65.369L309.896,65.58L310.219,65.848L310.419,66.105L310.411,66.498L310.982,66.714L311.733,66.786L312.251,66.759L313.955,66.228L314.489,65.926L314.792,66.06L315.275,66.181L315.73,66.195L315.931,66.015L316.103,65.783L316.914,65.088L317.186,64.944L317.303,64.832L317.457,64.572L317.594,64.275L317.654,64.049L317.619,63.779L317.523,63.592L316.767,62.778L316.202,62.305L316.202,62.155L316.415,62.123L316.788,62.003L316.989,61.991L317.182,62.053L317.538,62.26L317.715,62.305L317.757,62.322L317.828,62.354L317.91,62.442L317.988,62.483L318.108,62.393L318.247,62.22L318.331,62.166L318.428,62.155L318.612,62.223L318.968,62.438L319.161,62.484L319.323,62.432L319.813,62.155L320.072,62.154L320.126,62.176L320.138,62.272L320.275,62.484L320.355,62.755L320.478,62.909L320.739,62.976L321.124,62.982L321.293,63.028L321.464,63.14L321.778,62.946L322.12,62.827L322.808,63.352L323.379,63.959L324.011,64.445L324.868,64.615L325.057,64.565L325.225,64.479L325.411,64.425L325.653,64.466L325.87,64.57L326.065,64.7L326.235,64.856L326.386,65.031L327.307,64.944L327.499,64.865L327.85,64.471L328.033,64.302L327.888,64.791L327.649,65.321L327.566,65.793L327.891,66.105L327.55,66.788L327.557,66.793L328.25,67.311L329.334,67.641L330.139,67.757L332.853,67.085L333.295,66.85L333.679,66.504L336.366,65.154L336.711,65.38L337.048,65.738L337.419,65.926L338.285,65.881L338.721,65.926L339.067,66.105L339.351,65.99L339.596,66.101L339.841,66.302L340.116,66.447L340.777,66.51L341.436,66.447L343.436,65.604L343.448,65.6L343.509,66.235L343.493,66.524L343.558,66.77L344.216,67.782L344.2,68.073L343.857,68.319L342.527,68.857L341.868,68.994L341.15,68.944L340.409,69.035L339.816,69.329L339.693,69.71L340.363,70.064L340.75,70.552L340.585,71.393L340.147,72.231L339.717,72.709L337.396,74.124L336.158,74.592L335.605,74.945L335.153,75.498L335.114,76.305L335.113,76.32L335.898,76.643L337.563,76.861L337.934,77.053L338.296,77.154L338.592,77.335L338.754,77.774L338.792,78.231L338.762,79.214L338.71,79.543L338.691,79.667L337.783,82.22L337.692,83.201L337.783,83.673L337.926,84.113L337.975,84.542L337.801,84.991L337.585,85.384L337.18,87.13L337.119,88.436L337.042,88.717L336.635,90.199L336.524,92.082L336.608,93.085L336.836,93.912L337.773,95.457L338.1,96.229L338.169,96.955L338.358,98.923L338.352,99.62L337.664,101.289L337.456,102.11L337.416,102.969L337.539,103.933L337.981,104.769L338.706,105.125L339.505,105.375L340.165,105.891L339.975,106.352L338.815,108.139L337.91,109.143L337.656,109.973L337.319,111.697L336.861,112.946L336.667,113.852L336.703,114.721L337.06,117.077L337.006,117.394L336.856,117.604L336.83,117.64L336.213,118.295L335.987,118.644L335.934,119.006L336.429,119.788L336.283,120.05L335.593,120.485L335.472,120.676L335.337,121.081L335.254,121.241L335.101,121.398L334.65,121.674L333.86,122.381L333.698,122.525L331.877,123.362L331.076,123.938L329.414,124.671L328.664,125.218L328.288,126.034L327.566,128.781L327.394,129.158L327.154,129.449L326.792,129.643L325.573,129.84L324.828,130.215L324.302,130.763L323.833,131.389L323.059,132.193L322.642,132.627L322.378,133.253L322.319,134.959L321.92,137.279L322.017,138.177L322.279,139.447L322.412,139.842L322.963,140.918L323.159,142.116L323.323,142.703L324.542,144.84L326.011,147.412L326.3,148.314L326.301,148.41L326.328,151.452L326.621,152.524L327.115,153.068L327.82,153.283L328.74,153.369L329.439,153.608L331.564,155.149L331.936,155.343L332.329,155.465L332.731,155.492L333.132,155.402L333.56,155.665L335.373,158.512L337.319,161.56L337.579,162.289L337.838,165.493L338.023,167.844L338.247,168.594L338.273,168.623L338.798,169.199L341.15,170.704L344.212,172.933L348.223,175.845L351.452,178.186L351.717,178.506L351.933,178.934L352.284,180.555L352.336,180.792L352.883,183.279L353.424,185.764L353.969,188.242L354.512,190.721L355.055,193.196L355.6,195.667L356.141,198.137L356.688,200.602L357.231,203.066L357.774,205.527L358.317,207.984L358.862,210.439L359.407,212.891L359.95,215.339L360.493,217.786L361.036,220.23L356.565,222.71L357.015,223.436L358.155,224.8L359.157,225.997L361.611,229.677L363.874,233.96L365.393,239.245L366.912,244.517L367.336,247.869L367.394,252.024L366.934,255.683L365.969,263.339L366.217,264.604L369.017,272.05L368.985,272.903L368.928,273.093L367.626,277.412L367.305,277.843L366.766,278.137L366.294,278.483L366.355,278.933L366.635,279.417L366.825,279.868L366.672,280.283L365.846,281.197L365.572,281.654L365.319,282.927L365.002,283.778L364.913,284.128L364.903,284.486L366.528,290.235L366.9,292.484L367.085,292.906L367.295,293.1L368.153,293.581L368.456,293.841L368.531,294.15L368.05,296.438L367.994,297.185L368.214,297.782L368.258,298.237L367.457,300.99L367.097,301.422L360.325,304.67L360.301,305.097L360.229,305.462L360.061,305.772L359.407,306.394L359.056,307.243L358.789,307.587L358.315,308.596L358.763,309.783L361.45,313.561L364.377,317.67L366.732,320.968L369.661,325.069L370.398,326.427L370.656,327.772L370.735,330.561L370.82,333.553L370.86,336.486L371.1,337.051L373.954,338.734L374.314,339.306L374.651,341.267L374.891,342.001L375.238,342.391L377.759,344.428L378.118,344.569L378.879,344.492L381.114,343.659L383.235,342.871L383.651,342.823L384.065,342.904L387.722,344.122L392.298,345.642L398.381,347.663L399.175,347.927L399.803,348.27L400.297,348.915L401.626,351.631L403.01,354.459L403.039,354.519L405.19,358.913L406.533,361.648L408,364.634L406.696,365.474L405.39,366.313L404.086,367.151L402.782,367.989L401.476,368.827L400.17,369.664L398.868,370.501L397.562,371.338L396.256,372.175L394.953,373.011L393.647,373.847L392.341,374.685L391.039,375.521L389.733,376.356L388.427,377.191L387.121,378.027L385.817,378.861L384.511,379.695L383.205,380.53L381.901,381.364L380.597,382.197L379.291,383.031L377.989,383.864L376.683,384.697L375.377,385.531L374.073,386.364L372.769,387.196L371.463,388.027L370.158,388.86L368.854,389.691L367.548,390.523L366.244,391.353L364.94,392.185L363.634,393.015L362.33,393.846L361.024,394.677L359.72,395.507L358.416,396.337L357.11,397.166L355.806,397.996L354.502,398.824L353.196,399.653L351.892,400.481L350.588,401.31L349.282,402.137L347.976,402.966L346.672,403.793L345.366,404.621L344.061,405.449L342.755,406.277L341.451,407.102L340.145,407.93L338.841,408.755L337.537,409.581L336.231,410.407L334.925,411.232L333.623,412.058L332.317,412.883L331.011,413.708L329.709,414.533L328.403,415.358L327.097,416.182L325.795,417.007L324.489,417.831L321.976,419.414L320.075,421.075L318.708,422.268L317.338,423.463L315.969,424.655L314.599,425.848L313.113,427.144L312.389,427.796L311.284,428.811L310.075,429.921L308.866,431.03L307.659,432.138L306.448,433.246L305.24,434.354L304.031,435.461L302.82,436.569L301.615,437.675L300.404,438.782L299.195,439.888L297.986,440.993L296.777,442.099L295.568,443.203L294.36,444.308L293.149,445.412L291.94,446.516L290.43,447.892L289.599,448.479L288.737,448.806L286.266,449.308L284.355,449.696L280.156,450.548L275.956,451.402L274.046,451.788L270.427,452.524L266.81,453.258L263.193,453.993L259.576,454.727L256.296,455.373L253.016,456.018L251.171,456.381L249.738,456.662L246.46,457.308L244.451,457.702L244.449,457.702L242.895,458.083L242.403,458.109L242.122,458.065L241.93,457.985L241.48,457.7L240.35,456.578L239.464,456.193L239.058,455.959L238.677,455.665L238.335,455.325L238.013,454.864L237.986,454.498L238.16,454.137L238.444,453.69L238.59,453.294L238.687,453.109L238.945,452.942L239.361,452.506L239.446,452.159L239.542,451.371L239.716,450.999L240.073,450.693L240.479,450.47L240.83,450.193L241.018,449.729L240.968,449.28L240.762,448.953L240.519,448.651L240.35,448.277L240.354,448.084L240.459,447.68L240.471,447.55L240.39,447.373L240.291,447.294L240.188,447.231L240.087,447.109L239.841,446.364L239.819,445.577L240.174,441.47L240.096,441.191L239.829,440.931L239.53,440.784L238.836,440.576L238.519,440.427L237.409,439.537L234.981,438.461L229.723,437.348L228.671,437.304L226.921,436.961L226.713,436.945L226.34,436.86L225.649,436.479L225.276,436.33L224.812,436.224L224.519,436.116L224.295,435.895L223.518,434.461L222.91,433.592L222.202,432.82L221.025,431.877L220.692,431.676L220.339,431.582L219.935,431.655L219.491,431.946L218.71,432.692L218.207,432.916L217.921,432.879L216.715,432.452L216.522,432.33L216.374,432.197L216.211,432.095L215.983,432.064L215.714,432.142L215.389,432.448L215.181,432.551L214.758,432.537L214.614,432.285L214.546,431.898L214.36,431.479L214.061,431.248L213.752,431.226L213.407,431.274L212.991,431.247L212.586,431.055L210.305,429.148L210.115,428.85L210.131,427.317L210.014,426.587L209.625,426.002L208.399,425.054L207.644,424.655L206.936,424.54L206.597,424.316L206.246,424.209L205.473,424.08L204.645,423.821L204.318,423.587L204.023,423.201L203.62,422.488L203.355,422.268L202.907,422.146L202.503,422.155L201.74,422.321L201.333,422.327L200.897,422.268L200.63,422.159L200.489,421.899L200.438,421.39L200.451,420.988L200.878,419.139L201.119,416.894L201.078,416.442L200.721,415.124L200.475,414.708L198.228,413.133L196.565,411.967L194.904,410.801L193.243,409.636L191.581,408.47L189.92,407.302L188.259,406.134L186.597,404.965L184.936,403.797L183.274,402.629L181.615,401.461L179.952,400.291L178.562,399.311L178.29,399.12L176.629,397.949L174.967,396.778L173.305,395.607L171.644,394.435L169.982,393.263L168.321,392.089L166.66,390.914L164.997,389.741L163.335,388.567L161.675,387.393L160.013,386.218L158.352,385.041L156.689,383.864L155.028,382.687L153.368,381.509L151.706,380.333L150.043,379.155L148.383,377.975L146.721,376.795L145.061,375.616L143.398,374.436L141.737,373.255L140.075,372.075L138.414,370.892L136.752,369.709L135.092,368.526L133.43,367.343L131.768,366.16L130.106,364.976L128.445,363.791L126.784,362.605L125.122,361.419L123.46,360.233L121.799,359.047L120.137,357.859L118.477,356.67L116.946,355.578L115.419,354.483L113.891,353.389L112.362,352.296L110.833,351.201L109.304,350.106L107.778,349.01L106.249,347.914L104.721,346.816L103.192,345.719L101.663,344.621L100.135,343.524L98.607,342.426L97.08,341.327L95.551,340.227L94.022,339.127L91.892,337.593L90.429,336.585L88.965,335.578L87.503,334.569L86.04,333.56L86.038,333.559L86.034,333.555Z"/>
</svg>
