<svg xmlns="http://www.w3.org/2000/svg" viewBox="0 0 420 520" aria-label="Map of Egypt">
  <path fill="currentColor" d="M313.832,266.436L314.074,267.165L314.095,268.015L313.641,267.577L313.42,267.076L312.522,265.044L313.024,265.02L313.027,265.022L313.188,265.044ZM325.909,112.544L327.561,116.93L329.559,122.215L330.266,125.212L330.336,126.769L330.531,127.409L331.047,128.115L331.369,128.582L331.362,129.093L331.054,130.217L330.997,130.878L331.067,131.311L331.292,131.665L333.061,133.221L333.42,133.759L334.496,136.857L336.41,142.39L337.667,146.001L337.757,146.211L337.814,146.431L337.834,146.656L337.817,146.886L338.022,148.919L339.443,152.829L340.713,156.342L341.548,160.185L341.488,162.763L341.715,163.655L342.456,165.199L342.736,165.729L342.366,165.925L342.092,166.134L341.86,166.396L341.627,166.745L341.448,167.18L341.342,167.563L341.16,167.857L340.746,168.018L340.859,168.051L340.952,168.054L341.002,168.109L340.986,168.296L340.709,168.436L340.495,168.63L340.416,168.845L340.543,169.057L340.234,169.116L340.091,169.216L340.115,169.36L340.321,169.543L339.944,169.906L339.197,171.089L339.038,171.246L338.69,171.433L338.529,171.573L338.397,171.796L338.294,172.015L338.138,172.215L337.866,172.385L337.866,172.613L338.149,173.126L338.041,173.659L337.787,174.174L337.621,174.645L337.621,176.561L337.447,177.016L337.072,177.359L336.692,177.622L336.518,177.839L336.481,178.361L336.36,178.954L336.156,179.527L335.855,179.992L335.935,180.423L335.855,182.667L335.921,183.024L336.243,183.482L336.315,183.929L336.217,184.363L335.974,184.569L335.679,184.679L334.953,185.151L334.839,185.35L334.744,185.842L334.765,186.068L334.929,186.822L334.966,189.025L334.1,189.655L334.1,189.887L334.195,190.221L334.29,190.724L334.29,191.264L334.1,191.7L334.217,191.831L334.322,191.998L334.523,192.437L334.227,192.635L334.177,192.838L334.248,193.064L334.304,193.332L334.232,193.72L334.082,193.972L333.931,194.157L333.86,194.342L333.686,194.996L332.926,196.073L332.475,197.78L331.171,199.755L330.757,200.81L330.725,200.907L330.728,201L330.691,201.058L330.538,201.037L330.96,202.169L330.569,202.89L329.83,203.445L329.189,204.085L329.284,204.163L329.313,204.179L329.392,204.359L328.951,204.577L328.711,205.062L328.405,206.7L328.286,207.105L327.904,207.721L327.84,207.745L327.74,208.165L327.281,209.075L327.175,209.517L327.207,210.138L327.297,210.617L327.439,211.025L327.619,211.426L327.619,211.655L327.37,212.274L327.637,212.825L328.065,213.331L328.35,213.924L328.653,214.216L328.746,214.418L328.743,214.691L328.658,214.846L328.571,214.953L328.526,215.069L328.5,215.529L328.204,216.82L327.819,217.85L328.379,218.879L327.84,221.469L328.083,221.744L327.239,221.871L326.975,221.995L326.869,222.202L326.769,222.543L326.626,222.857L326.204,223.116L326.006,223.65L325.737,223.771L325.491,223.802L325.043,223.95L324.723,223.999L324.789,224.147L324.795,224.183L324.826,224.196L324.964,224.272L324.721,224.828L324.388,225.938L324.074,226.277L323.852,226.277L323.75,226.083L323.48,225.991L323.267,225.824L323.042,226.046L322.823,226.859L322.525,227.277L322.792,227.729L322.382,228.123L321.746,228.401L321.311,228.506L321.01,228.481L320.923,228.497L321.052,229.073L321.153,229.291L322.324,229.303L322.324,229.53L322.082,229.53L322.082,229.78L322.25,229.931L322.361,230.099L322.525,230.53L322.208,230.369L322.082,230.281L322.126,230.418L322.126,230.485L322.166,230.514L322.324,230.53L322.324,230.803L322.082,230.803L321.923,230.481L321.358,229.717L320.741,229.067L320.464,228.839L320.134,228.671L319.648,228.506L316.523,228.16L315.745,227.653L313.575,225.007L313.409,224.886L313.129,224.913L311.279,223.206L310.865,222.984L310.44,222.957L310.068,223.246L309.619,222.266L309.403,222.494L309.11,222.138L307.983,221.176L307.717,221.046L307.629,220.992L307.508,220.829L307.392,220.515L307.289,220.364L307.065,220.186L306.817,220.082L306.305,219.965L306.323,219.046L304.769,218.081L304.753,217.432L304.296,217.031L303.742,216.277L303.359,215.481L303.425,214.945L303.27,214.828L303.138,214.755L303.032,214.643L302.963,214.418L302.76,214.418L302.76,214.694L302.52,214.694L302.42,214.513L302.135,214.182L302.077,214.065L301.596,212.268L301.422,211.998L301.19,212.159L300.939,211.663L300.176,210.521L299.862,209.919L295.621,207.366L295.413,206.979L295.273,206.929L294.526,205.594L293.9,205.012L293.515,204.566L293.52,204.359L291.446,202.818L291.108,202.46L290.963,202.184L290.86,201.882L290.591,201.423L290.235,201.003L289.857,200.81L290.06,200.535L290.06,200.81L290.298,200.81L290.076,199.594L289.53,199.504L289.256,199.998L289.857,200.535L289.314,200.35L288.965,199.877L288.786,199.196L288.651,197.712L288.443,197.084L287.867,195.971L288.189,195.236L288.612,193.534L288.952,192.689L288.548,192.197L288.363,191.905L288.189,191.161L287.954,190.982L287.669,190.874L287.419,190.667L287.21,189.983L287.107,188.338L286.975,187.863L286.975,187.636L287.258,187.289L287.308,186.969L287.178,186.116L287.112,185.92L286.986,185.386L286.928,184.831L287.081,184.575L287.318,184.33L287.086,183.829L286.711,183.42L286.513,183.448L286.447,183.048L286.252,182.767L285.975,182.66L285.65,182.779L285.313,182.344L284.436,181.867L284.099,181.537L283.695,180.604L283.634,180.385L283.534,180.182L283.061,179.805L282.951,179.625L282.853,179.562L282.309,178.726L282.209,178.657L281.94,178.533L281.845,178.474L281.792,178.365L281.707,178.064L281.644,177.965L280.182,176.443L279.67,176.275L278.947,175.87L278.261,175.368L277.838,174.92L277.662,174.333L277.511,173.566L277.279,172.899L276.854,172.613L276.553,172.494L276.339,172.2L275.682,170.606L275.627,170.58L275.746,169.193L275.622,168.56L274.748,168.136L273.167,166.999L273.415,166.999L273.291,166.733L273.151,166.598L272.977,166.539L272.745,166.49L272.824,166.407L272.911,166.332L272.966,166.205L272.945,165.961L272.745,165.961L272.592,166.279L272.515,166.57L272.563,166.816L272.745,166.999L272.307,166.999L272.55,165.629L272.602,163.885L272.222,162.359L271.198,161.634L271.198,161.402L271.394,160.954L271.367,160.427L271.251,159.876L271.198,159.341L271.277,158.792L271.557,158.029L271.621,157.674L271.597,157.046L271.518,156.643L271.391,156.336L271.198,156.002L270.406,155.02L270.296,154.6L270.148,154.365L269.404,153.594L268.723,153.261L268.886,152.897L269.224,152.55L269.404,152.432L269.398,151.388L268.981,150.659L267.654,149.343L267.941,149.152L268.068,148.976L268.042,148.8L267.857,148.599L268.042,148.53L268.105,148.462L268.042,148.392L267.857,148.322L267.725,148.099L267.572,147.895L267.393,147.715L267.332,147.566L267.369,147.47L267.477,147.392L267.606,147.331L267.857,147.298L267.857,147.068L267.781,146.794L267.781,146.574L267.857,146.254L267.654,146.254L267.234,147.164L267.197,147.563L267.282,147.859L267.461,148.066L267.62,148.338L267.654,148.832L267.414,148.832L267.337,148.358L267.084,148.101L266.72,148.084L266.308,148.322L265.769,148.121L265.136,148.53L264.584,149.22L264.294,149.855L264.257,150.542L264.455,151.099L264.912,151.488L265.643,151.665L265.06,152.143L262.349,155.961L262.188,156.257L261.858,156.616L260.921,158.339L260.731,158.947L260.71,160.491L260.52,161.121L260.069,161.634L260.069,161.911L260.415,162.189L260.781,162.702L261.074,163.227L261.338,164.014L261.692,164.404L263.344,165.479L263.756,165.832L265.247,167.59L266.26,168.202L267.181,169.163L267.968,170.232L268.3,170.962L268.427,171.878L268.754,173.103L269.182,174.247L269.625,174.92L269.625,175.153L269.507,175.817L270.399,179.468L270.488,179.834L270.512,180.638L270.333,180.943L270.011,181.239L269.839,181.668L269.491,181.828L269.377,182.157L269.625,182.55L269.459,183.651L269.404,184.955L269.617,185.356L270.612,186.387L270.955,186.852L271.058,187.244L271.082,187.991L271.198,188.37L271.932,189.179L272.064,189.266L273.415,191.173L274.561,191.375L275.286,192.161L275.732,193.281L277.179,198.763L277.297,199.525L277.643,199.654L279.19,200.535L279.974,201.295L280.367,201.784L280.67,202.445L280.984,202.565L281.349,202.652L281.644,202.827L281.75,203.053L281.971,203.802L282.903,205.606L283.196,205.872L283.204,206.032L283.156,206.077L283.064,206.074L282.951,206.098L284.389,207.285L285.009,208.076L284.964,208.868L285.212,209.075L285.434,209.489L285.592,209.947L285.65,210.272L285.782,210.395L286.513,211.426L288.052,213.075L288.429,213.864L288.754,214.059L289.126,214.218L289.395,214.418L289.551,214.909L289.53,215.316L289.636,215.595L290.179,215.698L290.733,215.981L291.81,217.305L292.515,217.707L292.47,217.938L292.515,218.237L292.515,218.458L292.449,218.76L292.692,218.987L293.077,219.08L293.42,218.984L293.7,219.529L294.412,219.845L295.875,220.239L298.171,222.35L298.912,223.915L299.3,224.272L299.527,224.647L300.234,226.334L300.306,226.776L300.306,227.004L300.464,227.286L300.588,227.998L300.749,228.28L300.749,228.506L300.527,228.506L300.084,228.506L299.712,227.693L298.947,227.229L298.081,226.904L297.405,226.503L297.186,226.503L296.988,227.026L296.904,227.335L296.967,227.604L297.186,228.005L297.804,228.644L298.144,229.099L298.292,229.655L298.501,229.949L298.968,229.807L299.432,229.592L299.641,229.655L299.593,230.154L299.466,230.682L299.253,231.173L298.957,231.554L299.086,231.684L299.261,231.916L299.4,232.031L299.986,232.463L300.195,232.532L300.29,232.676L300.604,233.351L300.749,233.554L300.749,233.804L300.409,233.517L299.641,232.532L299.4,232.532L299.4,232.803L299.514,232.998L299.641,233.328L299.4,233.328L299.197,232.612L298.625,232.672L297.996,233.179L297.645,233.804L298.403,234.2L298.941,234.918L299.862,236.553L299.736,236.785L299.654,237.08L299.612,237.428L299.641,237.824L300.179,238.223L301.596,238.872L302.077,239.321L302.172,239.654L302.214,240.456L302.317,240.82L302.536,241.125L303.085,241.716L303.314,242.078L303.52,242.819L303.758,244.441L303.979,244.946L305.054,245.974L306.305,246.827L307.677,247.492L308.316,247.945L308.738,248.57L308.807,248.952L308.738,250.335L308.664,250.457L308.368,250.7L308.295,250.834L308.316,251.047L308.477,251.365L308.516,251.581L308.548,252.387L308.685,253.011L309.023,253.512L309.633,253.943L310.189,254.467L310.781,255.27L311.018,255.874L310.533,255.809L310.538,256.393L310.765,256.89L311.414,257.797L311.691,258.348L312.1,259.426L312.412,259.92L312.823,260.251L313.293,260.503L313.686,260.777L313.853,261.172L314.066,262.323L314.095,262.903L313.853,263.305L313.32,263.333L312.966,262.996L312.67,262.872L312.301,263.555L312.222,264.035L312.222,264.682L312.285,265.32L312.412,265.798L312.42,266.739L311.778,268.945L312.079,270L312.533,270.381L313.583,270.705L314.095,271.012L314.433,271.519L314.755,272.641L315.808,274.034L316.27,275.028L317.379,278.224L317.859,279.178L318.519,280.192L318.952,281.103L319.735,282.271L322.475,288.611L323.742,290.478L324.964,293.582L327.518,297.14L327.761,297.606L328.078,298.627L330.252,301.879L331.435,303.174L331.704,303.556L334.523,309.155L334.966,310.857L335.753,312.378L336.093,314.211L336.679,315.204L338.086,316.989L338.281,317.437L338.587,318.484L338.788,318.97L339.759,320.466L340.147,321.999L341.648,324.607L344.435,329.457L344.562,330.606L344.908,331.576L345.433,332.21L346.077,332.975L346.183,333.63L346.212,334.966L346.299,335.637L346.481,336.17L346.742,336.57L347.117,336.902L347.629,337.233L348.468,338.01L349.028,339.035L349.782,341.838L349.962,342.306L350.527,343.238L351.144,344.371L351.607,344.773L351.619,345.348L351.094,346.446L351.097,347.426L352.432,347.944L354.045,350.991L358.428,354.338L359.117,355.168L360.31,358.611L361.189,359.57L362.424,361.35L362.965,361.267L362.724,360.774L362.422,360.281L362.751,360.226L363.409,360.91L364.313,361.293L365.49,362.524L365.956,363.509L366.038,364.549L367.023,365.151L368.035,364.96L368.829,365.179L369.677,365.453L370.361,365.81L370.853,366.33L371.537,367.918L372.111,368.685L371.892,369.013L371.4,368.328L370.743,367.616L370.278,367.588L369.101,368.133L368.608,368.379L367.952,368.104L367.351,367.859L366.749,367.75L366.312,367.804L365.82,367.722L365.218,367.476L364.999,367.176L364.628,366.737L364.293,366.623L364.264,366.443L363.768,366.219L363.076,366.03L362.784,366.247L362.34,367.078L362.101,368.135L362.321,369.83L362.022,371.307L361.806,372.386L362.08,373.287L362.68,373.421L362.953,373.858L362.927,374.377L362.823,374.63L362.873,375.223L362.9,375.633L362.956,376.424L362.804,377.891L362.743,380.964L362.672,381.52L362.355,382.503L362.282,383.038L362.408,383.556L362.709,384.091L363.408,385.091L363.965,386.13L364.166,386.68L364.293,387.262L364.256,388.933L364.511,390.633L364.81,391.927L365.046,393.086L366.551,395.671L367.008,396.672L367.639,397.982L368.067,401.194L368.301,401.757L368.958,402.972L370.313,404.667L371.176,405.144L370.785,404.597L369.869,402.981L370.503,403.001L370.917,403.318L371.199,403.833L371.418,404.445L371.767,406.175L371.864,406.454L372.395,406.828L372.664,407.223L372.894,407.661L373.313,408.156L373.895,408.924L375.141,409.884L376.315,410.361L376.9,410.554L376.995,410.689L377.407,410.981L377.85,411.21L378.333,411.357L380.138,411.484L382.751,411.993L385.253,412.837L386.171,413.408L387.747,414.921L388.262,415.77L388.451,417.392L389.004,418.459L389.969,419.318L390.985,420.085L391.484,420.314L391.966,420.52L391.862,419.969L392.034,419.969L392.723,420.76L392.552,421.757L393.103,423.201L395.304,424.196L396.37,424.815L397.092,425.296L399.053,426.947L401.985,429.765L402.603,430.098L403.083,430.051L403.205,429.842L403.268,429.624L403.384,429.492L403.645,429.561L404.207,429.928L404.471,430.168L404.643,430.407L405.089,431.459L405.374,431.876L405.862,432.33L407.117,433.091L407.877,433.37L408,434.64L407.976,435.072L407.762,435.448L407.501,435.801L407.496,435.834L399.915,435.834L392.371,435.836L384.826,435.838L377.278,435.838L369.733,435.838L362.185,435.839L354.64,435.839L347.095,435.839L339.55,435.839L332.002,435.841L324.457,435.843L316.912,435.843L316.709,435.843L316.448,435.843L309.364,435.843L301.82,435.843L294.273,435.843L287.423,435.845L286.73,435.845L286.696,435.845L283.41,435.845L280.092,435.845L276.77,435.845L273.452,435.845L270.129,435.845L266.807,435.845L266.129,435.845L263.487,435.845L260.169,435.845L256.847,435.845L253.529,435.845L250.208,435.845L246.889,435.845L243.568,435.845L240.249,435.845L236.928,435.845L233.61,435.845L232.732,435.845L230.811,435.847L231.847,432.74L232.597,430.497L232.638,429.622L232.349,428.843L231.635,428.141L231.039,427.837L230.415,427.739L229.792,427.851L229.185,428.177L228.347,429.1L226.884,432.105L226.772,432.335L225.173,435.622L224.744,435.881L223.502,435.881L220.35,435.881L217.193,435.879L214.034,435.877L210.875,435.877L207.721,435.877L204.563,435.877L201.406,435.877L198.252,435.877L195.098,435.876L191.941,435.876L188.778,435.876L185.626,435.876L182.469,435.876L179.315,435.874L176.161,435.872L173.003,435.872L169.846,435.872L166.688,435.872L163.529,435.87L160.377,435.87L157.223,435.87L154.066,435.87L150.908,435.87L147.754,435.868L144.597,435.866L141.44,435.866L138.282,435.866L135.123,435.866L131.971,435.866L128.814,435.866L125.655,435.865L122.502,435.865L119.345,435.865L116.188,435.863L113.03,435.861L109.876,435.861L106.719,435.861L103.562,435.861L100.404,435.861L97.247,435.861L94.093,435.859L90.935,435.859L87.778,435.859L84.624,435.859L81.467,435.859L78.313,435.857L75.155,435.856L71.998,435.856L68.841,435.856L65.687,435.856L62.533,435.854L59.375,435.854L56.221,435.854L53.061,435.852L49.903,435.85L46.749,435.85L43.595,435.85L40.438,435.85L37.282,435.848L34.128,435.848L30.968,435.848L27.81,435.848L24.653,435.848L21.499,435.847L21.499,425.629L21.499,415.391L21.499,405.131L21.499,394.847L21.499,384.544L21.499,374.215L21.499,363.863L21.499,353.489L21.499,343.093L21.499,332.669L21.499,322.22L21.499,311.748L21.499,301.254L21.499,290.729L21.499,280.177L21.499,269.601L21.499,262.502L21.499,255.616L21.499,252.381L21.499,240.066L21.499,234.493L21.499,233.077L21.499,220.165L21.499,217.293L21.499,202.751L21.499,188.014L21.499,181.795L21.499,177.213L21.274,175.074L20.701,173.076L18.013,166.539L17.691,165.251L17.618,163.81L17.909,161.108L17.912,160.2L17.443,158.665L15.781,155.853L15.563,154.297L16.106,152.348L16.146,151.606L15.999,150.766L13.207,143.746L12.292,142.088L12,141.28L12.01,139.832L12.53,138.513L13.874,136.079L14.417,134.79L14.725,134.265L15.603,133.145L16.585,132.141L18.479,129.253L19.112,127.961L19.417,126.689L19.525,125.94L20.507,123.345L20.849,121.27L21.251,119.762L21.737,118.467L21.941,117.164L21.499,115.642L20.084,112.606L19.662,110.678L18.526,108.33L18.301,107.564L17.55,103.517L17.52,100.41L17.199,97.218L17.209,95.828L17.607,94.623L22.876,90.288L24.066,87.056L24.975,85.755L27,84.119L26.953,84.409L27.354,86.896L27.713,88.113L28.299,88.878L29.001,89.073L30.65,89.175L31.904,89.827L32.574,89.832L34.058,89.609L34.369,89.706L34.744,89.881L35.14,89.956L35.734,89.612L36.533,89.405L37.475,89.296L42.748,87.766L48.832,85.701L50.283,85.474L53.461,85.638L66.282,89.242L75.638,90.503L76.176,90.801L76.691,90.98L78.306,90.866L78.963,90.932L81.283,92.06L82.613,92.477L84.102,92.49L85.279,92.044L85.849,91.99L86.403,92.36L86.852,92.787L87.179,92.926L87.48,92.948L87.844,93.031L88.731,93.549L90.774,94.24L92.969,94.472L93.777,94.709L94.305,95.106L94.505,94.931L94.817,94.738L94.949,94.588L95.334,94.636L97.366,94.599L97.588,94.667L97.825,94.821L98.068,95.084L98.058,95.22L97.997,95.359L98.068,95.625L98.311,96.107L98.459,96.317L98.622,96.404L98.717,96.516L98.765,97.086L98.852,97.309L99.082,97.735L99.404,98.87L99.731,99.393L100.507,100.057L101.441,100.588L102.47,100.94L104.497,101.25L105.305,101.583L106.028,101.73L106.746,101.347L108.382,102.217L110.301,101.875L114.07,100.029L114.626,99.94L114.964,100.196L115.133,100.733L115.178,101.477L115.27,101.787L115.84,103.158L115.97,104.4L116.062,104.712L117.028,105.294L118.59,105.519L124.41,105.51L124.79,105.607L125.083,105.829L125.341,106.079L125.605,106.264L126.009,106.374L126.973,106.264L127.711,106.345L129.097,106.698L129.723,106.78L130.38,106.616L131.789,105.911L132.531,105.769L133.159,105.885L133.739,106.151L134.243,106.513L134.631,106.921L134.916,107.082L136.072,107.063L136.508,107.146L136.854,107.282L137.397,107.578L143.159,109.645L144.312,110.302L144.945,110.569L145.732,110.678L145.927,110.89L146.151,111.9L146.278,112.25L146.5,112.416L147.104,112.599L152.739,115.58L157.964,115.347L158.928,115.165L163.364,113.01L168.149,110.681L169.87,109.387L171.224,108.683L171.408,108.588L171.643,108.214L171.891,107.935L176.668,104.441L177.172,103.442L178.075,103.654L179.017,103.207L180.516,101.865L180.226,101.435L180.102,101.463L179.833,101.606L180.015,101.222L180.268,100.954L180.521,100.946L180.719,101.347L180.957,101.347L181.329,100.934L182.839,99.569L183.285,99.276L183.712,99.069L184.359,98.164L184.623,97.957L185.071,97.869L185.327,97.661L185.541,97.405L185.85,97.179L185.747,97.137L185.66,97.137L185.61,97.086L185.628,96.896L186.515,96.404L186.42,97.49L187.336,98.222L187.452,98.257L188.669,98.629L189.856,98.759L189.59,98.927L189.223,99.35L188.951,99.511L188.93,99.702L188.977,99.758L189.078,99.759L189.191,99.795L188.803,100.056L188.919,100.35L189.273,100.628L189.616,100.832L190.965,100.029L190.798,100.463L190.978,100.676L191.258,100.733L191.408,100.702L191.535,100.449L192.514,99.511L192.604,99.693L192.627,99.708L192.736,99.795L192.815,99.575L192.883,99.449L192.941,99.295L192.976,98.992L193.179,98.992L193.163,99.4L193.229,99.708L193.385,99.917L193.622,100.029L193.752,99.778L194.084,98.759L193.585,98.501L193.126,98.612L192.646,98.856L192.07,98.992L192.07,98.759L192.171,98.74L192.408,98.773L192.514,98.759L192.514,98.499L191.991,98.662L190.078,98.759L190.078,98.499L191.281,98.189L192.421,97.545L194.403,95.755L195.105,94.599L195.557,93.067L195.686,91.475L195.412,90.152L195.633,90.152L195.794,90.881L196.082,91.593L196.531,92.103L197.185,92.23L196.277,91.535L195.794,90.414L196.003,89.744L197.185,90.412L198.061,91.079L199.059,91.494L200.231,91.627L201.635,91.45L206.198,90.222L215.842,86.775L215.842,87.035L215.351,87.105L212.355,88.239L209.848,89.683L208.13,90.505L206.744,91.45L206.562,91.535L206.119,91.61L205.857,91.71L204.628,92.573L204.063,92.77L202.775,92.867L202.495,93.031L202.35,93.034L201.857,93.786L201.857,94.069L202.524,94.249L202.754,94.254L202.96,94.069L203.181,94.069L203.672,94.358L204.583,94.308L205.462,94.036L205.857,93.668L206.15,93.057L206.8,93.235L207.478,93.798L207.853,94.328L208.074,94.328L208.28,93.668L208.782,93.003L209.381,92.477L209.864,92.23L210.154,92.111L210.513,92.278L210.935,92.558L211.416,92.77L211.722,92.731L212.139,92.61L212.593,92.566L212.983,92.77L212.883,92.808L212.793,92.807L212.746,92.852L212.762,93.031L213.2,93.152L213.751,92.972L214.303,92.621L214.733,92.23L214.654,92.19L214.575,92.196L214.525,92.162L214.535,91.992L214.646,91.911L214.662,91.877L214.667,91.832L214.733,91.71L215.844,92.202L216.063,92.49L216.364,92.233L216.588,91.935L216.95,91.166L216.76,90.85L216.873,90.599L217.393,90.152L217.488,89.922L217.454,89.727L217.443,89.55L217.634,89.372L217.821,89.327L219.001,89.417L219.307,89.535L219.848,89.892L219.935,90.036L219.924,90.213L219.982,90.361L220.291,90.412L220.552,90.338L220.75,90.16L220.88,89.906L220.291,89.609L220.5,89.466L220.695,89.395L220.917,89.429L220.291,88.564L218.985,87.588L217.441,86.918L215.976,86.868L216.285,86.692L217.09,86.388L219.848,85.97L220.861,86.083L223.854,87.035L228.037,88.948L228.966,89.372L230.296,90.412L233.672,91.99L234.746,92.23L235.226,92.215L236.063,92.187L240.956,90.776L243.862,89.112L245.044,88.722L246.295,88.748L247.33,89.279L247.794,90.291L247.958,90.745L248.982,92.139L249.412,93.224L249.926,93.875L250.966,94.821L251.309,94.976L252.101,95.154L252.159,95.181L252.5,95.341L253.307,96.255L253.505,96.404L253.972,96.62L255.263,97.646L255.59,97.862L254.598,97.647L251.391,95.625L251.573,95.643L251.716,95.625L251.803,95.671L252.056,95.885L251.977,95.608L251.827,95.441L251.6,95.362L250.935,95.288L250.787,95.152L250.702,94.979L250.544,94.821L249.681,94.351L249.333,94.055L249.198,94.069L248.955,94.069L248.858,93.554L248.654,93.104L248.39,92.742L248.09,92.49L248.512,92.49L248.908,92.44L247.274,90.394L246.926,89.781L246.459,89.163L246.089,88.949L246.079,89.112L245.535,88.857L245.324,88.991L245.192,89.372L244.748,89.112L244.741,89.234L244.764,89.493L244.748,89.609L244.632,89.53L244.408,89.448L244.284,89.372L244.297,89.671L244.236,89.883L244.083,90.152L244.748,90.152L244.569,90.575L245.065,91.47L244.97,91.992L245.192,91.992L245.192,92.23L244.97,92.23L245.041,92.399L245.144,92.58L245.192,92.77L244.97,92.77L244.859,92.306L244.645,91.955L244.316,91.744L243.862,91.71L243.983,91.426L243.854,91.388L243.619,91.642L243.418,92.23L243.619,92.259L243.727,92.213L243.862,91.992L244.091,92.174L244.273,92.245L244.527,92.23L244.527,92.49L244.284,92.49L244.284,92.77L244.411,92.997L244.598,93.155L244.851,93.248L245.192,93.266L244.962,93.504L244.632,93.588L244.31,93.51L244.083,93.266L243.862,93.266L243.883,93.466L243.822,93.51L243.724,93.504L243.619,93.549L243.767,93.659L243.883,93.783L244.083,94.069L243.629,94.645L243.537,95.079L243.83,95.325L244.527,95.341L244.527,95.625L244.094,95.542L243.74,95.399L243.445,95.372L243.175,95.625L242.975,95.625L242.758,95.395L242.542,95.415L242.381,95.64L242.315,96.025L242.447,96.215L242.674,96.351L242.722,96.487L242.315,96.663L242.315,96.896L242.5,97.258L242.273,97.392L241.903,97.485L241.629,97.721L241.56,98.257L241.764,98.591L242.12,98.685L242.468,98.521L242.516,98.499L242.452,98.433L242.41,98.416L242.368,98.379L242.315,98.24L242.774,98.435L242.996,98.483L243.299,98.499L243.561,98.657L243.614,99.007L243.616,99.353L243.74,99.511L244.104,99.611L244.611,99.861L245.097,100.205L245.413,100.572L245.662,99.954L245.83,99.699L246.079,99.511L245.944,99.863L245.896,100.1L245.941,100.307L246.079,100.572L245.635,100.572L245.635,100.832L246.079,100.832L245.973,100.915L245.881,100.974L245.825,101.092L245.857,101.347L246.01,101.322L246.1,101.254L246.174,101.162L246.295,101.065L246.337,101.128L246.327,101.222L246.364,101.307L246.517,101.347L246.517,101.065L246.738,101.065L246.577,101.602L246.733,101.961L247.002,101.939L247.182,101.347L247.559,101.295L248.066,100.755L248.683,100.319L249.42,100.572L248.955,100.572L248.955,100.832L249.42,101.065L249.507,100.907L249.71,100.745L249.858,100.572L250.322,100.832L250.322,101.065L250.188,101.233L250.132,101.359L250.08,101.865L250.441,101.699L250.544,101.606L250.491,101.926L250.428,102.138L250.312,102.279L250.08,102.384L250.08,102.62L250.299,102.943L250.314,103.352L249.641,103.935L249.641,104.194L249.99,104.209L250.259,104.132L250.449,103.96L250.544,103.676L250.745,103.676L250.787,104.077L250.816,104.168L250.887,104.387L251.082,104.599L251.391,104.712L251.391,104.995L251.061,105.082L250.824,105.228L250.663,105.452L250.544,105.769L250.708,105.843L250.966,106.028L251.278,105.828L251.568,105.774L251.835,105.848L252.056,106.028L252.056,106.264L251.835,106.264L251.835,106.546L252.159,106.827L252.571,107.023L253.004,107.04L253.402,106.78L253.402,106.546L252.927,106.533L252.603,106.287L252.402,105.911L252.296,105.51L252.782,105.615L253.437,105.949L253.743,106.005L253.864,106.028L253.605,105.51L254.123,105.492L254.289,105.51L254.289,105.228L254.144,105.191L254.115,105.162L254.123,105.106L254.075,105.008L254.123,104.965L254.511,104.712L254.529,104.941L254.622,104.988L254.767,104.971L254.954,104.995L254.827,104.582L255.081,104.313L255.437,104.28L255.791,104.909L256.205,105.06L256.712,105.072L257.168,104.995L257.947,104.542L258.311,103.873L258.216,103.175L257.63,102.62L258.409,102.592L258.438,102.6L258.517,102.62L258.678,101.492L258.689,100.961L258.517,100.313L257.971,99.616L257.892,99.285L258.295,98.992L257.807,98.713L257.121,98.462L256.458,98.356L256.063,98.499L255.833,97.862L256.237,97.911L256.664,97.945L257.44,98.1L258.863,98.379L259.296,98.711L259.499,98.711L259.866,98.759L259.945,99.393L260.283,99.88L260.766,100.199L261.763,100.463L262.135,100.819L262.745,101.606L264.123,102.945L264.724,103.406L265.643,104.995L266.495,105.764L267.464,106.373L268.567,106.715L268.628,106.735L270.053,106.78L271.415,106.604L273.83,105.969L276.709,104.545L277.268,104.111L278.604,103.432L278.968,103.158L279.19,103.158L279.19,103.442L278.155,103.841L276.347,105.211L275.294,105.51L273.521,106.342L270.734,107.063L272.307,107.063L272.307,107.319L271.842,107.578L272.835,107.576L273.209,107.43L273.415,107.063L273.616,107.063L273.642,107.282L273.748,107.317L273.89,107.29L274.075,107.319L276.07,106.028L277.749,105.501L278.081,105.228L278.282,105.228L278.419,105.43L278.881,105.552L278.773,105.738L278.525,105.769L278.525,106.028L278.865,105.908L279.633,105.51L279.633,105.228L278.746,105.228L278.746,104.995L279.184,104.81L279.733,104.958L280.235,105.316L280.536,105.769L280.615,105.982L280.683,106.354L280.742,106.546L280.293,106.546L281.37,106.94L281.871,106.912L282.309,106.546L282.309,106.264L282,106.083L281.845,106.028L281.845,105.769L283.101,105.442L283.412,105.228L283.251,104.943L283.323,104.669L283.497,104.351L283.634,103.935L283.412,103.935L283.204,104.192L282.531,104.712L282.428,104.85L282.32,104.965L282.32,105.082L282.531,105.228L282.098,105.328L281.359,105.316L280.594,105.202L280.071,104.995L281.05,104.897L281.607,104.317L282.016,103.554L282.531,102.902L282.921,102.711L283.724,102.569L284.099,102.384L284.721,101.788L285.096,101.603L285.65,101.606L285.65,101.865L284.748,101.865L284.748,102.101L285.152,102.402L286.315,103.935L286.664,104.581L286.529,104.789L286.12,104.894L285.65,105.228L285.611,105.134L285.611,105.034L285.571,104.971L285.408,104.995L285.408,105.228L285.951,105.607L286.242,106.096L286.228,106.675L285.872,107.319L287.033,106.847L287.635,106.709L288.065,106.78L288.284,106.733L288.437,106.735L288.73,106.78L288.73,106.546L288.287,106.264L288.065,106.264L288.065,106.546L287.867,106.546L287.867,106.264L289.588,105.589L290.06,105.228L290.298,105.228L290.06,105.51L290.298,105.769L290.538,105.556L290.805,105.533L291.034,105.695L291.166,106.028L291.406,106.028L291.435,105.707L291.425,105.325L291.383,105.265L291.85,105.228L291.541,105.063L291.219,105.109L290.913,105.072L290.538,104.995L294.083,104.712L293.798,104.024L294.217,103.886L294.729,103.845L294.729,103.158L295.08,103.334L295.191,103.442L295.413,103.442L295.848,103.318L297.141,103.998L297.748,104.194L300.116,104.441L300.749,104.712L300.749,104.451L301.485,104.675L302.562,104.604L309.255,102.852L315.505,100.361L320.416,97.17L320.474,97.133L321.263,98.596L321.451,99.222L322.033,101.034L322.366,102.069L323.643,106.061L324.665,109.251ZM360.328,401.345L353.287,408.105L357.622,404.045L362.192,399.761L366.551,395.671ZM339.195,418.173L340.839,414.411L341.932,411.835ZM330.249,426.507L336.099,425.253L327.689,426.96L318.762,428.969L324.391,427.763ZM315.642,240.82L315.642,241.046L315.412,241.011L314.987,240.942L314.402,240.267L314.209,240.044L313.52,239.822L313.203,239.631L312.895,239.256L312.565,239.009L312.562,239.009L311.831,239.363L311.53,239.117L311.303,238.687L311.177,238.301L311.359,238.064L311.572,237.914L311.81,237.839L312.079,237.824L312.815,237.921L313.069,238.085L313.354,238.269L313.615,238.501L313.781,238.646L314.193,238.823L314.903,239.095L315.112,239.717L315.225,240.389ZM335.441,223.409L336.089,222.363L337.714,222.42L337.723,223.822L336.832,224.211L336.065,223.961ZM334.1,223.771L332.86,223.86L331.725,223.796L330.78,223.402L330.134,222.568L330.076,222.494L330.123,221.995L330.012,221.279L329.854,220.992L329.967,220.817L330.012,220.781L330.015,220.786L330.076,220.992L330.078,220.986L330.194,220.706L330.353,220.482L330.543,220.327L330.757,220.239L330.759,220.24L331.324,220.544L331.509,220.732L331.627,220.992L330.786,221.164L330.416,221.352L330.297,221.744L330.45,221.905L330.58,222.041L331.129,222.099L332.073,221.942L332.483,221.797L332.554,221.869L332.622,221.871L332.776,222.113L332.918,222.39L332.955,222.494L332.958,222.497L333.48,222.954L334.1,223.497ZM281,105.64L281.127,105.877L281.201,106.264L280.852,105.951L280.742,105.769L280.567,105.766L280.805,105.589ZM296.284,103.186L291.235,100.983L290.298,100.832L291.314,100.866L292.982,101.662L293.742,101.865L294.716,102.057L295.59,102.527L296.983,103.676ZM289.446,100.736L288.443,100.546L287.479,100.406L286.513,100.264L285.408,100.572L284.874,100.454L284.027,100.758L280.119,102.865L279.432,103.442L279.813,102.86L280.567,102.49L281.195,102.148L281.597,101.912L282.029,101.592L283.718,100.807L284.099,100.44L284.946,99.94L290.06,100.572L289.855,100.736Z"/>
</svg>
