<svg xmlns="http://www.w3.org/2000/svg" viewBox="0 0 420 520" aria-label="Map of Eritrea">
  <path fill="currentColor" d="M407.634,411.861L394.79,417.405L394.185,417.464L393.452,416.879L392.927,416.814L391.937,417.687L390.563,420.963L387.985,423.41L388.193,425.212L388.742,427.111L388.4,428.74L387.661,429.137L385.896,429.472L385.395,430.016L384.589,431.182L382.723,431.708L382.445,431.786L381.663,432.924L372.402,424.68L369.69,423.463L368.084,423.038L367.045,423.222L364.003,426.516L361.181,423.516L356.362,416.945L352.507,410.338L349.691,407.897L346.405,406.043L343.033,404.646L338.421,401.664L335.331,397.31L330.737,387.311L328.856,384.168L326.846,381.513L324.543,379.108L320.035,375.378L313.841,370.249L303.579,363.656L295.607,358.529L293.824,356.75L289.646,349.31L285.052,341.136L278.797,333.985L272.615,326.915L269.018,324.331L265.004,322.816L259.666,322.049L257.998,321.507L251.731,318.476L248.292,316.686L244.275,312.936L239.746,308.706L237.419,307.311L234.859,306.26L229.551,304.959L228.507,304.972L225.587,305.841L224.744,305.863L223.362,305.614L222.178,305.401L221.097,305.677L219.277,307.229L218.122,307.557L217.004,307.364L216.107,306.934L212.997,304.217L211.366,303.18L209.595,302.59L207.714,302.655L206.999,302.777L204.323,303.234L202.741,303.09L199.699,302.171L199.363,301.992L199.003,301.644L197.8,300.177L196.902,299.421L195.729,298.755L194.709,298.741L194.245,299.962L193.194,301.387L190.781,302.57L185.937,303.925L184.813,303.992L181.612,303.474L180.14,303.71L179.34,304.444L178.051,306.517L176.573,306.533L175.351,304.273L173.635,299.21L172.822,297.902L171.802,296.641L170.611,295.547L169.322,294.731L168.73,294.491L167.044,294.103L164.93,293.858L164.845,293.647L164.081,294.4L163.99,295.416L164.081,296.557L163.904,297.682L163.067,298.784L161.858,299.546L159.396,300.702L157.447,302.5L156.354,303.269L153.721,303.524L150.197,304.991L149.073,305.259L147.979,305.36L146.904,305.253L145.829,304.89L144.675,304.852L141.016,306.759L138.817,307.348L134.303,307.869L131.389,307.847L130.888,307.99L130.393,307.937L129.66,307.38L129.343,306.833L128.946,305.514L128.469,305.06L125.299,303.329L124.376,302.601L123.686,301.701L123.204,300.628L122.642,298.31L122.263,297.524L121.646,297.053L120.956,296.668L120.394,296.139L120.101,295.541L119.813,293.861L119.696,293.57L119.325,292.649L118.72,291.906L117.81,291.53L116.411,291.441L113.045,292.026L111.976,291.827L105.563,289.176L105.074,288.778L104.738,288.176L104.695,287.641L104.567,287.164L103.987,286.722L103.321,286.61L103.064,286.316L102.936,285.909L102.71,285.466L102.673,285.277L102.692,284.631L102.661,284.381L102.453,284.173L101.879,284.106L101.623,283.89L100.493,281.65L99.778,280.598L98.752,279.692L96.339,285.541L92.497,294.81L88.691,303.996L84.983,312.94L81.587,321.128L79.455,326.262L78.789,326.944L77.727,326.253L77.11,325.522L76.835,324.509L76.768,322.952L76.59,322.369L76.132,321.907L75.528,321.605L74.917,321.495L74.159,321.21L73.805,320.524L73.506,318.999L73.072,317.854L72.815,317.49L70.427,315.476L69.572,314.98L69.407,314.33L69.437,312.94L69.352,312.031L69.126,311.537L68.222,310.631L65.986,307.377L64.868,306.719L63.427,305.48L62.614,305.601L61.325,306.049L56.952,305.961L54.912,306.426L53.22,307.714L52.322,309.032L51.845,310.235L51.644,311.478L51.607,312.94L51.442,314.218L50.996,315.224L50.361,315.982L49.622,316.499L49.164,316.59L48.089,316.458L47.606,316.499L46.745,317.216L46.396,317.332L45.792,317.276L45.279,317.109L44.814,316.847L44.344,316.499L43.275,315.027L42.927,314.797L40.966,314.535L37.112,313.391L35.212,313.129L31.174,313.129L30.6,313.268L29.641,313.862L29.14,314.001L26.477,314.001L25.292,314.196L23.465,315.059L22.647,315.249L21.389,315.284L20.393,315.517L19.648,316.136L19.214,317.332L18.072,317.31L16.765,306.096L15.873,298.533L14.975,290.862L14.279,284.936L13.881,281.555L12.678,271.306L12,265.499L12.086,264.156L12.562,263.089L16.911,258.835L17.986,257.146L20.979,248.228L22.134,246.334L24.07,245.028L23.258,242.352L23.411,239.759L26.617,228.001L27.344,226.646L30.264,223.603L31.852,220.977L34.687,212.876L37.356,205.23L39.323,199.619L40.282,198.009L42.756,195.433L43.361,193.867L43.202,192.556L42.127,190.061L41.821,188.766L41.907,187.451L42.114,186.346L42.145,185.258L41.768,184.19L41.705,184.013L40.868,182.882L39.94,181.888L39.17,180.799L38.767,179.372L38.81,178.525L39.537,176.065L39.714,174.873L39.604,172.862L39.702,171.769L40.239,170.605L41.137,169.789L43.086,168.377L43.721,167.525L45.175,163.819L45.401,160.125L45.511,159.85L45.938,159.356L46.048,159.101L45.975,158.74L45.627,158.185L45.547,157.949L45.657,155.469L45.511,154.683L44.998,153.92L44.381,153.314L44.179,152.646L45.615,150.571L45.889,149.376L45.676,148.195L44.503,146.553L44.368,146.003L44.49,145.51L44.497,145.483L44.888,145.019L46.091,144.86L47.032,145.278L47.924,145.898L48.98,146.332L50.501,146.594L51.112,146.821L53.397,148.233L53.983,148.332L57.19,147.808L58.07,147.939L59.859,147.824L62.669,146.074L64.374,145.927L69.908,147.498L73.237,143.492L73.726,142.259L74.007,140.878L75.301,138.551L75.674,137.285L75.949,134.705L75.894,133.579L75.234,130.745L75.381,130.038L76.016,129.648L83.841,127.2L86.229,126.864L88.642,125.6L91.214,120.939L93.279,119.822L94.482,120.158L96.253,121.874L97.603,122.29L99.014,121.964L100.175,121.067L102.026,118.669L106.019,115.966L106.076,115.927L107.462,115.418L108.818,115.425L109.374,116.043L109.435,117.074L109.35,118.314L109.686,119.652L110.571,119.643L111.549,118.788L112.166,117.603L112.184,116.952L112.031,116.526L111.958,116.132L112.227,115.578L112.575,115.521L114.658,114.851L115.617,115.457L116.515,116.376L117.559,117.023L118.958,116.812L119.954,115.812L120.107,114.585L120.033,113.272L120.333,112.048L121.353,111.103L124.285,109.67L125.482,108.737L127.113,106.077L130.674,96.57L132.311,94.163L140.721,87.076L140.846,87.726L141.399,88.403L141.832,90.322L144.347,93.901L144.545,94.523L144.617,95.796L144.751,96.446L145.819,97.972L146.002,98.33L146.291,99.386L151.841,107.933L155.973,117.583L160.075,124.778L161.509,130.034L162.182,131.268L161.47,133.671L162.567,135.537L164.183,137.231L165.005,139.124L165.308,141.515L165.813,143.593L167.574,147.238L167.834,148.43L168.031,150.938L168.339,152.195L169.262,153.99L169.589,156.501L169.883,157.519L171.83,162.018L173.115,166.828L172.307,166.406L173.485,169.16L173.807,170.516L173.923,172.306L172.831,173.465L173.783,176.276L173.519,177.856L173.115,177.435L173.187,178.393L173.764,178.659L174.413,178.677L174.731,178.887L174.644,181.032L174.731,181.604L174.947,182.168L175.207,182.642L175.438,183.178L175.534,183.941L175.452,186.378L175.534,187.15L175.741,187.719L176.275,188.699L176.376,189.463L176.289,190.218L175.928,191.741L175.938,192.618L177.747,200.653L177.992,203.372L178.194,204.304L179.574,207.362L181.652,215.368L182.797,217.508L186.327,219.688L186.875,220.641L187.342,221.048L189.506,222.028L190.098,222.546L190.127,223.34L189.838,224.008L189.473,224.622L189.29,225.272L189.478,225.994L190.314,226.909L190.502,227.386L190.589,229.02L190.916,230.004L192.513,231.808L191.493,231.9L190.791,232.502L190.545,233.396L190.906,234.358L191.156,233.833L191.695,233.206L192.339,232.942L192.926,233.481L192.801,234.642L191.656,235.197L190.329,235.364L189.694,235.369L189.829,235.948L190.906,237.671L191.175,239.738L191.31,240.184L192.147,240.501L193.518,240.619L194.816,240.461L195.379,239.975L195.826,239.253L196.88,239.099L198.077,239.338L198.972,239.768L200.401,241.694L203.488,251.738L203.734,251.962L204.845,252.384L205.095,252.593L205.23,253.668L205.581,254.688L206.095,255.555L206.721,256.166L205.84,259.506L205.537,264.758L205.667,265.007L206.22,265.406L206.355,265.633L206.562,266.567L207.125,267.05L207.894,267.082L208.731,266.656L209.318,267.8L209.996,267.976L210.924,267.698L212.218,267.493L212.627,267.184L212.954,266.47L213.098,265.7L213.012,265.192L212.714,264.624L212.94,264.228L213.656,263.732L214.782,261.704L214.907,260.513L213.724,258.439L213.084,255.981L212.598,255.104L211.814,255.091L211.338,256.036L210.944,256.56L210.424,255.293L210.28,254.102L210.424,250.935L210.347,250.252L210.049,249.089L209.982,248.406L210.116,247.658L210.443,247.413L210.838,247.293L211.184,246.922L211.578,244.826L211.973,244.215L212.81,244.829L213.214,244.829L213.272,244.339L213.656,243.157L214.012,243.157L214.036,243.351L214.012,243.955L214.666,243.436L215.45,242.124L215.999,241.442L216.869,243.029L218.052,244.305L223.675,248.99L224.541,249.434L225.902,249.733L226.373,249.902L226.965,250.272L227.653,250.845L228.095,251.459L228.288,252.102L228.177,252.78L227.749,253.508L226.691,254.358L226.162,254.912L225.839,255.495L224.945,257.801L225.604,257.741L226.104,257.888L226.446,258.27L226.561,258.903L226.417,259.085L225.811,259.316L225.719,259.511L225.825,259.775L226.104,260.019L226.162,260.176L226.474,260.685L227.86,261.724L228.177,262.252L228.345,263.032L229.115,264.619L229.389,265.406L229.355,266.089L229.192,266.888L229.134,267.683L229.389,268.367L230.125,268.099L230.933,268.27L231.582,268.734L231.842,269.354L231.957,269.864L232.217,269.979L232.491,270.041L232.655,270.417L232.621,270.975L232.289,271.891L232.212,272.319L232.794,273.41L234.165,274.107L238.537,275.673L239.485,276.143L239.918,276.494L240.322,277.616L241.207,277.407L242.553,276.267L243.891,275.745L244.824,274.52L245.579,273.136L246.411,272.125L246.334,273.096L246.545,273.94L247.094,274.396L248.061,274.216L248.373,273.679L248.239,272.982L248.354,272.384L249.417,272.125L250.052,272.088L250.23,272.05L250.845,272.506L250.749,272.715L250.624,273.146L250.744,273.567L251.466,273.761L251.894,273.94L252.072,274.301L252.303,274.615L252.866,274.635L253.255,274.448L253.601,274.127L253.89,273.753L254.116,273.38L253.818,272.887L253.688,272.399L253.674,271.254L254.005,271.557L254.289,272.22L254.52,272.506L256.127,272.924L256.271,273.445L256.223,273.977L256.228,274.52L256.531,275.053L256.983,275.351L257.281,275.292L257.613,275.112L258.147,275.053L259.229,275.202L259.801,275.463L260.051,276.038L260.268,278.435L260.47,278.93L262.177,279.645L261.908,278.617L262.403,278.283L264.015,278.39L264.419,278.672L264.592,279.211L264.313,279.547L263.389,279.226L263.024,279.645L265.852,282.608L265.881,282.466L266.083,282.359L266.362,282.468L266.66,282.986L266.737,283.444L266.66,285.108L266.169,286.496L266.155,287.18L266.66,287.995L268.17,289.077L268.666,289.776L268.67,290.954L269.296,290.556L269.863,290.298L270.469,290.253L271.133,290.494L271.133,289.318L272.489,289.92L275.645,289.778L277.386,290.72L279.204,292.053L280.858,292.523L284.851,292.657L291.7,294.235L292.373,294.519L293.085,295.446L294.037,297.685L294.812,298.724L297.438,300.582L299.198,301.81L300.607,303.558L301.536,305.657L301.877,307.909L302.329,308.863L303.301,309.464L304.282,309.916L304.734,310.432L304.994,310.889L306.095,312.239L306.87,314.687L308.101,316.176L310.823,318.57L312.372,320.364L312.882,321.232L313.286,322.319L313.738,324.303L314.003,325.027L314.493,325.684L315.301,326.309L317.264,327.512L318.288,328.389L319.173,329.495L321.318,333.585L321.944,336.103L322.458,337.01L326.215,338.15L327.003,338.199L328.908,337.464L329.644,337.367L330.111,337.654L331.26,339.656L332.212,340.66L332.65,340.912L333.497,341.108L334.146,341.093L335.459,340.751L335.921,340.692L336.94,341.098L339.023,342.473L339.788,342.77L340.452,343.248L340.75,344.362L340.923,345.623L341.202,346.547L343.64,348.453L344.02,349.25L344.28,349.26L345.637,351.12L346.04,351.951L346.175,352.033L346.704,352.27L346.849,352.365L347.108,353.065L347.464,354.409L347.878,355.067L348.489,355.235L349.215,354.943L349.821,354.602L350.076,354.651L350.283,355.033L351.302,355.745L351.692,356.102L351.928,356.666L352.264,358.071L352.5,358.591L353.871,359.627L354.116,359.687L354.342,360.52L354.809,360.515L355.184,360.147L355.141,359.912L354.833,359.684L353.986,358.581L353.784,358.217L353.669,358.111L353.481,358.009L353.323,357.794L353.308,357.349L353.496,357.326L354.318,357.371L354.52,357.349L354.563,355.735L353.77,355.047L352.76,354.508L351.49,354.444L351.028,354.275L351.173,353.926L351.721,353.629L352.5,353.612L354.52,355.27L356.699,358.202L357.555,358.591L358.623,359.259L358.998,360.758L358.993,363.234L359.657,365.245L360.181,366.165L360.811,366.555L361.389,367.228L361.821,368.771L362.74,375.795L363.582,377.243L363.899,380.193L363.846,380.47L364,380.643L365.818,381.74L367.069,382.115L369.757,382.35L370.888,382.145L371.571,381.594L371.98,380.801L372.35,379.862L373.134,380.04L373.36,380.423L373.379,380.942L373.596,381.52L373.947,381.819L374.346,382.039L374.668,382.362L374.803,382.99L375.27,383.78L378.247,386.307L380.315,389.766L381.075,390.262L382.253,390.432L383.22,390.877L384.028,391.484L384.706,392.143L385.173,393.079L385.74,396.475L386.712,398.688L386.943,399.826L387.097,401.543L387.318,402.515L387.751,403.136L388.588,403.348L389.357,403.112L390.132,402.685L390.973,402.344L391.772,403.987L392.931,404.986L394.547,405.482L396.668,405.618L396.389,405.926L395.86,406.858L396.423,406.902L396.88,406.769L397.467,406.444L397.404,406.372L398.506,405.647L398.688,405.618L399.381,404.828L399.929,403.965L400.083,403.41L400.059,403.003L400.175,402.668L400.737,402.344L400.377,401.74L400.295,401.153L400.434,400.625L400.737,400.201L402.421,401.501L403.229,402.303L403.565,402.929L403.825,403.561L404.441,404.076L405.181,404.537L405.787,405.016L406.192,405.81L406.268,407.642L406.422,408.552L408,411.412ZM246.209,233.026L247.079,233.056L247.382,233.219L247.854,235.663L247.488,236.784L246.651,237.256L246.632,237.246L245.41,236.627L244.997,236.532L244.448,236.407L241.582,237.122L240.355,237.216L239.09,236.787L237.032,235.778L235.68,235.579L232.751,236.2L232.164,236.095L231.842,236.035L231.606,235.813L231.255,235.359L231.02,235.049L230.88,234.924L230.635,234.707L230.63,234.702L230.096,235.708L229.413,236.23L228.413,236.318L226.965,236.035L224.574,235.094L224.267,235.032L223.459,234.867L222.131,235.159L222.122,235.159L221.621,234.475L221.237,233.945L219.669,229.292L220.342,229.307L220.756,229.44L220.813,229.67L220.823,229.705L220.472,230.132L220.948,230.409L221.309,230.776L221.439,231.033L221.54,231.238L221.684,231.808L221.689,231.808L222.122,231.808L222.679,231.588L223.459,231.9L224.281,232.372L224.945,232.647L224.95,232.644L225.695,232.607L228.177,231.808L227.095,229.859L225.652,228.256L223.892,227.176L221.9,226.776L219.952,227.186L219.26,226.991L218.856,225.902L218.937,224.69L219.457,224.003L220.226,223.903L221.631,224.825L221.996,225.062L222.78,225.127L223.011,224.638L222.304,223.573L221.977,222.546L221.91,222.338L223.074,221.763L224.627,221.618L225.272,221.663L225.349,221.668L225.585,220.921L225.19,219.943L224.517,219.096L223.925,218.736L223.92,218.733L221.857,218.871L221.193,218.543L220.477,217.513L220.472,217.508L222.631,217.686L224.921,218.203L227.076,219.051L228.384,219.943L228.783,220.218L229.341,221.091L229.615,221.518L229.61,221.521L229.317,222.411L228.701,223.088L228.581,223.763L229.028,224.225L229.586,224.248L230.144,224.03L230.63,223.763L230.529,223.538L230.24,223.123L230.192,222.726L230.818,222.546L231.438,222.898L231.573,223.69L231.582,223.758L231.236,228.735L231.404,229.675L231.722,230.396L231.789,230.559L232.838,232.342L233.054,232.837L233.631,232.882L237.09,233.9L237.994,232.182L238.335,231.808L238.831,231.678L238.032,231.378L236.835,231.016L236.325,230.322L236.32,230.319L236.762,229.637L237.821,229.292L239.148,229.205L240.355,229.292L241.019,229.42L241.553,229.592L241.779,229.712L241.995,229.824L242.375,230.132L242.606,230.596L242.693,231.151L242.871,231.615L243.381,231.808L244.218,231.998L245.449,232.837ZM229.009,208.078L228.134,208.889L227.946,209.819L228.316,210.17L228.826,210.45L229.245,210.86L229.851,211.29L230.139,211.856L229.086,212.156L227.355,211.576L225.912,210.78L223.372,210.512L222.78,209.899L222.795,208.884L223.266,207.938L224.31,207.537L225.637,207.427L226.162,207.087L225.96,206.571L225.839,205.971L225.815,205.325L225.926,204.649L226.354,204.394L227.845,205.573L228.278,205.825L228.865,205.963L229.933,206.441L230.394,207.177L229.99,207.737Z"/>
</svg>
