<svg xmlns="http://www.w3.org/2000/svg" viewBox="0 0 420 520" aria-label="Map of Ethiopia">
  <path fill="currentColor" d="M40.556,252.859L40.455,250.808L41.283,246.828L44.551,237.542L46.107,236.091L46.705,235.193L46.746,234.897L46.656,234.242L46.662,233.939L46.735,233.795L46.989,233.532L47.074,233.376L47.298,232.24L47.271,231.03L45.985,225.119L45.867,224.008L46.072,223.056L48.346,219.823L49.368,217.832L49.785,217.268L50.241,216.868L53.425,214.659L53.873,214.488L54.198,214.619L57.395,217.449L58.171,217.951L58.52,218.259L58.687,218.666L58.58,219.475L58.618,219.867L58.894,219.972L59.107,219.756L59.459,218.93L59.784,218.643L60.229,218.599L60.552,218.694L60.841,218.657L61.18,218.211L61.338,217.732L61.341,217.406L61.45,217.086L61.93,216.628L63.358,215.533L63.803,214.891L64.006,213.97L63.861,213.566L63.077,212.987L62.823,212.636L62.842,212.341L64.587,207.191L64.688,206.353L64.352,205.801L63.891,205.283L63.634,204.552L63.711,203.97L67.039,196.583L67.137,196.052L67.072,195.547L66.52,194.449L66.329,193.894L66.378,192.792L66.179,191.77L66.195,191.224L66.381,190.583L66.668,189.922L67.028,189.301L67.432,188.78L68.453,188.111L69.032,187.888L70.802,187.203L71.599,186.305L71.654,186.041L71.669,185.549L71.673,185.424L71.749,185.174L71.987,184.94L72.975,184.368L73.491,183.77L73.72,183.128L73.983,181.647L74.452,180.465L74.652,180.16L74.911,179.939L75.487,179.636L75.763,179.41L76.006,179.044L76.082,178.706L76.153,177.953L76.435,177.197L81.404,168.86L81.641,168.59L81.868,168.496L82.379,168.457L82.608,168.359L82.87,168.071L82.966,167.794L83.004,167.504L83.184,166.813L83.179,166.669L83.274,166.583L83.636,166.416L83.673,166.399L84.35,166.173L92.318,165.015L92.541,165.006L92.864,165.061L93.038,165.15L93.191,165.265L93.432,165.397L94.152,165.597L94.565,165.43L94.791,164.898L95.31,161.889L95.305,161.228L95.19,160.824L94.573,159.743L94.548,159.142L94.854,158.679L95.247,158.284L95.485,157.886L95.477,157.653L95.392,157.421L95.182,156.989L95.144,156.471L97.697,147.537L101.62,141.849L101.863,141.079L101.956,139.541L102.052,138.995L103.148,136.271L103.63,135.076L103.556,133.719L103.097,132.359L102.953,131.691L102.942,130.999L103.059,130.419L105.432,123.001L105.943,123.011L106.136,122.476L106.469,122.199L106.915,122.095L107.477,122.08L107.843,121.994L108.659,121.609L109.189,121.522L110.379,121.522L110.603,121.46L111.032,121.194L111.289,121.132L113.094,121.132L113.943,121.249L115.666,121.761L116.542,121.878L116.698,121.98L117.176,122.638L117.386,122.794L117.593,122.911L117.823,122.986L118.093,123.011L118.249,122.959L118.634,122.638L118.849,122.62L119.33,122.679L119.535,122.638L119.865,122.407L120.149,122.068L120.348,121.619L120.422,121.048L120.438,120.394L120.529,119.838L120.742,119.301L121.143,118.712L121.899,118.136L122.811,117.928L124.766,117.967L125.342,117.767L125.706,117.713L126.35,118.267L126.85,118.561L127.849,120.015L128.253,120.421L128.354,120.641L128.392,121.048L128.379,121.669L128.452,121.959L128.835,122.181L129.902,123.081L130.017,123.244L130.211,123.756L130.345,124.438L130.503,124.744L130.842,124.871L131.115,124.921L131.385,125.056L131.59,125.262L131.669,125.523L131.699,126.219L131.822,126.672L132.098,126.998L132.573,127.307L132.87,127.002L133.823,124.707L135.341,121.048L136.999,117.049L138.7,112.943L140.417,108.8L141.496,106.186L141.954,106.591L142.274,107.061L142.779,108.062L142.894,108.159L143.15,108.189L143.243,108.282L143.257,108.393L143.249,108.682L143.265,108.767L143.366,108.965L143.423,109.147L143.538,109.278L143.836,109.328L144.095,109.526L144.152,109.739L144.172,109.978L144.322,110.247L144.54,110.425L147.407,111.61L147.885,111.699L149.389,111.438L150.015,111.477L150.422,111.645L150.692,111.978L150.858,112.389L150.91,112.519L151.039,113.27L151.17,113.537L151.421,113.774L151.729,113.946L152.005,114.157L152.175,114.508L152.426,115.544L152.641,116.024L152.95,116.426L153.362,116.751L154.779,117.525L154.992,117.728L155.17,118.318L155.312,118.562L155.639,118.811L155.861,118.835L156.085,118.771L157.387,118.781L159.405,118.548L160.388,118.284L162.023,117.432L162.539,117.449L163.02,117.611L163.5,117.659L163.989,117.614L164.492,117.494L166.067,116.839L167.244,116.724L167.733,116.381L168.604,115.577L169.704,115.06L170.245,114.72L170.619,114.227L170.698,113.724L170.657,113.214L170.698,112.76L171.039,112.423L171.077,112.518L172.022,112.627L172.776,112.801L173.041,112.908L173.617,113.273L174.149,113.762L174.605,114.325L174.968,114.91L175.736,117.173L176.282,118.184L176.942,118.177L177.519,117.25L177.876,116.922L178.534,116.816L179.965,117.048L180.467,117.018L182.633,116.412L183.711,115.883L184.181,115.246L184.388,114.701L184.844,114.707L185.369,115.005L185.77,115.342L186.308,115.998L186.469,116.154L186.619,116.234L187.979,116.645L188.686,116.709L189.882,116.505L190.202,116.45L191.042,116.421L191.834,116.685L192.563,117.148L193.953,118.363L194.355,118.555L194.854,118.641L195.37,118.495L196.184,117.801L196.667,117.678L197.196,117.773L197.814,117.884L198.191,117.874L199.496,117.486L199.963,117.48L202.336,118.062L203.48,118.531L204.52,119.155L206.544,121.046L208.34,122.722L209.877,123.522L212.679,124.877L213.424,125.119L215.81,125.462L217.604,126.139L219.213,127.295L221.976,130.455L224.772,133.651L226.825,137.305L228.693,140.631L229.49,141.426L233.053,143.717L237.64,146.665L240.409,148.957L242.424,150.624L243.453,151.699L244.352,152.886L245.193,154.291L247.246,158.761L248.628,160.707L250.689,162.04L252.196,162.664L253.665,163.493L254.924,164.584L256.647,167.538L258.801,170.475L260.063,171.816L258.471,173.967L257.665,175.735L254.146,180.567L253.745,181.552L253.534,181.885L252.912,182.193L252.62,182.515L251.552,184.511L249.369,187.626L248.357,189.07L248.065,189.367L247.699,189.65L247.331,189.827L247.033,189.918L246.809,190.077L246.662,190.462L246.4,190.807L245.362,191.265L244.972,191.531L244.554,192.389L244.191,194.434L243.41,196.879L243.429,198.351L244.112,201.449L244.436,204.378L244.374,209.557L244.207,210.707L243.732,211.473L243.87,211.654L244.062,211.908L244.72,212.16L247.841,212.796L247.931,212.933L248,213.092L248.158,213.226L248.387,213.259L248.527,213.159L248.647,213.025L248.827,212.951L250.323,212.889L251.052,212.705L251.871,211.869L252.581,211.633L254.037,211.473L255.394,211.787L255.893,211.792L256.251,211.702L257.193,211.276L257.42,211.253L257.892,211.269L258.119,211.247L258.982,210.954L259.58,211.051L259.989,211.191L260.388,211.212L260.956,210.942L262.711,209.78L265.09,209.052L266.104,208.973L266.302,208.958L268.175,209.405L268.806,209.43L269.314,209.621L269.98,211.087L270.428,211.466L271.017,211.597L272.11,211.709L272.762,211.898L273.109,211.956L273.499,211.813L273.764,211.487L274.029,211.258L274.441,211.404L274.114,211.98L273.846,213.077L273.644,213.533L273.202,213.907L272.093,214.374L271.686,214.8L271.479,215.336L271.375,215.78L271.206,216.193L270.793,216.633L269.849,217.402L269.537,217.833L269.286,218.486L269.032,219.579L268.838,220.109L268.522,220.555L268.008,220.848L267.481,221.01L267.137,221.263L267.173,221.832L267.7,223.037L268.404,224.152L269.862,225.578L270.269,226.107L270.556,226.842L270.895,229.293L271.389,231.018L272.131,232.656L272.819,233.486L275.353,235.139L275.979,235.781L276.454,236.577L276.79,237.454L277.005,238.336L277.51,239.581L278.245,240.318L279.211,240.71L280.416,240.922L281.403,241.369L281.908,242.231L282.672,246.504L283.03,247.562L283.607,248.204L284.322,248.387L284.54,248.494L284.794,248.759L285.045,249.342L285.221,249.632L285.475,249.864L286.008,250.219L286.249,250.458L286.849,251.672L287.01,252.153L287.077,253.052L287.191,253.554L287.527,253.973L288.906,254.803L290.94,256.033L291.432,256.08L292.076,255.832L292.499,255.804L292.876,256.011L294.909,257.878L297.264,260.031L300.628,263.114L302.474,264.804L303.506,265.414L305.624,266.117L307.954,266.891L310.283,267.663L312.612,268.437L314.941,269.21L317.267,269.984L319.599,270.756L321.925,271.53L324.254,272.303L326.581,273.076L328.912,273.848L331.237,274.62L333.568,275.395L335.896,276.167L338.226,276.938L340.552,277.711L342.884,278.484L345.104,279.235L347.321,279.986L349.541,280.736L351.755,281.486L353.973,282.237L356.19,282.988L358.405,283.74L360.624,284.489L362.841,285.239L365.061,285.989L367.277,286.739L369.495,287.49L371.715,288.24L373.929,288.991L376.149,289.74L378.364,290.492L380.032,291.056L381.583,291.83L383.931,291.832L387.695,291.832L391.803,291.832L395.964,291.832L399.407,291.832L404.236,291.832L408,291.83L406.717,293.081L405.428,294.331L404.143,295.581L402.861,296.83L401.577,298.081L400.295,299.329L399.011,300.579L397.725,301.828L396.442,303.076L396.197,303.315L395.159,304.326L393.875,305.575L392.592,306.824L391.309,308.073L390.025,309.323L388.739,310.571L387.453,311.818L386.17,313.066L384.887,314.313L383.601,315.562L382.317,316.81L381.037,318.059L379.753,319.305L378.47,320.552L377.184,321.801L375.899,323.046L374.618,324.294L373.334,325.541L372.051,326.788L371.513,327.309L370.328,328.458L369.144,329.605L368.606,330.128L368.049,330.669L366.912,331.774L365.301,333.435L363.693,335.098L362.079,336.759L360.466,338.42L358.852,340.081L357.241,341.742L355.629,343.403L354.022,345.064L351.188,348.176L348.353,351.288L345.519,354.402L342.992,357.175L342.685,357.512L339.851,360.622L337.018,363.732L334.182,366.842L331.348,369.95L329.846,371.6L329.839,371.6L327.749,373.864L326.985,374.185L325.553,374.101L324.183,374.022L322.815,373.942L321.445,373.862L320.077,373.784L318.706,373.705L318.642,373.701L317.338,373.626L315.967,373.546L314.598,373.468L313.232,373.388L311.861,373.309L310.493,373.228L309.122,373.148L307.754,373.07L306.384,372.989L305.016,372.911L303.645,372.831L302.056,372.738L301.086,372.97L298.785,373.788L297.993,373.971L295.385,374.572L293.378,375.035L290.419,375.718L288.592,376.586L285.624,377.996L282.607,379.432L279.607,380.857L277.393,382.681L275.411,384.312L275.203,384.571L275.028,384.855L274.673,385.747L274.204,387.599L273.805,388.453L273.027,389.325L272.994,389.362L272.009,390.01L270.903,390.453L269.024,390.774L265.051,391.453L261.002,392.146L257.892,392.675L255.899,392.695L253.613,392.718L252.756,392.935L251.844,393.395L250.351,394.588L248.486,395.735L248.016,396.149L247.836,396.665L247.858,397.476L247.718,397.807L247.355,398.1L247,398.621L245.703,399.357L244.527,399.126L243.363,398.51L242.107,398.1L240.988,398.741L240.606,398.827L240.229,398.757L239.53,398.466L239.109,398.438L236.993,398.961L236.294,398.999L234.967,399.372L232.005,399.543L229.307,399.697L227.925,399.536L226.645,399.015L225.471,398.1L223.775,395.722L223.084,395.084L222.658,394.83L221.397,394.399L220.916,394.153L220.643,393.885L220.201,393.065L219.551,392.324L217.959,391.241L217.378,390.471L215.712,391.568L213.514,392.413L210.724,393.487L207.311,394.803L207.16,394.943L207.005,395.371L206.863,395.505L204.779,396.231L202.104,397.166L202.03,397.17L201.951,397.148L201.871,397.103L201.618,397.079L201.593,397.184L201.612,397.349L201.492,397.504L200.296,398.1L197.735,399.339L195.46,400.436L193.197,401.532L192.664,402.186L192.146,403.571L191.408,405.523L190.971,406.339L190.466,407.005L188.388,408.907L186.655,410.491L185.972,411.311L185.396,413.074L184.951,413.77L184.107,413.814L183.687,413.534L183.487,413.181L183.348,412.823L183.119,412.526L182.305,412.252L179.007,412.153L179.25,411.665L179.127,411.391L178.78,411.37L178.611,411.468L177.587,412.058L176.579,412.084L175.55,411.864L173.171,410.77L172.83,410.614L172.576,410.552L171.058,410.873L170.649,410.878L170.253,410.731L169.811,410.671L168.702,410.885L168.014,410.896L166.045,410.363L163.438,409.657L162.954,409.391L162.542,408.971L161.827,408.028L161.838,408.203L161.802,408.574L161.808,408.755L160.265,408.644L160.126,408.552L160.098,408.41L160.049,408.322L159.675,408.468L159.53,408.488L159.186,408.45L158.818,408.357L158.714,408.201L158.662,407.992L158.449,407.74L157.949,407.324L157.81,407.264L157.556,407.367L157.502,407.587L157.523,407.823L157.491,407.975L156.145,408.565L154.665,408.691L151.841,408.373L149.037,408.055L148.21,408.121L147.377,408.328L147.055,408.274L146.446,407.744L145.657,407.501L145.318,407.314L144.912,406.831L144.24,405.752L143.748,405.261L142.935,404.737L140.3,403.04L137.785,401.42L135.057,399.663L132.635,398.1L130.495,396.721L127.48,394.781L124.905,393.121L122.331,391.461L120.9,390.54L120.744,390.499L120.586,390.503L120.449,390.472L120.365,390.33L120.228,389.741L120.124,389.484L119.95,389.248L119.753,389.185L119.223,389.225L119.03,389.096L118.615,388.395L118.358,388.201L117.279,387.953L115.401,387.004L113.825,386.568L108.733,386.612L108.668,386.596L108.512,386.558L108.121,386.323L107.892,386.273L103.758,386.358L98.849,386.456L98.508,386.41L98.027,386.177L97.768,386.106L97.489,386.108L96.58,386.232L92.723,386.264L92.618,386.264L92.012,386.12L91.449,385.754L90.425,384.855L89.953,384.559L89.776,384.184L89.784,383.733L89.863,383.202L89.836,382.691L89.486,382.067L89.434,381.609L85.833,377.77L85.186,376.668L84.964,375.379L85.076,369.835L85.21,369.493L86.22,368.212L86.436,367.68L86.431,367.134L86.196,366.497L85.672,365.492L85.59,364.977L85.767,364.359L86.483,363.318L86.352,363.081L84.904,362.52L83.168,361.447L82.499,361.266L82.01,361.382L81.538,361.602L80.91,361.735L80.268,361.561L79.13,360.638L78.529,360.285L78.056,360.162L77.505,360.09L76.948,360.09L76.473,360.184L75.891,360.573L74.815,361.754L74.22,362.17L73.581,362.267L73.095,362.037L72.702,361.593L71.834,360.218L71.73,359.973L71.76,359.649L71.948,359.363L72.178,359.087L72.336,358.786L72.221,358.47L72.028,357.937L71.009,357.111L68.893,355.872L67.713,355.001L67.438,354.489L67.208,352.949L66.832,352.241L64.694,349.199L64.431,348.612L64.385,348.263L64.434,347.971L64.519,347.668L64.576,347.291L64.494,346.994L64.06,346.524L63.926,346.236L63.937,345.927L64.03,345.627L64.309,345.064L64.261,344.76L64.036,343.336L63.825,342.819L63.375,342.256L62.875,341.796L62.436,341.292L61.936,339.991L61.005,338.368L60.874,337.837L60.855,336.271L60.685,335.581L59.631,333.77L59.407,333.234L59.192,331.702L58.605,330.187L58.332,329.113L58.067,328.028L57.884,327.913L57.564,327.548L57.436,327.06L57.275,326.77L55.478,325.575L55.028,325.396L54.452,325.326L53.324,325.324L52.857,325.223L52.551,324.962L52.371,323.872L52.338,323.76L52.218,323.488L52.191,323.327L52.248,323.301L52.494,323.129L52.551,323.054L52.513,322.533L52.401,322.068L52.224,321.664L51.994,321.313L50.29,320.119L46.55,319.222L46.468,319.125L46.288,319.044L46.105,318.916L45.971,318.455L45.843,318.295L44.761,317.498L44.499,317.158L44.335,317.002L44.131,316.935L43.926,316.672L43.86,316.071L43.86,315.784L43.86,314.951L43.732,314.405L43.481,313.934L43.12,313.717L42.681,313.927L42.186,314.036L41.679,313.659L40.958,312.755L39.745,311.803L39.576,311.723L39.511,311.587L39.497,309.101L39.314,308.202L38.861,307.47L35.582,304.109L34.792,303.643L34.517,303.58L33.971,303.514L33.708,303.445L32.376,302.455L31.54,301.282L31.187,300.882L30.936,300.756L30.103,300.517L29.382,300.043L29.104,299.971L27.389,300.134L26.822,299.971L26.545,299.768L26.179,299.284L25.923,299.044L25.659,298.914L25.174,298.775L24.938,298.589L24.484,298.42L23.801,298.444L22.66,298.68L22.425,298.794L21.775,299.226L21.441,299.234L19.973,298.858L19.495,298.428L19.08,297.942L18.673,297.587L18.449,297.521L17.592,297.389L16.838,297.083L16.616,297.043L15.76,297.235L15.623,297.298L15.462,297.519L15.11,297.468L14.526,297.207L13.81,297.127L13.625,297.043L13.529,296.879L13.449,296.635L13.346,296.411L12.89,296.138L12.666,295.723L12,293.946L12.1,293.656L12.449,293.274L12.469,293.231L12.587,292.984L12.713,292.851L12.841,292.666L12.958,292.105L13.092,291.837L13.428,291.38L14.927,289.844L15.085,289.591L15.211,289.32L15.266,289.095L15.375,288.96L16.167,288.829L16.623,288.616L16.953,288.347L17.161,287.974L17.232,287.445L17.15,287.303L16.789,287.043L16.707,286.899L16.715,286.525L16.759,286.255L16.866,286.012L17.068,285.715L17.303,285.537L17.55,285.454L17.735,285.314L17.772,284.969L17.417,284.821L17.177,284.68L16.983,284.382L16.797,284.183L16.612,283.925L16.527,283.61L16.579,283.411L16.808,282.908L16.868,282.583L16.822,282.49L16.584,282.318L16.527,282.234L16.546,282.09L16.677,281.909L16.707,281.788L16.705,281.337L16.748,281.131L16.868,280.943L17.232,280.767L17.63,280.685L17.827,280.507L17.748,280.352L17.723,280.246L18.482,279.576L18.946,279.509L21.816,280.146L22.067,280.064L22.43,279.78L22.628,279.677L22.841,279.656L23.184,279.734L24.964,279.523L25.213,279.382L25.224,279.286L25.076,279.086L25.614,279.062L26.059,279.318L26.458,279.641L26.856,279.812L27.359,279.723L27.734,279.51L28.123,279.354L28.66,279.441L29.486,280.141L30.005,281.054L30.645,281.787L31.846,281.941L32.133,281.896L32.248,281.86L33.343,280.912L33.618,280.725L34.042,280.542L34.484,280.422L35.39,280.316L36.884,280.311L37.375,280.175L37.916,279.85L40.526,277.493L41.072,276.882L41.414,276.272L41.522,275.679L41.643,275.01L41.263,267.277L40.883,259.538Z"/>
</svg>
