<svg xmlns="http://www.w3.org/2000/svg" viewBox="0 0 420 520" aria-label="Map of Gabon">
  <path fill="currentColor" d="M325.815,57.341L325.837,61.436L325.597,63.631L324.899,65.268L322.466,66.611L322.057,66.923L320.815,68.282L320.456,68.532L319.835,68.777L319.814,69.352L320.202,70.631L320.061,71.321L319.708,71.798L319.257,72.223L318.798,72.771L318.333,73.565L317.875,74.634L317.064,74.867L316.781,75.177L317.663,76.388L318.213,77.621L318.566,78.13L318.848,78.938L318.749,80.032L318.044,82.539L317.522,83.567L316.824,84.475L315.963,84.976L316.464,86.148L316.267,87.342L315.801,88.624L315.54,90.062L315.949,93.169L315.731,94.81L314.56,96.161L315.674,98.143L316.937,99.889L317.402,99.383L318.178,99.978L318.657,100.784L318.742,101.717L318.333,102.685L319.736,103.403L320.963,106.704L322.057,107.389L321.986,107.958L322.078,111.186L322.035,111.743L322.064,112.267L322.289,112.725L322.861,113.554L322.712,113.914L322.296,114.154L321.655,115.522L320.681,116.178L319.525,116.573L318.566,116.707L318.023,117.159L317.769,118.111L317.261,118.951L315.963,119.085L316.655,119.691L317.473,120.023L318.121,120.46L318.331,121.405L318.333,121.412L319.052,121.508L320.442,121.285L322.79,121.462L324.2,121.173L325.449,120.629L326.718,119.078L327.959,118.901L329.116,118.591L329.553,117.381L330.103,116.87L331.436,116.503L332.924,116.333L333.961,116.429L336.345,117.279L338.453,117.684L340.513,117.674L342.798,117.251L343.679,116.616L345.238,114.521L347.685,113.568L348.573,112.838L349.54,112.207L350.894,112.083L351.535,112.112L352.163,112.069L353.418,111.838L353.859,111.62L354.677,110.979L355.143,110.803L355.488,110.873L356.285,111.256L356.49,111.327L357.223,111.05L357.449,110.902L358.281,109.269L358.923,107.505L358.979,107.18L359.945,106.948L372.83,108.149L374.008,108.41L375.249,109.152L376.257,110.142L377.329,110.909L378.775,110.997L381.215,110.053L382.442,109.736L383.81,109.87L386.497,110.605L387.09,111.008L387.527,111.461L388.042,111.835L388.853,111.99L388.959,112.368L389.064,112.746L389.65,113.124L390.426,113.448L391.159,114.02L391.568,114.782L392.584,119.042L392.767,120.827L392.696,125.976L393.254,127.719L394.318,129.143L397.591,130.653L398.522,132.042L399.587,135.534L400.341,137.128L401.3,138.623L402.443,139.97L403.74,141.152L405.369,141.974L405.891,142.52L405.764,143.448L405.137,144.083L404.326,144.566L403.811,145.119L404.044,145.962L404.495,149.14L402.161,151.95L399.015,154.648L397.041,157.487L396.836,160.988L396.385,162.448L391.328,166.821L391.074,167.181L390.686,167.463L389.77,167.816L386.342,167.999L382.513,167.569L379.135,168.027L377.061,170.905L377.83,172.329L378.253,173.726L377.985,175.136L376.709,176.603L371.666,179.382L370.214,180.926L367.795,186.35L365.474,189.805L365.164,191.434L365.503,193.148L366.165,195.264L366.49,196.928L366.779,201.858L367.223,202.323L368.02,202.344L368.838,202.492L369.374,203.332L369.269,204.044L368.302,205.292L368.013,205.969L368.147,206.971L368.5,207.732L368.57,208.452L367.858,209.333L367.16,209.996L366.312,211.121L363.218,215.229L362.498,216.922L362.435,218.854L365.587,222.613L365.996,222.916L366.433,222.832L367.336,222.5L367.625,222.197L367.809,221.703L368.07,221.252L368.599,221.068L371.039,221.351L371.702,221.611L372.252,222.07L372.745,222.733L375.228,222.077L377.964,222.5L380.461,223.713L382.238,225.455L383.387,227.789L384.227,230.526L384.727,233.34L384.847,235.893L385.997,235.279L387.125,234.891L388.296,234.884L389.544,235.392L390.651,235.653L391.695,235.3L392.753,234.8L393.923,234.616L395.828,235.166L398.423,236.316L400.722,237.755L402.231,239.786L404.946,241.655L405.786,242.55L407.386,245.844L408,247.889L407.534,250.104L404.763,256.099L404.382,257.77L404.396,259.449L404.855,261.184L405.144,263.258L404.375,264.718L403.169,266.044L402.118,267.722L401.759,269.288L401.42,272.236L400.701,273.689L400.687,274.67L402.633,280.024L403.36,281.498L403.592,282.295L403.536,282.88L403.155,284.058L403.176,284.644L403.656,285.476L403.936,285.752L405.094,286.894L405.623,287.776L405.736,288.389L405.666,290.52L405.391,292.05L405.144,292.706L404.763,293.426L404.269,293.983L403.705,294.421L403.233,294.914L403.042,295.669L403.451,296.974L404.453,298.011L406.85,299.598L407.231,301.016L406.745,301.799L405.877,302.357L405.087,303.119L404.84,303.761L404.728,305.404L403.867,307.38L404.763,308.269L405.525,309.496L405.553,310.526L403.317,310.949L402.88,311.542L402.605,312.332L402.147,313.024L401.498,313.496L400.856,313.814L399.46,314.308L398.846,314.851L399.297,315.359L400.623,316.1L401.448,318.865L402.612,319.225L404.051,319.465L404.573,319.917L402.965,320.89L402.139,321.807L401.702,323.282L401.491,328.722L401.075,330.479L401.032,331.057L401.554,334.035L401.06,334.974L399.248,335.961L399.101,336.019L391.159,339.123L390.672,339.617L390.334,340.125L390.165,340.732L390.2,341.515L389.84,342.157L389.882,342.58L390.235,342.933L390.792,343.343L391.124,343.921L391.053,344.599L390.602,345.947L390.221,349.546L389.904,350.52L389.438,350.985L388.26,351.402L387.894,351.726L387.816,352.397L388.239,353.618L388.225,354.119L387.315,355.114L384.974,355.968L384.05,356.688L384.269,359.024L389.438,363.4L389.946,365.574L389.65,365.383L386.392,366.146L385.715,366.456L385.094,366.873L383.789,367.981L383.232,368.567L382.922,369.258L382.95,371.051L382.47,371.644L381.815,372.159L381.236,372.766L380.812,373.982L380.503,374.87L380.094,375.385L379.473,375.477L378.796,375.195L377.745,374.588L377.061,374.531L376.631,374.609L373.493,375.59L372.971,375.583L372.534,375.181L372.329,373.931L371.702,373.472L371.039,373.472L370.383,373.769L369.205,374.482L367.773,374.778L366.102,374.694L364.543,374.178L363.429,373.197L363.507,372.858L363.556,370.225L364.064,369.625L365.481,368.912L366.448,366.851L367.259,366.35L367.548,365.906L366.617,364.635L365.912,364.134L365.192,363.788L364.663,363.287L364.438,361.388L363.979,360.718L362.731,359.447L361.892,358.191L360.34,355.022L359.72,352.199L359.127,350.76L358.302,349.468L357.364,348.565L356.645,348.05L356.426,347.965L356.271,348.332L354.846,350.456L354.127,351.818L353.944,352.573L353.838,353.921L353.588,354.634L353.038,355.396L347.847,360.428L347.389,361.134L347.191,362.581L346.888,363.188L346.204,363.654L344.575,364.176L343.764,364.586L343.087,365.193L342.092,366.442L341.514,367.014L339.3,368.545L338.623,369.202L338.249,369.858L338.058,370.494L337.748,371.044L337.029,371.454L336.676,371.341L336.105,370.501L335.668,370.388L334.709,370.684L334.356,370.677L332.875,370.437L331.563,370.762L330.35,370.621L318.453,366.202L317.783,366.054L316.993,366.16L315.688,366.922L314.941,367.077L313.516,366.731L309.116,364.734L307.423,364.43L306.541,364.691L305.307,365.927L304.517,366.717L303.601,366.767L303.403,366.357L303.756,365.722L304.517,365.08L304.835,364.6L305.11,364.028L305.3,363.428L305.35,362.842L305.491,362.151L305.871,361.593L306.443,360.986L306.273,360.217L305.949,360.146L305.533,360.16L305.046,359.638L304.863,359.087L304.517,357.245L303.876,356.462L302.599,354.373L302.007,353.794L300.35,354.641L299.376,354.676L299.08,353.463L299.031,352.757L298.77,352.277L297.874,351.402L297.712,350.95L297.832,350.52L298.121,350.004L298.248,349.68L298.516,349.228L298.558,348.833L297.275,348.501L297.127,348.148L297.197,347.739L297.197,347.422L297.317,347.393L297.049,345.834L296.746,345.424L295.681,344.38L295.286,343.879L294.672,342.432L293.17,337.479L292.38,335.813L291.231,335.023L288.346,334.092L288.043,333.872L283.537,330.606L280.631,329.399L277.274,329.491L276.541,329.759L273.198,332.003L272.782,332.391L272.443,332.836L272.027,333.703L271.907,334.296L271.858,335.037L271.562,335.729L270.68,336.208L269.481,335.835L268.187,334.461L267.373,333.598L266.611,333.421L266.35,334.346L266.921,341.705L267.507,344.465L268.924,346.652L271.583,347.859L271.28,349.038L270.053,350.971L269.566,352.009L269.439,353.018L269.926,355.841L269.453,357.803L268.536,360.153L268.043,362.362L268.818,363.866L241.73,369.675L239.615,369.442L237.527,368.009L235.214,365.136L233.98,364.226L233.275,363.809L231.138,364.868L228.26,365.793L225.799,366.28L224.283,366.887L221.97,369.018L220.834,369.682L219.706,369.59L218.465,368.934L216.159,367.127L215.637,366.52L215.362,365.948L214.939,365.419L214.001,364.939L210.552,363.894L208.027,363.809L207.879,363.852L207.336,365.193L208.803,369.174L209.05,370.677L208.556,374.461L208.584,375.654L209.113,377.094L210.841,379.854L211.483,381.386L211.85,383.129L211.85,384.548L211.518,385.968L210.891,387.697L205.919,395.817L205.789,396.314L205.108,398.931L205.46,400.533L206.631,400.336L209.395,398.394L211.335,397.801L212.696,398.246L213.81,399.502L216.166,402.927L221.356,408.449L222.358,410.024L222.358,411.493L220.672,412.531L219.099,412.694L218.161,412.616L217.449,413.047L216.547,414.742L216.208,415.942L216.145,420.675L216.032,421.063L216.159,421.324L216.744,421.911L217.273,422.306L221.138,423.924L222.576,424.785L225.327,427.053L227.809,428.233L231.046,429.123L233.684,430.359L234.403,432.563L233.486,434.032L230.545,436.236L229.622,437.882L225.729,447.096L225.538,448.678L226.215,450.106L227.626,450.947L229.241,451.47L230.552,452.176L231.032,453.625L230.496,455.165L229.29,456.607L227.816,457.71L226.617,458.168L226.448,458.232L225.179,458.197L221.25,457.073L219.882,456.918L216.166,457.399L214.685,456.897L213.542,455.66L208.126,446.884L205.594,444.941L202.174,444.446L200.291,445.739L199.014,447.845L197.491,449.802L194.889,450.671L192.082,451.236L189.882,452.593L187.851,454.268L185.523,455.78L183.746,457.3L182.625,459.455L178.089,471.699L177.024,473.683L175.702,472.824L174.032,471.764L170.697,468.277L169.634,463.854L168.99,462.647L168.545,461.411L168.29,460.053L168.196,458.484L166.773,456.903L164.492,455.237L156.12,448.113L145.119,440.523L144.567,437.447L144.645,436.396L145.045,435.211L145.289,433.676L145.012,432.358L144.367,431.073L143.379,430.271L141.863,429.374L139.902,427.851L138.744,427.316L138.477,425.977L135.916,423.125L135.006,422.047L133.76,420.708L131.892,418.745L124.685,412.678L115.962,405.897L112.49,403.041L103.657,396.606L99.545,393.116L94.352,389.171L82.251,374.209L80.774,371.591L82.018,372.53L83.967,374.609L85.439,375.365L87.016,375.543L87.949,374.953L88.804,373.853L90.098,372.525L89.926,373.486L89.604,374.253L89.415,374.987L89.631,375.832L89.992,375.709L90.264,375.52L90.464,375.243L90.603,374.898L90.581,376.143L90.792,377.421L91.369,378.133L92.43,377.699L94.868,378.555L95.262,378.867L95.401,378.894L96.412,380.456L96.661,381.935L97.128,381.935L97.256,381.268L97.5,380.962L97.9,381.023L98.527,381.429L98.611,381.179L98.611,381.062L98.677,381.012L98.994,380.962L99.21,383.464L99.46,384.27L99.927,383.747L100.465,383.43L101.093,383.291L101.787,383.336L101.559,384.297L101.826,384.525L102.426,384.259L103.186,383.764L103.708,383.213L104.225,381.957L104.624,381.429L105.607,381.068L107.107,380.845L108.523,380.801L109.283,380.962L111.072,380.779L111.693,380.462L112.082,379.6L110.783,378.822L110.255,378.633L110.389,377.355L109.056,376.677L107.395,376.043L106.49,374.898L106.024,374.898L106.49,376.11L107.423,379.6L106.457,379.456L105.924,378.956L105.596,378.411L105.296,378.166L104.752,377.877L103.986,376.593L103.442,376.299L102.925,376.226L102.087,375.909L101.576,375.832L101.326,376.01L101.354,376.41L101.432,376.86L101.365,377.193L100.898,377.71L100.46,378.361L100.121,379.028L99.927,379.6L98.966,379.189L98.1,378.633L98.366,377.933L97.961,376.521L98.1,375.832L98.727,375.509L99.527,375.532L100.199,375.476L100.432,374.898L99.627,374.231L97.878,373.653L95.995,373.33L94.796,373.458L93.257,370.307L93.146,369.773L92.447,369.29L92.114,369.29L91.964,369.985L91.714,370.029L90.725,370.557L90.603,370.663L88.865,370.307L87.238,371.53L85.683,373.025L84.084,373.458L83.429,373.091L82.807,372.463L82.362,371.691L82.174,370.874L82.34,370.657L83.134,369.929L83.368,369.773L83.751,369.562L83.218,369.14L82.462,368.79L82.174,368.795L82.063,368.228L82.168,367.684L82.174,367.222L81.752,366.928L81.174,366.839L80.73,366.883L80.43,367.117L80.308,367.589L81.168,369.206L81.402,370.218L80.774,371.091L79.697,370.624L76.843,367.206L75.654,366.422L76.287,367.406L77.798,369.229L78.409,370.196L76.887,369.173L75.066,367.406L73.511,365.388L72.811,363.626L72.811,363.248L72.289,361.687L71.889,355.485L71.379,354.485L64.609,347.816L62.782,346.783L60.711,344.321L59.739,343.543L59.928,343.277L60.206,342.599L58.729,342.199L57.885,341.009L56.941,338.409L54.081,335.598L53.631,334.887L53.32,334.781L52.676,334.198L52.098,333.547L52.01,333.242L51.282,332.914L51.443,332.253L51.943,331.808L52.243,332.075L52.748,333.32L53.998,334.286L55.547,334.781L56.941,334.631L56.78,334.909L56.696,334.964L56.613,334.986L56.43,335.148L57.318,335.514L57.807,335.148L58.329,333.709L58.751,333.709L59.262,335.148L58.862,335.287L58.562,335.475L58.396,335.781L58.329,336.264L58.562,336.681L59.029,336.381L59.378,335.853L59.262,335.575L62.76,335.575L64.659,336.042L65.614,337.181L65.442,338.576L63.926,339.809L64.743,340.709L65.181,341.065L65.576,341.209L67.058,341.343L67.441,341.443L67.614,341.848L67.608,343.032L67.702,343.543L69.091,344.466L69.135,344.788L69.474,345.621L69.84,346.177L70.024,345.655L70.24,345.31L71.201,344.949L71.423,344.721L71.24,343.499L70.79,342.132L70.201,341.182L69.557,341.209L68.813,340.343L67.142,339.187L66.758,338.409L67.558,337.209L68.208,336.764L68.102,336.314L65.881,332.486L64.615,331.186L63.926,331.842L62.877,331.231L62.527,330.908L62.283,331.547L62.277,332.197L62.527,333.709L61.25,332.664L59.517,329.481L58.329,328.997L57.829,329.447L57.507,330.247L57.307,331.02L57.146,331.375L56.496,331.586L56.119,332.142L55.974,332.881L56.008,333.709L55.514,333.209L54.986,332.881L54.381,332.731L53.631,332.731L54.42,331.375L54.264,330.608L52.709,329.464L51.21,330.442L50.199,330.086L49.622,328.742L49.444,326.714L49.5,325.914L49.788,324.719L49.855,324.147L49.855,321.33L49.733,320.586L49.133,319.064L48.933,318.28L49.011,316.164L48.933,315.481L47.789,312.647L46.234,310.498L42.453,306.587L33.907,294.633L33.257,293.45L32.563,291.756L31.974,290.256L31.652,288.834L32.563,290.656L33.257,292.689L34.095,293.878L35.417,295.355L36.472,295.25L37.538,295.716L38.388,296.522L39.088,298.677L40.687,300.343L41.053,301.676L41.481,302.349L43.636,305.02L44.552,305.615L44.968,306.065L48.25,308.709L48.822,309.014L50.832,309.614L51.482,318.097L51.899,319.153L52.709,318.786L52.909,318.086L52.287,317.153L52.476,316.647L53.076,316.386L53.587,316.653L53.953,317.214L54.098,317.814L55.119,316.647L56.719,315.719L58.545,315.153L60.206,315.014L59.812,316.081L59.728,317.23L60.111,318.219L61.128,318.786L61.611,316.481L61.577,315.353L61.128,314.547L63.26,314.253L68.907,315.014L70.956,314.547L68.141,313.464L67.058,312.653L66.248,311.286L65.614,308.742L65.537,307.253L65.826,306.12L65.27,305.948L63.926,305.187L63.626,305.148L62.76,305.187L62.272,305.365L62.238,305.798L62.527,306.815L62.427,307.515L62.194,307.865L61.905,308.098L60.206,310.375L58.64,311.498L56.785,312.047L54.564,312.22L54.109,312.314L53.675,312.453L53.231,312.486L52.709,312.22L52.332,311.714L52.248,310.614L51.765,309.614L51.71,308.987L51.765,307.748L51.482,307.409L50.855,307.248L50.199,307.165L49.855,307.048L49.733,305.976L50.283,305.254L51.282,304.848L52.476,304.72L53.048,304.315L53.165,303.387L52.887,302.421L52.243,301.882L52.243,301.454L52.854,301.288L54.486,301.132L55.03,300.949L55.575,300.282L55.88,298.988L56.963,296.999L56.741,295.822L55.497,293.45L55.863,293.033L55.93,292.717L55.663,292.417L55.03,292.05L54.997,293.411L55.497,296.977L55.308,297.71L54.808,298.388L54.131,298.888L53.398,299.088L52.781,298.877L52.215,297.933L51.765,297.688L50.655,298.066L49.966,299.032L49.422,300.032L48.717,300.488L45.446,301.099L44.313,300.949L43.552,300.049L43.336,298.616L43.452,297.288L43.636,296.716L43.48,296.622L43.014,296.188L42.769,295.755L42.447,295.877L42.053,296.144L41.387,296.422L41.253,296.688L40.954,296.866L40.082,296.716L39.088,296.15L36.689,294.35L35.65,293.956L34.823,293.489L34.223,292.356L34.057,290.967L34.529,289.723L34.307,289.479L34.19,289.29L34.023,288.834L35.35,287.868L35.028,286.279L33.851,284.669L32.585,283.669L33.44,285.724L33.04,287.568L32.807,288.185L32.374,288.118L32.152,287.385L31.652,283.202L30.497,280.203L23.728,271.506L25.499,273.183L26.477,273.661L27.498,273.327L26.527,272.905L26.932,271.989L27.498,271.206L28.043,270.695L28.387,270.584L27.587,270.228L25.588,271.583L24.411,271.284L23.961,270.189L23.528,268.507L23.012,267.34L22.334,267.785L21.829,267.785L21.246,265.352L20.89,264.519L19.858,262.759L18.058,258.688L16.598,256.194L15.693,252.601L13.594,249.891L12,244.865L12.927,243.433L13.433,243.932L12.827,245.249L13.572,245.837L15.77,246.265L15.471,246.881L15.404,247.298L15.515,247.636L15.77,248.092L17.237,248.047L18.264,249.713L18.836,252.046L19.147,254.9L19.535,255.9L20.196,256.7L21.146,257.022L21.679,257.488L21.823,258.493L22.157,259.443L23.267,259.776L22.667,258.61L22.734,257.466L23.062,256.261L23.267,254.9L23.634,253.934L24.544,253.856L25.744,254.123L26.943,254.189L26.943,253.723L26.277,253.412L25.577,252.862L25.111,252.146L25.127,251.346L25.627,250.902L26.288,250.957L27.932,251.735L28.609,252.696L29.12,253.862L29.325,254.9L29.842,256.255L32.307,258.555L33.09,259.776L33.124,261.154L32.652,263.553L33.09,264.519L33.557,264.519L33.851,263.242L34.023,259.099L34.395,257.81L36.022,256.028L36.389,254.9L36.322,253.967L36.222,253.579L36.322,253.329L36.822,252.79L37.222,252.535L38.349,252.146L38.721,251.896L38.904,251.191L38.771,250.469L38.854,249.869L39.654,249.525L40.587,251.346L40.448,249.758L39.654,248.669L39.088,247.531L39.654,245.759L43.691,242.15L44.918,239.695L51.021,232.976L52.709,230.338L53.687,227.512L53.631,218.693L54.142,217.261L55.68,214.206L56.008,212.829L56.08,212.08L56.38,210.619L56.43,209.797L56.274,209.17L55.497,207.423L55.575,206.571L55.786,205.757L56.163,205.024L56.68,204.375L57.018,203.733L56.896,203.142L56.585,202.592L56.43,202.067L56.341,200.61L53.942,187.691L53.165,185.492L53.381,184.875L53.731,183.07L53.864,182.693L54.164,182.493L56.341,180.56L57.079,180.366L57.74,180.849L58.329,182.182L58.612,183.851L58.473,185.233L57.818,187.774L57.946,188.568L58.251,189.318L58.284,189.881L57.585,190.101L57.229,190.395L57.096,191.072L57.152,191.864L57.352,192.48L57.946,191.933L58.312,191.322L58.729,190.823L59.495,190.614L61.727,190.631L62.061,190.848L62.427,191.728L64.215,193.477L64.848,194.804L65.081,197.386L65.515,197.769L66.075,198.128L66.547,198.119L66.758,197.386L66.381,194.465L66.459,193.238L67.18,192.011L70.557,192.96L71.423,193.41L71.789,194.16L72.367,196.528L72.811,197.175L73.111,196.703L75.032,194.793L75.654,194.343L76.687,194.396L77.287,194.815L77.987,196.203L81.385,195.637L83.873,198.161L85.966,201.462L88.193,203.234L85.694,198.669L84.717,197.386L84.534,196.27L85.866,195.662L87.627,195.745L88.698,196.712L89.537,196.187L90.797,194.549L91.536,193.832L93.935,192.316L94.796,192.011L95.895,192.03L97.889,192.763L98.994,192.988L99.999,192.899L102.759,192.011L102.759,191.5L99.332,191.578L97.994,191.189L96.661,190.101L95.612,190.795L94.346,191.406L93.002,191.844L87.732,192.166L86.833,192.48L83.762,191.433L82.901,190.848L81.874,189.923L81.318,189.606L79.153,189.679L78.42,189.332L75.155,186.885L72.789,185.483L71.812,184.481L71.423,183.118L70.956,183.118L70.568,183.948L70.179,184.192L69.324,184.048L68.769,184.214L67.236,184.892L66.758,184.983L66.214,184.2L65.809,181.768L65.081,181.252L64.115,180.277L60.844,172.772L59.978,171.489L58.079,169.349L56.807,168.724L55.608,168.815L54.542,168.765L53.631,167.699L53.576,166.7L53.848,162.94L54.331,162.11L55.813,161.96L57.352,161.641L58.118,161.327L59.506,160.527L60.206,160.244L61.117,160.127L61.711,160.291L62.316,160.541L63.243,160.669L63.804,160.524L64.726,159.88L65.975,159.394L67.047,158.719L68.258,158.195L69.557,158.336L70.673,159.444L71.179,161.019L70.934,162.426L69.79,163.043L66.825,162.41L65.376,162.593L64.437,163.973L66.014,163.49L68.013,163.612L69.613,164.492L70.024,166.3L70.834,166.042L71.434,165.567L71.789,164.873L71.889,163.973L72.711,165.067L72.833,167.055L72.478,169.007L71.889,170.032L72.539,171.972L73.089,172.569L74.255,172.822L73.955,171.742L73.966,170.354L74.299,169.14L74.91,168.632L75.343,168.024L76.043,165.061L76.587,163.973L75.654,162.618L75.421,161.213L75.654,157.87L74.955,149.784L72.539,143.375L72.345,141.734L72.045,140.637L71.467,139.934L71.09,139.137L71.423,137.752L72.278,136.299L73.172,135.619L74.172,135.419L75.404,135.419L76.609,135.078L77.27,134.256L77.737,133.323L78.409,132.628L79.636,132.417L83.617,132.523L84.717,132.862L85.633,134.356L86.205,137.277L86.833,138.727L87.393,137.566L87.66,136.711L89.689,136.945L90.747,137.333L91.875,138.13L93.645,140.154L94.774,141.028L95.98,141.543L97.193,141.727L98.279,141.487L99.083,140.704L99.33,139.808L99.337,137.787L99.696,136.789L101.035,136.616L103.018,136.359L110.465,136.387L129.33,136.446L130.903,136.451L151.326,136.521L166.777,136.569L171.757,136.585L192.195,136.655L192.089,118.774L191.983,100.893L191.899,86.594L191.877,83.011L191.772,65.12L191.743,59.637L191.222,57.02L191.659,56.301L191.927,55.499L192.047,54.663L192.047,53.809L192.167,52.691L192.597,51.911L193.126,51.191L193.535,50.231L193.422,49.324L193.112,48.435L193.238,47.814L211.455,47.143L213.232,46.511L214.092,46.317L215.044,46.42L215.714,46.801L217.104,47.941L220.609,49.091L221.659,49.208L223.98,48.89L229.96,49.077L235.172,48.622L240.341,48.946L244.354,48.639L245.588,48.685L248.346,49.123L251.307,49.25L252.669,48.992L255.292,48.114L256.639,47.919L257.351,47.732L258.776,46.97L259.425,46.892L260.271,47.2L262.507,48.565L263.741,48.816L267.5,47.955L270.123,48.135L273.931,49.377L275.109,49.747L276.703,49.377L277.789,50.196L279.418,50.796L288.65,52.175L290.032,51.904L290.984,51.3L291.767,50.668L292.627,50.309L293.791,50.637L295.349,51.314L296.696,51.611L297.282,50.778L298.241,51.173L299.108,51.244L299.884,50.958L300.582,50.309L302.634,51.046L303.819,51.244L304.567,51.032L305.505,50.584L306.598,50.838L308.509,51.664L311.415,51.3L312.063,51.032L313.432,49.716L314.221,49.147L314.814,48.911L316.894,49.003L318.798,49.377L319.75,50.114L320.202,50.309L320.837,50.316L321.817,49.91L322.289,49.8L323.058,50.114L324.116,50.877L325.138,51.798L325.787,52.599L326.076,53.601L325.794,55.655ZM32.585,247.664L35.056,248.197L35.606,250.546L35.356,253.429L35.417,255.589L34.207,256.394L33.224,256.844L32.291,256.777L31.225,256.055L30.625,255.156L30.619,254.301L30.808,253.39L30.808,252.323L30.497,251.735L29.559,250.746L29.325,249.991L29.325,249.236L29.475,248.714L30.258,247.664L31.025,246.937L32.507,246.032L33.09,245.293L33.457,245.97L33.485,246.531L33.174,246.937L32.585,247.159ZM58.483,149.566L58.981,149.59L58.678,149.772Z"/>
</svg>
