<svg xmlns="http://www.w3.org/2000/svg" viewBox="0 0 420 520" aria-label="Map of Ghana">
  <path fill="currentColor" d="M276.561,14.177L277.13,15.465L278.397,16.642L279.951,17.509L281.357,17.871L282.756,17.726L285.35,17.036L286.788,17.012L289.338,17.992L290.491,19.814L290.736,22.224L290.519,24.981L290.337,25.957L289.802,26.492L289.133,26.92L288.521,27.565L288.15,28.297L286.495,36.114L286.555,36.868L286.945,38.397L286.803,39.224L286.144,39.857L284.584,40.92L283.506,42.296L282.926,43.653L282.519,46.904L282.257,48.005L281.789,49.968L281.74,51.589L282.519,53.196L283.191,53.758L284.03,54.162L284.94,54.399L286.705,54.628L287.249,54.994L287.727,55.462L288.418,55.934L290.807,56.729L291.502,57.157L292.106,57.884L292.998,59.611L293.628,60.376L297.671,62.93L298.881,64.223L302.774,71.52L302.996,71.793L303.58,71.733L303.904,71.275L304.109,70.767L304.31,70.543L306.338,71.343L307.072,71.448L307.939,71.221L308.655,70.868L309.348,70.647L310.13,70.828L310.884,71.588L310.918,72.445L310.663,73.268L310.557,73.932L311.413,75.341L312.714,76.523L313.518,77.761L312.847,79.333L313.913,79.32L317.263,78.759L317.995,79.112L319.555,80.41L317.679,81.814L317.316,83.004L317.097,84.278L316.544,85.319L316.671,87.933L316.27,93.43L317.018,95.435L317.987,96.063L318.828,96.267L319.444,96.779L319.673,98.349L319.4,99.634L319.35,99.872L318.497,100.097L317.316,99.901L315.978,100.157L316.432,100.921L316.386,101.414L316.128,101.895L315.978,102.613L316.104,103.134L317.018,104.97L317.537,106.504L317.49,107.139L316.957,107.616L315.978,108.68L315.362,109.857L315.206,110.939L315.551,114.047L315.528,114.928L313.889,120.955L314,122.397L314.4,123.232L314.947,123.837L315.456,124.608L315.812,125.748L315.986,127.158L315.772,128.513L314.975,129.469L313.605,129.641L312.321,128.926L310.286,126.775L309.192,128.978L309.248,131.243L310.466,132.867L312.847,133.123L315.946,132.33L317.458,132.622L318.114,134.228L317.585,135.295L316.347,135.648L314.937,135.407L313.889,134.715L312.523,135.612L310.687,135.72L306.841,135.287L306.654,135.784L306.296,137.966L306.322,138.46L306.513,138.683L307.072,139.173L307.828,139.707L308.622,140.052L310.57,139.683L311.65,139.74L312.321,140.578L312.029,141.381L311.052,142.057L309.862,142.524L306.677,143.172L306.669,144.275L307.206,145.512L306.583,146.396L306.93,147.433L308.345,147.589L309.767,147.303L313.261,146.076L313.842,145.584L314.142,144.926L314.375,143.358L314.756,142.746L315.914,142.238L317.632,141.929L320.706,141.757L322.141,141.993L326.196,143.478L326.686,144.167L326.82,144.929L326.646,145.724L326.141,146.591L326.125,146.667L326.141,146.743L326.196,146.823L328.47,147.601L329.852,148.816L330.326,150.633L329.615,154.558L329.489,156.827L329.173,157.801L328.399,158.603L327.538,159.107L326.915,159.849L326.843,161.375L327.791,164.145L327.815,165.379L326.891,166.959L325.162,168.509L324.678,169.255L324.686,170.465L324.283,172.958L322.99,175.361L322.204,177.728L323.229,180.128L323.245,180.128L323.245,180.136L326.93,186.42L327.886,190.2L326.205,192.625L326.196,192.638L325.809,193.603L325.698,194.807L325.43,195.828L324.589,196.234L323.598,196.074L322.826,195.836L322.117,195.736L321.312,196.006L321.723,196.31L321.213,197.602L320.412,198.495L319.594,196.757L318.69,196.405L317.727,196.585L317.208,197.318L317.376,198.307L317.861,201.145L320.1,205.99L323.14,210.258L326.196,212.35L327.499,213.865L329.347,215.576L331.337,217.022L336.343,219.383L337.678,222.221L338.665,225.145L341.595,227.586L341.76,228.386L341.737,229.272L341.926,230.405L341.863,231.179L341.91,231.544L342.211,231.808L343.127,231.955L343.411,232.219L343.711,234.118L343.134,235.293L341.91,236.057L338.539,237.557L337.259,238.403L334.717,240.699L334.077,241.006L333.493,241.078L333.098,241.377L333.011,242.376L333.327,243.188L333.919,243.761L334.448,244.423L334.582,245.49L334.164,246.489L333.564,246.954L333.185,247.5L333.587,249.394L333.872,253.023L334.574,255.902L334.614,257.382L334.551,260.256L335.301,265.361L335.356,265.734L335.293,270.353L335.988,274.761L335.822,278.793L336.035,280.299L333.824,279.925L332.845,281.495L332.608,283.885L332.632,285.98L332.197,287.016L331.163,287.55L329.939,287.884L328.936,288.335L328.162,289.091L327.688,289.916L327.412,290.864L327.12,295.34L327.499,299.136L328.731,302.528L331.139,304.666L332.529,304.857L334.045,304.582L336.857,303.539L337.362,304.212L338.586,309.264L338.491,310.932L337.472,313.758L336.762,317.332L334.922,321.949L334.661,324.965L335.001,328.431L334.946,331.78L333.485,334.43L332.498,334.979L329.276,335.822L328.154,335.906L327.041,336.252L327.917,337.429L330.089,339.116L330.989,340.742L330.808,342.039L329.197,344.739L328.683,346.358L328.928,347.094L329.663,347.533L330.594,348.253L332.806,352.382L333.311,353.058L334.622,353.336L335.956,354.074L337.07,355.133L337.717,356.376L337.796,357.624L337.133,361.508L337.559,363.116L338.562,364.036L339.636,364.829L340.307,366.051L341.026,366.123L343.158,366.055L343.853,366.198L344.832,367.158L344.785,367.875L344.248,368.597L343.766,369.576L343.736,370.042L343.632,371.623L344.106,373.511L345.022,375.337L346.23,377.196L347.841,378.853L351.615,380.72L353.534,381.938L356.022,384.944L357.009,385.692L358.572,386.114L364.4,386.137L366.398,392.298L367.583,393.998L368.191,394.443L368.759,394.679L369.336,394.993L369.92,395.666L370.923,397.225L371.744,398.18L372.794,398.718L379.12,399.441L380.02,400.66L379.823,403.362L379.78,403.374L379.289,403.556L375.825,405.425L373.207,407.47L369.327,411.647L368.438,412.991L366.554,416.748L366.2,418.251L366.088,419.836L365.298,423.424L364.633,424.852L362.208,427.13L359.118,428.205L344.531,429.867L317.135,427.868L313.852,428.043L312.03,428.467L311.103,428.836L310.718,429.286L310.332,429.505L308.486,429.586L307.845,429.811L306.396,430.852L301.279,432.239L300.11,433.029L298.008,434.995L295.036,435.848L293.967,436.979L293.121,438.366L291.89,439.625L285.812,441.677L285.458,441.89L284.46,442.889L284.012,443.245L283.341,443.486L282.128,443.595L265.731,448.911L262.274,449.349L261.802,449.58L260.863,450.036L255.248,454.745L254.651,455.611L254.25,456.791L253.221,457.859L250.482,459.545L245.138,460.866L244.224,460.875L243.664,461.428L242.427,462.371L241.158,462.777L240.524,461.69L236.57,464.463L235.593,464.828L231.129,468.497L229.313,470.639L228.163,471.363L222.483,472.193L220.73,472.115L219.61,471.119L219.091,471.778L218.37,472.031L216.48,472.162L214.639,472.63L213.734,472.593L213.346,471.906L213.072,471.213L212.463,471.385L211.524,472.162L210.265,472.274L209.043,472.602L201.072,476.039L200.263,477.163L199.58,477.828L198.019,478.746L194.997,480.116L193.43,480.44L188.456,480.59L187.635,480.821L185.866,481.876L185.036,482.21L184.262,482.269L182.686,482.173L181.908,482.21L180.494,482.669L177.724,484.027L172.407,484.785L170.682,485.434L169.389,486.364L169.336,486.402L168.238,485.896L166.892,485.796L165.593,486.121L164.647,486.873L164.526,487.494L165.058,488.649L164.884,489.254L164.405,489.803L164.088,490.09L158.856,492.681L157.926,493.389L155.722,495.826L155.551,496.388L155.688,496.899L155.65,497.261L154.976,497.395L154.264,497.452L149.016,498.952L143.159,501.58L141.937,502.659L140.09,505.292L138.943,506.39L137.861,506.827L132.594,507.501L131.565,507.919L129.523,508L129.063,507.897L128.506,507.392L128.292,506.602L128.372,505.744L128.192,505.052L127.2,504.774L126.585,504.687L125.428,504.331L124.57,504.247L124.648,503.894L123.933,503.139L120.681,500.537L119.067,499.851L118.331,499.408L118.02,498.728L117.889,498.166L117.553,497.58L117.131,497.112L109.197,494.007L96.27,491.339L83.691,487.06L73.724,486.302L62.712,484.367L52.11,481.115L50.898,480.837L51.227,479.573L51.762,479.435L52.474,479.158L53.341,479.023L58.807,479.064L60.458,479.548L60.915,480L61.847,481.352L62.258,481.639L63.265,481.502L64.832,480.84L65.665,480.59L65.46,478.483L67.583,477.594L70.329,477.157L71.979,476.404L75.024,476.523L76.779,476.269L77.869,475.49L78.603,474.045L78.184,473.552L77.177,472.689L76.937,472.424L76.873,471.724L77.197,470.12L77.237,469.464L76.897,468.582L75.831,467.045L75.614,465.981L76.115,461.232L78.69,461.704L79.704,461.518L80.463,460.552L80.656,459.214L80.328,457.834L78.244,452.939L76.889,447.446L76.708,443.423L76.419,442.184L75.819,441.178L74.84,440.382L69.397,438.976L68.156,439.472L65.668,440.979L64.174,441.166L62.367,440.156L61.955,438.172L62.727,433.373L57.763,433.798L58.512,425.036L58.316,422.259L57.384,419.479L54.441,414.082L53.331,411.337L51.016,398.522L49.389,394.233L47.14,392.175L46.917,391.904L46.009,390.803L39.98,363.642L40.087,362.351L40.638,361.544L42.045,360.763L42.46,360.26L43.96,356.038L43.782,355.525L42.752,353.531L41.796,352.297L41.465,351.517L41.571,348.736L42.851,345.773L51.663,330.611L52.605,330.021L52.657,329.988L52.743,329.935L56.528,328.697L56.915,328.152L57.546,324.301L57.933,323.525L61.435,319.127L62.115,317.631L62.17,316.58L61.83,315.955L61.319,315.319L60.837,314.244L60.766,313.34L64.505,289.725L65.526,286.602L71.044,274.737L71.34,274.231L72.108,273.294L72.402,272.788L72.422,272.37L72.199,271.369L72.262,270.983L72.919,270.357L74.619,269.329L75.227,268.671L75.48,267.818L75.811,262.058L76.034,261.492L76.514,261.436L77.024,261.775L77.41,262.214L77.517,262.461L78.765,261.408L82.251,257.37L83.657,256.365L88.217,254.834L89.793,254.03L90.547,253.031L90.618,251.686L90.124,249.839L89.113,247.618L88.928,246.642L89.252,245.426L89.785,244.395L90.274,243.936L90.906,243.976L91.877,244.435L92.758,244.529L93.8,244.175L97.231,242.143L97.756,240.966L94.24,219.336L90.724,197.69L90.361,196.477L89.67,196.801L89.653,196.773L89.283,196.166L89.481,195.181L90.045,194.667L90.855,194.216L90.938,193.159L89.382,187.764L89.287,186.436L89.113,185.77L88.687,185.586L88.174,185.51L87.72,185.163L86.527,181.533L86.448,179.952L85.955,178.709L84.024,177.676L82.093,177.24L80.135,177.144L79.077,176.968L78.477,176.546L77.987,176.034L77.241,175.609L77.959,174.515L78.275,173.302L78.421,169.431L78.741,168.787L80.368,167.107L81.698,164.366L82.591,162.962L85.015,161.685L85.927,160.213L86.03,158.743L84.829,158.077L83.495,157.781L82.413,156.983L81.813,155.789L81.939,154.328L82.725,153.296L83.767,152.81L84.675,152.231L85.066,150.913L85.066,148.824L84.687,147.525L84.589,146.923L84.9,144.449L84.818,143.346L83.783,142.029L81.027,138.532L78.291,136.024L77.896,135.227L77.762,133.966L77.88,132.718L78.259,131.451L78.915,130.316L79.89,129.469L79.642,129.275L79.061,128.822L78.816,128.111L78.721,127.402L78.334,126.775L77.667,126.439L77.241,126.487L76.822,126.415L76.198,125.716L75.677,124.107L75.961,122.485L77.241,119.895L79.882,116.928L80.368,116.138L80.151,115.379L78.334,112.436L78.003,110.48L78.713,106.959L78.804,104.97L78.307,103.575L76.573,100.957L76.198,99.385L76.198,92.736L75.401,89.231L75.436,87.684L76.435,86.087L77.983,84.866L78.552,84.182L78.804,83.149L78.761,82.151L78.5,81.738L78.003,81.505L77.241,81.03L76.506,80.753L75.839,80.773L75.344,80.589L75.158,79.704L74.884,79.184L74.232,79.024L73.45,78.935L72.783,78.642L72.163,77.376L72.163,75.747L72.546,74.163L73.067,73.027L73.612,72.305L74.2,71.829L74.941,71.564L75.93,71.484L76.767,71.153L77.466,70.422L77.797,69.693L77.501,69.36L75.634,69.312L74.39,69.101L73.45,68.62L70.767,66.243L70.169,65.261L69.936,63.743L69.711,63.378L68.679,62.344L68.325,61.888L68.12,61.129L67.994,59.47L67.808,58.705L65.518,54.616L65.194,53.132L65.411,52.362L66.436,50.506L66.902,49.23L67.117,48.933L67.287,48.59L67.285,48.087L67.064,47.742L66.712,47.573L66.383,47.511L66.233,47.511L66.153,47.162L65.972,46.376L66.205,45.909L67.022,45.096L67.441,44.358L67.717,42.582L69.002,40.476L69.845,36.868L70.41,35.248L71.437,34.06L72.655,33.121L73.683,31.981L74.114,30.2L73.656,28.71L72.819,27.33L72.361,25.844L72.572,25.291L72.465,24.841L79.053,24.961L79.085,25.788L80.758,25.771L87.929,25.699L102.842,25.546L121.324,25.363L138.515,25.19L155.232,25.026L167.105,24.909L167.997,24.4L168.546,23.034L169.877,22.616L179.531,22.918L180.484,23.292L181.25,23.592L183.787,24.587L185.702,24.941L195.423,25.038L204.63,25.126L205.305,23.941L207.473,23.604L218.007,24.444L218.651,24.575L219.231,24.981L219.764,26.033L220.155,26.282L220.953,26.25L220.443,27.314L221.774,27.127L223.484,25.237L225.118,24.961L225.557,24.42L226.007,24.231L226.437,24.404L226.832,24.961L226.832,24.981L235.539,25.14L236.075,25.15L236.178,26.029L236.517,26.101L237.05,25.904L237.761,25.969L238.215,26.514L237.887,27.137L237.315,27.754L237.086,28.297L240.754,31.848L242.092,31.018L242.866,29.26L243.423,27.35L244.13,26.053L245.227,25.639L246.814,25.468L249.791,25.571L250.06,25.484L250.309,25.351L250.538,25.178L250.727,24.981L250.727,24.969L251.446,24.078L253.456,23.119L254.36,22.381L254.774,21.556L254.944,19.79L255.299,18.657L256.764,16.787L258.241,16.787L259.69,17.959L261.064,19.609L264.894,16.795L265.863,15.847L266.461,14.69L266.29,13.988L265.99,13.258L266.203,12Z"/>
</svg>
