<svg xmlns="http://www.w3.org/2000/svg" viewBox="0 0 420 520" aria-label="Map of Gambia">
  <path fill="currentColor" d="M22.002,311.045L20,309.315L17.967,308.617L17.651,307.661L18.202,306.546L19.128,304.601L18.887,302.562L16.335,295.89L16.238,294.285L16.559,287.964L16.254,286.205L15.516,284.412L13.268,281.828L12.69,280.035L13.718,277.869L13.236,277.165L12,274.096L13.183,272.666L14.595,268.508L15.965,267.639L17.571,267.254L19.283,266.302L20.782,265.114L28.472,255.589L31.843,252.783L32.116,254.17L32.855,255.149L33.989,255.897L35.338,256.558L37.655,255.325L39.994,255.215L42.027,256.019L43.429,257.488L44.141,259.925L42.696,260.344L40.529,260.492L39.02,262.104L41.064,263.931L42.798,267.804L43.74,271.83L43.429,274.096L48.278,279.87L49.343,280.64L55.995,280.937L57.884,281.482L59.601,282.565L60.629,283.511L61.978,284.159L64.653,284.412L65.927,285.308L66.681,287.414L66.74,289.833L65.959,291.707L68.544,289.531L69.716,289.465L71.434,290.784L70.663,289.415L68.26,286.958L67.757,286.595L67.425,284.88L66.505,283.758L65.092,283.258L63.262,283.412L63.262,282.488L67.131,282.565L68.935,282.29L70.535,281.482L71.835,284.187L73.344,283.587L75.132,281.713L77.272,280.64L79.718,279.903L84.566,276.67L87.194,275.938L90.854,277.088L91.411,279.766L90.844,282.867L91.186,285.248L93.541,285.902L96.73,284.94L101.225,282.488L101.225,281.482L99.78,281.641L98.432,282.103L97.217,282.851L96.158,283.906L94.911,284.83L94.354,284.038L93.755,280.332L93.685,278.826L93.402,277.506L92.577,276.956L91.919,276.631L91.496,275.812L91.25,274.751L91.186,273.634L91.603,271.154L92.684,269.47L97.95,265.053L98.935,263.986L99.352,262.566L99.92,261.906L101.204,262.143L103.35,263.017L121.797,264.024L128.839,262.346L131.349,262.104L132.789,262.176L133.532,262.302L134.191,262.335L135.427,262.104L136.406,261.675L137.113,261.081L137.642,260.531L138.044,260.256L140.912,260.079L149.394,261.086L152.097,260.795L159.76,258.407L161.002,257.691L163.463,255.909L164.694,255.545L165.978,255.997L167.852,257.955L169.136,258.407L170.987,258.374L172.357,258.154L173.61,257.614L175.097,256.558L176.237,255.215L178.324,251.924L179.593,251.016L181.166,250.956L182.804,251.473L184.297,252.309L185.469,253.245L186.828,253.861L188.241,253.625L189.595,253.08L190.82,252.783L193.314,253.493L194.919,255.16L196.161,257.031L197.552,258.407L202.08,259.903L207.848,260.266L212.553,258.308L213.874,252.783L213.189,252.783L212.932,252.783L212.9,252.783L212.649,254.813L211.686,256.613L210.31,257.912L208.86,258.407L206.388,258.115L201.876,256.844L199.837,256.558L197.959,255.886L195.792,254.324L192.607,251.44L191.452,250.889L190.285,251.11L189.14,251.583L188.086,251.858L186.897,251.572L185.886,250.933L185.094,250.295L184.527,250.009L182.707,249.591L181.219,248.809L179.496,248.435L176.906,249.167L175.568,250.229L173.637,252.871L172.325,253.707L170.078,253.817L166.54,252.133L164.245,251.858L161.869,252.403L156.078,255.545L151.385,256.987L109.253,260.311L105.089,258.808L102.499,258.407L100.027,258.946L97.651,260.245L93.958,263.017L88.446,268.629L87.194,269.569L86.188,270.015L85.214,270.84L84.218,271.225L83.095,270.4L83.02,269.404L83.41,268.002L83.651,266.417L83.095,264.866L80.874,266.913L80.601,268.035L81.387,269.569L80.071,270.257L79.509,270.4L79.509,271.324L80.135,271.517L80.745,271.929L81.387,272.171L78.787,273.513L74.307,274.173L69.759,274.322L66.938,274.096L56.744,271.583L52.489,271.324L53.287,270.131L54.898,266.792L55.187,265.372L54.898,263.496L53.597,260.817L53.297,259.793L52.762,258.847L50.338,257.02L49.509,255.523L48.203,254.72L47.924,254.214L47.924,251.44L49.048,245.759L48.899,243.624L48.155,241.84L47.287,240.506L55.525,240.539L63.695,240.567L71.857,240.602L80.026,240.63L88.202,240.665L96.365,240.693L104.534,240.728L109.891,240.742L112.697,240.749L120.866,240.777L129.042,240.812L137.204,240.84L145.374,240.875L153.55,240.903L161.712,240.938L169.888,240.966L178.051,241.001L184.487,241.022L186.553,240.323L186.818,234.949L187.139,233.116L187.301,232.193L188.334,229.217L189.693,226.384L191.154,224.079L195.252,219.626L200.812,215.519L206.902,213.199L212.597,214.116L213.827,215.292L216.376,218.696L217.49,219.542L220.29,218.874L230.199,212.503L239.789,208.955L242.603,209.095L250.432,212.083L263.713,212.685L268.518,214.291L271.01,216.32L273.16,218.069L274.825,220.378L276,222.873L278.556,231.655L279.467,232.686L284.87,235.977L286.712,236.645L288.336,236.12L296.41,231.578L301.738,230.141L307.148,230.553L312.796,233.211L315.341,235.263L317.119,237.505L318.369,240.092L320.126,245.968L320.979,247.782L322.308,249.24L323.378,250.011L332.92,256.879L336.081,258.371L338.483,258.707L340.763,258.155L348.487,255.38L355.777,250.809L358.271,249.722L365.859,247.996L371.942,244.86L374.609,244.189L376.023,244.14L378.31,244.336L379.683,244.119L381.229,243.427L383.907,241.843L385.671,241.557L388.433,242.039L391.774,243.21L394.931,244.825L397.133,246.632L397.812,247.81L398.652,250.376L399.335,251.515L399.61,251.752L400.534,252.546L403.518,254.318L404.847,255.422L408,261.816L407.494,268.733L403.749,274.472L397.235,277.335L387.298,278.194L382.017,279.622L376.716,279.685L371.072,281.742L368.795,281.714L366.824,282.604L360.507,287.394L357.632,288.822L353.826,288.955L346.686,287.607L339.207,288.27L335.649,287.991L332.21,287.01L327.415,284.514L326.022,283.554L324.778,282.43L323.772,281.071L322.301,279.539L320.551,279.043L316.412,278.875L314.509,278.32L312.762,277.321L311.545,276.182L307.78,272.659L306.278,272.121L302.017,273.197L297.144,273.773L292.339,273.197L287.942,271.328L284.272,268.034L281.621,264.314L280.214,263.441L277.523,262.924L275.11,262.134L270.713,259.423L268.735,258.839L263.699,258.427L259.254,257.257L250.657,252.84L250.636,252.826L250.609,252.805L250.589,252.798L244.057,248.034L238.151,242.459L234.536,240.092L231.532,241.308L228.791,244.168L225.816,247.272L223.974,250.278L223.478,258.644L222.683,262.382L219.978,265.924L216.199,268.45L211.89,270.053L207.608,270.846L202.763,270.853L188.415,267.779L184.31,267.598L181.232,268.761L178.193,270.427L174.238,271.758L172.09,271.974L163.221,271.105L161.563,271.147L155.657,273.04L146.488,273.927L144.966,274.772L144.443,276.679L144.22,286.261L144.171,288.368L143.926,297.991L143.043,298.644L138.115,298.602L134.609,298.569L126.154,298.49L109.013,298.337L79.918,298.071L59.936,297.89L38.262,297.691L32.54,297.635L27.952,298.665L26.009,301.966L25.594,303.264L23.514,305.323L22.678,306.425L22.203,307.936Z"/>
</svg>
