<svg xmlns="http://www.w3.org/2000/svg" viewBox="0 0 420 520" aria-label="Map of Guinea">
  <path fill="currentColor" d="M107.016,308.806L106.414,308.437L105.921,307.988L105.697,307.385L105.891,306.558L106.036,306.532L106.833,306.558L107.04,306.475L107.024,306.281L106.959,306.048L107.016,305.852L108.473,304.345L109.483,302.673L110.113,301.873L111.027,301.358L111.972,301.314L113.686,301.661L114.67,301.358L114.67,301.021L111.425,301.142L109.887,300.992L109.236,300.434L109.333,300.222L109.802,299.787L109.965,299.51L109.965,298.805L110.389,297.714L110.66,296.592L109.483,297.813L108.966,299.131L108.656,300.559L108.108,302.128L106.812,301.562L106.258,301.206L105.891,300.618L106.349,300.348L106.453,299.846L106.29,298.436L106.349,298.444L106.477,298.183L106.597,297.815L106.651,297.516L106.538,297.327L106.025,297.032L105.891,296.926L105.736,295.839L105.721,294.232L106.077,293.233L107.016,293.97L106.87,292.784L106.894,292.28L107.016,291.754L106.651,291.754L106.329,292.148L105.891,292.372L105.322,292.471L104.631,292.493L104.253,292.731L103.988,293.29L103.449,295.793L103.098,296.301L101.868,295.702L101.321,295.531L101.097,295.185L101.516,294.373L100.986,293.898L100.465,293.048L100.091,292.014L100.028,290.983L100.393,289.966L101.56,288.436L101.916,287.289L101.516,287.289L100.222,288.297L98.245,288.436L96.443,287.862L95.652,286.734L95.285,285.118L95.291,284.272L95.852,283.409L96.364,282.828L96.76,282.121L97.018,281.268L97.109,280.268L96.744,280.268L95.565,282.682L94.848,283.7L93.864,283.997L93.122,283.521L92.381,282.533L91.834,281.348L91.677,280.268L90.046,280.956L88.752,281.704L86.899,282.779L85.413,283.224L85.344,283.35L84.957,283.594L84.527,283.693L84.323,283.409L84.436,282.951L84.714,282.801L85.066,282.726L85.413,282.489L87.146,280.013L88.25,278.749L88.884,277.31L89.683,276.034L89.831,275.188L89.759,272.082L89.822,271.698L90.07,271.443L90.8,271.156L90.945,270.808L91.304,270.2L92.09,269.821L92.848,269.331L93.137,268.401L92.033,269.001L91.364,269.159L90.841,268.838L88.51,266.058L88.328,265.443L88.115,265.503L87.959,265.569L87.603,265.78L88.189,267.48L88.363,269.009L87.789,270.226L86.143,270.993L84.179,270.792L83.204,269.51L83.063,267.771L83.593,266.184L85.813,263.388L86.684,261.616L86.508,259.827L86.045,259.43L85.856,260.156L85.765,261.19L85.615,261.713L85.042,262.066L83.988,263.604L83.23,263.931L83.298,264.16L83.067,264.325L81.204,265.042L80.989,265.053L79.868,264.967L78.906,264.764L78.098,264.471L77.759,264.1L77.446,263.492L76.695,262.551L75.789,261.686L75.014,261.309L73.572,260.399L73.276,259.997L72.625,258.718L72.151,258.502L71.252,258.454L70.804,258.317L70.4,257.988L69.349,256.87L68.55,256.533L67.985,256.44L67.416,256.231L66.595,255.556L66.406,254.21L67.247,252.617L68.624,251.808L70.042,252.798L69.651,252.145L68.919,251.245L68.204,250.605L67.89,250.747L67.488,251.435L66.68,251.148L66.061,250.524L66.213,250.173L67.37,249.703L68.27,248.58L69.714,246.1L68.934,246.475L68.38,246.965L67.325,248.134L66.747,248.505L65.288,249.18L64.94,249.432L64.842,250.093L64.94,252.595L64.784,253.209L64.341,253.767L63.654,254.162L62.755,254.276L61.532,253.91L60.609,253.089L60.112,252.033L60.166,250.947L61.022,250.063L62.334,249.094L63.109,248.112L62.355,247.212L62.147,248.006L61.534,248.452L60.709,248.646L59.838,248.69L59.968,249.904L59.024,250.815L57.838,251.175L57.251,250.747L57.082,250.371L56.708,249.913L56.332,249.308L56.161,248.505L56.339,248.112L56.682,247.77L56.895,247.432L56.691,247.042L56.404,246.936L56.111,247.013L55.883,247.19L55.796,247.397L55.29,248.267L54.117,247.613L50.9,244.661L50.349,244.391L49.601,244.215L48.793,244.272L48.064,244.488L47.366,244.566L46.652,244.215L45.553,245.292L45.014,244.718L44.84,243.387L44.827,242.175L45.249,240.427L45.229,239.738L44.992,239.029L44.695,238.692L44.337,238.471L41.031,235.035L40.457,233.843L40.303,232.703L40.323,231.318L40.59,230.075L41.12,229.399L41.15,229.359L41.129,229.361L40.275,229.436L39.688,229.84L39.198,230.377L38.598,230.843L37.873,231.108L36.96,231.25L36.135,231.093L35.683,230.47L35.318,230.47L34.949,231.157L34.597,230.914L34.335,230.123L34.228,229.173L34.276,228.219L34.419,227.49L34.988,225.99L35.579,226.186L36.296,225.603L37.073,224.757L37.873,224.171L36.583,224.14L36.153,223.438L36.218,222.448L36.869,219.415L37.293,218.65L37.873,218.978L38.203,218.978L38.307,218.166L38.711,217.744L39.154,217.514L39.363,217.258L40.058,214.83L41.348,212.234L42.089,211.931L42.503,211.202L42.573,210.333L42.278,209.603L42.486,209.355L43.007,208.559L41.956,208.868L41.815,209.291L41.997,209.895L41.88,210.748L40.088,212.009L39.875,212.234L39.098,212.836L38.194,214.202L37.449,215.659L36.83,217.421L36.096,218.593L34.593,220.428L33.086,221.758L32.354,222.032L32.039,221.374L32.145,220.527L32.445,219.93L32.908,219.543L33.5,219.318L33.103,219.23L32.784,219.243L32.458,219.387L32.039,219.685L31.311,218.978L31.976,216.813L32.393,215.887L32.964,215.034L33.294,214.718L34.048,214.211L34.411,213.902L34.693,213.477L34.836,213.097L34.94,212.969L34.662,212.86L34.228,212.606L33.52,213.53L31.109,215.405L30.488,216.329L29.865,218.359L29.124,218.978L28.607,217.921L27.929,217.245L27.389,216.497L27.269,215.235L27.988,215.261L28.607,214.764L29.098,214.03L29.454,213.349L29.715,212.635L29.884,211.814L29.943,211.115L29.852,210.748L30.001,210.434L30.08,210.195L30.184,209.603L29.2,210.333L28.859,210.775L28.729,211.288L28.47,211.527L26.939,212.234L26.541,212.234L26.489,211.62L26.522,211.031L26.659,210.496L26.939,210.008L26.617,209.51L26.581,209.028L26.802,208.574L27.269,208.152L26.266,208.057L25.953,207.422L26.111,206.597L26.541,205.922L27.213,205.489L28.147,205.135L29.146,204.898L30.019,204.812L30.649,204.462L31.011,203.696L31.244,202.933L31.474,202.586L32.373,202.338L33.37,201.143L34.228,200.692L33.826,200.384L33.559,200.05L33.136,199.176L33.038,199.687L32.873,200.178L32.612,200.546L32.223,200.692L31.924,200.762L31.087,201.101L30.914,201.234L30.699,202.32L30.127,203.232L29.311,203.661L28.364,203.292L28.103,203.546L27.829,203.666L27.465,203.705L26.939,203.696L27.247,202.654L26.939,201.991L26.437,201.851L26.177,202.382L24.684,204.407L23.023,204.09L21.965,200.993L20.677,201.063L21.589,202.004L21.733,203.006L21.448,203.971L21.075,204.812L19.962,203.962L19.324,203.723L18.488,203.696L20.26,205.055L20.899,205.774L21.075,206.665L20.553,207.659L19.543,208.667L18.566,209.368L18.123,209.435L18.012,209.278L17.76,209.225L17.51,209.278L17.395,209.435L17.452,209.769L17.706,210.288L17.76,210.565L17.76,212.42L17.986,212.73L18.488,212.969L18.989,213.305L19.218,213.902L19.124,214.185L18.488,215.235L17.53,214.757L15.588,214.454L14.645,213.902L13.523,212.728L12.623,211.491L12.089,210.319L12,209.258L12.363,208.245L13.186,207.207L13.575,207.008L14.628,206.69L14.845,206.48L14.906,206.081L15.071,205.705L15.295,205.382L15.54,205.15L15.54,204.812L15.301,204.829L15.245,204.739L15.256,204.586L15.21,204.407L16.726,202.845L16.726,202.836L18.516,200.693L23.636,190.744L24.698,186.469L25.5,184.423L30.796,176.624L31.754,175.558L33.05,174.842L35.26,174.605L39.696,175.12L41.902,174.724L46.635,172.126L51.602,169.399L52.282,168.856L52.639,168.315L53.257,167.006L53.675,166.535L54.246,166.225L54.524,166.262L54.831,166.431L59.299,166.724L60.529,166.558L61.07,166.656L61.538,166.989L61.997,167.394L62.507,167.701L63.38,167.907L64.122,167.876L65.725,167.594L66.569,167.577L68.901,167.955L69.898,167.589L72.199,166.18L72.622,165.854L73.78,166.434L74.853,166.414L75.772,165.859L76.461,164.825L76.612,164.301L76.727,163.054L76.486,162.437L76.646,162.146L77.447,162.16L77.914,162.496L78.091,163.586L78.541,163.868L79.31,164.087L79.343,164.437L79.227,164.842L79.543,165.245L80.615,165.397L81.986,165.144L83.28,164.625L84.125,163.992L84.401,163.268L84.678,160.923L84.689,159.946L83.874,153.52L84.051,151.253L84.517,149.045L84.445,148.013L83.859,147.114L83.351,146.86L81.471,146.564L80.604,146.186L79.971,145.748L78.803,144.448L78.506,143.921L78.371,143.503L78.121,143.182L76.663,142.668L76.127,142.287L75.084,141.274L74.065,140.645L72.984,140.29L71.585,140.092L71.176,139.892L71.398,139.291L71.403,138.123L71.538,137.561L72.702,136.229L75.946,134.71L77.237,133.643L78.25,133.034L79.71,132.681L80.615,132.946L79.928,134.183L83.543,134.137L85.092,133.559L85.988,132.17L86.202,130.73L86.63,129.671L86.682,129.036L86.515,127.457L86.569,126.757L86.682,126.302L87.621,124.051L87.82,123.113L87.676,122.178L87.074,121.068L84.384,117.674L83.874,116.187L83.784,114.969L84.213,111.371L101.482,112.007L103.882,112.664L104.05,112.711L104.296,112.815L104.755,113.143L105.013,113.239L105.325,113.217L105.471,113.084L105.595,112.928L105.853,112.841L107.452,112.501L107.921,112.468L108.37,112.592L109.028,113.022L109.493,113.098L109.956,113.024L110.86,112.77L111.262,112.739L111.558,112.883L112.068,113.434L112.311,113.559L112.526,113.522L113.202,113.318L113.679,113.321L114.055,113.265L114.407,113.299L114.83,113.59L115.331,112.982L116.292,113.48L117.27,113.448L118.193,113.296L119.007,113.42L119.691,114.166L119.921,115.195L119.863,116.295L119.66,117.236L118.866,119.095L118.673,119.997L118.91,121.059L119.525,121.941L120.313,122.37L121.24,122.463L122.274,122.348L123.226,122.72L124.1,122.658L124.715,122.122L124.89,121.068L125.784,118.889L127.725,118.867L129.811,119.957L131.137,121.127L131.113,121.342L131.028,121.709L131.141,122.175L131.702,122.692L132.213,122.89L133.795,123.006L134.646,123.418L134.876,123.955L135.19,124.404L136.291,124.548L139.739,124.353L140.835,124.48L141.877,124.913L142.755,125.627L144.257,127.308L144.543,127.827L144.583,128.208L144.777,128.42L145.539,128.443L145.607,128.423L146.006,128.304L147.565,127.443L148.607,127.036L149.507,126.853L150.431,126.895L151.552,127.169L153.866,128.008L154.821,128.7L156.336,131.038L157.201,131.478L166.216,129.121L168.191,128.014L169.959,126.39L170.916,125.918L172.24,125.876L175.459,126.952L176.596,127.065L177.305,126.921L179.335,125.805L179.925,125.39L180.157,125.297L180.526,125.294L180.631,125.353L180.703,125.444L183.93,126.808L185.028,127.048L189.395,127.231L191.411,126.895L195.518,125.356L197.736,124.941L202.335,124.591L204.136,124.777L207.639,126.048L209.112,126.107L209.101,127.169L208.089,127.308L206.803,127.251L205.973,127.711L205.747,128.937L206.097,131.1L206.114,132.359L205.118,134.519L203.601,136.105L202.74,137.705L203.711,139.912L204.715,140.817L207.984,142.276L208.935,143.049L211.093,145.96L211.981,146.736L213.023,147.438L214.116,147.996L215.167,148.369L216.207,148.374L217.925,147.658L218.797,147.61L219.641,147.379L220.433,146.555L221.004,145.512L221.337,143.935L221.693,143.751L222.146,143.726L222.57,143.52L223.329,142.31L223.575,142.013L223.621,141.957L225.345,140.71L225.96,140.005L226.653,137.66L227.053,137.11L227.776,136.96L229.02,137.005L231.339,136.232L232.401,136.184L233.706,136.539L234.661,137.239L236.804,140.609L238.045,141.54L239.297,142.135L240.257,142.928L240.599,144.448L240.456,144.933L239.932,145.898L239.857,146.341L240.106,146.919L241.535,148.371L243.705,152.536L245.253,154.146L247.462,154.055L248.257,153.678L248.786,153.165L249.374,152.234L249.848,151.228L250.047,150.475L250.461,149.928L251.429,149.262L252.532,148.693L253.36,148.428L252.985,147.224L253.575,146.564L254.645,146.053L255.729,145.277L255.74,144.883L255.591,144.304L255.611,143.78L256.11,143.548L256.298,143.342L255.859,142.245L255.914,141.72L256.882,141.373L259.434,141.576L259.953,140.786L260.328,140.338L262.162,138.797L262.865,138.331L263.216,138.622L263.569,138.803L264.361,139.076L264.322,138.292L264.625,138.078L265.111,138.041L265.616,137.77L265.845,137.259L265.952,137.138L266.33,137.417L266.485,137.73L266.622,137.736L266.945,137.09L268.975,136.274L269.4,136.494L269.659,136.853L269.996,137.189L271.756,137.541L273.629,138.436L274.671,138.639L275.973,138.585L276.357,138.639L276.881,138.876L277.609,139.505L278.031,139.776L278.402,139.891L278.58,139.946L279.468,139.985L280.012,140.112L280.657,140.448L281.747,141.306L282.395,141.622L283.416,141.935L285.275,142.925L286.345,143.103L287.324,143.385L289.161,144.86L290.124,145.323L290.637,145.334L291.73,145.162L292.102,145.156L292.67,145.387L293.536,146.067L294.08,146.4L295.04,146.71L298.011,146.778L299.301,145.382L299.969,144.445L300.223,143.754L300.11,142.626L300.184,141.695L300.565,140.851L301.373,139.988L303.072,138.876L309.08,136.861L310.134,135.899L311.003,135.289L313.176,134.256L314.103,134.129L317.377,134.699L318.624,133.432L318.886,132.726L318.721,131.427L319.424,131.227L319.901,130.36L320.136,129.324L320.1,128.629L319.799,128.361L318.9,128.16L318.499,127.926L318.244,127.406L318.216,126.921L318.073,126.514L316.602,125.712L315.637,124.788L314.864,123.853L314.58,123.294L315.35,122.316L317.874,121.695L318.765,121.056L319.132,120.989L319.441,121.039L320.152,121.458L320.905,121.74L321.316,121.503L321.714,121.158L322.412,121.116L326.489,121.989L328.739,122.74L335.121,126.06L336.932,127.003L337.889,128.03L338.485,129.256L338.573,130.462L338.09,131.676L337.39,132.763L336.822,133.914L336.733,135.346L336.908,135.89L337.428,136.76L337.608,137.304L337.999,137.925L338.648,137.903L339.699,137.474L340.499,137.936L341.199,138.893L341.618,140.101L341.569,141.322L340.769,143.469L340.537,144.657L340.761,145.689L341.743,146.507L342.92,146.572L344.142,146.428L345.251,146.628L346.222,147.475L346.454,148.4L346.402,149.429L346.483,150.599L346.746,151.197L347.108,151.715L347.395,152.251L347.439,152.9L344.758,166.82L345.756,166.752L346.655,167.158L347.535,167.693L348.495,168.019L349.599,167.862L350.462,167.462L351.201,167.282L351.929,167.794L353.113,171.72L353.292,172.701L353.736,173.8L354.327,174.833L354.925,175.62L357.838,176.946L359.278,177.044L360.646,175.964L360.944,176.643L361.188,177.805L361.396,178.798L361.821,179.598L362.45,179.839L363.926,179.881L367.15,180.868L368.756,181.64L369.947,182.633L368.985,182.886L367.876,183.406L367.239,184.113L367.672,184.928L368.654,185.111L369.63,184.95L370.176,185.198L369.873,186.607L369.25,187.328L368.273,187.662L367.195,187.721L366.251,187.608L364.188,187.137L363.689,187.525L363.126,188.743L363.167,188.949L363.333,189.217L363.451,189.543L363.358,189.936L363.178,190.062L362.649,190.11L362.458,190.178L362.006,190.466L360.911,190.944L360.527,191.175L359.879,192.117L359.573,194.055L359.121,194.911L358.649,195.162L357.569,195.178L357.132,195.347L356.641,196.001L356.624,196.536L356.759,197.058L356.721,197.675L356.157,198.761L353.695,201.268L353.22,201.955L352.782,202.853L352.578,203.81L352.818,204.664L353.634,205.232L354.473,204.979L355.394,204.497L356.448,204.387L357.347,204.533L358.31,204.557L359.256,204.446L360.114,204.182L361.074,203.52L361.603,202.69L362.985,199.767L363.876,199.77L364.946,200.116L366.031,200.076L366.593,199.933L367.079,200.012L368.072,200.359L368.596,200.282L369.628,199.705L370.267,199.689L371.443,200.293L372.549,201.341L373.373,202.594L373.696,203.821L373.773,209.44L373.655,210.451L373.338,210.942L372.96,211.362L371.843,214.387L371.729,215.507L373.136,216.059L373.373,217.026L374.207,227.771L374.8,229.194L376.43,231.442L377.765,233.961L378.741,234.469L379.892,234.493L381.122,234.25L381.944,233.901L382.399,233.623L382.752,233.749L383.287,234.599L383.464,235.26L383.527,236.695L383.817,237.39L384.851,238.123L386.242,238.386L389.143,238.524L390.181,239.125L390.967,240.278L391.518,241.646L391.871,242.886L391.979,244.279L391.689,245.541L390.534,248.144L389.99,248.757L389.596,249.428L389.323,250.158L389.143,250.944L388.12,252.276L386.892,252.965L384.175,253.989L383.174,254.915L382.096,256.383L381.522,257.744L382.035,258.342L382.708,258.583L382.504,259.111L381.847,259.637L380.703,260.077L380.656,260.556L380.827,261.109L381.02,261.55L381.199,261.659L381.497,261.676L381.803,261.754L381.999,262.057L382.123,263L382.206,263.294L382.118,263.423L381.861,263.493L381.704,263.688L381.922,264.181L382.143,264.259L383.144,264.175L383.389,265.334L381.426,279.417L381.356,279.913L381.387,281.106L381.569,282.337L381.823,283.297L382.222,284.162L385.328,288.586L386.222,289.552L387.097,290.009L388.258,290.249L389.455,290.305L390.432,290.213L391.527,289.799L393.557,288.647L394.685,288.409L396.889,288.412L397.168,288.882L395.761,293.193L395.59,294.443L393.684,299.139L393.742,301.108L396.456,302.188L397.118,302.073L397.656,301.847L398.1,301.936L398.831,303.32L399.41,303.915L400.602,304.844L402.825,306.094L403.498,306.916L403.422,306.973L402.569,307.61L401.294,307.803L400.241,307.803L399.214,307.923L394.426,310.381L393.62,311.234L393.618,311.24L393.099,312.55L392.84,313.826L392.613,316.477L391.64,321.16L392.175,322.827L394.619,323.57L395.802,323.707L399.002,324.681L399.239,324.651L399.801,324.365L400.114,324.373L400.461,324.606L400.887,325.286L401.143,325.584L402.149,326.47L402.519,326.926L403.796,329.258L404.297,329.842L405.785,330.847L406.166,331.313L406.444,332.323L406.317,334.394L406.439,335.534L407.104,337.778L407.101,338.715L406.717,340.071L406.552,341.363L406.891,342.514L408,344.805L404.888,345.146L403.415,344.943L402.205,344.176L400.527,340.794L399.385,339.247L398.216,339.438L398.02,340.254L398.161,341.145L398.064,341.904L397.157,342.322L396.263,342.291L395.395,342.03L394.633,341.604L394.048,341.087L393.634,340.371L393.347,339.595L392.978,338.882L392.316,338.356L391.554,338.217L390.735,338.326L389.143,338.743L388.652,338.667L387.715,338.745L387.277,338.717L386.928,338.546L386.346,338.027L385.891,337.877L384.81,337.96L383.036,338.667L381.947,338.782L380.035,338.392L379.29,338.493L376.697,340.558L376.402,340.939L376.408,341.587L376.686,342.166L377.059,342.76L377.337,343.444L377.423,344.554L376.764,347.626L376.764,348.637L376.888,349.649L376.73,350.269L375.859,351.19L375.784,351.757L380.217,354.687L385.417,356.285L385.927,356.212L389.143,355.106L389.805,355.098L389.852,355.623L389.541,356.371L389.143,357.033L388.823,358.674L388.845,359.486L389.143,360.251L390.139,360.852L391.027,361.841L391.678,363.025L391.816,363.569L391.976,364.203L391.03,364.128L390.382,363.718L389.866,363.273L389.342,363.104L387.108,363.47L386.294,363.443L386.393,363.902L386.305,365.206L385.759,367.303L383.102,371.35L382.978,373.513L383.376,374.073L384.567,375.109L384.84,375.696L384.737,376.236L384.435,376.534L384.084,376.746L383.836,377.044L383.629,377.91L383.436,379.705L383.182,380.485L381.467,382.461L381.431,382.684L381.58,383.212L381.547,383.435L381.329,383.655L380.725,383.997L380.487,384.209L379.42,385.573L379.166,386.185L379.144,386.594L379.318,387.468L379.293,387.846L377.759,389.571L375.817,388.723L373.796,387.148L372.005,386.688L370.11,387.256L369.117,387.337L367.84,385.876L366.494,386.577L364.069,388.834L362.458,387.802L360.74,386.53L359.741,385.311L359.408,383.839L359.694,381.821L353.334,381.489L352.911,382.564L351.513,384.27L351.145,385.386L351.014,387.248L350.936,387.554L350.622,388.11L350.525,388.419L350.586,388.753L350.801,388.851L351.041,388.92L351.185,389.165L351.243,390.42L351.036,391.488L350.506,392.465L349.601,393.442L348.112,394.34L347.792,394.604L347.601,395.105L347.522,396.204L347.32,396.682L346.868,397.097L345.996,397.35L345.495,397.67L344.523,398.874L344.043,399.62L343.789,400.198L343.9,401.113L344.294,402.084L344.537,403.104L344.192,404.172L343.602,404.517L341.29,405.404L340.584,405.487L339.572,403.869L338.888,403.449L338.601,404.714L338.038,404.461L337.793,404.539L337.616,405.382L337.379,405.41L336.195,405.763L335.765,406.01L334.849,405.935L334.113,406.341L333.44,406.953L332.7,407.492L331.992,407.715L331.241,407.843L330.94,407.943L330.521,408.082L329.909,408.629L330.408,406.775L330.218,406.06L329.175,405.526L328.761,405.193L328.731,404.261L328.432,404.042L327.239,404.089L326.916,404.03L325.592,402.81L324.867,399.439L324.094,398.346L323.274,398.251L321.454,398.735L320.616,398.599L320.296,398.229L319.926,397.161L319.554,396.696L319.107,396.421L318.721,396.282L317.962,396.179L317.068,396.204L316.578,396.301L316.36,396.488L316.244,397.072L315.973,397.25L315.664,397.347L314.859,398.521L314.252,397.998L313.218,396.179L312.622,397.066L311.069,398.582L310.628,398.802L310.602,398.782L310.41,398.629L310.997,398.126L311.328,397.578L311.469,396.944L311.502,396.209L311.717,395.539L312.225,395.022L313.325,394.187L314.536,392.373L314.989,391.224L314.787,390.478L315.742,389.36L316.124,388.75L316.384,387.312L316.693,386.499L317.151,385.804L317.733,385.364L316.602,384.045L316.52,382.233L317.046,380.315L317.628,378.929L316.266,377.177L315.802,376.259L314.415,374.482L313.187,372.23L312.666,369.988L312.796,367.713L313.485,365.373L313.557,365.206L313.94,364.707L314.059,364.17L313.962,363.61L313.689,363.032L313.066,362.295L312.501,362.231L311.932,362.678L311.29,363.468L311.367,362.845L311.949,361.871L312.059,361.313L311.085,357.404L311.083,356.784L310.906,356.141L310.377,355.857L309.08,355.592L308.305,355.02L308.211,353.573L308.556,352.038L309.08,351.185L309.337,350.945L309.425,350.7L309.339,350.458L309.08,350.224L308.779,349.685L308.573,349.09L308.302,348.521L307.811,348.057L308.393,347.456L308.724,347.189L309.08,346.989L309.301,346.894L309.96,346.499L309.681,346.354L309.301,345.942L308.363,345.266L305.687,344.134L305,343.174L304.567,342.861L304.184,343.291L303.927,343.646L303.533,343.842L303.078,343.9L302.647,343.85L301.726,343.875L300.926,344.056L300.452,343.906L300.523,342.928L301.026,342.241L301.726,341.752L302.167,341.106L301.878,339.952L301.185,339.247L300.118,338.751L299.064,338.74L298.411,339.491L298.278,340.605L298.267,341.383L298.057,341.526L297.321,340.724L296.766,339.776L296.521,338.815L296.179,336.287L295.873,335.355L295.31,334.651L294.403,334.522L294.433,335.188L294.176,335.648L293.793,336.045L293.427,336.515L293.429,336.948L293.608,337.362L293.536,337.715L292.212,338.105L291.247,338.609L290.77,338.751L290.51,338.401L290.262,338.155L290.014,338.033L289.261,338.234L288.996,338.273L287.956,338.287L287.06,338.406L286.204,338.681L285.3,339.155L283.214,340.788L281.068,342.064L279.932,342.252L279.22,342.011L278.988,341.293L279.526,338.761L279.162,337.971L278.362,337.507L275.325,336.741L274.423,336.722L273.518,336.995L271.714,338.776L270.818,339.291L270.399,338.39L269.301,338.812L268.741,338.91L268.159,338.882L267.546,338.966L267.091,338.815L266.664,338.572L265.205,338.13L264.846,338.102L263.221,338.334L262.419,338.641L261.745,339.077L261.122,339.661L260.604,340.396L259.313,343.037L258.659,343.872L255.506,346.967L253.633,348.205L252.657,348.596L252.091,348.471L250.563,347.481L249.771,347.144L248.006,347.049L246.491,347.545L245.438,348.674L245.049,350.484L243.976,349.529L244.525,347.773L245.752,345.954L246.723,344.805L247.509,343.499L248.279,338.835L248.855,338.761L249.004,338.334L248.999,337.694L249.123,336.978L249.495,336.324L250.317,335.542L251.17,333.969L252.017,332.825L253.043,331.964L254.124,331.749L255.354,331.652L256.358,330.95L257.087,329.898L257.503,328.742L255.214,325.659L254.921,325.14L254.116,324.553L251.928,321.633L251.779,321.498L251.396,321.247L251.214,321.024L251.186,320.827L251.244,320.254L251.23,320.016L250.745,318.489L250.657,317.949L250.563,314.013L250.817,312.138L251.636,308.937L251.614,308.797L251.565,308.475L251.512,308.124L250.877,307.602L249.631,307.246L247.509,307.025L245.303,307.104L243.385,306.518L243.005,304.556L243.587,302.221L244.538,300.534L245.06,300.163L245.658,299.895L246.224,299.542L246.649,298.912L246.718,298.411L246.502,297.495L246.497,297.031L246.742,296.353L247.051,295.753L247.256,295.154L247.187,294.479L244.911,292.484L244.354,292.222L243.642,291.742L243.005,291.173L242.365,290.219L241.868,290.104L241.3,290.109L240.776,290.04L240.431,290.107L239.488,290.065L238.826,289.844L239.339,289.37L239.91,288.972L239.805,288.667L238.969,288.123L238.175,287.241L237.593,286.428L237.367,285.469L237.656,284.123L237.714,283.353L237.309,283.004L236.754,282.741L236.374,282.239L236.1,280.751L235.913,280.305L235.394,279.769L234.026,278.816L233.632,278.286L233.273,276.868L233.041,276.445L232.694,276.167L231.825,275.845L231.527,275.658L231.201,275.141L230.575,273.302L229.306,270.865L227.447,268.461L225.257,266.346L221.29,263.822L220.896,263.188L220.171,259.616L219.782,258.412L219.191,257.894L218.452,257.828L216.645,257.285L215.291,257.143L203.963,257.206L181.266,257.332L181.006,260.64L180.642,261.142L170.605,263.339L168.922,263.707L168.014,263.668L167.134,263.474L166.13,263.101L164.863,262.316L163.89,261.438L162.93,260.806L161.695,260.76L153.675,262.475L151.254,263.362L149.333,264.493L149.013,264.984L148.977,265.32L149.045,265.687L149.05,266.257L148.322,270.276L148.355,270.439L148.556,271.044L148.578,271.313L148.413,271.443L148.137,271.401L147.872,271.404L147.767,271.667L147.777,272.329L147.708,272.535L147.534,272.567L145.876,273.583L145.387,274.081L144.515,275.624L144.357,275.795L144.292,278.088L144.075,278.556L143.646,278.59L143.126,278.525L142.633,278.71L142.382,279.167L141.915,280.942L141.775,281.187L141.66,281.331L141.489,281.423L141.186,281.516L140.776,281.714L140.742,281.938L140.847,282.183L140.835,282.454L139.016,288.324L138.771,288.664L138.401,288.977L138.223,289.18L138.085,289.507L137.877,289.847L137.615,289.791L137.343,289.608L137.114,289.568L136.215,290.079L135.912,290.347L135.483,290.916L135.495,291.345L135.709,291.834L135.677,292.25L134.942,292.456L134.017,292.93L132.742,295.056L131.851,295.804L130.727,295.991L129.701,295.918L128.658,295.991L127.49,296.613L126.45,295.527L125.335,296.319L124.489,297.988L124.244,299.542L124.479,300.085L125.212,300.989L125.268,301.435L125.074,301.496L124.237,301.577L123.933,301.734L123.419,302.47L122.979,303.258L122.274,304.954L121.547,305.86L120.579,306.479L118.52,307.482L116.901,308.673L116.092,308.807L114.876,308.383L112.851,307.104L112.01,306.902L110.617,307.154L108.282,307.881Z"/>
</svg>
