<svg xmlns="http://www.w3.org/2000/svg" viewBox="0 0 420 520" aria-label="Map of Equatorial Guinea">
  <path fill="currentColor" d="M301.689,177.488L302.484,178.656L302.541,179.951L302.319,181.382L302.47,182.81L303.356,183.908L304.958,185.325L306.709,186.523L307.953,186.985L309.155,187.267L313.53,189.453L314.932,189.682L324.241,189.682L328.697,189.681L343.896,189.679L344.932,189.678L365.623,189.678L386.322,189.675L407.013,189.671L407.542,192.324L407.571,197.883L407.678,216.021L407.7,219.653L407.786,234.15L407.893,252.278L408,270.406L387.28,270.335L382.231,270.319L366.567,270.271L345.861,270.199L344.266,270.194L325.141,270.135L317.591,270.106L315.581,270.367L314.224,270.542L313.859,271.554L313.852,273.603L313.602,274.511L312.787,275.305L311.686,275.548L310.456,275.362L309.233,274.84L308.089,273.953L306.295,271.901L305.151,271.093L304.078,270.7L302.021,270.463L302.128,270.099L302.032,268.914L301.503,267.146L301.655,266.324L302.19,265.893L303.091,265.58L304.121,265.395L305.005,265.336L304.588,264.972L303.744,264.685L302.742,264.499L301.892,264.432L301.182,264.212L299.454,263.232L298.615,263.018L295.778,263.629L295.04,263.444L294.759,262.751L295.063,262.005L295.603,261.4L296.031,261.127L294.748,261.667L293.171,263.055L291.831,264.592L291.268,265.592L290.796,266.087L288.516,266.65L286.799,267.377L286.179,266.56L285.098,263.238L284.535,262.362L283.787,261.695L282.677,261.127L281.416,260.828L280.516,261.036L279.705,261.402L277.504,261.819L275.46,262.793L274.413,263.018L273.805,262.636L272.184,260.822L271.294,260.181L271.429,259.488L271.255,258.942L270.36,257.776L271.441,257.331L272.251,256.518L272.837,255.507L273.963,251.965L274.571,250.709L275.359,250.174L276.417,249.608L277.386,248.271L278.129,246.703L278.478,245.45L278.298,242.8L278.568,241.665L280.471,240.832L283.195,238.36L284.395,236.802L284.614,236.687L284.766,236.315L285.087,235.977L285.408,235.516L285.56,234.778L286.371,232.798L287.485,230.757L288.904,229.659L289.805,229.957L290.672,230.771L291.978,231.23L293.824,230.988L295.13,230.374L296.335,229.591L297.878,228.828L296.482,228.898L293.656,230.813L292.428,230.52L289.428,227.671L288.386,225.756L289.095,223.886L293.16,219.853L293.346,219.594L293.751,218.822L294.095,218.434L295.513,217.488L296.054,216.941L296.352,216.451L296.943,215.077L297.236,214.654L297.551,214.364L297.776,213.9L298.035,212.227L298.351,211.765L298.677,211.427L298.824,211.066L299.206,210.413L301.655,207.991L302.393,205.648L302.123,202.78L300.203,197.125L299.544,195.826L299.33,195.235L299.257,194.477L299.409,193.747L299.73,193.283L300.051,192.936L300.203,192.564L300.777,183.97L300.574,182.409L299.983,181.204L299.432,179.651L300.321,178.448ZM12.985,440.281L12.552,439.475L12.462,438.676L12.749,437.977L13.458,437.482L14.37,439.047L14.128,440.737L13.171,441.626L12,440.793L12.349,440.686L12.647,440.421ZM241.029,79.877L242.864,82.151L243.551,83.335L243.827,84.802L243.72,86.133L243.438,87.344L242.999,88.424L242.442,89.34L239.942,91.566L239.233,93.484L236.936,96.208L236.739,96.439L235.354,100.162L234.161,101.109L233.834,102.739L233.643,103.111L233.485,103.343L231.498,104.527L231.256,105.644L231.222,108.835L230.788,109.969L227.681,113.555L225.311,117.452L224.669,118.23L224.004,117.782L222.417,117.105L222.057,116.657L221.617,116.843L220.615,116.479L218.696,115.411L218.195,115.583L216.607,115.938L215.909,115.924L215.166,115.599L213.702,114.661L212.801,114.463L211.315,114.413L209.671,114.029L208.343,112.992L207.791,110.956L207.476,110.206L206.845,109.298L206.395,108.393L206.62,107.623L206.89,106.986L207.318,104.053L207.785,102.708L208.692,100.963L209.981,99.815L211.619,100.269L212.497,99.764L213.663,99.818L216.128,100.269L217.294,99.798L217.677,98.69L217.48,97.412L216.855,96.439L217.716,95.977L218.803,95.195L219.76,94.268L220.165,93.385L220.638,86.974L221.539,84.534L223.351,81.572L225.789,79.169L228.626,78.374L228.474,78.636L228.193,79.358L230.344,79.809L231.289,79.86L231.971,79.358L233.53,79.838L235.771,80.176L238.118,80.114L240.044,79.358L240.252,79.663L240.466,79.778Z"/>
</svg>
