<svg xmlns="http://www.w3.org/2000/svg" viewBox="0 0 420 520" aria-label="Map of Guinea-Bissau">
  <path fill="currentColor" d="M399.278,145.287L398.241,153.989L398.458,156.935L399.692,160.53L406.196,168.737L407.653,171.422L408,173.684L407.52,175.952L405.248,181.396L404.975,182.495L404.845,184.189L405.248,188.006L405.122,189.543L404.088,192.103L403.571,195.585L401.403,198.944L397.657,200.344L388.915,200.453L390.576,197.463L388.388,196.821L384.856,197.675L382.408,199.149L379.286,201.729L371.441,205.402L368.626,208.623L368.299,209.981L368.286,212.806L367.749,214.26L368.74,214.744L372.122,215.222L374.737,216.082L377.201,217.603L379.723,220.053L381.02,220.974L384.546,222.215L385.15,222.993L385.476,224.003L386.194,225.278L389.019,228.423L390.55,229.48L392.647,230.394L397.193,231.11L398.421,231.724L399.838,233.899L400.012,236.395L398.884,241.735L398.458,247.216L400.429,262.756L400.402,265.12L399.732,270.789L399.065,272.54L397.02,274.073L393.892,275.326L390.576,275.939L387.985,275.571L387.221,274.597L387.501,273.616L387.421,272.772L385.56,272.24L384.472,271.559L384.046,268.922L382.915,268.112L380.977,268.078L380.59,268.779L381.174,270.271L380.897,273.289L380.53,274.556L378.866,277.056L376.641,278.398L374.046,278.446L371.248,277.043L370.224,277.833L364.66,281.239L362.249,282.124L356.609,281.211L354.568,281.252L350.692,281.933L348.898,282.008L346.786,281.511L345.552,280.769L344.442,279.788L343.311,278.984L342.003,278.746L339.028,279.148L328.222,278.439L327.481,278.03L326.808,277.942L325.427,278.691L324.416,279.829L322.922,282.996L322.058,284.303L320.414,285.618L308.403,292.211L296.956,298.493L291.623,299.453L280.893,298.207L275.55,298.779L272.415,300.512L270.1,303.088L257.292,321.948L255.351,326.898L252.783,337.236L240.402,361.296L236.073,366.478L236.073,366.498L232.408,370.276L227.397,373.834L224.119,375.513L222.628,375.289L222.985,373.555L223.883,372.667L225.023,372.079L226.152,371.255L228.059,368.291L228.878,367.579L228.878,366.68L227.917,366.68L227.376,367.916L226.714,368.976L225.779,369.794L224.392,370.276L222.875,370.34L221.456,370.019L220.401,369.265L219.991,368.066L222.291,358.412L223.069,356.807L224.435,356.079L225.243,354.366L225.863,352.418L226.63,350.93L227.381,350.555L228.994,350.657L229.682,350.437L229.771,349.934L229.582,348.184L229.682,347.739L235.045,347.29L234.803,346.192L234.141,345.298L233.29,344.624L232.408,344.152L234.125,342.311L235.15,339.826L235.003,337.481L233.206,336.067L232.04,339.494L230.118,341.979L227.539,343.526L224.392,344.152L225.112,346.262L224.55,347.557L223.269,347.83L221.835,346.84L221.551,347.525L221.199,348.05L220.936,348.639L220.873,349.538L220.359,349.206L219.03,348.639L218.972,351.171L218.226,352.364L216.902,353.189L215.138,354.559L213.656,356.47L211.755,360.179L208.409,364.738L206.991,366.108L205.41,366.68L203.745,365.942L201.754,364.208L200.273,362.255L200.121,360.842L201.539,359.809L205.399,357.867L206.77,356.807L207.427,355.287L208.446,349.538L207.059,338.45L208.446,335.243L205.541,335.692L204.785,337.642L205.21,340.18L205.883,342.434L206.061,344.431L205.919,347.611L204.974,349.881L201.639,348.553L197.069,348.639L195.709,348.232L194.726,347.67L194.007,347.14L193.471,346.84L190.461,347.279L188.875,347.027L188.176,345.544L187.825,344.099L186.9,343.141L185.618,342.6L184.169,342.434L182.252,341.058L181.795,337.872L181.931,331.574L182.252,330.155L182.183,329.266L181.49,328.875L180.676,328.859L180.261,328.714L180.109,328.302L180.082,327.488L180.235,326.079L180.896,324.349L181.049,322.956L181.684,321.735L184.957,317.32L186.333,316.211L187.168,316.399L189.768,317.626L191.26,317.92L192.557,317.513L194.38,315.724L195.672,315.311L196.985,314.571L198.519,312.809L199.853,310.73L200.515,309.015L193.413,314.791L190.824,316.211L188.844,315.027L188.429,313.479L189.064,309.465L189.831,308.179L191.344,306.55L192.384,305.113L191.706,304.438L189.5,305.022L187.814,306.678L186.721,308.918L186.333,311.223L185.524,312.739L183.664,313.698L181.563,314.438L180.082,315.311L178.874,317.384L178.223,319.136L177.099,320.331L174.441,320.781L172.75,321.322L171.311,322.067L170.229,321.702L169.661,318.906L170.055,317.502L171.993,312.744L172.634,311.71L173.023,310.81L176.637,305.413L174.378,305.317L173.58,304.411L173.632,302.884L173.995,300.922L175.008,301.555L176.153,301.63L177.32,301.099L178.486,299.941L178.58,300.783L179.289,302.723L179.862,300.986L180.818,299.496L181.889,299.175L182.803,300.922L183.764,300.922L183.644,299.62L183.307,298.43L182.724,297.336L181.931,296.339L182.541,296.237L182.635,296.114L182.598,295.889L182.803,295.444L183.99,295.958L185.398,296.237L187.215,296.339L189.374,296.891L190.083,296.468L189.064,294.543L189.495,293.535L189.941,291.841L190.824,291.841L191.864,293.283L193.665,293.042L195.157,293.096L195.231,295.444L197.699,294.554L197.631,292.769L196.118,290.742L194.264,289.15L193.723,289.493L193.256,289.654L191.706,290.05L191.706,289.15L194.516,288.168L195.85,287.423L197.069,286.367L198.025,288.007L199.648,289.9L201.754,290.935L204.123,290.05L202.553,289.809L202.437,288.924L202.71,287.68L202.358,286.367L201.334,285.852L200.247,285.868L199.328,285.482L198.829,283.745L200.305,284.238L203.115,284.838L204.123,285.466L205.883,284.565L205.604,285.428L205.258,287.305L204.927,288.168L208.12,290.447L209.087,290.254L210.295,288.168L209.633,287.01L207.984,284.796L207.653,284.152L208.005,283.251L208.898,282.222L210.016,281.374L211.088,280.967L211.366,281.256L212.349,281.878L213.709,282.49L215.138,282.763L215.957,283.219L216.414,284.356L216.587,285.82L216.535,287.268L219.03,286.367L218.778,285.922L218.478,284.989L218.226,284.565L220.159,284.678L221.493,285.402L222.528,286.619L223.51,288.168L218.415,289.171L216.535,289.15L217.134,289.857L217.428,290.356L217.911,290.694L219.03,290.94L218.478,293.021L219.203,294.2L220.306,294.087L221.551,290.586L223.069,290.436L224.592,290.747L225.27,290.501L229.372,290.254L230.564,290.05L232.051,289.3L233.08,288.442L233.747,287.235L234.173,285.466L232.555,285.997L231.389,286.64L230.06,287.139L225.758,287.605L224.797,287.284L224.392,285.916L224.655,285.321L225.317,284.887L226.189,284.629L227.113,284.565L226.609,283.375L226.578,282.667L227.113,280.967L225.648,280.623L224.482,281.315L223.731,282.731L223.51,284.565L221.74,282.538L220.621,281.921L219.03,281.943L219.03,280.967L219.949,280.452L221.835,278.264L221.835,277.363L220.873,275.571L219.991,275.571L218.226,280.066L216.682,280.441L214.738,279.326L212.932,279.165L214.276,277.148L216.104,276.258L217.669,275.217L218.226,272.787L217.139,273.93L215.925,274.558L214.744,274.525L213.735,273.689L212.932,273.689L212.816,275.046L212.427,275.882L211.624,276.327L210.295,276.462L210.678,278.387L209.728,278.907L208.409,278.21L207.653,276.462L205.683,279.293L204.612,278.543L205.252,276.301L208.446,274.67L207.306,273.833L206.833,272.76L206.965,271.527L207.653,270.164L208.446,270.164L209.008,270.529L209.507,270.69L211.088,270.985L210.521,269.166L209.37,267.965L206.77,266.57L205.883,266.57L205.526,268.716L204.643,270.432L203.95,272.24L204.123,274.67L202.784,275.217L201.639,276.891L200.515,277.363L199.727,276.923L200.073,275.7L201.397,273.689L199.884,273.018L199.616,271.398L200.515,267.46L199.254,268.222L198.445,269.338L198.004,270.744L197.867,272.374L197.347,272.482L194.653,272.439L193.471,272.787L195.231,273.689L195.231,274.67L196.712,275.711L198.204,276.633L198.829,277.813L198.324,279.578L197.174,280.012L195.955,279.465L195.231,278.264L194.611,279.304L194.117,280.409L193.739,281.557L193.471,282.763L192.489,277.674L191.69,275.893L191.05,276.102L189.941,276.462L190.824,278.264L189.064,278.264L189.568,281.734L190.188,283.219L191.706,284.565L190.824,286.367L188.885,284.978L187.152,283.101L184.568,279.165L184.169,281.492L185.072,283.68L186.38,285.857L187.215,288.168L186.606,287.884L184.568,287.268L183.99,289.042L182.898,289.064L181.984,287.723L181.931,285.466L181.049,285.466L180.503,286.672L180.14,288.013L179.988,289.455L180.082,290.94L178.943,290.372L178.486,290.05L178.486,292.667L177.141,291.787L176.637,290.613L176.279,289.214L175.318,287.718L174.593,286.254L175.145,285.225L176.637,284.152L177.272,282.157L178.596,280.119L179.809,277.727L180.082,274.67L175.886,278.714L173.653,279.851L171.353,278.264L171.972,277.127L171.951,274.348L172.151,272.787L170.46,272.707L169.42,273.238L168.663,274.01L167.823,274.67L167.791,275.099L166.809,276.263L165.659,276.971L165.107,276.022L164.661,273.817L163.957,271.677L163.941,269.467L166.331,265.883L167.376,262.964L168.264,261.618L173.112,256.659L174.536,255.677L175.334,255.377L175.681,254.92L175.76,253.434L176.075,252.124L176.831,250.976L178.486,249.382L179.289,249.382L179.641,250.235L180.04,250.605L180.503,250.836L181.049,251.255L181.543,250.031L182.183,249.548L182.94,249.671L183.764,249.382L186.743,249.473L191.921,250.9L194.747,251.255L210.694,251.255L211.366,250.804L213.53,248.839L214.224,248.388L217.611,247.573L219.755,245.683L221.456,243.6L223.51,242.167L226.473,242.167L227.003,244.164L226.121,246.842L224.829,248.882L223.867,251.373L223.962,254.663L224.829,257.899L226.152,260.174L228.647,261.312L231.919,261.859L234.787,262.825L236.016,265.175L237.387,266.699L240.392,267.385L243.391,266.849L244.746,264.681L241.39,265.84L239.058,263.758L237.277,260.786L235.528,259.283L231.715,258.816L230.564,258.462L229.088,257.555L228.342,256.627L227.712,255.597L226.63,254.335L226.052,252.639L227.218,251.056L228.847,249.526L229.682,247.98L232.051,241.539L232.14,240.722L232.707,240.368L234.614,240.282L235.922,239.912L235.89,239.058L235.097,238.145L234.173,237.587L234.183,237.125L232.849,236.706L231.384,236.62L230.123,237.173L229.099,237.372L226.241,236.202L224.829,235.858L223.001,236.416L219.014,238.833L216.944,239.391L215.831,240.266L212.159,244.373L210.295,245.694L207.353,246.193L204.911,245.715L199.716,243.971L194.705,243.133L193.109,242.365L191.26,240.733L188.838,239.123L185.939,238.462L182.913,238.591L180.082,239.391L179.132,240.008L177.02,241.796L176.195,242.167L173.412,242.022L171.978,242.108L170.911,242.58L166.867,246.676L166.09,247.143L164.225,247.905L163.421,248.388L159.608,253.89L158.536,254.775L155.952,255.505L150.217,258.977L147.753,260.024L147.396,260.174L139.044,261.714L137.784,262.471L136.549,263.597L130.393,266.827L127.925,267.46L130.567,256.756L132.946,252.312L136.082,252.119L136.807,252.602L137.789,252.924L138.976,253.053L140.342,252.983L140.342,252.081L137.91,251.931L134.9,249.349L132.421,249.382L130.351,250.933L129.805,253.198L129.553,255.693L125.372,263.903L124.043,264.681L121.517,264.032L120.991,262.353L121.837,257.48L119.678,258.511L119.164,260.657L119.101,263.265L118.229,265.668L117.441,266.092L114.583,267.128L113.386,267.922L112.083,269.054L111.327,269.247L110.812,268.651L110.297,267.46L109.961,264.837L110.707,262.197L112.95,257.48L114.809,250.154L115.592,248.388L116.117,247.868L116.926,247.304L117.85,246.864L118.717,246.676L119.221,246.198L120.072,242.988L123.413,237.931L124.479,236.76L126.307,235.659L129.038,234.548L131.917,233.823L134.175,233.893L134.869,234.666L135.357,235.912L136.035,237.071L137.295,237.587L139.859,237.737L140.983,238.038L142.107,238.564L142.516,236.696L143.457,234.789L143.945,233.173L142.989,232.18L142.243,232.679L141.025,233.893L139.234,234.934L136.823,234.886L136.056,234.354L135.173,232.824L134.175,232.18L133.041,231.841L132.505,231.884L131.948,232.067L127.063,232.437L125.398,231.959L124.479,230.375L123.602,230.375L122.683,232.55L120.288,233.925L117.325,234.655L114.71,234.886L115.03,235.826L115.224,236.223L115.592,236.76L115.151,236.884L114.846,236.867L114.683,237.007L114.71,237.587L113.675,237.018L112.95,236.427L112.981,237.039L113.407,238.822L113.165,240.459L112.062,242.167L110.177,243.901L108.407,244.652L98.847,244.792L97.597,245.221L95.023,246.418L93.994,246.676L93.311,247.111L92.491,248.077L91.409,249.011L89.949,249.382L88.699,248.931L87.564,247.97L85.537,245.694L82.385,246.418L78.252,245.64L74.659,244.105L73.131,242.58L70.483,236.76L69.244,236.041L65.788,235.504L64.306,234.886L63.203,233.656L62.4,232.024L61.911,230.144L61.459,226.105L60.188,222.738L59.91,220.916L63.424,213.255L64.779,211.6L66.271,210.343L67.857,209.392L69.522,208.656L69.59,210.225L70.215,211.391L71.192,211.649L72.322,210.461L72.448,209.365L71.303,207.409L71.355,205.958L72.805,203.878L75.006,202.518L77.401,201.497L86.871,195.885L88.993,194.144L89.991,192.907L91.441,190.66L92.591,189.638L93.757,189.111L96.593,188.412L97.88,187.912L94.445,187.783L92.15,188.751L90.38,190.531L88.589,192.832L85.973,194.649L79.339,196.041L76.65,196.939L72.201,199.815L70.924,200.949L66.554,205.958L64.133,204.937L64.322,202.486L65.283,199.519L65.189,196.939L64.527,198.896L62.872,201.508L62.09,206.323L60.824,208.231L58.87,208.876L56.38,207.753L55.498,208.656L55.125,208.086L53.654,206.85L53.392,208.602L52.373,209.387L50.771,209.58L48.811,209.558L48.501,210.053L47.74,210.999L46.957,211.568L46.605,210.956L46.385,210.429L45.838,209.988L45.114,209.677L42.624,209.215L41.405,208.312L40.67,207.006L40.434,205.507L39.63,204.819L36.542,201.282L36.463,200.46L35.564,199.971L32.838,197.649L31.625,196.939L31.016,197.073L29.072,197.815L28.095,197.756L27.339,197.122L26.141,195.058L25.448,194.144L20.642,190.38L19.198,189.638L17.275,189.638L15.815,190.262L14.481,191.036L12.952,191.525L12,190.355L14.946,188.307L19.689,187.16L37.186,188.334L39.567,188.239L46.305,186.552L52.809,186.497L56.718,184.899L67.057,179.299L75.969,174.449L77.324,174.162L78.704,174.415L81.493,175.521L82.553,175.706L83.16,175.46L83.721,175.023L84.595,174.64L94.347,172.939L98.93,173.349L107.001,176.061L109.483,176.519L119.729,175.788L121.01,175.864L143.27,177.181L147.719,176.245L180.306,160.94L180.677,160.666L187.53,155.609L195.381,151.993L202.879,146.579L206.228,145.047L209.93,144.487L216.241,144.514L251.619,144.662L262.002,144.705L307.753,144.904L319.912,144.955L353.52,145.095ZM112.95,339.655L115.455,341.55L117.43,344.12L118.733,347.284L119.605,352.996L120.513,354.248L121.422,355.191L121.837,356.315L121.175,358.027L119.631,358.851L117.871,358.98L116.558,358.605L115.534,359.237L114.179,359.167L110.775,358.605L110.476,358.905L109.672,359.451L108.848,359.676L108.459,359.044L108.427,357.984L108.48,357.289L108.884,356.919L109.861,356.807L111.201,356.454L114.825,354.752L115.592,354.109L115.004,352.632L113.549,352.14L112.241,352.857L112.062,355.009L111.122,354.125L110.297,353.13L111.442,351.176L112.036,349.629L112.178,348.055L112.062,346.032L111.369,343.071L111.563,341.368ZM109.415,345.052L109.688,348.917L109.326,350.716L108.06,352.68L105.323,356.026L103.826,356.967L103.175,355.415L102.734,353.339L101.983,351.717L101.841,350.02L103.175,347.739L100.223,347.75L98.784,346.455L98.674,344.484L99.719,342.434L101.573,340.94L108.459,338.755L108.984,339.848L109.268,341.615ZM99.719,350.437L97.88,350.437L97.88,351.422L99.146,353.959L98.637,356.357L97.996,358.316L98.847,359.494L96.2,361.249L93.915,361.351L91.63,361.19L88.993,362.191L88.557,361.046L88.4,359.97L88.541,358.873L88.993,357.626L88.179,357.626L86.503,360.403L87.312,362.191L85.689,361.698L85.264,361.335L84.665,360.403L81.703,360.789L78.52,358.691L75.73,355.394L74.013,352.231L75.699,350.496L77.811,348.955L80.001,348.157L81.934,348.639L80.169,349.388L79.371,349.538L79.486,350.116L79.623,350.528L79.854,350.914L80.253,351.422L81.403,350.271L82.869,349.602L84.119,348.601L85.138,344.136L86.225,343.349L87.407,342.878L88.179,341.454L88.841,342.139L90.831,343.253L91.173,340.024L93.127,338.611L95.706,338.868L97.88,340.635L98.721,341.636L98.343,342.386L97.534,343.253L97.071,344.592L97.292,346.546L97.859,347.766ZM124.479,326.175L127.825,326.138L128.513,327.493L127.132,332.383L127,337.845L125.845,339.559L122.641,339.655L119.447,337.294L119.395,333.277L121.422,329.084ZM150.122,326.175L149.723,328.554L150.374,332.886L150.122,335.243L149.476,335.757L148.688,334.273L147.49,332.565L145.636,332.383L145.636,333.368L146.603,333.368L146.603,334.268L145.626,336.04L144.933,336.945L143.955,337.781L143.236,336.742L142.884,336.41L141.298,336.956L142.001,338.354L142.133,340.265L141.849,342.321L141.298,344.152L141.035,343.59L140.62,342.964L140.342,342.434L139.564,342.503L139.265,342.594L139.05,342.594L138.577,342.434L137.784,342.434L136.518,343.912L135.294,343.232L134.427,341.454L134.175,339.655L135.073,338.804L136.555,337.781L137.075,336.812L135.058,336.067L135.058,335.243L137.784,332.383L137.905,331.815L137.658,330.251L137.784,329.694L138.398,329.544L139.265,329.705L140.021,329.748L140.342,329.287L141.718,326.657L144.817,325.763L148.121,325.87ZM83.704,336.956L75.242,337.679L73.572,337.363L70.116,335.692L69.522,335.655L69.674,334.081L70.158,332.79L71.03,331.901L72.322,331.574L72.143,329.341L73.929,327.263L76.429,325.988L78.409,326.175L79.371,325.195L80.537,326.738L81.997,326.888L83.678,326.641L85.537,326.995L86.099,327.948L86.472,329.662L86.619,331.387L86.503,332.383L84.98,333.02L83.72,333.823L83.142,335.061ZM149.239,300.922L149.507,301.222L149.744,301.581L150.174,301.812L151.004,301.742L150.91,302.359L150.768,302.755L150.122,303.623L150.868,304.663L150.232,305.724L147.396,308.039L146.766,306.807L146.603,306.314L145.636,306.314L144.155,307.739L142.065,307.739L140.226,306.796L139.543,305.413L140.179,304.218L141.235,304.09L142.317,304.385L142.989,304.438L143.955,303.452L144.691,302.38L145.237,301.212L145.636,299.941L146.603,300.922L147.27,300.359L149.239,299.041L149.886,299.571L149.912,299.947ZM73.131,307.139L70.42,307.171L68.876,306.946L67.032,306.314L68.592,305.253L70.94,304.025L73.068,302.466L74.013,300.429L75.478,299.137L78.793,298.167L82.396,297.754L84.665,298.14L85.295,299.459L84.838,300.708L81.009,304.797L80.253,305.413L79.812,305.992L79.497,306.743L79.103,307.482L78.409,308.039L77.312,308.082ZM70.462,300.783L69.664,301.094L68.34,301.099L67.032,301.742L66.439,301.951L66.019,302.476L65.52,302.755L64.747,302.23L63.067,300.3L62.552,299.941L62.258,300.022L55.498,299.941L54.332,300.986L53.297,301.608L51.889,301.742L52.288,300.842L52.851,299.941L52.031,298.296L52.204,297.92L52.851,297.24L51.564,296.505L51.007,296.339L55.797,293.91L61.123,293.798L66.019,293.149L69.522,289.15L70.126,289.332L70.242,289.407L70.231,289.568L70.483,290.05L71.444,290.061L72.406,289.922L73.272,289.621L74.013,289.15L74.486,289.536L74.717,289.938L74.885,290.94L74.465,293.321L73.477,295.272L71.355,298.14L70.846,299.293L70.72,300.07ZM103.175,298.59L103.564,296.403L104.562,293.567L105.859,291.096L107.177,290.05L109.268,289.198L112.193,286.125L113.827,286.367L113.985,288.458L114.951,289.825L116.044,289.911L116.558,288.168L118.155,289.857L117.74,293.38L119.195,294.543L117.598,297.202L117.204,300.408L117.803,303.634L119.195,306.314L116.642,307.225L113.297,309.133L110.46,309.845L109.415,307.139L108.459,307.139L108.286,307.756L107.907,308.404L107.655,309.015L107.246,308.527L106.305,307.632L105.89,307.139L105.134,308.575L103.984,309.636L102.692,310.344L101.484,310.73L100.249,309.009L95.806,305.858L95.238,304.438L99.719,301.742L102.639,298.574ZM173.995,282.763L173.937,284.565L172.519,286.083L172.151,287.718L172.892,289.182L174.105,290.517L174.231,291.477L171.757,291.841L170.134,291.605L169.015,290.774L167.823,290.94L167.629,291.305L165.107,293.642L164.461,293.798L161.578,293.642L161.578,294.543L164.325,295.562L163.831,297.62L162.014,298.81L160.785,297.24L159.324,297.642L157.575,297.459L156.11,297.047L155.479,296.789L154.86,297.234L153.757,296.371L153.41,295.154L155.007,294.543L156.709,293.589L157.89,291.605L159.513,289.975L162.539,290.05L162.791,288.045L164.083,286.592L165.68,285.3L166.867,283.745L169.047,284.324L170.995,283.734L172.655,282.919ZM84.665,251.255L86.918,250.46L89.413,250.546L93.994,251.255L95.711,250.992L97.634,250.31L101.484,248.388L100.99,247.862L101.006,247.771L101.258,247.562L103.117,247.508L104.814,247.422L106.694,247.578L107.64,248.721L107.892,249.118L107.44,252.537L106.426,254.153L105.139,255.634L104.131,257.48L102.996,262.599L102.235,264.713L100.685,266.57L99.362,265.636L97.849,265.835L96.404,266.398L95.238,266.57L93.605,265.54L90.39,260.678L88.888,259.927L87.312,259.927L86.052,259.627L85.537,257.974L85.484,254.309L85.232,252.586Z"/>
</svg>
