<svg xmlns="http://www.w3.org/2000/svg" viewBox="0 0 420 520" aria-label="Map of Kenya">
  <path fill="currentColor" d="M101.922,39.704L101.927,39.679L102.203,37.609L103.585,36.639L105.518,36.778L105.656,39.681L109.387,39.696L112.572,39.71L112.669,40.568L113.324,41.737L113.375,42.695L113.227,43.692L113.212,44.538L113.544,45.24L114.43,45.796L116.35,47.48L117.404,48.167L118.541,48.438L118.738,48.436L125.969,48.376L127.674,48.144L128.196,48.141L128.683,48.273L129.584,48.71L130.224,48.797L139.428,48.612L147.179,48.453L147.609,48.548L148.341,48.988L148.633,49.059L148.756,49.089L158.304,49.006L161.258,49.824L164.78,51.605L166.802,52.069L167.283,52.432L168.061,53.747L168.425,53.988L169.418,53.914L169.787,54.032L170.114,54.475L170.309,54.956L170.565,56.06L170.724,56.327L170.98,56.386L171.276,56.378L171.568,56.455L174.251,58.181L179.078,61.293L183.906,64.406L189.558,68.043L193.572,70.629L198.113,73.56L203.227,76.854L207.942,79.891L212.882,83.074L214.408,84.056L215.329,84.976L216.589,86.998L217.352,87.904L217.986,88.255L219.466,88.71L220.608,89.704L221.212,89.806L222.773,89.417L224.324,89.294L229.582,89.89L234.875,90.487L237.65,90.249L240.174,89.144L240.236,88.859L240.195,88.417L240.297,88.004L240.773,87.81L241.034,87.924L241.971,88.703L242.37,89.176L242.468,89.568L242.662,89.86L243.353,90.034L243.998,90.106L244.27,90.069L244.971,89.794L245.063,89.96L245.114,90.226L245.375,90.398L248.268,90.607L248.258,90.267L248.324,89.571L248.304,89.243L249.645,91.012L250.418,91.8L251.324,92.297L256.213,93.621L259.904,94.621L261.195,94.6L263.273,94.199L264.102,94.312L264.845,94.587L265.613,94.577L268.459,93.976L268.935,94.091L269.574,94.385L274.034,96.436L275.964,96.848L277.853,96.799L279.773,95.693L280.09,95.509L280.741,95.548L280.971,96.062L280.515,96.978L286.7,97.162L288.225,97.676L288.655,98.233L288.916,98.905L289.29,99.568L290.078,100.092L291.66,100.009L292.495,98.703L293.575,95.399L294.855,93.86L298.106,90.892L302.002,87.325L302.949,86.076L303.768,84.546L305.15,80.887L306.123,78.291L307.121,77.064L311.365,75.008L315.63,72.952L320.432,70.628L322.674,69.512L322.899,69.221L322.863,68.911L322.91,68.714L323.386,68.76L323.534,68.845L323.683,68.886L323.821,68.878L328.838,67.125L332.744,65.764L333.01,65.513L333.302,64.711L333.584,64.448L339.983,61.98L345.215,59.966L349.336,58.381L352.459,56.324L353.549,57.769L356.534,59.798L357.753,61.189L358.582,62.725L359.094,63.228L359.995,63.689L362.36,64.498L363.159,64.975L364.454,66.171L367.633,70.628L369.835,72.345L372.236,73.321L374.826,73.622L379.884,73.334L385.439,73.013L387.927,72.315L389.237,72.243L393.205,71.262L393.993,71.316L395.304,71.861L396.01,71.992L396.727,71.83L398.826,70.628L401.181,71.398L403.362,72.553L405.568,72.985L408,71.606L403.853,77.566L399.696,83.524L395.544,89.484L391.387,95.443L388.828,99.112L386.263,102.786L383.703,106.452L381.138,110.124L377.073,114.159L372.998,118.196L368.923,122.231L364.853,126.262L363.159,127.944L362.447,129.32L362.473,131.975L362.534,138.366L362.601,145.041L362.601,148.717L362.601,153.995L362.601,159.272L362.601,164.547L362.601,169.824L362.601,176.021L362.601,182.213L362.601,188.409L362.601,194.603L362.601,200.795L362.601,206.987L362.601,207.825L362.601,213.18L362.601,219.373L362.601,225.564L362.601,231.756L362.601,237.944L362.601,244.138L362.601,250.328L362.601,256.523L362.601,262.712L362.601,268.907L362.657,272.966L362.698,276.309L362.734,279.652L362.805,285.033L362.877,290.403L362.949,295.779L363.02,301.16L363.067,304.652L363.113,308.143L363.159,311.907L364.423,313.54L365.677,315.173L366.942,316.801L368.201,318.435L370.654,321.599L373.188,324.881L375.916,328.409L378.179,331.328L380.616,334.477L383.171,337.78L385.669,341.001L388.162,344.228L390.061,346.686L390.66,347.777L390.84,348.714L390.709,351.817L390.666,352.808L390.638,352.836L386.865,356.699L385.083,359.422L384.85,360.289L383.777,360.95L380.96,363.515L379.194,365.685L378.166,366.298L377.404,365.363L376.481,365.742L375.627,365.653L375.058,365.084L375.01,364.015L374.018,365.04L373.825,366.226L373.365,367.371L371.934,367.238L369.999,366.782L369.568,366.75L368.959,367.129L367.976,368.21L366.637,368.775L366.121,369.444L365.581,370.001L364.803,369.961L364.15,369.622L363.678,369.291L363.352,368.815L363.146,368.105L363.183,367.371L363.67,366L363.638,365.395L363.517,364.709L363.719,364.096L364.465,362.991L362.711,364.338L362.51,370.166L361.453,371.486L360.534,370.796L359.615,367.746L358.712,367.057L358.196,366.758L357.741,366.234L357.277,366.048L356.689,366.75L357.011,367.492L357.156,368.146L357.027,368.775L357.833,368.424L358.47,368.593L358.902,369.15L359.051,369.961L358.946,370.292L358.486,370.558L358.374,370.84L358.539,371.316L358.902,371.429L359.264,371.51L359.422,371.84L359.506,375.455L359.801,377.375L360.438,378.626L360.881,378.747L361.421,378.682L362.026,378.71L362.651,379.146L363.134,379.86L363.207,380.401L362.651,381.687L361.429,383.192L360.329,383.41L360.171,382.849L361.792,382.038L360.937,381.732L360.252,381.272L359.051,380.005L358.865,379.61L358.93,379.36L358.898,379.17L358.374,378.964L358.438,379.077L358.104,379.194L357.378,379.327L356.14,380.005L355.032,381.336L353.992,382.256L352.964,381.7L352.996,382.123L353.125,382.571L353.391,382.942L353.798,383.087L354.036,383.225L353.943,383.547L353.609,384.084L353.931,384.81L355.334,385.742L355.673,386.436L355.092,387.582L353.726,388.925L352.182,390.039L349.884,390.987L346.853,394.594L345.136,395.248L343.616,394.917L342.141,394.251L340.564,393.888L338.944,394.058L333.937,395.635L331.881,397.112L330.632,397.508L329.177,398.416L326.71,400.413L326.125,401.026L325.69,401.721L324.775,403.795L323.295,405.667L323.082,406.503L323.178,406.886L323.916,407.871L323.973,408.194L323.783,408.953L323.731,409.384L322.795,412.553L322.683,414.179L323.731,414.975L323.473,416.274L324.073,416.847L325.093,416.747L326.125,415.984L326.165,416.541L325.778,417.13L324.045,418.781L323.009,420.166L322.743,420.763L322.529,423.282L322.215,424.146L320.53,426.544L320.494,427.21L321.03,429.015L321.022,429.936L320.715,430.703L320.276,431.413L319.7,432.035L318.994,432.504L316.6,433.594L315.947,434.03L314.757,435.423L314.088,435.956L313.214,436.097L313.601,435.253L314.137,433.36L314.229,432.673L313.339,432.891L312.948,433.376L312.863,434.022L312.875,434.72L312.827,435.181L312.536,436.404L312.629,436.679L312.815,436.949L312.903,437.244L312.032,438.674L311.025,441.323L309.703,443.447L309.187,446.303L308.618,447.462L307.989,448.027L307.558,448.116L306.486,447.648L306.248,447.502L305.599,446.751L305.365,446.702L304.047,446.593L304.253,446.161L304.289,445.963L303.777,445.551L303.39,446.46L303.527,447.219L304.124,447.664L305.123,447.648L304.527,448.35L304.728,448.932L305.426,449.162L307.147,448.46L307.699,448.859L308.014,449.619L308.138,450.354L308.042,451.921L304.047,462.954L302.777,464.179L301.358,464.405L300.359,463.657L300.367,461.973L299.27,462.579L298.964,462.954L299.141,463.451L299.476,463.952L299.645,464.421L299.867,464.874L300.367,465.33L301.463,465.245L302.011,465.512L301.87,466.369L300.826,467.524L300.673,467.876L300.536,468.316L300.181,468.931L299.742,469.472L299.31,469.707L298.835,469.448L298.504,468.308L298.117,468.046L297.779,467.444L297.883,466.304L297.811,465.617L296.948,466.349L295.674,465.649L295.098,465.561L294.554,466.009L295.046,466.482L295.63,466.712L296.948,467.027L296.577,467.912L296.11,468.333L294.554,468.688L294.046,468.7L293.49,468.648L293.042,468.7L292.861,469.044L292.897,470.095L292.994,470.588L293.199,471.097L293.917,470.127L295.562,470.014L297.295,470.523L298.266,471.436L298.077,472.632L295.602,476.892L294.014,480.943L292.393,487.039L291.845,488.446L291.401,487.799L290.974,487.835L290.555,488.268L290.16,488.826L290.079,489.097L290.128,489.716L289.97,489.995L289.265,490.637L289.112,490.856L287.419,495.975L287.104,495.053L287.258,493.605L287.08,492.894L286.443,493.391L286.089,494.083L285.79,494.859L285.387,495.603L285.145,495.575L284.795,495.385L284.48,495.433L284.347,496.133L284.444,496.545L285.218,497.625L284.718,498.313L283.049,498.559L281.163,498.094L279.977,496.622L279.937,496.909L279.643,497.641L278.188,497.2L277.115,498.232L276.208,499.647L275.241,500.355L275.035,500.424L274.858,500.44L274.697,500.513L274.536,500.723L270.333,497.682L266.104,494.631L261.875,491.575L257.647,488.52L253.418,485.47L249.184,482.415L244.961,479.361L240.737,476.311L236.503,473.262L236.175,473.025L232.28,470.209L228.046,467.16L223.823,464.107L219.599,461.059L215.365,458.006L211.142,454.953L206.913,451.9L204.215,449.961L203.534,449.069L203.038,448.053L202.178,444.996L201.804,444.232L201.113,443.596L200.176,443.144L199.131,442.867L198.072,442.775L195.701,442.913L195.558,442.231L195.952,441.262L196.152,440.441L195.901,440.051L195.087,439.949L194.729,439.585L194.652,439.062L194.78,438.482L195.015,437.928L195.266,437.487L195.988,436.687L197.094,435.81L198.271,435.179L199.208,435.108L199.137,434.22L199.311,433.528L199.802,433.102L200.703,433.036L199.709,426.972L199.602,426.319L198.727,420.94L197.969,419.72L193.879,417.434L187.04,413.609L183.246,411.487L172.608,405.541L161.974,399.601L151.341,393.657L140.708,387.718L130.07,381.779L119.442,375.836L108.809,369.894L98.176,363.952L87.548,358.01L79.163,353.329L76.915,352.074L66.276,346.133L55.643,340.197L53.035,338.74L45.01,334.257L34.372,328.322L23.739,322.382L20.027,320.309L18.189,320.165L17.524,319.73L17.427,318.435L16.659,318.409L16.454,318.435L12.681,318.435L12.399,308.353L12.215,301.6L13.034,294.494L14.212,284.28L15.123,276.417L15.072,274.502L13.541,269.413L12,264.309L12.154,263.332L15.036,259.492L15.457,258.93L19.439,253.62L21.22,252.238L21.645,251.582L21.783,250.574L21.225,248.767L21.174,247.855L21.394,247.405L22.249,246.391L22.597,245.874L22.751,245.454L23.944,240.564L23.985,240.396L24.834,238.87L26.299,237.867L28.311,237.14L29.913,236.326L31.106,235.046L31.904,232.921L32.1,231.781L32.206,231.16L32.616,230.725L35.795,229.132L36.645,228.359L37.357,226.365L38.785,224.509L40.07,221.334L40.362,220.321L40.392,218.098L40.648,217.044L41.063,216.035L41.55,215.149L42.563,214.156L43.382,214.348L44.191,214.806L45.168,214.62L45.225,214.609L45.505,214.131L45.758,213.7L45.84,212.584L46.177,211.677L48.579,211.13L50.268,209.506L51.297,208.877L55.372,208.459L56.949,207.745L57.573,205.733L57.056,203.761L56.196,201.746L56.099,200.815L56.012,199.984L58.956,197.575L60,193.574L61.142,191.874L61.638,191.624L62.677,191.412L63.169,191.186L63.676,190.711L64.034,190.149L65.606,186.819L65.903,185.743L65.954,176.112L66.169,175.508L67.096,174.335L67.28,173.804L67.029,173.252L65.867,172.166L65.432,171.651L65.079,170.783L64.874,169.791L64.812,168.766L64.889,167.802L65.355,165.591L65.35,164.632L63.113,159.239L62.218,157.081L60.302,152.458L59.98,150.511L60.415,149.286L61.311,148.594L62.309,148.025L63.041,147.147L63.174,146.022L62.718,145.176L61.367,143.788L61.08,142.842L60.799,140.375L60.302,139.698L59.852,139.767L59.524,140.18L59.125,140.546L58.444,140.495L57.978,140.039L55.889,135.693L55.137,131.385L54.128,128.259L53.928,127.821L53.59,127.4L53.329,127.336L51.927,126.662L51.834,126.529L51.737,126.439L51.655,126.267L51.548,126.096L51.358,126.006L51.236,126.085L51.015,126.472L50.893,126.56L50.688,126.66L50.135,127.113L49.828,127.218L49.152,127.039L48.701,126.572L47.959,125.388L46.387,123.638L45.891,122.774L44.452,115.271L44.449,115.265L43.869,114.225L42.829,113.536L40.495,112.867L39.461,112.208L38.923,111.072L38.432,104.98L37.792,103.001L37.428,102.47L36.962,101.961L36.573,101.429L36.445,100.836L36.594,100.274L37.09,99.059L37.167,98.588L36.962,98.043L36.353,96.98L36.312,96.443L36.589,96.008L37.039,95.811L37.546,95.677L38.007,95.443L38.949,93.994L39.415,92.005L39.538,88.014L39.205,86.97L38.478,86.501L37.551,86.216L36.619,85.729L35.012,84.01L34.121,83.652L32.775,84.043L32.258,84.528L32.043,85.004L31.812,85.212L31.239,84.886L30.491,82.884L29.391,81.46L29.36,81.218L28.838,81.261L27.855,81.54L26.882,81.604L26.027,81.824L25.608,81.853L24.978,81.614L25.305,81.231L26.294,80.598L25.674,79.843L24.896,79.55L24.804,79.278L27.169,78.052L27.707,77.382L27.579,76.704L26.483,76.13L25.52,76.125L23.555,76.828L22.776,76.982L21.625,76.565L21.696,75.705L22.326,74.56L22.853,73.288L22.73,72.486L22.157,71.915L21.43,71.429L20.841,70.878L20.452,70.089L20.473,69.585L20.688,69.113L20.882,68.421L21.026,67.264L21.01,66.68L20.857,66.104L20.442,65.546L19.889,65.039L19.454,64.495L19.393,63.819L19.459,62.29L18.84,61.138L17.724,60.259L16.29,59.565L21.297,54.59L26.299,49.619L31.3,44.643L36.307,39.669L40.195,37.659L43.637,35.879L47.055,34.164L50.429,32.471L55.249,30.712L59.269,29.195L63.038,27.772L67.094,26.241L71.63,24.528L75.687,22.997L79.131,21.696L80.007,23.346L83.482,21.42L87.347,19.277L88.443,20.597L86.58,24.445L91.51,24.445L95.235,25.545L92.825,31.702L94.827,35.346L97.185,39.636L97.207,39.676L97.281,39.702L101.651,41.212L101.921,39.714ZM366.835,370.316L367.415,369.658L368.758,369.743L370.241,370.227L371.261,370.808L372.224,372.365L371.853,373.414L370.942,373.583L370.273,372.502L370.318,373.047L370.245,373.603L370.052,374.019L369.737,374.188L369.592,374.253L369.499,374.378L369.354,374.503L369.06,374.567L368.717,374.45L368.443,374.22L368.266,373.99L368.213,373.882L367.56,373.978L366.678,374.277L364.831,375.237L364.38,374.906L363.945,374.987L363.614,375.406L363.477,376.084L363.743,376.471L364.275,376.786L364.654,377.137L364.465,377.641L363.848,377.633L363.461,377.343L363.243,376.859L363.146,376.253L362.046,376.483L362.05,375.358L362.638,373.797L363.316,372.684L364.219,372.179L365.384,371.832L366.399,371.316Z"/>
</svg>
