<svg xmlns="http://www.w3.org/2000/svg" viewBox="0 0 420 520" aria-label="Map of Comoros">
  <path fill="currentColor" d="M185.203,394.43L187.701,395.533L203.669,406.163L207.122,411.478L206.094,413.935L201.514,414.587L194.411,414.587L173.985,410.425L152.898,409.848L148.025,408.118L146.702,405.812L146.996,400.497L146.139,397.589L143.518,395.107L140.775,393.929L138.62,392.274L137.738,388.189L137.395,377.085L139.159,372.524L144.082,374.278L148.368,376.584L161.005,378.99L166.687,380.744L182.361,391.222ZM408,371.271L407.829,408.82L406.163,414.387L402.71,416.693L400.065,415.59L396.979,412.982L394.481,409.823L393.452,407.141L392.864,403.305L391.224,401.124L369.034,385.783L366.561,381.797L364.724,377.085L360.169,374.805L348.266,372.324L329.555,362.701L327.032,360.671L314.958,353.455L310.892,349.021L315.741,348.87L319.758,349.873L327.497,353.23L332.738,354.583L342.461,356.011L346.013,357.439L347.605,356.161L350.617,354.583L352.16,353.23L361.197,355.109L369.181,347.768L373.761,336.319L372.708,325.925L375.647,325.048L379.786,322.618L383.019,321.717L384.513,321.066L385.811,320.089L387.256,319.338L389.338,319.413L391.077,320.69L393.452,324.973L394.481,325.925L407.192,366.961ZM88.241,244.764L89.001,247.842L90.886,251.32L97.94,260.729L97.793,263.307L94.389,268.788L93.409,271.892L93.066,274.12L92.282,275.847L90.078,277.424L87.213,278.35L83.123,278.951L79.547,278.55L77.955,276.247L76.02,272.393L59.17,256.725L54.713,254.873L41.806,254.123L38.646,253.322L35.193,251.42L29.389,246.765L26.94,243.638L26.107,240.91L25.715,238.233L24.343,235.231L16.678,227.726L13.371,222.797L12,215.268L12.833,212.266L14.792,208.54L21.307,199.036L21.38,195.76L20.523,192.459L20.229,188.858L24.392,134.563L23.756,130.965L22.115,127.666L25.054,122.344L27.919,114.799L31.054,108.927L34.606,108.802L47.39,104.456L54.884,103.307L60.395,105.555L63.995,110.301L66.664,115.248L68.036,120.845L61.325,178.181L64.019,190.633L77.392,209.865L82.241,222.447L82.388,225.599L81.923,232.104L82.241,235.231L83.612,237.483L85.596,239.434L87.433,241.661Z"/>
</svg>
