<svg xmlns="http://www.w3.org/2000/svg" viewBox="0 0 420 520" aria-label="Map of Liberia">
  <path fill="currentColor" d="M12,215.305L15.067,213.889L15.817,213.441L15.612,210.972L16.017,209.32L18.668,207.803L19.593,206.201L20.193,204.352L20.408,202.896L20.058,200.93L20.368,200.28L22.479,200.043L23.199,199.781L23.714,199.252L23.909,198.401L23.589,197.176L22.219,194.928L21.963,193.91L22.264,193.542L24.014,191.919L27.384,186.622L29.03,186.279L36.996,182.67L37.831,181.878L44.126,173.781L45.858,171.552L60.22,160.145L64.176,157.915L67.856,157.063L69.142,156.508L70.217,155.661L71.24,154.409L84.154,138.612L87.83,135.478L92.396,132.99L93.101,132.748L95.321,132.405L95.081,108.787L95.221,107.641L95.616,106.727L96.486,106.007L98.937,104.646L99.967,103.663L102.212,99.473L103.638,97.693L105.913,96.564L107.848,96.268L115.655,96.228L117.64,95.95L119.54,95.354L121.416,94.265L123.796,91.941L124.066,90.13L123.306,88.185L122.601,85.426L122.796,83.222L124.501,79.5L127.477,67.508L127.542,62.452L128.597,62.503L129.612,62.326L131.602,61.56L132.362,63.193L133.988,62.26L137.258,59.032L138.899,58.536L140.534,58.571L146.04,59.959L147.49,60.801L148.15,62.232L147.175,66.823L147.595,68.125L148.885,68.562L150.946,68.221L154.836,65.908L158.617,62.948L160.257,62.088L161.808,61.59L163.433,61.373L165.318,61.347L165.798,61.277L167.163,60.913L167.614,61.135L168.064,61.58L168.534,62.215L169.399,61.957L171.149,61.044L173.55,60.336L173.68,59.697L173.355,58.946L173.352,58.162L174.015,57.31L174.71,56.589L175.175,55.755L175.12,54.549L176.765,54.781L177.785,56.058L178.34,57.747L178.96,62.331L179.406,64.073L180.411,65.792L181.746,67.245L182.126,66.987L182.146,65.577L182.386,63.557L183.571,62.194L185.482,62.215L187.417,63.115L188.672,64.391L189.197,66.484L188.397,67.655L187.127,68.542L186.217,69.788L186.087,71.56L186.947,71.833L188.397,71.504L190.067,71.459L190.848,71.55L191.673,71.444L192.388,71.09L192.853,70.445L193.548,69.667L194.333,70.233L195.578,71.974L200.429,74.027L202.129,75.252L202.82,75.998L203.325,76.261L202.129,76.978L201.729,77.15L201.084,77.512L200.484,77.997L199.429,79.086L200.319,79.927L200.809,80.958L201.184,82.037L201.729,83.015L202.2,83.44L202.355,83.877L202.195,84.322L201.729,84.756L200.779,86.302L200.154,89.087L200.324,91.709L201.729,92.747L204.08,93.227L205.04,93.742L205.36,94.907L205.365,96.031L207.13,103.118L206.93,104.131L205.875,105.896L205.735,107.025L206.9,105.593L207.931,104.782L208.956,104.898L210.086,106.234L210.581,107.282L210.756,108.297L210.541,109.272L209.846,110.176L209.715,110.479L208.466,114.721L208.231,118.846L209.176,122.91L211.401,126.994L213.916,130.214L214.757,131.88L217.227,135.054L216.172,137.568L215.217,141.045L215.367,144.329L217.417,146.721L216.362,147.518L215.532,148.78L214.972,150.253L214.499,152.861L213.807,153.966L212.076,155.994L212.441,157.345L211.621,159.429L209.426,162.717L207.43,164.23L206.51,165.168L206.12,166.384L206.06,167.715L205.805,168.865L205.205,169.858L204.14,170.771L204.489,171.047L204.535,171.083L205.335,170.685L208.151,167.937L209.231,166.328L211.106,169.626L212.206,170.574L213.667,168.446L214.227,168.27L214.717,167.947L214.927,166.888L215.322,166.55L216.212,166.373L217.832,166.328L219.207,166.515L219.908,166.767L220.718,167.266L221.393,168.108L222.063,170.045L222.643,170.715L224.163,170.962L227.461,170.085L228.949,170.256L230.349,172.238L231.665,178.349L234.065,180.562L234.65,180.668L236.813,180.583L237.356,180.981L237.411,182.67L238.161,183.275L240.051,184.243L240.396,185.538L239.491,188.9L240.601,187.907L241.361,187.655L241.906,187.474L243.267,187.242L244.552,186.839L245.892,185.861L247.112,184.752L248.447,184.016L250.108,184.152L250.888,183.703L253.033,183.063L253.463,183.013L253.783,181.485L254.228,181.344L255.249,181.803L255.769,179.509L257.009,180.27L258.844,183.204L260.125,183.053L264.315,181.445L265.385,180.82L266.011,178.884L265.57,177.033L264.855,175.274L264.655,173.615L265.115,172.566L265.985,171.215L267.748,169.031L268.656,168.451L270.236,167.992L271.056,167.241L271.421,166.373L271.566,164.381L271.912,163.474L272.492,162.994L275.192,161.365L276.832,159.595L277.793,157.825L278.168,155.888L278.063,153.613L277.803,153.169L277.367,153.043L276.977,152.866L276.867,152.261L277.042,151.701L277.612,150.692L277.753,150.137L277.99,146.761L278.658,144.738L281.193,141.645L281.958,139.697L293.49,140.298L292.97,143.956L293.575,146.625L295.386,148.835L298.501,151.141L301.422,153.012L305.467,155.05L307.213,158.485L309.193,165.38L310.363,174.84L310.883,176.731L311.523,177.895L313.174,180.25L313.799,181.535L314.559,184.56L315.014,185.331L316.174,186.788L316.564,187.554L316.614,188.2L316.409,189.435L316.489,190.06L316.829,190.669L318.255,192.111L318.85,193.124L319.115,194.031L319.25,196.41L320.905,205.707L320.66,208.055L319.935,208.972L317.959,210.514L317.434,211.35L317.314,213.078L317.434,214.68L317.344,216.206L316.109,218.896L316.584,219.627L317.374,220.156L317.847,220.725L317.919,222.044L317.759,223.409L316.949,226.336L315.739,229.161L314.359,231.296L305.66,241.044L303.757,243.177L296.766,248.737L295.451,250.325L295.226,250.315L293.615,251.214L293.51,251.244L293.615,251.395L293.18,252.752L292.975,253.169L292.53,253.444L291.365,253.635L290.905,253.846L288.524,256.871L290.157,256.977L291.1,257.178L293.425,257.108L294.545,257.438L295.626,258.394L298.501,262.251L300.281,262.858L301.487,261.864L302.247,260.055L302.687,258.253L303.157,257.432L303.767,257.84L304.887,259.297L307.923,260.925L309.198,262.375L309.063,262.938L308.348,263.557L307.848,265.168L308.023,266.089L308.893,267.867L309.113,268.615L308.628,269.498L307.74,269.994L307.398,270.587L308.548,271.752L309.588,270.738L310.773,270.285L311.958,270.321L312.984,270.773L314.244,269.704L315.244,270.104L316.179,271.173L317.204,272.099L317.674,272.049L317.994,271.606L318.4,271.304L319.105,271.692L319.59,272.477L319.7,273.274L319.7,273.946L319.845,274.348L320.725,274.67L328.224,276.376L329.376,276.804L330.427,277.417L331.072,277.903L331.892,278.18L333.462,278.159L334.792,277.832L336.953,276.633L338.083,276.167L342.584,275.538L345.204,275.478L346.879,275.865L348.46,276.945L354.701,278.431L355.221,278.497L355.636,278.326L356.089,278.2L356.686,278.401L356.851,278.723L357.106,279.857L357.441,280.323L361.742,283.789L363.242,285.63L363.482,286.945L362.202,290.7L361.752,292.745L361.512,294.953L361.772,296.919L362.827,298.274L362.867,297.819L363.797,297.321L365.008,296.995L365.878,297.055L366.818,297.92L367.203,298.813L367.518,301.03L367.828,301.377L368.348,301.533L368.843,301.785L369.063,302.406L368.858,302.924L367.973,303.414L367.758,303.861L367.688,306.627L367.788,307.334L369.048,308.92L372.869,310.921L374.049,312.085L375.769,314.506L377.12,313.812L378.25,311.881L379.32,310.597L379.945,311.102L381,312.331L382.431,313.48L384.146,313.742L384.291,314.098L386.286,315.192L386.551,315.247L388.642,316.165L389.132,316.798L388.347,317.811L389.092,318.437L390.372,320.053L391.062,320.43L392.182,319.887L393.38,318.874L394.098,318.583L393.778,320.219L395.278,320.491L395.933,321.76L396.408,323.13L397.328,323.705L398.078,322.964L398.558,321.368L398.858,318.482L401.959,319.837L402.394,323.21L401.764,327.317L401.674,330.885L403.459,338.509L404.725,341.058L406.785,345.208L408,346.775L405.97,346.441L405.31,347.612L405.775,349.456L407.08,351.149L405.16,351.262L404.529,351.232L405.51,352.176L405.675,352.335L405.16,353.141L404.029,354.048L403.329,355.467L403.394,359.127L402.959,360.157L401.604,359.438L401.629,360.988L402.009,362.724L402.679,364.386L403.589,365.7L405.024,366.509L406.04,366.313L406.76,366.463L407.29,368.287L407.545,370.162L407.455,371.255L406.89,372.262L405.72,373.907L405.485,374.557L405.13,376.157L404.644,376.764L403.704,377.184L403.479,376.81L403.474,376.076L403.164,375.441L403.059,374.934L403.549,374.452L403.704,374.072L402.599,373.877L402.359,374.148L399.859,375.501L399.138,376.398L398.728,377.279L397.708,380.483L398.503,385.063L398.428,386.697L397.858,388.404L395.253,393.151L393.89,392.609L392.252,392.579L390.667,393.312L389.452,395.069L389.222,396.754L389.977,402.374L389.992,402.374L389.857,404.462L390.532,405.802L391.432,407.08L391.987,408.962L391.992,410.435L391.612,410.4L390.807,409.825L389.532,409.69L386.576,412.034L386.531,412.95L387.221,415.951L387.086,417.048L386.541,419.055L386.528,419.81L386.526,419.924L387.011,421.045L387.746,421.745L388.507,422.317L389.087,423.022L389.347,423.896L389.772,428.939L389.347,449.717L389.487,450.59L389.747,451.486L389.922,452.496L389.737,454.954L390.427,456.913L390.562,457.823L390.262,458.784L389.252,460.595L389.122,461.578L389.647,462.719L392.85,464.907L392.818,464.914L387.762,465.451L386.313,465.238L384.044,464.282L382.808,464.065L376.201,464.065L375.397,463.757L374.972,463.07L374.661,462.387L374.216,462.075L372.641,461.956L368.845,460.436L367.656,459.717L366.561,458.769L365.986,457.691L365.451,456.376L364.573,455.262L361.667,454.374L359.351,452.549L358.268,452.134L356.67,451.933L355.713,451.431L354.961,450.783L354.012,450.151L352.283,449.456L348.093,448.342L344.77,447.833L338.69,445.451L326.913,444.017L323.499,442.859L319.348,438.269L317.817,437.499L315.946,437.147L305.96,433.52L295.179,425.879L289.607,422.765L276.105,417.834L273.096,416.221L266.308,410.467L263.788,408.858L260.811,407.479L259.803,407.289L257.81,406.404L254.841,405.946L252.467,405.226L250.195,404.163L248.533,402.902L248.848,402.689L248.911,402.625L248.935,402.515L249.131,402.175L244.887,401.005L241.469,399.005L235.924,394.213L234.393,393.229L231.038,391.636L228.018,389.386L226.277,388.734L224.655,387.912L223.371,386.188L224.631,386.188L223.355,384.424L221.41,383.357L219.26,382.542L217.362,381.554L206.065,370.933L205.376,369.485L204.352,365.957L203.486,364.233L202.462,363.24L200.891,362.152L199.194,361.274L197.772,360.918L197.493,360.768L194.76,360.214L194.177,360.254L194.051,359.312L195.201,357.865L195.429,356.931L193.854,354.613L184.199,348.972L170.134,335.448L156.824,324.493L153.383,320.599L152.666,320.005L150.989,319.023L150.382,318.303L150.106,317.325L150.52,316.09L150.382,314.926L149.48,313.434L147.957,312.167L146.232,311.272L144.767,310.936L143.727,310.366L136.884,304.938L132.93,300.606L127.768,297.359L126,296.587L122.338,295.874L120.629,294.888L119.617,293.593L119.873,292.274L120.763,292.829L121.519,292.908L122.133,292.512L122.574,291.609L120.633,291.165L119.243,290.076L118.022,288.757L116.569,287.624L113.423,285.676L111.82,285.01L109.958,284.899L109.958,285.628L114.967,288.203L117.172,290.04L117.892,292.274L116.424,290.46L113.738,288.828L110.659,287.577L91.041,282.709L78.567,276.335L76.677,274.592L77.401,272.94L77.866,273.736L78.37,274.295L79.075,274.675L80.11,274.933L78.496,272.247L78.177,269.901L79.145,267.722L81.366,265.503L79.984,265.503L78.976,265.788L78.177,266.28L77.401,266.898L75.082,262.238L71.888,258.818L68.155,256.27L52.893,247.974L35.528,241.747L23.904,236.577L21.805,234.071L21.722,230.193L22.281,228.028L22.407,227.116L22.443,225.839L21.12,223.357L20.765,222.873L18.946,222.357L17.028,221.163L15.398,219.803L14.457,218.819Z"/>
</svg>
