<svg xmlns="http://www.w3.org/2000/svg" viewBox="0 0 420 520" aria-label="Map of Lesotho">
  <path fill="currentColor" d="M333.956,127.357L336.327,127.223L340.161,128.279L343.668,129.951L345.156,131.814L345.206,135.465L346.148,137.83L348.301,139.31L351.967,140.29L357.567,142.866L370.987,157.099L376.351,158.734L382.859,158.907L387.803,160.986L388.627,171.708L390.452,173.941L392.999,175.887L395.236,178.41L396.464,181.569L398.246,188.139L402.787,194.326L404.435,198.356L404.586,199.494L404.435,202.348L404.603,203.698L405.326,204.836L407.496,206.996L408,208.076L407.403,210.797L404.393,215.119L404.09,218.053L404.199,220.755L403.443,222.84L402.081,224.501L400.231,225.891L395.942,227.783L391.099,229.29L386.508,231.318L383.078,234.834L381.901,238.756L381.851,242.808L381.842,243.548L382.96,248.014L385.281,250.914L382.624,252.751L382.371,255.671L382.405,258.766L380.572,261.106L368.044,264.995L363.318,268.749L360.678,273.433L358.618,278.738L355.582,284.335L355.557,284.847L355.347,289.023L354.372,293.984L354.287,298.481L356.659,301.835L358.71,303.444L359.164,304.782L359.063,306.449L359.417,309.087L361.199,312.695L361.586,314.538L360.543,316.148L358.677,317.079L354.372,318.36L352.387,319.253L339.641,327.202L333.216,331.211L314.297,343.701L303.82,348.034L293.058,350.367L278.444,355.946L272.945,355.907L265.041,352.836L262.317,352.525L259.677,353.166L252.614,357.424L248.594,358.863L240.741,357.716L236.823,358.338L233.602,361.178L232.221,363.802L229.465,369.037L226.918,371.606L225.404,372.754L223.386,375.712L222.259,376.841L220.687,377.542L215.903,378.243L212.926,379.45L209.512,381.533L207.007,384.376L206.653,387.882L208.436,390.433L210.824,391.544L212.724,393.219L213.162,397.526L212.018,401.599L209.866,404.153L196.042,415.093L194.764,417.336L195.117,418.819L197.017,422.136L197.539,424.009L197.337,425.551L194.579,434.336L194.024,435.488L192.721,437.206L191.426,438.32L190.039,439.081L188.685,440.058L187.634,441.816L186.7,445.626L186.81,448.694L187.213,451.723L187.18,455.417L183.262,453.697L164.04,452.016L160.626,450.902L157.381,449.26L155.833,448.029L154.555,446.74L153.176,445.645L151.293,445.001L149.88,445.235L146.769,446.779L145.138,447.052L138.31,446.134L132.643,444.356L127.749,441.23L118.963,431.173L109.049,423.58L108.023,421.98L107.754,420.282L107.67,418.585L107.132,416.907L103.214,411.348L98.959,407.136L98.434,405.29L97.833,403.178L91.896,400.429L89.34,398.286L87.591,395.421L86.397,390.804L85.212,389.576L82.597,389.537L79.149,390.979L78.006,391.174L76.349,390.92L73.107,389.998L72.994,389.966L71.229,389.752L71.497,386.81L67.874,376.666L67.571,371.275L71.128,362.403L73.566,359.913L73.701,358.046L72.17,356.783L69.681,356.082L66.066,356.082L64.048,356.569L62.543,355.966L60.533,352.836L59.44,350.192L57.237,341.272L54.916,337.484L47.113,330.861L44.002,327.191L39.53,316.481L26.092,284.335L26.076,284.335L26.076,284.316L24.688,281.527L19.946,274.343L17.777,272.408L15.641,271.207L13.312,269.311L12,268.672L14.001,264.028L14.068,261.01L15.296,259.249L17.011,259.249L18.542,261.474L19.652,260.061L20.896,257.044L21.771,256.251L23.368,256.212L23.873,257.179L24.293,258.34L25.622,258.92L26.361,258.398L31.625,252.809L32.5,252.209L37.09,250.353L41.867,249.85L43.514,249.232L46.424,247.627L50.998,246.68L54.462,245.211L59.759,242.079L60.513,241.28L60.869,240.901L61.946,239.239L62.753,237.268L63.072,235.123L63.947,234.447L67.764,234.621L68.639,233.829L69.328,230.468L71.128,227.552L77.888,220.118L78.964,219.307L79.603,218.188L79.839,215.814L79.368,214.347L78.409,213.189L77.753,212.109L78.14,210.816L79.603,209.62L81.1,209.118L82.613,208.289L84.194,206.128L84.598,204.45L84.917,200.111L85.405,198.607L88.104,196.89L94.744,194.709L96.084,194.268L97.706,192.881L97.437,190.722L96.42,186.386L96.504,184.594L97.589,182.937L99.228,181.954L100.893,181.318L102.07,180.663L111.387,169.185L115.07,162.256L114.886,161.217L114.279,157.772L115.381,156.502L116.499,157.772L117.306,157.464L118.811,156.695L119.846,156.502L118.433,154.655L116.398,152.559L115.65,150.847L118.231,150.135L120.258,149.231L122.25,147.077L125.395,142.52L126.017,142.289L126.791,142.539L127.447,142.597L127.716,141.828L127.724,140.463L127.901,139.886L128.262,139.29L128.641,138.291L128.809,136.792L128.826,134.216L130.154,132.737L132.719,131.853L134.459,130.412L133.265,127.28L151.797,128.548L156.136,126.589L157.65,123.784L158.675,120.846L159.987,118.388L162.358,117.024L165.419,117.409L167.353,119.194L168.866,121.153L170.699,122.094L175.122,122.094L176.568,121.672L176.77,120.577L176.72,119.137L177.409,117.658L183.564,109.423L190.778,101.69L191.3,100.615L195.79,93.979L197.959,91.275L199.574,88.974L201.054,89.549L209.851,88.663L211.9,88.456L215.18,89.913L218.93,90.316L222.697,89.818L225.976,88.552L229.104,85.696L233.51,78.087L236.671,74.907L240.001,73.508L262.653,71.995L265.882,71.209L275.148,64.889L277.57,64.583L280.647,66.861L282.816,69.485L284.296,72.55L285.288,76.19L286.466,83.798L288.181,86.405L295.395,86.597L297.8,88.629L302.526,97.584L303.871,98.62L308.95,99.541L309.076,99.589L311.64,100.558L314.096,102.054L314.133,102.086L316.383,104.049L318.468,106.582L325.01,118.157Z"/>
</svg>
