<svg xmlns="http://www.w3.org/2000/svg" viewBox="0 0 420 520" aria-label="Map of Libya">
  <path fill="currentColor" d="M67.36,68.799L67.879,68.926L68.736,69.255L69.103,69.493L69.42,70.257L69.804,70.579L70.62,70.96L73.636,71.442L74.556,71.792L74.044,71.239L72.417,70.708L72.001,70.148L73.203,70.833L75.892,71.731L81.724,75.451L82.764,76.536L83.718,76.823L85.32,77.885L87.292,78.861L88.401,79.17L97.921,80.183L100.281,80.011L106.521,78.17L107.544,77.7L108.349,77.051L108.773,76.791L109.348,76.687L111.078,76.616L113.439,77.044L113.724,77.183L113.984,77.407L118.922,80.057L120.058,80.336L124.304,80.151L125.382,80.316L127.502,80.948L129.397,81.785L133.996,82.583L134.24,82.677L134.691,83.097L134.839,83.19L135.263,83.377L136.165,84.284L137.53,85.169L139.698,87.053L140.83,88.28L141.331,88.468L145.376,89.159L145.776,89.378L146.158,89.719L147.251,90.324L147.752,90.488L152.352,90.69L157.432,91.61L158.562,92.028L159.11,92.121L159.459,92.29L160.389,93.551L161.299,94.09L161.632,94.432L161.859,95.505L162.075,96.099L162.619,97.179L163.665,98.638L163.813,99.099L163.768,99.72L163.543,100.777L163.474,101.968L163.433,102.65L163.579,104.804L163.813,105.861L166.806,113.627L167.405,114.697L170.11,118.536L171.725,120.275L173.57,121.728L180.635,125.017L188.472,126.431L197.689,126.527L203.026,127.709L208.476,129.59L212.724,130.531L213.606,130.528L213.833,130.631L214.008,130.756L214.921,131.24L215.636,131.923L215.898,132.079L216.124,132.177L219.795,133.268L221.736,134.224L223.84,134.936L225.652,135.272L225.977,135.563L226.663,136.602L227.12,137.021L227.601,137.263L229.849,137.766L233.803,139.271L234.627,139.76L235.31,140.411L237.519,143.021L243.611,147.566L244.982,149.139L245.727,149.817L247.376,150.708L248.418,150.919L248.905,151.159L252.534,153.546L253.584,153.997L255.799,154.331L258.025,154.374L260.364,154.106L261.66,153.728L262.83,153.388L264.836,152.393L267.62,150.555L268.132,150.32L269.255,150.115L269.762,149.844L273.068,147.251L277.197,142.265L278.291,140.327L278.89,139.487L279.802,138.757L280.245,138.312L281.827,134.942L282.994,131.724L283.137,130.481L282.994,126.732L282.531,125.967L281.912,124.048L281.386,123.233L280.292,122.086L279.889,121.475L278.208,116.715L278.06,115.498L278.038,114.207L277.946,113.727L277.512,112.621L277.355,112.077L277.27,110.859L277.331,109.525L277.696,107.065L278.038,105.961L277.983,105.667L277.881,105.345L277.841,105.027L277.952,104.739L278.267,104.292L280.533,99.482L281.12,98.588L285.866,93.774L286.252,93.146L287.456,91.698L287.962,91.4L288.955,90.964L289.399,90.589L289.734,90.23L293.375,87.319L299.212,84.796L302.643,82.437L305.56,80.963L306.701,80.702L311.444,80.997L312.569,80.893L314.639,80.336L315.632,79.767L319.476,76.256L319.839,76.077L321.05,75.984L322.162,75.672L322.845,76.253L323.937,76.696L325.152,76.975L326.183,77.074L331.642,76.484L331.77,76.385L332.032,75.954L332.154,75.857L332.706,75.756L332.974,75.745L333.268,75.857L333.469,76.034L333.51,76.191L333.51,76.39L333.61,76.687L334.402,77.523L335.413,77.739L337.716,77.7L338.703,78.051L341.152,79.93L341.637,80.22L342.063,80.409L342.522,80.51L343.686,80.597L349.516,82.38L350.868,83.28L351.313,83.411L351.595,83.458L352.428,83.798L352.763,83.847L353.618,83.798L354.187,83.98L355.226,84.514L356.351,84.694L356.843,84.891L357.155,85.202L357.212,85.62L357.07,85.925L356.638,86.466L356.55,86.741L356.786,88.548L357.021,89.007L357.405,89.372L357.911,89.679L357.712,90.257L357.399,92.121L356.906,91.919L356.993,91.635L356.936,91.388L356.774,91.156L356.55,90.91L356.169,93.334L356.205,93.936L356.579,94.246L358.1,94.838L358.66,94.943L359.062,95.188L359.548,95.756L359.954,96.399L360.271,97.285L360.616,97.486L361.012,97.606L361.316,97.781L361.511,98.119L361.743,98.756L361.984,98.991L361.94,98.504L361.657,97.179L362.139,97.366L363.227,97.388L363.449,97.479L364.149,98.068L364.308,98.168L367.447,98.441L370.905,98.386L375.164,99.393L379.115,101.019L378.531,101.599L378.417,101.823L378.618,101.952L379.27,102.226L380.841,103.455L381.41,103.614L386.158,103.561L392.774,104.036L395.024,103.346L395.58,102.941L395.873,102.83L396.88,103.031L397.079,102.973L397.272,102.862L397.457,102.808L397.66,102.93L397.759,103.013L398.064,103.196L398.411,103.291L398.905,103.555L399.719,103.696L400.742,104.098L403.644,104.727L404.548,105.283L404.934,106.245L404.71,107.412L404.655,108.056L404.838,108.579L405.691,109.542L407.017,111.482L407.147,111.985L407.513,112.814L408,113.679L407.907,113.775L407.866,113.873L406.307,115.132L405.608,116.132L404.693,118.62L400.639,121.955L400.332,122.882L400.324,123.951L400.572,126.407L400.595,128.798L401.172,131.912L401.345,132.502L402.219,134.308L402.544,135.792L403.633,138.128L403.973,139.299L403.816,140.302L403.442,141.298L403.132,142.458L402.869,144.055L402.114,146.051L402.031,146.628L401.797,147.607L401.309,148.6L399.852,150.823L399.096,151.595L398.421,152.457L398.183,152.861L397.766,153.853L396.731,155.726L396.332,156.74L396.324,157.855L396.548,158.476L397.252,159.752L399.401,165.153L399.514,165.8L399.483,166.371L399.065,167.871L399.233,169.068L400.512,171.232L400.873,172.413L400.871,173.112L400.646,175.19L400.703,176.299L400.951,177.29L403.019,182.32L403.46,183.857L403.633,185.503L403.633,189.029L403.633,193.814L403.633,205.153L403.633,216.342L403.633,218.552L403.633,228.487L403.633,229.577L403.633,233.865L403.633,243.341L403.633,245.83L403.633,251.128L403.633,256.59L403.633,264.728L403.633,272.847L403.633,280.946L403.633,289.02L403.633,297.078L403.633,305.118L403.633,313.138L403.633,321.137L403.633,329.12L403.633,337.085L403.633,345.032L403.633,352.96L403.633,360.873L403.633,368.767L403.633,376.645L403.633,384.507L403.633,387.857L403.63,391.207L403.63,394.553L403.63,397.894L403.63,401.234L403.628,404.571L403.625,407.904L403.625,411.236L403.625,414.565L403.622,417.89L403.622,421.214L403.622,424.534L403.62,427.065L403.617,429.596L403.617,432.126L403.615,434.654L403.615,437.619L403.615,437.787L403.592,437.829L403.568,437.868L403.545,437.91L403.522,437.949L403.465,437.958L403.411,437.964L403.357,437.97L403.303,437.976L400.788,437.976L397.147,437.974L394.098,437.973L390.991,437.97L387.653,437.967L384.835,437.967L382.702,437.964L378.681,437.964L378.681,441.277L378.681,444.586L378.681,447.894L378.681,451.201L375.599,449.585L372.517,447.97L369.435,446.355L366.354,444.736L363.272,443.119L360.187,441.503L357.108,439.882L354.023,438.264L350.942,436.644L347.86,435.025L344.778,433.403L341.696,431.781L338.614,430.158L335.532,428.536L332.45,426.912L329.368,425.289L326.284,423.663L323.205,422.039L320.12,420.413L317.038,418.784L313.956,417.157L310.874,415.529L307.79,413.899L304.711,412.272L301.626,410.642L298.547,409.01L295.465,407.38L292.381,405.747L289.301,404.112L286.217,402.48L283.135,400.846L280.053,399.211L276.971,397.577L273.887,395.94L270.807,394.303L267.723,392.666L264.641,391.027L261.559,389.387L259.019,388.035L258.477,387.747L255.398,386.107L252.314,384.467L249.232,382.824L246.15,381.183L243.068,379.539L239.983,377.894L236.904,376.25L233.82,374.605L230.738,372.958L227.656,371.312L224.574,369.665L221.492,368.016L218.41,366.367L215.326,364.717L212.246,363.066L209.165,361.416L206.08,359.764L203.001,358.111L199.916,356.46L196.834,354.805L193.753,353.148L190.671,351.492L187.586,349.836L184.507,348.179L181.422,346.523L179.15,345.297L178.64,345.365L177.531,345.914L176.092,346.623L174.653,347.334L173.214,348.045L171.777,348.755L170.338,349.466L168.899,350.176L167.457,350.886L166.018,351.596L164.579,352.306L163.14,353.017L161.701,353.726L160.262,354.434L158.82,355.142L157.386,355.851L155.947,356.56L154.506,357.269L154.068,357.49L154.052,357.498L154.049,357.499L149.778,359.841L145.513,362.18L141.244,364.517L136.974,366.852L135.398,367.714L135.011,367.759L134.647,367.572L133.513,366.557L130.39,363.772L127.272,360.986L124.148,358.195L121.027,355.403L119.624,354.144L116.696,352.498L114.161,351.882L111.959,351.347L109.756,350.814L107.554,350.278L105.351,349.743L103.152,349.208L100.949,348.674L98.749,348.139L96.544,347.603L94.344,347.068L92.144,346.533L89.939,345.999L87.74,345.462L85.54,344.928L83.335,344.393L81.132,343.858L78.932,343.321L77.024,339.435L75.275,335.876L72.476,330.158L72.438,330.08L70.638,326.4L68.908,322.865L68.266,322.026L67.448,321.579L66.415,321.237L58.499,318.607L52.544,316.628L47.786,315.043L47.247,314.938L46.705,315.001L43.946,316.026L41.037,317.11L40.046,317.21L39.58,317.027L36.299,314.375L35.848,313.868L35.536,312.912L35.097,310.361L34.628,309.617L30.914,307.427L30.602,306.692L30.551,302.875L30.44,298.981L30.337,295.352L30.001,293.602L29.042,291.835L25.23,286.498L22.166,282.206L18.357,276.859L14.86,271.942L14.277,270.398L14.894,269.085L15.242,268.638L15.698,267.532L16.549,266.724L16.769,266.32L16.861,265.845L16.892,265.289L25.705,261.063L26.174,260.501L27.216,256.918L27.159,256.326L26.873,255.55L26.945,254.577L27.572,251.599L27.474,251.198L27.079,250.859L25.963,250.233L25.689,249.98L25.449,249.432L24.965,246.505L22.85,239.024L22.863,238.558L22.979,238.103L23.391,236.995L23.721,235.339L24.077,234.744L25.153,233.555L25.351,233.015L25.104,232.428L24.74,231.798L24.66,231.212L25.274,230.762L25.976,230.38L26.393,229.818L28.088,224.198L28.162,223.951L28.204,222.841L24.56,213.152L24.237,211.505L25.493,201.542L26.092,196.781L26.017,191.374L25.465,187.013L23.488,180.152L21.511,173.275L18.566,167.702L15.373,162.913L14.07,161.354L12.585,159.579L12,158.634L17.818,155.408L23.402,152.449L24.137,152.253L25.955,152.132L26.592,151.76L29.694,147.727L32.328,143.461L34.6,140.863L36.139,137.652L36.534,136.479L36.544,135.505L35.917,133.466L35.807,132.434L35.946,131.316L35.912,130.774L35.123,129.107L34.362,126.032L32.5,121.035L32.454,120.527L32.72,118.62L33.112,117.942L34.705,116.155L36.389,113.169L37.674,112.132L40.477,112.168L41.844,111.626L42.251,111.297L42.618,110.924L42.917,110.482L43.337,109.467L44.389,108.479L44.714,107.503L44.923,105.148L45.486,104.545L45.955,104.609L46.404,104.866L46.86,105.048L47.348,104.896L48.183,104.214L49.088,103.651L49.906,102.831L50.912,100.492L51.593,99.759L59.306,96.057L65.836,92.919L67.58,91.752L67.884,91.46L68.389,90.975L68.833,90.052L68.745,88.807L68.165,87.743L66.494,86.092L65.983,84.946L65.965,83.314L66.329,80.186L66.148,77.108L66.595,75.092L66.607,73.427L66.669,72.97L67.384,70.136Z"/>
</svg>
