<svg xmlns="http://www.w3.org/2000/svg" viewBox="0 0 420 520" aria-label="Map of Morocco">
  <path fill="currentColor" d="M215.1,295.594L215.065,295.652L215.202,296.94L215.928,299.26L216.182,301.224L215.819,302.452L215.48,304.005L215.625,305.476L216.182,307.082L216.69,308.742L216.69,309.857L215.673,310.7L213.339,311.163L210.544,311.542L208.499,311.542L205.426,311.27L203.514,311.325L201.845,311.325L200.357,311.597L198.517,312.657L196.472,314.314L193.907,316.54L192.37,317.923L190.326,318.221L188.282,318.221L186.286,317.109L185.003,316.54L184.156,316.594L182.765,317.38L181.119,317.923L179.583,317.923L177.018,316.81L173.945,315.155L172.153,314.314L169.601,314.042L167.037,313.499L165.245,313.771L162.947,313.771L159.874,314.884L157.309,315.698L154.502,316.54L151.308,317.298L152.082,319.794L153.183,321.149L153.183,322.829L152.662,324.236L151.126,325.617L149.372,327.375L148.356,328.754L147.327,330.673L146.565,331.781L145.246,333.589L144.073,335.855L143.709,337.258L143.238,338.875L142.33,339.36L139.209,339.79L137.225,340.356L135.495,340.895L134.849,341.847L134.745,341.999L134.248,343.937L134.248,345.308L133.753,346.411L133.014,349.152L132.023,351.649L131.272,354.949L130.534,357.682L129.542,362.074L128.55,366.164L127.316,370.01L126.323,372.465L125.574,373.825L123.843,375.478L122.355,376.544L120.625,377.929L118.641,379.286L115.919,380.91L113.68,382.294L112.77,382.916L111.697,383.649L109.966,385.536L108.478,388.273L107.486,390.448L105.756,393.976L104.522,395.884L103.772,396.943L101.787,398.029L99.561,398.85L97.081,399.934L95.097,401.02L92.375,402.103L90.645,403.187L89.398,404.8L88.407,406.702L87.172,409.421L86.18,412.375L85.684,414.273L84.196,420.751L83.7,424.51L83.204,426.928L82.465,429.894L81.97,434.457L81.97,438.203L81.473,440.349L81.219,441.971L79.985,443.828L78.993,445.161L77.264,447.042L75.775,448.113L75.279,449.183L73.791,450.513L72.303,452.653L71.069,453.984L71.311,455.053L71.565,456.929L70.815,458.804L70.077,460.939L68.092,463.592L65.866,464.918L62.636,465.178L58.184,465.178L54.712,464.918L50.501,464.918L46.787,464.398L43.314,463.852L39.104,463.592L36.127,463.592L32.414,464.112L22.746,464.112L19.032,464.398L13.576,465.464L12,465.725L12.023,465.053L13.058,461.127L13.16,459.956L13.076,458.945L13.133,458.337L13.553,457.604L13.637,457.303L13.669,456.976L13.654,456.664L13.573,456.521L13.251,456.247L13.16,456.099L13.294,455.708L13.408,454.911L13.881,453.819L14.08,452.715L14.298,452.091L16.884,446.765L17.775,445.824L17.914,445.577L17.955,445.416L18.236,444.772L18.378,444.634L18.785,444.341L18.929,444.191L19.331,443.275L19.606,442.887L20.205,442.656L20.34,442.51L20.509,442.379L20.79,442.361L21.007,442.452L21.195,442.606L21.466,442.928L24.189,441.831L24.675,441.429L25.172,440.829L25.557,440.156L26.427,437.055L26.48,436.589L26.723,436.285L27.956,435.038L28.266,434.641L28.585,432.926L28.66,430.642L28.773,430.058L29.069,429.097L29.277,428.652L29.773,427.952L29.778,427.68L29.686,427.466L29.633,427.289L29.632,426.978L29.67,426.796L29.89,426.302L29.942,426.131L30.062,426.035L30.612,425.976L31.206,425.815L32.003,425.104L32.833,424.149L33.074,423.617L33.241,423.072L33.338,422.487L33.37,421.845L33.166,421.215L32.682,421.116L31.663,421.392L31.838,420.892L32.261,420.037L32.493,419.72L33.668,418.626L33.771,418.448L35.622,414.148L35.901,413.783L36.169,413.626L36.486,413.328L37.585,411.415L37.932,409.602L38.198,409.094L38.573,408.563L39.46,406.969L40.66,405.576L40.74,405.411L41.148,405.102L41.321,404.922L41.453,404.632L41.577,404.077L41.676,403.796L42.058,403.172L42.451,402.675L42.753,402.165L42.875,401.493L42.93,400.298L42.839,399.786L42.521,399.174L42.603,399.026L42.691,398.803L42.402,399.022L42.373,399.339L42.421,399.713L42.367,400.098L42.19,400.302L41.557,400.745L41.321,400.854L40.995,400.864L40.781,400.803L40.545,400.856L40.153,401.208L39.89,401.545L39.712,401.869L39.339,402.775L39.019,403.363L38.954,403.535L38.901,403.862L38.668,404.401L38.615,404.645L38.402,404.967L37.246,406.031L36.877,405.749L37.04,405.298L37.585,404.645L37.718,404.252L38.615,402.518L40.153,400.384L40.309,399.961L40.667,399.48L41.06,399.055L42.864,397.504L43.667,397.197L44.735,396.529L45.059,396.211L45.875,396.133L46.532,395.703L47.049,395.104L47.443,394.509L48.459,393.315L49.151,392.286L50.101,391.589L50.506,391.207L50.672,390.71L50.878,390.392L53.141,388.511L54.507,387.041L56.209,384.44L56.843,383.713L57.639,382.987L58.092,382.675L58.591,382.429L59.105,382.267L60.177,382.084L60.7,381.785L61.53,381.126L61.516,380.493L61.594,380.334L61.897,379.708L62.486,378.974L63.083,378.488L63.706,378.146L64.181,377.772L64.483,377.221L64.725,375.447L65.318,373.825L65.529,372.556L65.87,371.772L65.959,371.407L65.912,370.958L65.811,370.544L65.783,370.134L65.959,369.694L65.775,369.523L65.93,369.138L66.045,368.705L66.116,368.248L66.129,367.811L66.062,367.387L65.826,366.79L65.775,366.435L65.801,364.013L65.621,363.324L66.376,360.144L66.552,359.709L67.297,356.944L68.434,355.335L68.757,355.053L68.961,354.785L69.698,352.991L69.867,351.763L69.919,351.589L70.152,351.099L70.288,350.231L71.289,347.692L73.135,345.06L73.803,343.832L73.942,343.469L74.012,342.921L74.41,341.687L74.619,341.306L74.525,340.864L74.772,339.31L74.7,338.905L74.464,338.071L74.532,337.795L74.725,337.487L74.985,336.681L75.125,336.372L76.513,334.554L76.746,334.382L77.924,334.115L79.268,333.389L81.325,331.364L81.669,330.9L81.899,330.423L82.209,330.011L82.784,329.751L85.514,329.457L85.988,329.236L88.565,327.894L93.068,324.646L96.091,322.683L97.55,321.014L99.043,317.982L99.552,316.499L100.03,314.246L100.75,312.632L101.481,309.112L101.947,308.051L103.993,305.008L104.001,304.853L103.828,304.593L103.824,304.436L104.162,304.247L105.486,301.075L106.31,298.223L106.363,297.633L106.478,297.131L106.969,296.059L107.037,295.566L107.038,295.557L107.054,295.436L107.21,294.936L107.476,294.666L108.224,294.29L109.026,293.614L109.931,293.315L110.335,292.841L111.379,291.127L111.96,289.09L112.244,288.504L112.634,288.111L113.111,287.828L115.444,286.939L119.932,286.164L123.507,286.237L127.93,284.782L134.71,283.61L134.983,283.413L135.54,282.827L135.659,282.751L136.093,282.65L141.624,280.207L148.978,276.957L149.791,276.314L150.385,275.541L151.364,273.88L151.743,273.46L152.19,273.063L152.561,272.617L152.717,272.052L152.934,271.616L154.408,270.59L155.568,269.153L155.762,268.75L156.79,268.103L156.985,267.885L157.189,267.499L157.314,267.313L158.161,266.631L158.246,266.52L158.754,265.657L159.447,264.92L159.831,264.656L166.892,261.022L168.587,259.88L170.614,258.828L171.571,258.185L174.615,255.3L177.168,251.407L177.838,250.596L178.306,250.201L179.246,249.853L179.633,249.419L180.229,248.462L180.854,247.66L181.141,247.157L181.261,246.636L181.387,246.393L182.276,245.745L182.393,245.564L182.613,244.967L183.633,243.43L183.783,243.111L183.839,242.509L183.989,241.871L184.212,241.294L184.476,240.867L185.658,239.77L185.843,239.416L185.994,238.961L187.029,237.557L190.243,234.048L192.778,229.542L194.333,225.81L194.578,224.747L194.996,221.094L195.452,219.187L195.518,218.618L195.411,217.85L195.137,217.475L194.754,217.21L194.333,216.763L194.058,216.272L193.426,214.826L193.22,213.873L193.014,213.735L192.737,213.705L192.458,213.604L192.235,213.379L191.781,212.604L190.009,211.401L189.482,211.371L188.91,211.246L188.55,210.835L188.596,209.728L189.118,208.645L189.777,207.619L190.243,206.683L190.404,206.037L190.425,205.678L190.328,205.403L190.153,205.144L190.14,204.962L190.202,204.755L190.243,204.41L190.058,198.735L189.965,198.217L189.567,197.177L189.876,196.498L190.522,192.4L190.58,190.739L190.474,190.06L190.211,189.694L189.882,189.423L189.567,189.028L190.342,188.029L190.919,187.026L191.496,185.279L191.781,184.862L192.24,184.449L192.398,184.235L192.537,183.718L192.885,183.349L193.033,183.015L193.366,182.538L193.488,182.262L193.836,179.927L194.032,179.468L196.299,176.992L197.301,175.581L197.485,175.384L197.848,175.103L198.055,174.882L198.241,174.599L198.458,174.096L198.579,173.886L201.495,170.855L201.793,170.259L201.983,169.826L202.27,168.653L202.314,168.172L202.437,167.81L203.332,166.684L203.685,165.874L203.876,164.969L204.006,161.946L203.903,161.803L203.437,161.569L203.332,161.354L203.389,160.719L203.546,160.27L204.217,158.955L204.401,158.369L204.448,157.788L204.253,157.32L204.034,157.02L203.818,156.595L203.671,156.107L203.655,155.613L204.126,154.715L207.787,151.598L210.603,148.232L213.003,146.53L213.843,145.731L216.645,141.93L219.756,138.471L219.946,138.124L219.974,137.749L219.958,137.112L220.183,136.735L222.233,134.293L222.432,134.18L222.646,134.24L222.887,134.505L223.101,134.566L223.704,134.532L224.154,134.426L225.061,133.958L225.96,133.227L227.41,131.427L228.292,130.701L229.32,130.265L232.705,129.483L235.059,128.427L236.273,127.881L237.42,127.591L238.035,127.33L238.573,126.64L239.191,126.361L240.846,125.846L241.832,125.33L242.296,125.224L242.754,124.97L243.164,124.459L243.582,124.079L244.07,124.208L244.359,124.023L244.597,124.063L244.829,124.178L245.103,124.208L245.339,124.113L245.77,123.839L246.496,123.696L247.012,123.485L247.48,123.22L247.807,122.969L248.644,121.882L249.362,121.533L250.054,120.676L250.531,120.512L250.362,120.734L250.86,120.905L251.386,120.745L251.671,120.553L253.495,119.322L254.441,118.472L255.342,117.972L256.343,117.603L257.224,117.46L257.235,117.459L257.658,117.299L258.442,116.6L259.335,116.285L261.923,114.198L264.532,111.345L266.72,107.665L268.355,104.132L271.077,100.014L271.329,99.503L271.746,98.322L272.316,97.397L277.664,86.065L279.812,78.691L284.309,67.256L284.442,66.676L284.488,65.933L284.596,65.5L285.129,64.29L285.644,62.645L285.688,62.388L285.763,62.105L286.089,61.639L286.164,61.338L286.311,59.903L286.483,59.194L286.705,58.732L287.18,58.225L288.038,58.083L290.318,58.421L290.618,58.364L291.286,57.689L291.594,57.451L292.044,57.207L292.496,57.096L292.808,57.252L293.241,57.047L293.829,57.032L294.417,57.18L294.838,57.461L296.299,56.586L296.714,56.21L297.601,55.18L298.062,54.77L298.576,54.52L298.777,54.533L298.89,54.646L299.186,54.813L299.417,54.799L299.512,54.564L299.57,54.329L299.632,54.275L299.785,54.338L299.797,54.337L300.023,55.024L300.304,55.647L300.688,56.193L301.237,56.696L301.235,56.704L301.114,57.148L301.197,57.909L301.568,59.492L301.686,60.776L301.782,61.144L301.933,61.427L302.127,61.648L302.274,61.675L302.695,61.608L302.822,61.648L302.856,61.825L302.805,62.288L302.822,62.481L303.237,64.102L303.5,64.715L304.02,65.205L305.066,65.959L305.944,66.801L308.038,69.802L308.42,70.104L309.027,70.212L309.476,70.356L309.964,70.701L310.802,71.474L311.501,72.451L311.926,72.93L313.025,73.311L314.372,74.585L315.366,75.161L318.89,76.242L322.182,76.988L322.211,76.994L325.14,77.865L325.844,77.917L326.354,77.776L327.783,76.864L331.222,76.26L333.301,75.316L335.417,74.875L336.457,74.378L336.703,74.728L336.625,74.861L336.325,74.963L336.204,75.076L336.315,75.257L336.478,75.468L336.839,75.975L337.202,76.15L337.715,76.183L338.401,76.242L338.87,76.2L339.724,76.126L340.286,75.846L340.516,75.301L340.723,74.474L341.242,73.909L341.902,73.649L342.546,73.738L343.026,74.069L344.067,75.03L344.593,75.395L346.45,75.691L347.112,76.071L347.407,76.081L347.721,76.047L347.991,76.053L348.263,76.143L348.749,76.38L349.005,76.468L350.265,76.571L351.326,76.35L354.401,75.246L354.926,74.916L356.049,73.718L356.312,73.549L356.517,73.564L356.748,73.689L357.014,73.787L357.327,73.738L358.111,72.933L359.081,70.529L359.711,69.588L359.662,69.269L359.783,69.016L360.015,68.921L360.31,69.079L360.42,69.328L360.287,69.852L360.402,70.212L360.152,71.139L360.481,72.31L360.522,72.452L360.529,72.467L360.056,72.95L360.134,73.789L360.648,74.346L361.394,74.072L361.738,74.585L361.517,74.859L361.408,75.32L361.384,75.827L361.471,76.808L361.587,77.206L361.804,77.563L362.16,78.02L362.803,78.488L363.673,78.772L365.478,78.952L364.395,78.067L362.5,75.879L362.131,75.237L362.249,75L362.585,75.264L363.786,76.571L363.977,76.897L365.156,78.125L366.216,78.739L367.494,79.187L370.059,79.553L371.192,79.455L371.791,79.302L372.19,79.053L372.713,78.452L373.183,78.07L373.689,77.946L376.05,78.865L376.604,78.952L377.194,79.146L377.853,79.519L378.5,79.76L378.535,80.951L378.77,81.753L379.213,82.353L379.968,82.643L380.892,83.311L381.662,84.044L382.497,84.588L383.611,84.692L383.925,84.936L384.022,85.294L384.054,85.706L384.176,86.124L384.516,86.535L385.83,87.355L386.67,88.152L389.275,89.811L389.725,90.274L389.636,90.494L389.314,90.741L388.71,92.101L387.41,94.123L387.208,94.633L390.193,97.716L391.095,97.99L391.375,98.152L388.732,101.373L389.681,102.506L390.307,103.837L392.074,109.36L392.14,109.777L392.2,110.161L392.139,110.76L390.984,115.573L390.901,116.974L391.125,118.44L391.386,119.31L391.368,119.638L391.18,120.078L390.929,120.397L390.641,120.65L390.401,120.951L390.289,121.409L390.439,121.879L390.819,122.144L391.678,122.453L392.111,122.775L392.38,123.127L393.496,125.811L393.61,126.792L393.297,127.601L392.925,128.157L392.46,129.812L392.121,130.559L391.864,131.312L391.86,134.23L392.087,135.204L393.341,136.429L393.787,137.275L394.122,138.205L394.635,138.933L395.276,139.53L395.998,140.058L396.416,140.465L396.576,141.077L396.568,141.767L396.49,142.413L396.432,142.717L396.33,142.994L396.184,143.239L395.998,143.441L394.947,144.204L398.303,149.844L399.116,150.54L400.69,151.125L407.616,156.475L408,157.139L406.563,158.754L405.741,159.385L404.822,159.766L403.795,159.915L403.392,160.128L402.991,160.656L402.744,161.175L402.412,162.233L402.018,164.912L401.966,165.261L401.974,165.509L401.938,165.749L401.781,166.062L401.627,166.217L401.219,166.543L401.123,166.727L401.232,167.204L401.632,167.211L402.553,166.842L403.027,166.836L403.544,166.994L403.946,167.353L404.07,167.963L403.581,169.003L402.609,169.237L400.741,169.148L400.531,169.137L399.937,169.109L398.996,169.065L397.751,169.007L396.247,168.936L394.526,168.855L392.628,168.764L390.597,168.669L388.476,168.569L386.305,168.468L384.127,168.365L381.986,168.264L379.923,168.165L377.984,168.075L376.205,167.99L374.633,167.917L371.225,167.759L366.78,169.003L362.18,169.394L360.754,170.203L362.463,174.765L363.502,177.619L359.173,178.23L353.805,179.859L346.561,181.169L345.639,181.25L344.583,181.008L342.895,181.894L342.549,189.411L340.715,189.529L339.352,190.53L339.037,190.922L338.937,191.452L339.094,193.641L339.042,194.303L338.518,195.194L338.352,195.761L338.439,196.264L338.733,196.524L339.146,196.551L339.588,196.355L340.313,195.667L340.681,195.471L341.113,195.583L341.468,195.962L342.146,197.052L342.587,197.479L343.481,197.918L343.771,198.183L344.009,198.718L344.119,199.231L344.153,199.793L345.492,201.959L344.107,204.18L342.895,205.39L343.068,207.204L343.241,209.018L338.566,211.434L334.41,212.44L330.6,212.641L327.656,213.446L325.231,214.853L322.461,218.469L318.997,221.277L315.361,222.881L312.763,224.284L310.685,225.886L307.914,228.288L305.317,230.087L302.892,232.685L301.161,236.079L298.909,239.667L296.312,243.052L293.887,243.848L291.809,243.052L290.944,240.464L287.826,240.863L284.883,241.46L281.765,241.46L278.129,241.46L274.665,241.858L271.029,242.853L267.565,243.251L265.487,245.241L261.158,243.45L258.387,243.251L256.482,243.45L253.712,244.644L251.461,247.03L248.644,246.868L248.129,247.058L247.582,247.121L247.028,247.101L245.933,246.911L244.774,246.86L243.928,247.236L242.415,248.781L242.035,249.085L240.846,249.705L239.331,251.133L236.707,252.916L234.445,255.083L233.619,255.665L230.828,256.906L229.139,258.061L227.496,259.639L227.087,259.885L226.215,260.277L225.843,260.581L224.993,262.093L224.68,262.414L223.555,263.043L222.44,263.939L219.268,265.667L218.803,266.07L218.526,266.603L218.437,267.363L218.437,268.653L218.437,270.345L218.437,272.033L218.437,273.722L218.437,275.411L218.437,277.098L218.437,278.784L218.437,280.47L218.437,282.152L218.437,283.836L218.437,285.519L218.437,287.201L218.437,288.882L218.437,290.561L218.437,292.239L218.437,293.916L218.437,295.595L216.698,295.595L215.113,295.594Z"/>
</svg>
