<svg xmlns="http://www.w3.org/2000/svg" viewBox="0 0 420 520" aria-label="Map of Madagascar">
  <path fill="currentColor" d="M120.545,313.374L120.427,312.198L120.768,310.868L123.271,305.826L124.008,304.676L126.053,302.67L126.863,301.654L127.507,300.495L128.06,299.132L128.236,298.016L128.247,296.451L127.99,295.238L127.356,295.149L127.055,294.134L126.89,293.879L126.645,293.736L126.154,293.71L125.93,293.63L125.467,293.22L125.012,292.657L124.664,292.019L124.527,291.393L124.661,290.901L125.317,289.65L125.582,289.264L125.858,288.748L125.97,288.141L125.93,286.893L125.852,286.523L125.73,286.194L125.649,285.847L125.696,285.424L125.858,285.258L126.455,284.879L126.656,284.656L126.829,283.972L126.913,283.412L127.186,283.03L127.943,282.894L128.397,282.261L128.261,280.834L127.571,278.422L127.058,277.265L126.402,276.188L124.775,274.603L124.527,274.18L124.259,272.988L123.606,271.803L120.444,267.655L119.847,266.476L119.612,265.236L119.847,263.12L120.31,261.99L120.31,259.765L120.282,259.677L120.137,259.411L120.098,259.269L120.159,259.022L120.45,258.73L120.545,258.532L120.757,257.633L120.779,257.279L120.634,256.147L119.813,253.621L118.184,249.155L115.733,245.723L113.512,242.492L113.241,241.422L113.244,234.238L111.899,227.227L111.843,224.857L112.859,220.388L113.032,218.788L112.848,218.251L112.027,217.478L111.55,215.834L109.382,212.748L109.189,211.881L109.203,210.763L109.499,208.551L109.859,207.501L111.609,204.623L112.223,203.129L112.438,203.026L112.842,203.234L113.06,202.965L113.375,201.924L115.987,197.834L116.548,197.255L116.799,196.732L116.906,196.224L117.012,194.525L117.972,194.551L118.809,193.179L119.972,190.097L120.21,189.724L121.144,188.749L121.329,188.449L121.611,187.635L121.856,187.273L122.414,186.632L122.827,185.961L123.486,184.468L124.384,183.139L125.582,181.816L126.578,180.403L126.89,178.798L126.701,178.104L126.081,176.578L125.93,175.845L126.103,174.983L126.503,174.581L126.857,174.756L126.89,175.629L127.432,174.697L127.7,173.711L127.683,172.712L127.356,171.72L126.067,169.765L125.548,168.686L125.464,167.528L125.615,167.077L125.883,166.569L126.204,166.083L126.528,165.717L126.762,165.333L126.846,164.859L126.946,162.848L127.058,162.359L127.337,162.037L127.906,161.877L129.048,161.871L130.222,161.674L137.701,162.403L138.628,162.185L139.052,162.214L139.884,162.909L140.484,163.249L141.103,163.417L141.586,163.258L141.91,162.839L142.122,162.493L142.376,162.197L142.853,161.915L143.327,161.784L144.315,161.627L144.767,161.427L144.488,161.183L146.486,160.227L147.48,159.588L148.152,158.725L149.322,156.759L150.092,155.789L150.856,155.049L151.786,154.5L153.896,153.586L155.235,152.66L155.478,152.881L155.556,153.397L155.606,154.529L156.206,156.512L156.24,156.686L156.259,157.017L156.24,157.27L156.047,157.993L156.002,158.6L156.058,159.065L156.315,159.37L156.856,159.477L157.381,159.303L157.721,158.914L158.012,158.455L158.38,158.115L159.547,157.671L160.032,157.331L160.261,156.774L160.174,156.463L159.502,156.207L159.094,155.781L158.815,155.18L158.799,154.727L159.111,154.439L164.712,153.83L164.949,153.757L165.2,153.638L165.65,153.342L165.904,154.338L166.166,154.709L166.294,154.796L166.345,154.93L166.353,155.435L165.982,156.469L166.004,156.829L166.604,156.53L166.839,157.224L167.09,157.142L167.425,156.53L167.073,154.692L167.176,154.297L167.723,153.743L167.991,153.342L167.96,153.252L167.991,152.35L168.061,152.036L168.178,151.772L168.262,151.494L168.245,151.131L167.977,150.678L167.609,150.368L167.411,150.052L167.659,149.562L168.764,148.378L169.894,147.642L170.251,147.618L170.821,147.844L171.334,147.978L171.859,147.978L172.364,148.036L173.603,148.833L174.373,148.72L176.463,147.494L176.893,147.337L177.356,147.247L177.887,147.215L178.629,147.323L178.886,147.636L178.824,148.816L178.852,149.376L178.978,149.666L179.26,149.799L179.756,149.913L180.047,149.939L180.644,149.892L180.934,149.913L181.866,150.42L182.659,150.449L182.659,150.229L182.324,149.791L182.101,149.182L182.246,148.799L182.558,148.488L182.821,148.103L182.826,147.479L182,147.908L181.196,148.535L180.733,148.755L180.934,147.966L181.431,147.154L182.14,146.415L182.946,145.78L183.736,145.287L184.517,144.971L185.338,144.812L187.04,144.806L187.902,144.919L188.301,145.061L188.469,145.302L188.472,145.719L188.519,146.093L188.656,146.435L188.932,146.748L188.536,147.392L188.374,147.96L188.137,148.468L187.503,148.938L188.251,149.556L188.798,150.113L189.233,150.765L190.439,153.258L190.992,153.931L191.745,154.561L191.778,154.213L191.753,153.757L191.784,153.334L191.979,153.098L192.256,153.185L192.641,153.865L192.911,154.074L193.592,153.917L193.88,153.299L193.855,152.524L193.615,151.883L194.519,151.795L195.177,152.437L195.772,153.287L196.467,153.83L196.824,153.551L196.45,152.608L195.63,151.131L194.951,150.826L193.531,149.486L192.677,149.182L191.572,149.248L191.271,149.182L190.645,148.802L190.707,148.564L191.114,148.332L191.527,147.966L192.437,146.534L192.588,145.838L192.214,145.287L191.837,145.247L191.368,145.31L190.975,145.31L190.807,145.044L190.919,144.467L191.419,143.493L191.801,142.192L192.448,141.508L193.978,140.285L196.14,137.835L196.936,137.244L196.994,137.426L197.07,137.574L197.131,137.739L197.148,137.974L197.53,137.756L198.459,136.87L199.916,135.802L200.323,135.414L201.13,134.864L202.042,134.771L202.947,134.786L203.725,134.551L203.273,134.244L202.21,133.949L202.084,133.605L202.453,133.22L204.428,132.733L207.961,130.158L210.548,127.78L211.997,127.355L212.951,126.835L213.484,126.716L213.705,126.835L213.808,127.11L213.852,127.439L213.847,128.376L213.903,128.57L214.321,129.452L214.592,129.811L214.96,130.115L215.496,130.424L216.668,130.91L217.246,131.298L217.251,131.738L216.911,132.201L216.392,133.104L215.965,133.469L215.432,133.822L215.08,134.195L213.554,137.284L213.144,138.483L213.253,139.323L213.621,139.404L213.875,138.906L214.187,137.736L214.589,137.371L215.214,137.166L216.434,136.983L217.598,136.543L218.68,135.964L219.746,135.654L220.857,136.033L222.102,135.559L222.643,135.185L222.755,134.551L222.621,134.349L222.397,134.296L222.118,134.273L221.817,134.186L221.524,134.007L221.398,133.848L220.824,132.774L220.349,130.517L220.36,130.291L220.249,130.184L219.816,130.158L219.512,130.219L218.518,130.667L218.424,130.216L218.468,129.811L218.795,128.949L218.329,129.013L217.955,129.001L217.698,128.833L217.486,128.11L216.903,127.772L216.668,127.468L216.601,126.664L216.903,125.898L217.838,124.58L218.979,123.559L220.455,122.582L221.739,121.444L222.481,119.343L222.961,118.71L224.689,117.07L225.409,116.648L226.182,116.382L226.991,116.293L227.435,115.903L227.538,115.077L227.315,114.344L226.756,114.234L226.38,114.552L226.179,115.123L225.796,115.326L225.266,115.357L224.942,115.158L224.412,114.355L224.624,114.355L225.657,112.699L229.938,108.136L230.418,107.782L230.641,107.92L230.775,108.312L230.993,108.742L231.696,109.556L231.74,109.928L231.59,112.101L231.718,112.638L231.863,112.776L232.089,112.854L232.307,113.016L232.416,113.385L232.327,113.484L231.947,114.355L229.977,116.671L229.458,117.506L229.109,118.566L228.757,122.906L228.872,123.334L229.352,123.608L229.759,123.522L230.884,122.897L231.227,122.637L231.847,121.669L232.17,120.678L232.617,119.742L233.588,118.959L233.973,119.256L234.09,118.93L234.057,118.011L234.249,117.419L236.702,112.704L236.886,111.671L237.037,111.232L238.153,110.084L238.251,109.79L238.248,109.149L238.377,108.878L238.639,108.673L239.225,108.387L239.42,108.258L240.193,107.358L240.503,106.836L240.632,106.345L240.871,105.803L241.379,105.515L241.865,105.16L242.018,104.407L243.475,106.458L244.145,107.046L244.594,107.228L245.669,107.528L246.04,107.799L246.218,108.223L246.179,109.045L246.255,109.489L246.754,108.924L246.79,108.136L246.509,107.418L246.04,107.046L246.991,106.282L247.898,106.386L248.582,107.13L248.847,108.272L248.797,110.681L248.984,111.354L249.553,110.459L249.746,109.417L249.735,107.96L249.422,106.665L248.733,106.103L248.272,105.947L247.843,105.575L247.083,104.762L246.439,104.413L245.923,104.494L244.848,105.134L244.404,105.316L243.961,105.405L243.489,105.296L242.973,104.869L242.697,104.373L242.484,103.86L242.25,103.672L241.282,105.019L240.846,105.437L240.503,105.618L240.294,105.342L239.582,104.061L239.42,103.664L239.49,103.519L239.839,103.168L239.909,102.937L239.842,102.597L239.711,102.395L239.557,102.228L238.974,101L238.988,100.787L239.13,100.672L239.192,100.568L238.804,100.265L238.739,100.159L238.795,98.631L239.013,97.439L239.44,96.324L240.143,95.422L240.961,94.924L241.215,94.633L241.312,94.069L241.357,93.015L241.499,92.635L241.804,92.261L242.613,92.004L244.209,93.165L245.325,93.101L245.783,92.98L246.464,93.075L246.74,92.98L247.039,92.589L247.256,92.013L247.393,91.403L247.443,90.916L247.318,90.108L246.977,89.135L246.456,88.292L245.786,87.892L246.235,87.408L246.972,87.615L248.381,88.637L248.657,88.784L248.953,88.899L249.232,89.054L249.444,89.336L249.489,89.797L249.269,90.136L248.984,90.467L248.847,90.916L248.736,91.817L248.239,93.646L248.127,94.561L248.122,94.881L248.172,95.434L248.384,95.875L248.847,95.883L249.076,95.598L249.093,95.198L249.048,94.783L249.082,94.455L249.349,94.236L249.79,93.957L250.139,93.646L250.139,93.343L249.869,93.027L249.603,92.623L249.402,92.186L249.336,91.777L249.584,91L250.51,89.728L250.722,88.974L250.722,88.154L250.628,87.339L250.323,86.712L248.964,86.246L248.205,85.711L246.955,84.512L249.562,83.146L249.562,82.7L247.912,81.616L246.531,81.058L246.146,80.75L245.247,79.057L244.717,76.747L244.99,74.776L246.489,74.098L246.123,73.552L245.702,73.351L245.381,73.03L245.314,72.148L245.42,71.407L245.694,70.356L246.157,69.63L246.849,69.859L247.363,69.9L247.644,69.027L247.795,67.448L248.088,67.178L248.456,66.954L248.816,66.954L249.082,67.327L248.936,67.548L248.59,67.841L248.378,68.237L248.616,68.774L248.808,68.668L249.143,68.599L249.336,68.533L249.151,68.961L249.227,69.354L249.5,69.543L249.905,69.366L250.039,69.073L250.047,68.763L250.187,68.478L250.722,68.272L250.092,67.583L250.047,67.322L251.32,67.327L251.844,67.729L252.082,68.631L252.207,69.601L252.383,70.221L253.334,69.785L253.859,70.08L254.121,70.804L254.275,71.665L254.869,73.265L254.959,73.857L254.959,74.098L254.987,74.336L255.093,74.526L255.628,74.724L255.547,74.994L255.193,75.422L255.573,76.132L256.468,76.801L257.487,77.301L258.246,77.491L259.217,77.241L260.202,76.595L260.674,75.733L260.105,74.819L260.345,74.27L260.361,72.409L260.554,71.838L261.182,70.701L261.305,70.221L260.557,68.978L260.406,68.349L261.07,68.051L261.466,68.252L262.471,69.739L262.647,69.084L262.945,68.453L263.297,67.924L263.638,67.569L264.078,67.408L264.723,67.299L265.357,67.27L265.77,67.327L265.761,67.152L265.781,66.788L265.77,66.61L266.562,67.307L266.967,67.528L267.293,67.448L267.218,67.138L266.618,65.904L266.347,64.923L265.744,64.125L265.513,63.723L265.41,63.247L265.39,62.759L265.513,61.796L266.049,61.919L266.361,62.243L266.601,62.642L266.942,63L266.958,63.574L267.586,63.999L269.403,64.722L269.721,64.793L270.064,64.742L270.475,64.552L270.902,64.449L271.334,64.518L271.739,64.639L272.11,64.682L273.355,64.329L274.605,63.597L275.727,62.622L276.581,61.532L275.983,60.832L276.475,59.828L277.753,58.271L277.641,57.838L277.139,57.018L277.03,56.468L277.049,55.31L277.128,54.72L277.901,51.946L278.355,50.966L279.307,49.683L279.572,49.139L279.776,48.572L279.86,48.131L280.027,47.733L280.429,47.209L280.895,46.756L281.266,46.581L281.115,45.691L281.66,43.418L281.735,42.477L281.537,42.027L280.847,41.203L280.563,40.777L280.342,40.293L280.208,39.898L280.03,38.322L279.901,37.93L279.391,37.172L279.176,37.038L278.989,37.089L278.819,37.061L278.668,36.695L278.679,36.34L278.847,36.134L279.039,35.962L279.156,35.714L279.131,35.422L278.936,34.993L278.922,34.753L279.307,33.892L279.391,33.792L279.131,33.372L278.738,33.329L278.255,33.518L277.753,33.792L277.736,32.76L277.432,32.171L276.327,31.153L275.794,29.724L275.506,29.247L275.409,29.933L274.008,29.239L274.421,28.901L275.023,27.944L275.409,27.907L275.822,28.101L276.19,28.21L277.044,28.256L278.216,28.493L278.941,29.124L279.977,31.133L280.354,31.339L280.889,31.176L281.408,30.816L281.735,30.439L281.877,29.913L281.969,28.038L282.045,27.833L282.435,27.078L282.438,26.898L282.374,26.401L282.435,26.119L282.74,25.673L283.178,25.33L283.663,25.202L284.096,25.404L284.322,24.776L284.679,24.479L285.098,24.216L285.502,23.702L286.007,24.33L286.454,23.851L286.892,22.991L287.375,22.486L287.938,22.96L288.452,22.771L288.843,22.2L289.035,21.549L288.993,21.278L288.876,21.024L288.776,20.738L288.801,20.35L288.988,19.959L289.25,19.739L289.524,19.579L289.755,19.368L290.093,19.308L290.177,19.119L289.97,18.654L289.674,18.312L289.445,18.255L289.186,18.277L288.801,18.169L288.631,18.02L288.516,17.815L288.368,17.604L288.098,17.433L287.721,17.37L286.457,17.433L286.917,16.79L288.296,16.345L288.801,15.755L289.32,16.12L290.439,17.695L290.673,17.433L290.927,17.695L290.964,17.016L290.701,16.257L290.193,15.663L289.504,15.515L289.638,15.161L289.853,14.921L290.073,14.733L290.224,14.562L290.573,14.408L290.673,14.316L290.629,14.205L290.511,13.991L290.45,13.74L290.556,13.483L291.583,12.354L292.183,12L292.803,12.143L293.154,12.394L294.1,13.483L294.329,13.98L294.335,14.99L294.563,15.406L295.239,16.297L295.328,17.15L295.233,18.058L295.373,19.105L295.984,20.404L296.059,20.927L295.858,20.944L294.563,19.488L294.245,19.425L293.991,19.727L293.757,20.13L293.503,20.35L293.037,20.233L292.652,19.859L292.398,19.362L292.314,18.894L291.949,19.068L291.678,19.345L291.497,19.688L291.396,20.087L291.812,20.298L291.714,20.712L291.142,21.766L291.661,21.755L292.367,21.86L292.995,22.074L293.271,22.374L293.154,22.605L292.66,23.028L292.568,23.222L292.627,23.525L292.744,23.845L292.92,23.968L293.154,23.702L293.52,23.074L293.799,22.925L294.075,23.171L294.441,23.702L294.393,23.882L294.243,24.122L294.223,24.33L294.563,24.422L295.247,24.448L295.579,24.388L295.847,24.205L296.043,23.599L295.557,22.611L295.719,22.143L296.344,21.792L296.735,22.034L297.728,23.599L297.826,24.005L297.842,24.413L297.951,24.902L298.278,25.444L298.629,25.836L298.883,26.307L298.911,27.078L299.14,26.621L299.436,26.324L299.81,26.164L300.295,26.119L300.815,26.21L301.027,26.404L301.172,26.673L301.763,27.244L301.961,27.684L301.981,28.081L301.719,28.256L301.242,28.141L300.826,27.953L300.446,27.918L300.083,28.256L300.921,28.953L301.361,29.507L301.752,29.559L302.422,28.736L303.376,30.891L303.594,31.634L303.669,32.566L303.583,33.02L303.251,32.954L302.974,32.566L302.874,32.128L302.885,31.153L302.679,32.108L303.187,34.109L303.002,34.887L302.732,35.253L302.581,35.625L302.556,36.014L302.656,36.434L302.974,37.026L303.217,36.986L303.477,36.74L303.851,36.695L304.364,37.038L305.059,37.656L305.67,38.365L305.933,38.974L306.011,39.423L306.348,40.176L306.424,40.556L306.334,41.008L305.893,41.781L305.72,42.236L306.027,42.073L306.332,42.01L306.619,42.056L306.887,42.236L307.093,41.844L307.32,41.546L307.512,41.226L307.688,40.259L307.939,39.953L308.316,39.887L308.785,40.076L308.623,40.425L308.528,40.556L308.994,40.677L309.454,40.905L309.865,41.203L310.719,42.004L310.869,42.236L310.719,43.126L310.766,43.447L311.204,44.38L311.525,44.746L311.958,44.898L312.429,44.867L312.904,44.895L313.23,45.173L313.255,45.88L313.012,46.069L312.63,46.178L312.502,46.441L312.998,47.062L313.462,47.32L313.925,47.472L314.282,47.775L314.422,48.491L314.603,49.001L315.393,49.949L315.574,50.293L315.641,52.181L315.34,55.018L315.373,55.554L315.538,56.267L315.574,56.829L315.705,57.274L316.637,58.647L316.744,59.26L316.621,60.769L316.766,61.291L317.232,61.566L317.648,61.44L318.027,61.245L318.384,61.291L318.686,61.798L318.647,62.415L318.384,63.597L318.454,64.544L318.948,66.61L319.342,67.569L319.492,67.758L319.903,68.082L320.045,68.272L320.092,68.547L320.031,69.185L320.045,69.477L320.179,70.21L320.279,70.459L320.366,70.594L320.48,70.669L320.614,70.715L320.756,70.726L320.963,70.778L320.996,70.922L320.991,71.114L321.1,71.318L321.175,71.714L320.899,72.915L321.1,73.483L321.359,73.88L322.152,75.543L322.459,76.707L322.822,83.749L323.508,86.375L323.603,87.394L323.569,88.651L323.251,89.638L323.156,90.274L323.109,91.521L323.19,92.255L323.424,92.67L324.281,93.464L324.859,94.524L324.884,95.538L324.457,98.257L324.128,99.352L324.047,99.902L324.105,100.522L324.535,102.211L324.786,106.138L325.721,108.067L325.819,109.357L325.523,110.499L324.75,110.941L325.065,111.374L325.981,111.844L326.388,112.153L326.656,112.612L326.876,113.235L327.287,115.499L329.74,120.964L330.367,121.935L332.031,123.981L332.377,124.554L332.661,125.756L333.024,126.126L333.473,126.387L333.9,126.716L334.361,127.584L334.646,128.741L334.838,131.02L334.805,131.234L334.604,131.799L334.277,132.351L334.263,132.597L334.341,132.849L334.392,133.205L334.347,133.457L334.018,134.308L333.951,134.664L334.018,135.014L334.11,135.324L334.135,135.547L333.99,135.825L333.574,136.262L333.432,136.497L333.197,137.736L332.586,139.515L332.519,140.172L332.299,141.128L329.251,146.946L328.983,147.966L329.329,148.172L329.106,148.645L326.625,151.883L325.841,153.885L325.45,154.338L324.898,154.483L324.351,154.405L323.829,154.422L323.324,154.825L322.632,153.067L322.046,152.498L321.217,152.611L319.529,151.131L318.892,150.362L318.638,149.303L318.474,147.476L318.404,147.215L317.994,147.05L317.508,146.661L317.062,146.192L316.766,145.797L316.537,145.322L316.358,144.759L316.261,144.162L316.277,143.588L316.464,143.006L316.688,142.534L316.73,142.067L316.395,141.525L316.177,141.319L315.979,141.212L315.758,141.166L315.457,141.154L315.298,141.044L314.321,139.752L314.235,139.294L314.422,138.194L314.438,137.568L314.168,135.767L314.215,135.553L314.338,135.344L314.383,135.101L314.168,134.794L314,134.736L313.361,134.673L312.463,135.142L311.212,135.281L308.997,135.281L307.88,135.663L307.116,136.366L305.16,139.147L305.193,140.068L305.933,142.105L305.972,142.606L305.933,143.102L305.575,144.075L305.486,144.075L305.712,144.519L306.111,144.902L306.491,145.368L306.767,146.563L307.253,147.734L307.487,149.533L307.83,150.644L308.338,151.601L308.427,152.01L308.316,152.611L308.065,153.212L307.018,155.069L306.708,156.097L306.692,157.287L306.92,158.472L307.361,159.477L308.257,160.349L310.492,161.157L311.48,161.793L312.267,162.944L312.41,163.97L311.681,167.313L311.623,168.703L311.81,169.942L312.426,170.478L312.778,170.708L312.865,171.249L312.731,172.628L312.585,173.143L312.552,173.417L312.552,174.651L312.396,175.108L310.585,178.279L309.594,179.438L308.065,180.68L308.126,182.323L308.372,183.078L308.893,183.856L309.613,184.53L310.353,184.917L311.168,185.051L312.083,184.958L311.045,185.544L309.957,185.961L307.947,186.264L307.093,186.734L305.369,186.891L304.682,187.04L304.13,187.431L303.694,187.985L301.406,192.633L299.81,197.15L298.057,201.325L297.717,203.886L297.873,204.427L298.911,206.114L300.552,214.956L300.742,217.284L300.335,219.772L299.132,224.056L297.46,229.513L297.416,230.144L297.46,230.767L297.6,231.26L297.759,231.521L298.141,231.982L298.303,232.247L298.381,232.658L298.175,232.863L297.826,233.004L297.482,233.231L296.439,235.231L295.585,242.401L295.345,242.863L294.695,243.687L294.441,244.131L293.62,246.6L291.605,250.822L289.822,257.547L287.157,263.707L285.904,265.635L282.781,277.01L278.453,288.138L277.284,293.879L277.206,294.727L277.222,296.086L276.112,299.382L275.894,298.93L275.473,298.337L275.021,298.01L274.711,298.384L274.853,298.806L275.688,299.97L275.877,300.522L275.782,300.992L272.953,306.933L270.983,312.252L270.106,314.973L268.256,320.732L264.832,333.755L264.469,334.347L264.012,334.924L263.727,335.479L263.872,336.008L264.321,335.542L264.575,335.677L264.659,336.164L264.598,336.762L264.374,337.306L263.766,338.394L263.638,339.031L263.52,340.287L263.199,341.535L261.958,344.474L261.835,344.977L261.768,346.097L261.207,349.251L260.705,350.582L260.227,351.496L255.896,365.567L251.535,375.772L247.173,385.996L246.698,388.441L245.568,390.926L244.128,400.766L243.467,403.018L243.277,406.53L242.116,410.67L240.827,414.322L239.992,419.744L235.926,432.268L235.53,431.753L235.335,431.324L235.14,431.242L234.76,431.756L234.4,432.572L234.637,432.792L235.201,432.847L235.809,433.16L235.949,434.132L234.185,442.083L232.321,447.123L231.718,448.226L231.478,448.461L230.934,448.819L230.758,448.975L230.686,448.975L230.328,449.106L230.289,449.112L230.063,449.305L230.133,449.415L230.281,449.534L230.289,449.742L230.281,449.839L230.055,450.79L229.458,452.037L229.363,452.297L227.398,457.761L227.133,458.003L226.717,457.866L225.986,457.517L225.819,457.743L226.288,459.801L225.392,465.887L222.515,473.218L221.658,474.582L221.56,475.144L221.583,476.318L221.34,476.914L219.582,478.267L219.104,479.432L219.397,481.865L219.01,482.813L218.658,482.385L218.424,481.884L218.309,481.324L218.306,480.727L218.005,481.262L217.974,481.813L218.055,482.401L218.072,483.05L217.927,483.789L217.676,484.1L216.668,484.491L216.085,484.863L215.119,485.768L213.473,487.783L213.135,487.983L213.021,487.82L212.666,486.969L212.267,486.911L212.167,486.951L212.139,487.062L210.135,488.522L209.385,489.231L209.016,489.49L208.014,489.884L207.624,490.137L207.141,490.815L206.789,491.108L206.513,491.09L206.173,490.957L205.818,490.96L205.483,491.367L205.157,491.608L202.807,492.258L202.271,492.24L201.13,491.907L197.614,491.423L193.648,491.537L188.541,492.801L181.754,495.818L177.446,498.078L172.649,500.765L169.213,504.041L168.56,504.52L167.84,504.817L167.073,504.882L165.346,506.534L162.979,507.053L153.223,507.48L152.698,507.601L152.196,507.839L151.677,508L151.091,507.879L150.767,507.452L150.443,505.995L150.153,505.377L149.107,504.567L145.448,503.185L144.421,502.424L143.975,501.905L143.548,500.753L142.97,500.218L140.433,498.331L138.123,497.207L136.767,496.8L133.141,496.272L129.536,496.071L124.479,495.022L123.849,494.67L123.338,493.208L122.224,491.937L121.973,491.108L122.638,491.389L123.235,491.925L124.292,493.165L124.979,493.662L125.557,493.683L125.85,493.27L125.696,492.422L125.149,492.53L124.68,492.255L123.804,491.367L123.238,490.988L122.716,490.757L122.163,490.643L121.504,490.612L120.299,490.112L118.228,487.832L117.012,487.207L115.92,487.216L115.533,487.114L112.798,485.257L112.404,484.435L112.184,481.462L111.843,480.207L109.357,476.776L109.008,475.543L109.34,472.165L109.008,470.906L108.662,470.268L107.194,468.647L107.027,468.512L106.854,468.347L106.669,468.052L106.575,467.715L106.469,466.942L106.318,466.635L105.179,465.635L102.796,463.995L101.752,462.883L100.591,460.199L100.022,454.573L100.48,448.11L99.88,444.476L99.947,444.119L100.248,443.426L100.329,443.057L100.29,442.626L99.88,441.519L99.592,440.027L99.369,439.35L98.942,438.682L99.431,437.911L99.361,435.259L99.52,434.077L100.279,433.346L102.584,432.323L103.178,431.501L103.114,430.895L102.651,429.918L102.71,429.224L103.237,428.719L103.393,428.463L103.605,427.836L103.622,427.526L103.51,427.161L103.142,426.644L102.227,425.874L101.571,424.971L100.114,423.567L99.88,423.427L99.662,423.393L99.431,423.329L99.157,423.08L99.073,422.874L98.942,422.035L98.582,420.734L98.437,417.387L97.985,414.601L97.516,413.045L96.581,412.017L94.237,410.276L93.866,409.737L93.302,408.567L92.814,408.1L92.186,407.633L91.008,406.312L90.294,405.186L89.903,404.38L89.75,403.877L89.566,402.346L89.133,401.335L88.954,399.392L88.547,398.342L88.343,397.021L88.176,396.7L87.71,396.072L87.523,395.739L87.288,394.875L87.272,394.004L87.406,392.294L87.051,388.875L86.571,387.088L85.756,385.405L85.748,385.037L85.779,384.66L85.768,384.307L85.539,383.393L85.162,382.533L85.248,381.756L85.982,381.183L86.917,381.095L87.64,381.78L87.866,381.201L87.807,380.571L87.671,379.917L87.64,379.248L86.465,379.23L85.996,377.747L85.982,374.399L86.058,373.989L86.393,373.252L86.468,372.872L86.468,371.991L86.527,371.618L86.661,371.443L86.82,371.32L86.937,371.118L87.004,371.1L87.152,371.046L87.308,370.956L87.406,370.841L87.152,369.837L87.205,369.343L87.355,368.898L87.587,368.477L87.877,368.089L88.279,368.622L88.329,369.247L88.109,370.589L88.809,369.59L88.943,367.858L88.887,365.988L89.047,364.557L89.429,363.872L91.726,361.091L92.314,360.625L92.973,360.535L93.726,360.986L93.726,351.148L93.986,350.231L94.706,348.532L94.921,347.624L95.189,348.253L95.462,348.259L96.112,347.624L97.05,347.127L97.502,346.456L97.645,346.348L99.553,346.393L100.837,346.025L101.479,346.187L102.087,346.456L102.71,346.6L103.563,346.271L104.56,345.477L105.389,344.489L105.732,343.573L105.908,342.493L107.138,339.046L108.433,331.945L110.596,327.705L111.316,326.995L112.438,326.717L113.057,326.171L114.907,322.69L115.334,321.209L115.653,319.474L116.124,317.847L117.012,316.664L117.017,316.995L117.073,317.218L117.246,317.665L118.08,315.672L118.558,315.041L120.065,313.859ZM316.043,183.244L316.169,182.728L316.227,182.166L316.344,181.612L316.637,181.146L317.056,180.814L318.384,180.044L318.239,180.91L317,183.495L316.096,186.264L314.419,189.954L313.197,191.609L312.225,193.728L311.598,194.525L311.296,193.547L311.472,192.619L312.295,190.83L312.443,190.339L312.518,189.875L312.552,188.872L312.664,188.259L312.948,187.781L313.724,186.891ZM260.361,61.796L260.613,62.074L261.09,62.392L261.492,62.765L261.533,63.213L261.305,63.471L260.964,63.626L260.587,63.7L260.236,63.723L260.068,63.64L259.954,63.468L259.893,63.296L259.893,63.213L259.686,63.253L259.195,63.477L257.95,63.276L257.523,63.081L257.063,62.736L256.828,62.736L256.828,63.213L256.678,63.207L256.586,63.141L256.502,63.058L256.382,63L256.05,62.576L255.824,61.833L255.662,60.327L255.796,59.645L255.986,59.043L255.966,58.601L255.447,58.406L255.796,57.942L256.301,58.091L256.84,58.337L257.303,58.142L257.532,58.36L257.858,58.515L258.207,58.549L258.469,58.406L258.514,58.134L258.346,57.867L258.134,57.592L258.023,57.308L258.051,56.586L258.21,56.181L258.592,56.015L259.298,55.981L259.893,56.153L260.169,56.594L260.135,57.185L259.775,57.79L260.077,57.97L260.42,58.693L260.674,59.478L260.705,59.851L261.12,60.098L260.936,60.68L260.554,61.331Z"/>
</svg>
