<svg xmlns="http://www.w3.org/2000/svg" viewBox="0 0 420 520" aria-label="Map of Mali">
  <path fill="currentColor" d="M12,333.66L12.416,333.857L12.944,333.946L13.461,333.878L14.494,333.51L15.006,333.423L15.371,333.618L16.384,334.527L16.65,334.667L16.843,334.372L16.97,333.983L17.147,333.852L17.594,333.961L18.074,333.963L18.544,333.832L18.964,333.539L19.532,332.752L19.876,332.452L20.842,332.242L21.28,332.007L21.637,331.696L21.827,331.367L21.92,331.139L22.045,330.972L22.168,330.841L22.249,330.727L22.345,330.687L22.514,330.641L22.65,330.556L22.649,330.396L22.483,330.169L22.417,330.05L22.397,329.899L22.52,329.004L22.645,328.561L22.822,328.172L22.822,328.168L22.873,327.716L22.809,327.362L22.631,327.083L22.351,326.854L22.199,326.854L22.072,326.97L21.915,327.029L21.678,326.854L21.72,326.728L21.777,325.978L22.056,324.976L22.078,324.72L22.004,324.374L21.983,324.14L22.044,323.62L22.496,322.29L22.634,321.107L22.733,320.709L23.536,318.972L23.915,317.197L24.223,316.403L24.833,315.731L24.89,315.459L24.89,314.608L25.498,314.701L25.598,314.716L26.239,314.926L26.881,314.974L27.583,314.608L28.438,313.691L28.838,313.46L29.476,313.269L29.757,313.135L29.97,312.891L30.025,312.767L30.043,312.639L30.025,312.512L29.97,312.388L29.87,312.326L29.788,312.263L29.724,312.186L29.683,312.081L29.754,312.059L29.97,312.035L31.342,312.321L31.904,312.559L32.51,313.087L34.734,316.339L35.183,316.852L41.25,321.353L42.034,322.115L42.695,323.41L43.587,324.293L44.376,325.514L44.59,325.094L44.958,323.678L45.166,323.277L45.812,322.661L46.082,322.24L46.314,321.324L46.486,320.918L46.875,320.534L47.135,320.442L47.377,320.442L47.578,320.402L47.843,319.998L48.231,319.775L48.416,319.588L48.606,319.065L48.576,318.034L48.667,317.56L48.931,317.3L49.319,317.28L50.767,317.504L51.769,317.515L52.242,317.445L52.306,317.423L53.103,317.148L53.5,317.085L53.968,317.183L54.33,317.119L56.778,317.16L57.442,317.289L58.596,317.2L58.93,317.247L60.983,318.072L61.192,318.074L61.634,317.991L61.818,318.006L62.308,318.243L63.181,318.804L63.741,318.972L64.717,319.001L67.506,318.591L70.286,318.842L71.203,318.613L72.563,317.809L73.04,317.602L74.209,317.36L80.167,317.114L79.879,315.735L79.496,314.158L79.499,313.433L79.852,312.771L81.318,311.001L81.785,310.703L82.362,310.959L82.436,311.765L82.109,313.468L81.959,315.742L86.12,315.743L86.947,315.743L89.894,315.744L90.263,315.745L92.472,315.747L94.098,315.747L95.878,315.747L97.797,315.747L99.846,315.748L103.056,315.751L106.492,315.751L110.121,315.753L113.913,315.754L117.832,315.756L121.848,315.757L125.927,315.758L130.04,315.76L134.152,315.762L138.233,315.762L142.249,315.764L146.167,315.766L149.957,315.767L153.587,315.769L154.658,315.769L157.023,315.77L160.234,315.771L162.082,315.773L163.824,315.774L165.455,315.774L166.966,315.774L170.185,315.775L173.958,315.776L173.967,315.779L173.974,315.781L173.982,315.785L173.989,315.787L173.997,315.789L174.004,315.792L174.012,315.794L174.02,315.797L174.026,315.797L174.03,315.797L174.035,315.797L174.04,315.797L174.046,315.797L174.049,315.797L174.055,315.797L174.06,315.797L174.062,315.794L174.065,315.79L174.069,315.789L174.07,315.785L174.071,315.783L174.075,315.781L174.079,315.778L174.079,315.775L174.079,315.77L174.079,315.766L174.079,315.762L174.079,315.756L174.079,315.751L174.079,315.747L174.079,315.741L174.079,315.735L174.103,315.613L174.126,315.491L174.131,315.461L174.148,315.368L174.172,315.246L174.621,312.826L175.072,310.405L175.522,307.985L175.974,305.563L176.41,303.201L176.851,300.838L177.288,298.474L177.727,296.11L177.863,295.369L177.839,295.209L177.814,295.049L177.699,294.921L177.584,294.796L176.622,294.126L175.639,293.442L174.693,292.782L173.628,292.042L172.745,291.429L171.8,290.768L171.592,290.368L171.381,289.969L171.277,288.959L171.039,286.7L170.799,284.437L170.562,282.177L170.326,279.912L170.086,277.648L169.849,275.384L169.612,273.118L169.374,270.851L169.135,268.582L168.898,266.314L168.661,264.043L168.422,261.772L168.186,259.498L167.948,257.224L167.709,254.95L167.473,252.673L167.229,250.333L166.984,247.992L166.739,245.646L166.494,243.303L166.251,240.956L166.005,238.609L165.76,236.261L165.517,233.909L165.274,231.558L165.028,229.206L164.784,226.852L164.54,224.496L164.386,223.014L164.232,221.532L164.08,220.049L163.925,218.564L163.562,215.062L163.562,215.06L163.216,211.876L162.873,208.69L162.529,205.502L162.183,202.312L161.839,199.119L161.493,195.923L161.149,192.724L160.803,189.524L160.499,186.758L160.335,185.257L159.974,181.951L159.612,178.642L159.449,177.135L159.11,174.032L158.771,170.927L158.432,167.819L158.093,164.709L157.754,161.594L157.416,158.479L157.076,155.362L156.737,152.239L156.399,149.116L156.06,145.988L155.72,142.86L155.382,139.728L155.042,136.592L154.705,133.455L154.366,130.316L154.026,127.174L153.688,124.028L153.422,121.567L153.348,120.88L153.01,117.729L152.671,114.574L152.332,111.417L151.992,108.257L151.654,105.093L151.315,101.927L151.143,100.304L150.759,96.729L150.379,93.151L150.205,91.521L150.189,91.372L149.961,89.236L149.729,87.136L149.497,85.036L149.266,82.935L149.034,80.834L148.801,78.729L148.57,76.624L148.34,74.519L148.106,72.409L153.421,72.406L158.737,72.404L164.051,72.401L169.366,72.397L174.679,72.394L179.995,72.391L185.308,72.389L190.623,72.385L190.625,72.387L190.629,72.391L190.632,72.393L192.463,73.656L194.293,74.919L196.125,76.179L197.957,77.44L200.623,79.361L202.536,80.738L204.45,82.114L206.361,83.489L208.274,84.864L210.186,86.238L212.1,87.611L214.014,88.985L215.926,90.359L217.839,91.73L219.75,93.103L221.663,94.473L223.577,95.843L225.491,97.212L227.403,98.581L229.314,99.951L231.231,101.318L233.309,102.806L235.389,104.293L237.468,105.778L239.548,107.262L241.628,108.746L243.706,110.23L245.785,111.714L247.866,113.196L249.946,114.676L252.026,116.157L254.103,117.638L256.184,119.119L258.263,120.599L260.343,122.076L262.422,123.554L264.503,125.031L266.582,126.506L268.661,127.983L270.739,129.461L272.82,130.934L274.9,132.407L276.979,133.881L279.057,135.354L281.138,136.827L283.217,138.3L285.297,139.771L287.376,141.24L289.455,142.709L291.537,144.178L293.615,145.648L295.695,147.117L297.774,148.585L299.854,150.051L301.934,151.517L304.014,152.983L306.093,154.449L306.433,154.688L308.173,155.915L310.254,157.378L312.331,158.84L314.411,160.303L316.49,161.765L318.57,163.228L320.649,164.69L322.728,166.151L324.809,167.61L326.888,169.069L328.966,170.528L331.047,171.987L333.86,173.959L334.168,174.479L334.614,176.129L334.666,176.695L334.364,179.504L333.83,181.818L333.813,182.323L333.878,182.959L334.054,183.284L334.389,183.421L334.934,183.495L335.443,183.487L336.398,183.279L336.904,183.268L337.464,183.421L337.797,183.697L338.3,184.589L338.67,185.071L339.079,185.364L340.116,185.689L341.083,185.851L341.522,185.985L341.947,186.264L342.832,186.409L343.777,186.908L345.313,188.094L345.799,188.826L345.945,189.74L345.925,191.659L346.164,192.032L349.019,194.419L349.525,194.659L350.045,194.693L350.477,194.633L350.864,194.661L351.239,194.95L351.472,195.474L351.556,195.958L351.737,196.274L352.266,196.292L352.526,196.163L352.933,195.779L353.27,195.682L353.555,195.72L353.759,195.848L353.945,196.015L354.185,196.167L355.696,196.702L356.053,196.748L356.683,196.468L357.661,195.533L358.216,195.17L358.722,195.079L359.164,195.196L359.581,195.447L361.054,196.628L361.94,197.594L362.701,198.681L363.673,200.476L363.954,200.753L364.321,200.888L364.901,201.021L365.368,201.208L366.233,201.685L366.7,201.791L366.96,201.811L369.15,202.24L370.467,202.295L377.048,203.688L380.087,205.035L381.476,206.149L381.873,206.335L382.741,206.596L383.116,206.779L383.45,207.105L383.547,207.454L383.103,212.595L383.13,213.579L383.438,214.512L383.565,214.664L383.694,214.743L383.818,214.842L383.919,215.063L383.904,215.227L383.773,215.732L383.768,215.975L383.979,216.441L384.284,216.82L384.542,217.229L384.604,217.791L384.368,218.372L383.929,218.719L383.421,218.998L382.974,219.381L382.756,219.847L382.637,220.833L382.53,221.267L382.009,221.812L381.687,222.022L381.565,222.253L381.382,222.748L381.027,223.308L380.809,223.76L380.843,224.218L381.245,224.795L381.674,225.221L382.151,225.589L382.659,225.882L383.768,226.363L385.182,227.767L385.745,228.124L385.986,228.225L386.338,228.28L386.953,228.247L388.898,227.77L388.9,227.77L391.415,227.277L395.518,226.469L397.312,226.116L399.621,225.663L403.726,224.855L407.831,224.047L407.841,227.188L407.851,230.325L407.861,233.461L407.871,236.594L407.871,236.651L407.881,239.724L407.891,242.854L407.901,245.979L407.911,249.102L407.918,252.225L407.922,253.593L407.928,255.345L407.938,258.463L407.945,261.579L407.955,264.692L407.968,267.802L407.978,270.912L407.985,274.018L407.993,275.602L408,278.237L407.68,278.471L407.425,278.483L407.234,278.565L407.092,279.006L407.062,279.46L407.194,281.924L407.087,282.184L406.775,282.686L406.713,282.909L406.72,284.492L406.737,287.844L406.747,290.001L406.76,292.766L406.566,293.352L406.226,293.668L405.182,294.21L404.619,294.648L404.16,295.142L403.798,295.71L401.652,301.015L401.551,301.704L401.645,302.394L401.943,303.131L401.96,303.162L401.972,303.196L401.977,303.23L401.975,303.267L401.98,303.419L401.965,303.492L401.943,303.565L400.546,304.972L400.181,305.542L400.028,306.002L399.812,308.439L399.621,309.4L399.317,310.129L399.254,310.28L398.651,311.016L397.746,311.507L395.838,311.874L394.957,312.358L393.082,314.444L390.981,315.734L390.741,316.4L390.515,319.269L390.076,319.18L389.944,319.136L387.474,318.712L382.959,317.936L380.097,317.446L379.149,317.465L378.765,317.555L378.591,317.683L378.532,317.932L378.484,318.39L378.482,319.31L378.348,319.639L377.16,319.68L374.843,319.761L372.524,319.839L370.207,319.92L367.885,320L365.569,320.079L363.249,320.158L360.932,320.239L358.613,320.318L356.296,320.399L353.975,320.478L351.658,320.557L349.339,320.637L347.022,320.718L344.705,320.796L342.386,320.877L340.069,320.957L338.3,321.02L337.492,321.216L336.844,321.61L335.22,323.13L333.297,324.932L331.725,326.403L329.713,328.289L329.127,328.579L328.475,328.718L324.804,328.84L324.102,329.106L323.417,329.377L322.755,329.54L322.425,329.568L318.699,328.231L317.948,328.267L316.394,328.819L315.632,328.984L314.82,328.98L311.654,328.172L311.46,328.434L311.45,329.047L311.587,330.283L305.547,328.172L305.542,328.172L302.335,326.837L300.662,326.441L299.163,326.711L297.668,327.63L296.799,328.018L296.126,328.007L295.889,327.695L295.336,326.196L295.114,326.085L294.335,326.09L289.07,326.121L288.274,326.338L287.832,326.664L287.555,326.869L286.273,328.168L286.269,328.171L281.308,332.59L281.303,332.594L280.457,333.129L279.542,333.524L274.957,334.66L273.936,335.149L265.617,340.577L263.942,340.898L262.256,340.987L260.284,340.831L259.134,340.883L258.413,341.207L258.222,341.863L257.781,347.946L257.688,348.206L257.481,348.377L256.302,348.911L255.838,349.121L255.466,349.18L254.697,348.998L249.088,346.31L247.262,345.909L245.955,346.232L244.005,347.36L243.468,347.823L242.112,349.355L241.706,349.814L238.162,351.798L237.527,352.848L237.665,352.819L237.736,352.856L237.774,352.917L237.813,352.956L236.875,356.161L236.45,356.869L236.069,357.816L236.181,359.14L236.856,361.472L236.011,361.796L235.182,362.114L235.007,362.143L234.839,362.066L234.669,361.955L234.468,361.883L233.884,361.821L233.695,361.874L233.415,362.017L232.998,362.479L232.722,362.58L232.554,362.2L232.487,361.839L232.369,361.606L231.941,361.198L231.34,360.839L230.837,360.854L230.312,360.966L229.642,360.897L228.572,360.08L227.933,359.856L227.455,360.332L227.951,360.713L228.109,361.307L228.008,362.681L227.882,363.263L227.527,364.174L228.375,370.328L228.044,370.547L224.105,370.786L223.577,370.994L223.488,371.691L223.768,372.546L223.795,372.989L223.555,373.385L223.264,373.46L222.968,373.415L221.955,373.259L221.418,373.271L221.261,373.245L221.048,373.103L220.663,372.696L220.504,372.633L220.187,372.68L220.017,372.631L218.053,371.094L216.956,370.426L215.175,368.987L214.732,368.801L213.748,368.534L212.92,368.203L212.529,368.128L212.05,368.17L211.58,368.156L211.023,368.01L210.725,367.771L211.023,367.478L211.23,367.359L211.717,366.895L211.904,366.823L212.129,366.788L212.296,366.689L212.311,366.424L212.18,366.357L211.602,366.248L211.397,366.162L211.319,366.007L211.194,365.517L211.171,365.482L211.054,365.311L210.964,365.242L210.876,365.218L210.792,365.241L210.714,365.313L210.391,365.697L210.528,365.802L210.835,365.824L211.023,365.957L210.896,366.188L210.577,366.471L210.213,366.709L209.957,366.801L209.665,366.906L209.298,367.327L209.081,367.461L208.439,367.631L208.241,367.733L207.839,368.11L207.59,368.559L207.184,369.562L206.811,370.16L206.357,370.689L206.097,370.832L205.867,370.82L205.642,370.774L205.41,370.816L205.046,371.067L204.611,371.462L204.258,371.899L204.147,372.268L204.313,372.499L204.821,372.785L204.875,372.999L204.707,373.217L204.434,373.294L202.897,373.219L202.493,373.391L202.191,374.211L202.04,374.412L201.916,374.629L201.916,374.931L202.053,375.153L202.748,375.799L203.388,377.212L203.696,377.637L204.393,378.235L204.838,378.802L205.03,379.484L204.95,380.881L205.257,381.996L205.223,382.292L204.723,383.887L204.486,384.193L204.45,384.217L204.158,384.414L203.711,384.568L203.208,384.631L202.88,384.535L202.195,384.123L201.489,383.97L200.693,384.03L199.896,384.23L199.197,384.505L198.943,384.542L198.781,384.501L198.696,384.568L198.55,385.845L198.761,386.251L199.804,387.062L200.202,387.458L200.708,388.609L200.918,388.928L201.048,389.013L201.057,389.106L200.899,389.444L200.559,389.898L200.103,390.348L199.693,390.845L199.502,391.438L200.373,393.527L200.595,394.579L199.882,394.72L199.666,394.531L199.478,394.264L199.242,394.07L198.889,394.092L198.626,394.254L198.565,394.423L198.57,394.621L198.486,395.006L198.528,395.282L198.497,395.43L198.404,395.531L196.289,397.286L196.891,398.459L196.656,398.719L195.934,398.752L195.075,399.243L194.822,399.722L194.773,400.117L194.676,400.37L194.653,400.431L194.176,400.662L193.933,400.678L193.445,400.619L193.191,400.68L192.938,400.898L192.767,401.213L192.606,401.509L192.416,401.758L192.071,401.966L191.393,402.083L190.978,402.219L190.512,401.816L190.008,401.807L188.983,402.179L188.485,402.173L187.972,402.051L187.452,402.002L186.931,402.219L186.713,402.408L186.48,402.539L186.229,402.602L185.956,402.587L185.518,402.636L184.571,402.606L184.198,402.636L183.847,402.796L183.054,403.278L182.314,403.51L181.952,403.823L181.314,404.544L180.384,405.306L179.904,405.978L179.738,406.116L179.562,406.14L179.429,406.074L179.299,405.974L179.138,405.896L178.985,405.904L178.876,405.981L178.785,406.069L178.685,406.116L177.85,406.255L177.772,406.307L177.592,406.5L177.464,406.539L177.327,406.488L177.032,406.278L176.926,406.24L176.599,406.287L176.445,406.334L176.449,406.455L176.598,406.731L176.731,406.783L177.353,407.15L177.446,407.252L177.863,407.167L178.07,407.183L178.319,407.259L178.787,407.463L179.166,407.703L179.45,408.04L179.632,408.528L179.656,408.959L179.605,409.497L179.399,410.454L179.267,410.703L179.087,410.958L178.954,411.224L178.959,411.503L179.143,411.778L179.358,411.826L179.604,411.794L179.874,411.835L180.728,412.523L180.95,413.386L180.951,415.413L181.081,415.973L181.102,416.29L180.907,416.503L180.385,416.756L180.018,417.074L179.913,417.518L180.079,420.071L180.033,420.466L179.735,420.977L178.98,421.743L178.753,422.308L178.605,423.305L178.361,423.647L177.791,424.006L177.389,424.18L176.978,424.304L174.587,424.612L174.24,424.843L174.165,425.228L174.207,425.447L174.447,426.713L174.298,427.348L174.843,427.218L175.168,427.894L175.613,429.602L175.899,430.118L175.987,430.416L175.654,431.826L175.661,432.032L175.626,432.273L175.47,432.389L175.273,432.485L175.11,432.664L174.988,433.026L174.758,434.336L174.771,434.557L174.89,434.957L174.919,435.163L175.288,435.305L175.05,435.524L174.883,435.916L174.856,436.29L175.036,436.458L175.107,436.69L174.782,437.972L174.217,438.855L174.126,439.056L173.931,440.299L173.8,440.653L173.148,440.405L172.62,440.058L172.316,439.951L172.084,439.959L171.418,440.13L170.08,440.262L166.991,440.946L165.268,441.859L164.902,442.128L164.625,442.537L164.526,442.981L164.628,444.318L164.348,444.529L163.229,444.136L162.947,444.358L162.862,444.968L162.696,445.488L162.41,445.954L161.959,446.401L159.813,446.415L158,445.768L157.677,445.564L157.205,444.987L156.946,444.812L156.581,444.887L156.502,443.983L156.565,443.652L156.861,443.322L156.92,443.361L157.034,443.462L157.196,443.525L157.393,443.451L157.446,443.324L157.412,443.163L157.354,443.019L157.341,442.935L157.927,442.279L157.571,441.987L157.645,441.538L158.007,440.782L157.615,440.32L157.532,440.085L157.584,439.874L157.841,439.435L157.882,439.29L157.774,439.051L157.634,438.964L157.441,438.972L157.165,439.015L157.003,438.966L156.865,438.821L156.737,438.65L156.613,438.524L156.398,438.497L156.197,438.551L156.07,438.491L156.079,438.123L156.192,437.926L156.631,437.567L156.788,437.364L156.82,437.076L156.752,436.781L156.613,436.442L156.804,436.224L157.066,436.104L157.307,435.96L157.434,435.67L157.354,435.477L157.135,435.292L156.875,435.152L156.422,434.986L156.354,434.791L156.474,433.783L156.441,433.445L156.198,433.304L155.621,433.383L155.056,433.629L154.608,433.939L154.14,434.16L153.52,434.14L153.028,434.061L152.506,434.088L152.093,434.291L151.925,434.734L151.881,435.692L152.005,436.028L152.284,436.205L152.581,436.348L152.76,436.577L152.674,437.147L152.225,437.453L151.637,437.559L151.134,437.528L149.828,437.267L149.44,437.133L148.467,436.61L147.975,436.273L147.614,435.942L147.125,435.099L146.81,434.895L146.281,435.071L146.312,435.15L145.974,435.724L145.92,435.745L145.806,436.201L145.755,436.651L145.8,436.859L145.886,437.028L145.953,437.224L145.834,438.335L145.6,439.12L145.642,439.538L145.947,440.014L146.126,440.107L146.39,440.188L146.645,440.298L146.794,440.477L146.791,440.741L146.668,440.956L146.51,441.144L146.406,441.324L146.303,442.109L146.287,442.226L146.084,442.519L145.533,442.698L145,442.64L144.095,442.102L143.571,441.933L143.047,441.986L141.635,442.645L141.172,442.708L139.812,442.536L139.271,442.62L138.986,442.927L138.41,444.867L138.464,445.193L138.718,445.413L139.033,445.616L139.262,445.885L139.316,446.507L139.022,447.021L138.523,447.395L137.962,447.595L137.368,447.615L136.943,447.227L136.586,446.677L136.194,446.213L135.788,445.977L133.427,445.313L131.524,445.018L130.014,444.986L129.619,444.881L129.417,444.58L129.396,443.993L129.549,442.996L129.405,442.623L128.86,442.587L128.208,442.834L127.987,442.892L127.675,442.88L127.642,442.73L127.702,442.496L127.668,442.231L127.265,441.552L127.17,441.309L127.152,441.093L127.172,440.836L127.152,440.555L127.022,440.272L126.815,440.048L126.584,439.906L126.305,439.844L125.961,439.864L125.39,440.601L125.203,440.775L124.988,440.854L124.557,440.847L124.315,440.872L123.754,440.818L122.892,440.287L122.395,440.369L122.26,440.573L122.165,440.875L122.044,441.13L121.83,441.2L121.545,441.164L121.333,441.215L121.006,441.487L121.006,441.654L120.898,441.693L120.676,441.805L120.965,442.163L120.693,442.566L120.162,442.884L119.679,442.986L119.995,443.4L119.708,443.892L119.663,444.243L119.529,444.436L119.351,444.549L119.195,444.684L119.111,444.948L119.019,445.134L118.445,445.87L118.213,446.063L118.002,446.204L117.767,446.29L117.152,446.378L116.927,446.524L116.478,446.9L116.043,447.106L115.544,447.241L115.039,447.249L114.589,447.081L115.108,445.91L115.239,445.343L115.19,444.716L115.031,444.159L114.783,443.544L114.43,443.025L113.964,442.755L112.659,442.693L112.034,442.575L111.569,442.245L111.438,441.933L111.41,441.287L111.331,440.99L111.09,440.608L110.931,440.552L110.727,440.676L110.357,440.833L109.804,440.943L109.287,440.932L108.848,440.704L108.247,439.571L107.514,438.56L107.248,437.921L106.873,433.089L106.766,432.654L106.134,432.406L106.185,431.902L106.687,430.543L106.857,430.354L107,430.133L107.053,429.678L107.018,427.152L106.873,426.6L106.502,426.037L106.005,425.566L105.477,425.294L105.189,425.301L104.725,425.56L104.489,425.595L104.043,425.439L103.825,425.404L103.572,425.468L103.084,425.486L102.603,425.331L102.202,425.329L101.581,426.643L101.343,427.017L100.911,427.314L100.525,427.433L100.1,427.483L99.667,427.472L99.263,427.406L98.789,427.456L98.375,427.672L97.998,427.786L97.631,427.531L97.523,427.147L97.615,426.717L97.812,426.313L98.025,426.004L99.132,424.877L99.386,424.388L99.403,424.111L99.342,423.876L99.35,423.636L99.57,423.342L99.767,423.266L100.253,423.258L100.465,423.146L100.668,422.761L100.806,421.889L101.097,421.466L101.27,421.362L101.762,421.147L101.965,421.017L102.051,420.987L102.289,420.966L102.37,420.909L102.412,420.732L102.359,420.586L102.284,420.465L102.266,420.373L102.519,419.825L102.743,419.65L103.671,419.862L104.095,419.913L104.58,419.886L105.019,419.736L105.299,419.412L105.436,418.778L105.19,418.667L104.751,418.739L104.309,418.657L104.115,418.291L104.401,417.973L104.9,417.739L105.333,417.625L104.797,417.179L104.075,416.832L102.625,416.388L101.962,416.369L101.679,416.261L101.488,415.901L101.394,415.455L101.284,414.932L101.151,414.627L100.535,415.112L99.888,415.068L98.578,414.472L98.309,414.118L98.044,413.654L97.844,413.16L97.763,412.718L97.231,410.953L96.904,410.723L96.572,410.804L96.183,410.984L95.687,411.055L95.256,410.908L94.86,410.667L94.456,410.485L94.007,410.515L95.212,404.256L95.192,403.965L95.063,403.724L94.901,403.491L94.782,403.222L94.746,402.696L94.769,402.233L94.665,401.817L94.229,401.437L93.73,401.347L93.181,401.411L92.651,401.382L92.21,401.014L92.109,400.55L92.213,400.016L92.573,399.051L92.595,398.502L92.407,397.959L92.092,397.529L91.732,397.321L91.26,397.513L90.968,397.524L90.792,397.244L90.711,396.999L90.478,396.609L90.399,396.364L90.438,395.72L90.694,395.202L91.009,394.714L91.226,394.168L91.186,393.626L90.918,393.075L90.488,392.612L89.674,392.189L86.805,390.696L85.792,390.358L83.959,389.966L83.646,389.985L83.467,390.14L83.282,390.246L82.944,390.119L82.624,389.931L82.485,389.908L82.32,389.939L81.919,390.226L80.784,390.506L80.438,390.945L80.566,391.197L80.913,391.617L81.347,392.032L82.008,392.393L82.073,392.576L82.085,392.794L82.2,393.028L82.381,393.133L82.785,393.223L82.92,393.344L82.936,393.656L82.831,394.122L82.616,394.512L82.3,394.602L82.374,395.186L82.257,395.503L81.696,396.073L80.224,395.817L79.807,395.874L78.83,396.338L78.439,396.612L77.965,397.045L75.264,397.951L74.5,398.451L74.137,398.839L73.965,399.219L73.932,399.637L73.983,400.144L73.869,400.455L73.569,400.876L72.988,401.504L71.652,401.474L71.221,401.334L70.976,401.184L70.587,400.879L70.332,400.775L70.164,400.777L69.673,400.855L69.442,400.85L69.009,400.642L68.183,399.978L67.743,399.851L67.262,399.772L66.426,399.326L65.967,399.186L65.676,399.043L65.186,398.658L64.895,398.507L64.651,398.45L64.252,398.432L64.172,398.407L64.005,398.356L63.815,398.234L63.488,397.951L63.252,397.845L63.08,397.82L62.494,397.845L62.026,397.753L61.183,397.351L60.392,397.192L60.241,397.041L60.124,396.88L59.933,396.781L59.02,397.148L58.875,397.439L58.813,397.436L58.744,397.295L58.574,397.17L58.526,397.224L58.423,397.454L58.196,397.576L57.977,397.592L57.841,397.688L57.858,398.041L57.502,397.918L57.344,397.837L57.186,397.706L56.87,397.916L56.045,398.608L55.876,398.81L55.643,399.165L54.496,399.074L54.061,399.23L54.036,399.466L54.233,399.959L54.149,400.052L53.924,400.156L53.916,400.392L53.983,400.652L53.978,400.829L53.49,401.178L53.009,401.408L52.744,401.704L52.912,402.246L52.54,402.365L52.044,402.621L51.609,402.92L51.423,403.166L51.333,403.505L51.12,403.957L50.856,404.376L50.618,404.606L50.261,404.776L49.267,404.817L48.571,404.093L47.595,402.22L46.953,401.567L46.841,401.307L46.875,401.108L47.11,400.675L47.175,400.456L47.021,399.773L46.589,399.416L46.026,399.149L45.468,398.73L44.505,397.215L44.075,396.901L43.489,396.741L43.011,396.762L41.968,397.11L41.409,397.09L41.084,397.157L40.904,397.404L40.593,398.459L40.316,398.776L39.541,399.336L39.52,399.362L39.41,399.495L39.068,400.039L38.877,400.132L38.674,400.143L38.514,400.226L38.364,400.935L38.107,401.404L37.751,401.774L37.372,401.878L36.98,401.9L36.207,402.222L35.74,402.219L35.267,402.052L34.776,401.801L34.307,401.485L33.908,401.136L32.938,399.827L32.51,399.48L31.04,398.824L30.589,398.417L30.152,397.425L30.539,396.705L31.221,395.992L31.669,395.021L31.662,394.455L31.504,393.482L31.606,392.931L31.979,392.724L32.557,392.75L33.012,392.687L33.017,392.21L33.062,391.557L33.224,390.908L33.273,390.334L32.969,389.908L32.917,390.048L32.727,390.351L32.682,390.13L32.531,389.727L32.479,389.52L32.331,389.127L32.145,389.2L32.01,389.461L32.024,389.643L31.83,389.47L31.553,388.982L31.379,388.871L31.112,388.778L31.285,388.623L31.783,388.39L31.843,388.108L31.813,387.93L31.757,387.761L31.736,387.499L31.86,386.723L31.855,386.467L31.737,386.215L31.55,386.081L31.368,386.012L31.276,385.953L31.254,385.59L31.401,385.406L31.589,385.275L31.843,384.628L32.159,384.526L32.491,384.467L32.687,384.149L32.643,383.915L32.39,383.46L32.39,383.349L32.557,383.171L32.609,382.903L32.587,382.609L32.536,382.358L32.459,382.151L32.355,381.975L32.267,381.861L32.236,381.839L32.176,381.819L32.064,381.804L31.969,381.746L31.959,381.594L32.019,381.458L32.091,381.355L32.128,381.249L32.052,380.849L32.142,380.594L32.276,380.339L32.376,380.089L32.324,379.959L32.185,379.833L32.069,379.699L32.086,379.549L32.243,379.465L32.413,379.522L32.565,379.606L32.67,379.603L32.878,379.433L33.032,379.339L33.113,379.192L33.062,378.551L33.007,378.27L32.897,378.017L32.696,377.803L32.638,378.231L32.463,378.512L32.185,378.628L31.811,378.557L31.876,378.312L31.935,377.831L31.937,377.619L32.016,377.52L32.15,377.416L32.188,377.312L31.979,377.212L31.884,377.132L31.791,376.978L31.656,376.677L31.324,376.197L31.373,376.055L31.505,375.867L31.533,375.694L31.28,375.594L30.889,375.492L30.586,375.308L30.302,375.091L29.97,374.89L29.546,374.79L29.426,374.39L29.414,373.529L29.191,373.203L28.906,372.938L28.675,372.636L28.603,372.194L28.694,371.928L29,371.484L29.037,371.214L28.934,370.976L28.391,370.492L27.8,369.666L27.627,369.187L27.625,368.65L27.451,368.731L27.15,368.809L26.884,368.779L26.821,368.534L26.853,368.183L26.744,368.075L26.14,368.098L25.671,368.197L25.443,368.168L25.202,367.977L25.065,367.736L24.894,367.541L24.55,367.491L24.183,367.688L23.941,368.099L23.798,368.604L23.737,369.081L22.729,369.846L22.598,369.985L22.464,369.971L22.179,369.734L22.07,369.562L21.921,369.086L21.829,368.903L21.643,368.767L21.008,368.451L20.797,368.395L20.74,368.123L21.084,366.801L21.136,366.362L20.97,366.076L20.776,365.993L20.554,365.965L20.303,365.84L20.167,365.681L19.954,365.313L19.802,365.143L18.416,364.126L17.976,363.625L17.443,362.79L17.143,361.899L16.65,360.938L16.326,360.451L15.996,360.168L18.044,359.013L18.847,358.182L19.229,357.078L19.372,356.076L19.376,355.573L19.229,355.108L18.81,354.602L18.362,354.257L17.972,353.868L17.731,353.227L17.734,352.2L18.273,350.302L18.449,349.298L18.397,348.75L17.512,346.668L17.276,346.305L16.939,346.078L15.992,345.732L15.7,345.482L15.469,345.174L15.272,344.834L15.626,344.703L15.731,344.395L15.564,344.071L13.327,343.237L13.018,343.176L13.062,342.102L13.001,341.598L12.719,340.516L12.665,339.998L12.81,339.571L13.264,339.291L13.439,339.135L13.504,338.864L13.528,338.562L13.578,338.309L13.755,338.05L14.223,337.594L14.356,337.376L14.379,336.962L14.196,336.812L13.952,336.755L13.783,336.613L13.726,336.342L13.772,336.174L13.879,335.996L14.012,335.698L13.745,335.683L13.356,335.605L12.992,335.439L12.807,335.159L12.66,334.814L12.183,334.384Z"/>
</svg>
