<svg xmlns="http://www.w3.org/2000/svg" viewBox="0 0 420 520" aria-label="Map of Mauritania">
  <path fill="currentColor" d="M283.292,42.292L289.687,46.521L296.082,50.743L302.471,54.963L308.863,59.176L315.257,63.388L321.649,67.591L328.04,71.795L334.433,75.992L340.827,80.187L347.218,84.376L353.611,88.56L360.004,92.741L365.417,96.279L370.832,99.815L376.247,103.35L380.87,106.36L381.662,106.876L385.572,109.423L391.18,113.251L396.787,117.074L402.393,120.895L408,124.711L400.847,124.716L393.696,124.72L386.541,124.723L379.39,124.727L372.238,124.733L365.085,124.736L357.931,124.74L350.778,124.744L351.092,127.584L351.403,130.416L351.713,133.25L352.027,136.083L352.339,138.91L352.65,141.738L352.962,144.565L353.274,147.39L353.581,150.265L353.603,150.466L353.836,152.659L354.349,157.476L354.865,162.287L355.097,164.471L355.552,168.733L356.008,172.99L356.465,177.243L356.921,181.492L357.379,185.738L357.833,189.979L357.932,190.903L358.29,194.215L358.746,198.45L359.203,202.679L359.659,206.904L360.113,211.126L360.57,215.346L361.026,219.561L361.483,223.772L361.939,227.981L362.394,232.185L362.85,236.387L363.308,240.582L363.763,244.775L364.219,248.967L364.675,253.153L365.132,257.336L365.588,261.515L366.043,265.691L366.264,267.72L366.751,272.173L367.237,276.622L367.457,278.643L367.866,282.365L368.332,286.672L368.794,290.978L369.26,295.278L369.724,299.577L370.19,303.869L370.652,308.16L371.114,312.448L371.58,316.733L371.58,316.736L372.068,321.449L372.276,323.448L372.482,325.443L372.689,327.439L372.896,329.433L373.224,332.604L373.553,335.772L373.884,338.938L374.211,342.102L374.538,345.266L374.867,348.427L375.199,351.586L375.526,354.745L375.855,357.898L376.186,361.055L376.514,364.206L376.843,367.356L377.16,370.42L377.483,373.48L377.803,376.541L378.12,379.602L378.442,382.658L378.761,385.714L379.08,388.767L379.402,391.82L379.723,394.872L380.041,397.922L380.36,400.969L380.682,404.016L381.001,407.063L381.32,410.106L381.642,413.151L381.963,416.192L382.103,417.55L382.387,418.088L382.667,418.626L383.939,419.516L385.128,420.341L386.56,421.336L387.833,422.225L389.157,423.146L390.451,424.047L390.606,424.215L390.761,424.388L390.795,424.603L390.826,424.819L390.644,425.816L390.053,428.997L389.464,432.179L388.872,435.359L388.284,438.538L387.676,441.798L387.071,445.055L386.463,448.314L385.859,451.57L385.827,451.734L385.804,451.86L385.797,451.9L385.767,452.064L385.733,452.229L385.733,452.237L385.733,452.244L385.733,452.249L385.733,452.256L385.733,452.265L385.733,452.27L385.733,452.275L385.733,452.282L385.733,452.286L385.728,452.291L385.723,452.293L385.722,452.296L385.72,452.301L385.715,452.303L385.712,452.308L385.708,452.312L385.702,452.312L385.693,452.312L385.69,452.312L385.682,452.312L385.675,452.312L385.668,452.312L385.663,452.312L385.655,452.312L385.643,452.308L385.633,452.305L385.623,452.301L385.613,452.298L385.603,452.295L385.593,452.291L385.583,452.288L385.572,452.284L380.494,452.282L376.161,452.281L374.127,452.281L371.932,452.281L369.587,452.28L367.1,452.277L362.778,452.275L359.595,452.274L358.155,452.274L353.269,452.272L348.168,452.27L342.895,452.268L337.49,452.265L331.998,452.265L326.463,452.262L320.928,452.26L315.438,452.258L310.033,452.256L304.758,452.255L299.655,452.252L294.771,452.249L290.146,452.249L285.826,452.246L283.068,452.244L280.486,452.244L278.091,452.244L275.902,452.244L272.929,452.241L272.432,452.241L268.466,452.239L267.353,452.239L261.752,452.237L261.954,449.177L262.395,446.885L262.295,445.801L261.519,445.456L260.889,445.857L258.916,448.239L258.442,449.13L258.437,450.106L258.953,452.229L259.34,454.084L251.322,454.415L249.749,454.742L249.106,455.02L247.277,456.103L246.042,456.411L242.301,456.072L238.547,456.624L237.233,456.586L236.48,456.36L235.305,455.604L234.646,455.284L234.397,455.265L233.803,455.376L233.521,455.374L230.758,454.263L230.309,454.2L228.755,454.32L227.862,454.146L224.567,454.091L224.08,454.178L223.451,454.046L222.916,454.13L221.843,454.5L221.758,454.53L221.12,454.624L219.772,454.609L217.824,454.308L217.301,454.335L216.946,454.684L216.824,455.323L216.864,456.71L216.608,457.415L216.36,457.666L215.837,457.966L215.48,458.51L215.21,458.563L214.884,458.563L214.534,458.688L214.011,459.204L213.779,459.75L213.467,460.984L213.103,461.549L212.233,462.38L211.955,462.918L211.459,464.825L211.17,465.39L210.109,463.747L208.908,462.559L208.019,460.815L206.964,459.79L198.798,453.732L198.194,453.041L195.201,448.665L194.384,447.954L193.628,447.633L191.782,447.249L191.492,447.281L191.397,447.311L191.452,447.452L191.537,447.556L191.647,447.64L191.782,447.724L191.856,447.891L191.881,448.062L191.856,448.234L191.782,448.4L191.495,448.729L191.118,448.909L190.258,449.166L189.721,449.477L188.569,450.711L187.624,451.205L186.761,451.139L185.898,450.858L185.763,450.837L184.945,450.711L184.945,451.857L184.868,452.224L184.047,453.128L183.633,454.196L183.122,456.586L182.042,458.923L181.909,459.459L181.723,461.05L181.114,462.841L181.032,463.541L181.061,463.856L181.161,464.321L181.131,464.665L180.755,466.014L180.679,467.023L180.622,467.193L180.941,467.429L181.153,467.349L181.323,467.193L181.528,467.193L181.905,467.502L182.144,467.877L182.231,468.353L182.162,468.962L182.162,468.968L181.924,469.491L181.755,470.086L181.59,471.291L181.617,471.495L181.705,471.654L181.929,471.961L181.93,472.176L181.747,472.29L181.52,472.352L181.391,472.406L181.281,472.559L181.116,472.735L180.947,472.961L180.822,473.267L180.567,473.71L180.086,474.129L179.497,474.445L178.196,474.727L177.734,475.131L176.97,476.19L176.404,476.584L175.771,476.761L175.125,476.759L174.524,476.612L174.285,476.788L174.115,477.312L173.855,477.708L173.498,477.52L172.134,476.297L171.643,476.034L170.954,476.151L169.563,476.646L168.868,476.738L168.157,476.619L167.597,476.354L165.806,474.942L163.774,473.979L163.205,473.499L162.115,472.194L161.67,471.926L161.651,471.566L160.898,468.898L160.745,468.573L160.466,468.254L160.121,468.062L159.365,467.886L159.022,467.683L158.458,467.254L156.679,466.197L156.261,465.667L156.007,465.411L155.705,465.305L155.209,465.381L154.187,465.695L153.854,465.738L153.831,465.741L152.967,465.372L152.011,464.445L151.755,464.196L150.941,463.935L150.904,463.845L150.805,463.541L150.783,463.277L150.957,462.428L150.951,462.153L150.87,461.896L150.7,461.666L150.406,461.461L150.081,461.368L149.74,461.368L149.049,461.512L148.741,461.506L148.453,461.404L148.172,461.18L147.434,460.437L147.239,460.019L147.568,459.769L148.671,459.884L149.207,459.797L149.382,459.332L149.172,458.785L148.761,458.348L146.837,457.028L146.445,456.603L146.178,456.088L146.056,455.542L146.051,454.42L145.99,454.16L145.844,453.909L145.52,453.478L145.413,453.251L145.283,452.324L145.183,452.033L144.98,451.784L144.467,451.545L143.962,451.615L143.487,451.881L143.059,452.227L142.571,452.531L142.108,452.591L141.119,452.334L140.934,452.191L140.82,451.883L140.76,451.598L140.756,451.306L140.938,450.045L140.862,449.573L140.629,449.179L140.283,448.859L139.88,448.621L139.136,448.419L138.9,448.322L138.302,447.888L138.07,447.793L137.599,447.767L136.63,447.938L136.145,447.952L135.839,447.119L135.792,446.836L135.828,446.538L135.946,446.266L136.434,445.498L136.491,445.251L136.454,445.005L136.316,444.726L135.948,444.183L135.731,443.949L135.472,443.746L134.978,443.455L134.752,443.276L134.585,443.047L134.542,442.761L134.614,442.477L134.722,442.192L134.793,441.909L134.784,441.26L134.629,440.688L134.342,440.171L133.757,439.484L133.619,439.282L133.55,439.057L133.55,438.781L133.673,438.213L133.693,437.927L133.622,437.647L133.434,437.389L132.618,436.764L132.335,436.469L132.091,436.147L131.883,435.798L131.434,434.666L131.39,434.407L131.357,433.819L131.276,433.56L131.082,433.318L130.193,432.716L130.034,432.519L129.774,432.066L129.614,431.887L129.127,431.875L127.95,432.339L127.622,432.113L127.681,431.592L128.223,430.57L128.163,430.101L127.95,430.057L127.765,430.064L127.587,430.12L127.147,430.301L125.446,430.665L124.466,431.093L124.221,431.168L124.108,431.18L123.501,431.183L123.315,431.223L122.43,431.699L122.219,431.757L121.994,431.717L121.923,431.673L121.711,431.486L121.622,431.437L121.424,431.36L121.345,431.314L121.304,431.265L121.254,431.145L121.218,431.088L121.072,430.98L120.737,430.848L120.584,430.752L120.481,430.4L120.625,429.956L120.809,429.392L120.875,428.961L120.566,428.924L120.266,428.94L119.982,429.02L119.708,429.18L119.464,429.416L118.891,430.254L118.67,430.497L118.15,430.9L117.621,431.208L117.366,431.301L117.104,431.327L116.831,431.258L116.538,431.074L116.282,430.824L116.078,430.528L115.925,430.207L115.652,429.301L115.491,429.028L115.279,428.797L114.77,428.408L114.503,428.25L113.236,427.876L112.686,427.575L112.566,427.038L112.731,426.435L112.72,426.151L112.578,425.849L112.26,425.429L112.194,425.21L112.254,424.925L112.458,424.407L112.435,424.172L112.241,423.944L111.944,423.779L111.309,423.53L111.022,423.342L110.458,422.662L110.239,422.458L109.167,421.834L107.248,420.083L106.151,418.795L105.386,418.248L105.156,418.034L104.608,417.31L104.346,417.153L103.978,417.087L103.204,417.033L102.867,416.875L102.699,416.613L102.657,416.011L102.548,415.75L102.235,415.6L100.997,415.711L100.695,415.574L100.64,415.316L100.81,414.675L100.823,414.306L100.688,414.055L100.438,413.882L98.391,413.069L97.758,413.109L97.448,413.231L96.601,413.743L96.281,413.891L95.944,413.983L95.599,414.023L95.249,414.016L93.939,413.741L93.595,413.75L92.242,414.135L91.885,414.147L91.529,414.084L90.621,413.651L90.337,413.57L90.017,413.579L88.925,413.867L88.553,413.912L83.036,413.511L82.051,413.748L81.455,413.656L81.12,413.229L80.874,412.74L80.844,412.68L80.422,412.225L80.055,412.037L79.334,412.339L79.002,412.562L78.793,412.874L78.691,413.346L78.619,413.563L78.461,413.771L78.26,413.922L78.032,414.02L77.791,414.043L77.559,413.966L77.222,413.642L76.968,413.255L76.676,412.928L76.211,412.786L75.75,412.914L75.469,413.246L75.404,413.682L75.596,414.133L76.119,414.647L76.226,414.861L76.214,415.112L76.075,415.304L75.865,415.443L75.184,415.701L71.715,416.251L71.195,416.27L69.666,416.027L68.629,416.063L68.125,416.173L66.764,416.744L66.31,416.859L65.835,416.869L65.436,416.697L65.215,416.382L65.03,416.039L64.726,415.786L64.237,415.743L63.768,415.955L63.368,416.314L62.583,417.446L62.273,417.74L61.889,417.932L61.411,417.979L60.024,417.691L59.532,417.77L59.15,418.008L58.435,418.668L57.989,418.953L57.512,419.115L57.016,419.143L56.511,419.013L55.748,418.647L55.474,418.565L54.426,418.506L52.965,418.024L52.449,417.998L51.653,418.142L51.381,418.142L50.253,417.867L49.797,417.919L48.517,418.494L48.278,418.541L48.074,418.522L47.657,418.355L47.388,418.29L47.146,418.332L46.918,418.452L46.687,418.617L45.916,418.727L45.187,418.642L44.532,418.323L43.985,417.74L43.594,417.155L43.355,416.906L43.058,416.723L42.651,416.643L42.262,416.713L41.892,416.887L40.942,417.568L40.613,417.723L40.246,417.789L39.883,417.763L38.815,417.557L38.079,417.707L37.391,418.13L36.795,418.713L36.348,419.345L36.104,419.977L35.936,421.32L34.614,427.017L34.475,427.412L34.272,427.754L33.767,428.088L32.576,428.375L32.105,428.783L31.871,429.459L31.728,431.736L31.167,433.091L30.721,434.576L30.529,434.961L30.452,438.619L30.135,440.471L29.405,441.732L29.89,436.071L29.827,433.098L29.506,426.325L29.827,424.121L30.055,423.521L30.951,421.802L31.22,420.114L31.493,419.616L31.834,418.728L31.832,415.11L32.09,413.637L34.677,406.989L35.365,405.854L35.841,403.571L36.393,402.458L37.941,400.246L40.704,394.21L40.893,393.38L41.348,392.754L44.373,383.192L45.341,379.045L45.586,374.541L46.143,369.105L45.785,362.947L44.681,351.29L44.321,350.074L42.66,346.362L41.895,342.139L41.336,340.753L41.627,339.944L41.574,339.011L40.315,334.28L40.129,333.831L39.206,331.605L37.789,329.232L35.881,326.999L35.272,326.427L35.142,326.355L35.028,326.118L34.759,326.047L34.44,326.012L34.168,325.878L33.62,325.511L32.358,325.136L31.832,324.826L31.593,324.431L31.054,322.985L30.951,322.372L30.619,321.72L29.995,321.176L29.627,320.666L30.067,320.131L31.944,320.641L33.751,320.377L35.321,319.466L36.483,318.025L37.248,316.698L37.432,316.031L37.721,315.579L37.788,315.346L37.689,315.119L37.474,314.987L37.261,314.971L37.165,315.102L36.998,315.088L35.201,317.069L34.278,317.814L35.602,314.985L35.145,315.238L33.835,316.338L33.375,316.857L33.155,317.183L32.961,317.563L32.898,317.969L33.055,318.366L33.068,318.58L32.792,319.228L32.713,319.555L32.632,319.654L32.441,319.713L32.224,319.725L32.053,319.683L31.901,319.579L31.88,319.512L31.89,319.416L31.832,319.215L31.779,318.939L31.79,318.1L31.832,317.814L32.137,317.279L32.981,316.38L33.155,315.794L33.276,315.08L33.588,314.726L34.019,314.466L34.499,314.049L37.584,309.343L37.779,309.163L37.997,309.024L38.175,308.837L38.246,308.513L38.286,307.828L38.387,307.569L38.591,307.471L38.654,307.34L39.222,306.717L39.371,306.511L39.381,306.144L39.302,305.837L39.14,305.573L38.911,305.338L39.164,305.11L39.327,304.836L39.395,304.52L39.371,304.166L38.86,304.458L38.691,304.635L38.596,304.09L39.059,303.246L38.911,302.759L38.315,302.388L37.906,302.68L37.668,303.187L37.584,303.461L37.053,303.785L36.822,303.627L36.803,303.212L36.924,302.759L37.103,302.378L37.299,302.086L39.201,300.138L39.737,299.3L40.012,298.279L39.87,297.431L38.893,295.693L38.488,294.757L38.743,294.775L38.975,294.755L39.184,294.673L39.371,294.5L40.087,293.383L40.363,292.698L40.473,292.022L40.39,291.397L40.173,290.879L39.248,289.445L39.051,289.338L38.591,289.31L38.283,289.161L38.133,288.839L38.036,288.514L37.906,288.369L37.392,288.048L36.483,285.78L36.186,285.467L35.902,285.265L35.686,285.051L35.602,284.71L35.691,284.592L35.875,284.525L36.005,284.432L35.942,284.24L35.852,284.1L35.643,283.676L35.505,283.022L34.288,279.811L33.97,279.337L33.496,279.146L33.231,278.715L33.189,277.857L33.048,277.232L32.495,277.497L31.832,277.046L31.832,276.789L33.294,276.372L33.722,276.168L33.055,276.081L31.914,276.275L31.392,276.166L30.951,275.612L31.191,275.376L30.73,274.409L30.513,274.249L29.827,273.961L29.601,275.466L29.854,278.806L29.405,280.109L29.078,279.573L28.657,279.195L27.842,278.674L27.575,278.376L27.161,277.569L26.859,277.155L26.455,276.861L25.442,276.323L25.195,276.081L25.17,275.688L25.324,275.525L25.529,275.466L25.637,275.376L25.627,275.081L25.442,274.797L25.397,274.541L25.245,274.024L24.877,273.607L23.983,272.889L23.861,272.624L23.87,271.983L23.752,271.709L23.21,271.109L22.845,269.481L22.648,269.092L22.309,268.671L22.085,268.16L21.951,267.616L21.888,267.094L21.747,267.261L21.542,267.429L21.448,267.567L20.979,267.101L20.792,266.577L20.706,266.013L20.545,265.42L20.34,265.174L20.044,264.932L19.777,264.608L19.662,264.111L19.488,263.773L18.715,262.7L18.539,262.22L18.473,261.732L18.31,261.179L17.899,260.199L17.284,259.427L16.844,259.692L16.002,261.273L14.62,263.173L14.295,263.451L14.11,263.856L14.35,264.474L14.713,264.297L14.753,264.888L14.549,266.151L14.48,267.274L14.35,267.567L14.039,267.776L13.29,268.003L13.025,268.274L13.003,268.577L13.152,268.839L13.467,269.199L13.7,269.75L13.721,269.978L13.688,270.4L13.38,271.859L13.106,272.619L12.785,272.995L12,269.269L12.121,268.24L12.877,265.094L13.092,263.989L14.463,260.024L15.084,256.702L15.645,253.694L15.952,253.407L19.699,253.407L21.036,253.407L24.809,253.406L30.671,253.406L38.276,253.406L47.278,253.402L57.322,253.4L68.063,253.4L79.152,253.397L90.24,253.397L100.98,253.395L101.978,253.395L111.025,253.393L120.024,253.391L127.631,253.389L133.496,253.389L137.267,253.389L138.603,253.388L143.335,253.388L142.982,247.77L142.791,244.763L141.878,230.38L141.346,221.661L140.813,212.928L140.392,210.663L138.821,206.164L138.482,203.926L138.908,201.568L139.955,199.341L142.718,195.424L143.335,194.624L146.57,192.376L150.613,189.573L154.092,187.152L156.12,185.743L158.092,185.059L163.534,184.276L164.697,183.926L171.782,180.518L175.072,179.615L175.504,179.051L175.634,177.848L175.634,175.003L175.634,172.339L175.634,169.672L175.634,167.002L175.634,164.333L175.634,161.661L175.634,158.988L175.634,156.315L175.634,153.639L175.634,150.962L175.634,148.282L175.634,145.602L175.634,142.92L175.634,140.237L175.634,137.551L175.634,134.863L175.634,132.174L175.634,129.485L175.634,126.793L175.634,124.098L175.634,121.404L175.634,118.71L175.634,116.011L175.634,113.308L175.634,110.606L175.634,107.904L175.634,105.198L175.634,102.491L175.634,99.784L175.634,97.073L175.634,94.36L175.634,91.648L175.634,88.93L178.887,88.928L182.142,88.928L185.392,88.928L188.647,88.928L191.901,88.928L195.156,88.928L198.409,88.928L201.662,88.928L204.917,88.928L208.169,88.928L211.424,88.928L214.677,88.928L217.93,88.928L221.184,88.928L224.437,88.928L227.692,88.928L230.945,88.928L234.197,88.928L237.452,88.928L240.705,88.928L243.96,88.928L247.212,88.928L250.465,88.928L253.72,88.928L256.973,88.928L260.227,88.928L263.48,88.928L266.733,88.928L269.988,88.928L273.24,88.928L276.493,88.928L279.75,88.926L282.49,88.926L283.122,88.746L283.343,88.274L283.343,86.647L283.341,86.151L283.341,84.751L283.339,82.574L283.335,79.746L283.332,76.402L283.327,72.665L283.322,68.665L283.319,64.529L283.315,60.391L283.31,56.378L283.307,52.622L283.302,49.254L283.297,46.407L283.297,44.207L283.295,42.792ZM34.72,305.828L35.347,304.467L35.749,303.946L36.044,304.381L35.067,309.001L34.251,311.154L32.954,313.112L32.398,312.374L32.292,312.153L32.299,311.877L32.378,311.562L32.382,311.218L32.173,310.866L31.936,310.252L32.157,309.61L33.088,308.194L33.155,308.045L33.118,307.049L33.155,306.745L33.415,306.101L33.829,305.568L34.295,305.397ZM36.557,308.747L36.924,308.669L37.18,308.95L36.801,309.565L36.27,310.071L35.87,310.534L35.336,311.513L34.18,313.158L34.077,313.158L34.238,312.568L35.342,310.499ZM31.51,308.644L31.755,308.697L31.775,309.049L31.692,309.737L31.487,310.222L31.282,310.49L31.036,310.272L30.873,309.536L31.06,308.865ZM32.087,278.251L32.366,278.326L32.504,278.505L32.449,279.637L32.253,279.755L31.83,279.578L31.605,278.959L31.771,278.445Z"/>
</svg>
