<svg xmlns="http://www.w3.org/2000/svg" viewBox="0 0 420 520" aria-label="Map of Mauritius">
  <path fill="currentColor" d="M106.339,493.282L106.255,494.48L106.019,495.849L105.515,497.377L105.409,498.158L105.672,498.922L104.528,499.304L103.225,500.333L102.428,501.508L102.79,502.333L102.825,502.687L103.076,503.114L103.11,503.386L102.946,503.846L102.68,503.94L102.382,503.923L102.127,504.07L101.498,505.209L101.14,505.713L100.553,506.116L96.627,507.373L92.655,508L91.253,507.886L89.065,507.178L87.769,507.031L86.778,507.483L84.083,505.042L83.489,504.346L83.283,503.679L84.026,503.386L85.185,503.626L85.825,503.504L86.107,502.858L86.351,501.455L86.298,500.942L85.787,500.654L86.164,499.434L86.21,496.678L86.427,495.167L86.748,494.298L87.811,492.177L88.2,491.763L88.295,491.609L89.332,490.74L89.782,490.52L90.795,490.228L91.253,490.025L92.053,489.193L92.198,488.271L92.229,487.342L92.937,486.031L93.517,484.245L93.803,483.71L94.009,483.41L95.301,482.363L95.621,482.217L96.25,482.168L96.52,482.01L96.726,481.657L97.008,481.305L97.504,481.146L98.243,481.26L100.343,481.876L100.904,482.168L101.144,482.72L100.881,483.58L101.064,484.055L101.395,484.529L101.75,485.365L102.146,486.079L102.268,486.656L102.504,486.964L102.695,487.005L103.248,486.915L103.431,486.964L103.953,487.411L104.09,487.731L103.937,489.343L104.3,489.863L104.784,490.252L105.233,491.674L106.133,492.754ZM46.784,12.291L46.849,12.163L46.948,12.07L47.104,12.012L47.322,12L47.657,13.073L48.865,14.976L48.899,15.933L47.924,14.766L47.047,13.383L46.803,12.767ZM372.389,466.131L373.216,466.333L373.014,467.305L372.069,468.374L370.632,468.876L369.591,469.046L368.848,469.467L368.143,470.022L367.243,470.576L365.902,469.147L365.646,469.046L365.783,468.122L366.161,467.718L366.721,467.467L368.311,466.475L369.808,465.961L371.36,465.734Z"/>
</svg>
