<svg xmlns="http://www.w3.org/2000/svg" viewBox="0 0 420 520" aria-label="Map of Malawi">
  <path fill="currentColor" d="M252.352,150.702L232.858,150.479L230.711,151.004L230.113,151.818L230.119,152.973L230.537,155.73L230.415,158.297L229.946,160.805L227.419,167.051L222.68,174.246L215.987,184.409L214.663,187.624L214.367,190.492L214.465,190.841L216.007,196.328L219.665,209.316L223.105,221.576L223.915,228.721L224.937,237.671L225.799,245.312L226.519,251.682L226.114,257.094L226.268,262.333L228.313,266.979L228.39,267.104L228.598,267.312L229.656,268.373L230.383,269.371L231.643,271.632L231.939,272.34L232.009,272.723L232.196,272.988L232.865,273.338L233.868,273.536L241.827,273.398L243.955,273.728L246.038,274.489L246.087,274.519L247.987,275.699L254.339,281.539L259.785,286.548L265.198,293.048L271.891,301.068L277.575,307.886L282.905,314.283L287.077,322.354L292.465,329.202L298.998,337.507L301.243,340.363L303.505,343.239L306.533,346.322L307.259,347.259L307.619,348.356L308.256,361.814L308.667,362.386L309.471,362.512L310.808,362.472L308.475,368.022L306.764,372.096L303.749,379.214L303.337,380.826L303.357,382.332L303.61,383.378L305.067,389.402L306.841,396.65L306.661,399.301L306.657,399.361L306.308,404.475L305.755,412.546L305.363,418.27L304.739,427.572L304.108,429.99L303.678,431.637L303.704,432.66L304.051,434.633L303.987,435.65L303.395,437.048L302.457,438.119L297.95,441.27L297.294,441.605L296.722,441.658L295.545,441.438L294.902,441.471L288.968,443.271L287.463,443.425L287.155,443.807L286.968,444.811L286.563,445.407L285.785,445.373L284.956,444.971L284.422,444.469L283.972,443.385L282.943,442.689L281.664,442.334L280.436,442.267L279.028,442.635L277.858,443.439L273.524,447.395L273.163,447.827L271.795,449.464L270.65,451.895L270.226,454.896L270.367,455.579L271.113,457.402L270.869,458.058L269.403,459.841L269.313,460.165L269.069,461.041L269.088,463.621L268.747,464.781L267.892,465.686L263.552,468.597L262.761,469.153L263.784,472.038L264.78,473.641L265.037,474.312L265.397,474.856L266.092,475.084L266.664,475.184L268.027,475.714L268.426,475.936L268.709,476.245L269.03,476.916L269.274,477.265L269.467,477.392L269.994,477.627L270.168,477.748L271.666,479.399L271.859,479.741L272.039,484.038L272.29,485.327L273.537,487.859L273.852,489.478L272.296,490.809L272.148,492.179L272.29,494.645L272.09,494.948L271.711,495.237L271.409,495.566L271.435,495.976L271.724,496.279L273.736,497.482L274.109,498.04L273.794,498.887L273.132,500.077L273.055,501.126L273.601,503.574L273.685,504.892L273.524,505.975L273.183,506.87L272.714,507.61L272.698,507.612L269.159,508L262.884,507.785L259.611,507.267L258.659,506.338L258.852,504.663L256.827,501.529L257.316,499.499L258.666,498.369L260.241,497.589L261.611,496.608L262.337,494.827L262.524,492.737L262.485,490.379L261.913,488.363L260.511,487.315L258.46,487.255L256.608,487.436L254.834,487.141L253.002,485.677L251.857,484.132L251.323,483.548L250.475,482.923L250.05,482.762L249.099,482.588L248.675,482.346L248.392,481.856L248.192,480.601L247.929,480.064L247.5,479.749L246.932,479.332L245.839,478.862L244.888,478.291L244.277,477.298L243.827,475.896L243.325,475.003L240.432,472.534L239.802,471.669L238.69,469.495L237.886,468.603L233.945,466.491L233.475,466.317L233.09,466.022L232.325,464.097L231.997,463.501L231.579,463.038L229.566,461.503L228.788,460.732L228.12,459.727L226.377,455.238L224.989,453.791L222.23,453.382L220.089,453.302L218.874,452.049L216.309,446.384L216.56,444.182L217.788,439.999L217.511,438.179L216.463,436.707L211.275,431.216L210.368,430.654L208.298,429.665L207.526,428.983L206.851,427.184L206.735,424.878L207.05,422.619L207.719,420.996L209.487,419.071L210.593,418.216L211.648,417.709L212.933,417.308L213.608,416.907L213.634,416.871L217.479,411.478L218.218,409.428L218.418,406.858L217.852,402.961L217.858,400.786L218.636,399.705L219.755,399.125L220.977,397.143L222.23,396.37L222.642,395.57L222.95,393.936L223.24,393.136L223.947,392.189L224.712,391.656L225.522,391.222L226.358,390.589L227.502,388.916L227.747,387.229L227.125,382.653L226.454,377.722L226.602,376.623L227.175,375.917L227.014,375.185L226.622,374.379L226.48,373.467L226.847,372.562L228.113,370.791L228.57,369.839L228.686,368.754L228.235,367.776L227.554,366.811L226.995,365.779L226.628,364.495L226.48,363.417L226.461,358.668L226.114,356.639L225.445,354.744L224.404,352.67L223.812,350.469L224.654,346.641L224.577,344.495L223.561,342.455L220.321,339.227L218.874,337.434L216.843,333.244L216.011,332.043L215.492,331.292L213.75,330.357L213.203,330.449L212.734,330.755L212.284,331.127L211.808,331.439L211.313,331.538L210.317,331.425L209.847,331.485L203.694,333.702L199.162,333.828L197.168,334.678L196.712,335.336L195.992,336.956L195.503,337.281L188.958,336.398L187.139,336.391L185.435,336.83L181.821,339.048L180.053,339.699L178.298,339.519L174.952,336.929L173.634,337.348L172.692,338.795L172.161,340.662L172.155,342.881L171.956,344.03L171.345,344.468L170.252,344.13L169.512,343.465L168.985,342.608L168.607,341.565L167.725,339.134L167.198,338.324L166.484,337.759L164.812,336.976L164.099,336.411L163.572,335.581L163.253,334.778L162.845,334.014L162.016,333.284L159.392,332.096L158.589,331.445L157.457,329.925L154.31,323.502L153.217,321.969L152.352,320.288L152.179,319.953L151.732,319.535L151.179,319.316L150.288,318.732L149.768,318.142L148.212,315.562L147.942,314.409L148.257,311.22L147.569,309.397L146.174,308.297L142.747,306.388L141.686,305.103L139.751,301.432L138.863,300.69L138.24,301.048L137.642,302.671L137.079,303.228L134.922,303.864L134.054,304.327L133.212,305.282L131.267,308.463L130.126,308.734L128.673,306.852L128.351,305.878L128.57,302.645L128.686,302.28L128.66,301.942L128.306,301.399L127.805,301.141L126.68,301.2L126.165,300.77L125.786,299.763L125.651,298.809L125.403,297.836L122.308,294.002L121.391,293.2L119.485,292.492L117.19,292.029L115.396,291.221L115.042,289.493L115.711,288.778L117.997,287.686L118.527,286.991L118.18,286.224L115.82,282.876L114.174,282.141L111.892,282.121L109.925,281.672L109.192,279.641L109.462,278.311L110.06,277.815L110.953,277.901L112.111,278.298L112.895,278.172L114.573,276.73L115.406,276.195L117.698,275.851L118.508,275.282L118.784,273.834L118.746,272.67L118.881,271.665L119.401,270.971L120.546,270.793L122.314,269.841L123.426,267.388L124.257,263.972L125.137,260.357L126.271,257.867L127.818,255.892L129.689,255.344L130.023,254.452L129.83,253.713L128.833,252.244L128.351,251.161L128.091,250.091L128.017,248.982L128.988,241.913L130.692,238.014L130.981,236.239L130.45,234.689L128.923,233.271L127.245,232.209L126.84,231.517L126.474,226.836L126.692,225.722L127.528,223.988L129.772,220.627L131.682,216.812L132.337,215.949L133.218,215.165L133.726,214.947L134.157,215.046L134.491,215.395L134.755,215.896L135.192,216.311L135.732,216.054L136.298,215.573L136.793,215.283L137.777,215.02L138.246,214.967L138.841,215.132L139.275,215.573L140.014,216.983L140.278,217.306L140.914,217.279L141.21,216.963L141.416,216.528L141.789,216.153L142.104,215.942L142.38,215.711L142.76,215.481L143.386,215.277L144.258,214.671L145.293,212.484L146.006,211.667L146.508,211.45L148.16,211.173L148.938,211.232L149.543,211.535L150.063,211.865L150.558,212.029L151.934,211.713L153.355,210.811L154.632,209.52L155.606,208.051L156.313,207.4L158.2,206.636L158.75,205.879L158.801,204.312L159.084,203.838L160.029,203.666L160.479,202.613L162.105,201.622L162.369,201.461L162.929,200.434L162.832,199.138L162.119,198.868L161.077,198.901L158.647,198.045L154.062,199.441L151.876,198.671L150.674,196.782L149.575,192.347L148.797,190.269L148.077,189.394L146.328,187.71L145.859,186.677L145.769,184.534L145.994,182.423L148.44,176.612L149.022,173.365L149.379,172.353L149.588,171.361L149.343,170.454L148.642,169.062L148.636,168.043L149.459,165.646L149.671,163.321L148.964,152.999L148.597,151.975L147.755,151.011L146.739,150.834L145.646,150.971L144.611,150.965L143.57,150.578L143.364,150.085L144.277,148.11L144.682,146.922L144.753,146.142L144.463,140.736L145.048,139.838L146.633,141.149L147.157,140.284L147.17,139.47L147.048,138.65L147.151,137.758L147.434,137.417L148.385,137.004L148.732,136.709L148.816,136.322L148.601,135.608L148.694,135.194L153.06,128.435L153.915,126.659L154.455,124.765L152.462,121.253L151.076,119.857L149.925,118.265L149.028,116.509L148.424,114.603L148.237,112.74L148.045,110.824L147.575,108.827L146.675,108.055L145.82,108.179L145.042,108.179L144.55,107.832L144.605,106.922L145.154,105.809L145.736,105.606L146.386,105.783L147.144,105.802L148.061,105.239L149.228,103.459L149.986,102.798L150.828,102.51L152.397,102.202L153.262,101.855L154.12,101.705L156.181,102.11L157.136,102.163L157.952,101.79L159.084,100.657L160.029,100.481L161.302,99.695L161.987,98.596L162.999,96.05L166.028,92.635L166.857,92.085L167.654,91.725L170.091,89.953L171.055,89.07L172.078,87.533L172.056,87.281L172.035,87.048L171.981,86.427L171.541,85.276L171.531,83.615L169.837,83.393L168.876,82.281L167.661,79.444L167.185,78.901L165.449,77.345L164.922,76.606L163.289,72.704L163.064,71.188L163.456,67.653L163.311,65.66L162.421,64.634L161.186,63.765L160.029,62.237L158.415,61.669L157.29,60.735L156.274,59.618L154.969,58.501L149.89,56.235L149.054,55.079L149.093,53.446L149.42,51.853L150.591,48.87L152.436,45.991L152.879,44.66L152.481,42.898L151.504,40.405L151.099,39.916L148.797,39.067L148.038,38.663L147.292,37.997L146.759,37.234L145.859,35.518L145.177,34.781L143.618,33.815L143.03,32.922L142.862,31.989L143.065,31.396L143.386,30.887L143.56,30.208L143.467,29.25L143.19,28.408L142.293,26.824L141.049,25.943L137.693,25.767L136.253,25.07L135.893,26.706L135.687,28.571L135.141,29.726L133.765,29.224L133.437,28.624L133.295,27.861L133.045,27.189L132.36,26.869L131.521,27.078L130.833,27.554L130.145,27.867L129.322,27.593L128.563,25.878L129.663,21.327L129.637,19.606L129.084,19.345L128.184,18.504L127.766,18.25L127.043,18.283L126.628,18.589L126.249,18.72L125.644,18.218L125.349,17.364L125.214,13.681L126.172,12.658L127.355,12.052L128.563,12L129.656,12.639L132.768,15.747L136.6,18.726L137.166,18.954L138.841,19.326L140.664,20.049L140.895,20.186L141.461,19.991L142.316,19.28L142.727,19.078L143.595,19.072L144.888,19.463L145.634,19.534L146.167,19.365L147.151,18.713L147.704,18.609L148.816,19L152.314,21.497L153.465,22.585L154.535,24.926L155.284,26.106L156.242,26.785L157.444,27.156L160.029,27.339L161.964,26.869L163.43,26.009L164.941,25.376L167.05,25.598L168.947,26.198L170.58,26.486L170.612,26.491L172.193,26.282L173.839,25.35L175.836,24.796L177.54,25.859L179.128,27.469L180.741,28.532L182.201,29.132L183.962,30.189L185.461,31.461L186.136,32.713L186.862,33.241L187.884,32.126L187.884,31.696L188.804,31.089L189.318,30.443L189.537,29.621L189.582,28.467L190.019,26.563L190.135,25.461L188.977,22.644L189.903,21.06L191.369,19.841L192.128,18.974L193.137,18.068L195.298,18.856L197.228,20.132L197.31,20.186L197.901,20.89L198.763,21.373L200.872,23.942L201.341,24.215L202.415,25.396L204.215,26.224L210.265,32.641L212.123,33.32L212.515,34.155L212.67,35.283L212.978,36.477L213.339,36.979L214.721,38.415L215.004,38.571L216.129,39.661L216.2,39.922L222.41,47.649L223.118,48.948L224.989,51.605L225.715,53.766L225.799,54.452L225.67,55.177L225.117,56.411L224.989,57.038L225.464,59.193L227.528,63.857L228.12,67.215L228.64,68.594L228.776,69.378L228.756,70.051L227.496,76.953L227.773,78.319L228.968,80.326L229.232,81.503L229.097,82.105L228.518,83.524L228.39,84.334L228.431,84.673L228.493,85.172L228.782,86.048L229.193,86.878L229.695,87.598L230.222,87.846L230.762,87.814L230.968,87.874L231.187,87.938L231.36,88.677L231.309,89.894L231.476,90.267L232.813,91.856L233.405,93.132L233.456,94.513L232.633,95.847L233.025,96.43L233.135,96.711L233.398,97.071L233.803,97.365L234.176,97.817L234.337,98.635L233.578,99.204L233.199,99.741L233.437,101.397L232.633,105.357L232.633,108.166L232.498,108.821L231.354,111.407L230.78,112.147L229.541,113.745L229.232,115.343L229.502,116.64L230.331,119.241L230.511,120.794L230.981,121.908L233.945,124.47L234.273,125.093L234.466,125.65L234.761,126.049L235.886,126.331L236.381,126.679L236.767,127.17L236.922,127.74L237.121,129.189L237.674,130.421L238.484,131.352L239.468,131.916L239.468,132.31L239.101,132.519L238.567,132.939L238.195,133.136L239.57,135.719L239.969,136.204L240.381,136.158L241.171,135.463L241.634,135.299L242.142,135.365L244.83,136.276L246.334,137.07L247.498,138.126L247.967,139.431L248.231,139.91L249.395,140.88L249.928,142.599L250.513,143.268L251.098,143.773L251.362,144.239L251.503,144.62L251.799,145.19L252.108,145.938L252.249,146.863L252.249,150.151ZM235.526,177.828L236.864,177.907L238.272,178.406L239.262,179.083L239.77,180.365L239.577,181.976L238.889,183.554L237.912,184.737L236.613,185.487L235.205,185.724L233.964,185.296L233.167,183.988L233.148,182.653L233.553,181.161L234.703,178.4ZM227.284,176.441L227.342,176.402L229.573,175.928L231.379,176.993L232.235,178.939L231.643,181.141L230.364,182.416L229.425,182.377L228.647,181.549L227.85,180.411L226.191,178.525L226.049,177.46Z"/>
</svg>
