<svg xmlns="http://www.w3.org/2000/svg" viewBox="0 0 420 520" aria-label="Map of Mozambique">
  <path fill="currentColor" d="M112.45,507.352L112.55,499.114L112.255,496.499L110.907,493.773L110.693,492.88L110.337,489.595L110.476,488.667L111.42,486.151L111.524,485.303L111.327,484.202L110.989,483.026L110.839,481.883L111.214,480.885L109.314,480.395L108.493,479.952L107.75,479.243L106.629,475.589L106.511,474.639L106.685,473.761L107.897,470.58L108.122,470.197L108.487,469.843L108.765,469.673L108.959,469.48L109.077,469.058L109.075,468.371L108.81,466.385L108.644,465.725L108.346,465.071L108.24,464.083L108.275,463.044L108.39,462.244L108.877,460.699L108.834,453.841L108.808,448.827L108.788,445.069L108.759,439.772L108.735,435.396L108.968,433.239L108.815,430.814L108.095,428.407L107.095,426.228L105.472,422.692L105.289,421.367L105.102,416.413L105.082,415.9L104.929,415.403L104.593,415.003L102.749,413.638L102.21,413.128L101.81,412.473L100.652,409.737L99.55,405.839L98.987,404.712L96.246,401.738L95.713,400.631L95.538,399.348L96.136,392.252L95.962,391.311L94,385.167L92.823,381.484L91.354,376.886L89.881,372.286L88.618,368.346L88.899,367.79L91.177,366.176L93.035,364.849L94.52,363.191L96.015,361.515L97.514,359.839L99.01,358.163L100.506,356.486L101.999,354.812L103.498,353.139L104.994,351.463L106.493,349.791L107.989,348.119L109.485,346.449L110.981,344.775L112.476,343.106L113.975,341.437L115.471,339.769L116.97,338.101L118.463,336.434L119.847,334.895L120.862,333.742L121.965,334.458L121.927,334.314L121.892,334.182L119.812,330.605L119.847,330.485L119.958,330.317L120.062,330.124L120.065,329.918L119.983,329.855L119.857,329.861L119.729,329.842L119.472,329.488L119.058,329.225L118.9,328.957L121.107,326.107L122.55,324.249L123.216,322.909L123.393,321.74L123.001,318.567L122.591,315.289L122.647,314.028L122.948,312.732L123.848,311.56L125.087,311.399L126.433,311.566L127.654,311.358L128.377,310.561L129.309,308.731L130.206,306.977L132.059,304.673L133.328,303.094L133.549,302.703L133.706,302.266L133.909,301.335L133.894,301.093L133.703,300.685L133.667,300.474L133.729,300.178L134.119,299.459L134.26,298.987L134.473,297.507L134.732,297.234L135.197,297.146L135.65,297.004L135.871,296.568L136.037,295.638L136.426,295.296L137.954,295.349L137.872,295.113L137.701,294.404L137.804,292.159L138.356,290.371L138.4,289.119L138.593,288.407L138.683,287.824L138.397,287.488L137.764,287.222L137.149,286.83L136.674,286.344L136.438,285.811L136.674,284.636L136.633,284.022L136.125,283.734L135.594,283.915L134.741,284.796L134.098,284.974L133.44,284.94L132.924,284.821L132.598,284.492L132.502,283.818L132.593,283.511L132.761,283.248L132.882,282.957L132.841,282.562L132.77,282.264L132.761,281.986L132.965,279.794L132.956,279.237L132.761,278.579L132.36,278.439L131.841,278.504L131.294,278.479L130.991,278.119L130.959,277.497L131.139,276.267L131.08,275.379L131.147,275.082L132.213,273.865L132.629,273.196L132.856,272.69L132.956,272.149L132.986,271.402L133.815,267.657L133.633,266.62L133.393,266.323L133.126,266.111L132.9,265.877L132.758,265.505L132.694,265.153L132.608,264.947L132.443,264.809L132.133,264.681L131.637,264.625L129.864,264.894L129.476,264.875L129.153,264.763L128.927,264.522L128.858,264.12L128.905,263.736L128.858,263.405L128.642,262.731L128.684,262.36L128.961,262.107L129.327,261.901L129.632,261.671L129.274,261.43L129.091,260.988L128.893,259.36L128.938,259.089L131.684,257.792L132.549,257.664L133.717,257.755L134.47,257.689L134.964,257.287L135.271,256.639L135.47,255.832L135.529,254.835L135.308,254.013L134.449,252.3L134.083,251.22L133.986,250.601L134.057,250.093L134.411,249.683L134.901,249.477L135.443,249.319L135.952,249.048L136.509,248.712L137.136,248.416L137.645,248.027L137.833,247.418L137.733,247.11L137.37,246.678L137.329,246.382L137.41,246.404L138.01,245.524L138.834,244.896L138.968,244.563L138.745,243.988L138.229,243.41L136.895,242.322L136.461,241.686L136.335,241.235L136.385,240.987L136.553,240.757L136.774,240.359L137.029,239.716L137.049,239.492L136.956,238.499L135.951,235.401L135.889,234.724L136.042,234.132L136.069,233.874L135.719,233.456L135.674,233.173L135.818,232.934L136.045,232.786L136.267,232.584L136.38,232.193L136.327,231.663L135.989,230.823L135.945,230.237L136.025,229.651L136.208,229.028L136.52,228.526L136.992,228.305L137.721,227.816L137.838,226.719L137.754,225.406L137.863,224.257L138.335,223.145L138.447,222.569L138.329,221.95L137.937,221.424L136.866,220.932L136.367,220.539L136.24,220.291L135.939,219.279L135.936,218.948L136.119,218.747L136.367,218.586L136.553,218.354L137.674,216.155L138.08,215.527L138.211,215.324L138.388,214.854L138.365,214.378L138.165,214.112L137.53,213.753L137.279,213.546L136.982,212.953L136.874,212.301L136.865,212.002L136.827,210.889L136.438,209.045L135.706,207.322L134.514,205.192L132.897,202.308L132.859,202.117L134.906,200.106L135.355,199.514L135.845,198.555L136.65,195.412L136.848,194.556L136.497,194.599L136.022,194.799L135.166,195.344L134.703,195.474L133.807,195.415L132.056,195.024L131.162,194.969L130.72,195.043L130.321,195.2L130.076,195.366L130.066,195.362L129.902,195.295L129.144,194.71L128.858,193.533L128.837,192.847L128.7,192.419L128.377,192.117L124.96,190.735L120.437,188.9L117.491,187.71L115.244,187.365L109.603,187.507L106.637,187.03L106.183,186.808L105.934,186.356L105.794,185.218L105.543,184.692L105.203,184.406L104.006,183.776L103.454,183.303L101.725,181.403L100.94,180.752L100.238,180.435L95.473,180.116L94.372,179.566L93.944,179.262L93.375,179.179L92.758,179.173L92.2,179.099L92.147,179.013L92.186,178.868L92.193,178.73L92.059,178.653L91.944,178.666L91.72,178.721L91.613,178.699L91.435,178.503L91.345,178.226L91.221,177.953L90.938,177.75L90.383,177.446L90.024,177.035L89.489,176.031L89.082,175.515L88.613,175.177L88.073,174.975L85.175,174.284L83.908,174.186L83.192,174.631L82.959,175.048L82.744,175.036L82.518,174.861L82.275,174.8L81.856,175.018L81.328,175.619L80.994,175.908L80.358,176.187L79.882,176.12L79.46,175.794L79,175.303L77.849,174.49L76.58,174.223L73.506,174.244L68.848,174.278L66.799,174.29L63.595,174.315L63.56,172.249L63.501,168.697L63.456,165.873L63.415,163.477L63.818,163.312L63.884,163.238L63.557,162.365L63.406,162.132L62.592,161.262L62.53,160.852L62.716,160.2L63.241,159.174L63.318,158.877L63.226,158.592L62.806,158.004L62.716,157.664L62.642,155.736L62.521,155.127L62.32,154.58L62.022,154.054L61.662,153.665L61.252,153.509L60.323,152.9L59.615,151.49L58.55,147.794L58.411,146.514L58.411,145.194L58.207,144.311L58.224,144.119L58.225,144.104L58.694,143.979L61.193,143.676L63.307,142.613L65.964,141.282L68.997,140.165L71.429,139.264L75.391,137.806L78.227,137.15L82.266,136.216L82.776,136.177L85.733,135.454L89.409,134.557L92.38,133.831L94.829,132.916L97.485,131.508L99.447,130.468L103.528,129.112L107.284,127.86L110.149,126.906L112.304,125.907L113.397,125.569L115.69,125.146L118.345,124.232L121.346,123.2L125.665,121.715L130.466,120.062L135.382,118.373L138.972,117.138L141.46,116.284L143.534,115.572L145.106,116.448L145.747,116.953L146.062,117.789L145.918,119.253L146.042,119.782L146.756,120.966L146.995,121.237L147.403,121.505L147.657,121.605L147.862,121.797L147.942,121.951L148.339,122.722L148.84,123.425L150.285,126.373L150.804,127.071L151.173,127.369L152.377,127.915L152.757,128.25L152.945,128.6L153.091,128.969L153.333,129.35L153.66,129.609L154.427,129.969L154.755,130.228L154.997,130.599L155.401,131.715L155.575,132.194L155.817,132.587L156.156,132.892L156.658,133.047L156.938,132.846L157.03,132.319L157.033,131.301L157.276,130.444L157.708,129.78L158.313,129.588L159.849,130.776L160.654,130.859L161.466,130.56L163.124,129.542L163.906,129.341L164.741,129.344L167.744,129.749L167.969,129.6L168.299,128.856L168.509,128.555L169.423,128.165L171.503,128.107L174.327,127.089L174.542,127.062L175,127.114L175.227,127.068L175.445,126.925L175.652,126.754L175.867,126.614L176.118,126.571L176.918,127.001L177.156,127.345L177.537,127.896L178.47,129.819L179.134,130.642L180.621,132.124L181.087,133.06L181.122,134.045L180.736,135.801L181.007,136.811L181.485,137.763L181.792,138.633L181.951,139.564L181.96,141.743L182.028,142.238L182.196,142.827L182.453,143.301L182.766,143.743L182.972,144.192L182.919,144.69L182.71,145.127L182.128,145.94L181.96,146.355L182.025,146.774L182.205,147.144L182.279,147.48L182.016,147.804L181.948,148.308L182.256,150.571L182.541,152.671L182.429,153.445L181.904,154.213L181.52,154.503L181.149,154.702L180.798,154.947L180.473,155.381L180.34,155.749L180.199,156.498L180.01,156.866L179.434,157.221L178.874,158.13L178.36,158.396L178.003,158.892L178,159.89L178.26,161.679L178.169,162.858L177.829,163.799L176.065,166.274L176.053,166.29L175.743,166.474L175.153,166.658L174.669,166.891L174.162,167.284L173.35,168.167L173.044,168.912L172.899,169.948L172.952,171.007L173.262,171.832L173.616,172.145L174.566,172.599L174.982,172.857L177.363,175.377L177.844,176.052L177.971,176.887L177.407,178.807L177.292,179.818L178.47,182.417L179.027,182.992L180.01,183.029L181.276,183.217L181.913,183.881L182.713,185.941L183.019,186.402L183.376,186.756L184.3,187.46L184.492,187.673L184.642,187.947L184.993,188.83L185.17,188.965L185.386,189.045L187.194,190.014L187.563,190.424L188.074,191.421L188.363,191.818L189.691,192.951L189.921,193.361L190.127,194.005L190.407,194.46L190.844,194.722L191.346,194.938L191.606,195.129L191.803,195.274L191.924,195.52L192.016,196.096L192.145,196.321L192.34,196.432L192.777,196.512L192.972,196.586L193.361,196.873L193.606,197.141L194.131,197.85L194.972,198.521L195.786,198.657L196.636,198.574L197.577,198.602L198.221,199.082L198.483,200.007L198.501,201.09L198.415,202.049L198.082,202.866L197.453,203.316L196.73,203.674L196.111,204.193L195.887,205.125L196.816,206.563L196.728,207.331L197.164,207.757L198.666,207.995L201.546,208.094L203.17,207.916L203.177,207.915L203.393,207.575L203.549,207.165L203.623,206.668L203.585,206.063L203.334,204.939L203.369,204.458L203.673,203.912L203.818,203.523L203.647,203.267L202.723,202.715L202.59,202.576L202.578,202.388L202.717,202.237L202.891,202.104L202.983,201.965L202.918,200.834L202.986,200.205L203.7,199.594L203.555,198.851L202.983,197.689L202.868,197.098L202.785,195.126L202.696,194.969L202.009,194.211L201.929,194.155L201.687,194.048L201.599,193.989L201.487,193.829L201.339,193.521L201.209,193.379L201.026,193.278L200.401,193.034L200.138,192.988L199.82,192.884L199.654,192.634L199.536,192.326L199.079,191.59L198.61,190.267L198.973,190.011L200.965,188.676L201.357,188.26L201.513,187.728L201.504,186.544L201.616,186.142L201.658,185.993L202.331,185.175L202.443,184.874L202.1,184.037L202.036,183.724L202.23,182.347L202.755,181.231L203.384,180.48L203.549,180.282L205.538,178.466L206.075,178.097L206.721,177.929L207.285,177.959L207.872,178.122L208.344,178.441L208.55,178.939L208.795,179.169L209.176,179.354L209.533,179.369L209.719,179.096L209.804,178.635L209.946,178.46L210.636,178.389L213.36,177.563L213.655,177.548L214.195,177.649L214.457,177.624L214.758,177.471L216.827,176.025L217.257,175.533L217.529,174.892L217.558,174.425L217.399,173.52L217.387,173.05L217.584,172.294L217.874,171.185L218.16,166.916L218.34,164.289L218.594,160.585L218.754,158.238L218.756,158.211L218.839,156.994L218.025,153.668L217.356,150.904L217.24,150.423L217.231,149.732L217.42,148.993L218.803,145.726L219.588,143.856L220.659,141.31L220.046,141.328L219.677,141.27L219.488,141.007L219.196,134.831L219.031,134.328L218.697,133.898L217.308,132.483L216.27,131.163L215.239,129.853L212.241,126.041L209.769,122.899L207.854,119.195L205.408,116.259L202.8,113.13L199.728,109.45L197.244,106.467L194.745,104.168L191.83,101.488L190.958,100.947L190.936,100.933L189.98,100.584L189.003,100.432L185.35,100.496L184.89,100.405L184.583,100.244L184.498,100.123L184.465,99.947L184.329,99.622L183.751,98.584L183.418,98.126L182.932,97.64L182.836,97.544L182.801,97.486L181.863,95.354L181.792,92.95L181.978,90.467L181.647,87.543L181.252,84.037L180.783,79.93L180.411,76.651L178.833,71.024L177.154,65.064L176.446,62.546L176.401,62.386L176.537,61.07L177.145,59.594L180.216,54.93L182.391,51.629L183.55,48.762L183.766,47.611L183.822,46.433L183.63,45.168L183.627,44.638L183.902,44.264L184.887,44.023L193.833,44.126L205.741,44.246L206.933,44.213L206.984,44.373L207.172,44.56L207.438,44.647L208.14,44.68L208.264,44.668L208.645,44.514L208.651,44.487L208.837,44.433L208.949,44.367L209.081,44.382L209.335,44.578L209.489,44.798L209.562,44.999L209.692,45.162L210.017,45.267L210.052,44.767L210.365,44.743L210.825,44.927L211.294,45.048L211.964,44.668L211.997,44.671L213.537,44.264L213.823,44.081L214.024,43.481L214.263,43.078L214.578,42.689L214.923,42.464L214.702,41.825L215.227,41.512L216.661,41.25L217.166,40.853L218.057,39.721L218.435,39.462L219.603,39.679L220.411,40.025L220.594,40.076L221.671,40.064L222.052,40.254L222.545,40.853L222.273,41.503L222.53,42.054L223.064,42.337L223.616,42.174L224.026,42.147L224.622,42.415L225.663,43.06L225.944,43.174L226.575,43.34L226.85,43.457L227.089,43.647L227.274,43.843L227.469,43.993L227.729,44.054L228.189,44.276L228.348,44.822L228.413,45.481L228.605,46.063L228.422,46.499L228.508,47.099L228.764,47.626L229.092,47.855L230.269,47.653L230.611,47.714L231.054,47.985L231.349,48.069L231.768,48.024L232.807,47.726L233.704,47.59L233.901,47.455L234.049,47.319L234.185,47.256L237.519,47.256L237.743,47.412L237.914,48.096L238.094,48.25L238.253,48.31L238.97,48.669L239.463,48.723L241.254,48.434L241.679,48.286L242.44,48.202L242.65,48.069L242.803,47.882L243.08,47.653L244.134,47.25L244.461,47.075L244.718,46.834L245.512,45.662L246.804,44.126L247.288,43.963L247.559,44.102L248.123,44.144L248.831,44.605L249.253,44.686L251.894,44.448L252.162,44.331L252.416,44.138L252.864,43.873L253.207,44.77L253.983,45.746L254.98,46.59L255.983,47.075L258.408,47.629L259.654,47.765L260.677,47.653L260.955,47.527L261.179,47.382L261.4,47.274L261.669,47.256L261.999,47.412L262.507,47.952L262.74,48.069L264.153,48.47L264.805,48.47L265.348,48.38L265.54,48.277L265.779,48.069L265.938,47.78L266.1,47.376L266.322,47.015L266.667,46.858L267.263,46.731L268.296,46.183L268.915,46.063L269.821,46.054L270.432,45.945L270.963,45.641L272.235,44.617L274.312,43.698L274.905,43.28L275.262,42.96L275.495,42.572L275.442,42.214L275.271,41.855L275.156,41.467L275.306,40.814L275.991,39.588L275.949,39.065L276.218,38.709L276.658,37.394L276.731,36.967L276.926,36.714L278.72,35.691L279.192,35.577L280.355,35.505L280.608,35.438L280.877,35.153L282.508,34.873L283.153,34.886L283.376,34.891L283.376,34.846L283.464,34.762L283.609,34.692L283.783,34.689L283.833,34.762L283.984,35.029L284.075,35.086L284.353,35.18L284.913,35.592L285.252,35.685L285.58,35.628L286.211,35.363L286.495,35.285L287.813,35.493L288.837,36.206L290.413,37.87L291.425,38.39L293.688,38.962L294.525,39.452L294.541,39.462L295.252,38.577L298.064,36.66L298.707,35.845L299.164,35.454L300.014,35.222L300.592,34.951L300.902,34.891L301.244,34.927L301.861,35.074L302.177,35.086L302.699,34.81L303.835,33.721L304.213,33.48L304.809,33.33L305.31,32.978L306.074,32.307L307.039,32.085L310.772,32.088L311.76,31.892L312.639,31.492L313.312,31.627L314.475,32.265L315.076,32.488L315.835,32.497L316.552,32.28L317.219,31.913L322.816,27.406L323.267,27.157L323.757,26.995L325.958,26.829L330.747,25.774L331.47,25.468L334.329,23.488L337.273,22.223L337.816,21.938L341.386,19.132L342.183,18.835L342.516,18.508L343.053,17.802L344.741,16.121L345.821,15.311L347.671,14.662L348.695,13.924L349.604,13.009L350.056,12.168L350.543,12L350.985,12.104L351.157,12.397L350.855,12.78L351.394,12.903L352.158,12.253L352.63,12.565L352.774,13.174L352.472,13.659L352.047,14.042L351.831,14.365L352.047,14.826L352.565,15.018L353.159,15.133L353.601,15.358L353.803,15.797L353.87,16.788L354.079,17.251L354.488,17.485L355.608,17.629L356.047,17.847L356.282,18.329L355.866,18.457L354.772,18.351L353.852,18.613L351.44,20.514L351.635,21.526L351.858,21.37L352.019,21.19L352.133,20.987L352.221,20.732L352.771,21.202L354.772,22.21L355.292,22.804L354.758,23.357L353.192,24.105L352.674,24.578L352.095,25.326L351.747,26.142L352.047,27.219L351.812,28.222L352.044,28.511L352.37,28.43L352.744,27.706L353.015,27.519L353.745,27.834L353.736,28.662L353.343,29.59L352.911,30.196L351.998,31.17L351.831,31.489L351.812,31.866L352.026,32.593L352.044,32.882L351.691,33.386L349.791,34.786L349.577,35.165L349.159,36.179L348.924,36.473L348.559,36.601L347.876,36.601L347.542,36.655L347.835,37.093L348.081,37.65L348.304,37.866L348.518,37.269L348.95,37.522L349.398,37.949L349.788,38.425L350.056,38.842L350.883,38.638L351.041,39.558L350.862,40.537L350.66,41.663L350.36,42.569L350.13,42.967L349.791,43.361L349.67,43.823L350.004,44.276L350.444,44.689L350.66,45.044L350.488,45.372L349.844,46.107L349.791,46.356L350.097,46.781L350.19,47.122L350.269,48.067L350.402,48.641L350.929,49.149L351.022,49.305L351.059,49.49L351.11,50.909L351.273,51.41L351.635,51.866L351.882,51.726L352.035,51.698L352.435,51.866L351.659,52.657L351.463,53.504L351.659,54.376L352.044,55.235L352.911,56.47L352.911,56.738L352.481,57.197L352.3,57.501L352.221,58.442L351.882,59.846L351.831,60.257L351.942,60.775L352.467,61.578L352.63,62.049L352.569,62.534L352.353,63.133L352.026,63.646L351.635,63.865L351.227,63.739L350.822,63.568L350.534,63.646L350.464,64.26L351.168,64.098L351.796,64.569L352.249,65.339L352.435,66.076L352.346,66.481L352.165,66.835L352.044,67.204L352.13,67.67L352.381,67.908L352.774,67.974L353.601,67.87L353.517,68.174L353.35,68.419L353.118,68.59L352.462,68.759L352.277,69.026L352.044,69.647L351.296,70.71L351.236,71.2L351.635,71.662L351.937,71.795L352.284,71.852L353.482,71.91L353.629,72.048L353.601,74.052L353.708,74.476L353.963,74.661L354.289,74.745L355.116,75.171L355.274,75.414L355.074,75.775L354.79,75.818L354.303,75.259L353.991,75.259L353.801,75.545L353.819,75.916L354.089,77.204L354.326,77.214L354.639,77.047L354.967,77.073L355.171,77.376L355.413,78.138L355.552,78.29L355.896,78.39L356.05,78.638L356.05,78.96L355.943,79.288L355.483,79.76L354.869,79.896L354.256,79.732L353.796,79.288L353.773,79.524L353.824,79.817L353.912,80.046L353.991,80.089L353.573,80.353L352.771,80.282L352.63,80.501L352.806,80.747L353.159,80.978L353.413,81.318L353.301,81.89L352.981,82.67L352.806,82.906L352.555,83.149L352.479,83.175L352.411,83.063L352.221,82.906L352.249,82.66L352.151,82.465L351.831,82.305L351.58,82.279L351.403,82.326L350.583,82.763L350,83.177L349.517,83.661L349.314,84.107L349.363,84.662L349.51,84.979L350.952,86.303L351.384,86.446L351.831,86.288L352.212,85.773L352.061,85.359L351.752,84.953L351.635,84.486L351.863,84.281L352.3,84.264L352.774,84.386L353.106,84.586L353.517,84.701L354,84.567L354.405,84.572L354.577,85.092L354.416,86.04L353.733,87.738L353.601,88.707L353.671,89.229L353.935,90.217L353.991,90.73L353.796,92.937L353.636,93.51L353.271,93.851L352.871,94.14L352.63,94.548L352.704,94.899L353.08,94.754L353.796,94.152L353.796,96.554L353.928,96.501L354.249,96.425L354.382,96.373L354.27,97.041L353.406,97.977L353.192,98.467L353.134,99.726L352.964,100.338L352.63,100.777L352.63,100.78L353.127,101.193L353.545,101.728L353.987,102.187L354.577,102.383L354.611,102.574L354.237,103.024L353.301,103.898L352.983,104.474L353.076,105.134L353.856,106.825L353.998,107.358L354.444,110.849L354.814,111.638L354.832,111.959L354.89,112.282L355.334,112.713L355.525,112.959L355.683,113.237L355.748,113.474L355.813,114.207L356.103,115.497L356.156,116.103L356.017,116.891L355.692,117.245L354.577,117.676L354.904,117.873L355.183,118.151L355.329,118.5L355.269,118.908L354.988,119.243L354.618,119.377L353.796,119.502L352.96,120.005L353.155,120.501L353.573,121.105L353.406,121.937L353.796,121.81L354.117,121.246L354.372,121.232L354.567,121.481L354.479,121.778L354.433,122.076L354.772,122.334L354.344,122.656L354.168,122.737L354.47,122.914L354.767,122.91L355.06,122.766L355.357,122.536L355.35,121.678L356.059,121.126L357.462,120.537L357.811,120.777L358.159,121.191L358.317,121.635L358.257,122.529L358.405,122.859L358.884,123.14L358.568,123.562L358.431,124.118L358.424,124.693L358.494,125.173L358.103,125.302L357.43,125.844L357.128,125.974L356.733,125.854L356.187,125.279L355.748,125.173L356.328,128.392L355.822,128.226L355.559,128.413L355.587,128.745L355.943,129.011L355.357,129.616L355.413,129.779L355.543,129.937L355.678,130.033L355.748,130.019L355.534,131.387L355.552,131.848L356.156,131.279L356.577,130.595L357.358,128.114L357.583,127.888L359.302,127.053L359.66,126.981L360.464,127.26L361.233,127.953L361.637,128.843L361.337,129.716L360.966,129.966L360.092,130.167L359.66,130.328L359.281,130.662L359.309,130.921L359.616,131.063L360.05,131.046L360.341,130.839L360.599,130.547L360.882,130.398L361.24,130.623L361.386,131.034L361.342,131.538L360.747,133.223L360.801,133.54L361.045,134.044L361.138,134.143L361.305,134.26L361.484,134.426L361.63,134.671L361.665,134.863L361.667,135.269L361.728,135.473L361.793,135.939L361.398,137.669L361.342,137.832L361.356,137.976L361.532,138.195L361.635,138.366L361.637,138.534L361.567,138.692L361.435,138.812L360.069,139.392L359.855,139.615L359.713,139.867L358.689,140.937L358.317,141.31L357.845,141.557L357.33,141.699L356.828,141.742L356.589,141.562L356.27,140.668L355.943,140.331L356.054,140.889L356.087,141.447L356.245,141.947L356.737,142.348L357.193,142.423L358.549,142.42L358.884,142.348L359.177,142.822L359.483,143.481L359.692,144.13L359.679,144.585L359.253,144.226L358.963,144.195L358.689,144.308L358.317,144.385L356.737,143.962L356.482,144.501L356.842,145.35L357.908,146.807L357.021,147.125L356.131,147.243L355.348,147.551L354.772,148.439L354.361,148.283L353.782,148.15L353.206,148.109L352.806,148.22L352.658,148.526L352.421,149.597L352.221,150.035L353.238,150.194L353.745,150.374L354.168,150.661L354.414,149.768L354.988,149.421L355.724,149.52L356.438,149.943L356.83,150.598L357.044,151.542L356.925,152.368L356.328,152.683L356.691,153.131L356.621,153.502L355.552,154.68L355.422,154.875L355.473,155.343L355.385,155.591L355.236,155.844L355.074,156.041L354.526,156.552L354.382,156.74L354.333,156.962L354.377,157.442L354.275,157.661L354.038,158.056L353.935,158.505L354.033,158.813L354.382,158.784L354.193,159.213L353.949,159.594L353.624,159.917L353.192,160.197L352.811,160.363L352.551,160.385L351.831,160.197L351.742,160.973L351.308,161.494L350.165,162.331L349.74,162.855L347.965,165.813L342.282,171.772L341.074,172.485L340.897,172.746L340.837,173.121L340.716,173.454L340.393,173.601L340.128,173.643L339.759,173.758L339.438,173.957L339.32,174.227L339.64,174.561L340.254,174.218L341.269,173.195L341.432,173.877L341.204,174.399L340.874,174.88L340.702,175.443L340.574,176.18L340.24,176.64L339.32,177.491L338.135,179.774L337.366,180.887L336.379,181.366L334.55,181.4L334.023,181.553L332.255,182.508L331.4,183.252L331.33,183.38L331.377,183.636L331.572,183.743L331.892,183.787L331.911,184.138L331.869,184.871L331.892,185.225L332.101,185.84L332.464,186.368L332.933,186.779L333.472,187.056L332.176,187.884L331.697,188.068L331.665,187.857L331.521,187.467L331.486,187.254L331.214,187.385L330.931,187.458L330.638,187.482L330.336,187.458L330.485,187.596L330.754,187.928L330.903,188.068L330.136,188.344L329.848,188.526L329.541,188.882L329.578,188.935L329.611,189.122L329.588,189.362L329.451,189.594L328.97,190.103L328.403,190.518L327.234,191.18L326.384,191.882L325.234,192.256L324.96,192.45L324.24,193.192L319.205,195.816L314.87,198.592L314.389,199.009L313.646,200.109L313.246,200.371L312.723,200.109L312.721,200.228L312.716,200.713L312.403,201.121L311.903,201.379L311.341,201.537L311.843,201.719L312.27,201.583L312.528,201.588L312.528,202.166L312.354,202.702L312.033,203.186L311.62,203.569L311.164,203.795L310.137,203.912L309.141,203.851L308.193,203.941L306.541,205.064L305.482,205.413L300.993,205.834L300.561,205.669L299.885,204.954L299.413,204.816L300.041,205.669L299.522,206.303L298.47,206.709L297.487,206.872L297.61,206.325L296.277,207.688L295.831,207.681L295.522,207.462L295.299,207.234L295.111,207.178L294.883,207.365L294.771,207.594L294.785,207.849L294.915,208.097L286.849,211.329L286.477,211.601L285.827,212.358L285.423,212.643L284.939,212.621L284.419,211.935L284.377,209.921L283.964,209.337L284.159,209.95L283.82,210.083L283.457,210.059L283.109,209.928L282.795,209.748L283.192,210.358L283.861,211.059L284.189,211.718L283.573,212.214L284.14,212.606L283.478,213.124L281.626,213.847L277.886,214.665L276.311,215.512L272.621,218.052L272.333,218.1L272.41,217.711L271.697,218.013L270.642,218.933L269.504,219.713L268.514,219.567L267.81,220.366L264.142,222.555L263.377,223.325L262.947,223.637L262.534,223.744L262.241,223.491L261.758,224.183L261.475,224.422L261.07,224.515L260.308,224.532L260.018,224.707L259.904,225.117L259.586,225.6L258.854,226.083L258.004,226.339L257.348,226.149L257.223,227.256L256.41,228.293L254.407,230.058L252.326,233.552L251.485,234.358L251.473,234.126L251.289,233.54L251.094,233.745L250.839,233.359L250.588,233.071L250.295,232.846L249.919,232.646L249.514,232.333L249.412,231.962L249.417,231.545L249.324,231.083L248.741,230.417L247.918,230.124L247.166,230.314L246.789,231.083L247.707,230.473L248.33,230.956L248.727,231.962L248.95,232.924L249.087,234.036L249.298,234.419L250.253,234.654L250.583,234.864L250.899,235.135L251.289,235.384L250.416,237.044L250.023,237.555L249.284,238.332L249.04,238.757L248.95,239.3L248.724,239.665L248.183,239.579L247.53,239.361L246.984,239.317L246.55,239.601L246.26,240.034L245.813,240.958L246.35,240.755L247.187,240.137L247.586,239.934L247.249,240.565L245.267,243.006L244.106,243.99L241.425,247.141L240.091,248.383L239.15,248.596L238.944,249.808L238.76,250.242L238.577,250.107L237.982,249.83L238.077,250.426L238.177,250.632L237.81,250.595L237.285,250.61L236.892,250.715L236.908,250.95L237.08,251.318L236.936,251.671L236.425,252.298L235.31,254.701L234.864,255.383L234.915,254.986L234.857,254.721L234.704,254.633L234.474,254.765L234.362,255.001L234.272,255.658L234.023,256.301L234.255,256.384L234.522,256.259L234.474,256.021L234.578,256.085L234.776,256.168L234.864,256.227L234.896,256.32L234.901,256.612L235.273,257.302L235.024,257.599L234.548,257.778L234.174,257.974L233.637,258.18L232.991,257.974L232.348,257.635L231.825,257.459L231.163,256.804L230.19,254.863L230.152,255.795L230.773,257.886L230.933,258.968L230.538,259.953L230.787,260.029L230.97,260.174L231.082,260.385L231.124,260.662L231.012,260.797L230.761,260.751L230.366,260.566L229.428,260.719L228.591,260.979L227.581,261.087L227.155,260.66L227.016,258.922L227.076,258.696L227.19,258.416L227.19,258.18L226.925,258.077L226.654,258.121L226.491,258.234L225.631,259.196L224.265,261.244L223.664,261.701L222.727,261.824L222.899,261.21L222.788,260.883L222.504,260.861L222.158,261.185L221.991,261.622L221.872,262.163L221.7,262.678L221.364,263.037L220.75,263.18L220.409,262.924L220.148,262.566L219.781,262.403L219.507,262.472L219.261,262.622L219.091,262.855L219.022,263.153L219.117,263.447L219.331,263.391L219.591,263.244L219.781,263.263L219.607,263.742L215.495,266.581L215.237,266.881L214.798,267.54L214.505,267.8L214.145,267.709L213.75,268.108L213.139,269.246L213.346,269.138L213.509,269.096L213.92,269.04L213.92,269.246L213.128,269.694L212.373,270.307L210.979,271.724L211.564,271.724L211.325,272.14L210.052,273.617L209.842,273.764L209.515,273.823L209.266,273.924L209.159,274.163L209.08,274.464L208.922,274.744L207.452,276.717L204.545,279.837L201.195,282.546L198.463,285.423L197.473,285.86L196.758,286.06L195.201,287.682L194.337,288.346L194.077,288.03L193.752,288.257L192.976,289.193L191.419,290.228L190.518,289.872L190.276,289.652L190.069,289.193L189.916,288.321L189.793,287.901L189.581,287.723L189.342,287.563L188.134,286.479L186.768,285.971L186.445,285.744L185.318,284.036L185.081,283.77L184.649,283.568L184.459,283.099L184.354,282.546L184.187,282.115L183.908,281.92L183.455,281.723L182.953,281.57L182.528,281.511L182.089,281.703L181.789,282.546L181.438,282.734L181.438,282.958L181.884,282.929L182.428,282.443L182.911,282.322L183.413,282.389L183.817,282.591L184.087,282.946L184.287,283.883L184.533,284.347L186.048,286.573L186.224,286.687L186.512,286.79L187.019,286.894L187.279,286.993L187.456,287.235L187.711,287.723L188.38,288.489L188.494,288.761L188.362,289.563L187.923,290.401L187.281,290.942L186.543,290.85L186.615,291.371L186.884,291.371L187.226,291.157L187.516,291.038L188.022,291.194L188.129,291.438L187.906,292.303L187.923,292.795L188.111,293.776L188.134,294.167L188.101,294.419L188.048,294.582L187.957,294.723L187.809,294.901L187.674,295.19L187.727,295.45L187.841,295.695L187.906,295.94L187.867,296.605L187.906,296.902L187.992,297.129L188.243,297.575L188.334,298.032L188.473,298.48L188.494,298.748L188.417,299L188.187,299.287L188.134,299.495L187.892,299.859L187.339,299.698L186.445,299.163L185.971,299.287L185.569,299.473L185.246,299.455L185.002,298.98L185.035,299.208L185.03,299.381L185.002,299.599L185.444,300.109L187.516,301.262L187.516,301.451L187.281,301.698L187.065,302.065L186.877,302.496L186.573,303.516L186.443,303.833L185.86,304.482L185.706,304.928L186.378,305.402L186.243,305.729L185.801,306.053L185.427,306.19L185.049,306.123L184.575,305.815L184.677,306.264L184.83,306.713L185.03,307.109L185.267,307.412L185.639,307.675L186.248,307.789L186.543,307.932L186.629,308.141L186.745,308.585L186.78,309.093L186.64,309.505L185.511,310.472L185.374,310.844L186.375,310.318L186.972,310.174L187.418,310.333L187.49,311.122L187.697,311.425L188.134,311.072L188.366,311.71L188.747,311.995L189.24,312.209L189.765,312.633L190.062,313.008L190.278,313.4L190.411,313.882L190.46,314.518L190.613,314.801L191.428,314.2L191.805,314.423L191.777,314.905L191.4,315.195L191.075,315.521L191.201,316.089L191.363,315.829L191.591,315.655L191.879,315.541L192.214,315.464L193.575,315.568L193.721,315.821L194.653,316.611L194.767,316.909L194.788,317.341L194.746,318.154L195.057,317.968L195.304,317.985L195.471,318.191L195.527,318.571L195.434,318.785L195.032,319.198L194.941,319.521L195.118,320.053L195.991,320.873L196.326,321.306L196.131,321.669L195.98,322.077L195.903,322.51L195.917,322.972L196.716,322.316L197.12,322.219L197.687,322.554L197.882,322.728L197.931,322.803L197.959,322.913L198.078,323.201L198.054,323.408L198.054,323.413L197.924,323.609L197.92,323.758L198.273,323.828L198.078,324.502L197.917,324.816L197.687,325.097L197.376,324.893L197.06,324.861L196.814,325.025L196.711,325.401L196.8,325.622L196.995,325.674L197.192,325.67L197.297,325.704L197.325,325.891L197.29,326.137L197.292,326.996L197.092,327.457L196.718,327.726L196.217,327.811L196.024,327.691L195.791,327.492L195.554,327.452L195.35,327.811L195.313,328.254L195.48,328.463L195.75,328.58L196.175,328.871L196.293,328.891L196.396,328.921L196.498,329.066L196.516,329.225L196.461,329.405L196.384,329.524L196.326,329.504L196.372,329.853L196.363,330.127L196.426,330.344L196.711,330.551L196.54,330.912L196.732,331.076L197.06,331.183L197.297,331.383L197.371,331.812L197.171,331.974L196.832,332.048L196.498,332.22L196.2,332.594L196.312,332.714L196.621,332.796L196.907,333.058L196.981,333.407L196.907,334.711L197.618,333.95L198.468,330.321L198.51,330.855L198.308,332.834L198.036,333.721L198.273,336.405L199.172,338.756L200.903,341.75L201.318,342.277L201.695,342.499L202.58,344.596L202.65,345.905L202.51,348.574L202.775,349.898L203.63,351.79L203.746,352.296L203.881,354.249L204.176,355.71L204.429,358.284L203.577,366.204L203.57,367.521L203.737,368.275L204.141,368.636L204.652,368.838L205.131,369.104L205.682,370.12L206.093,370.582L206.281,370.255L206.2,368.903L206.409,368.445L207.062,368.048L206.395,366.928L206.009,365.421L206.002,363.909L206.492,362.764L206.376,362.483L206.392,362.255L206.504,362.059L206.688,361.901L207.022,362.812L207.287,363.02L207.663,362.528L206.95,361.231L206.688,361.058L206.832,360.689L207.452,359.799L207.477,359.621L207.445,359.407L207.445,359.222L207.561,359.147L207.682,359.106L207.849,359.019L207.993,358.921L208.054,358.851L208.179,358.49L208.472,358.357L208.802,358.389L209.027,358.515L209.141,358.806L209.132,359.167L209.027,359.899L209.613,365.099L209.836,364.572L209.947,364.04L210.056,362.318L210.309,361.575L210.393,361.058L210.586,361.058L210.198,364.868L210.198,365.491L210.393,367.521L210.323,368.179L208.909,372.967L208.816,376.838L209.71,383.577L210.198,384.795L210.477,384.409L210.558,384.227L210.586,383.947L211.083,384.172L211.548,384.182L211.78,384.015L211.564,383.718L211.564,383.524L212.147,383.796L211.998,384.692L210.962,386.826L210.33,387.748L209.222,390.513L208.704,391.433L208.504,391.928L208.428,392.555L208.49,393.207L208.769,394.35L208.816,394.987L208.609,396.292L206.95,401.373L206.492,405.433L206.492,408.114L206.427,408.743L206.241,409.428L205.988,409.702L205.695,409.071L205.723,408.477L205.849,407.921L205.737,407.51L205.033,407.35L204.559,407.464L204.652,407.716L204.964,407.944L205.131,408.007L205.303,408.728L205.326,409.071L205.263,409.662L204.999,410.885L204.936,411.53L204.985,412.559L204.936,412.943L204.838,413.26L204.62,413.694L204.545,414.01L204.564,414.198L204.692,414.8L204.722,415.173L204.662,415.529L204.397,416.124L204.332,416.462L204.583,416.434L205.912,414.843L205.452,413.766L205.405,413.191L205.695,412.711L206.114,412.633L206.525,412.882L207.273,413.565L207.814,413.821L208.149,413.827L208.332,413.547L208.546,411.358L208.428,411.007L208.428,410.776L209.596,411.068L209.898,411.419L210.031,412.803L210.117,413.044L210.296,413.138L210.351,413.298L208.709,418.708L208.639,419.344L208.699,419.751L208.969,420.387L209.027,420.738L208.932,421.026L208.727,421.24L208.518,421.415L208.428,421.576L208.277,422.194L207.94,422.78L203.533,429.33L200.301,432.882L200.22,433.193L200.21,433.602L200.148,433.913L200.001,434.189L197.882,436.299L189.484,440.806L184.821,443.05L180.075,444.261L180.003,444.292L176.269,445.893L175.523,446.113L172.352,447.455L170.763,447.712L164.407,450.085L158.564,452.255L154.454,454.447L151.013,455.664L146.815,457.996L145.66,458.305L145.66,458.089L146.125,457.878L146.599,457.557L146.998,457.179L147.24,456.778L146.859,456.902L145.7,457.482L145.449,457.775L145.1,458.037L144.396,458.114L143.874,458.32L144.069,458.975L144.236,458.865L144.654,458.716L144.236,459.415L143.581,459.836L142.117,460.484L141.516,460.906L134.114,466.114L133.314,467.026L131.818,469.159L131.168,470.479L130.647,472.51L130.248,473.191L130.457,474.765L130.322,475.047L130.345,474.864L130.29,474.642L130.173,474.353L129.997,474.353L129.797,474.613L129.532,474.791L129.305,474.993L129.202,475.326L129.174,475.777L129.098,476.206L128.979,476.596L128.812,476.952L127.469,478.254L127.251,478.608L127.097,478.796L126.345,479.432L126.084,479.59L125.745,479.615L125.501,479.528L124.916,479.155L124.435,478.998L123.947,478.985L123.478,479.137L123.05,479.476L122.811,480.083L122.925,480.675L123.227,481.021L123.529,480.874L123.501,480.719L123.529,479.688L123.724,479.574L124.147,479.646L124.581,479.789L124.818,479.905L124.96,480.148L125.169,480.675L125.304,480.874L125.583,481.047L126.196,481.285L126.491,481.541L126.693,481.89L126.949,482.614L127.153,482.966L127.399,483.199L127.62,483.357L127.776,483.54L127.943,484.513L128.459,485.872L128.635,486.555L129.128,486.087L129.853,486.242L130.554,486.661L130.977,486.99L131.593,487.749L131.962,488.474L132.371,489.112L132.924,489.599L133.249,489.754L133.544,489.625L133.879,489.438L134.304,489.399L134.039,488.389L134.002,487.55L134.155,486.703L134.481,485.685L134.743,484.218L134.98,483.835L135.329,483.574L136.446,483.08L136.465,483.931L135.733,489.034L135.412,497.9L135.024,500.316L134.764,501.038L134.694,501.412L134.871,502.723L134.694,505.251L134.632,505.571L134.304,506.454L134.355,506.777L134.604,507.243L134.694,507.547L130.28,507.679L126.273,507.798L122.585,507.907L119.254,508L117.644,507.735L115.566,507.395L114.74,507.362L113.286,507.534ZM186.112,56.574L185.734,56.837L185.206,58.104L185.02,58.788L185.029,59.401L185.395,60.002L185.964,60.198L186.61,60.089L187.206,59.745L187.655,59.202L187.97,58.478L188.059,57.739L187.826,57.15L187.371,56.84L186.725,56.61ZM182.329,55.938L181.762,56.405L181.827,56.894L182.589,57.76L182.954,58.282L183.311,58.662L183.742,58.68L184.329,58.095L184.601,57.084L184.208,56.191L183.379,55.702L182.355,55.92ZM135.085,482.41L134.76,481.477L135.415,480.618L136.444,479.957L137.25,479.59L137.231,479.944L137.036,480.874L136.734,481.782L136.641,481.976L136.374,482.257L136.302,482.288L136.209,482.159L135.884,481.976L135.772,481.828L135.759,481.611L135.656,481.471L135.28,481.541L135.287,481.673ZM208.249,341.677L208.574,341.078L208.832,341.098L208.988,341.567L209.027,342.307L208.853,344.526L207.842,348.812L207.259,348.859L207.036,348.426L207.022,347.816L207.333,345.48ZM335.002,182.475L335.973,182.578L336.053,183.259L335.923,183.863L335.162,184.651L334.927,185.517L334.98,186.041L334.824,186.461L334.115,186.672L333.484,186.463L332.801,185.887L332.38,184.865L332.484,183.712L332.798,183.187L333.611,182.793Z"/>
</svg>
