<svg xmlns="http://www.w3.org/2000/svg" viewBox="0 0 420 520" aria-label="Map of Namibia">
  <path fill="currentColor" d="M151.468,438.258L150.926,438.665L150.633,439.177L150.262,439.51L149.491,439.394L149.153,439.177L147.368,437.697L146.464,436.641L146.028,435.98L142.88,432.797L142.366,432.575L142.137,432.364L140.374,429.957L138.501,427.757L134.627,424.911L133.842,424.125L132.347,422.191L130.251,420.503L129.851,420.047L128.944,418.583L127.992,417.573L127.835,417.339L127.809,416.956L128.002,416.28L128.038,415.965L127.664,414.926L126.874,413.825L123.956,410.89L123.585,410.307L123.442,409.514L123.454,407.799L123.39,407.533L123.209,407.122L120.413,402.596L119.942,401.542L119.587,401.019L119.106,400.799L118.854,400.504L117.998,398.775L116.803,397.213L116.617,396.862L116.222,394.26L116.06,393.939L115.865,393.7L115.694,393.438L115.623,393.023L115.822,391.678L115.416,389.555L115.623,389.076L115.037,387.866L114.866,387.232L114.804,386.492L114.833,385.13L114.666,384.479L114.204,383.902L114,383.822L113.467,383.78L113.205,383.678L113.148,383.534L112.945,383.187L112.731,382.888L112.629,382.888L112.543,382.168L112.339,381.554L111.401,379.581L111.249,379.027L111.382,378.136L111.075,377.491L110.661,376.831L110.411,376.277L110.347,375.52L110.425,374.865L110.668,374.402L111.101,374.226L111.403,374.152L111.701,374.035L111.92,374.048L112.01,374.359L112.01,375.611L112.21,375.611L112.324,374.961L112.9,373.252L112.917,372.906L112.729,372.475L112.134,370.48L111.748,368.507L111.073,367.298L110.104,366.291L108.997,365.526L107.26,364.803L106.998,364.511L106.78,361.96L106.891,359.493L106.304,358.6L106.204,358.38L106.32,357.995L106.494,357.985L106.722,358.07L106.998,357.937L107.393,356.898L107.37,355.502L107.056,354.103L106.599,353.026L105.285,350.834L105.121,349.768L105.604,348.565L105.385,348.565L103.886,346.773L103.386,345.906L103.315,345.52L103.315,345.248L103.386,344.796L103.386,342.229L103.507,341.564L104.386,339.886L104.466,339.348L104.462,338.609L104.338,337.955L103.693,337.315L103.51,336.492L103.386,335.019L102.663,333.048L102.501,331.532L102.206,330.329L102.172,329.679L103.079,327.266L102.993,326.888L103.586,324.582L103.693,323.263L103.4,322.031L102.996,321.194L102.391,319.936L102.022,318.674L101.93,316.093L101.573,314.852L99.897,311.637L99.195,310.655L97.753,309.233L97.342,308.27L96.342,307.097L96.166,306.286L96.275,305.944L96.69,305.465L96.782,305.277L96.782,303.959L96.647,303.347L95.997,302.147L95.355,300.52L93.77,297.433L93.163,295.215L92.592,294.151L92.392,292.68L92.17,292.203L92.316,291.559L92.313,290.485L92.182,289.389L91.956,288.685L92.17,288.24L92.363,287.365L92.57,286.938L92.753,286.849L93.02,286.802L93.263,286.685L93.37,286.381L93.77,285.608L93.539,285.217L93.57,283.422L93.056,281.893L92.97,281.331L93.37,276.731L93.225,275.586L92.896,274.709L91.811,271.818L91.442,270.378L91.464,270.07L91.699,269.787L92.411,268.493L92.77,268.136L92.763,268.804L92.906,269.095L93.082,268.929L93.17,268.231L93.127,267L92.587,263.297L92.273,262.171L91.771,261.34L91.354,260.45L91.042,259.423L90.843,258.318L90.735,256.24L90.771,255.935L90.907,255.63L91.288,255.025L91.371,254.723L91.371,253.413L91.464,253.351L91.635,253.351L91.721,253.467L91.554,253.746L91.687,253.945L91.844,254.25L91.956,254.379L91.783,255.02L91.735,255.669L91.949,256.002L92.57,255.7L92.527,256.059L92.17,257.018L92.611,256.602L93.27,255.32L93.67,255.048L94.005,254.736L94.219,253.997L94.367,252.538L94.167,246.997L93.613,242.833L92.927,241.705L92.611,240.296L91.554,238.113L90.985,236.244L90.043,234.243L89.864,233.991L87.958,231.837L87.347,230.799L87.323,230.038L87.261,229.758L82.754,223.825L80.555,221.763L80.327,221.25L77.914,218.984L77.347,218.707L77.342,218.374L77.466,218.046L77.542,217.902L77.723,217.108L77.742,216.906L77.649,216.506L77.521,216.216L75.172,212.673L74.729,210.654L73.82,208.406L70.824,204.442L68.999,201.37L67.866,199.966L67.124,199.042L64.511,194.334L63.3,192.677L62.926,191.52L62.507,191.082L61.715,190.45L61.127,189.368L60.822,188.329L60.515,185.748L59.718,182.963L57.181,177.986L56.489,175.241L56.329,173.916L55.73,171.381L54.697,168.758L54.021,167.668L52.845,167.305L51.572,166.422L50.591,164.717L49.657,160.859L47.386,156.482L47.115,155.576L45.873,153.913L43.724,149.961L43.474,149.246L43.155,148.789L42.41,147.234L42.168,146.898L40.861,144.566L40.466,143.58L40.319,142.984L40.133,141.567L39.8,140.896L38.862,139.663L38.263,138.577L36.849,135.01L36.245,134.055L35.359,133.005L34.303,132.185L34.012,131.772L33.67,129.543L33.417,128.894L28.646,122.503L25.367,120.351L23.934,118.711L23.756,118.548L23.242,117.823L22.937,117.659L22.656,117.464L21.19,116.569L20.724,114.952L20.622,114.385L20.243,113.429L20.205,113.071L20.215,112.76L20.186,112.459L20.243,112.148L19.558,111.158L18.425,108.15L18.244,107.942L15.844,105.413L15.393,104.024L15.185,102.215L14.657,100.749L14.319,99.659L13.942,96.695L13.267,94.446L12.817,91.3L12.48,89.728L12.267,88.72L12,87.077L12.119,84.672L13.097,78.508L13.418,78.079L13.42,78.081L13.81,78.147L14.318,78.419L14.632,78.483L15.064,78.438L15.212,78.306L15.276,78.103L15.448,77.856L15.986,77.489L17.186,76.913L18.564,75.869L19.761,75.3L21.103,74.904L22.457,74.721L22.662,74.67L22.834,74.604L23.043,74.62L23.345,74.816L24.349,75.12L24.681,75.047L24.838,74.908L24.98,74.822L25.249,74.911L25.437,75.082L25.506,75.29L25.554,75.524L25.669,75.765L25.832,75.932L26.12,76.138L26.449,76.318L26.757,76.394L27.035,76.524L27.174,76.812L27.256,77.1L27.353,77.226L29.459,77.021L31.354,77.09L31.777,76.916L32.176,76.59L32.478,76.572L33.174,76.986L33.724,77.173L35.44,77.318L36.474,77.556L36.843,77.524L37.553,77.157L38.861,76.012L39.578,75.765L40.315,75.657L40.865,75.373L41.893,74.493L43.192,73.867L44.187,73.554L44.38,73.295L44.619,72.849L44.888,72.612L45.111,72.514L45.631,72.353L45.885,72.176L46.006,71.901L46.057,71.556L46.199,71.259L46.898,71.066L47.466,70.782L48.378,70.573L49.917,69.672L53.06,69.119L53.725,68.892L54.362,68.851L54.907,69.252L55.293,69.044L55.508,69.217L55.701,69.514L56.016,69.672L56.672,69.777L57.019,69.786L57.321,69.672L57.321,69.9L58.068,69.546L58.518,69.435L58.718,69.565L58.902,69.581L59.616,69.39L60.135,69.252L60.67,69.442L61.701,70.156L62.223,70.317L62.918,70.402L63.529,70.661L63.964,71.082L64.348,72.289L64.771,72.7L65.025,73.2L64.744,74.076L67.234,75.467L69.797,77.587L72.612,79.163L75.36,80.708L75.725,81.031L77.067,82.842L77.493,83.178L78.173,83.314L78.536,83.245L79.001,82.944L79.264,82.874L79.594,82.912L80.129,83.083L80.763,83.162L81.238,83.314L81.585,83.314L81.906,83.219L82.365,82.947L82.565,82.874L83.858,83.089L84.505,82.988L84.78,82.38L84.807,82.225L85.14,82.228L85.149,82.228L87.146,82.228L94.648,82.231L102.152,82.234L109.656,82.234L117.157,82.238L124.333,82.241L124.658,82.241L132.16,82.244L139.664,82.244L147.162,82.244L154.663,82.247L162.164,82.247L169.669,82.25L174.625,82.252L177.173,82.253L184.674,82.253L192.175,82.257L195.724,82.258L199.677,82.26L207.181,82.263L208.743,82.263L208.973,82.282L209.015,82.469L209.121,82.754L209.312,82.874L209.502,83.029L209.982,84.189L210.034,84.506L210.118,84.569L210.817,84.778L211.82,86.74L211.914,87.079L212.304,87.291L213.83,88.566L213.923,88.791L214.072,89.333L214.229,89.612L214.507,89.891L215.048,90.157L215.329,90.354L217.006,92.127L217.589,92.908L217.991,93.257L219.128,93.53L221.736,94.841L225.553,95.548L228.025,95.421L229.026,95.025L229.654,94.891L229.984,94.901L230.854,95.082L232.163,94.987L232.625,95.291L237.27,96.688L242.287,96.622L243.952,96.244L244.62,96.174L245.222,96.329L245.485,96.882L245.751,97.104L246.358,97.384L247.035,97.6L247.498,97.638L247.643,97.476L247.984,96.904L248.169,96.777L252.79,96.777L253.887,97.406L254.911,97.768L255.195,97.809L256.9,97.638L257.701,97.65L258.081,97.59L258.496,97.406L258.713,97.638L259.142,97.263L259.84,97.079L260.623,97.117L261.312,97.406L262.328,96.548L262.642,96.755L263.047,96.729L264.023,96.548L264.362,96.672L265.504,97.638L266.26,97.447L266.988,97.765L267.647,98.355L268.215,98.991L268.508,99.229L269.515,99.734L270.361,100.366L270.73,100.554L271.467,100.357L272.618,100.3L273.676,100.401L274.142,100.659L274.359,100.916L274.843,101.126L275.32,101.208L275.538,101.081L275.759,100.808L276.254,100.945L277.137,101.396L277.768,101.974L278.521,101.911L279.388,101.587L280.349,101.396L280.754,100.582L283.039,99.956L283.456,99.842L286.158,99.105L286.636,99.318L287.122,99.197L287.621,98.972L288.153,98.876L288.576,98.956L289.77,98.876L290.241,98.994L291.568,99.734L293.233,100.331L294.104,100.764L294.581,101.396L294.747,101.453L295.294,101.294L297.401,100.888L304.739,99.467L312.077,98.051L319.418,96.631L326.756,95.212L332.728,94.028L338.697,92.838L344.666,91.651L350.635,90.468L353.08,89.986L354.27,89.751L355.295,89.545L355.845,89.533L356.716,89.352L357.967,89.092L359.224,88.832L360.475,88.572L361.723,88.315L362.975,88.055L364.226,87.795L365.477,87.538L366.731,87.278L367.985,87.019L369.237,86.762L370.488,86.502L371.736,86.242L372.99,85.985L374.242,85.725L375.493,85.466L376.744,85.206L377.608,85.028L378.143,84.987L378.687,85.07L380.235,85.123L380.558,85.31L380.794,85.199L382.018,84.851L382.535,84.778L383.063,84.876L384.3,85.323L385.176,85.488L385.729,85.763L386.473,85.897L386.708,86.068L386.89,86.28L387.143,86.47L387.609,86.645L387.866,86.683L388.144,86.664L388.452,86.527L388.896,86.122L389.217,85.938L389.374,85.729L389.576,85.519L389.86,85.424L391.175,85.424L393.672,85.824L393.826,85.89L393.971,86.033L394.17,86.175L394.478,86.242L395.418,86.201L397.428,86.61L398.208,86.974L398.58,87.519L399.175,87.244L399.526,87.496L399.559,87.519L399.894,88.004L400.36,88.356L400.638,88.372L401.185,88.195L401.484,88.147L401.59,88.249L401.393,88.772L401.393,88.984L401.575,89.219L401.729,89.336L401.94,89.38L402.282,89.384L402.364,89.501L402.895,89.98L402.992,90.034L403.237,90.938L403.291,91.08L403.56,91.144L403.769,91.309L403.914,91.518L403.989,91.728L404.246,91.379L404.455,91.366L404.887,91.823L404.978,91.997L404.945,92.387L404.99,92.565L405.117,92.695L405.446,92.87L405.603,92.984L405.981,93.492L406.199,93.587L406.694,93.612L407.096,93.711L407.492,93.952L407.816,94.295L408,94.682L406.081,94.32L404.905,94.304L403.938,95.279L402.974,95.685L402.07,95.713L401.792,95.082L400.979,95.593L400.611,95.653L400.36,95.291L399.915,95.491L399.677,95.364L399.486,95.098L399.178,94.891L399.359,94.453L399.039,94.507L398.9,94.656L398.8,94.863L398.58,95.082L398.389,95.187L396.234,95.894L395.669,95.939L395.165,96.069L394.478,96.647L393.88,96.777L393.699,96.876L393.517,97.311L393.27,97.406L393.001,97.45L392.747,97.555L392.529,97.685L392.372,97.809L391.586,98.822L390.58,99.467L390.145,99.864L388.667,101.647L388.561,101.711L388.467,101.882L388.056,102.375L387.962,102.559L387.666,102.632L386.321,102.772L385.947,102.864L384.949,101.93L384.898,101.453L384.762,101.275L384.569,101.186L384.351,100.976L383.849,100.001L383.49,99.671L382.843,99.544L381.842,99.496L381.413,99.658L380.936,100.134L380.105,101.606L379.83,101.815L379.567,101.761L379.059,101.494L378.742,101.396L378.128,101.313L377.545,101.396L376.514,101.914L375.112,103.637L374.133,104.355L373.066,104.553L372.827,104.67L371.984,105.494L371.754,105.672L370.92,106.035L370.566,106.295L370.427,106.455L370.319,106.664L370.189,106.566L370.05,106.48L369.892,106.442L369.723,106.474L368.705,107.199L368.614,108.262L368.149,108.707L367.287,109.299L366.928,109.627L366.402,110.42L366.06,110.767L365.601,110.91L362.851,113.91L362.415,114.184L361.808,114.292L361.116,115.117L360.922,115.276L360.793,115.356L359.753,115.716L359.236,115.732L358.855,115.413L358.626,114.123L358.163,112.801L357.903,112.381L358.317,111.734L358.045,111.088L357.09,110.047L357.338,109.554L357.175,109.261L356.87,109.019L356.706,108.682L356.586,108.316L356.286,108.182L355.89,108.112L355.491,107.947L355.334,107.705L354.911,107.183L354.476,106.808L354.168,107.113L353.917,107.081L353.654,106.986L353.494,106.897L353.454,106.738L353.509,106.219L353.494,106.035L353.315,105.723L352.433,104.673L352.098,103.914L351.762,103.449L351.68,103.284L351.644,103.071L351.68,102.34L351.587,102.238L351.372,102.213L351.158,102.149L351.064,101.93L351.067,101.517L351.028,101.31L350.858,101.177L350.481,100.976L349.374,100.929L347.353,101.104L344.832,101.323L341.375,101.625L338.821,102.121L336.355,102.604L333.885,103.084L331.419,103.567L328.95,104.047L326.484,104.53L324.018,105.014L321.552,105.494L319.082,105.977L316.613,106.461L314.147,106.941L311.684,107.425L309.212,107.905L306.746,108.389L304.277,108.873L301.813,109.353L299.344,109.834L298.846,109.932L298.344,110.031L297.848,110.13L297.347,110.225L296.793,110.248L296.24,110.273L294.865,110.33L293.493,110.388L292.115,110.445L290.743,110.502L289.093,110.572L287.44,110.639L285.792,110.709L284.142,110.776L283.243,110.814L282.707,110.837L282.707,111.712L282.707,112.97L282.707,114.225L282.707,115.483L282.707,116.745L282.707,118.008L282.707,119.264L282.707,120.524L282.707,121.783L282.707,123.044L282.707,124.304L282.707,125.565L282.707,126.826L282.707,128.085L282.707,129.347L282.707,130.609L282.707,131.874L282.719,135.74L282.722,137.17L282.728,139.609L282.743,143.481L282.755,147.359L282.764,151.237L282.779,155.117L282.791,159.004L282.8,162.891L282.813,166.784L282.825,170.677L282.832,173.802L282.834,174.574L282.846,178.473L282.858,182.379L282.87,186.285L282.882,190.197L282.894,194.085L282.894,194.109L282.897,195.916L282.906,197.723L282.912,199.528L282.915,201.334L282.921,203.143L282.927,204.95L282.933,206.761L282.939,208.573L282.943,210.382L282.952,212.195L282.958,214.009L282.964,215.824L282.97,217.639L282.976,219.452L282.982,221.265L282.988,223.083L282.991,224.38L282.616,225.537L280.942,225.537L274.096,225.537L267.251,225.537L260.406,225.537L253.56,225.537L253.563,228.253L253.569,233.004L253.575,237.757L253.578,242.519L253.584,247.286L253.587,252.744L253.596,258.201L253.603,263.67L253.604,266.98L253.606,269.145L253.612,274.63L253.618,280.12L253.623,284.719L253.624,285.615L253.63,291.119L253.633,296.634L253.642,302.149L253.648,307.676L253.651,313.213L253.66,313.616L253.66,315.42L253.66,317.228L253.66,319.038L253.663,320.845L253.666,322.656L253.666,324.464L253.666,326.273L253.666,328.087L253.666,329.901L253.666,331.713L253.666,333.526L253.669,335.342L253.669,337.157L253.669,338.975L253.669,340.795L253.669,341.213L253.669,342.612L253.669,344.429L253.669,346.248L253.669,348.071L253.672,349.891L253.675,351.716L253.675,353.541L253.675,355.364L253.675,357.188L253.675,359.016L253.678,360.841L253.678,362.671L253.678,364.498L253.678,366.33L253.678,368.159L253.678,369.992L253.681,371.823L253.684,373.655L253.684,375.491L253.684,377.325L253.684,379.162L253.684,380.998L253.687,382.837L253.687,384.675L253.687,386.516L253.687,388.355L253.687,390.195L253.687,392.039L253.69,393.884L253.693,395.727L253.693,397.574L253.693,399.422L253.693,401.264L253.693,403.111L253.693,404.962L253.693,406.813L253.696,408.663L253.696,410.516L253.696,412.371L253.696,414.22L253.696,416.076L253.696,417.934L253.696,419.789L253.696,421.648L253.699,423.508L253.702,425.366L253.702,427.225L253.702,429.089L253.702,430.949L253.702,432.262L253.657,433.248L252.747,433.478L252.445,433.509L251.499,433.385L251.173,433.426L250.402,433.863L249.093,435.056L248.238,435.303L246.827,435.403L246.162,435.637L245.585,436.098L245.08,436.362L242.145,436.586L241.888,436.669L241.583,436.868L241.396,437.099L241.223,437.367L240.963,437.69L240.806,437.962L240.559,438.575L240.374,438.692L240.093,438.805L239.915,439.095L239.072,441.767L238.766,442.249L238.259,442.666L237.66,442.942L235.288,443.555L234.865,443.741L234.553,443.686L233.855,443.114L233.432,443.148L233.06,443.472L232.728,443.913L232.22,444.879L232.114,445.575L232.308,446.303L233.399,448.197L233.384,448.601L233.039,448.815L232.078,448.894L231.9,449.019L231.579,449.55L231.341,449.795L229.675,450.683L228.467,451.087L227.339,451.149L226.844,450.496L226.708,450.358L226.384,450.248L225.36,450.117L225.154,450.044L224.846,449.685L224.108,448.515L223.622,448.052L217.514,447.159L211.908,447.987L210.847,448.573L210.218,448.774L210.085,448.708L209.729,448.373L209.599,448.297L209.435,448.328L209.182,448.494L209.021,448.546L208.45,448.639L208.13,448.739L207.903,448.888L207.335,449.129L206.619,449.005L205.389,448.546L204.736,448.497L202.164,448.874L201.121,449.24L200.577,449.229L198.12,448.363L196.999,447.776L195.222,446.286L194.234,445.651L193.173,445.203L188.292,444.113L187.349,444.196L187.032,444.344L186.451,444.744L186.17,444.879L185.795,444.903L184.852,444.631L184.221,444.348L184.088,443.672L184.112,442.852L183.955,442.146L183.514,441.832L183.018,441.942L182.462,442.204L181.866,442.352L180.655,442.497L179.361,442.811L178.27,442.635L178.216,441.632L178.581,440.248L178.766,438.94L178.445,438.207L177.375,437.807L177.149,437.247L176.98,436.49L176.188,435.451L175.949,434.849L176.064,434.372L176.445,433.928L176.952,433.595L177.445,433.468L177.91,433.131L178.155,432.347L178.225,431.434L178.164,430.723L178.013,430.348L177.548,429.724L177.345,429.384L177.23,428.975L177.2,428.636L177.116,428.296L176.85,427.887L176.738,427.568L176.695,427.146L176.578,426.779L176.248,426.622L175.493,426.663L173.637,427.105L172.7,426.927L172.08,426.155L171.938,424.602L172.017,423.851L172.023,423.104L171.757,422.528L171.023,422.299L170.455,422.039L170.071,421.436L169.735,420.758L169.327,420.265L168.998,420.128L168.702,420.121L168.124,420.265L167.795,420.436L166.819,421.165L166.039,420.963L165.701,421.056L165.283,421.504L164.933,421.641L164.64,421.586L164.347,421.227L164.117,421.165L163.939,421.309L163.44,421.881L163.337,421.97L163.12,424.602L162.905,424.934L162.778,424.917L162.627,424.797L162.14,424.811L162.016,424.715L161.899,424.663L161.72,424.807L161.663,425.006L161.741,425.181L162.255,425.843L162.267,426.083L161.82,426.189L161.197,426.186L161.037,426.309L160.919,426.622L161.007,426.855L161.228,427.191L161.397,427.585L161.339,428.004L161.064,428.213L160.768,428.11L160.478,427.894L160.224,427.774L159.704,428.032L159.577,428.625L159.695,429.305L159.904,429.816L160.526,430.771L160.732,431.379L160.421,431.65L159.991,431.939L159.84,432.602L159.804,433.361L159.723,433.921L159.402,434.488L158.876,435.197L158.293,435.699L157.806,435.647L157.686,435.338L157.601,434.915L157.471,434.537L157.211,434.375L156.909,434.492L154.694,436.703L153.575,437.064L152.768,437.484L152.004,438.007Z"/>
</svg>
