<svg xmlns="http://www.w3.org/2000/svg" viewBox="0 0 420 520" aria-label="Map of Niger">
  <path fill="currentColor" d="M98.21,415.586L98.034,415.439L97.801,415.033L97.591,414.919L97.503,414.723L97.454,414.497L97.361,414.301L97.234,413.897L97.141,413.696L97.03,413.592L96.89,413.507L96.722,413.358L95.883,412.154L95.682,411.961L95.402,411.765L94.486,411.437L93.363,410.739L93.084,410.648L92.815,410.489L92.52,410.431L92.168,410.643L91.831,410.8L91.485,410.71L91.177,410.501L90.965,410.302L90.607,409.885L90.036,408.916L89.852,408.45L89.728,407.87L89.666,407.323L89.588,407.186L89.249,406.928L89.171,406.792L84.866,402.842L83.851,401.338L83.606,400.861L83.512,400.728L83.303,400.661L82.472,400.567L82.177,400.458L81.9,400.313L81.696,400.099L81.536,399.523L81.342,399.208L81.091,398.933L80.581,398.658L79.38,397.577L79.083,397.967L78.488,397.988L78.231,398.039L77.724,398.021L77.484,398.069L77.207,398.251L76.806,398.733L76.575,398.921L76.314,398.986L76.05,398.808L75.778,398.914L75.644,399.064L75.571,399.249L75.522,399.45L75.439,399.649L75.09,400.205L74.862,400.337L73.98,400.1L73.807,400.133L73.507,400.357L73.354,400.432L73.23,400.419L73.015,400.292L72.917,400.274L72.027,400.517L71.913,400.591L71.685,400.811L71.543,400.897L71.354,400.91L71.276,400.795L71.237,400.655L71.167,400.597L70.872,400.586L70.637,400.55L70.461,400.623L70.345,400.94L70.202,401.207L70.076,401.165L69.933,401.016L69.747,400.973L69.618,401.068L69.411,401.355L69.351,401.421L69.03,401.453L68.456,401.429L68.112,401.473L67.506,401.754L67.286,402.199L67.307,402.781L67.553,404.208L68.396,406.608L68.536,406.862L68.714,407.069L68.973,407.282L69.24,407.404L69.478,407.461L69.641,407.581L69.693,407.9L69.677,408.339L69.493,408.379L69.232,408.282L68.981,408.306L68.808,408.49L68.611,408.86L68.443,409.052L68.225,409.114L67.99,409.081L67.778,409.137L67.635,409.466L67.669,409.746L67.962,410.189L68.011,410.451L66.707,409.336L64.722,406.555L62.962,404.079L61.092,401.453L60.018,399.944L59.539,399.046L59.599,398.303L59.976,397.985L61.42,397.683L61.534,397.596L61.715,397.344L61.873,397.257L61.948,397.282L62.217,397.413L62.344,397.435L63.832,397.308L64.199,397.213L64.375,396.939L64.326,396.374L64.329,396.246L64.409,395.977L64.409,395.868L64.308,395.675L63.99,395.323L63.847,395.126L63.643,394.728L63.521,394.402L63.33,392.857L63.25,392.534L63.081,392.186L62.856,391.9L62.398,391.615L62.134,391.403L61.868,391.127L61.772,390.989L61.627,390.489L60.973,389.719L59.969,389.445L57.534,389.241L57.304,389.372L56.879,389.842L56.602,390.029L56.406,389.992L56.23,389.906L56.025,389.949L55.914,390.073L55.743,390.416L55.319,391.045L55.055,391.551L54.755,391.991L54.33,392.272L53.888,392.321L50.718,392.047L48.154,391.822L47.323,391.604L46.622,391.21L44.902,389.75L43.522,388.583L41.483,386.855L40.838,386.308L38.984,384.735L37.486,383.464L36.06,382.256L35.304,381.877L33.514,381.726L32.795,381.328L32.572,380.918L32.5,380.43L32.497,379.955L32.489,378.319L32.476,375.899L32.466,373.717L32.795,372.686L33.325,372.778L35.328,373.583L36.673,373.922L37.23,374.156L37.403,374.101L37.654,373.222L37.773,372.936L37.905,372.797L38.358,372.931L38.767,373.299L39.253,373.532L39.934,373.261L39.455,372.721L39.072,372.45L38.65,372.343L37.589,372.21L37.142,372.063L34.414,370.794L33.589,370.183L33.121,369.401L32.991,368.241L31.98,367.157L30.626,366.339L29.47,365.987L28.528,366.079L28.083,366.055L27.591,365.815L27.291,365.528L27.27,365.357L27.356,365.251L27.374,365.156L27.353,364.999L27.358,364.789L27.286,364.611L27.032,364.557L23.71,364.664L23.05,364.434L22.703,363.792L22.812,363.4L23.055,362.863L23.205,362.376L23.034,362.135L22.553,361.956L22.271,361.653L22.015,361.311L21.171,360.754L20.791,360.401L20.687,360.255L20.488,359.976L20.276,359.499L20.08,359.277L19.557,358.931L19.403,358.744L19.389,358.473L19.594,358.008L19.605,357.783L19.335,357.481L18.896,357.251L18.482,356.969L18.284,356.513L18.232,356.056L17.969,355.829L17.643,355.669L17.413,355.404L17.411,355.177L17.617,354.762L17.646,354.594L17.54,354.376L17.403,354.24L17.246,354.119L17.09,353.942L16.773,353.461L16.662,353.166L16.77,352.862L17.369,351.926L17.488,351.62L17.62,350.821L17.713,350.586L17.95,350.277L17.976,350.063L17.905,349.916L16.843,348.47L13.238,345.163L12.894,344.848L12.147,343.597L12,342.289L13.672,337.514L13.506,336.727L12.78,335.227L12.822,334.485L13.128,334.081L13.475,333.796L13.7,333.449L13.64,332.859L13.498,331.57L13.509,330.93L13.71,330.658L17.013,331.5L17.861,331.505L18.656,331.333L20.276,330.757L21.06,330.719L24.947,332.114L25.291,332.084L25.982,331.914L26.696,331.632L27.428,331.354L31.258,331.227L31.938,331.082L32.549,330.779L34.647,328.812L36.288,327.277L38.293,325.397L39.988,323.812L40.663,323.401L41.507,323.196L43.352,323.13L45.768,323.047L48.188,322.963L50.604,322.882L53.021,322.797L55.441,322.714L57.857,322.631L60.279,322.548L62.696,322.464L65.115,322.382L67.532,322.298L69.951,322.215L72.368,322.133L74.79,322.049L77.207,321.964L79.626,321.883L82.043,321.799L83.282,321.756L83.422,321.413L83.425,320.453L83.474,319.976L83.536,319.716L83.717,319.582L84.118,319.488L85.106,319.468L88.092,319.98L92.802,320.79L95.379,321.232L95.516,321.277L95.974,321.37L96.209,318.378L96.46,317.682L98.652,316.337L100.608,314.161L101.527,313.656L103.517,313.274L104.461,312.761L105.09,311.994L105.156,311.836L105.473,311.076L105.672,310.073L105.897,307.531L106.058,307.051L106.438,306.456L107.895,304.988L107.918,304.913L107.933,304.836L107.928,304.677L107.931,304.64L107.926,304.603L107.913,304.568L107.895,304.536L107.584,303.767L107.486,303.047L107.592,302.328L109.83,296.795L110.208,296.202L110.687,295.687L111.274,295.23L112.363,294.665L112.718,294.335L112.92,293.724L112.907,290.839L112.896,288.589L112.878,285.093L112.87,283.441L112.935,283.209L113.261,282.686L113.372,282.414L113.235,279.844L113.266,279.37L113.414,278.91L113.613,278.825L113.88,278.812L114.213,278.568L114.206,275.82L114.198,274.167L114.19,270.927L114.18,267.683L114.167,264.439L114.156,261.191L114.149,257.941L114.138,254.688L114.133,252.86L114.128,251.433L114.12,248.176L114.11,244.918L114.1,241.658L114.089,238.393L114.079,235.188L114.079,235.128L114.068,231.86L114.058,228.589L114.048,225.316L114.037,222.04L118.76,221.081L123.482,220.122L128.204,219.163L132.929,218.203L135.423,217.698L140.906,216.584L146.389,215.472L148.884,214.965L152.11,214.309L153.236,213.882L154.32,213.116L156.292,211.32L157.87,209.878L159.451,208.437L161.029,206.994L162.608,205.552L164.186,204.109L165.764,202.666L167.343,201.222L168.924,199.777L170.497,198.332L172.078,196.886L173.656,195.441L175.233,193.994L176.814,192.547L178.39,191.101L179.969,189.653L181.547,188.204L182.991,186.879L183.935,186.028L185.876,184.336L187.664,182.778L189.452,181.221L191.24,179.661L193.025,178.103L195.507,175.935L198.788,173.868L200.493,172.792L202.193,171.716L203.898,170.64L205.603,169.562L207.303,168.485L209.008,167.408L210.714,166.331L212.414,165.253L214.119,164.175L215.824,163.097L217.526,162.019L219.229,160.941L220.934,159.861L222.637,158.783L224.342,157.703L226.045,156.622L227.75,155.54L229.452,154.46L231.157,153.378L232.863,152.299L234.565,151.216L236.268,150.135L237.973,149.052L239.676,147.971L241.378,146.888L243.083,145.805L244.786,144.722L246.489,143.638L248.194,142.553L249.896,141.469L251.601,140.385L253.304,139.299L255.007,138.214L256.712,137.129L258.414,136.044L260.117,134.957L261.822,133.871L263.525,132.784L265.227,131.698L266.932,130.608L268.638,129.521L270.338,128.433L272.043,127.344L273.745,126.257L275.448,125.168L277.153,124.078L278.858,122.988L280.561,121.9L282.266,120.809L283.971,119.718L285.676,118.628L287.376,117.536L289.082,116.443L290.787,115.352L292.487,114.26L294.192,113.166L295.897,112.074L297.597,110.982L299.302,109.888L301.007,108.794L302.71,107.7L304.413,106.606L306.118,105.511L307.82,104.414L310.028,104.953L312.237,105.49L314.45,106.027L316.657,106.563L318.864,107.102L321.076,107.638L323.283,108.174L325.491,108.711L327.703,109.248L329.91,109.785L332.12,110.321L334.327,110.858L336.537,111.395L338.746,111.932L340.956,112.467L343.166,113.004L345.709,113.622L348.646,115.274L350.054,116.537L353.186,119.338L356.32,122.138L359.448,124.933L362.581,127.728L363.72,128.746L364.085,128.934L364.473,128.889L366.054,128.024L370.339,125.681L374.621,123.336L378.901,120.99L383.186,118.64L383.188,118.638L383.204,118.63L383.507,120.331L383.807,122.034L384.104,123.736L384.407,125.436L384.707,127.136L385.007,128.837L385.31,130.537L385.608,132.233L385.91,133.931L386.211,135.627L386.513,137.324L386.813,139.018L387.114,140.712L387.416,142.406L387.621,143.554L387.825,144.701L388.014,145.79L388.024,146.323L388.045,147.729L388.079,149.716L388.115,151.994L388.151,154.269L388.185,156.254L388.208,157.657L388.216,158.188L388.224,158.893L388.327,159.326L388.72,159.722L389.903,160.346L390.382,160.685L391.243,161.743L391.838,162.674L392.255,163.333L392.677,163.99L393.096,164.649L393.515,165.307L393.934,165.965L394.356,166.621L394.773,167.282L395.194,167.938L395.614,168.596L396.03,169.253L396.452,169.911L396.871,170.568L397.29,171.225L397.709,171.882L398.131,172.538L398.548,173.196L398.962,173.843L397.953,174.426L397.334,175.46L397.127,176.7L397.332,177.907L397.629,178.585L397.984,179.167L398.431,179.679L400.468,181.31L401.164,182.085L402.623,183.714L404.083,185.343L405.539,186.97L406.999,188.596L407.591,189.257L407.946,189.838L408,190.278L407.816,190.735L407.304,191.676L406.3,193.518L405.296,195.358L404.295,197.197L403.293,199.035L402.916,199.727L402.134,201.818L402.044,202.928L401.943,204.141L401.842,205.357L401.738,206.569L401.637,207.784L401.536,208.995L401.435,210.208L401.335,211.419L401.234,212.632L401.133,213.844L401.034,215.054L400.931,216.265L400.83,217.475L400.729,218.686L400.628,219.895L400.527,221.105L400.426,222.315L400.325,223.522L400.225,224.732L400.124,225.939L400.02,227.148L399.919,228.354L399.818,229.562L399.72,230.767L399.619,231.975L399.518,233.181L399.417,234.387L399.316,235.592L399.215,236.797L399.112,238.003L399.011,239.206L398.91,240.411L398.809,241.614L398.708,242.818L398.607,244.022L398.506,245.225L398.408,246.427L398.307,247.629L398.204,248.831L398.103,250.033L398.002,251.233L397.92,252.208L397.901,252.435L397.8,253.636L397.699,254.836L397.598,256.035L397.497,257.237L397.396,258.435L397.293,259.635L397.192,260.834L397.094,262.034L396.993,263.232L396.892,264.431L396.791,265.627L396.69,266.826L396.589,268.022L396.488,269.219L396.385,270.414L396.284,271.612L396.183,272.808L396.082,274.004L395.981,275.198L395.88,276.394L395.782,277.588L395.681,278.782L395.577,279.976L395.523,280.639L395.437,280.949L395.363,281.216L395.034,281.699L394.183,282.624L392.78,284.147L391.375,285.675L389.97,287.198L388.565,288.723L387.16,290.245L385.755,291.77L384.353,293.293L382.948,294.815L381.543,296.337L380.138,297.857L378.735,299.38L377.333,300.901L375.928,302.421L374.523,303.94L373.115,305.462L371.71,306.978L370.742,308.027L369.275,309.613L367.909,311.088L367.195,312.1L366.45,313.16L365.699,314.218L364.954,315.279L364.209,316.337L363.458,317.394L362.713,318.453L361.965,319.511L361.218,320.568L360.47,321.624L359.725,322.682L358.977,323.739L358.229,324.795L357.484,325.853L356.734,326.909L355.988,327.967L355.241,329.021L354.513,330.044L353.867,331.444L353.049,333.21L352.676,334.015L352.542,334.511L352.511,335.062L352.612,335.59L352.964,336.695L352.995,337.222L352.772,337.829L352.392,338.031L351.913,338.073L351.411,338.19L351.161,338.381L350.362,339.283L349.868,339.631L349.777,339.765L349.816,339.9L350.085,340.143L350.168,340.296L350.328,341.285L350.3,341.767L350.106,342.236L349.265,342.946L348.859,343.024L348.266,343.139L347.252,343.223L346.349,343.601L345.709,343.921L344.889,345.073L344.881,346.596L345.36,348.39L345.709,349.705L345.971,350.891L346.147,351.715L346.328,352.537L346.509,353.36L346.687,354.181L346.866,355.005L347.047,355.825L347.226,356.648L347.404,357.47L347.585,358.291L347.764,359.115L347.942,359.935L348.121,360.757L348.302,361.577L348.481,362.399L348.662,363.22L348.84,364.042L342.648,363.776L342.622,363.781L341.895,363.905L341.665,364.089L341.678,364.531L341.298,364.801L340.299,365.744L340.126,365.978L339.991,366.237L339.983,366.341L340.11,366.523L340.146,366.669L340.076,366.872L339.916,366.91L339.74,366.898L339.631,366.941L339.398,367.297L339.45,367.422L339.805,367.469L339.347,368.062L338.741,368.285L338.066,368.412L337.396,368.716L337.484,368.509L337.538,368.249L337.484,368.044L337.24,367.996L337.101,368.101L336.914,368.531L336.728,368.716L336.736,368.438L336.728,368.348L336.317,368.487L335.846,368.511L335.564,368.406L335.701,368.156L335.701,367.996L335.01,368.054L334.368,368.29L332.117,369.426L331.426,369.559L330.728,369.402L330.624,369.822L330.396,369.843L330.076,369.688L329.688,369.579L329.688,369.771L329.895,369.83L330.07,369.934L330.228,370.09L330.386,370.297L330.058,370.57L329.361,371.351L329.343,371.424L329.38,371.632L329.361,371.703L329.286,371.718L329.069,371.686L329.004,371.703L328.896,371.763L328.562,371.882L328.492,371.975L328.59,372.278L328.748,372.469L328.759,372.569L328.407,372.598L328.352,372.505L328.21,372.328L328.063,372.216L327.993,372.319L327.959,372.331L327.791,372.757L327.147,373.551L326.735,373.873L326.168,374.003L325.876,374.138L325.703,374.731L325.483,374.865L325.102,374.791L324.854,374.611L324.639,374.385L324.373,374.18L324.342,374.596L324.293,374.748L324.127,374.924L323.954,375.051L323.775,375.109L323.69,374.961L323.56,375.051L322.647,375.919L322.574,376.336L322.248,376.807L322.078,377.189L322.476,377.339L322.318,377.907L322.184,378.181L321.982,378.409L321.793,378.468L321.226,378.571L321.112,378.665L320.898,380.036L320.784,380.34L320.435,380.511L320.026,380.427L319.547,380.258L318.973,380.165L318.282,380.14L317.402,380.109L316.993,379.989L316.755,380.134L316.571,380.005L316.385,379.779L316.137,379.638L315.899,379.671L315.743,379.795L315.632,379.927L315.539,379.989L315.34,379.953L315.296,379.856L315.285,379.714L315.19,379.542L314.905,379.384L313.642,378.936L313.226,379.022L312.7,379.385L312.346,379.446L311.515,379.516L310.043,379.158L309.551,378.912L308.397,377.993L304.915,375.851L302.149,374.718L294.58,372.789L282.388,372.854L277.839,372.319L275.427,372.514L274.749,372.661L262.573,375.29L261.527,375.73L256.779,378.408L256.337,378.839L256.231,379.107L256.135,379.735L256.018,379.993L255.819,380.2L255.718,380.219L255.591,380.2L255.325,380.295L254.844,380.606L254.005,381.409L249.707,386.512L249.534,386.718L249.247,386.968L248.975,387.148L248.802,387.221L248.271,387.261L242.954,386.634L242.501,386.665L241.166,387.044L240.237,387.045L232.939,386.187L232.061,386.084L225.465,384.123L224.546,383.589L224.117,383.064L223.398,381.866L222.908,381.326L221.814,380.499L221.216,380.208L220.541,380.064L220.243,380.061L219.622,380.137L219.335,380.23L219.05,380.374L218.947,380.445L218.851,380.436L218.6,380.339L218.417,380.222L215.917,377.928L215.293,377.176L214.962,376.884L214.634,376.728L214.608,376.716L213.865,376.514L213.5,376.34L212.654,375.672L211.963,375.241L211.376,374.677L211.089,374.455L210.398,374.189L204.051,373.281L203.192,373.366L202.338,373.748L193.235,379.267L192.451,379.522L191.553,379.516L188.942,379.035L188.383,379.142L186.862,380.946L185.677,381.995L185.141,382.26L184.997,382.284L184.546,382.36L182.683,382.369L181.847,382.277L181.084,381.983L180.271,381.376L179.363,380.528L177.881,378.811L177.259,377.664L175.223,373.902L171.136,369.401L167.622,366.047L165.951,365.079L165.501,364.981L164.14,364.684L163.658,364.785L162.212,365.602L161.95,365.672L161.785,365.599L161.627,365.46L161.399,365.331L154.313,362.505L147.228,359.677L146.412,359.5L142.715,360.146L142.019,360.499L141.732,360.882L141.312,361.83L140.966,362.242L140.197,362.794L139.91,362.917L139.048,363.082L135.462,362.923L132.929,363.383L131.475,363.295L130.905,363.04L130.341,362.498L129.767,362.238L128.965,362.324L123.983,363.551L121,364.285L119.645,364.824L118.472,365.662L114.534,369.45L113.836,369.798L113.083,369.942L111.463,369.995L111.411,376.155L111.326,376.746L110.537,382.256L106.539,388.57L104.919,390.128L99.444,394.262L99.34,394.532L99.589,400.914L98.913,404.279L98.9,405.391L99.524,407.265L99.64,408.141L99.216,408.991L98.789,409.434L98.512,409.801L98.398,410.22L98.543,411.673L98.624,411.924L98.766,412.195L98.851,412.281L98.957,412.344L99.545,412.976L99.853,413.445L99.977,413.951L99.798,414.504L99.496,414.813Z"/>
</svg>
