<svg xmlns="http://www.w3.org/2000/svg" viewBox="0 0 420 520" aria-label="Map of Nigeria">
  <path fill="currentColor" d="M42.538,173.177L44.234,172.158L44.633,171.75L44.868,171.022L44.704,170.355L44.298,169.737L43.524,168.904L43.384,168.82L43.272,168.707L43.084,168.35L42.978,168.019L42.787,166.103L42.937,165.551L43.302,165.068L43.865,164.484L44.425,163.363L44.271,162.209L43.449,159.737L43.466,158.272L44.356,153.837L44.029,145.423L44.165,145.067L51.383,139.618L53.518,137.564L58.788,129.241L59.83,121.976L59.941,121.197L60.009,113.077L62.145,113.008L63.137,112.818L64.058,112.359L69.25,107.365L70.795,106.26L72.582,105.55L76.513,104.583L83.081,102.966L84.139,102.852L84.896,103.194L85.639,103.909L86.39,104.245L88.307,104.361L91.646,103.754L96.374,103.965L97.51,103.747L97.888,103.585L98.901,102.857L99.358,102.313L99.911,101.064L100.29,100.559L101.207,100.093L106.081,99.242L107.156,99.476L116.497,103.203L125.838,106.929L126.138,107.099L126.346,107.283L126.564,107.379L126.909,107.286L128.816,106.209L129.45,106.076L131.245,106.468L131.838,106.597L134.041,107.873L138.673,112.294L144.061,118.227L146.745,123.187L147.564,124.699L149.518,126.962L150.716,128.08L151.787,128.881L152.793,129.269L153.895,129.389L156.351,129.377L156.945,129.278L157.135,129.246L157.841,128.897L159.403,127.513L161.409,125.136L162.146,124.994L165.587,125.629L166.771,125.636L167.805,125.301L179.804,118.025L180.93,117.522L182.062,117.41L190.43,118.606L191.34,118.957L191.719,119.249L192.493,119.993L193.404,120.561L194.519,121.442L195,121.671L195.979,121.937L196.014,121.953L196.446,122.159L196.883,122.544L197.705,123.535L201,126.559L201.242,126.713L201.573,126.841L201.699,126.854L201.836,126.759L202.211,126.569L202.59,126.447L203.408,126.347L203.801,126.35L204.691,126.541L205.479,126.924L206.922,128.014L207.566,128.727L208.515,130.306L209.081,130.998L210.292,131.701L218.986,134.287L220.144,134.423L229.765,135.553L230.989,135.552L232.749,135.052L233.346,135.012L240.356,135.838L241.055,135.785L241.284,135.689L241.642,135.452L242.02,135.122L242.249,134.851L247.915,128.124L249.02,127.066L249.654,126.655L250.006,126.531L250.173,126.555L250.306,126.531L250.568,126.257L250.722,125.917L250.848,125.089L250.988,124.736L251.571,124.167L257.83,120.638L259.208,120.058L275.26,116.591L276.154,116.398L279.333,116.14L285.33,116.846L301.402,116.76L311.379,119.303L315.025,120.797L319.617,123.621L321.138,124.832L321.786,125.157L323.727,125.629L324.822,125.536L325.289,125.455L325.982,124.977L326.531,124.864L328.195,125.454L328.57,125.662L328.697,125.889L328.71,126.076L328.768,126.204L329.031,126.251L329.154,126.171L329.3,125.996L329.505,125.833L329.819,125.789L330.146,125.975L330.392,126.272L330.634,126.443L330.948,126.251L331.487,126.41L332.647,126.451L333.557,126.483L334.315,126.606L334.946,126.829L335.484,126.939L335.945,126.714L336.095,126.314L336.378,124.506L336.528,124.383L337.275,124.246L337.524,124.169L337.79,123.869L337.968,123.507L338.176,122.758L337.65,122.561L337.876,122.058L338.305,121.437L338.401,120.886L339.605,119.742L339.775,119.624L339.888,119.819L340.123,119.742L340.352,119.575L340.57,119.344L340.635,119.143L340.676,118.594L341.027,118.864L341.31,119.162L341.638,119.4L342.139,119.498L342.429,119.321L342.658,118.539L343.043,118.36L343.79,118.19L344.333,117.765L345.182,116.718L345.404,116.156L345.448,116.14L345.54,116.005L345.734,116.153L345.922,116.386L345.994,116.509L346.458,116.47L346.444,116.339L346.236,116.087L346.106,115.687L346.198,115.565L346.638,115.408L346.782,115.329L346.867,115.306L347.153,115.348L347.252,115.329L347.276,115.236L347.228,114.961L347.252,114.865L348.17,113.835L348.603,113.475L348.395,113.203L348.187,112.997L347.955,112.86L347.682,112.782L347.682,112.529L348.194,112.672L348.617,112.877L348.917,112.849L349.053,112.296L349.974,112.503L350.885,112.327L353.853,110.83L354.698,110.518L355.609,110.442L355.609,110.653L355.428,110.983L355.8,111.122L356.421,111.089L356.963,110.906L356.974,111.025L356.963,111.391L357.209,111.148L357.455,110.58L357.639,110.442L357.959,110.505L358.031,110.776L357.959,111.118L357.843,111.391L358.727,110.99L359.617,110.823L360.415,110.53L361.019,109.747L360.552,109.686L360.483,109.521L360.79,109.051L360.934,108.994L361.166,109.011L361.377,108.961L361.469,108.693L361.421,108.5L361.254,108.26L361.265,108.123L361.442,107.782L361.671,107.474L362.987,106.23L363.489,105.875L363.471,105.291L363.775,105.049L364.732,104.886L364.768,104.88L372.93,105.23L380.481,115.857L388.032,126.471L389.888,135.486L391.743,144.491L391.788,147.102L391.838,147.265L392.009,147.822L391.999,148.47L391.801,149.504L391.825,149.898L392.125,150.412L392.562,150.679L393.07,150.787L399.855,150.995L401.966,151.513L402.866,151.995L402.972,152.339L402.802,152.836L402.866,153.149L403.102,153.386L404.081,154.126L404.442,154.282L404.442,154.533L404.316,154.584L403.992,154.763L404.64,155.231L405.305,155.587L405.827,156.021L406.042,156.723L406.23,156.878L406.659,156.725L407.117,156.484L407.393,156.377L407.785,156.587L407.945,156.908L408,157.267L407.362,157.92L407.28,158.131L407.117,158.333L406.919,158.726L406.349,161.147L406.424,161.501L405.834,161.891L405.899,162.538L406.523,163.994L406.581,164.362L406.588,164.602L406.465,165.734L406.09,166.799L405.384,170.231L405.138,170.798L403.927,172.407L403.774,172.703L403.822,172.998L404.122,173.405L404.255,173.456L404.818,173.449L405.063,173.598L405.2,173.816L405.316,174.057L405.49,174.281L406.028,174.826L406.397,175.401L406.588,176.078L406.601,176.931L406.479,177.635L406.226,178.47L405.882,179.277L405.486,179.893L404.92,180.199L403.214,180.822L402.522,181.244L401.311,182.337L400.619,182.747L398.664,183.363L398.043,183.712L395.103,186.444L394.844,186.552L393.954,186.66L393.551,186.833L392.644,187.781L392.054,188.215L391.351,188.582L390.618,188.77L389.935,188.669L387.623,187.679L386.323,187.302L385.307,187.305L384.038,188.333L382.796,189.601L381.705,190.998L380.913,192.409L380.347,193.746L379.952,194.268L378.696,195L378.164,195.458L377.799,196.036L377.653,196.725L377.871,198.001L377.634,198.533L377.455,198.934L371.576,207.384L370.669,209.318L369.43,213.517L368.305,219.85L367.568,221.934L367.558,222.37L367.783,223.053L367.838,223.442L367.766,223.89L367.241,225.021L366.855,225.522L366.153,226.061L365.846,226.243L365.375,226.523L364.761,226.793L362.172,227.077L361.07,227.502L360.483,228.644L360.494,229.314L360.889,230.409L361.019,231.052L360.883,231.847L360.105,233.077L359.852,233.757L359.907,234.514L360.245,235.051L361.203,236.052L361.565,236.806L361.483,237.342L361.172,237.894L360.852,238.695L360.425,240.952L360.262,243.12L359.337,245.494L357.188,246.354L354.593,246.756L352.307,247.757L351.864,248.109L350.909,249.346L350.544,249.713L350.271,249.902L348.334,250.825L348.115,250.985L347.883,251.592L348.04,251.703L348.978,251.851L349.299,252.527L349.565,253.53L349.534,254.854L349.408,255.471L349.203,256.048L347.679,258.799L347.017,260.391L346.979,261.74L347.218,262.959L346.475,269.255L346.106,270.687L345.393,271.674L344.953,271.862L344.544,271.856L344.124,271.78L343.654,271.761L343.279,271.946L343.04,272.339L342.75,273.283L342.265,274.357L341.679,275.004L338.299,276.795L337.79,276.917L337.303,276.823L336.238,276.332L335.809,276.208L335.208,276.278L334.795,276.494L334.413,276.764L333.892,276.992L333.434,277.035L332.964,276.959L332.056,276.665L332.326,277.148L333.1,279.04L333.192,279.513L333.213,280.437L332.926,280.744L331.934,281.438L331.685,281.778L331.473,282.182L331.211,282.566L330.818,282.848L330.122,282.946L328.854,282.732L328.134,283.032L327.377,284.115L327.121,285.554L327.203,287.072L327.728,289.766L327.697,290.429L327.597,290.714L327.445,291.146L326.097,293.07L325.91,293.88L325.913,295.174L326.094,296.454L326.323,297.272L326.411,297.823L326.224,298.307L324.975,299.618L321.697,304.196L320.51,306.363L320.285,307.046L320.183,307.779L320.237,308.481L320.708,310.434L320.579,311.112L320.166,311.49L319.647,311.852L318.767,313.17L316.7,315.196L314.759,317.098L312.713,320.156L312.044,320.787L311.454,321.232L311.192,321.528L311.383,321.722L312.167,321.871L312.631,322.267L314.272,324.651L315.558,326.057L315.967,326.891L315.667,327.645L315.35,327.776L315.07,327.697L314.773,327.559L314.405,327.525L313.954,327.664L313.576,327.893L312.174,329.17L311.683,329.488L311.587,329.787L311.529,330.106L311.338,330.367L311.113,330.448L310.598,330.469L310.23,330.556L309.892,330.522L309.735,330.563L309.602,330.72L309.483,331.154L309.36,331.328L307.45,332.536L305.42,334.405L304.823,335.248L304.639,336.139L304.854,336.636L305.58,337.459L305.741,338.056L305.656,338.957L305.441,339.842L304.486,342.081L303.704,343.17L302.807,343.673L301.504,343.803L300.635,344.509L300.14,345.633L299.939,347.01L299.731,347.767L299.086,348.371L298.24,348.79L297.425,348.984L297.063,348.964L296.347,348.787L295.985,348.754L295.863,348.826L295.511,349.141L295.313,349.227L295.075,349.193L294.706,348.959L294.529,348.9L293.556,349.002L291.514,349.217L290.627,349.093L290.084,348.591L289.436,347.01L288.88,344.444L288.775,343.147L288.829,341.828L288.727,340.244L288.092,338.909L286.967,338.021L283.89,337.456L282.836,336.398L282.174,334.946L281.871,333.432L281.332,332.106L280.251,331.371L277.539,330.347L275.23,329.118L274.36,328.829L273.763,328.353L273.586,326.717L272.975,325.933L272.498,326.87L272.088,328.078L271.809,329.329L271.614,331.876L271.474,331.986L271.287,332.031L271.079,332.187L270.673,332.733L270.403,333.183L270.267,333.704L270.246,334.451L261.746,334.573L260.835,334.302L260.143,333.761L259.798,333.113L259.324,330.666L259.055,330.127L258.594,330.029L257.82,330.47L249.74,337.342L248.965,337.668L248.324,337.479L247.683,337.164L246.898,337.108L246.281,337.807L243.778,345.762L243.746,345.861L243.334,346.189L242.155,346.196L241.754,346.199L240.775,346.397L240.284,346.81L239.513,348.276L238.992,348.789L238.32,349.126L236.999,349.618L236.802,349.691L235.83,350.3L234.83,352.236L233.909,352.795L233.387,352.826L232.971,352.79L232.582,352.829L232.129,353.079L231.678,353.593L230.737,355.587L229.894,356.771L225.368,360.431L222.322,363.606L222.322,363.611L221.616,364.636L221.2,365.083L220.671,365.357L220.494,365.583L220.422,366.527L220.303,366.96L219.72,367.032L219,366.772L218.29,366.671L217.728,367.214L217.284,367.778L216.118,368.562L215.766,369.108L215.828,369.78L216.182,370.307L216.472,370.885L216.326,371.718L215.746,372.431L215.163,372.863L214.91,373.34L215.343,374.179L216.008,374.825L216.745,375.396L217.366,376.049L217.704,376.934L217.557,377.734L217.056,378.381L216.435,378.977L215.94,379.622L215.736,380.34L215.783,380.989L215.899,381.629L215.916,382.329L215.698,383.071L214.989,384.473L214.777,385.275L214.815,385.712L215.087,386.513L215.122,386.866L214.238,391.368L213.999,391.796L213.655,391.953L213.266,392.021L212.898,392.189L212.567,392.542L211.926,393.525L211.721,393.968L211.233,395.414L210.926,396.068L210.435,396.756L210.435,396.761L209.139,398.815L208.937,399.415L208.037,400.081L207.747,400.589L207.853,401.294L207.952,401.752L208.074,402.227L207.512,402.775L207.481,402.776L207.494,402.769L207.424,402.613L207.201,402.458L206.903,402.387L206.637,402.515L206.291,402.804L205.995,403.144L205.866,403.405L205.802,403.696L205.509,404.333L205.42,404.669L205.447,404.997L205.662,405.475L205.646,405.78L205.356,406.3L204.977,406.46L204.534,406.392L204.043,406.23L203.895,406.27L203.575,406.299L203.35,406.208L203.492,405.893L203.632,405.675L203.788,405.324L203.857,404.998L203.718,404.855L203.422,404.931L202.783,405.252L202.353,405.327L201.376,404.961L201.317,404.05L201.642,402.87L201.795,401.71L201.591,401.71L201.37,402.839L200.642,403.422L199.7,403.37L198.84,402.591L198.948,402.465L199.087,402.141L198.83,402.077L198.169,401.71L198.319,401.263L198.048,400.893L197.154,400.219L196.364,399.777L196.326,399.748L196.138,399.2L195.768,398.487L195.531,398.192L195.123,398.071L194.761,397.913L194.36,397.557L194.033,397.176L193.866,396.941L193.662,396.941L193.662,397.145L195.47,398.855L195.913,399.427L196.772,401.007L196.901,401.777L196.364,402.141L196.579,402.595L196.912,403.122L197.288,403.562L197.605,403.744L197.935,404.033L198.432,405.456L198.84,406.006L198.727,406.214L198.464,406.953L198.416,407.259L198.548,407.734L198.867,407.919L199.24,408.033L199.539,408.287L199.635,409.059L199.128,409.523L198.483,409.911L198.169,410.446L197.718,411.452L197.395,411.608L197.081,411.666L195.644,411.665L193.764,411.452L190.939,411.452L189.563,411.25L188.927,411.27L187.828,411.845L187.189,411.925L185.736,411.925L180.099,412.581L179.787,412.395L179.368,412.345L178.976,412.476L178.726,412.829L179.081,412.813L179.387,412.845L179.642,412.926L179.854,413.055L179.143,413.242L178.074,413.298L177.107,413.144L176.68,412.705L176.22,412.584L173.298,412.377L173.408,412.239L173.47,412.131L173.561,412.034L173.747,411.925L173.328,411.796L172.941,411.853L172.667,411.832L172.603,411.452L172.715,411.258L172.941,411.11L173.169,410.916L173.298,410.568L173.202,410.405L172.603,409.644L172.699,409.516L172.847,409.191L172.347,408.619L172.46,407.777L173.054,406.23L172.847,406.23L172.476,406.505L172.288,406.642L172.047,406.933L171.945,407.259L172.02,407.75L172.122,408.114L172.119,408.445L171.845,408.841L171.837,409.047L172.288,409.589L172.396,409.868L172.288,409.951L171.741,410.568L171.434,410.809L171.056,411.021L170.682,411.059L170.365,410.773L170.14,410.773L169.855,411.456L169.138,411.382L167.994,410.773L167.169,410.729L166.31,410.557L165.579,410.211L165.166,409.644L164.964,409.768L164.739,409.838L164.142,409.868L164.038,409.97L163.997,410.202L163.885,410.438L163.57,410.568L163.57,410.773L163.788,410.908L164.021,411.02L163.817,411.228L164.242,411.382L164.803,411.832L165.706,412.018L165.867,412.244L165.818,412.538L165.617,412.829L164.142,413.055L163.981,412.88L163.24,411.802L161.153,409.52L160.863,408.841L160.863,407.938L160.772,407.626L160.557,407.624L160.089,407.852L159.37,407.859L159.262,407.814L158.988,407.51L158.392,407.022L158.14,406.685L157.597,405.179L157.237,404.669L157.194,404.993L157.028,405.314L156.856,405.537L156.77,405.572L156.861,405.909L157.036,405.967L157.253,405.995L157.463,406.23L157.793,407.374L158.099,407.859L158.704,408.061L159.727,408.58L160.468,409.709L160.589,410.803L159.735,411.228L160.159,411.53L160.662,412.01L160.96,412.586L160.75,413.168L159.84,414.189L159.276,414.44L158.591,414.164L158.575,414.677L158.591,414.843L157.978,414.561L157.527,414.195L157.328,413.704L157.463,413.055L157.022,413.448L156.936,414.002L157.116,414.591L157.463,415.089L156.566,415.315L156.319,415.315L155.921,414.544L155.722,413.715L155.636,412.029L155.099,411.126L154.941,410.571L155.311,410.323L155.456,410.051L155.626,409.434L155.717,408.749L155.636,408.287L155.808,408.368L156.114,408.425L156.319,408.493L156.101,408.126L155.438,407.382L155.298,407.018L155.134,406.303L154.986,406.006L154.369,406.856L154.159,406.847L154.025,406.308L153.636,405.572L153.474,406.08L153.555,406.869L153.41,407.135L153.778,407.672L154.514,409.644L154.17,409.644L153.939,409.605L153.767,409.476L153.636,409.191L153.504,409.283L153.184,409.418L152.894,408.776L152.542,408.215L151.586,407.135L151.653,407.689L151.815,408.13L152.279,408.943L152.553,409.288L152.677,409.492L152.733,409.754L152.607,410.04L152.379,410.202L152.268,410.396L152.507,410.773L152.838,410.261L153.45,410.102L154.041,410.248L154.31,410.672L153.993,412.951L154.063,413.731L155.231,416.059L155.65,416.588L155.599,416.907L155.405,417.225L155.086,417.368L154.653,417.311L154.299,417.154L153.684,416.872L153.703,417.023L153.748,417.174L153.861,417.368L153.133,417.139L152.408,416.806L151.67,416.641L150.909,416.918L150.533,416.532L150.276,416.006L150.222,415.416L150.458,414.843L149.894,414.55L149.384,413.683L149.024,412.636L148.882,411.802L148.943,411.201L149.107,410.874L149.333,410.641L149.577,410.323L149.728,409.989L149.865,409.455L149.768,408.958L149.22,408.74L148.374,408.256L147.788,407.147L147.284,405.102L147.187,404.287L147.3,403.865L147.641,403.405L147.866,403.004L147.783,402.718L147.482,402.693L147.077,403.066L146.763,402.688L146.658,402.451L146.607,402.141L146.322,402.284L146.048,402.333L145.769,402.284L145.481,402.141L145.626,402.702L145.691,403.3L145.852,403.776L146.271,403.971L146.564,404.221L146.803,404.811L147.077,406.006L147.206,407.244L147.351,407.818L147.641,408.061L148.06,408.283L148.492,408.805L149.107,409.868L148.366,410.502L148.205,410.773L148.14,411.239L148.798,414.495L149.126,415.469L149.577,415.994L149.507,416.762L150.179,417.344L150.603,417.825L149.784,418.273L148.75,418.459L147.429,418.548L146.207,418.439L145.481,418.027L145.382,417.55L145.506,415.595L145.667,415.356L145.707,415.202L145.634,415.028L145.328,414.77L145.256,414.636L145.256,413.485L145.377,412.951L146.118,410.971L146.19,410.615L146.158,409.644L145.532,410.415L145.028,411.808L144.805,413.308L145.03,414.41L144.885,414.685L144.869,415.335L144.805,415.768L144.496,415.022L144.394,414.566L144.302,412.535L144.128,412.131L144.002,412.355L143.851,412.546L143.674,412.701L143.451,412.829L143.628,413.298L143.658,414.843L143.789,415.38L144.19,416.099L144.453,416.735L144.786,417.881L144.805,418.273L144.56,418.626L144.224,418.742L143.207,418.726L142.277,418.818L142.084,418.62L141.724,417.551L141.627,416.528L141.67,415.02L141.531,413.809L141.034,412.955L140.032,413.055L140.953,413.784L141.284,414.949L141.163,416.297L140.728,417.574L140.663,418.681L139.022,419.07L137.104,418.887L136.199,418.273L135.756,418.351L135.321,418.479L135.571,419.1L135.031,419.307L134.204,419.36L133.597,419.517L132.963,419.796L131.445,419.838L130.793,420.08L130.011,419.158L130.68,417.752L132.839,415.315L132.41,415.279L132.141,415.216L131.937,415.205L131.674,415.315L130.546,416.67L130.395,414.887L129.869,413.281L129.665,413.281L129.627,413.939L129.686,414.779L129.842,415.602L130.094,416.199L129.772,415.877L129.496,415.517L129.122,415.222L128.521,415.089L128.875,415.861L129.235,416.374L129.461,416.923L129.418,417.8L129.203,418.448L128.966,418.932L128.762,419.084L128.488,419.173L128.29,419.367L128.295,419.835L128.558,419.707L128.768,419.707L129.213,419.835L129.028,420.148L128.094,420.465L126.869,420.531L126.039,420.307L125.926,420.467L125.711,420.619L125.588,420.758L125.056,420.56L124.76,420.226L124.648,419.76L124.669,419.158L124.806,418.607L125.249,417.82L125.341,417.368L125.19,417.433L124.825,417.519L124.669,417.574L124.674,417.053L124.793,416.158L124.433,416.119L124.089,416.031L123.694,415.869L123.294,415.994L123.195,416.331L123.256,416.818L123.401,417.287L123.541,417.574L123.401,418.009L123.579,418.373L123.847,418.763L123.992,419.28L123.904,419.994L123.646,419.959L123.256,419.617L122.757,419.404L122.026,419.369L121.763,419.194L121.715,418.027L121.913,417.974L121.973,417.877L121.543,417.236L121.489,417.122L121.452,416.563L121.489,415.994L121.29,415.994L121.043,417.122L120.874,416.976L120.366,416.67L120.866,417.8L120.968,418.354L120.592,418.726L120.093,418.672L119.585,418.343L119.163,417.977L118.9,417.8L118.231,417.558L117.493,416.948L117.101,416.142L117.439,415.315L117.068,415.286L116.832,415.388L116.733,415.626L116.762,415.994L116.555,415.994L116.015,415.439L114.683,414.674L114.283,414.164L114.511,414.309L114.947,414.502L115.183,414.636L114.928,414.219L114.528,414.026L114.066,413.913L113.606,413.731L112.9,412.963L112.647,412.612L111.767,411.707L111.557,411.565L108.495,408.698L107.571,407.414L107.254,406.006L107.394,406.052L107.496,406.096L107.724,406.23L107.722,405.615L106.277,404.723L105.903,404.085L105.742,403.554L104.912,402.122L104.552,401.71L105.678,402.387L105.396,401.597L104.34,400.408L103.424,397.844L103.132,396.297L102.954,395.787L102.533,394.92L102.355,394.419L102.278,393.865L102.173,393.614L101.939,393.361L101.711,393.021L101.601,392.498L101.762,392.096L102.157,391.94L102.672,391.977L103.18,392.147L103.537,392.447L104.133,393.269L104.552,393.525L104.05,392.225L103.854,391.717L104.558,391.786L105.227,391.942L104.985,391.549L104.082,390.556L103.741,390.358L103.618,390.497L103.647,391.104L103.526,391.241L103.215,391.252L102.984,391.288L102.503,391.468L102.068,391.279L101.276,391.416L100.927,391.241L100.862,390.973L100.927,389.774L100.779,388.242L100.089,385.26L100.271,384.822L101.039,384.66L103.228,384.617L103.854,384.435L103.937,384.742L104.026,384.961L104.308,385.361L104.574,385.148L104.824,384.652L105.004,384.435L105.194,384.301L106.341,383.853L106.884,383.751L107.386,383.771L107.724,383.999L107.934,383.999L107.684,383.578L106.894,382.888L106.58,382.397L106.459,381.935L106.416,381.392L106.484,380.87L106.693,380.473L107.131,380.19L107.63,380.09L108.732,380.111L109.126,379.922L109.513,379.493L109.98,378.754L109.451,378.973L109.011,379.36L108.538,379.615L107.934,379.433L107.845,379.595L107.636,379.74L107.48,379.906L106.717,379.739L105.928,380.133L105.468,380.867L105.678,381.719L105.299,382.526L104.864,383.02L104.327,383.144L103.629,382.849L103.435,382.623L103.381,382.411L103.253,382.254L102.842,382.192L102.667,382.38L102.758,382.812L102.971,383.271L103.18,383.549L101.27,383.441L97.548,382.192L97.392,382.015L97.242,381.652L97.118,381.473L96.076,380.513L95.397,380.038L95.152,379.329L95.082,378.623L95.171,378.301L95.394,378.178L95.931,377.595L96.216,377.394L96.46,377.351L99.691,377.486L100.916,377.688L101.601,378.077L101.826,378.077L102.149,377.607L102.697,376.421L102.954,376.037L103.381,375.853L103.905,375.863L104.407,376.015L104.759,376.263L104.848,376.506L105.033,377.24L105.116,377.394L105.46,377.375L105.629,377.283L105.68,377.081L105.678,376.717L105.433,376.199L104.872,375.632L104.203,375.158L103.629,374.906L103.003,374.919L102.689,375.249L102.278,376.263L101.931,376.575L101.391,376.838L100.792,376.981L100.247,376.943L99.621,376.591L99.353,376.122L99.363,375.555L99.981,373.748L100.056,373.259L100.003,372.64L99.799,372.64L98.896,375.111L98.539,375.765L98.112,376.19L97.542,376.421L96.753,376.49L96.396,376.584L95.625,377.036L94.792,377.348L94.591,377.255L94.148,376.943L93.643,376.485L93.124,375.838L92.713,375.151L92.402,374.218L92.09,373.757L91.787,373.165L91.666,372.393L91.747,371.726L91.945,370.976L92.251,370.363L92.657,370.106L93.036,370.236L93.696,370.765L93.944,370.827L94.115,370.615L94.043,370.32L93.914,369.984L93.944,369.656L94.98,368.743L97.688,367.752L98.445,366.485L97.757,366.607L96.629,367.619L95.324,368.014L92.821,369.336L92.343,369.684L90.678,371.246L90.336,371.216L89.104,368.505L85.097,363.285L84.422,362.651L83.125,362.089L82.523,361.409L81.691,360.099L80.539,358.893L79.523,358.07L77.042,356.502L75.949,355.809L73.924,353.907L72.659,353.094L72.129,352.861L69.242,351.588L67.145,351.199L60.011,349.879L51.578,349.172L37.496,349.879L36.755,349.757L36.349,349.461L36.027,349.092L35.56,348.744L35.868,348.583L36.091,348.529L36.285,348.58L36.481,348.744L36.996,348.272L37.187,348.451L37.254,348.951L37.383,349.445L38.543,348.378L38.737,348.403L38.85,348.667L39.107,348.679L39.535,348.517L40.163,348.502L40.722,348.402L41.232,348.132L41.686,347.609L41.748,347.248L41.672,346.879L41.694,346.591L42.024,346.475L43.362,346.475L44.068,346.334L45.521,345.869L45.964,346.001L46.706,345.707L47.366,345.313L47.834,344.782L48.011,344.073L48.422,343.909L51.169,343.506L50.917,343.31L50.71,343.22L50.509,343.214L50.267,343.279L48.39,342.836L46.534,343.541L44.764,344.569L43.16,345.094L42.559,345.099L42.218,345.145L41.057,345.766L40.679,345.901L40.292,345.979L39.862,346.001L39.784,345.923L39.365,345.774L38.962,345.796L38.75,345.628L38.648,345.524L38.511,345.094L38.476,344.688L38.705,343.975L38.737,343.506L38.17,343.837L37.77,344.185L37.045,344.981L36.779,345.082L36.43,345.096L36.134,345.169L36.011,345.445L36.059,345.678L36.242,346.166L36.255,346.475L36.124,346.829L35.659,347.542L35.56,347.941L35.433,348.176L35.194,348.359L35.06,348.561L35.232,348.857L35.393,349.032L35.482,349.202L35.533,349.399L35.71,349.559L35.546,350.299L33.62,350.507L29.925,350.332L25.574,350.837L20.471,350.584L13.081,351.274L13.095,349.249L13.348,347.763L13.463,347.084L13.575,346.758L14.186,344.974L14.255,344.271L13.972,342.87L13.982,342.189L14.36,341.475L14.957,340.941L15.363,340.673L15.547,340.298L15.438,338.765L15.373,338.427L15.179,338.277L14.77,338.239L14.432,338.137L14.152,337.935L13.9,337.598L13.733,336.943L13.821,336.223L14.173,334.829L14.009,333.436L13.562,332.161L13.453,330.955L14.309,329.759L14.695,329.575L15.118,329.45L15.455,329.269L15.585,328.91L15.394,328.596L14.528,327.882L14.244,327.525L14.118,327.092L14.152,326.862L14.296,326.64L14.599,326.009L14.862,325.665L14.971,325.351L15.005,324.89L14.313,316.706L14.395,316.338L14.647,316.192L14.991,316.195L15.704,316.338L15.81,316.271L15.834,316.083L15.912,315.786L16.001,314.394L15.271,313.175L14.296,312.007L13.634,310.768L13.46,309.462L13.537,308.371L13.852,303.882L13.76,303.404L13.467,302.925L12.675,302.039L12.304,301.083L12.038,300.675L12.02,300.547L12,300.398L12.075,300.143L12.413,299.508L12.529,299.211L12.655,297.11L13.071,295L13.143,293.007L13.231,292.397L13.487,291.832L13.832,291.276L14.091,290.663L14.108,289.932L13.883,289.222L13.235,287.834L12.979,287.098L12.86,286.303L12.9,285.665L13.153,284.283L13.153,283.974L13.071,283.357L13.078,283.062L13.252,282.644L13.91,281.899L14.173,281.506L14.432,280.379L14.355,279.405L13.712,271.268L13.709,271.232L13.719,270.877L13.907,270.625L14.463,270.369L14.64,270.193L14.681,269.897L14.51,269.383L14.47,269.087L14.592,268.572L15.005,267.621L15.019,267.111L14.892,266.878L14.729,266.819L14.589,266.746L14.531,266.472L14.613,266.403L14.985,265.841L15.09,265.638L15.271,264.723L15.343,262.606L15.237,261.72L17.782,261.929L18.225,261.867L18.542,261.631L18.822,261.335L19.173,261.107L19.528,261.04L20.541,261.007L20.899,261.05L21.261,261.223L21.581,261.443L21.912,261.604L22.298,261.6L24.552,261.012L25.364,260.446L25.869,259.401L26.967,255.972L27.646,254.672L27.851,253.977L27.854,251.806L27.742,251.248L27.322,250.197L27.1,249.263L27.23,248.336L27.864,247.303L28.103,247.125L28.635,246.944L28.881,246.728L30.893,244.082L30.931,243.909L30.757,243.483L30.716,243.257L30.965,242.432L31.497,242.268L32.142,242.389L32.725,242.423L33.8,241.819L34.031,240.942L33.769,239.923L33.363,238.892L33.247,238.234L33.322,237.476L33.612,236.806L34.144,236.409L36.518,235.429L37.804,235.085L39.789,235.303L40.372,234.755L41.242,233.16L42.31,231.878L42.644,231.212L42.849,228.35L43.064,227.808L43.575,227.315L44.056,227.083L44.469,226.774L44.769,226.039L44.797,225.851L44.885,225.251L44.79,224.726L44.493,224.304L42.248,221.977L41.778,221.212L41.747,220.585L42.426,219.067L43.258,217.779L43.388,217.38L43.422,216.719L43.514,216.506L43.732,216.191L44.377,215.549L45.025,215.338L45.721,215.462L47.836,216.574L48.351,216.494L48.852,215.865L49.07,215.245L49.105,213.512L49.401,212.617L50.244,210.941L50.493,210.041L50.487,209.009L50.483,208.196L50.319,207.219L50.015,206.57L49.596,206.327L49.128,206.238L48.705,206.109L48.395,205.737L48.085,204.634L47.921,204.274L47.672,203.986L47.382,203.741L47.116,203.462L46.949,203.06L46.99,202.479L47.706,200.709L47.744,199.719L47.065,196.725L47.065,196.717L46.727,196.142L46.481,195.526L46.348,194.854L46.348,194.126L46.686,192.82L46.41,192.552L46.142,192.538L46.103,192.536L45.792,192.592L45.52,192.546L44.721,191.784L38.807,183.399L38.316,182.484L38.258,181.71L38.919,179.898L39.127,179.386L39.52,177.868L41.812,173.943ZM172.724,413.731L173.819,413.618L174.158,413.726L173.972,414.164L173.68,414.56L173.105,414.688L171.845,414.636L171.338,414.723L169.694,415.315L169.119,415.375L166.689,415.226L166.181,414.968L165.988,414.535L166.294,413.939L166.624,413.769L168.219,413.281L168.609,413.42L169.783,414.026L170.365,414.164L170.967,414.098L172.154,413.8ZM163.917,413.485L165.418,413.331L165.842,413.485L165.445,413.844L165.241,414.238L165.174,414.685L165.166,415.202L165.026,415.715L164.714,416.039L164.269,416.321L163.801,416.514L160.863,417.122L159.743,417.02L159.423,416.625L159.743,416L160.799,414.879L161.54,413.731L162.176,412.996L162.313,412.681L162.442,412.131L162.893,412.408L163.401,413.298Z"/>
</svg>
