<svg xmlns="http://www.w3.org/2000/svg" viewBox="0 0 420 520" aria-label="Map of Rwanda">
  <path fill="currentColor" d="M42.838,411.794L39.865,408.465L35.864,406.487L30.039,405.862L27.439,404.833L20.163,400.071L18.651,398.517L19.961,383.606L18.651,379.067L16.646,377.029L14.459,375.98L12.725,374.79L12,372.288L12.705,369.726L16.091,366.699L15.406,364.319L13.431,360.788L12.705,356.915L12.312,352.739L13.774,347.615L16.515,345.254L21.755,343.439L25.827,342.249L29.203,340.251L31.974,337.427L34.232,333.897L35.703,330.992L36.368,328.894L36.6,327.2L38.605,325.324L40.258,324.739L45.872,324.921L54.549,322.621L61.261,317.316L66.138,309.712L69.202,300.474L70.331,292.325L69.928,285.306L64.748,254.671L64.324,247.532L65.292,240.554L68.96,231.964L76.24,220.315L81.235,212.323L85.347,204.519L87.705,201.071L97.118,193.268L99.093,190.707L104.434,179.698L106.692,176.794L109.755,175.504L124.66,174.899L125.144,174.778L125.578,174.496L125.981,174.073L126.638,173.037L130.395,167.116L137.107,160.12L144.887,154.515L152.546,151.793L160.387,152.217L164.478,151.914L168.106,150.926L172.127,148.668L175.141,146.491L178.406,144.797L183.142,143.95L185.46,144.474L189.612,146.995L190.963,147.479L192.575,146.531L193.744,142.68L195.508,140.583L197.312,139.455L199.005,138.95L200.737,139.209L200.759,139.212L202.895,140.301L208.378,148.265L209.244,152.358L209.708,160.382L211.602,164.515L214.948,167.641L218.758,168.729L222.859,168.286L227.142,166.693L240.385,159.354L242.4,158.931L244.174,154.676L246.714,152.055L247.729,151.511L253.486,148.426L261.448,145.321L263.564,143.346L264.572,140.382L265.761,132.822L267.152,130.16L268.683,129.253L270.235,128.991L271.788,128.87L273.229,128.447L276.242,126.652L284.919,118.407L287.469,115.141L289.565,111.613L289.938,110.322L290.371,107.52L290.935,106.351L291.601,105.803L292.306,105.222L295.571,103.75L296.76,102.762L297.768,99.799L299.028,91.735L300.671,88.953L303.654,87.885L306.879,88.369L310.204,89.336L313.49,89.76L316.553,88.993L319.113,87.844L321.764,87.482L324.731,88.405L326.868,89.07L325.321,90.687L323.82,92.824L323.205,95.021L323.85,97.118L326.692,99.073L327.337,101.734L326.923,102.884L326.188,103.992L325.664,105.161L325.986,106.331L327.699,107.48L329.252,107.238L330.521,106.553L331.328,106.331L333.726,108.064L334.552,109.274L335.318,114.314L336.508,117.157L340.055,123.043L341.204,127.015L343.018,129.374L343.411,130.967L343.219,131.572L342.776,132.418L342.312,133.567L342.111,135.019L343.159,138.144L345.678,140.039L351.423,142.418L353.479,143.87L356.401,146.652L358.195,147.741L371.075,152.519L374.904,153.063L378.694,155.362L379.802,160.463L379.439,165.544L378.835,167.842L377.797,168.971L378.956,171.512L382.18,175.827L384.599,178.407L385.466,179.899L387.361,186.916L389.235,191.312L392.289,193.711L396.924,191.937L398.345,196.07L398.184,201.091L395.665,216.477L395.604,218.574L396.048,219.582L397.781,222.244L398.265,224.039L396.028,229.403L396.713,231.46L398.265,239.284L397.197,242.591L395.211,245.515L394.113,248.52L395.604,252.009L392.44,254.49L391.251,255.76L390.283,257.333L396.128,258.261L396.713,263.424L394.143,274.778L397.791,273.992L401.308,275.746L404.281,278.731L406.367,281.555L408,287.222L401.288,308.945L399.595,317.538L400.422,330.891L399.595,334.865L397.58,338.517L395.04,340.352L391.765,341.805L388.751,343.54L386.03,344.205L384.619,345.012L382.846,345.497L381.253,345.113L371.075,340.09L368.978,339.424L366.459,339.767L364.222,341.522L361.44,346.767L359.253,348.603L355.172,348.825L350.939,347.615L346.787,347.09L343.018,349.309L336.608,349.067L330.118,346.021L319.526,337.326L318.408,335.793L317.4,333.05L316.473,331.981L315.808,332.223L309.64,330.75L308.693,330.266L305.558,331.194L303.654,332.969L302.846,334.031L301.951,335.208L299.441,337.528L296.64,338.961L292.971,340.151L289.242,340.917L286.098,341.058L283.679,340.514L277.592,337.548L275.325,337.326L274.629,338.638L274.529,340.473L274.126,341.845L265.317,352.9L261.992,355.2L257.638,355.341L253.164,353.606L249.092,350.903L245.887,348.099L239.841,340.937L237.462,339.102L235.235,338.315L233.36,338.254L231.718,338.416L230.206,338.194L226.771,335.237L226.432,334.946L225.097,333.796L223.535,332.909L221.539,332.969L220.975,334.059L220.995,335.874L219.725,345.86L221.126,360.869L216.903,375.617L216.085,395.636L215.996,397.811L214.948,402.109L213.094,406.366L210.715,410.402L208.115,413.933L204.125,417.989L200.456,420.148L196.516,420.895L191.668,420.754L187.315,419.442L185.077,419.462L183.626,421.278L182.981,425.375L182.135,427.191L180.24,428.341L175.876,428.886L172.198,428.321L164.086,425.64L161.999,424.951L160.608,424.87L154.804,426.969L153.352,427.857L151.8,428.462L149.785,428.381L145.512,428.946L141.863,431.267L138.155,432.518L133.62,429.955L126.562,428.639L122.796,427.938L119.299,428.341L110.884,431.994L106.087,432.438L104.364,428.724L104.132,426.283L102.318,422.227L101.874,419.966L102.54,417.929L105.24,414.619L105.664,412.399L104.474,409.978L100.242,406.003L100.196,405.823L99.526,403.178L99.778,400.878L99.637,399.97L97.259,398.194L93.691,396.156L89.569,395.168L81.336,394.139L76.982,392.807L65.14,387.642L61.966,387.178L50.618,387.924L46.194,392.262Z"/>
</svg>
