<svg xmlns="http://www.w3.org/2000/svg" viewBox="0 0 420 520" aria-label="Map of Seychelles">
  <path fill="currentColor" d="M23.88,376.618L23.794,377.092L23.522,377.676L23.123,378.036L22.697,377.858L22.653,377.433L22.985,377.024L23.471,376.729ZM63.07,376.343L63.07,375.749L63.29,375.6L63.402,375.827ZM291.972,206.172L292.273,206.558L292.369,206.747L292.394,206.994L292.228,206.805L292.126,206.609ZM383.338,141.964L383.581,142.778L383.293,142.775L383.031,142.361ZM23.318,362.182L24.123,362.746L24.485,363.125L24.283,363.294L23.775,363.501L22.432,364.525L21.713,364.924L18.81,364.849L15.632,365.834L13.061,365.954L12,363.294L12.908,364.415L14.622,364.92L16.444,364.817L17.665,364.107L18.349,364.143L19.411,363.806L20.415,363.349L20.926,362.999L21.169,363.294L21.444,362.999L21.834,363.193L22.269,363.294L22.269,362.999L21.876,362.743L21.642,362.373L21.514,361.913L21.444,361.388ZM15.005,361.933L14.935,361.803L14.954,361.712L14.922,361.661L14.711,361.638L14.702,361.453L14.775,361.421L14.89,361.434L16.236,360.941L17.748,361.039L19.296,361.317L20.632,361.388L19.986,362.011L18.759,362.16L17.525,361.985L16.86,361.638L16.361,361.913L15.469,361.784ZM406.414,276.231L406.875,274.156L407.29,273.347L408,272.96L407.824,273.827L407.412,274.684ZM373.203,176.213L372.917,176.108L372.936,175.95L373.139,175.914L373.039,175.792L372.724,175.691L372.337,175.777L372.008,175.677L371.786,175.511L371.85,175.375L372.151,175.404L372.258,175.317L372.144,175.116L372.681,174.599L372.925,174.498L373.405,174.46L373.828,174.276L374.012,173.962L374.162,173.649L374.38,173.495L374.485,173.02L374.46,172.351L374.732,172.271L375.004,172.295L375.293,172.339L375.645,172.699L375.777,173.174L375.616,173.351L375.491,173.77L375.491,174.083L375.448,174.541L375.563,174.716L375.383,174.773L375.363,174.844L375.667,174.828L376.109,175.401L376.973,176.01L377.709,176.508L378.187,176.988L377.911,178.077L378.058,178.317L378.168,179.221L377.837,179.313L377.727,179.756L378.076,180.531L378.133,181.072L378.426,181.306L378.554,181.859L377.837,181.859L377.23,181.546L376.716,180.642L376.55,180.217L376.201,180.088L375.925,180.272L375.631,180.125L375.814,179.405L376.467,179.409L376.734,179.202L376.476,178.852L376.293,178.612L376.348,178.28L376.201,178.021L375.814,177.984L375.428,177.412L375.06,176.896L374.527,176.84L373.847,176.435L373.498,176.223ZM367.647,169.89L366.927,170.044L366.381,169.393L366.122,168.447L366.278,167.716L366.931,167.931L367.634,168.428L367.998,169.104ZM385.615,163.192L385.083,163.104L384.608,163.042L384.316,162.749L384.284,162.461L384.025,161.865L384.534,161.682L384.802,161.634L385.096,161.621L385.656,162.134L386.185,162.353L386.755,162.456L387.062,162.837L387.457,162.661L387.953,162.734L388.341,163.211L387.708,163.24L387.603,163.567L387.593,163.987L387.245,164.308L386.759,164.295L386.209,164.064L385.838,163.683ZM268.711,268.38L268.922,268.805L268.771,268.766L268.723,268.673L268.723,268.544ZM372.462,223.295L372.423,223.752L372.353,223.893L372.346,223.729ZM371.671,176.165L371.807,176.216L371.979,176.345L372.108,176.446L372.072,176.503L371.95,176.453L371.757,176.424L371.642,176.338L371.585,176.244ZM373.096,176.532L373.182,176.568L373.326,176.654L373.404,176.784L373.369,176.906L373.347,176.978L373.297,176.992L373.139,176.812L373.039,176.719L373.046,176.64L372.996,176.575L373.025,176.525ZM377.127,174.964L377.225,174.999L377.334,175.281L377.294,175.39L377.167,175.401L377.007,175.344L376.892,175.235L376.749,175.177L376.738,175.005L376.818,174.93L376.955,174.936L377.053,175.005ZM377.23,174.671L377.288,174.683L377.385,174.769L377.517,174.803L377.569,174.901L377.5,174.993L377.397,174.947L377.265,174.861L377.196,174.757ZM376.984,173.861L377.041,173.815L377.213,173.763L377.397,173.803L377.557,173.803L377.632,173.849L377.557,174.01L377.431,174.183L377.173,174.286L377.013,174.395L376.938,174.407L376.921,174.292L376.961,174.085L376.938,173.947ZM385.397,161.233L385.514,161.094L385.791,161.094L386.434,161.138L386.609,161.152L386.551,161.343L386.186,161.343L386.229,161.577L386.215,161.709L385.736,161.544ZM383.469,163.115L383.6,163.159L383.571,163.35L383.366,163.379L383.352,163.203ZM382.84,163.848L382.913,163.921L383.001,164.111L382.884,164.111L382.709,163.95ZM383.615,158.457L383.761,158.486L383.951,158.545L383.819,158.647L383.527,158.618L383.322,158.574L383.366,158.472ZM390.101,163.482L390.583,163.687L390.846,164.185L391.094,164.566L390.831,164.698L390.583,164.932L390.48,165.269L390.203,165.196L389.852,164.844L389.765,164.361L389.969,163.877ZM391.547,162.69L391.737,162.734L392.117,163.145L392.175,163.452L391.941,163.511L391.737,163.291L391.474,162.925ZM391.459,161.343L391.591,161.357L391.635,161.606L391.751,161.855L391.605,161.87L391.459,161.562ZM393.563,163.35L393.753,163.467L393.709,163.701L393.665,163.965L393.519,163.892L393.475,163.599ZM394.353,172.986L394.521,173.036L394.719,173.294L394.749,173.472L394.541,173.542L394.314,173.522L394.076,173.284L394.057,173.135L394.185,173.036Z"/>
</svg>
