<svg xmlns="http://www.w3.org/2000/svg" viewBox="0 0 420 520" aria-label="Map of Sudan">
  <path fill="currentColor" d="M36.796,372.588L37.72,369.208L37.869,368.967L38.241,368.554L38.307,368.293L38.319,367.808L38.397,367.333L38.544,366.901L38.941,366.056L39.046,365.629L39,364.931L38.98,364.616L38.383,362.832L38.064,361.125L37.725,360.833L37.172,360.819L34.927,361.058L34.693,360.955L34.686,360.23L34.62,360.013L34.013,359.441L32.115,358.792L31.303,358.389L30.46,357.575L29.739,356.556L29.266,355.425L29.156,354.272L30.472,346.85L30.889,345.628L30.96,345.203L30.933,344.828L30.814,344.71L30.614,345.059L30.299,344.863L29.378,345.03L27.845,345.516L27.587,345.713L27.446,345.789L27.295,345.85L27.901,343.2L27.923,342.905L27.906,342.611L27.845,342.323L26.113,336.94L25.333,335.706L25.284,335.41L25.827,334.614L27.002,331.836L26.69,331.528L24.278,330.619L21.324,328.639L20.649,329.651L19.891,330.381L18.989,330.886L17.878,331.217L16.957,331.344L15.955,331.334L14.983,331.148L14.154,330.74L13.667,330.26L12.741,328.504L12.1,327.698L12,327.423L12.056,327.27L12.434,326.517L13.026,324.713L14.963,321L15.646,320.051L16.455,319.27L16.872,319.037L19.404,318.022L19.793,317.747L21.97,315.433L22.803,314.33L23.001,313.318L22.718,312.764L21.884,311.747L21.577,311.168L21.473,310.703L21.458,309.307L21.112,308.368L19.608,306.956L19.189,306.016L19.189,305.475L19.235,305.099L19.155,304.743L18.782,304.26L18.231,303.735L18.261,303.518L18.836,302.569L20.755,300.112L20.988,299.815L21.555,299.236L22.235,298.779L25.979,296.984L26.434,296.672L27.309,295.846L27.845,295.544L28.476,295.42L29.025,295.201L29.376,294.786L29.407,294.073L29.247,293.291L29.035,292.818L28.615,292.554L27.285,292.319L26.892,292.107L26.61,291.748L26.395,291.222L26.327,290.933L26.351,290.742L26.561,290.327L26.663,290.225L26.983,290.075L27.102,289.953L27.126,289.772L27.041,289.63L26.924,289.501L26.846,289.355L26.512,286.738L26.329,286.405L25.603,285.859L25.065,284.958L25.508,284.091L26.461,283.361L27.468,282.868L32.205,281.59L32.446,281.414L32.561,281.073L32.519,280.857L32.164,280.078L32.032,279.651L31.839,278.313L31.839,277.684L32.03,277.306L32.892,276.719L33.36,276.281L33.494,275.878L33.516,275.421L33.64,274.826L33.916,274.319L36.041,272.077L36.506,271.69L37.045,271.392L37.844,271.078L38.027,270.855L39.082,268.902L39.263,268.358L39.562,265.515L39.516,264.698L39.282,263.935L38.775,263.243L38.271,262.694L37.876,262.061L37.703,261.357L37.873,260.593L38.319,260.042L40.179,258.879L41.687,257.036L42.304,256.606L42.884,256.533L44.005,256.393L47.631,257.168L49.405,256.996L52.5,255.849L54.048,255.51L56.755,255.513L59.621,255.95L62.368,256.901L63.006,256.929L63.284,256.192L63.284,256.173L63.284,254.759L63.282,249.064L63.274,243.362L63.269,237.654L63.267,231.939L63.262,226.216L63.257,220.488L63.252,214.752L63.247,209.008L63.245,203.257L63.238,197.498L63.233,191.732L63.23,185.959L63.225,180.178L63.221,174.389L63.216,168.591L63.211,162.785L63.211,159.66L63.211,156.534L63.211,153.407L63.211,150.277L67.01,150.277L69.025,150.279L71.689,150.28L74.843,150.282L77.779,150.286L80.66,150.286L84.101,150.288L86.477,150.288L86.528,150.282L86.579,150.277L86.63,150.271L86.684,150.263L86.706,150.225L86.728,150.186L86.75,150.149L86.772,150.11L86.772,149.951L86.772,147.149L86.774,144.761L86.774,142.369L86.776,139.978L86.779,137.586L86.779,134.449L86.779,131.308L86.781,128.166L86.781,125.02L86.781,121.872L86.784,118.723L86.786,115.569L86.786,112.413L86.786,109.256L86.786,106.094L86.789,102.929L86.789,99.763L89.082,99.764L91.378,99.764L93.673,99.764L95.971,99.764L98.264,99.764L100.559,99.766L102.855,99.766L105.148,99.766L107.441,99.766L109.737,99.767L112.035,99.768L114.328,99.768L116.623,99.768L118.917,99.769L121.21,99.769L123.506,99.769L125.801,99.769L128.097,99.771L130.39,99.772L132.686,99.772L134.979,99.772L137.274,99.772L139.57,99.772L141.863,99.773L144.159,99.773L146.455,99.773L148.75,99.773L151.046,99.773L153.339,99.773L155.635,99.775L157.93,99.776L160.226,99.776L162.518,99.776L164.815,99.777L167.111,99.777L169.403,99.777L171.699,99.777L173.995,99.777L176.291,99.777L178.586,99.779L180.88,99.78L183.175,99.78L185.471,99.78L187.764,99.78L190.056,99.78L192.353,99.781L194.648,99.781L196.944,99.781L199.24,99.781L201.533,99.783L203.826,99.784L206.122,99.784L208.414,99.784L210.713,99.784L213.009,99.784L215.302,99.785L217.595,99.785L219.891,99.785L222.186,99.785L224.48,99.785L226.776,99.785L229.073,99.787L231.369,99.788L233.661,99.788L234.564,99.788L234.876,99.6L236.038,97.21L236.12,97.043L237.184,94.858L237.793,94.187L238.234,93.95L238.687,93.868L239.141,93.939L239.574,94.16L240.093,94.671L240.303,95.237L240.274,95.874L239.728,97.504L238.975,99.763L240.372,99.762L241.01,99.762L243.422,99.762L245.837,99.762L248.25,99.762L250.665,99.762L253.078,99.762L255.493,99.762L257.905,99.762L260.32,99.762L262.733,99.762L264.654,99.762L265.147,99.762L267.562,99.762L269.978,99.762L272.391,99.762L274.806,99.762L277.218,99.762L279.608,99.762L279.632,99.762L280.136,99.761L283.026,102.11L286.23,104.713L289.033,106.988L289.09,107.035L296.296,106.004L299.424,105.556L301.429,99.76L301.577,99.76L307.063,99.76L312.549,99.759L318.037,99.758L323.522,99.758L329.008,99.758L334.494,99.758L339.982,99.756L345.467,99.756L350.956,99.756L356.441,99.755L361.927,99.754L367.439,99.754L367.368,100.135L367.304,100.254L367.204,100.304L366.828,100.357L366.412,100.506L366.974,100.932L367.201,101.269L367.216,104.34L367.749,107.827L367.538,108.531L367.872,108.761L367.949,109.058L367.964,109.369L368.11,109.648L368.371,109.916L368.542,110.16L369.806,113.204L372.861,117.958L374.874,119.879L377.384,123.107L377.563,123.531L377.513,124.024L377.35,124.46L377.052,124.668L376.599,124.478L376.123,124.835L375.697,124.476L375.053,123.349L374.892,123.13L374.715,122.813L374.646,122.531L374.811,122.408L375.118,122.496L375.287,122.704L375.394,122.957L375.536,123.177L376.077,123.598L376.396,123.731L376.599,123.617L376.549,123.407L375.968,122.738L375.6,121.758L375.344,121.406L374.972,121.529L374.312,121.027L374.12,121.294L373.936,121.247L373.782,121.001L373.686,120.667L373.744,120.362L373.898,120.068L373.944,119.77L373.686,119.459L373.046,119.319L372.658,119.743L372.502,120.416L372.558,121.027L372.677,121.169L372.969,121.189L373.026,121.357L372.946,121.658L372.865,121.874L372.969,122.516L372.961,122.812L372.865,123.099L372.629,123.337L372.389,123.411L372.226,123.545L372.22,123.962L372.341,124.188L373.026,124.995L373.656,126.481L373.955,128.062L374.17,131.387L374.512,132.951L375.559,135.958L375.617,137.596L375.552,137.996L375.427,138.394L375.199,138.635L374.481,138.531L374.4,138.855L374.489,139.603L374.312,141.39L374.481,142.407L374.489,142.779L375.045,144.251L375.234,145.137L375.36,145.958L375.485,147.161L375.126,148.113L375.133,148.283L375.047,148.559L374.759,148.919L374.65,149.155L374.634,149.831L374.807,150.685L376.3,154.658L376.438,155.507L376.438,157.14L376.392,157.588L376.267,157.861L375.874,158.422L375.801,158.803L375.968,160.31L375.932,160.783L375.968,160.992L376.06,161.23L376.438,161.878L376.922,163.306L377.856,168.616L378.046,171.193L378.133,171.491L378.33,171.663L378.547,171.796L378.691,171.975L378.691,172.141L378.568,172.468L378.559,172.641L379.132,173.448L379.415,174.691L379.906,176.291L380.226,177.333L380.424,178.623L380.736,179.075L381.245,180.026L381.79,180.97L382.567,181.692L382.698,181.982L382.911,182.255L383.175,182.403L383.461,182.31L383.726,182.155L383.901,182.199L385.309,181.985L386.092,181.631L386.201,182.091L386.727,182.373L387.165,182.456L387.648,182.422L387.799,182.709L387.854,183.114L388.234,183.465L388.057,184.427L388.424,184.227L388.696,184.14L388.961,184.35L389.346,184.751L392.005,185.511L392.982,186.459L393.641,187.576L394.662,188.594L395.311,189.026L396.338,189.431L396.635,189.782L396.338,190.214L395.718,190.538L395.556,191.401L396.205,192.804L397.338,193.855L398.605,194.151L399.549,193.989L399.684,193.073L400.158,192.929L400.981,192.434L401.127,192.697L400.927,192.906L400.595,193.088L400.351,193.267L400.317,193.467L400.336,193.739L400.275,194.036L399.998,194.315L399.641,194.418L399.327,194.398L399.064,194.42L398.885,194.639L399.192,194.636L400.014,194.485L400.324,194.541L400.537,194.675L400.733,194.836L400.981,194.978L401.292,195.058L401.955,195.139L402.276,195.248L402.633,195.312L402.877,195.197L402.911,195L402.619,194.822L402.992,194.479L403.456,194.958L404.212,196.179L403.991,196.512L404.383,196.757L404.976,196.802L405.356,196.533L405.605,196.915L405.686,197.899L405.839,198.213L406.306,198.287L406.534,197.911L406.496,197.345L406.162,196.857L406.561,197.104L407.543,198.128L407.699,198.509L407.697,198.901L407.754,199.143L408,199.697L407.946,199.921L404.591,202.749L403.938,203.709L402.517,207.501L401.867,208.563L401.389,208.935L400.219,209.507L399.812,209.884L399.693,210.372L399.722,210.896L399.661,211.385L399.264,211.784L398.706,211.868L398.289,211.61L397.931,211.244L397.548,211.002L396.717,211.269L396.578,211.292L396.471,211.513L396.5,211.67L396.561,211.84L396.554,212.1L396.308,212.573L395.918,212.914L395.565,212.917L395.431,212.383L395.465,211.889L395.44,211.477L395.219,211.231L394.678,211.228L394.124,211.431L394.102,211.447L392.509,212.525L391.77,213.482L391.307,213.84L390.744,213.97L390.206,213.804L389.499,213.119L389.019,212.985L388.195,213.431L387.169,215.29L386.207,215.795L385.254,215.929L382.132,216.905L381.878,217.061L381.82,217.343L382.083,218.474L382.105,218.923L381.995,219.952L381.847,220.457L381.33,221.386L381.218,221.936L381.023,222.429L379.695,224.027L377.487,223.4L376.807,223.458L375.686,224.157L374.972,224.203L374.621,224.15L373.342,224.359L373.108,224.32L372.196,223.757L371.953,223.666L371.346,223.562L370.924,223.388L370.568,223.141L370.193,222.974L369.713,223.038L369.557,223.223L369.554,223.234L369.506,223.43L369.56,223.65L370.027,224.305L370.113,224.776L370.003,225.253L369.43,226.081L369.511,226.347L369.757,226.589L369.962,226.893L370.02,227.207L369.976,228.196L370.008,228.29L370.147,228.512L370.176,228.656L370.132,228.757L369.962,228.955L369.918,229.064L369.828,230.538L369.248,232.017L368.994,232.356L368.217,232.92L367.859,233.245L367.644,233.71L367.605,234.146L367.649,234.948L367.578,235.424L367.288,236.405L367.271,236.743L367.432,237.312L367.739,237.747L368.11,238.143L368.443,238.594L368.468,238.665L368.619,239.091L368.607,239.526L368.524,239.966L368.49,240.491L368.612,241.008L369.04,242.003L369.104,242.526L368.863,243.151L367.876,244.178L367.493,244.821L366.708,247.059L365.643,250.11L364.513,253.342L363.879,254.389L362.714,255.603L362.424,256.144L361.145,260.835L361.084,261.869L361.408,262.937L360.635,263.458L360.175,264.214L358.981,267.771L358.552,268.445L356.817,270.143L356.626,270.568L356.592,271.104L356.863,273.421L357.343,277.51L357.501,278.859L357.779,281.223L358.137,284.283L358.493,287.3L359.015,291.774L356.897,298.395L356.792,298.913L356.802,299.531L356.931,300.127L357.34,301.34L357.406,302.551L356.977,303.618L355.998,306.049L355.912,306.537L355.83,307.91L355.613,308.597L352.111,313.674L349.832,321.647L349.866,322.109L350.054,322.495L350.129,322.702L350.137,322.91L349.925,323.265L349.574,323.618L349.301,324.031L349.323,324.568L349.874,325.532L349.976,325.893L349.981,326.482L349.518,329.169L349.315,329.643L348.947,329.792L348.304,329.613L348.09,329.496L347.953,329.394L347.797,329.314L347.51,329.265L347.31,329.272L340.199,330.307L339.594,330.508L339.562,330.523L339.239,330.672L339.153,330.749L339.158,330.877L338.997,331.494L338.963,331.753L338.878,332L338.644,332.257L338.439,332.344L337.984,332.379L337.781,332.463L337.569,332.704L333.134,340.145L332.883,340.82L332.82,341.492L332.751,341.794L332.534,342.12L332.288,342.322L331.774,342.593L331.543,342.79L331.365,343.063L330.945,344.117L330.712,345.439L330.507,346.012L330.046,346.545L329.164,347.056L328.952,347.265L328.884,347.488L328.88,347.599L328.867,348.039L328.818,348.274L328.106,349.076L326.527,349.687L326.011,349.887L325.099,350.483L324.738,350.949L324.417,351.503L324.161,352.093L323.995,352.665L323.981,353.152L324.158,354.064L324.115,355.048L324.285,355.543L324.777,356.523L324.836,356.974L324.748,357.448L321.778,364.041L321.709,364.561L321.938,365.213L322.35,365.675L322.65,366.168L322.56,366.916L321.003,371.512L320.986,371.776L321.212,372.089L321.912,372.605L322.041,372.966L321.86,373.788L321.463,374.361L320.189,375.338L319.76,375.747L319.662,376.033L319.66,376.324L319.518,376.751L319.216,377.15L318.958,377.183L318.67,377.098L318.273,377.137L317.983,377.393L317.669,378.131L317.479,378.323L317.233,378.23L317.198,377.879L317.293,377.158L317.145,376.794L316.833,376.52L316.141,376.071L313.287,373.545L312.997,373.429L312.597,373.581L309.756,375.553L309.349,375.909L308.976,376.413L308.065,378.19L306.035,381.076L305.852,381.925L305.957,382.917L307.104,388.193L307.129,389.273L306.929,390.286L306.853,390.426L306.627,390.661L306.561,390.789L306.556,391.059L306.637,391.644L306.6,391.908L306.066,392.709L304.677,394.004L301.76,402.292L301.022,405.845L301.111,407.676L297.107,407.659L297.034,407.628L296.964,407.559L296.898,407.444L296.82,407.288L296.649,406.609L296.561,405.552L296.707,403.724L297.202,401.551L298.716,398.497L298.793,398.245L298.814,398.102L298.814,397.936L298.672,397.392L298.497,396.921L298.409,396.208L298.672,394.621L298.698,394.129L298.661,393.496L298.543,393.094L297.487,390.448L297.136,390.028L292.03,385.812L286.924,381.594L285.057,379.307L284.856,379.15L284.604,379.027L279.419,377.106L279.167,376.912L279.2,376.629L279.361,376.264L279.983,375.154L280.071,374.86L280.159,374.411L278.99,365.506L277.82,356.591L277.828,356.239L277.934,356.006L278.021,355.863L278.331,355.483L278.6,355.089L278.907,354.402L278.988,354.143L279.308,350.954L279.284,348.158L280.652,343.495L280.798,341.511L269.541,341.371L269.471,341.473L269.464,341.595L269.492,341.735L269.508,341.885L269.501,342.197L269.409,342.775L269.387,343.081L269.398,343.393L269.57,344.511L269.866,345.351L269.914,345.631L269.928,345.937L269.892,346.518L262.058,346.553L254.224,346.588L260.426,353.592L260.5,353.735L260.609,354.115L260.653,354.395L260.77,356.857L260.437,360.752L260.509,363.254L260.872,364.879L262.551,368.075L262.442,368.672L262.049,369.425L256.494,374.172L250.939,378.915L250.632,379.362L249.083,383.315L247.616,385.614L246.962,386.272L244.382,389.496L239.313,394.549L234.243,399.598L232.583,400.276L227.533,400.552L227.526,400.552L224.862,400.626L224.559,400.702L224.104,400.876L223.827,401.137L223.498,401.332L223.172,401.226L222.794,400.952L216.553,395.297L210.993,391.724L205.433,388.149L204.368,388.799L198.076,391.873L196.777,392.671L196.059,393.235L196.023,396.675L194.925,398.425L192.939,400.332L187.498,401.54L184.667,402.579L181.771,404.121L181.3,404.508L179.516,405.896L177.995,407.405L177.51,408.324L177.478,409.341L177.575,410.193L177.866,410.784L177.835,410.783L168.434,410.701L159.032,410.62L157.9,409.341L155.495,404.309L155.252,404.405L154.865,404.474L152.536,404.598L149.515,404.152L149.384,404.166L148.893,404.299L148.756,404.314L146.841,404.071L143.471,404.084L142.389,403.893L136.285,404.036L127.182,407.141L126.929,407.163L125.565,407.052L124.979,406.782L123.941,406.101L119.491,400.857L115.042,395.61L113.23,394.919L113.223,394.911L112.89,394.56L112.612,394.203L111.204,391.877L111.065,391.689L110.981,391.61L110.831,391.489L110.765,391.455L110.124,391.267L109.766,391.109L108.917,390.608L108.734,390.455L108.58,390.286L108.518,390.184L108.474,390.052L108.332,386.343L108.302,386.211L108.255,386.099L108.134,385.9L107.109,384.617L107.022,384.552L106.766,384.576L105.712,384.855L105.217,385.099L105.009,385.156L104.819,385.178L103.872,385.141L103.735,385.164L103.363,385.268L102.825,385.356L102.064,385.363L101.928,385.383L100.915,385.636L99.173,386.252L99.1,386.263L98.804,386.348L98.537,386.391L97.589,386.358L97.304,386.384L97.036,386.434L96.685,386.555L96.462,386.659L96.221,386.736L95.94,386.765L95.788,386.767L95.511,386.799L95.39,386.836L94.951,387.044L94.823,387.066L94.687,387.068L94.431,387.031L94.299,387.042L94.073,387.127L93.945,387.157L93.802,387.154L93.663,387.129L93.528,387.087L93.291,386.981L93.161,386.938L92.88,386.89L92.719,386.906L92.551,386.947L92.339,387.035L92.182,387.055L91.906,387.02L91.771,387.023L91.201,387.246L90.93,387.292L90.326,387.243L90.074,387.295L89.73,387.433L89.36,387.543L89.213,387.604L89.045,387.756L88.811,388.042L87.633,390.604L87.571,390.859L87.553,391.057L87.604,391.322L87.64,391.442L87.834,391.894L87.907,392.139L87.922,392.275L87.915,392.423L87.885,392.564L87.629,393.269L87.012,394.554L86.876,394.972L86.672,395.409L86.473,395.682L86.155,396.01L85.508,396.897L85.2,397.244L84.385,397.742L83.572,398.417L83.371,398.538L83.166,398.633L82.91,398.679L82.687,398.696L82.602,398.717L82.511,398.811L82.43,398.963L82.342,399.454L82.383,405.821L82.339,406.102L82.167,406.65L80.722,408.282L80.038,408.911L79.851,409.187L79.69,409.617L79.236,414.182L79.211,414.309L79.119,414.54L76.982,418.18L76.84,418.538L76.818,418.694L76.818,421.238L76.686,421.397L76.452,421.527L75.296,421.916L73.151,422.142L72.614,422.253L70.038,423.888L69.324,424.226L67.967,425.267L67.824,425.459L67.773,425.798L67.668,425.949L66.34,426.132L63.879,425.721L63.211,425.833L62.758,425.765L61.819,425.373L60.508,425.508L59.017,425.166L58.203,425.187L57.462,425.53L57.079,425.646L56.321,425.439L55.566,425.455L55.259,425.333L54.906,425.084L54.535,424.925L54.135,424.88L53.702,424.967L53.373,425.153L52.817,425.58L52.469,425.659L51.986,425.438L51.628,424.916L51.433,424.278L51.445,423.705L51.755,423.083L52.727,421.981L53.127,421.324L53.417,419.967L53.453,419.136L53.28,418.62L52.866,418.6L51.991,419.464L51.345,419.516L50.716,419.151L50.407,418.665L50.346,418.083L50.865,415.045L50.985,414.864L51.255,414.459L51.613,414.316L52.376,414.348L52.756,414.281L53.029,414.111L53.546,413.585L54.457,412.434L54.769,412.191L54.979,411.906L54.945,411.557L54.703,410.824L54.735,410.399L55.325,408.541L55.313,408.382L55.183,408.189L55.044,408.134L54.869,408.142L54.691,407.84L54.625,407.614L54.657,406.869L54.608,406.555L54.379,405.963L54.365,405.701L54.657,405.01L55.529,403.662L55.849,402.955L55.966,402.038L55.276,397.905L54.786,396.836L50.863,390.466L46.939,384.092L42.652,379.9L40.203,378.165L36.847,373.245ZM376.438,128.647L376.682,128.824L376.764,128.884L376.868,129.21L376.592,130.891L376.419,131.297L376.181,131.301L375.939,130.726L375.922,129.934L376.097,129.161Z"/>
</svg>
