<svg xmlns="http://www.w3.org/2000/svg" viewBox="0 0 420 520" aria-label="Map of Sierra Leone">
  <path fill="currentColor" d="M408,256.838L407.912,263.691L403.879,279.947L401.567,284.992L401.303,287.979L402.258,291.718L403.289,294.355L402.923,296.811L399.696,299.961L397.154,301.436L394.578,302.244L391.887,302.621L381.306,302.676L378.682,303.076L375.598,304.607L373.666,307.02L370.622,312.7L369.226,314.031L365.904,315.876L364.725,316.852L364.189,318.091L364,319.645L364.325,351.659L361.315,352.124L360.359,352.452L354.171,355.825L349.188,360.073L331.684,381.485L330.296,383.182L328.839,384.331L327.097,385.083L322.107,386.239L316.746,389.261L297.277,404.724L294.93,407.744L286.397,418.72L285.265,419.793L274.467,424.686L272.237,425.15L267.668,432.331L265.295,434.531L264.889,435.03L265.234,436.41L267.092,439.456L267.526,441.116L267.261,442.271L266.563,442.988L265.587,443.343L262.726,443.664L262.306,444.545L262.78,447.209L262.489,449.183L261.676,451.69L260.422,453.861L256.829,455.917L256.28,458.157L256.558,461.503L255.541,462.111L251.383,464.03L249.206,462.267L243.809,461.03L241.183,459.654L238.696,457.901L236.716,456.164L237.901,455.97L238.514,455.68L238.909,455.19L239.406,454.357L235.728,454.266L234.127,454.518L233.059,455.26L232.238,455.26L231.047,452.292L229.216,450.372L222.267,444.521L203.714,433.688L173.001,422.503L141.371,409.885L116.221,401.839L120.208,398.496L125.006,398.313L129.917,399.885L134.208,401.839L133.995,400.676L133.365,399.831L132.378,399.304L131.08,399.126L130.066,398.835L128.999,397.226L127.942,396.418L125.492,395.444L124.099,395.32L121.772,396.575L120.656,395.999L119.583,395.04L118.495,394.535L118.078,393.404L119.231,390.923L120.918,388.435L123.384,386.271L124.755,384.241L126.485,382.82L128.839,383.606L130.28,382.917L131.801,382.691L135.1,382.712L135.772,382.562L137.357,382.007L138.238,381.883L139.194,382.163L140.784,383.358L141.377,383.606L143.965,382.885L146.196,381.523L148.716,380.333L152.206,380.16L151.94,379.708L151.641,378.728L151.395,378.265L153.786,377.544L156.204,377.21L157.998,376.273L158.558,373.672L157.581,373.672L156.765,373.871L155.879,373.925L154.955,374.065L154.075,374.577L153.306,373.376L153.098,372.848L151.801,373.096L150.306,373.139L149.057,373.349L148.545,374.124L148.203,375.271L147.349,375.837L145.043,376.467L143.496,377.21L140.976,377.285L139.685,377.581L136.989,378.873L134.134,379.423L131.337,380.586L129.735,380.979L128.887,380.893L126.255,380.295L124.814,380.16L121.841,379.062L120.88,376.531L120.192,373.742L118.003,371.863L118.003,371.049L118.655,370.441L119.023,369.665L119.119,368.648L118.986,367.344L117.998,368.244L117.037,368.858L116.167,368.928L115.404,368.174L114.507,368.174L114.507,370.053L111.321,366.946L112.965,362.508L118.003,355.511L120.149,356.658L120.854,357.321L121.676,356.416L120.896,354.687L120.784,352.861L121.553,351.455L123.384,350.992L120.736,349.192L118.377,351.277L114.507,357.321L107.969,361.388L103.72,362.944L101.809,361.431L100.795,361.49L92.373,359.88L91.529,359.858L90.686,359.729L89.352,359.212L84.131,355.506L82.226,354.633L80.609,353.41L79.413,350.992L78.975,348.567L79.37,346.951L80.689,345.782L83,344.667L80.63,345.044L73.963,347.786L67.777,343.762L66.016,340.303L64.799,338.859L62.813,338.255L61.383,337.636L59.648,336.121L56.862,332.834L59.44,332.317L63.892,329.795L66.357,329.213L68.418,329.482L70.585,330.134L74.94,332.01L72.293,329.288L68.962,326.971L66.133,324.346L63.924,317.884L63.667,317.458L63.07,317.01L63.294,316.002L64.116,314.25L64.42,312.374L65.247,310.531L66.411,308.838L67.777,307.425L63.555,306.843L61.794,305.183L60.753,302.611L58.735,299.278L57.241,298.259L55.469,297.515L53.98,296.399L53.371,294.263L53.451,292.36L53.729,290.623L54.284,289.005L55.159,287.436L53.974,287.668L53.216,288.18L52.539,288.763L51.572,289.248L50.665,289.442L50.105,289.415L49.48,289.313L48.402,289.248L42.616,290.154L39.632,291.314L36.03,293.406L32.774,295.93L30.809,298.378L29.993,298.378L30.281,296.275L29.993,290.645L29.422,287.851L29.352,286.222L29.993,284.718L28.456,283.472L23.913,276.141L23.652,276.082L23.364,275.607L22.75,275.526L22.131,275.267L21.858,274.269L21.191,272.855L17.861,268.431L16.911,267.838L16.334,266.543L15.533,265.291L13.879,264.811L15.694,262.507L16.27,261.444L16.478,259.744L16.121,258.498L14.413,255.999L13.879,254.769L16.67,255.195L17.455,255.675L18.352,255.125L18.656,255.449L19.248,256.582L21.469,255.632L23.849,255.675L26.182,256.42L28.205,257.564L29.87,259.442L32.555,263.921L37.065,266.306L40.257,269.327L43.577,271.679L45.931,271.323L47.094,271.151L47.094,270.244L45.493,269.888L44.116,269.23L43.123,268.172L42.616,266.619L44.404,266.619L44.404,265.717L40.561,264.827L36.942,263.575L35.021,261.557L36.264,258.384L37.807,257.235L41.746,255.708L43.427,254.769L44.409,253.446L45.21,252.005L46.256,251.25L47.991,252.054L47.943,250.526L48.327,249.069L48.984,247.752L49.784,246.613L51.065,246.964L59.744,247.59L62.21,248.27L63.667,248.427L64.745,248.038L67.372,246.198L68.589,245.625L66.181,245.107L63.39,245.447L60.929,245.226L60.636,243.731L60.529,243.812L63.048,240.627L67.777,230.229L64.5,234.256L62.397,237.868L59.835,240.605L55.159,242.009L52.827,241.89L50.857,241.512L49.128,241.512L45.733,243.563L43.385,243.763L41.202,242.991L39.851,241.177L42.803,240.627L44.356,239.018L45.68,237.107L47.991,235.666L47.991,234.759L46.822,234.57L46.107,234.332L45.637,233.835L45.221,232.944L44.404,232.944L43.161,237.031L42.232,238.619L40.748,239.288L38.64,238.629L36.782,237.031L34.396,233.852L33.051,234.602L32.026,234.451L31.29,233.56L30.809,232.118L30.169,234.37L31.258,235.822L33.243,236.751L35.373,237.479L33.58,238.381L37.193,241.091L37.396,244.055L35.474,246.899L32.683,249.253L33.233,250.37L33.227,251.552L32.592,252.491L31.258,252.869L30.19,252.459L29.39,251.455L25.91,245.625L24.933,243.531L24.1,239.634L23.043,237.215L21.698,234.948L20.465,233.398L19.857,231.956L19.75,229.775L19.985,225.693L20.641,225.623L19.985,211.565L23.652,207.411L25.141,207.054L25.717,207.513L26.155,208.383L27.233,209.22L37.311,209.145L39.403,208.804L42.072,207.621L45.845,207.249L53.371,207.411L47.959,205.741L47.094,206.13L46.107,206.865L43.86,206.876L41.426,206.4L39.851,205.677L38.399,206.309L36.302,206.714L34.396,206.487L33.58,205.18L33.163,204.186L32.251,203.915L31.306,203.937L30.809,203.78L30.713,202.743L31.05,202.338L31.482,202.1L32.784,199.496L35.41,198.264L38.672,197.67L41.645,197.519L41.645,196.524L39.36,195.79L36.398,196.325L30.809,198.34L27.756,198.659L24.458,197.951L21.885,196.071L20.956,192.904L20.449,193.499L20.156,193.569L20.017,193.78L19.985,194.801L18.063,192.904L17.327,193.05L17.087,193.585L16.793,194.028L16.478,194.801L13.66,192.494L14.108,186.176L12,183.75L12,182.928L15.111,180.656L20.85,178.868L24.273,178.25L26.34,178.744L31.316,181.888L34.305,182.932L36.291,182.602L40.271,179.675L45.331,177.21L47.71,175.69L49.496,173.462L51.228,169.294L52.309,167.358L53.574,165.549L54.319,165.164L56.377,164.965L56.854,164.814L56.716,163.719L54.916,161.497L54.336,160.162L54.94,156.343L57.017,152.243L59.759,150.296L62.315,152.964L65.186,151.436L67.748,151.258L70.27,151.436L73.032,150.976L75.221,149.139L78.353,143.914L80.627,142.75L82.434,142.242L82.512,141.222L81.987,140.019L81.956,138.965L83.01,137.566L83.756,136.907L85.966,135.653L86.528,135.749L87.196,136.199L87.84,136.337L88.352,135.502L88.691,134.698L89.128,134.2L90.036,133.43L90.639,132.595L95.11,118.17L95.137,117.503L94.879,116.902L94.964,116.352L95.971,115.864L96.717,115.637L97.137,115.41L97.418,115.056L97.764,114.455L98.909,110.093L99.526,108.969L100.74,108.515L102.018,108.673L103.071,108.591L103.604,107.439L103.763,101.805L104.153,101.385L106.295,97.593L107.498,96.369L111.572,93.873L111.999,93.793L112.169,93.288L112.145,91.662L112.402,91.015L113.053,91.008L113.731,91.111L114.138,90.791L114.084,90.131L113.589,88.642L113.507,88.243L115.297,78.365L115.283,76.965L115.117,76.064L115.205,75.238L115.992,74.031L120.713,71.251L126.661,69.073L146.37,64.858L149.407,64.972L151.766,66.524L154.156,68.681L157.27,70.611L159.738,71.526L161.9,72.004L164.13,72.101L168.268,71.195L192.933,65.798L193.828,64.562L194.465,56.434L250.243,56.124L278.08,55.97L281.408,56.317L285.848,57.653L287.665,57.814L289.116,59.088L290.071,62.047L291.854,70.824L292.824,72.383L302.571,78.585L307.954,83.783L312.522,89.691L315.641,95.678L317.179,100.199L317.979,101.468L318.711,101.928L320.847,102.719L321.701,103.403L322.27,104.442L323.151,107.927L324.121,109.23L327.483,111.571L328.757,112.888L329.218,113.984L329.889,117.641L330.825,118.875L332.187,119.521L333.184,120.38L333.041,122.27L332.33,125.579L332.886,127.936L334.316,129.933L336.268,132.101L338.322,133.437L338.58,134.186L337.176,135.165L335.916,136.33L337.542,136.872L339.861,136.976L340.708,136.811L341.996,136.982L343.392,136.969L344.613,137.25L346.185,139.597L347.751,140.995L349.5,142.173L350.869,142.819L356.462,147.72L356.631,149.379L356.13,150.852L355.37,152.326L354.767,153.991L354.781,155.131L355.309,157.384L355.14,158.613L354.096,160.162L352.706,161.03L351.235,161.69L349.954,162.6L347.616,166.747L346.185,172.483L347.121,177.306L351.832,178.744L357.255,178.552L362.468,179.094L365.532,179.97L367.091,181.253L367.222,182.114L367.343,182.906L367.396,183.251L365.382,191.116L364.759,195.724L364.989,205.395L365.206,206.723L366.399,210.476L366.433,211.062L366.291,212.468L366.359,212.952L366.806,213.501L367.748,214.118L368.114,214.451L373.49,221.625L375.469,223.069L376.188,224.345L381.814,231.919L380.79,234.761L379.001,237.346L376.533,239.07L373.51,239.31L370.853,239.838L368.331,241.953L366.25,244.764L364.156,248.63L362.135,250.553L361.22,252.16L360.915,253.918L360.929,255.491L360.563,256.54L359.146,256.722L357.255,268.183L355.323,271.393L352.937,274.216L349.92,278.686L348.571,283.002L351.208,285.348L352.164,280.903L354.754,278.128L358.475,276.909L362.813,277.142L364.759,277.971L368.514,280.403L369.904,280.711L372.304,279.748L376.906,276.707L384.654,269.101L386.261,267.049L389.433,260.56L390.708,258.754L392.24,257.318L393.894,256.245L395.866,255.491L399.859,254.923L400.74,254.991L404.326,256.077L405.377,256.674L406.495,257.044ZM118.003,378.265L116.509,379.191L116.381,380.709L117.198,384.591L116.845,386.949L115.949,388.344L114.78,389.679L113.616,391.821L113.483,393.921L114.609,398.302L114.507,399.949L112.842,401.489L110.568,401.866L108.455,401.069L107.264,399.126L109.944,399.126L108.161,395.816L105.861,392.57L103.24,390.088L100.544,389.114L98.639,388.947L86.677,385.77L82.402,383.563L71.273,381.883L57.839,378.265L57.839,377.285L62.739,376.095L63.262,374.286L64.868,372.611L66.806,371.863L71.855,371.055L86.17,371.049L88.369,370.737L93.323,369.445L101.158,368.777L103.875,368.981L106.442,370.053L104.51,372.347L105.797,373.026L110.851,372.848L113.194,373.527L115.068,374.711L116.621,376.337Z"/>
</svg>
