<svg xmlns="http://www.w3.org/2000/svg" viewBox="0 0 420 520" aria-label="Map of Senegal">
  <path fill="currentColor" d="M351.004,242.349L351.494,244.287L352.773,245.44L353.167,246.364L353.661,247.113L354.636,247.558L355.679,247.767L356.394,247.808L356.038,248.607L355.753,249.083L355.63,249.533L355.782,250.259L356.234,250.639L356.889,250.793L357.378,251.195L357.318,252.305L356.959,252.887L355.706,254.111L355.231,254.804L355.098,255.483L355.035,256.291L354.859,257.017L354.39,257.434L353.174,258.185L352.785,259.329L352.93,260.716L353.686,263.614L353.85,264.965L353.731,267.843L354.56,268.008L360.554,270.241L361,271.111L360.72,271.935L359.77,272.287L360.298,273.197L360.916,274.022L361.701,274.691L364.236,275.618L365.14,276.227L365.771,277.199L368.144,282.778L368.284,284.246L367.812,286.936L366.366,292.022L366.36,294.772L367.004,296.491L368.051,297.533L369.251,298.456L370.374,299.814L370.766,301.06L370.756,302.407L370.374,305.092L369.35,308.048L367.197,310.275L361.711,313.371L362.595,314.129L363.462,315.433L364.784,318.007L365.589,320.395L367.014,322.632L368.194,323.974L371.909,326.7L372.314,327.156L372.886,328.142L373.251,328.567L373.923,328.902L374.518,328.977L375.036,329.199L375.481,329.966L375.342,331.142L374.421,334.684L374.574,335.412L375.139,335.564L376.84,336.409L377.339,336.774L377.585,337.265L377.983,338.54L378.276,338.999L379.04,339.635L379.399,339.672L379.751,339.3L382.45,337.251L382.616,335.974L382.998,334.619L383.646,333.519L384.629,332.99L385.55,333.123L386.008,333.646L386.377,334.293L387.022,334.804L387.633,334.882L388.889,334.616L390.508,334.556L390.8,334.845L390.714,335.786L390.883,336.442L391.594,336.522L392.402,336.313L392.867,336.097L392.874,337.534L393.336,338.817L394.921,341.031L396.376,342.329L396.652,342.965L396.552,343.689L395.731,344.879L395.489,345.592L395.682,346.775L396.3,347.585L397.064,348.294L397.662,349.167L397.692,351.476L398.014,352.545L399.151,352.813L400.041,353.352L400.802,353.934L401.613,354.429L402.66,354.7L403.338,354.969L403.265,355.433L402.909,355.937L402.78,356.317L403.667,357.601L404.029,358.408L404.278,358.822L404.534,359.037L405.092,359.305L404.993,359.583L404.634,359.861L404.421,360.127L404.414,360.694L404.258,361.982L404.082,362.638L405.086,362.829L405.83,362.519L406.299,361.767L406.455,360.619L406.993,361.192L407.289,361.869L407.435,362.625L407.571,364.34L407.355,364.735L406.943,364.986L406.385,365.443L406.103,365.449L405.697,365.224L405.242,365.071L404.82,365.296L404.773,365.7L405.086,366.058L405.458,366.395L405.597,366.745L405.328,367.415L404.969,368.096L404.73,368.78L404.933,369.852L404.833,370.136L404.64,370.412L404.481,370.777L404.508,371.184L404.76,371.338L405.062,371.379L405.222,371.433L405.305,371.493L405.541,371.796L405.82,372.27L406.026,372.824L406.162,373.497L406.222,374.284L406.083,375.001L405.634,375.48L405.634,375.776L406.312,376.996L406.432,377.621L405.907,378.473L405.016,378.633L404.169,378.905L403.487,380.639L402.986,380.99L402.59,381.484L402.65,382.455L402.896,382.615L403.384,382.799L403.886,383.156L404.202,383.834L404.215,384.518L403.883,386.599L403.939,387.3L404.089,387.753L404.169,388.23L404.009,388.986L402.673,389.609L402.211,390.024L402.926,390.272L403.391,390.572L404.135,391.879L404.654,392.342L404.617,391.855L404.979,391.154L405.478,390.96L405.873,392.012L406.013,392.567L406.418,393.646L406.538,394.238L407.046,393.428L407.186,393.053L408,394.194L407.87,395.732L407.435,397.471L407.315,399.22L405.541,399.148L401.321,397.617L399.151,397.392L393.611,397.814L390.94,398.315L385.992,400.169L383.563,400.574L378.302,400.353L376.98,400.063L373.092,398.42L373.006,398.311L372.879,398.24L372.434,398.243L372.155,398.355L371.444,398.856L368.998,400.2L368.144,400.373L366.775,400.237L362.897,398.941L361.302,398.992L360.149,399.56L358.019,401.516L355.64,402.85L344.78,405.69L343.738,405.159L341.912,402.343L340.763,401.509L337.975,400.499L336.624,400.169L335.511,400.118L334.427,400.339L333.171,400.829L331.294,401.867L330.813,402.009L330.73,402.033L329.813,402.006L329.579,401.751L329.531,401.292L329.187,400.666L327.378,398.641L326.319,397.78L325.065,397.26L323.744,397.107L319.59,397.341L318.264,397.168L317.885,396.627L317.608,395.98L316.583,395.483L314.677,395.344L314.062,395.106L313.386,394.483L313.25,393.921L313.353,393.479L313.381,393.22L311.784,391.811L309.271,390.497L306.933,390.524L305.856,393.149L305.645,394.418L304.904,395.065L303.851,395.14L302.704,394.69L301.458,394.83L300.342,394.718L299.393,394.2L298.652,393.138L298.366,391.859L298.599,390.773L299.556,388.533L299.8,387.399L299.87,386.074L299.592,384.835L298.768,383.936L297.788,383.786L296.676,383.97L295.498,384.008L294.34,383.408L293.737,384.14L293.227,383.79L292.803,383.749L292.35,383.817L291.775,383.813L290.961,384.059L290.702,384.103L290.409,383.953L289.795,383.289L289.439,383.115L288.954,383.153L287.866,383.459L287.307,383.548L286.747,383.456L285.955,382.938L285.413,382.788L284.848,382.829L282.923,383.238L282.612,383.343L282.462,383.531L282.286,383.691L281.911,383.718L281.6,383.602L281.047,383.207L280.751,383.081L280.548,383.026L277.657,382.233L256.854,381.467L234.06,381.371L217.318,381.301L211.261,381.276L188.47,381.177L183.298,381.156L165.674,381.082L162.531,381.068L160.686,381.348L159.018,382.111L155.283,384.808L151.372,386.609L147.958,389.128L147.773,389.265L131.54,396.889L129.324,397.355L118.235,396.699L117.597,396.661L112.493,397.025L111.257,396.797L107.236,395.446L104.953,395.242L100.095,396.089L99.66,396.28L99.38,396.498L99.078,396.62L98.55,396.528L97.161,395.977L96.473,395.851L95.798,395.994L91.359,398.41L86.208,401.2L84.261,401.996L81.021,402.023L77.665,402.863L76.478,402.911L67.762,402.326L65.4,402.897L63.932,403.918L63.509,403.086L63.206,402.216L62.923,400.868L62.515,400.421L61.549,399.741L60.071,398.294L59.412,397.442L59.139,396.593L59.139,393.851L59.281,393.256L59.914,392.677L60.058,392.074L60.529,391.38L63.724,389.461L65.126,389.413L67.122,389.582L69.273,388.231L69.961,387.654L70.328,387.118L70.608,386.566L71.032,385.944L73.494,384.142L74.676,385.525L75.587,388.024L76.479,388.587L76.518,387.563L77.178,386.759L78.316,386.432L79.58,386.716L81.736,387.949L83.672,388.485L85.802,389.493L86.919,389.582L88.183,388.97L89.729,387.048L90.867,386.432L92.364,386.496L93.638,386.96L94.91,387.097L96.378,386.188L97.126,385.885L97.626,386.461L98.003,387.298L98.372,387.78L103.38,385.901L104.531,385.627L106.072,385.531L107.069,385.236L107.901,384.625L108.859,384.131L110.266,384.185L111.394,384.796L113.097,386.155L114.118,386.973L114.657,387.579L115.405,387.713L119.526,387.78L119.921,388.07L120.753,388.946L121.062,389.131L121.63,389.054L123.278,388.641L124.016,388.182L124.731,387.314L125.641,386.791L126.986,387.375L127.337,387.072L127.745,386.871L128.161,386.863L129.04,387.504L129.414,387.44L129.744,387.279L130.1,387.375L130.602,387.957L131.034,389.075L131.379,389.582L131.795,389.965L132.256,390.244L132.837,390.415L133.616,390.437L134.346,390.287L137.285,389.07L138.462,387.863L140.438,385.287L141.173,384.74L141.827,384.402L142.293,383.943L142.471,383.037L142.102,382.635L141.398,382.326L141.005,381.97L141.555,381.441L140.927,379.948L140.341,377.941L140.131,375.886L140.681,374.239L141.424,373.788L142.345,373.756L143.311,373.842L144.19,373.748L145.085,373.354L145.694,372.879L146.097,372.275L146.388,371.497L147.709,372.79L148.918,373.139L149.739,372.444L149.896,370.6L148.902,371.647L147.955,371.615L146.984,371.188L145.945,371.046L144.975,371.478L143.389,372.651L142.235,372.892L141.584,372.895L140.618,373.032L139.744,373.493L139.362,374.464L139.362,378.29L140.09,380.763L140.202,381.441L140.241,382.517L140.194,383.048L140.001,383.488L138.444,384.836L137.949,385.48L134.71,388.437L133.857,388.973L133.093,389.011L132.423,388.71L131.858,388.231L132.224,386.26L130.272,385.37L125.712,384.63L122.616,386.609L121.481,386.879L121.261,386.67L120.978,386.206L120.515,385.74L119.746,385.531L118.961,385.673L117.875,386.292L117.093,386.432L116.347,386.223L115.379,385.718L113.778,384.63L113.702,384.305L113.783,383.839L113.814,383.421L113.574,383.244L112.721,383.128L112.273,382.994L111.983,382.833L111.58,382.286L110.703,380.54L110.468,380.318L110.172,380.194L109.926,379.964L109.683,378.558L109.351,377.802L108.953,377.802L108.953,378.29L108.859,378.561L108.168,379.913L107.87,380.339L107.629,382.587L105.834,383.734L103.202,384.185L102.521,384.48L101.198,385.351L100.805,385.531L100.125,385.456L98.568,385.043L96.137,385.043L95.415,385.214L94.188,385.761L93.5,385.944L92.725,385.944L90.648,385.531L89.949,385.673L89.054,386.292L88.473,386.432L88.254,386.743L87.937,387.45L87.497,388.198L86.919,388.641L84.282,387.78L82.147,386.558L81.15,385.718L80.731,384.836L80.475,384.683L79.886,384.498L79.292,384.206L78.975,383.734L79.083,383.08L79.491,382.495L80.082,382.077L80.731,381.932L80.731,381.441L79.742,381.417L79.117,380.918L78.756,380.119L78.536,379.191L78.096,384.63L77.612,384.63L76.762,383.485L74.399,381.433L74.106,380.135L73.352,380.741L72.855,381.474L72.269,382.085L71.251,382.342L70.482,382.182L69.961,381.731L69.705,381.031L69.752,380.135L70.663,378.413L71.945,377.12L72.787,375.623L72.39,373.297L72.102,375.084L71.95,375.591L71.605,376.171L71.306,376.455L71,376.646L69.721,377.834L69.176,378.513L68.91,379.365L68.831,380.766L69.292,383.101L69.155,384.179L67.219,385.013L64.406,387.375L62.248,388.134L61.06,387.426L60.56,385.721L60.453,383.488L60.804,381.16L61.824,378.842L63.48,377.544L65.725,378.29L65.827,377.313L64.909,376.595L63.577,376.326L62.447,376.718L61.123,378.352L60.387,378.883L59.574,378.703L59.956,378.167L60.087,377.598L59.956,377.04L59.574,376.493L60.971,374.534L61.251,373.558L60.934,372.398L60.453,372.398L60.152,373.128L59.712,373.45L59.312,373.198L59.139,372.194L59.296,371.406L59.681,370.563L61.976,367.133L62.209,366.295L62.143,365.452L61.84,363.906L61.769,363.149L61.913,361.769L62.546,359.027L62.687,357.268L62.588,356.188L62.311,355.635L62.409,354.115L62.641,353.376L63.05,352.837L64.067,351.831L64.27,351.196L65.22,349.582L67.463,349.078L70.261,349.106L80.858,349.203L90.628,349.292L104.853,349.421L113.234,349.496L117.368,349.535L119.082,349.551L121.492,349.572L121.924,349.253L122.043,344.548L122.067,343.517L122.176,338.832L122.432,337.9L123.176,337.487L127.659,337.053L130.547,336.127L131.358,336.107L135.694,336.532L136.744,336.426L138.678,335.775L140.164,334.961L141.669,334.392L143.676,334.481L150.691,335.984L153.06,335.98L155.153,335.593L157.26,334.809L159.108,333.574L160.43,331.842L160.819,330.014L161.062,325.924L161.962,324.454L163.417,322.937L164.757,321.538L166.226,320.944L167.994,322.101L170.881,324.827L174.075,327.156L174.085,327.159L174.098,327.17L174.108,327.176L178.311,329.336L180.485,329.908L182.947,330.11L183.914,330.395L186.064,331.721L187.244,332.107L188.56,332.36L189.247,332.787L190.543,334.606L192.338,336.216L194.488,337.13L196.837,337.411L199.22,337.13L201.303,336.604L202.038,336.867L203.878,338.589L204.473,339.146L205.327,339.635L206.258,339.906L208.282,339.988L209.137,340.23L209.857,340.98L210.348,341.644L210.956,342.194L211.638,342.663L213.982,343.884L215.664,344.363L217.403,344.5L221.06,344.175L224.551,344.834L226.412,344.769L227.817,344.071L230.906,341.729L231.87,341.294L232.983,341.308L235.743,340.302L238.335,340.271L240.917,339.573L245.775,339.153L248.96,337.753L250.791,334.947L251.038,331.565L249.497,328.439L248.847,327.899L247.388,327.033L246.936,326.645L246.802,326.529L246.468,325.972L246.057,324.717L245.725,324.141L244.648,323.258L243.105,322.468L241.472,321.896L240.121,321.66L239.258,321.8L237.949,322.574L237.193,322.913L236.522,323.019L235.404,322.923L234.713,322.947L233.408,323.275L230.434,324.808L226.724,325.652L225.505,326.184L221.941,328.419L218.164,329.775L217.049,330.045L215.875,329.881L214.329,329.151L209.664,325.793L209.14,325.416L208.491,324.704L208.074,323.817L207.215,320.944L206.603,319.679L205.734,318.583L204.49,317.579L201.729,316.28L199.083,316.078L196.478,316.781L192.531,319.002L191.736,319.258L190.836,318.932L188.194,317.323L187.749,316.818L186.499,312.524L185.924,311.305L185.11,310.176L184.059,309.321L182.841,308.329L180.491,307.543L173.998,307.249L170.17,305.788L168.794,305.719L164.106,307.454L159.261,310.569L157.892,310.896L157.347,310.482L156.101,308.818L155.499,308.243L152.714,307.795L149.737,308.929L147.019,310.937L145.015,313.114L144.301,314.241L143.636,315.627L143.131,317.082L143.052,317.533L142.895,318.429L142.765,321.056L141.755,321.398L138.608,321.388L134.617,321.371L130.62,321.357L126.629,321.34L122.631,321.326L118.637,321.309L114.646,321.296L110.649,321.279L106.654,321.265L105.283,321.261L102.664,321.255L98.669,321.238L94.678,321.224L90.681,321.207L86.687,321.193L82.696,321.176L78.701,321.162L74.673,321.146L74.666,321.133L74.033,320.162L73.708,319.47L73.75,317.612L74.849,316.581L76.466,315.741L78.096,314.459L77.753,314.268L77.091,313.769L76.738,313.597L77.555,312.813L78.156,311.803L78.049,311.001L76.738,310.842L76.911,311.9L76.597,313.182L75.914,314.082L74.985,314.009L74.525,315.399L73.525,316.338L72.264,316.694L71.032,316.306L69.904,315.116L69.619,313.896L70.152,311.294L70.278,309.659L70.448,308.999L71.032,308.129L73.316,305.408L73.708,304.473L74.085,304.718L75.09,305.192L75.461,305.418L75.317,305.117L74.985,304.02L77.217,303.613L77.327,304.923L77.79,306.162L78.52,306.911L79.454,306.736L78.967,305.224L78.858,303.551L78.583,302.228L77.612,301.759L77.955,300.864L79.349,294.696L79.454,293.62L78.049,295.691L77.46,296.985L76.953,299.726L76.293,301.365L75.443,302.454L74.582,302.212L74.106,302.212L73.462,303.101L72.327,303.446L70.992,303.624L69.752,304.02L69.061,304.602L68.831,305.152L68.724,305.715L68.397,306.324L68.046,306.647L67.308,307.073L66.884,307.434L66.243,308.652L65.757,309.093L65.105,308.789L64.901,308.145L64.896,307.326L64.775,306.623L64.187,306.324L63.368,305.742L63.033,304.432L63.119,303.042L63.567,302.212L63.174,301.306L62.902,300.276L62.687,298.141L62.75,297.017L62.97,296.373L63.368,295.936L64.846,294.75L65.6,294.458L66.424,294.421L68.316,294.639L69.213,294.922L69.825,295.456L69.752,296.335L70.652,295.521L71.361,294.542L72.256,294.005L73.708,294.526L73.685,293.067L74.19,292.414L75.003,292.01L75.898,291.319L75.098,291.6L74.226,291.783L73.415,291.621L72.787,290.904L75.694,289.089L76.738,288.147L78.408,286.086L79.321,285.293L81.385,284.688L82.385,283.415L83.164,283.123L83.701,283.377L84.216,283.863L84.75,284.154L85.381,283.825L85.77,283.528L86.812,283.026L87.319,282.67L83.269,282.516L81.532,281.85L81.647,280.411L80.632,280.943L80.255,281.901L80.454,282.905L81.171,283.577L80.373,284.025L79.711,283.973L79.067,283.728L78.316,283.577L77.774,283.782L77.544,284.284L77.413,284.894L77.217,285.43L75.566,288.368L74.985,289.054L74.326,289.356L72.934,289.687L72.17,290.203L71.605,290.931L70.804,292.471L70.152,293.126L68.708,293.612L67.342,293.337L65.953,292.851L64.406,292.714L65.916,289.987L65.963,289.507L67.047,289.194L68.831,287.198L67.97,287.454L67.138,288.749L66.424,289.054L65.003,289.097L64.44,289.226L63.967,289.507L64.723,290.391L64.66,290.985L63.567,292.26L63.378,292.77L63.213,293.719L62.886,294.275L61.609,295.742L61.332,296.335L61.039,298.195L61.332,304.473L60.934,304.473L60.552,291.756L60.231,289.836L59.166,286.644L57.993,284.284L57.42,283.577L56.58,283.183L54.906,282.805L54.267,282.222L53.935,281.267L53.388,277.69L52.97,276.556L52.452,275.722L51.235,274.48L50.678,274.172L50.254,274.081L49.976,273.805L49.877,272.936L49.955,272.255L50.28,270.951L50.356,270.192L50.042,269.095L49.265,267.917L47.245,265.864L42.645,263.681L41.938,262.919L41.572,262.044L39.301,258.614L37.605,254.043L35.01,250.446L33.163,248.734L32.058,247.969L30.795,247.379L29.4,247.144L28.359,246.849L25.632,245.409L25.213,244.917L23.089,244.944L21.242,244.717L19.63,244.825L18.188,245.864L18.73,246.502L19.504,246.735L19.023,247.703L18.188,248.098L18.408,248.309L18.803,248.791L19.023,249.002L18.625,249.954L18.408,250.019L18.188,250.406L17.343,249.854L13.02,244.468L12,243.516L22.615,240.663L25.755,238.087L35.347,233.974L37.553,232.185L47.773,219.923L49.819,216.86L54.299,211.847L63.242,195.89L67.711,189.921L76.118,175.728L76.416,175.059L76.306,174.371L75.898,173.425L77.352,170.915L77.984,167.229L78.136,159.947L78.519,159.179L79.406,156.223L80.522,153.525L80.808,148.993L81.273,147.647L82.211,146.834L84.583,146.263L85.587,145.599L85.992,144.917L86.268,144.131L88.9,132.791L89.235,130.116L89.72,128.859L90.611,127.601L91.797,126.44L93.166,125.597L94.632,125.299L96.759,125.708L97.48,125.76L98.211,125.629L98.865,125.32L100.756,123.965L101.494,123.618L102.268,123.479L103.079,123.639L103.67,124.003L104.146,124.499L104.923,125.663L106.013,126.824L107.316,127.459L108.768,127.628L110.303,127.41L110.762,127.081L111.217,126.842L111.699,126.758L112.234,126.887L113.064,127.219L113.47,127.257L113.945,127.164L116.494,126.02L117.401,125.916L119.647,126.464L120.189,126.464L121.774,126.176L122.801,126.228L125.708,127.188L127.795,127.306L128.34,127.469L129.859,128.197L130.866,128.457L131.853,128.401L132.803,128.079L133.69,127.511L135.113,126.197L135.873,125.722L136.854,125.566L139.615,126.138L140.566,126.044L141.33,125.663L141.948,125.077L143.51,122.824L144.307,122.11L145.241,121.687L146.215,121.774L146.819,122.276L147.188,122.959L147.627,123.587L148.421,123.93L149.368,123.909L150.272,123.68L152.98,122.543L153.984,122.325L156.047,122.252L159.091,122.737L160.128,122.699L167.033,121.604L168.389,121.091L168.808,120.813L169.084,120.432L169.107,119.932L168.894,119.506L167.854,118.483L167.472,117.585L167.601,116.718L168.16,116.055L169.077,115.802L170.004,116.083L170.585,116.735L171.091,117.505L171.762,118.15L172.224,118.303L172.702,118.257L173.157,118.063L173.556,117.762L173.872,117.349L174.015,116.915L174.218,115.975L174.633,115.354L175.294,114.91L176.73,114.31L177.461,114.685L178.301,115.59L178.361,115.709L178.85,116.683L179.518,117.533L180.704,117.716L182.665,117.245L193.647,118.042L194.388,117.952L196.561,117.38L197.199,117.363L197.764,117.522L199.572,118.386L200.28,118.511L200.991,118.486L203.684,117.72L204.37,117.703L206.977,118.251L207.673,118.264L208.361,118.185L209.033,118.001L209.669,117.706L211.355,116.686L211.972,116.444L213.233,116.364L217.308,117.983L217.805,118.327L218.074,118.826L218.048,119.561L217.709,120.837L217.818,121.351L218.42,121.625L220.884,121.403L221.507,121.701L221.725,122.221L221.809,123.42L222.143,123.94L222.813,124.256L224.355,124.363L225.088,124.495L225.609,124.807L226.701,126.249L227.158,126.675L228.681,127.763L230.865,130.328L234.684,133.813L236.819,135.056L237.255,135.462L238.378,136.816L238.949,137.19L240.214,137.685L240.805,138.014L241.191,138.468L241.236,138.935L240.83,139.967L240.711,140.535L240.842,140.971L241.475,141.805L241.757,142.408L241.781,142.972L241.452,144.173L241.691,145.242L242.786,145.841L245.308,146.585L245.838,146.9L246.851,147.675L247.275,148.135L247.594,148.679L248.137,150.481L248.443,151.121L248.849,151.709L249.359,152.207L249.942,152.574L250.485,152.712L251.007,152.66L251.514,152.474L252.567,151.861L253.604,151.059L254.042,150.575L255.184,148.907L255.669,148.436L256.214,148.118L256.781,147.959L257.377,147.928L257.992,148L257.861,148.859L257.495,149.982L257.208,150.865L257.414,151.567L257.718,151.758L258.384,152.021L258.675,152.235L258.746,152.349L258.846,152.588L258.929,152.685L259.085,152.778L259.479,152.93L259.657,153.027L260.079,153.401L260.22,153.487L260.668,153.567L261.089,153.453L262.85,152.505L263.221,152.425L264.428,152.418L264.654,152.394L265.141,152.245L267.092,151.394L270.478,150.668L271.354,150.308L271.709,150.198L272.076,150.184L272.502,150.27L272.62,151.204L271.541,153.238L271.423,154.276L272.076,154.725L274.421,153.802L275.389,153.826L275.708,154.182L276.225,155.085L276.542,155.476L278.312,156.676L278.699,157.156L278.86,157.672L278.925,158.844L279.013,159.359L279.907,161.613L280.321,162.308L280.806,162.947L281.371,163.535L282.994,164.779L283.369,165.294L283.511,165.85L283.471,166.42L283.225,167.55L283.225,168.099L283.363,168.549L283.637,168.949L284.802,170.317L285.373,171.347L285.682,172.486L285.701,173.778L285.558,174.341L285.343,174.907L285.2,175.474L285.285,176.044L285.617,176.499L286.068,176.855L287.051,177.435L287.566,177.839L287.998,178.305L288.731,179.386L289.007,179.941L289.08,180.432L288.967,180.922L287.995,182.451L287.759,182.993L287.689,183.586L287.782,184.149L288.391,185.808L289.358,185.781L291.286,185.439L292.224,185.491L292.685,185.681L293.875,186.545L294.345,186.737L295.826,187.14L296.63,187.613L297.318,188.249L297.781,189.034L297.932,189.974L297.57,192.485L297.579,193.066L297.698,193.634L297.924,194.246L298.293,194.532L300.262,195.042L301.184,194.923L302.156,194.318L303.007,193.628L303.952,193.099L304.959,192.961L305.979,193.437L306.385,193.932L306.582,194.511L306.841,196.356L307.054,196.809L307.7,197.666L307.99,198.166L308.111,198.683L308.121,200.917L308.365,202.004L308.895,203.029L309.676,203.875L313.506,206.503L314.325,207.373L314.742,208.463L314.395,209.388L313.328,209.562L311.131,209.333L310.477,209.83L310.864,210.662L312.334,212.141L312.894,212.587L313.466,212.791L314.081,212.803L315.455,212.515L316.134,212.515L316.782,212.701L317.367,213.109L317.704,213.567L317.865,214.079L317.879,214.626L317.532,216.317L317.575,216.842L317.772,217.446L317.847,217.625L319.467,218.146L319.977,218.641L321.88,220.487L323.599,221.222L323.646,221.216L324.309,221.129L326.342,220.504L327.331,220.353L327.931,220.564L328.438,221.074L329.268,222.129L332.811,224.233L333.934,225.086L334.617,225.491L336.122,225.842L336.808,226.224L337.363,226.858L337.669,227.507L339.168,232.817L339.204,233.534L340.091,234.067L342.261,236.665L343.393,237.621L347.438,239.539Z"/>
</svg>
