<svg xmlns="http://www.w3.org/2000/svg" viewBox="0 0 420 520" aria-label="Map of Somalia">
  <path fill="currentColor" d="M219.93,210.955L220.689,210.217L221.422,209.504L223.035,207.94L224.651,206.375L225.384,205.664L227.133,203.964L228.882,202.265L230.629,200.564L232.381,198.867L234.133,197.165L235.883,195.465L237.632,193.766L239.377,192.064L241.127,190.363L242.879,188.66L244.629,186.961L246.378,185.26L248.131,183.56L249.884,181.858L251.633,180.155L253.382,178.453L255.131,176.75L256.88,175.048L258.295,173.67L258.63,173.344L260.379,171.643L262.132,169.94L263.881,168.237L265.628,166.535L267.379,164.83L269.127,163.128L270.878,161.424L272.634,159.72L274.384,158.016L276.542,154.709L278.701,151.398L280.859,148.091L283.025,144.783L285.184,141.476L287.346,138.165L289.512,134.85L291.671,131.544L293.829,128.227L295.99,124.914L298.156,121.603L300.313,118.284L302.473,114.971L304.637,111.656L306.79,108.338L308.951,105.02L308.951,100.95L308.951,100.917L308.951,96.812L308.951,92.704L308.951,88.6L308.951,84.494L308.951,80.383L308.951,76.272L308.951,72.161L308.951,68.044L308.951,63.929L308.951,59.811L308.951,55.696L308.951,51.574L308.951,47.453L308.951,43.33L308.951,39.204L310.308,39.121L315.047,38.196L319.771,37.326L321.157,36.714L321.705,35.943L322.071,35.668L322.52,35.848L322.862,36.047L323.232,36.065L325.55,35.848L326.238,35.691L326.81,35.461L328.738,34.334L329.412,34.207L329.931,33.892L330.748,32.315L331.258,31.698L331.915,31.458L332.735,31.396L334.353,31.446L334.552,31.381L335.126,31.05L335.461,30.947L335.874,30.932L336.937,31.174L340.126,31.518L341.796,31.279L342.857,30.422L343.138,30.457L343.783,30.036L344.199,29.92L344.34,29.848L344.791,29.516L345.069,29.417L345.333,29.44L345.579,29.53L345.752,29.624L345.808,29.669L349.093,29.571L349.764,29.669L351.889,28.522L352.595,27.861L352.982,27.66L354.268,27.687L354.591,27.535L354.872,27.319L355.27,27.119L356.815,26.708L357.556,26.224L360.56,23.78L362.21,23.445L362.89,22.983L364.091,21.613L365.187,20.621L365.615,20.018L365.791,19.229L365.838,18.398L365.984,17.563L366.219,16.77L366.547,16.066L367.362,14.989L367.892,14.509L368.393,14.306L368.833,14.251L369.747,13.803L369.914,13.559L370.072,13.381L370.239,13.278L370.456,13.291L370.773,13.498L370.972,13.529L371.746,13.316L373.255,12.662L374.576,12.382L374.951,12.123L375.883,12L378.375,13.702L382.085,14.091L384.218,15.829L384.921,16.066L387.76,16.066L388.464,16.252L389.686,16.922L390.354,17.072L391.189,17.091L392.059,17.21L392.789,17.509L393.702,17.742L393.15,18.937L392.754,20.457L392.142,21.579L392.37,23.312L392.085,24.388L391.428,24.995L390.815,26.022L389.689,27.092L388.496,28.665L387.655,29.557L387.514,29.794L387.552,30.205L387.722,30.768L387.76,31.059L387.664,31.901L387.426,32.699L386.266,35.237L386.09,35.813L386.02,38.22L385.774,39.767L386.257,41.449L387.877,42.449L389.444,42.522L389.986,43.272L389.082,44.063L388.285,45.837L387.892,46.407L387.62,46.925L387.423,47.727L387.306,48.591L387.646,53.681L388.139,60.199L388.947,63.067L388.719,63.461L387.892,63.599L387.031,63.869L386.832,64.528L387.022,66.123L386.843,66.868L386.486,67.327L385.932,67.559L385.167,67.623L384.452,67.863L383.822,68.428L383.526,69.089L383.825,69.624L384.534,69.746L390.02,68.647L390.398,68.696L390.794,68.803L391.098,68.796L391.224,68.51L391.069,68.102L390.732,67.878L390.395,67.717L390.24,67.5L390.213,66.662L390.114,65.898L389.888,65.151L389.504,64.373L390.067,64.88L390.628,65.278L391.108,65.761L391.731,66.123L392.043,66.341L392.451,66.534L393.265,67.138L393.696,67.403L394.368,67.551L394.897,67.674L395.257,67.603L395.617,67.388L396.025,67.269L396.769,67.344L397.392,67.442L397.677,68.259L398.18,68.597L397.961,69.244L397.476,70.489L397.027,70.646L396.851,70.799L396.578,71.016L396.705,71.518L396.393,71.517L395.746,71.25L395.266,71.273L394.688,71.123L393.995,71.34L392.988,71.144L392.719,70.45L392.631,70.021L392.402,69.592L391.84,69.398L386.407,70.068L383.779,70.997L380.548,72.977L379.917,74.156L379.623,76.395L380.023,78.502L378.978,81.267L379.154,82.935L379.576,84.09L379.623,84.544L379.552,84.944L379.23,85.481L378.758,88.018L378.884,88.427L378.468,89.194L378.234,89.868L377.905,91.693L377.422,93.02L377.158,93.422L377.352,94.44L377.29,94.81L377.102,95.494L376.842,97.722L376.182,98.694L376.159,99.809L376.428,101.736L377.284,104.078L377.413,104.841L377.308,105.532L377.053,106.173L374.82,109.836L374.099,110.41L372.587,111.06L371.98,111.457L371.523,112.028L370.45,113.773L370.239,114.32L370.529,116.649L370.503,117.455L369.97,118.813L368.921,120.099L364.973,123.232L363.866,124.377L362.986,125.558L362.35,126.689L361.843,128.175L361.19,131.192L360.63,132.455L358.91,134.56L358.661,135.316L358.769,137.522L358.661,138.175L358.081,139.531L357.603,140.18L357.052,140.457L356.378,140.697L356.015,141.284L355.763,142.015L355.44,142.695L353.131,145.764L352.785,146.228L352.243,147.415L351.223,150.634L350.432,152.034L349.251,153.152L344.609,156.009L341.465,159.247L340.823,160.294L340.401,161.617L340.067,164.185L340.261,164.617L340.794,164.969L340.946,165.783L340.853,166.697L340.647,167.345L339.619,168.813L338.543,169.984L338.23,170.602L338.089,172.188L337.94,172.827L334.218,179.362L332.266,182.788L329.887,185.515L324.36,193.279L321.702,198.531L320.049,201.081L318.27,206.051L313.834,215.413L313.737,216.209L313.81,217.024L314.15,218.537L314.226,219.323L313.711,222.491L312.445,225.232L309.396,230.501L305.746,236.81L300.189,245.391L298.422,249.272L297.464,250.577L294.871,253.07L291.266,259.085L286.976,263.752L282.422,269.923L277.138,280.618L273.279,286.248L269.393,290.427L259.937,300.591L256.742,305.05L251.21,310.738L246.568,315.579L240.557,321.905L239.59,322.922L233.155,330.446L228.323,334.746L225.647,337.968L220.68,342.117L218.034,344.836L215.775,346.451L215.704,346.756L215.534,347.12L215.329,347.422L215.159,347.546L214.553,347.775L214.192,348.347L213.911,349.078L213.536,349.782L213.032,350.156L211.631,350.813L208.24,354.372L207.827,354.908L207.238,356.017L206.895,356.475L205.383,357.431L204.829,358.475L204.088,359.085L196.861,363.746L192.741,366.07L188.914,368.278L176.691,375.332L175.466,376.039L174.692,376.203L174.297,376.329L167.158,379.689L161.039,383.892L160.767,384.231L160.342,384.401L155.448,387.931L150.903,390.76L143.079,396.851L139.067,400.97L138.24,401.327L136.781,402.224L136.336,402.629L136.212,402.923L136.125,403.291L136.066,403.996L135.919,404.141L135.237,404.34L135.087,404.475L134.832,404.833L132.28,407.386L131.547,407.864L130.771,408.066L130.331,408.423L128.669,410.543L124.608,412.717L123.242,413.72L121.525,416.12L120.915,416.469L120.417,416.64L118.814,417.922L111.925,424.562L105.366,431.964L101.744,435.519L98.333,438.864L91.165,446.797L86.814,451.565L84.718,453.271L82.403,455.152L79.974,457.622L79.095,458.868L79.01,459.237L79.024,459.556L78.91,459.785L78.04,459.97L77.776,460.207L76.352,462.106L76.161,462.704L76.595,463.091L76.232,463.689L76.103,463.829L76.106,463.609L76.088,463.425L76.018,463.258L75.857,463.091L73.934,464.588L73.644,464.946L73.407,465.538L72.856,466.182L71.675,467.276L68.088,471.598L67.962,471.909L67.962,472.184L67.909,472.384L67.587,472.46L67.452,472.586L65.999,474.857L65.073,475.813L64.536,476.217L63.956,476.498L63.27,476.663L62.195,476.639L61.653,476.75L61.327,477.131L62.019,477.281L61.99,477.981L61.667,478.758L61.442,479.119L60.929,479.391L60.407,480.039L59.997,480.815L59.827,481.481L59.666,481.768L58.47,482.706L58.066,482.911L57.922,482.662L57.767,481.15L57.805,479.734L57.594,479.119L57.377,479.119L57.471,479.664L57.362,480.068L57.187,480.429L57.102,480.865L57.149,481.29L57.327,481.818L57.377,482.214L57.477,482.665L57.717,482.882L57.969,483.034L58.11,483.321L58.057,483.77L57.688,484.508L57.594,484.93L57.401,485.391L56.557,486.159L56.363,486.417L56.305,486.885L56.135,487.278L55.894,487.636L54.535,489.26L54.376,489.626L54.499,489.96L54.781,489.94L55.121,489.74L55.384,489.518L54.951,490.47L54.136,490.567L53.386,490.013L53.146,489.002L52.923,489.002L52.964,489.734L53.386,491.018L53.415,491.704L53.192,492.367L49.436,498.446L48.589,499.49L47.903,500.551L46.549,503.274L45.872,503.822L45.055,504.286L43.774,506.426L43.047,507.041L43.27,507.041L42.335,508L42.366,507.28L42.461,505.024L42.331,504.343L41.895,503.55L40.515,501.763L38.702,499.417L36.886,497.076L35.029,494.675L33.257,492.385L31.612,490.263L29.629,487.698L27.786,485.312L26.004,483.012L25.088,481.825L24.169,480.641L23.257,479.454L22.338,478.266L22.304,475.531L22.271,472.992L22.237,470.454L22.185,466.542L22.133,462.634L22.081,458.73L22.029,454.818L22.003,452.388L21.973,449.958L21.932,447.007L21.932,442.503L21.932,438.004L21.932,433.5L21.932,429.001L21.932,424.497L21.932,419.999L21.932,415.498L21.932,410.997L21.932,406.495L21.932,402.602L21.932,401.993L21.932,397.491L21.932,392.99L21.932,388.487L21.932,383.983L21.932,379.481L21.932,374.976L21.932,371.141L21.932,367.306L21.932,363.469L21.932,359.633L21.932,356.96L21.884,352.107L21.839,347.461L21.82,345.531L22.338,344.531L23.57,343.308L26.528,340.378L29.491,337.445L32.453,334.51L35.408,331.576L37.273,328.907L39.134,326.242L40.998,323.571L42.859,320.904L45.881,316.572L48.899,312.239L51.921,307.908L54.936,303.575L55.42,302.864L55.915,302.465L56.105,302.014L56.075,300.908L56.32,300.206L56.961,299.641L59.503,298.078L61.538,296.451L62.781,295.825L63.95,295.529L67.065,295.498L69.782,295.47L74.021,294.749L79.54,293.804L84.955,292.879L87.516,292.441L89.023,291.838L90.366,290.955L90.412,290.904L91.472,289.715L92.015,288.552L92.655,286.027L93.139,284.812L93.377,284.424L93.66,284.071L96.362,281.848L99.38,279.363L103.469,277.419L107.581,275.462L111.627,273.541L114.116,272.358L118.151,271.426L120.886,270.795L124.44,269.976L125.52,269.727L128.657,268.612L129.978,268.295L132.144,268.422L134.013,268.531L135.877,268.638L137.745,268.748L139.61,268.855L141.478,268.963L143.343,269.073L145.211,269.181L147.074,269.29L148.94,269.397L150.809,269.506L152.586,269.608L152.673,269.613L154.541,269.722L156.406,269.828L158.274,269.936L160.139,270.046L162.005,270.154L163.957,270.268L164.999,269.831L167.848,266.744L167.858,266.744L169.905,264.496L173.768,260.26L177.633,256.021L181.494,251.781L185.357,247.542L185.775,247.083L189.22,243.302L193.083,239.058L196.946,234.817L200.809,230.575L203,228.312L205.197,226.047L207.393,223.783L209.593,221.519L211.792,219.255L213.992,216.991L216.184,214.725L218.38,212.461Z"/>
</svg>
