<svg xmlns="http://www.w3.org/2000/svg" viewBox="0 0 420 520" aria-label="Map of South Sudan">
  <path fill="currentColor" d="M408,369.971L405.842,369.962L403.314,369.952L403.221,367.985L401.911,367.891L400.975,368.548L400.788,369.95L400.785,369.968L400.784,369.974L400.601,370.989L397.64,369.966L397.589,369.948L397.575,369.922L395.977,367.015L394.621,364.545L396.254,360.374L393.73,359.629L390.39,359.629L391.652,357.021L390.909,356.127L388.29,357.579L385.936,358.884L385.342,357.766L383.009,358.647L380.26,359.685L377.187,360.845L374.438,361.883L371.885,362.847L369.161,363.875L365.895,365.067L363.609,366.214L361.293,367.376L358.961,368.582L356.327,369.944L352.935,373.314L349.546,376.685L346.157,380.053L342.765,383.424L340.045,386.161L337.281,388.931L333.53,392.697L330.318,395.926L327.848,398.409L327.684,398.505L326.44,399.234L324.986,399.415L319.589,399.14L316.531,398.988L315.492,398.787L314.788,398.416L310.551,394.948L309.88,394.667L309.287,394.88L307.251,396.395L304.615,397.736L301.798,398.586L296.524,399.014L290.359,399.518L288.89,399.862L282.714,403.626L282.316,404.082L282.28,404.517L282.426,405.721L282.419,406.242L282.316,406.717L282.27,406.93L282.049,407.221L281.642,407.237L279.533,406.81L278.967,406.517L278.454,405.987L278.231,405.63L277.805,404.947L277.424,404.743L277.158,404.727L274.521,404.564L274.063,404.325L273.83,403.756L273.728,402.209L273.601,401.571L273.119,400.763L270.729,398.086L269.935,397.419L269.736,397.326L269.061,397.012L268.957,396.991L268.884,397.184L266.213,400.192L265.901,400.476L265.287,400.738L261.805,401.25L261.215,401.547L260.823,402.036L260.789,402.065L260.427,402.384L259.813,402.257L255.526,399.922L252.751,398.412L251.433,397.992L250.06,397.801L248.474,397.799L247.599,398.044L246.354,399.018L245.457,399.72L245.155,399.84L244.517,399.966L244.204,400.093L243.171,400.915L242.715,401.125L242.373,401.172L241.709,401.156L241.357,401.277L240.986,401.604L240.816,401.97L240.712,402.358L240.559,402.754L238.342,405.987L237.607,407.434L237.465,407.962L237.066,407.259L237.402,405.525L236.917,404.928L235.873,404.516L235.436,404.183L235.207,403.68L235.103,402.527L234.967,402.195L234.357,401.753L233.833,402.135L233.273,402.797L232.558,403.196L231.62,403.192L231.23,403.241L230.649,403.46L229.591,404.046L229.171,404.152L228.507,404.235L228.158,404.225L227.864,404.119L227.513,403.836L227.527,403.669L227.725,403.46L227.912,403.046L228.158,401.737L228.179,401.08L227.375,396.146L226.917,395.272L226.591,395.161L226.254,395.197L225.918,395.288L225.595,395.338L224.919,395.321L224.62,395.27L223.349,394.863L220.63,393.243L218.382,392.517L216.199,392.485L215.644,392.293L215.401,391.976L215.345,391.635L215.342,391.28L215.265,390.914L215.047,390.541L214.239,389.583L213.937,388.807L213.753,388.03L213.406,387.369L212.638,386.943L211.228,386.656L210.728,386.338L210.225,385.619L209.448,384.111L208.932,383.488L208.148,383.016L207.751,382.948L207.364,382.95L207.012,382.87L206.743,382.553L206.712,382.143L206.916,381.786L207.17,381.451L207.279,381.113L206.951,380.43L206.217,379.739L205.352,379.239L204.613,379.13L203.075,379.147L202.168,378.405L201.778,377.166L201.797,375.694L202.095,374.684L202.14,374.337L202.088,374.037L201.856,373.481L201.828,373.186L202.029,372.85L202.184,372.664L202.352,372.461L202.466,372.103L202.06,371.858L201.72,371.717L200.957,371.253L200.735,371.164L199.989,371.356L199.734,371.307L199.247,371.016L198.276,370.152L197.887,369.877L196.486,369.222L196.091,369.144L195.081,369.126L194.065,368.691L193.683,368.579L193.475,368.606L192.953,368.867L192.792,368.759L192.445,368.413L192.31,368.323L191.588,368.191L191.085,368.281L190.804,368.701L190.721,369.877L190.617,370.464L190.648,370.808L190.586,371.18L189.955,371.765L189.733,372.121L189.518,372.902L189.24,373.582L188.824,374.199L187.1,375.687L186.767,376.18L186.423,376.983L185.927,377.788L185.372,377.908L184.703,377.764L183.877,377.781L183.499,378.178L183.402,378.812L183.154,379.352L182.31,379.473L181.55,379.106L179.413,376.939L179.035,376.664L177.703,376.087L177.606,376.127L177.513,375.646L177.148,375.493L175.528,374.411L175.265,374.126L173.229,374.635L172.493,374.71L170.901,374.579L169.878,374.717L169.528,374.72L168.678,374.373L168.515,373.72L168.466,372.967L167.981,372.313L167.519,372.172L167.231,372.329L166.94,372.613L166.482,372.845L165.795,372.845L165.497,372.892L164.106,375.581L163.6,376.275L163.097,376.602L161.713,376.93L161.314,377.183L161.186,377.553L161.104,377.941L160.87,378.246L160.565,378.338L160.239,378.304L159.912,378.236L159.593,378.217L158.841,378.398L158.357,378.736L157.065,380.435L156.444,381.03L155.729,381.467L154.97,381.553L154.161,381.298L153.882,380.979L153.773,380.506L153.471,379.796L152.34,378.963L150.927,379.025L149.448,379.306L148.126,379.132L147.493,378.675L146.872,378.051L145.937,376.863L145.802,376.211L145.58,375.937L145.037,375.897L144.727,376.087L144.172,376.68L143.835,376.711L142.805,375.243L142.642,374.925L142.543,374.658L142.488,374.38L142.465,374.02L142.573,373.256L142.739,372.674L142.637,372.305L140.908,372.055L140.53,372.105L140.304,372.06L139.961,371.694L139.791,371.633L139.492,371.791L139.35,371.897L139.409,371.944L139.381,372.022L139.361,372.185L139.281,372.329L139.076,372.35L138.507,372.109L138.324,372.081L137.364,372.223L137.103,372.198L136.718,371.97L136.107,371.31L135.764,371.027L135.5,370.94L134.678,370.766L134.529,370.763L134.286,370.216L134.137,369.41L134.071,368.024L134.342,366.061L134.217,365.332L134.085,365.023L133.863,364.64L133.582,364.297L133.266,364.117L132.964,364.13L132.316,364.311L132.066,364.311L131.626,363.958L131.417,363.399L131.154,362.004L130.713,361.205L130.117,360.824L127.154,360.501L126.478,360.264L125.874,359.763L125.694,359.426L125.554,358.705L125.43,358.387L125.144,358.059L124.095,357.256L123.859,357.157L123.635,357.034L123.433,356.882L123.249,356.707L123.474,355.204L123.415,354.768L123.075,354.333L122.101,353.63L121.553,352.304L120.637,351.532L118.717,350.237L118.032,349.382L117.48,348.385L116.585,346.26L116.447,345.751L116.265,344.088L115.992,343.229L115.923,342.81L115.992,342.292L117.355,338.604L117.293,338.277L117.366,337.683L117.234,337.397L116.911,337.176L116.662,337.197L116.478,337.304L116.36,337.346L116.233,337.375L116.076,337.454L115.899,337.42L115.697,337.1L115.675,336.872L115.826,336.383L115.878,335.799L115.961,335.578L115.933,335.399L115.354,335.006L115.196,334.854L115.125,334.657L115.109,334.353L115.007,333.83L114.724,333.303L114.324,332.868L113.849,332.628L113.179,332.407L113.016,332.156L112.999,331.796L112.759,331.236L112.458,331.015L111.046,330.478L110.737,330.49L110.127,330.69L109.815,330.683L109.596,330.523L109.343,330.009L108.722,329.531L108.33,328.572L107.969,328.184L106.505,328.545L105.801,328.507L105.375,327.922L105.056,327.156L104.646,327.08L104.084,327.281L103.307,327.339L102.527,326.989L102.256,326.39L102.062,324.878L101.703,324.429L101.098,324.045L98.704,323.103L96.332,323.215L95.253,323.075L93.286,322.392L92.763,321.977L92.43,321.37L92.156,320.643L91.784,320.064L91.188,319.891L89.832,320.835L89.301,320.988L89.183,320.273L89.45,319.617L89.998,319.038L90.661,318.563L91.271,318.22L91.826,317.764L92.142,317.142L92.124,316.499L91.684,315.969L91.136,315.837L90.647,315.859L90.335,315.654L90.324,314.845L90.213,313.972L89.682,313.587L88.288,313.288L87.657,312.882L86.849,311.809L86.294,311.261L85.641,310.89L85.135,310.679L84.764,310.362L84.535,309.665L84.611,309.056L84.799,308.421L84.747,307.923L84.112,307.713L84.341,307.317L84.656,307.087L84.993,306.906L85.281,306.657L85.929,305.296L86.994,303.867L87.539,302.843L87.792,302.506L87.77,302.115L87.73,301.374L86.11,300.452L84.126,299.711L82.971,299.118L82.409,298.527L81.042,297.568L79.998,296.257L79.467,296.019L78.86,295.859L78.104,295.39L77.761,294.984L77.639,294.613L77.584,294.231L77.445,293.797L77.431,293.591L77.497,293.383L77.514,293.2L77.365,293.067L77.171,293.067L76.952,293.123L76.741,293.148L76.567,293.046L76.245,292.283L76.127,290.53L75.919,289.767L74.41,289.644L74.018,289.534L73.928,289.321L73.91,289.064L73.716,288.827L73.38,288.689L72.707,288.589L72.367,288.5L71.309,287.901L71.153,287.589L71.073,286.955L70.931,286.688L70.369,286.424L68.86,286.28L68.357,286.106L68.052,285.559L68.048,285.109L67.868,284.83L67.032,284.793L66.661,284.699L66.13,284.162L65.797,284.017L65.145,284.027L64.875,283.952L64.059,283.302L63.432,283.047L61.364,282.51L60.834,282.22L59.325,280.837L58.825,280.524L58.274,280.428L57.63,280.652L56.756,280.244L55.448,279.244L53.565,278.303L53.121,277.983L52.757,277.49L52.576,276.999L52.361,276.025L52.094,275.54L51.876,275.378L51.314,275.203L51.05,275.054L50.852,274.825L50.53,274.288L50.318,274.057L49.871,273.755L47.873,272.698L47.155,271.006L47.006,270.459L47.027,270.034L47.741,269.349L49.958,268.594L50.71,267.932L50.859,267.339L50.759,266.838L50.565,266.368L50.436,265.862L50.565,264.404L50.54,263.909L50.36,263.334L49.86,262.433L49.517,261.362L49.191,260.831L48.761,260.409L47.911,260.127L47.706,259.94L47.54,259.733L47.294,259.579L46.468,259.443L45.993,259.444L44.952,259.674L44.488,259.704L43.468,259.324L42.465,258.553L40.852,256.741L40.564,256.583L40.301,256.392L40.075,256.17L39.892,255.919L39.822,255.315L39.135,254.601L39.059,253.398L38.73,252.853L35.847,250.185L34.775,249.692L32.833,249.469L31.768,248.877L31.092,248.798L30.436,248.791L28.556,248.442L26.201,248.816L25.132,248.781L24.074,248.119L23.745,248.042L23.502,247.898L23.322,247.675L23.186,247.373L22.389,246.602L21.23,246.723L19.066,247.473L18.889,247.376L18.334,246.936L18.081,246.804L17.838,246.767L17.352,246.767L16.753,246.7L16.547,246.677L15.385,246.405L14.855,246.199L13.96,245.71L13.051,245.025L12.33,244.171L12,243.179L12.121,242.074L12.524,240.921L14.404,237.746L14.74,237.372L16.1,236.465L16.329,236.144L16.162,235.731L15.25,235.01L15.011,234.534L15.139,234.049L15.757,233.153L15.833,232.669L15.226,232.346L13.977,232.374L13.637,232.421L13.786,232.206L13.859,231.724L14.062,231.45L15.994,229.969L17.01,229.487L20.677,227.161L21.442,227.002L24.494,226.681L26.14,226.127L26.473,225.943L26.66,225.716L26.66,222.094L26.692,221.873L26.894,221.364L29.936,216.183L30.067,215.853L30.103,215.673L30.748,209.175L30.977,208.563L31.244,208.17L32.217,207.275L34.274,204.951L34.519,204.172L34.581,203.772L34.524,194.709L34.649,194.011L34.763,193.795L34.893,193.66L35.015,193.63L35.332,193.607L35.696,193.541L35.988,193.406L36.274,193.234L37.43,192.272L38.591,191.564L39.03,191.07L39.95,189.808L40.403,189.341L40.686,188.953L40.977,188.331L41.17,187.736L42.049,185.906L42.413,184.904L42.455,184.703L42.465,184.491L42.444,184.298L42.34,183.949L42.065,183.307L42.013,183.135L41.94,182.759L41.966,182.476L42.054,182.113L43.731,178.467L44.064,178.06L44.304,177.843L44.512,177.756L45.039,177.599L45.528,177.404L45.887,177.329L46.747,177.399L47.132,177.334L47.944,177.017L48.137,177.012L48.529,177.062L48.752,177.033L49.054,176.908L49.293,176.85L49.522,176.826L49.923,176.895L50.107,176.956L50.445,177.107L50.637,177.168L50.835,177.202L51.038,177.207L51.22,177.165L51.543,177.043L51.73,177.027L52.094,177.08L52.289,177.078L52.471,177.046L53.095,176.75L53.267,176.697L53.662,176.652L53.877,176.649L54.278,176.607L54.621,176.498L54.939,176.35L55.438,176.178L55.82,176.106L56.225,176.069L57.575,176.117L57.955,176.056L58.376,175.934L58.48,175.919L60.958,175.042L62.401,174.683L62.594,174.653L63.678,174.643L64.443,174.518L64.973,174.37L65.168,174.338L66.515,174.391L66.786,174.359L67.082,174.277L67.787,173.931L69.287,173.533L69.651,173.499L69.776,173.592L71.234,175.418L71.406,175.702L71.474,175.86L71.515,176.048L71.718,181.327L71.781,181.516L71.869,181.661L72.088,181.901L72.348,182.118L73.557,182.833L74.067,183.057L74.979,183.325L75.072,183.373L75.286,183.545L75.405,183.658L75.603,183.925L77.608,187.236L78.003,187.744L78.477,188.243L78.487,188.254L81.066,189.238L87.399,196.707L93.732,204.171L95.21,205.14L96.044,205.525L97.986,205.683L98.345,205.651L111.303,201.231L119.99,201.028L121.53,201.3L126.327,201.281L129.054,201.628L129.248,201.606L129.947,201.416L130.134,201.397L134.433,202.031L137.748,201.854L138.299,201.757L138.644,201.62L142.068,208.782L143.68,210.602L157.061,210.719L170.443,210.835L170.486,210.836L170.072,209.995L169.934,208.782L169.98,207.334L170.671,206.027L172.835,203.879L175.374,201.903L176.045,201.353L180.166,199.158L184.197,197.679L191.94,195.959L194.767,193.245L196.33,190.755L196.382,185.858L197.404,185.055L199.252,183.92L208.208,179.544L209.724,178.618L217.638,183.707L225.552,188.793L234.435,196.841L234.973,197.232L235.436,197.382L235.904,197.105L236.299,196.733L236.946,196.487L237.378,196.379L241.169,196.273L241.18,196.273L248.367,195.88L250.731,194.915L257.946,187.728L265.162,180.537L268.834,175.948L269.765,175.011L271.853,171.738L274.058,166.113L274.495,165.476L282.401,158.724L290.308,151.968L290.867,150.896L291.023,150.047L288.633,145.497L288.116,143.185L288.014,139.623L288.487,134.08L288.321,130.575L288.258,130.178L288.102,129.637L287.998,129.433L279.17,119.464L290.32,119.414L301.47,119.364L301.522,118.537L301.502,118.101L301.434,117.703L301.013,116.507L300.768,114.916L300.752,114.472L300.784,114.037L300.914,113.214L300.924,112.769L300.902,112.556L300.862,112.357L300.872,112.183L300.971,112.038L316.994,112.236L316.786,115.061L314.839,121.698L314.873,125.677L314.417,130.217L314.303,130.585L313.866,131.563L313.482,132.124L313.042,132.665L312.917,132.868L312.766,133.2L312.756,133.7L314.42,146.391L316.084,159.065L315.959,159.704L315.834,160.122L314.948,161.703L314.719,162.222L314.672,162.625L315.031,162.9L322.411,165.635L322.77,165.81L323.056,166.033L325.713,169.288L332.981,175.293L340.248,181.294L340.748,181.891L342.251,185.657L342.42,186.229L342.472,187.131L342.435,187.831L342.061,190.089L342.186,191.104L342.435,191.775L342.637,192.55L342.637,192.785L342.607,192.989L342.498,193.348L340.342,197.695L339.638,200.788L339.43,203.389L339.555,204.893L339.799,205.86L339.91,206.082L340.004,206.246L340.103,206.344L340.207,206.388L345.907,206.412L346.323,214.897L346.805,224.728L347.288,234.552L347.134,235.401L346.997,236.155L346.563,236.929L345.869,237.706L342.553,240.7L341.866,241.113L341.242,241.285L339.345,241.292L338.193,241.426L337.631,241.579L337.094,241.812L336.743,242.049L335.352,243.253L335.207,243.299L334.842,243.356L333.316,243.16L332.503,242.23L331.844,241.069L330.794,240.18L330.113,240.07L329.619,240.268L329.142,240.539L328.503,240.651L327.997,240.435L327.491,240.024L326.925,239.699L326.242,239.729L326.429,239.983L326.415,240.105L326.1,240.284L323.838,240.553L323.403,240.454L323.132,240.48L322.881,240.611L322.419,240.971L322.1,241.076L318.455,240.266L317.865,240.352L316.901,241.203L316.932,241.338L317.033,241.535L316.783,241.761L316.276,241.865L315.815,242.088L315.662,242.327L315.607,242.589L315.61,243.162L315.572,243.316L315.406,243.546L315.381,243.729L315.454,243.836L315.756,244.054L315.815,244.171L315.739,244.584L315.447,245.223L315.381,245.476L315.489,245.877L315.725,246.205L315.961,246.457L316.207,246.836L316.512,247.014L316.963,247.203L316.916,247.642L316.681,247.819L316.367,247.924L316.068,248.151L315.812,248.528L315.676,248.837L315.621,249.179L315.61,249.655L315.714,249.838L316.172,250.168L316.276,250.349L316.186,251.021L315.923,251.495L315.503,251.836L314.924,252.106L313.918,252.273L313.779,252.444L313.71,252.731L313.55,253.075L313.349,253.395L311.445,255.347L311.018,255.928L310.848,256.268L310.699,256.981L310.536,257.215L310.376,257.385L310.227,257.699L310.201,257.753L309.757,258.238L309.63,258.608L310.477,260.864L310.761,261.391L311.34,261.738L311.471,262.023L311.573,262.333L311.694,262.542L311.93,262.648L312.839,262.75L313.581,263.081L314.029,263.145L314.233,262.865L314.407,262.785L315.494,262.542L315.777,262.592L316.734,262.981L317.823,263.149L318.108,263.233L318.625,263.683L319.152,264.301L319.759,264.847L321.623,265.325L322.048,265.314L322.874,264.766L323.172,264.621L324.622,264.322L325.489,264.29L326.067,264.505L326.367,264.742L326.982,264.919L327.317,265.083L327.643,265.388L328.108,266.004L328.46,266.261L329.18,266.467L331.358,266.261L331.712,266.352L332.628,266.954L333.686,267.258L334.005,267.418L334.454,267.927L335.515,269.416L337.208,270.674L337.541,270.761L338.235,270.845L338.585,270.926L339.588,271.517L343.753,275.787L344.329,276.717L344.562,277.859L344.579,281.017L344.662,281.19L344.877,281.292L346.417,282.501L347.333,283.65L347.978,284.129L348.606,283.991L349.165,283.723L349.622,283.999L349.942,284.597L350.105,285.291L350.105,286.349L350.105,286.714L350.188,287.478L350.448,287.811L350.708,287.897L350.916,288.094L351.249,288.526L352.623,289.54L352.786,289.742L352.956,290.328L353.188,290.49L353.417,290.593L353.521,290.717L358.273,291.856L360.438,293.373L360.729,293.818L360.955,294.332L361.097,294.922L361.145,295.585L361.072,295.68L360.76,295.899L360.687,295.932L360.722,296.136L360.875,296.481L360.916,296.625L361.145,298.009L361.534,298.34L362.127,298.469L363.56,298.471L364.291,298.56L364.864,298.788L367.146,300.305L367.351,300.673L367.514,301.293L367.92,301.757L368.152,301.904L368.488,303.282L368.835,304.646L369.581,306.571L369.855,308.517L370.14,309.198L371.478,311.499L371.694,312.375L371.718,314.364L371.884,315.039L373.067,317.1L373.702,318.753L374.26,319.393L374.895,319.979L375.467,320.694L375.734,321.35L376.02,323.159L376.081,323.545L375.728,324.26L375.61,324.641L375.596,325.034L375.766,325.401L376.317,325.997L376.421,326.374L376.348,326.853L376.241,327.238L376.178,327.609L376.237,328.053L376.57,328.798L379.286,332.663L379.765,333.562L380.056,335.519L380.407,336.169L381.905,337.276L384.593,338.849L385.887,339.898L386.134,340.576L386.279,340.978L386.078,341.359L385.787,341.71L385.547,342.074L385.509,342.486L385.641,342.797L386.744,344.544L387.244,345.107L387.861,345.399L388.673,345.276L389.429,344.748L390.795,343.247L391.534,342.753L392.138,342.634L392.845,342.634L393.546,342.725L394.146,342.881L394.909,343.33L396.356,344.502L397.171,344.724L397.969,344.554L398.569,344.275L399.19,344.128L400.039,344.358L402.245,345.721L404.084,346.434L404.25,346.734L403.342,348.057L403.116,348.842L403.22,349.497L403.886,350.773L404.184,351.582L404.191,352.276L403.917,352.952L402.634,354.579L402.464,355.013L402.322,362.057L402.603,363.694L403.425,365.094Z"/>
</svg>
