<svg xmlns="http://www.w3.org/2000/svg" viewBox="0 0 420 520" aria-label="Map of São Tomé and Principe">
  <path fill="currentColor" d="M126.894,394.642L133.542,399.17L140.406,406.54L146.042,415.079L149.125,423.135L150.425,431.035L150.305,435.732L149.125,441.127L146.764,446.859L144.259,450.448L137.01,457.289L133.325,461.744L124.871,475.666L123.065,476.364L120.319,477.002L118.585,478.267L120.56,483.373L118.368,484.589L115.068,485.239L112.756,485.962L108.18,491.104L107.602,492.019L97.727,492.248L96.402,492.019L93.247,502.665L90.164,506.771L86.286,502.135L84.143,507.313L81.084,508L78.049,505.182L76.195,499.919L76.676,499.534L78.121,494.428L78.218,492.019L77.254,489.009L76.05,487.708L74.894,487.058L74.003,485.962L63.526,452.255L61.864,449.388L63.237,446.763L63.767,444.162L63.887,438.201L64.585,435.852L70.318,429.024L71.522,426.351L71.835,424.46L72.558,422.593L82.987,412.104L85.275,410.996L96.378,407.239L105.627,399.604L115.189,393.558ZM358.136,19.469L356.546,20.819L353.223,22.156L349.875,24.108L348.069,27.373L352.452,28.084L356.354,30.192L357.847,32.421L355.149,33.445L350.886,34.457L349.754,37.035L350.091,43.733L348.598,49.612L347.129,52.576L344.962,53.829L341.276,54.431L340.192,56.13L340.313,58.696L339.976,61.912L339.205,60.792L338.29,58.599L337.808,57.708L335.833,58.575L333.955,59.9L331.353,55.118L327.259,53.708L322.924,53.419L319.6,51.805L318.66,42.649L318.877,37.203L321.623,37.661L326.536,35.613L328.921,32.842L329.643,29.168L329.667,24.337L331.233,18.687L335.207,14.205L340.457,12L345.853,13.205L353.993,13.952L357.245,15.397Z"/>
</svg>
