<svg xmlns="http://www.w3.org/2000/svg" viewBox="0 0 420 520" aria-label="Map of eSwatini">
  <path fill="currentColor" d="M350.153,81.304L357.467,88.277L365.536,92.636L384.226,97.448L380.541,107.266L382.021,118.509L385.344,130.079L387.274,140.909L386.258,149.251L376.971,174L375.607,183.127L379.104,215.447L381.208,224.228L394.472,251.038L397.374,276.764L396.387,357.796L391.86,355.747L384.952,348.787L380.454,347.909L361.618,347.811L362.227,357.243L357.467,385.064L353.085,410.953L348.151,439.925L348.738,459.383L348.92,465.397L349.631,488.798L351.198,493.434L353.114,496.863L354.536,500.226L355.348,503.819L355.494,508L330.316,507.674L303.339,507.282L262.445,506.726L231.448,506.302L212.612,502.447L183.749,492.454L162.257,485.011L152.308,481.563L127.69,473.032L123.453,470.161L119.114,465.788L105.705,445.468L76.871,419.228L70.572,408.282L69.383,400.433L72.285,388.06L72.633,380.214L70.979,373.966L67.989,369.312L59.95,360.756L56.235,355.064L51.378,340.688L49.951,336.464L46.73,340.463L42.42,344.137L37.66,346.803L32.987,347.714L28.111,348.007L26.21,340.658L23.41,319.077L22.974,275.694L22.626,242.283L28.706,218.784L54.755,185.652L75.129,159.796L94.197,125.683L109.318,89.278L113.599,72.816L117.242,66.297L142.115,44.007L170.441,18.67L178.336,14.707L188.058,12.129L196.33,12L203.47,14.384L233.219,33.69L262.967,53.006L288.755,69.782L293.35,72.774L317.952,88.794L326.035,91.248L334.045,89.343Z"/>
</svg>
