<svg xmlns="http://www.w3.org/2000/svg" viewBox="0 0 420 520" aria-label="Map of Chad">
  <path fill="currentColor" d="M71.43,337.722L64.615,328.142L57.799,318.55L57.587,317.572L57.371,316.595L57.159,315.617L56.943,314.642L56.731,313.663L56.519,312.688L56.306,311.707L56.091,310.73L55.878,309.752L55.666,308.774L55.45,307.798L55.238,306.818L55.025,305.841L54.81,304.862L54.594,303.883L54.385,302.903L54.074,301.492L53.658,299.927L53.089,297.792L53.098,295.98L54.074,294.61L54.835,294.229L55.909,293.78L57.116,293.68L57.821,293.543L58.304,293.449L59.305,292.606L59.536,292.046L59.57,291.473L59.379,290.297L59.28,290.115L58.96,289.825L58.914,289.665L59.022,289.506L59.61,289.092L60.561,288.018L60.858,287.791L61.455,287.651L62.025,287.602L62.477,287.361L62.742,286.639L62.705,286.012L62.286,284.698L62.166,284.069L62.203,283.413L62.363,282.823L62.807,281.865L63.78,279.765L64.549,278.099L65.414,276.882L66.304,275.628L67.191,274.369L68.084,273.112L68.97,271.854L69.86,270.597L70.75,269.339L71.636,268.081L72.526,266.823L73.416,265.567L74.306,264.308L75.192,263.048L76.085,261.79L76.972,260.531L77.858,259.269L78.751,258.01L79.638,256.748L80.488,255.544L82.113,253.79L83.859,251.903L85.01,250.655L86.682,248.85L88.357,247.039L90.028,245.233L91.7,243.424L93.369,241.614L95.037,239.803L96.709,237.994L98.381,236.182L100.052,234.372L101.721,232.56L103.393,230.746L105.065,228.934L106.736,227.12L108.408,225.308L110.08,223.489L111.748,221.677L112.761,220.577L113.152,220.003L113.241,219.684L113.343,219.316L113.408,218.527L113.531,217.106L113.651,215.686L113.768,214.265L113.888,212.842L114.008,211.422L114.128,209.999L114.248,208.576L114.368,207.151L114.491,205.728L114.611,204.304L114.732,202.881L114.852,201.455L114.972,200.031L115.092,198.605L115.212,197.179L115.329,195.751L115.449,194.325L115.572,192.897L115.692,191.472L115.812,190.042L115.932,188.616L116.052,187.187L116.172,185.758L116.195,185.488L116.292,184.329L116.412,182.9L116.533,181.471L116.656,180.04L116.776,178.61L116.893,177.18L117.013,175.748L117.133,174.317L117.253,172.883L117.373,171.452L117.493,170.019L117.613,168.587L117.736,167.152L117.856,165.719L117.976,164.284L118.096,162.85L118.217,161.415L118.337,159.978L118.454,158.544L118.574,157.106L118.694,155.672L118.817,154.233L118.937,152.797L119.057,151.358L119.177,149.921L119.297,148.481L119.417,147.042L119.537,145.604L119.657,144.163L119.777,142.723L119.901,141.282L120.018,139.842L120.138,138.4L120.258,136.957L120.378,135.516L120.498,134.073L120.618,132.632L120.738,131.186L120.861,129.744L120.981,128.298L121.101,126.854L121.209,125.533L122.139,123.046L122.588,122.222L123.78,120.035L124.971,117.848L126.166,115.658L127.36,113.467L127.97,112.347L128.188,111.803L128.124,111.28L127.702,110.588L126.997,109.802L125.261,107.867L123.527,105.931L121.791,103.993L120.055,102.055L119.226,101.132L116.803,99.192L116.271,98.583L115.849,97.89L115.495,97.083L115.252,95.647L115.498,94.173L116.234,92.942L117.435,92.248L116.942,91.478L116.446,90.695L115.945,89.915L115.446,89.133L114.947,88.352L114.448,87.57L113.946,86.787L113.451,86.005L112.952,85.223L112.45,84.442L111.955,83.656L111.453,82.875L110.954,82.092L110.455,81.309L109.956,80.526L109.455,79.744L108.959,78.959L108.251,77.851L107.226,76.593L106.656,76.19L105.249,75.447L104.781,74.975L104.658,74.461L104.649,73.622L104.64,72.99L104.612,71.321L104.572,68.96L104.529,66.252L104.486,63.541L104.446,61.177L104.421,59.505L104.409,58.87L104.184,57.575L103.941,56.21L103.698,54.844L103.337,52.828L102.98,50.813L102.623,48.797L102.263,46.778L101.906,44.76L101.546,42.74L101.192,40.722L100.831,38.699L100.474,36.676L100.117,34.654L99.757,32.631L99.403,30.606L99.046,28.58L98.686,26.556L99.209,26.292L100.93,25.445L102.648,24.599L104.359,23.752L106.08,22.907L107.798,22.062L109.516,21.216L111.234,20.368L112.952,19.52L114.67,18.673L116.391,17.825L118.109,16.977L119.827,16.128L121.542,15.281L123.259,14.432L124.977,13.584L126.695,12.737L128.019,12.081L128.629,12L131.341,13.464L135.023,15.441L138.699,17.419L142.381,19.396L146.06,21.373L149.739,23.351L153.418,25.326L157.1,27.297L160.776,29.27L164.458,31.242L168.137,33.212L171.813,35.183L175.495,37.153L179.174,39.121L182.853,41.09L186.532,43.056L190.211,45.02L193.89,46.986L197.572,48.95L201.248,50.913L204.93,52.877L208.609,54.839L212.288,56.798L215.967,58.759L219.649,60.718L223.325,62.676L223.972,63.019L227.004,64.632L230.683,66.59L234.362,68.547L238.044,70.502L241.72,72.455L245.402,74.41L249.081,76.36L252.76,78.313L256.439,80.263L260.121,82.211L263.797,84.163L267.479,86.112L271.158,88.058L274.834,90.006L278.516,91.951L282.192,93.894L285.874,95.84L289.553,97.783L293.232,99.726L296.911,101.67L300.594,103.611L304.269,105.55L307.952,107.491L311.631,109.429L315.31,111.367L318.989,113.303L322.668,115.241L326.347,117.177L330.026,119.113L333.705,121.046L337.384,122.98L341.066,124.912L344.742,126.846L348.424,128.775L352.103,130.706L355.782,132.638L359.461,134.567L363.14,136.494L366.819,138.424L366.825,145.759L366.831,153.083L366.837,160.397L366.843,167.7L366.846,174.993L366.853,182.277L366.862,189.552L366.865,196.817L366.871,204.073L366.877,211.32L366.883,218.556L366.89,225.787L366.893,233.006L366.899,240.218L366.908,247.421L366.911,254.615L366.911,256.401L366.911,256.425L366.56,257.356L365.753,257.321L362.284,256.12L358.663,255.568L355.243,255.563L353.288,255.992L349.378,257.441L347.137,257.658L342.556,256.68L341.14,256.857L340.407,256.948L339.628,257.492L337.722,259.82L335.373,261.289L334.81,261.986L334.594,262.951L334.813,263.84L335.312,264.639L335.949,265.333L336.589,266.207L336.885,267.171L336.943,268.203L336.565,271.795L336.337,272.482L335.004,274.95L334.773,275.231L333.763,275.628L333.083,276.004L332.495,276.494L329.81,279.326L329.462,279.966L329.305,280.718L329.277,281.295L329.108,281.804L328.517,282.358L327.427,283.099L327.187,283.576L327.187,284.371L327.43,286.061L327.597,286.601L328.046,287.585L328.098,287.858L327.954,288.288L327.649,288.511L321.664,290.126L320.392,290.748L319.189,291.67L318.628,292.765L319.309,293.904L320.226,294.594L320.457,295.014L320.879,298.321L320.977,298.505L321.125,298.668L321.233,298.848L321.202,299.076L321.051,299.23L320.648,299.419L320.519,299.549L320.254,300.073L320.223,300.314L320.309,300.679L320.58,301.344L320.937,301.797L321.433,302.065L323.114,302.362L323.644,302.695L323.911,303.293L324.115,304.28L324.075,305.181L323.631,305.706L322.938,305.982L322.141,306.139L321.464,306.52L320.359,307.564L319.783,307.958L315.054,310.226L314.195,310.803L313.478,311.535L313.184,311.91L310.759,315.013L310.033,316.213L309.996,316.487L310.692,317.15L311.163,317.761L311.264,318.21L311.206,318.685L311.206,319.369L311.735,320.556L313.635,322.34L314.072,323.527L314.09,325.289L314.223,325.877L314.611,326.609L315.664,327.893L316.021,328.593L315.771,329.871L314.718,331.265L311.969,334.188L311.477,334.535L308.278,335.818L307.751,336.113L306.729,337.099L305.867,338.298L303.42,342.988L302.672,345.268L302.194,346.219L302.124,346.412L302.25,346.759L303.06,347.778L304.229,349.997L304.845,350.602L305.892,351.118L307.12,351.353L308.386,351.366L309.549,351.205L310.953,350.787L312.092,350.15L313.05,349.227L313.903,347.948L317.634,350.449L320.682,351.598L321.076,351.987L319.592,355.496L318.905,356.502L318.967,356.876L319.952,358.435L322.141,365.236L322.218,365.6L322.24,365.971L322.212,366.343L321.445,369.691L321.636,369.614L321.815,369.518L322.141,369.269L324.078,368.656L325.241,368.445L325.638,368.692L325.891,368.251L326.042,368.401L326.076,368.874L325.986,369.411L325.46,370.955L323.797,380.33L323.936,381.787L324.533,383.216L325.445,384.503L326.51,385.532L327.535,386.041L329.933,386.861L330.7,387.584L330.783,387.858L330.792,388.773L331.088,388.904L333.923,388.601L334.622,388.619L335.05,388.989L335.453,391.144L336.208,393.398L336.233,393.796L336.291,394.678L336.158,395.217L335.656,396.285L335.472,396.83L335.373,397.431L335.358,398.044L335.275,398.374L334.804,398.895L334.616,399.199L333.449,403.47L331.808,403.307L329.995,402.722L329.244,402.089L328.135,401.801L327.852,401.773L326.815,401.801L326.513,401.741L325.943,401.465L325.697,401.387L324.989,401.468L324.355,401.655L323.727,401.608L323.049,400.991L322.778,401.254L322.418,401.224L321.987,401.078L321.516,400.991L321.119,401.069L320.836,401.273L320.288,401.905L319.924,402.138L319.472,402.276L318.663,402.406L318.558,402.423L317.911,402.603L317.295,402.857L316.914,403.063L316.356,403.567L316.036,403.792L315.796,403.778L315.337,403.586L314.952,403.872L314.632,404.294L313.776,405.001L313.453,405.952L313.053,406.592L312.216,406.151L311.744,406.218L309.248,405.962L308.678,406.212L308.346,406.784L308.139,407.408L307.945,407.826L308.235,408.461L307.915,408.804L306.104,409.259L305.584,409.506L304.673,410.14L303.989,410.795L303.878,410.836L303.737,411.088L303.414,411.02L302.823,410.724L302.515,410.76L301.948,410.914L301.705,410.95L301.391,411.045L301.209,411.259L301.074,411.475L300.901,411.571L300.455,411.609L299.95,411.747L299.538,412.034L299.365,412.51L299.301,413.104L299.027,414.001L298.962,414.589L299.027,415.207L299.301,416.367L299.365,416.864L299.473,417.145L299.996,417.751L300.181,418.021L300.187,418.223L300.138,418.425L300.163,418.631L300.384,418.848L299.473,420.392L299.365,421.028L299.393,421.356L299.522,421.804L299.55,422.052L299.424,422.336L299.128,422.429L298.786,422.463L298.534,422.57L298.177,423.167L297.937,423.772L297.561,424.242L296.798,424.43L296.637,424.519L295.689,424.821L295.578,424.758L295.267,424.889L294.892,424.822L294.529,424.696L294.245,424.656L293.3,425.245L292.472,426.341L290.92,429.919L290.132,431.144L289.162,432.125L288.125,432.525L287.725,432.439L286.506,431.96L286.093,431.698L285.665,432.046L284.138,433.827L283.923,434.246L283.833,434.72L283.59,434.786L281.943,435.866L281.638,436.395L281.192,437.497L281.167,437.605L281.192,438.023L281.146,438.145L281.038,438.139L280.902,438.104L280.785,438.135L280.404,438.49L280.191,438.64L279.973,438.735L279.865,438.684L279.588,438.391L279.452,438.322L279.283,438.355L279.206,438.425L279.175,438.503L279.138,438.549L278.975,438.629L278.775,438.773L278.606,438.934L278.529,439.065L278.436,439.643L278.015,440.461L277.919,440.921L277.895,441.944L277.713,442.328L277.291,442.468L277.291,442.674L277.42,442.802L277.47,442.897L277.51,443.293L277.048,443.083L276.888,443.194L276.835,443.46L276.7,443.724L276.054,444.097L275.78,444.322L275.666,444.643L275.41,445.086L274.265,446.349L273.954,446.612L273.289,446.895L273.076,447.558L273.027,448.319L272.833,448.898L272.658,448.954L272.468,448.875L272.448,448.867L272.254,448.74L272.113,448.673L272.002,448.738L271.827,449.021L271.706,449.085L271.355,449.209L271.192,449.503L271.06,449.85L270.801,450.135L270.58,449.911L270.293,450.135L268.951,450.547L267.732,451.166L268.12,452.402L266.593,452.402L266.387,452.379L265.885,452.215L265.866,452.22L265.309,452.187L265.272,452.215L264.635,451.852L264.364,451.81L264.256,452.103L264.228,452.487L264.121,452.776L263.905,452.957L263.542,453.021L263.003,453.342L263.197,454.05L263.505,454.76L263.332,455.081L262.575,455.341L262.153,455.96L261.79,456.709L261.187,457.348L260.826,457.194L260.509,457.23L260.226,457.382L259.675,457.787L259.493,457.893L258.93,458.003L256.47,457.873L255.879,458.003L255.208,457.456L254.866,457.233L254.558,457.142L254.121,457.276L253.274,457.868L252.828,458.003L252.323,457.84L251.969,457.479L251.714,457.118L251.489,456.954L251.233,457.048L251.19,457.256L251.218,457.468L251.184,457.572L250.922,457.559L250.516,457.39L250.27,457.348L250.027,457.462L249.152,458.19L249.069,458.361L249.115,458.529L249.128,458.683L248.949,458.807L248.758,458.768L248.653,458.307L248.429,458.19L248.312,458.241L248.21,458.369L248.139,458.54L248.115,458.715L248.016,458.963L247.791,459.005L247.524,458.976L247.302,459.015L246.538,459.528L246.201,459.604L246.101,459.627L245.676,459.425L245.31,459.952L244.931,460.116L242.431,459.973L241.81,460.044L241.028,460.248L240.683,460.269L240.424,460.327L239.704,460.636L239.556,460.774L239.288,460.894L237.989,460.873L237.502,461.092L236.714,460.559L235.806,460.75L234.932,461.113L234.248,461.092L233.965,461.248L233.802,461.23L233.682,461.144L233.528,461.092L231.25,461.127L230.976,460.989L229.834,461.418L229.439,461.503L228.928,461.453L228.365,461.317L227.857,461.119L227.515,460.886L227.238,461.228L226.949,461.128L226.635,460.852L226.278,460.662L225.985,460.672L225.373,460.842L224.156,460.906L223.787,461.054L223.636,461.401L223.464,461.448L222.669,461.253L222.417,461.298L222.211,461.298L221.432,461.054L220.243,461.389L219.089,461.961L218.421,462.43L217.984,462.829L217.796,463.039L217.719,463.264L217.599,463.378L217.008,463.566L216.543,463.826L216.309,463.877L216.14,463.981L216.075,464.293L215.986,464.566L215.773,464.704L215.499,464.712L215.241,464.592L214.554,465.612L214.557,466.055L215.056,466.464L215.545,466.194L215.746,466.48L215.829,466.99L215.973,467.39L216.324,467.649L219.886,469.182L220.157,469.664L220.625,469.94L221.53,470.618L222.134,471.31L221.161,471.979L220.868,472.45L220.589,472.612L220.262,472.8L219.046,475.211L216.069,478.628L215.767,479.205L215.496,479.938L215.084,480.47L214.114,481.408L212.867,483.316L212.217,483.889L211.697,484.153L209.948,484.753L208.683,485.39L207.67,486.289L207.076,487.462L207.054,488.922L206.202,490.193L203.788,490.711L190.747,491.056L187.97,491.718L185.605,492.612L184.442,492.824L183.204,492.774L179.109,492.079L178.574,492.046L177.921,492.084L177.348,492.273L176.733,493.127L176.16,493.42L175.535,493.598L174.464,493.709L173.863,493.852L173.374,494.207L173.109,494.888L172.752,495.119L171.345,494.695L170.954,495.152L170.351,495.529L166.333,496.962L165.85,497.299L165.824,497.324L165.434,497.703L165.249,498.045L165.148,498.601L164.954,498.736L164.711,498.696L164.48,498.727L163.941,499.226L162.897,500.501L162.325,501.049L161.897,501.324L161.706,501.309L161.549,501.141L161.216,500.958L160.628,500.759L160.219,501.115L160.083,501.391L160.114,501.646L160.022,501.782L159.107,501.627L158.787,501.655L158.532,501.834L158.322,502.196L157.75,502.137L156.466,502.335L155.305,502.672L154.853,502.926L154.536,503.315L154.308,503.913L154.335,504.12L154.465,504.253L154.566,504.399L154.508,504.637L154.403,504.685L154.083,504.639L153.997,504.637L153.352,505.176L153.286,505.232L153.067,505.353L152.377,505.429L151.968,505.156L151.315,504.064L150.216,502.826L149.533,502.284L148.828,501.935L147.676,501.596L147.368,501.268L147.239,500.607L147.298,500.237L147.427,499.937L147.485,499.623L147.335,499.205L147.101,498.935L146.839,498.817L146.553,498.744L146.242,498.617L145.758,498.258L145.435,497.807L145.303,497.257L145.463,496.34L145.478,496.064L145.46,495.793L145.417,495.543L144.241,495.896L143.72,496.168L143.243,496.572L143.055,496.872L142.692,497.66L142.504,497.886L142.101,497.998L141.799,497.905L141.528,497.773L141.208,497.767L140.755,498.141L140.602,498.772L140.605,500.815L140.481,501.236L140.118,501.481L137.495,501.854L136.873,502.101L135.842,502.891L135.245,503.253L134.601,503.337L133.918,503.326L132.908,503.676L131.015,503.924L130.353,504.143L129.857,504.415L129.438,504.853L128.786,505.781L128.348,506.208L127.379,506.806L126.846,507.02L122.933,507.927L121.874,508L120.732,507.607L119.199,506.176L117.896,506.072L115.726,506.368L114.642,506.298L113.614,505.966L114.833,504.379L115.637,502.735L116.031,500.95L116.052,497.876L115.393,497.744L114.457,497.528L113.817,497.5L112.413,496.463L111.394,493.992L109.572,487.542L105.561,478.938L104.757,477.212L104.304,476.626L102.583,474.923L101.327,472.853L100.831,472.252L100.216,471.802L99.458,471.564L98.347,471.398L97.947,471.275L97.839,471.076L97.839,470.797L97.768,470.43L97.5,469.665L97.331,469.383L97.118,469.2L96.9,469.121L96.703,468.978L96.552,468.605L96.287,468.319L95.111,467.445L94.699,467.214L94.422,467.153L94.16,467.148L93.898,467.195L93.621,467.285L93.144,467.134L86.526,461.786L79.909,456.436L79.361,455.475L79.068,454.179L70.583,444.347L67.936,442.263L67.887,441.813L69.697,439.195L72.132,437.069L73.065,435.787L74.512,432.893L74.58,432.587L74.595,432.292L74.666,432.068L74.909,431.972L75.345,431.943L82.618,431.454L91.315,433.616L92.51,433.679L96.25,432.508L97.62,432.558L99.357,432.974L100.268,433.04L101.108,432.847L101.419,432.644L101.949,432.154L102.284,431.95L102.549,431.871L103.916,431.72L105.686,431.793L110.692,433.423L112.373,433.378L119.057,431.732L119.577,431.576L118.287,430.406L117.241,430.072L115.255,428.876L113.885,427.679L113.9,427.547L113.475,427.296L112.367,425.707L108.263,421.878L107.94,421.356L107.752,420.741L107.691,419.975L107.577,419.379L107.29,419.014L106.899,418.69L106.468,418.209L106.053,417.081L105.788,416.564L105.188,416.283L105.043,416.14L104.843,415.999L104.529,415.935L104.19,415.902L103.861,415.814L103.587,415.682L103.402,415.52L103.208,414.943L103.227,414.195L103.408,413.459L103.707,412.924L103.75,412.446L103.522,411.716L101.247,407.292L101.164,406.151L101.536,404.854L101.638,404.107L101.45,403.572L101.145,403.119L100.333,401.18L100.143,398.582L99.917,395.475L100.126,393.595L100.277,393.115L100.964,392.108L101.164,391.607L101.139,391.3L101.007,391.138L100.85,391.003L100.757,390.776L100.757,390.428L100.902,389.961L101.09,388.38L101.281,387.79L101.552,387.25L102.928,385.733L103.325,384.894L102.974,383.91L102.137,382.846L101.823,382.307L101.352,380.942L101.265,380.338L101.318,379.745L101.552,379.096L101.663,379.062L101.857,379.074L102.057,379.052L102.18,378.908L102.143,378.711L101.826,378.409L101.773,378.283L101.94,377.996L102.423,377.537L102.589,377.227L101.857,375.475L101.663,375.148L101.155,375.079L100.804,374.832L100.6,374.353L100.536,373.59L100.684,373.353L100.97,373.101L101.173,372.832L101.053,372.543L100.939,372.37L100.791,372.053L100.724,371.751L100.85,371.616L101.703,371.481L101.573,371.141L101.062,370.7L100.757,370.255L100.81,369.88L100.884,369.647L100.865,369.46L100.647,369.214L100.493,368.923L100.502,368.56L100.613,368.231L100.757,368.042L100.191,367.544L99.637,367.31L99.101,367.368L98.593,367.75L98.236,367.802L97.817,367.47L97.162,366.7L96.398,366.174L96.247,365.963L96.152,365.519L96.303,365.385L96.527,365.334L96.65,365.13L96.607,364.819L96.481,364.658L96.333,364.524L96.247,364.297L96.247,363.932L96.398,363.42L96.45,363.05L96.493,360.929L96.552,360.657L96.044,358.347L95.635,357.598L95.616,357.464L95.665,357.114L95.635,356.993L95.484,356.89L95.29,356.824L95.17,356.841L95.228,356.993L94.979,356.764L94.846,356.745L94.803,356.688L94.822,356.349L94.877,356.149L95.117,355.679L95.228,355.515L94.243,351.768L93.898,351.14L92.916,351.372L92.399,351.311L92.177,350.819L92.097,350.53L91.9,350.221L91.638,349.97L91.364,349.87L91.207,349.968L90.755,350.722L90.41,350.219L90.847,349.217L90.644,348.715L90.17,348.548L89.289,348.785L88.803,348.505L88.612,348.329L88.092,347.993L87.987,347.811L87.975,347.622L87.916,347.465L87.685,347.368L87.488,347.416L86.919,347.857L86.633,347.901L86.497,347.734L86.457,347.452L86.457,347.153L86.198,347.25L86.023,347.229L85.912,347.087L85.851,346.815L85.851,345.662L85.315,345.111L84.404,344.412L84.096,343.969L84.111,343.58L84.573,342.183L84.619,341.56L84.53,341.054L84.28,340.601L83.859,340.143L83.826,340.091L82.467,337.957L81.953,337.625Z"/>
</svg>
