<svg xmlns="http://www.w3.org/2000/svg" viewBox="0 0 420 520" aria-label="Map of Togo">
  <path fill="currentColor" d="M115.134,12L120.105,13.024L125.163,14.067L137.111,16.523L159.31,21.084L167.803,22.833L178.693,25.075L178.905,25.216L179.036,25.441L179.086,25.754L178.955,26.195L178.885,26.608L178.744,27.012L178.402,27.407L179.971,27.804L178.794,32.015L190.961,27.717L197.07,26.531L206.44,26.349L219.09,26.113L216.594,32.22L216.313,34.19L216.544,35.259L217.359,37.273L217.5,38.346L215.981,41.269L215.789,42.33L215.638,44.594L215.336,45.614L214.078,47.437L208.785,52.513L207.386,55.827L208.161,64.754L208.09,68.626L206.661,74.144L205.303,84.342L205.383,86.618L206.168,88.11L213.535,93.051L222.794,99.252L228.402,103.008L236.692,108.56L250.641,117.896L260.916,124.777L262.164,128.141L262.176,128.901L262.285,136.182L262.466,146.98L262.587,154.654L263.352,159.266L263.211,160.468L262.979,161.451L263.01,163.433L262.889,164.441L262.285,165.694L260.554,168.368L260.152,169.651L260.464,171.662L261.45,174.075L262.889,175.552L264.56,174.733L265.677,177.534L266.341,187.537L267.75,191.471L269.596,194.327L270.095,195.099L277.874,203.292L283.923,209.676L285.926,213.21L286.7,215.585L287.224,218.275L287.385,230.612L287.526,241.371L287.646,250.507L287.811,263.694L287.848,266.634L287.989,267.795L288.482,268.896L290.998,272.099L291.41,273.061L291.048,274.801L287.848,280.112L287.697,280.946L287.697,282.655L287.214,285.056L287.494,285.465L288.069,285.661L288.562,286.569L289.599,295.011L289.428,306.285L289.186,321.954L289.247,337.516L289.327,356.996L289.335,358.724L289.374,367.18L289.418,376.832L289.478,391.491L289.538,405.739L289.609,420.149L287.838,420.676L280.481,420.626L282.373,427.596L283.47,429.223L283.626,429.34L285.07,430.424L285.946,431.484L286.147,432.847L285.412,436.965L285.473,438.64L285.895,440.33L286.64,442.337L287.214,444.703L286.821,446.221L286.056,447.25L284.607,449.2L283.802,451.399L284.426,452.501L285.684,453.527L286.751,455.49L286.771,456.252L286.6,457.073L286.539,457.977L286.851,458.98L287.435,459.785L288.2,460.56L289.015,461.216L289.78,461.672L290.696,461.779L291.652,461.687L292.356,461.936L292.487,463.058L292.739,463.739L294.359,465.079L294.973,465.914L295.094,466.899L294.852,469.001L295.064,469.857L295.708,470.386L297.801,471.468L298.636,472.096L301.142,476.139L303.034,483.496L304.866,490.685L302.843,490.807L290.333,493.779L288.321,494.849L289.022,496.893L288.99,496.901L270.51,500.022L255.074,504.744L248.116,507.801L247.339,507.865L246.737,508L246.988,504.557L245.84,503.003L237.779,502.082L236.441,501.396L235.394,500.179L234.116,498.192L233.371,497.334L232.636,496.935L231.912,496.633L231.137,496.067L229.627,493.9L227.081,486.048L219.654,486.018L217.661,485.481L216.403,484.527L213.233,480.696L210.787,479.145L205.977,476.765L203.924,474.653L202.384,472.283L201.217,469.956L200.613,467.55L200.745,465.535L200.784,464.942L201.398,463.693L202.082,462.774L202.142,461.86L200.895,460.637L200.009,460.454L197.292,460.54L196.376,460.449L195.52,458.891L194.152,457.881L192.874,456.708L192.33,454.659L193.175,449.709L193.075,448.118L192.25,446.535L190.83,445.184L189.13,444.244L187.459,443.89L186.815,443.028L183.997,437.766L182.809,436.848L181.874,436.288L181.562,435.351L182.216,433.288L184.269,429.847L184.5,428.194L183.353,426.121L180.585,423.972L179.468,422.471L180.887,422.03L182.316,421.923L186.423,420.849L187.68,420.149L189.542,416.773L189.613,412.503L189.18,408.087L189.512,404.243L191.857,398.359L192.763,393.804L194.061,390.202L194.182,388.077L192.622,381.638L191.978,380.78L188.395,382.11L186.463,382.46L184.691,382.216L181.622,379.491L180.052,375.168L179.569,370.331L179.941,364.626L180.294,363.418L180.897,362.367L181.884,361.403L183.162,360.829L184.722,360.402L186.04,359.722L186.594,358.402L186.563,355.732L186.865,352.685L188.113,350.685L190.931,351.162L190.659,349.242L190.871,344.103L189.985,338.486L190.066,332.598L189.996,332.124L189.039,325.618L189.12,321.954L189.069,320.069L188.174,316.4L187.811,311.775L187.298,309.36L187.781,308.664L188.546,308.072L189.079,306.799L188.908,305.439L188.234,304.595L187.479,303.865L187.077,302.831L187.187,301.557L187.691,301.176L188.435,301.084L189.25,300.693L192.491,297.767L194.121,296.689L198.419,294.777L199.979,293.803L200.713,292.306L200.331,289.885L199.969,289.549L198.801,289.361L198.419,289.026L198.358,288.56L198.439,287.574L198.197,286.129L198.228,285L198.016,283.98L194.282,280.87L193.024,277.144L191.324,273.526L184.943,270.517L182.407,268.675L180.052,266.494L178.391,264.563L174.497,261.897L170.622,256.458L167.769,250.283L167.151,246.666L166.936,245.406L167.598,244.472L168.826,244.243L169.978,244.691L171.019,246.905L172.041,245.767L172.69,244.12L172.167,243.733L173.193,243.39L174.097,243.517L175.08,243.82L176.343,244.024L177.415,243.507L177.757,242.206L177.898,240.67L178.391,239.441L178.402,239.425L180.545,236.334L179.327,231.516L174.63,223.508L174.63,223.498L174.61,223.498L173.304,220.438L174.305,217.422L175.953,214.359L176.467,211.182L176.457,209.64L177.073,208.69L179.277,206.715L180.455,204.701L180.424,203.129L179.217,199.598L179.307,197.653L180.102,196.708L181.199,196.065L182.186,195.043L182.588,193.801L182.749,190.91L183.655,185.907L183.051,183.591L181.29,182.043L178.391,181.051L178.321,180.949L178.301,180.852L178.321,180.755L178.965,179.651L179.186,178.638L179.015,177.667L178.391,176.789L173.224,174.897L171.394,174.596L167.477,174.815L165.288,175.208L163.811,175.856L163.326,176.636L163.029,178.633L162.646,179.473L161.907,180.1L157.453,181.663L155.642,182.028L153.838,181.829L153.395,180.508L154.19,179.381L153.506,177.804L153.516,176.399L157.574,175.573L159.091,174.978L160.337,174.116L160.709,173.093L159.853,172.024L158.477,171.953L155.994,172.422L154.982,171.983L154.019,171.302L153.307,170.677L153.063,170.394L153.03,169.764L153.485,166.983L153.724,166.35L158.626,166.901L160.966,166.763L162.707,165.62L164.043,166.503L165.839,166.809L167.417,166.36L168.091,165L167.256,162.954L165.328,162.581L161.378,163.592L158.344,163.265L156.791,161.195L156.721,158.309L158.115,155.501L160.709,158.243L162.344,159.154L164.09,158.934L165.107,157.717L165.379,155.989L165.157,154.192L164.704,152.74L164.055,151.757L163.358,150.986L162.848,149.921L162.707,148.083L164.795,140.403L164.825,139.28L164.385,135.319L164.584,133.94L165.369,132.44L166.616,131.084L167.296,130.476L167.356,129.666L166.694,127.712L165.53,125.372L165.369,124.708L165.56,123.793L165.889,123.18L165.947,122.551L165.369,121.578L167.074,121.251L168.579,121.501L169.666,121.215L169.73,120.912L170.079,119.273L169.787,117.272L169.002,116.621L167.93,116.36L166.694,115.56L165.741,113.005L166.252,105.999L166.091,102.668L166.795,101.341L167.074,99.717L167.537,98.201L169.928,96.411L167.94,94.757L167.006,94.307L162.737,95.023L161.378,95.038L162.234,93.036L161.21,91.458L159.552,89.951L158.46,88.156L158.595,87.309L158.92,86.26L158.877,85.168L157.916,84.199L156.92,83.968L156.037,84.25L155.123,84.7L154.019,84.989L153.083,84.856L150.499,83.835L150.242,84.122L149.981,84.769L149.568,85.352L148.823,85.429L148.542,85.081L143.58,75.781L142.038,74.133L136.885,70.878L136.082,69.903L134.945,67.702L134.175,66.776L133.289,66.23L130.245,65.217L129.365,64.615L128.756,64.019L128.061,63.553L125.812,63.261L124.652,62.959L123.583,62.445L122.727,61.728L121.733,59.68L121.796,57.614L122.393,55.112L122.727,53.709L123.246,49.566L123.985,47.837L125.359,46.082L127.347,44.727L128.187,43.921L128.368,42.868L127.87,40.918L127.795,39.958L129.903,29.996L130.376,29.063L131.156,28.24L132.009,27.694L132.691,27.012L132.922,25.769L133.199,22.255L132.887,19.184L131.418,16.861L128.167,15.613L126.335,15.644L123.029,16.523L121.245,16.708L119.454,16.246L117.474,15.141L115.859,13.641Z"/>
</svg>
