<svg xmlns="http://www.w3.org/2000/svg" viewBox="0 0 420 520" aria-label="Map of Tunisia">
  <path fill="currentColor" d="M324.738,307.186L324.792,310.285L323.136,316.857L322.992,317.918L322.962,321.778L321.928,326.45L322.346,333.588L321.503,340.842L321.545,344.626L322.729,347.283L326.604,351.111L327.949,353.577L328.153,356.464L327.124,358.604L325.952,359.729L325.247,360.405L321.204,363.112L306.063,370.387L288.178,378.97L286.6,380.671L284.268,386.094L282.372,387.995L280.273,389.299L278.336,390.882L277.206,391.234L276.147,390.811L275.107,390.216L274.019,390.068L272.715,391.467L272.231,396.926L271.477,399.19L269.037,401.481L268.063,403.834L267.369,404.857L266.52,405.722L265.575,406.485L262.406,407.743L255.906,407.659L252.928,410.063L249.023,416.987L245.328,421.13L244.419,422.702L243.803,427.125L243.911,428.302L248.228,439.888L249.992,447.017L251.822,450.883L251.9,452.14L251.577,454.732L251.834,457.125L253.287,461.852L253.263,464.11L252.348,466.831L248.778,474.275L243.51,480.3L237.405,490.189L230.211,499.541L228.734,500.404L224.519,500.684L222.814,501.138L209.868,508L208.23,500.625L206.592,493.242L204.953,485.854L203.309,478.458L201.664,471.05L200.026,463.637L198.387,456.211L196.749,448.778L195.099,441.339L193.466,433.887L191.822,426.431L190.183,418.963L188.545,411.485L186.9,404.006L185.268,396.511L183.618,389.007L183.462,388.289L182.404,383.399L181.752,382.108L180.951,381.144L171.21,374.079L159.107,365.292L149.868,358.569L142.77,354.027L141.187,352.289L141.108,352.201L140.432,349.938L139.876,342.845L139.093,333.179L138.309,330.978L132.437,321.782L126.966,313.193L125.674,312.398L124.466,312.671L123.253,312.588L122.069,312.22L120.944,311.636L114.534,306.985L112.423,306.265L109.649,306.004L107.52,305.358L106.031,303.715L105.146,300.481L105.065,291.301L105.062,291.013L104.189,288.292L99.758,280.53L96.081,274.084L95.585,272.311L94.993,268.696L93.33,265.452L92.93,264.259L92.14,260.426L91.847,257.716L93.049,250.717L93.229,245.571L94.024,243.681L95.284,242.372L97.618,239.947L99.035,238.057L100.619,236.405L102.868,235.272L106.545,234.679L107.64,234.093L108.363,233.214L108.883,232.076L111.06,223.788L112.196,221.326L114.457,219.677L119.473,217.465L121.889,215.728L127.385,213.202L127.872,212.766L130.255,210.632L131.618,209.801L132.079,209.329L132.33,208.846L132.736,207.622L133.101,207.048L135.182,205.732L135.625,204.944L134.13,202.584L134.291,201.49L134.973,200.439L136.833,198.464L136.911,198.354L137.365,197.721L137.526,196.764L136.45,189.656L136.342,187.032L136.928,184.3L138.309,180.531L139.326,175.328L140.091,172.826L142.824,169.795L146.322,164.403L146.896,163.012L144.905,161.456L142.495,160.702L140.307,159.628L138.973,157.104L138.602,154.197L138.722,151.605L139.35,149.128L141.425,144.091L141.443,141.99L140.875,136.052L140.665,133.86L139.679,131.531L136.85,126.869L136.163,124.374L135.912,121.347L136.246,115.666L137.473,111.196L137.706,110.348L137.891,106.408L139.111,101.14L139.763,99.952L140.289,98.597L140.139,97.305L139.709,95.975L139.434,94.552L139.709,91.591L142.447,83.89L142.506,83.516L142.663,82.524L142.752,79.556L142.639,78.178L142.148,76.854L141.257,76.308L140.163,76.003L139.045,75.423L134.022,74.765L131.654,73.791L131.656,73.746L131.774,71.31L133.137,69.643L134.805,68.578L138.543,67.163L145.545,62.895L146.843,61.453L148.164,58.925L148.66,56.389L147.494,54.915L145.473,53.848L145.844,52.698L147.632,51.809L149.868,51.537L152.033,51.686L154.024,51.272L158.036,49.651L159.071,48.908L159.119,48.03L157.134,44.976L156.936,44.234L156.984,43.361L156.802,41.446L157.878,40.991L161.988,39.282L163.401,39.014L168.345,39.014L169.64,38.552L172.031,36.512L173.783,35.698L174.226,35.495L175.506,34.247L177.305,32.044L179.085,28.594L179.857,28.077L180.422,27.796L182.042,26.054L182.654,25.682L184.396,24.967L189.01,23.079L189.716,22.644L190.931,20.658L191.99,20.099L199.618,19.99L201.826,19.108L203.239,17.579L204.049,17.047L204.83,17.369L205.424,17.721L206.059,17.594L206.676,17.292L208.376,16.878L209.732,16.257L210.961,15.434L211.78,14.596L212.957,15.271L214.021,15.076L216.159,13.605L217.364,12.971L218.348,12.711L220.895,12.657L222.176,12.136L222.882,12L223.49,12.385L223.956,12.841L224.549,13.069L229.493,13.193L229.502,13.406L229.625,14.099L229.653,17.384L227.864,18.836L225.665,19.794L224.455,21.589L224.643,22.136L225.547,24.125L225.835,24.565L226.174,24.799L226.536,25.824L227.007,26.054L229.54,26.403L230.708,26.181L231.993,25.109L232.699,24.134L233.335,22.792L233.316,21.604L229.625,20.099L229.069,20.17L227.883,20.543L227.219,20.551L227.219,20.099L228.627,19.108L229.182,18.961L229.535,18.623L229.785,18.268L229.987,18.073L230.858,17.937L236.49,19.212L237.53,19.108L240.624,17.718L241.118,17.845L242.046,19.292L246.118,19.904L247.997,21.633L252.301,23.182L253.402,24.116L251.547,24.606L250.69,24.973L249.88,25.558L249.565,24.364L247.955,24.157L246.104,24.648L245.068,25.558L245.492,26.745L247.008,27.324L248.76,27.404L249.88,27.088L250.281,27.717L250.794,28.535L250.982,29.228L250.638,30.111L250.243,29.069L247.743,31.539L248.209,35.106L250.389,38.758L253.04,41.489L255.201,42.54L255.808,42.97L257.155,44.896L257.743,45.732L257.442,46.576L256.114,47.903L255.554,49.383L254.947,49.962L254.156,50.092L253.402,49.433L253.831,48.333L253.289,48.033L252.291,48.186L250.412,48.804L249.847,49.233L248.859,50.645L248.562,51.709L249.395,52.068L251.208,52.121L251.962,52.526L252.348,52.153L252.527,51.979L253.402,50.374L254.645,53.144L256.176,55.236L258.214,56.505L260.973,56.828L261.769,56.622L262.94,56.674L265.875,55.172L267.668,54.728L268.797,53.556L269.25,51.541L269.628,49.879L270.456,46.965L271.501,46.029L272.726,45.773L275.414,45.976L277.848,45.502L280.093,44.608L282.971,42.538L284.751,40.658L285.278,40.402L285.5,39.73L285.683,39.365L289.007,36.63L289.488,36.043L289.638,35.238L289.422,34.734L289.318,34.265L289.85,33.528L291.098,32.932L294.017,32.625L296.249,30.92L297.445,30.725L298.467,31.244L299.003,32.536L298.923,33.159L298.325,34.023L298.179,34.787L298.311,35.592L298.876,36.63L299.003,37.281L299.215,37.785L300.218,39.282L300.59,40.004L300.727,40.714L300.825,42.264L300.981,42.97L301.249,43.539L301.645,44.189L302.059,44.722L302.365,44.943L302.704,45.34L303.395,46.437L303.067,47.629L302.27,48.759L299.953,49.715L296.795,52.382L295.083,55.575L292.617,59.198L288.543,66.798L285.427,74.622L283.938,76.631L279.149,77.878L273.554,81.061L271.536,80.497L269.532,81.997L267.689,84.855L266.866,87.592L266.068,90.555L265.386,93.504L265.246,97.192L265.121,100.991L265.401,103.365L266.145,105.798L266.576,107.089L266.859,107.544L267.113,108.242L267.443,109.822L267.659,110.474L268.931,112.414L269.853,113.475L270.654,113.932L271.346,114.63L272.867,119.34L273.649,120.287L277.655,124.067L277.792,124.197L278.913,124.807L280.68,125.489L284.158,124.258L284.742,124.398L285.278,124.72L286.339,125.712L285.698,126.661L285.361,128.076L285.655,129.52L286.324,130.541L288.659,131.666L293.883,133.722L296.207,133.454L297.886,134.89L298.697,136.545L296.503,137.413L296.207,139.066L296.32,140.215L296.376,140.765L296.899,142.287L297.784,143.372L300.435,144.204L298.852,145.629L298.445,147.544L298.148,149.321L298.373,152.41L297.665,153.86L297.957,156.441L299.326,158.651L301.376,161.233L302.577,162.167L304.025,162.851L304.816,163.26L304.722,164.639L303.113,164.695L301.969,165.571L300.855,167.812L299.154,169.249L298.339,170.835L297.538,172.544L296.433,173.549L296.813,175.553L296.561,177.695L294.609,180.152L292.382,181.274L290.749,183.117L291.172,184.762L290.684,186.23L290.673,189.034L288.311,190.761L287.802,191.312L287.435,191.625L287.199,192.043L287.84,193.442L288.075,194.405L285.961,195.389L284.594,196.412L282.73,198.481L281.829,200.315L280.702,201.354L280.165,202.608L279.157,203.742L278.225,204.36L274.355,205.631L273.832,205.957L273.611,206.446L273.521,207.178L273.239,208.042L272.801,208.763L272.701,210.145L272.299,210.933L272.199,212.179L271.307,213.024L270.021,213.669L264.618,214.48L262.645,215.577L259.569,220.716L256.774,221.452L256.199,221.407L255.667,221.156L255.017,221.093L254.325,221.353L253.972,221.712L253.741,222.143L252.503,223.801L251.962,224.288L251.208,224.485L248.463,225.703L247.3,226.624L244.988,227.548L243.567,229.057L242.851,231.235L240.783,235.421L239.553,237.416L238.745,237.701L238.251,238.219L238.241,238.225L237.959,238.396L238.505,239.602L238.721,240.993L238.712,243.925L238.9,245.198L239.748,247.909L239.932,249.193L240.482,251.47L241.782,254.067L247.093,261.733L247.649,262.303L248.468,262.742L256.764,271.02L258.93,272.324L263.464,274.315L264.283,274.505L265.964,274.892L269.963,274.295L274.342,273.05L278.019,271.035L279.12,270.734L280.47,273.192L280.293,277.968L278.592,279.438L277.66,279.825L276.944,280.766L276.657,281.944L276.996,283.037L278.366,285.383L279.148,286.25L280.363,286.634L282.816,286.098L287.195,283.421L289.28,282.8L290.274,282.359L291.183,281.286L291.625,279.969L291.249,278.774L290.26,277.621L290.104,277.024L291.823,275.644L292.501,276.12L293.236,276.244L293.862,275.95L294.234,275.169L294.625,275.169L295.552,275.792L297.991,276.925L299.003,277.587L299.771,278.551L301.772,281.664L301.97,282.331L302.261,285.804L300.717,288.289L301.923,292.53L301.419,294.532L303.1,294.016L304.244,295.233L305.388,296.769L306.73,297.516L308.114,297.84L311.08,299.367L312.507,299.882L312.14,300.212L311.97,300.296L311.716,300.352L306.038,298.499L303.246,298.178L302.563,300.352L303.123,301.18L304.06,301.952L304.964,302.94L305.36,304.434L305.901,305.121L307.172,305.115L309.71,304.648L312.168,305.188L317.051,307.009L319.626,307.009L320.573,306.334L320.252,305.402L319.273,304.578L318.237,304.22L317.578,303.764L316.773,302.757L315.874,301.817L321.109,305.565L324.316,307.085L324.707,307.177ZM295.02,261.353L296.15,262.056L297.313,262.595L298.321,263.23L299.003,264.207L295.166,267.756L294.201,268.215L293.838,268.523L293.575,269.101L293.01,271.373L292.647,271.373L292.831,269.534L293.01,268.956L292.105,269.253L291.376,271.45L290.337,273.032L289.364,274.119L289.021,275.377L288.053,274.391L288.036,273.174L288.393,272.035L287.356,270.447L286.38,269.967L285.457,269.143L284.459,268.829L283.384,269.924L282.896,270.959L281.826,271.205L280.48,270.14L280.112,269.083L279.765,267.169L279.795,265.332L280.91,263.37L280.209,260.514L280.24,258.354L282.378,257.548L287.082,258.569L289.601,258.731L291.46,257.548L293.184,259.653ZM293.438,204.309L294,203.864L294.77,203.247L301.376,203.304L301.927,204.11L301.062,204.991L298.737,206.821L297.626,206.585L296.475,206.008L294.559,205.066ZM310.892,196.095L311.416,196.306L311.744,196.834L313.148,198.284L312.699,199.241L307.065,201.633L304.14,203.422L303.078,203.844L302.59,202.638L303.391,201.691L304.348,200.777L305.387,199.249L305.53,198.274L305.48,197.826L305.525,197.178L305.983,196.912L306.108,197.588L306.98,198.162L308.364,197.907L308.491,196.329L308.098,195.515L308.546,194.556L309.233,193.924L309.704,193.165L310.225,192.4L311.179,192.961L312.841,193.22L313.112,193.847L311.603,194.383L311.391,194.802L311.033,195.252Z"/>
</svg>
