<svg xmlns="http://www.w3.org/2000/svg" viewBox="0 0 420 520" aria-label="Map of United Republic of Tanzania">
  <path fill="currentColor" d="M140.099,368.55L139.551,368.2L136.892,367.19L135.241,366.09L134.98,366.038L134.362,366.101L134.101,366.008L133.895,365.74L133.784,365.199L133.652,364.923L133.159,364.39L132.71,364.148L130.162,363.932L127.102,363.261L125.765,363.153L125.281,362.829L124.77,362.039L124.079,360.4L123.689,359.901L122.398,359.029L120.96,358.671L116.324,358.764L115.566,358.668L114.849,358.414L114.149,357.889L112.839,356.556L112.511,356.378L112.104,356.157L111.78,356.142L111.096,356.306L110.761,356.336L110.392,356.228L109.368,355.632L108.459,355.502L107.893,355.744L107.38,356.127L106.639,356.437L105.127,356.072L104.403,354.656L104.406,352.877L105.076,351.417L99.772,349.961L98.945,350.032L97.731,350.691L97.003,350.952L96.286,350.948L95.683,350.713L92.258,348.071L91.436,346.969L91.17,345.428L91.174,344.085L90.927,343.17L90.217,342.574L88.849,342.184L88.283,341.823L87.518,340.937L86.959,340.647L86.422,340.606L85.938,340.658L85.48,340.614L85.006,340.301L84.885,340.048L84.767,339.394L84.634,339.167L84.318,338.981L84.204,339.029L84.112,339.17L83.858,339.271L83.447,339.36L81.606,340.019L81.332,340.201L81.03,340.305L80.572,340.231L80.192,339.944L79.519,339.037L79.103,338.75L78.246,338.75L77.488,339.144L76.764,339.665L76.01,340.041L74.515,340.03L72.943,339.453L71.473,338.575L70.306,337.66L67.899,335.094L65.635,331.819L63.855,328.258L62.924,324.843L62.071,321.607L59.467,315.256L51.876,303.367L50.918,299.98L50.571,297.613L49.313,293.1L46.639,287.331L44.512,284.022L39.394,278.03L36.614,275.708L35.062,274.913L31.645,273.163L26.86,269.516L25.735,268.331L24.929,266.976L23.134,262.156L20.718,259.025L19.71,257.338L19.276,255.932L18.683,251.659L17.61,247.653L17.519,246.233L18.228,243.963L20.891,240.362L22.035,238.347L22.37,235.582L21.696,232.577L18.239,224.404L16.79,218.624L14.021,213.535L12.826,210.622L12.774,210.406L12.097,207.556L12,204.563L12.704,201.54L14.858,195.654L15.198,192.636L15.069,191.22L14.959,190.762L23.289,190.655L25.04,191.069L26.492,191.183L26.654,191.246L27.064,190.928L27.173,190.526L27.191,190.065L27.323,189.56L27.548,189.35L28.155,189.066L28.339,188.759L28.414,188.177L28.478,188.051L29.056,187.697L29.435,187.745L29.821,187.941L30.417,188.04L30.729,187.933L32.619,187.044L33.896,185.846L35.117,185.152L35.477,184.861L36.268,184.415L36.717,183.847L37.625,181.671L37.993,181.14L40.416,179.119L41.49,177.81L42.325,176.365L42.419,176.139L42.972,174.802L43.59,172.232L44.017,171.502L45.885,169.585L47.253,167.219L48.153,166.644L49.74,167.163L49.861,166.537L49.751,165.98L49.548,165.431L49.398,164.83L49.436,164.168L49.438,164.141L49.688,163.5L51.156,161.189L51.422,160.526L51.435,159.874L51.35,159.159L51.544,158.731L52.535,158.02L52.623,157.877L52.755,157.456L52.847,157.346L53.439,157.258L53.509,157.265L53.528,157.331L54.208,157.276L54.247,157.199L54.307,156.889L54.363,156.801L55.31,156.583L55.554,156.495L55.837,156.248L56.301,155.695L57.97,154.918L58.905,154.011L58.951,153.061L57.877,152.474L57.628,152.339L58.283,151.55L58.954,150.924L59.739,150.438L60.712,150.069L61.15,150.014L61.497,149.819L61.726,149.498L61.834,149.075L62.776,149.543L63.763,149.432L64.62,148.846L65.157,147.889L65.138,147.682L64.98,147.049L64.962,146.787L65.466,146.069L65.775,145.218L65.837,144.772L65.8,144.323L65.653,144.069L65.192,143.73L65.065,143.461L65.094,143.255L65.264,142.78L65.258,142.592L64.907,142.098L64.031,141.273L63.855,140.75L64.09,140.183L65.192,138.913L65.298,138.722L65.536,138.297L64.705,138.29L63.042,138.754L62.211,138.828L61.742,138.688L60.927,138.154L60.49,137.992L60.05,138.021L59.695,138.161L59.324,138.253L58.849,138.15L58.754,137.996L58.655,137.414L58.563,137.196L58.408,137.093L57.937,136.894L55.626,135.51L55.337,135.462L54.841,135.646L54.418,135.996L53.713,136.968L53.542,137.049L53.538,137.035L53.388,136.592L53.079,136.287L52.873,136.003L53.035,135.613L52.388,135.436L51.847,134.928L50.957,133.775L50.88,133.16L51.288,132.369L52.064,131.319L52.077,130.413L52.193,129.861L52.48,129.394L54.526,127.243L54.756,126.57L53.94,126.871L52.663,127.453L51.913,127.7L51.222,127.693L50.826,127.31L50.964,126.433L51.255,125.992L52.104,125.185L52.446,124.74L52.601,124.364L52.891,123.234L54.241,119.947L54.717,119.192L55.896,117.709L56.584,117.304L57.342,117.399L58.114,117.62L58.859,117.58L59.258,117.245L59.765,116.288L60.173,115.967L60.633,115.905L61.016,116.026L62.873,116.943L63.164,117.013L63.487,116.924L63.745,116.777L64.241,116.656L64.791,116.339L65.389,116.074L65.852,115.739L66.22,115.073L66.371,114.348L66.22,111.911L66.529,110.343L67.753,106.38L67.456,105.345L67.075,104.83L66.532,104.286L65.891,103.965L65.225,104.109L65.694,102.037L65.587,101.095L64.521,100.926L64.697,100.639L64.914,100.407L65.492,99.954L65.219,99.318L65.42,98.769L65.782,98.236L65.977,97.632L65.694,96.205L65.569,95.829L65.977,94.851L65.889,94.523L65.572,94.037L65.492,93.853L65.503,93.471L65.962,90.663L65.992,89.747L65.732,88.993L64.887,89.317L64.329,88.879L63.987,88.077L63.642,86.797L63.483,86.524L63.042,86.053L62.454,85.266L62.242,84.803L62.432,84.597L62.542,84.177L62.608,83.25L62.406,82.319L61.714,81.9L61.016,81.801L58.666,80.929L58.338,80.73L57.805,80.222L57.43,79.957L56.382,79.523L55.922,79.178L55.731,78.607L55.767,78.343L55.852,78.133L55.933,77.978L55.968,77.868L55.896,77.577L55.565,77.147L55.356,76.422L54.708,75.348L54.491,74.829L54.352,73.91L54.201,73.689L53.763,73.373L53.616,73.413L53.384,73.538L53.101,73.582L52.788,73.373L52.73,73.159L52.825,72.946L52.959,72.744L53.035,72.534L52.917,72.048L52.399,71.692L52.281,71.309L52.393,70.908L52.667,70.518L52.949,70.223L52.991,70.18L53.278,69.948L53.719,69.988L53.984,70.165L54.168,70.364L54.368,70.456L54.797,70.423L55.459,70.268L57.253,70.102L58.029,70.187L58.886,70.456L59.339,70.08L60.611,68.734L61.126,68.466L62.476,68.039L63.814,67.34L65.072,67.656L65.639,67.936L67.937,67.936L74.454,67.936L80.968,67.936L81.727,67.936L87.483,67.936L93.998,67.936L100.511,67.936L106.839,67.936L107.025,67.936L113.542,67.936L120.057,67.936L126.576,67.936L133.032,67.936L133.089,67.936L137.479,67.936L139.604,67.936L146.116,67.936L152.633,67.936L158.089,67.936L159.146,67.936L165.397,67.936L165.663,67.936L172.175,67.936L175.091,67.936L177.802,67.936L177.949,67.918L178.501,67.936L178.571,68.867L179.049,69.179L180.369,69.282L183.035,70.772L190.674,75.039L198.317,79.303L204.082,82.523L205.955,83.57L213.594,87.834L221.237,92.102L222.852,93.004L228.875,96.367L236.51,100.635L244.149,104.904L251.788,109.173L259.423,113.442L267.066,117.709L274.704,121.975L282.343,126.246L289.982,130.513L297.624,134.784L300.35,136.308L305.263,139.056L308.202,140.699L308.746,141.575L309.375,145.439L309.452,145.908L310.166,150.265L309.518,150.313L309.165,150.618L309.04,151.116L309.092,151.753L308.419,151.805L307.573,152.258L306.778,152.888L306.26,153.462L306.079,153.779L305.91,154.177L305.818,154.594L305.874,154.969L306.131,155.231L306.716,155.305L306.896,155.585L306.753,156.174L306.469,156.871L306.572,157.361L308.275,157.261L309.036,157.328L309.787,157.527L310.46,157.851L310.956,158.308L311.225,158.857L311.843,161.053L312.199,161.783L312.688,162.424L314.627,163.817L317.664,166.01L320.699,168.203L323.74,170.396L326.774,172.586L329.809,174.779L332.85,176.969L335.648,178.993L335.884,179.163L338.926,181.354L341.96,183.544L344.994,185.739L348.036,187.933L351.074,190.124L354.111,192.319L357.149,194.514L360.187,196.706L363.206,198.891L363.45,199.115L364.078,199.289L364.307,200.291L364.113,201.448L363.45,202.061L362.479,202.549L363.264,202.866L363.8,202.912L364.11,203.11L364.2,203.901L364.156,204.659L364.023,205.278L363.791,205.848L362.656,207.781L362.199,208.217L361.993,207.693L362.115,206.987L362.343,206.295L362.459,205.618L362.236,204.99L361.608,206.83L361.063,207.484L360.29,207.429L360.907,208.388L361.003,208.743L361.127,210.772L361.02,211.129L360.777,211.283L360.224,211.109L359.917,211.243L359.783,211.423L359.43,212.115L359.369,212.603L359.882,212.574L361.02,212.106L361.046,212.644L361.437,213.502L361.503,213.833L361.359,214.095L360.003,215.281L359.772,215.586L359.065,217.063L357.976,218.703L357.86,218.959L358.138,219.221L358.527,218.924L359.077,218.226L359.291,218.666L357.75,223.147L357.362,223.933L356.867,224.596L356.494,224.843L356.082,225.044L355.758,225.323L355.651,225.812L355.804,226.114L356.085,226.248L356.331,226.466L356.381,227.033L355.903,228.453L354.878,230.551L353.635,232.433L352.471,233.178L352.958,233.4L352.723,234.139L352.694,235.803L352.35,236.467L351.898,237.037L351.252,238.365L350.464,239.561L350.21,240.332L350.076,241.168L350.065,243.474L349.914,243.823L349.682,244.07L349.483,244.382L349.344,244.717L349.318,244.836L349.126,245.748L348.788,246.476L348.524,247.256L348.562,248.121L348.692,248.351L349.135,248.863L349.292,249.099L349.63,250.477L349.778,250.832L349.987,251.039L350.771,251.543L351.327,252.015L351.391,252.236L351.53,253.588L351.443,254.447L351.194,255.219L350.771,255.74L351.044,256.632L351.165,258.639L351.611,259.531L351.999,259.814L352.436,260.041L352.804,260.286L352.958,260.633L353.013,261.017L353.169,261.419L353.401,261.79L353.687,262.096L353.893,262.244L354.073,262.317L354.539,262.34L354.782,262.445L354.904,262.678L355.005,262.929L355.167,263.098L355.616,263.18L356.604,263.232L356.989,263.454L357.351,263.591L357.736,263.454L357.701,263.168L357.391,263.031L356.818,262.807L356.117,262.34L357.136,262.655L357.878,262.987L359.847,264.858L361.02,266.275L361.958,266.948L362.236,267.255L362.772,268.176L363.088,268.505L363.693,268.87L363.994,269.135L364.231,269.54L364.373,270.007L364.423,270.462L364.643,271.354L365.173,272.333L365.816,272.812L366.389,272.194L366.545,273.232L366.38,274.629L366.398,275.897L367.116,276.574L367.093,275.921L367.035,275.643L366.875,275.349L367.527,275.39L368.042,275.591L369.056,276.206L369.6,276.352L370.678,276.448L371.124,276.696L371.651,276.886L372.954,276.871L373.209,277.076L373.359,277.569L374.014,278.435L374.312,279.494L376.015,281.752L376.128,282L376.087,282.347L375.913,282.566L375.728,282.753L375.641,282.98L375.945,285.268L375.908,286.213L375.375,286.164L375.016,286.619L374.746,287.591L374.538,288.011L374.141,288.327L373.805,288.318L373.55,288L373.429,287.39L371.935,288.437L371.894,288.49L371.61,288.869L371.41,289.509L371.326,290.084L371.17,290.612L370.759,291.105L370.298,291.47L370.075,291.561L369.777,291.596L369.499,291.707L369.534,291.975L369.693,292.294L369.792,292.574L369.583,292.98L369.091,293.073L368.526,293.038L368.089,293.064L368.436,293.642L368.79,294.042L369.03,294.501L369.033,295.272L368.876,295.797L368.561,296.533L368.181,297.19L367.24,298.061L366.826,299.416L366.201,303.371L366.241,304.107L366.389,304.849L366.844,306.001L366.965,306.673L366.754,307.21L366.632,307.719L367.171,309.031L366.997,309.662L365.413,311.518L366.502,311.276L367.278,310.384L367.788,309.192L368.089,308.035L368.639,308.487L369.065,308.976L369.117,309.49L368.552,310.022L369.89,309.89L370.498,309.958L371.124,310.399L372.091,311.346L372.207,311.852L371.975,312.74L371.448,313.904L371.402,314.345L371.784,315.6L371.819,317.003L371.975,317.647L372.522,317.307L372.705,317.135L372.592,318.24L372.149,319.255L371.002,321.083L369.821,324.315L369.299,325.299L369.056,325.182L368.946,325.19L368.83,325.252L368.552,325.299L368.801,325.831L368.72,327.119L368.819,327.754L368.309,327.528L368.303,327.815L368.089,328.491L367.51,327.85L367.214,327.631L366.875,327.528L367.156,328.052L367.174,328.473L366.919,328.787L366.389,328.983L366.841,329.905L367.133,330.847L367.29,331.848L367.336,332.943L367.098,335.027L367.208,336.041L368.396,337.265L368.842,338.096L369.152,339.022L369.299,339.836L369.236,342.841L369.033,343.544L370.278,343.899L370.489,344.124L370.591,344.412L370.736,344.664L371.124,344.775L371.836,344.828L372.05,345.039L372.068,345.484L372.218,346.246L372.531,346.835L372.922,347.102L373.348,347.289L373.808,347.611L374.112,348.116L374.521,349.376L374.912,349.956L375.913,350.718L376.128,351.047L375.63,351.187L375.207,351.161L374.952,351.073L374.431,350.671L374.361,350.595L373.678,349.956L372.957,349.071L372.415,348.754L371.732,348.848L371.332,349.012L371.124,349.068L370.976,349.171L370.255,350.202L370.794,350.408L372.942,350.202L372.47,350.789L372.352,351.164L372.627,351.372L373.322,351.434L373.927,351.627L373.933,352.128L373.724,352.841L373.678,353.644L373.765,353.779L374.083,354.025L374.164,354.16L374.173,354.84L374.164,354.899L373.973,355.263L373.944,355.392L374.02,355.48L374.188,355.544L374.35,355.655L374.431,355.872L374.327,356.219L374.121,356.453L373.979,356.711L374.051,357.11L374.312,357.688L374.312,357.961L374.164,358.321L374.668,358.213L375.282,357.919L375.856,357.556L376.249,357.227L376.678,357.198L377.193,357.673L378.725,359.624L379.334,360.659L379.504,361.771L378.943,362.906L378.917,363.162L379.125,363.458L379.394,363.757L379.551,364.027L379.551,364.429L379.354,365.154L379.307,365.503L379.42,366.701L379.299,367.132L378.821,367.743L378.343,368.162L378.03,368.233L377.683,368.18L377.118,368.236L376.675,368.444L376.493,368.779L376.501,369.281L376.614,369.979L376.933,369.821L377.338,369.748L378.074,369.712L378.161,369.316L378.34,369.163L378.691,369.342L378.917,369.58L379.038,369.677L379.186,369.712L379.58,369.88L379.638,370.255L379.559,370.666L379.551,370.945L379.794,371.277L380.645,372.064L380.947,372.775L381.366,374.742L381.74,375.288L382.221,375.629L382.128,375.861L381.844,376.087L381.763,376.387L381.94,376.778L382.114,377.027L382.586,377.497L382.788,377.891L382.667,378.625L382.991,379.324L382.701,379.56L381.983,379.836L381.384,380.406L381.225,380.711L381.514,380.846L382.927,380.814L383.194,380.846L383.31,381.105L383.59,382.081L383.814,382.451L384.398,382.88L384.676,383.15L384.914,383.562L385.151,384.587L384.894,385.325L384.225,385.678L383.194,385.555L383.495,386.043L384.509,386.827L384.543,387.145L384.161,387.401L382.933,387.924L381.838,388.194L381.821,388.609L382.27,389.524L382.2,390.197L381.94,390.706L381.526,391.114L381.004,391.494L381.92,391.326L383.582,389.306L384.312,389.385L384.786,389.653L385.849,389.576L386.605,390.338L387.074,390.4L387.596,390.376L388.073,390.465L388.959,391.15L391.117,394.747L391.184,396.83L391.479,397.913L391.844,397.483L392.026,396.889L392.032,396.259L391.852,395.703L391.531,394.976L391.609,394.67L392.032,394.629L392.713,394.729L393.231,394.882L394.331,395.365L395.026,395.529L396.448,396.047L396.622,396.006L396.729,396.059L396.845,396.453L396.778,396.921L396.544,397.407L396.431,397.936L396.723,398.542L396.831,398.878L396.567,399.06L396.222,399.213L396.115,399.437L396.301,399.728L396.486,399.749L396.674,399.667L396.845,399.64L397.439,400.008L397.717,400.064L397.838,399.778L397.864,399.402L397.974,399.19L398.195,399.149L398.568,399.305L399.002,399.605L399.828,400.344L400.268,400.65L400.262,400.32L400.323,400.09L400.419,399.896L400.511,399.64L400.792,399.834L401.004,399.887L401.218,399.82L401.505,399.64L400.899,399.464L399.055,398.678L400.268,397.171L400.74,397.324L400.946,397.733L401.053,398.236L401.241,398.678L401.554,398.934L402.353,399.322L402.721,399.64L402.915,399.961L404.062,402.537L404.421,402.872L404.51,402.81L405.709,403.052L405.88,403.119L407.03,402.784L407.195,402.068L406.769,401.509L406.144,401.636L405.979,401.209L406.1,400.897L406.425,400.714L406.873,400.65L407.204,400.773L407.36,401.071L407.482,401.439L407.69,401.759L408,402.413L407.673,402.993L407.085,403.54L406.63,404.109L406.856,404.088L407.328,404.126L407.554,404.109L407.169,405.336L407.117,405.734L407.212,406.008L407.412,406.282L407.577,406.617L407.554,407.094L406.991,408.143L405.858,409.283L404.582,410.204L402.276,411.012L400.93,412.022L398.826,414.118L398.157,414.997L397.741,415.405L396.748,415.776L392.298,419.272L391.621,419.628L387.951,421.205L384.387,423.673L383.486,424.055L377.517,425.37L374.773,425.576L374.163,425.778L373.6,426.089L366.623,431.707L365.792,432.164L364.898,432.434L363.953,432.423L363.203,432.145L361.754,431.351L360.915,431.182L359.819,431.68L358.587,431.924L353.935,431.92L352.732,432.198L351.78,433.034L351.154,433.472L350.412,433.66L349.941,433.96L348.525,435.317L347.874,435.662L347.48,435.647L346.712,435.463L346.285,435.418L345.899,435.493L345.178,435.831L344.119,436.12L343.549,436.607L342.747,437.624L339.242,440.013L338.356,441.116L338.336,441.104L337.293,440.493L334.472,439.781L333.211,439.132L331.247,437.057L329.97,436.168L328.326,435.91L327.973,436.007L327.186,436.337L326.778,436.408L326.355,436.292L325.656,435.778L325.311,435.662L325.197,435.591L325.009,435.257L324.947,435.167L324.73,435.171L324.549,435.257L324.439,435.362L324.439,435.418L324.161,435.413L323.358,435.396L321.324,435.745L320.989,436.101L320.673,436.183L319.224,436.273L318.635,436.416L316.399,437.691L316.157,438.006L316.065,438.539L315.517,440.178L315.182,440.621L315.233,441.274L314.38,442.801L314.193,443.615L314.336,444.099L314.549,444.546L314.616,444.993L314.325,445.477L313.88,445.875L313.141,446.397L310.552,447.542L308.967,448.818L308.305,449.197L307.543,449.333L306.414,449.344L305.642,449.494L304.355,450.177L303.612,450.335L303.181,450.53L302.906,450.981L302.703,451.484L302.505,451.845L302.207,452.104L301.968,452.232L301.291,452.344L300.478,452.344L298.717,451.845L298.426,451.698L297.793,451.026L297.382,450.831L297.047,450.853L296.771,450.989L296.491,451.169L296.146,451.327L294.87,451.466L293.318,451.297L290.294,450.606L289.044,450.001L287.801,448.95L286.834,447.733L286.407,446.614L285.848,446.945L285.532,447.185L285.197,447.331L281.905,447.628L281.379,447.527L280.497,446.952L279.794,446.9L279.456,446.727L278.853,446.93L277.242,448.844L276.253,450.305L275.933,450.606L275.524,450.823L274.211,451.327L273.866,451.612L273.675,451.845L273.413,452.01L272.465,452.115L271.935,452.299L269.703,452.66L269.088,452.592L268.195,452.145L267.996,452.07L267.772,451.879L267.558,451.026L267.279,450.831L263.123,450.831L262.954,450.91L262.77,451.079L262.523,451.248L261.405,451.417L260.111,451.789L259.589,451.845L259.221,451.74L258.669,451.402L258.243,451.327L256.775,451.578L256.367,451.293L256.047,450.636L255.94,449.888L256.168,449.344L255.929,448.619L255.848,447.797L255.65,447.117L255.076,446.84L254.752,446.764L254.51,446.577L254.278,446.333L253.98,446.096L253.638,445.95L252.851,445.743L252.501,445.601L251.203,444.797L250.46,444.463L249.949,444.497L249.261,444.7L248.596,444.347L248.276,443.66L248.614,442.85L248,442.103L247.525,441.867L246.183,441.882L245.955,441.818L244.947,441.386L243.491,441.116L243.02,441.439L241.909,442.85L241.281,443.345L239.493,443.672L238.839,444.062L239.114,444.858L238.684,445.139L238.291,445.623L237.993,446.126L237.743,446.873L237.386,447.102L235.466,447.609L235.426,447.605L234.591,448.078L234.006,447.928L233.432,447.699L233.042,447.729L232.998,448.353L232.594,448.221L232.432,448.018L232.34,447.767L232.149,447.493L231.832,447.249L231.667,447.23L231.527,447.313L231.295,447.38L231.288,447.414L230.814,447.605L230.659,447.62L229.784,447.579L229.453,447.47L229.217,447.237L229.155,447.038L227.669,447.08L212.826,446.93L212.767,446.614L212.767,444.734L212.686,444.204L212.509,443.777L212.34,443.45L212.259,443.232L212.108,442.966L211.774,442.677L211.439,442.294L211.134,441.311L210.468,440.756L210.317,440.482L210.049,439.735L209.383,439.132L208.523,438.678L206.985,438.156L206.695,438.119L206.43,438.212L205.977,438.61L205.742,438.636L205.514,438.359L204.727,436.881L204.94,436.768L205.246,436.528L205.455,436.408L205.455,436.183L204.893,435.861L204.429,435.328L204.113,434.623L203.999,433.795L203.911,433.469L203.69,433.187L203.407,432.989L202.763,432.828L202.594,432.599L202.484,432.28L202.296,431.924L200.601,430.458L200.332,429.821L200.229,428.933L199.755,427.445L199.6,426.703L199.777,425.789L200.486,424.875L200.814,424.452L201.469,422.972L201.546,422.598L201.546,420.991L202.005,418.726L201.869,417.778L202.086,417.471L202.52,417.146L202.428,416.678L202.215,416.42L201.983,416.251L201.833,416.045L201.77,415.884L201.546,415.551L202.017,414.788L201.987,413.998L201.649,413.268L200.884,412.359L200.788,412.146L200.818,411.45L200.718,411.027L200.593,410.99L200.476,410.956L200.167,410.974L199.865,410.832L199.578,410.421L199.343,409.946L199.177,409.444L199.142,409.159L199.118,408.966L199.192,408.502L199.523,407.69L199.6,407.346L199.449,406.673L198.765,405.525L198.607,404.743L199.328,400.795L199.339,400.41L199.262,399.961L198.964,399.173L198.626,397.252L197.445,394.584L197.173,393.351L197.246,392.993L197.563,392.287L197.636,391.872L197.588,391.48L197.173,390.244L196.103,388.724L195.698,387.981L192.145,383.561L192.105,383.411L191.461,382.788L191.299,382.698L190.509,381.877L190.303,381.59L190.126,380.907L190.038,380.261L189.814,379.784L188.751,379.396L185.29,375.725L184.26,375.251L183.646,374.576L183.377,374.419L182.171,372.95L181.678,372.674L181.34,372.271L181.293,372.24L180.189,371.511L178.953,371.059L178.376,371.578L177.942,372.074L177.103,372.771L176.574,373.677L177.236,375.288L177.169,375.919L176.919,377.008L176.894,377.668L176.768,378.138L176.474,378.508L175.948,378.855L175.948,379.101L175.364,379.739L174.948,379.437L174.562,378.72L173.705,377.993L172.697,377.389L171.862,377.045L170.939,376.437L170.031,375.516L169.056,374.908L167.914,375.225L166.973,375.758L166.068,375.878L166.05,375.875L165.115,375.71L164.031,375.367L162.824,375.24L161.96,375.602L161.121,376.094L160.014,376.363L158.536,376.258L157.848,376.046L157.3,375.658L156.872,374.983L156.259,373.644L155.601,373.021L153.6,371.593L152.964,371.369L152.648,371.428L152.085,371.801L151.78,371.898L151.353,371.857L150.614,371.634L150.117,371.637L149.882,371.753L149.393,372.159L149.069,372.271L148.937,372.193L147.894,371.779L146.936,371.566L146.612,371.436L144.421,369.732L142.64,367.954L142.015,367.588L141.324,367.618L140.647,367.965ZM388.296,304.849L388.841,305.454L388.783,306.611L388.215,309.031L387.202,311.364L386.727,312.012L386.657,312.278L386.663,312.506L386.617,312.74L386.373,313.477L386.266,313.67L385.956,314.091L385.893,314.345L385.719,314.775L385.296,314.775L384.312,314.483L383.278,314.822L382.826,315.6L382.609,316.424L382.27,316.91L380.863,317.465L380.142,317.629L379.551,317.647L378.833,317.354L377.891,316.345L377.318,315.907L377.651,315.828L378.253,315.804L378.555,315.682L378.56,315.582L378.653,315.325L378.769,315.091L378.821,315.082L378.902,314.81L379.105,314.746L379.348,314.763L379.551,314.699L381.086,313.205L381.601,312.384L381.271,311.98L381.471,311.378L381.879,311.098L382.435,311.022L383.087,311.027L383.68,310.908L384.792,310.39L385.4,310.267L385.204,309.978L384.868,309.925L383.947,310.022L383.947,309.8L384.375,309.695L384.752,309.496L385.4,309.04L386.162,308.724L386.489,308.444L386.735,307.523L387.022,306.988L387.375,306.521L387.691,306.322L387.865,306.135L388.227,305.209ZM375.763,257.655L375.893,257.978L376.852,259.674L376.69,261.221L375.792,262.297L374.518,262.725L373.209,262.34L372.693,261.877L372.213,261.247L371.865,260.531L371.164,257.48L371.245,256.944L370.446,257.188L370.452,257.576L370.785,258.048L371.002,258.535L370.959,259.339L370.785,259.534L369.792,259.164L369.948,258.476L369.745,257.926L368.819,256.944L367.701,255.213L367.388,254.951L367.116,254.724L366.632,254.989L366.632,255.251L366.841,255.283L366.867,255.388L366.838,255.545L366.875,255.74L366.398,255.408L366.247,255.968L366.372,256.775L366.754,257.188L366.667,257.235L366.612,257.314L366.476,257.331L366.146,257.188L365.824,256.982L365.703,256.845L365.621,256.699L363.826,254.622L363.49,254.06L363.035,252.452L362.723,251.808L364,250.244L363.71,248.176L363.05,245.954L363.206,243.945L363.166,243.509L363.2,243.089L363.299,242.725L363.45,242.46L363.557,242.65L363.832,243.017L363.936,243.214L364.53,242.248L365.801,241.188L366.389,240.504L366.681,239.378L366.93,236.732L367.579,236.086L367.996,237.177L369.082,239.139L369.299,240.396L369.047,241.901L369.033,242.46L369.143,243.011L369.456,244.03L369.519,244.557L369.682,245.113L370.365,246.237L370.759,247.876L370.976,248.001L371.732,248.121L371.81,248.601L371.72,249.038L371.567,249.481L371.489,249.964L371.506,250.535L371.575,250.969L371.72,251.368L371.975,251.808L371.549,252.335L371.367,252.626L371.245,253.031L371.761,252.813L372.079,253.031L372.349,253.433L372.705,253.745L372.731,253.215L372.965,252.865L373.252,252.839L373.429,253.276L373.591,253.256L373.634,253.232L373.634,253.171L373.678,253.031L374.251,253.18L374.257,252.434L374.089,251.371L374.164,250.588L374.784,251.406L375.103,252.423ZM379.307,225.201L379.325,223.95L379.464,223.38L379.794,222.885L379.574,222.502L380.02,222.426L381.271,222.641L380.984,222.135L380.24,221.222L380.037,220.669L380.593,220.812L381.294,220.864L381.922,220.757L382.27,220.425L381.862,220.332L381.514,220.201L381.227,220L381.004,219.692L381.56,219.698L382.412,219.477L382.974,219.448L383.617,219.782L383.97,219.68L384.213,218.959L383.495,219.227L382.626,218.983L381.004,217.959L380.654,218.186L380.22,218.052L379.817,217.688L379.551,217.226L379.933,217.383L380.185,217.566L380.425,217.636L380.761,217.47L381.103,217.575L382.313,217.758L382.974,217.738L382.707,217.47L382.979,216.778L382.846,216.188L382.464,215.999L381.983,216.499L382.169,215.772L382.27,215.543L382.061,215.278L381.783,215.104L381.427,215.089L381.004,215.319L381.086,214.923L381.141,214.76L381.271,214.545L381.126,214.121L381.172,213.615L381.358,213.237L381.627,213.205L382.047,213.406L382.238,213.283L382.209,212.975L381.983,212.615L381.676,212.435L380.524,211.993L380.628,211.653L381.12,211.254L381.271,210.885L380.761,211.129L380.472,210.469L380.663,209.952L381.143,209.783L381.763,210.152L381.902,209.58L381.503,209.246L380.923,208.935L380.524,208.446L380.506,208.033L380.724,207.034L380.767,206.49L380.848,206.673L380.932,206.821L381.033,206.926L381.141,206.961L381.416,207.118L381.61,207.458L381.728,207.801L381.763,207.958L382.157,207.903L382.29,207.638L382.366,207.345L382.586,207.205L382.765,207.33L383.339,207.903L383.46,208.068L385.102,209.01L385.4,209.289L385.424,209.699L385.51,210.057L385.658,210.187L385.893,209.908L385.867,209.621L385.731,209.278L385.736,208.879L386.159,208.446L386.197,208.708L386.321,208.975L386.373,209.179L386.666,208.592L386.874,207.877L386.953,207.202L386.883,206.737L387.364,207.051L387.364,207.781L387.271,208.632L387.674,209.969L387.274,210.615L386.64,211.115L386.159,211.353L386.336,211.987L386.223,212.679L386.006,213.379L385.893,214.057L386.234,215.127L386.266,215.319L386.594,215.167L386.622,214.827L386.559,214.478L386.617,214.301L387.068,214.499L387.126,215.127L386.883,216.499L386.872,218.605L386.617,219.18L386.883,219.448L386.457,219.948L385.4,223.107L385.128,223.49L384.981,223.642L384.928,223.869L384.914,224.474L384.752,224.945L384.439,225.026L384.233,224.738L384.407,224.101L384.213,224.101L383.973,224.683L383.848,224.895L383.68,225.079L383.799,225.457L383.611,225.855L383.211,226.225L382.707,226.545L382.366,226.638L382.27,226.504L382.392,226.277L382.707,226.079L382.707,225.812L382.2,225.94L381.818,226.178L381.526,226.236L381.271,225.812L380.031,225.852L379.516,225.684ZM382.829,317.679L383.971,317.552L384.775,317.594L384.945,318.102L384.564,318.568L383.083,320.219L382.025,321.192L381.433,321.15L381.221,320.557L381.433,319.626L381.856,318.865ZM364.47,237.9L364.445,238.39L364.617,239.026L364.911,239.466L364.667,239.833L364.887,240.298L364.888,241.008L364.447,241.106L364.056,241.081L363.982,240.567L364.055,239.931L364.152,238.928L364.054,238.194ZM376.901,224.506L377.214,224.672L377.735,225.004L378.11,225.524L378.528,226.169L379.09,226.377L379.631,226.522L379.986,226.979L379.903,227.416L378.945,227.48L378.32,226.981L377.778,226.337L377.465,225.879L377.048,225.442L376.672,224.922Z"/>
</svg>
