<svg xmlns="http://www.w3.org/2000/svg" viewBox="0 0 420 520" aria-label="Map of Uganda">
  <path fill="currentColor" d="M78.991,437.102L78.196,436.854L77.092,436.511L76.106,436.646L75.154,437.073L74.014,437.358L72.792,437.201L71.554,436.841L70.355,436.661L69.245,437.058L68.634,438.093L68.165,441.093L67.79,442.196L67.348,442.563L66.133,443.111L65.871,443.327L65.623,443.531L65.413,443.966L65.252,445.009L65.113,445.489L64.333,446.801L63.384,448.016L60.156,451.084L59.035,451.751L58.499,451.909L57.922,451.954L57.344,452.051L56.774,452.389L56.257,453.379L55.815,456.192L55.44,457.294L54.652,458.029L51.69,459.184L49.548,460.332L49.171,460.535L48.226,461.51L47.566,463.092L46.816,463.25L41.89,465.98L40.296,466.573L38.77,466.738L37.353,466.333L36.108,465.17L35.403,463.633L35.231,460.647L34.908,459.124L32.869,456.162L32.074,455.757L32.066,455.755L31.421,455.659L30.792,455.847L30.12,456.267L29.464,457.047L29.029,458.479L28.43,458.832L27.927,458.652L26.382,457.714L25.52,457.519L23.758,457.834L22.543,458.464L21.422,459.274L19.926,460.115L18.576,460.482L17.054,460.595L14.137,460.437L14.819,456.177L14.804,454.789L14.52,453.971L13.672,452.516L13.635,451.744L14.321,449.906L14.392,449.291L13.965,447.724L13.218,446.614L12.622,445.444L12.615,443.696L13.5,439.211L13.567,437.906L13.267,436.503L12.199,433.713L12,432.438L12.21,431.568L12.222,431.548L12.585,430.931L12.862,430.226L12.776,429.154L12.495,427.789L12.45,427.069L12.547,426.409L13.357,425.134L15.502,424.406L16.319,423.431L16.522,422.381L16.709,418.017L16.544,416.487L15.899,413.66L15.959,412.145L16.867,406.43L17.107,406.055L17.511,405.756L17.864,405.388L17.958,404.826L17.789,404.391L17.226,403.618L17.107,403.183L17.399,402.388L18.074,402.193L18.846,402.141L19.431,401.744L19.589,400.731L19.349,396.284L19.011,395.167L18.251,393.575L18.051,393.157L17.871,391.792L19.438,382.654L19.656,381.384L20.859,374.268L21.298,371.673L22.562,364.272L23.649,361.603L24.035,360.238L23.972,358.851L23.113,355.686L23.218,354.434L23.852,352.469L27.042,348.022L27.44,347.205L28.295,347.543L28.827,348L29.322,348.195L30.042,347.738L30.297,347.183L32.617,335.245L33.124,333.685L33.956,332.328L37.789,327.899L39.168,326.306L39.398,325.806L40.442,323.539L40.262,320.712L38.92,314.848L38.958,313.355L39.85,307.225L39.453,303.471L39.557,302.736L40.937,299.864L41.875,299.32L43.469,298.092L44.499,297.299L47.544,295.923L55.29,294.164L55.995,293.763L56.782,292.837L58.094,290.392L58.319,290.13L58.657,288.96L60.291,287.242L60.794,285.896L60.404,282.945L60.381,281.542L61.304,280.676L61.559,280.042L61.746,279.292L61.896,277.74L62.091,277.267L64.303,274.999L64.929,274.684L65.548,274.489L66.215,274.608L67.003,275.242L68.255,275.827L69.143,274.882L70.025,273.42L71.239,272.475L72.087,272.4L73.729,272.58L74.704,272.475L76.076,272.115L77.088,271.695L78.011,271.05L79.462,269.82L84.934,262.78L88.096,258.713L94.223,250.826L104.038,242.902L114.008,234.834L119.189,230.655L124.281,224.258L125.957,222.153L130.614,216.284L134.933,210.842L137.01,207.079L137.637,203.562L137.662,203.419L137.539,203.23L136.721,201.978L132.616,199.648L131.109,198.474L130.554,197.224L130.306,195.697L130.197,192.564L126.692,193.889L125.485,194.076L124.502,194.031L121.323,193.483L120.265,192.928L119.891,192.272L120.131,191.979L120.535,191.765L120.648,191.348L120.475,190.812L120.31,190.508L116.216,185.904L114.994,185.119L112.302,185.108L111.11,187.101L110.101,189.438L108.013,190.448L106.79,189.892L105.441,188.684L104.241,187.258L103.506,186.069L103.311,185.007L103.322,183.903L103.161,183.018L102.441,182.601L97.357,182.552L96.315,182.237L96.105,180.991L96.765,179.479L97.68,178L98.234,176.833L98.294,175.531L98.017,172.844L98.107,171.492L98.407,170.749L99.824,168.535L99.993,167.968L100.048,167.664L100.214,166.748L102.636,160.214L102.726,159.838L102.741,159.117L102.921,158.708L103.229,158.506L104.106,158.337L104.391,158.194L104.886,157.473L106.678,152.586L106.783,149.691L105.996,146.816L104.323,143.884L103.067,142.727L99.689,140.373L98.819,139.296L98.729,137.903L99.022,136.359L100.15,132.964L103.109,124.058L104.41,121.485L104.672,121.32L105.546,121.121L105.883,120.952L106.116,120.577L106.206,119.814L106.337,119.461L107.773,116.984L109.865,114.682L110.417,113.881L110.787,113.345L111.245,111.79L111.11,110.941L110.382,109.416L110.27,108.584L110.757,106.53L110.735,105.878L109.797,104.146L108.62,104.55L107.248,105.728L105.673,106.31L105.981,105.168L107.57,102.039L112.362,95.049L112.692,94.195L112.917,93.355L113.284,92.564L114.087,91.858L114.848,91.595L116.284,91.63L117.022,91.529L118.008,91.074L120.243,89.297L120.918,89.023L122.298,88.751L122.95,88.491L124.89,86.974L127.58,84.869L129.474,84.339L132.901,84.343L135.87,84.756L138.72,85.664L144.719,88.927L153.987,93.977L155.314,94.251L156.096,93.562L156.169,93.498L157.016,92.44L158.291,91.8L165.82,90.693L167.147,90.126L167.822,89.511L173.596,83.009L173.753,82.592L173.978,82.637L175.438,83.317L175.868,83.516L177.585,84.959L182.752,90.746L183.794,92.493L184.068,93.872L184.289,97.217L184.791,98.447L185.781,98.964L191.482,99.315L192.058,99.351L192.882,99.792L193.803,101.267L194.285,102.039L195.395,103.186L196.617,103.819L201.176,104.742L202.057,104.708L202.533,104.079L202.633,103.618L202.856,102.591L202.871,101.464L202.556,98.863L202.634,97.921L203.493,96.935L216.844,88.799L220.02,88.055L233.349,86.966L244.751,86.04L250.84,84.202L256.538,81.303L260.94,78.028L262.222,77.568L263.673,78.175L272.833,85.671L274.355,86.474L276.601,86.909L283.211,87.238L294.879,87.832L298.021,87.441L300.71,85.864L301.065,85.656L306.404,80.29L313.348,73.31L321.458,65.167L327.434,59.179L333.313,53.262L335.413,54.279L337.048,55.567L337.955,57.254L337.858,59.493L337.948,60.484L338.585,61.281L339.395,62.023L340.002,62.841L340.227,63.684L340.25,64.539L340.04,66.235L339.755,67.248L339.44,67.939L339.41,68.678L339.98,69.834L340.842,70.64L341.907,71.352L342.747,72.188L342.927,73.363L342.154,75.227L341.232,76.903L341.127,78.163L342.814,78.774L343.954,78.549L346.833,77.519L348.243,77.527L349.848,78.366L350.035,79.36L349.248,80.341L345.784,82.137L345.919,82.536L347.058,82.964L347.966,84.071L346.518,84.997L346.039,85.559L346.961,85.908L347.576,85.867L348.828,85.544L350.253,85.45L351.693,85.042L352.457,84.978L352.502,85.333L354.115,87.419L355.209,90.351L356.049,90.828L356.387,90.524L356.702,89.827L357.459,89.117L359.431,88.544L360.736,89.068L363.091,91.585L364.455,92.299L365.813,92.716L366.877,93.404L367.365,94.933L367.185,100.778L366.502,103.692L365.123,105.814L364.448,106.158L363.705,106.353L363.046,106.642L362.641,107.279L362.701,108.066L363.593,109.623L363.893,110.421L363.78,111.11L363.053,112.891L362.836,113.713L363.023,114.583L363.593,115.362L364.275,116.107L364.808,116.885L365.745,119.784L366.465,128.707L367.252,130.37L368.767,131.335L372.186,132.315L373.709,133.326L374.559,134.849L374.563,134.858L376.671,145.847L377.398,147.112L379.7,149.676L380.787,151.411L381.447,152.094L382.437,152.357L382.887,152.203L383.697,151.538L383.997,151.392L384.177,151.264L384.499,150.697L384.679,150.581L384.957,150.712L385.114,150.964L385.234,151.216L385.377,151.347L385.511,151.542L387.566,152.529L387.949,152.623L388.443,153.239L388.736,153.881L390.213,158.461L391.315,164.77L394.375,171.136L395.057,171.804L396.055,171.879L396.64,171.342L397.119,170.738L397.779,170.637L398.507,171.628L398.919,175.242L399.339,176.627L401.319,178.661L401.986,179.899L401.791,181.547L400.719,182.834L399.257,183.667L397.944,184.68L397.307,186.474L397.779,189.326L400.586,196.097L401.896,199.258L405.173,207.158L405.18,208.563L404.498,211.801L404.386,213.213L404.476,214.714L404.776,216.168L405.293,217.439L405.93,218.194L407.633,219.784L408,220.593L407.73,221.371L406.373,223.089L406.058,223.973L405.983,238.081L405.548,239.656L403.246,244.534L402.721,245.357L401.979,246.053L401.259,246.383L399.736,246.694L399.009,247.06L397.337,249.55L395.807,255.411L391.495,258.94L391.623,260.156L391.765,261.52L393.025,264.472L393.783,267.359L392.868,270.307L390.558,271.353L384.589,271.965L383.082,272.887L380.607,275.265L377.091,276.067L376.596,277.395L376.476,279.03L376.106,279.661L375.696,280.361L375.611,280.377L374.181,280.65L372.996,279.979L371.796,279.697L370.312,281.152L369.599,282.45L368.992,283.927L368.617,285.472L368.572,288.727L368.145,290.212L366.263,294.862L364.17,297.58L363.128,300.502L361.883,301.634L357.227,303.966L356.627,304.604L356.471,305.513L356.184,307.183L355.014,310.296L353.267,312.17L350.92,313.363L347.973,314.428L345.829,315.897L344.584,318.132L344.524,318.379L342.777,325.541L342.552,326.156L342.042,326.913L340.79,328.398L340.467,329.058L340.542,330.393L341.359,333.04L341.157,334.517L340.535,335.477L337.925,337.502L332.094,345.279L331.476,346.103L327.255,351.727L327.03,353.159L329.287,360.635L331.529,368.089L331.604,370.893L330.269,382.411L328.544,397.372L327.344,407.78L327.614,417.672L328.027,432.438L322.08,432.438L308.804,432.438L308.26,432.438L295.516,432.438L293.361,432.438L282.236,432.438L268.949,432.438L255.672,432.438L251.338,432.438L242.389,432.438L242.272,432.438L229.108,432.438L215.817,432.438L202.533,432.438L189.246,432.438L188.867,432.438L175.965,432.438L162.685,432.438L149.402,432.438L137.666,432.438L136.118,432.438L122.838,432.438L109.55,432.438L104.863,432.438L103.708,431.869L101.144,431.224L98.414,432.648L95.662,433.518L94.613,434.066L92.018,436.811L91.096,437.576L89.349,437.028L87.766,436.856L84.107,437.193L82.757,437.508L81.884,437.576L81.475,437.388L81.1,436.983L80.56,436.623L79.66,436.541L79.075,437.013Z"/>
</svg>
