<svg xmlns="http://www.w3.org/2000/svg" viewBox="0 0 420 520" aria-label="Map of South Africa">
  <path fill="currentColor" d="M92.723,58.354L92.803,58.645L92.909,58.77L93.193,58.988L93.498,59.473L94.336,60.14L94.77,60.635L94.949,60.76L95.103,60.802L95.438,60.825L95.603,60.873L96.84,61.629L98.932,63.365L99.104,63.596L99.612,64.699L100.05,65.396L100.226,65.782L100.201,66.045L100.058,66.344L100.211,66.587L100.512,66.772L100.823,66.894L100.853,67.362L100.885,67.478L100.987,67.584L101.28,67.736L101.386,67.845L101.421,68.013L101.361,68.123L101.289,68.222L101.29,68.358L101.357,68.484L101.526,68.715L101.593,68.856L101.7,69.413L101.804,69.611L102.072,69.787L102.545,70.002L102.636,70.167L102.689,70.519L102.934,70.486L102.924,70.636L102.835,70.858L102.847,71.042L103.007,71.116L103.155,71.055L103.297,70.964L103.444,70.958L103.655,71.146L103.175,71.45L103.069,71.733L103.039,72.234L103.765,72.885L103.896,73.36L103.796,73.536L103.441,73.755L103.354,73.884L103.404,74.078L103.571,74.14L103.76,74.169L103.886,74.277L103.896,74.476L103.755,74.864L103.757,75.049L103.889,75.233L104.303,75.441L104.47,75.581L104.629,75.9L104.97,77.093L104.798,77.439L104.788,77.604L105.007,77.528L105.168,77.445L105.262,77.454L105.442,77.664L105.446,77.731L105.883,78.802L106.023,80.362L105.986,81.658L106.042,81.997L106.649,83.08L106.592,83.359L105.893,84.353L105.593,85.051L105.221,85.695L104.286,86.882L103.807,87.783L103.583,88.072L103.104,88.429L103.034,88.65L102.825,89.618L102.776,90.142L102.825,90.604L102.925,90.825L103.188,91.203L103.263,91.465L103.237,91.882L102.883,93.11L102.888,93.656L102.977,94.326L103.141,94.983L103.365,95.483L103.466,95.62L103.558,95.714L103.802,95.885L103.961,96.083L104.127,96.659L104.209,96.841L104.254,96.791L104.601,96.537L105.645,96.048L106.4,95.517L106.818,95.294L107.722,95.176L108.41,95.466L109.061,95.875L111.2,96.361L111.702,96.346L113.112,95.937L113.343,95.933L113.797,95.991L114.025,95.982L115.384,95.611L116.125,95.586L116.495,95.654L117.291,96.018L118.672,96.053L119.634,96.314L119.978,96.32L120.344,96.177L121.261,95.547L121.561,95.256L121.74,94.936L121.807,94.604L121.79,94.253L121.644,93.44L121.665,93.157L121.857,92.966L122.289,92.811L122.799,92.719L124.371,92.708L125.393,92.461L126.344,91.869L127.161,91.042L127.777,90.088L128.297,88.653L128.607,88.005L129.259,87.331L129.43,86.972L129.576,86.864L130.319,86.731L130.571,86.645L130.961,86.438L131.807,85.617L132.354,84.797L132.71,84.501L133.224,84.406L133.959,84.566L134.237,84.452L134.539,83.979L134.806,83.354L134.988,83.113L135.306,82.886L135.463,82.723L135.502,82.683L136.178,81.639L136.191,81.431L136.131,81.25L136.123,81.09L136.295,80.945L136.755,80.771L136.914,80.656L137.058,80.429L137.137,80.127L137.185,79.703L137.179,79.301L137.095,79.074L136.888,78.75L137.06,78.449L137.385,78.164L137.631,77.893L137.805,77.59L137.783,77.478L137.683,77.22L137.569,77.041L137.473,77.006L137.411,76.948L137.4,76.699L137.497,76.309L137.713,75.941L138.436,75.085L138.529,74.908L138.571,74.723L138.606,74.466L138.581,74.271L138.519,74.116L138.539,73.973L138.759,73.802L138.904,73.627L138.829,73.438L138.675,73.247L138.581,73.071L138.591,72.919L138.636,72.772L138.764,72.496L139.087,71.385L139.195,71.209L139.607,71.042L139.783,70.831L140.042,70.134L140.176,69.913L140.315,69.76L140.484,69.648L140.708,69.548L140.892,69.43L140.959,69.291L140.996,69.137L141.085,68.978L141.716,68.332L142.099,68.128L142.486,68.184L142.593,68.33L142.663,68.511L142.764,68.604L142.961,68.491L143.115,68.361L144.332,67.78L145.102,67.551L145.905,67.493L146.79,67.662L147.528,67.947L147.779,68.006L148.067,67.984L148.598,67.786L148.807,67.747L149.04,67.819L149.183,67.963L149.431,68.345L149.644,68.572L149.806,68.693L150.28,68.913L150.688,69.165L152.398,70.515L152.521,70.693L152.723,70.905L153.629,71.185L153.781,71.322L153.946,71.696L154.055,71.856L154.206,71.948L154.534,72.056L154.678,72.147L155.292,72.963L156.025,73.497L156.269,73.85L156.577,74.043L157.414,73.833L157.602,73.869L157.767,73.973L157.936,74.114L157.951,74.26L157.864,74.414L157.888,74.5L158.234,74.448L159.916,73.989L160.766,73.984L161.483,74.398L162.601,75.737L163.283,76.246L164.099,76.383L164.544,76.268L164.868,76.129L165.191,76.088L165.906,76.354L167.134,76.813L167.991,77.402L168.564,77.532L169.745,77.398L170.276,77.519L170.728,77.638L171.218,77.58L172.184,77.322L172.505,77.186L173.469,76.445L174.204,76.088L174.826,75.995L175.451,76.099L176.19,76.331L176.868,76.452L180.247,76.097L181.412,75.516L183.498,73.869L183.848,72.787L184.56,71.065L184.733,70.647L185.25,68.317L186.666,65.12L187.023,63.93L187.513,63.064L187.543,62.399L188.015,61.31L188.186,60.736L188.194,60.017L188.027,58.713L188.05,58.276L188.142,58.192L188.266,58.169L188.8,57.985L189.632,58.016L189.876,57.887L190.402,57.499L192.868,56.72L194.696,56.143L195.456,56.035L195.76,56.064L196.068,56.136L196.361,56.162L196.724,56.22L196.729,56.221L197.784,55.127L197.903,54.923L198.376,53.657L198.783,53.12L199.223,52.756L200.277,52.067L201.259,51.036L201.402,50.772L201.744,50.583L203.173,50.116L203.512,49.924L203.77,49.689L203.941,49.378L204.252,47.821L204.284,47.03L205.422,42.323L205.484,41.845L205.373,41.485L205.834,40.641L205.8,40.498L205.76,40.326L205.843,39.995L206.157,39.434L206.442,38.707L206.599,38.577L206.768,38.648L206.858,38.864L206.984,39.058L207.261,39.07L207.509,38.888L207.499,38.634L207.397,38.325L207.371,37.974L207.482,38.025L207.593,38.095L207.643,37.932L207.737,37.826L208.035,37.611L207.926,37.611L208.055,37.397L208.21,37.266L208.389,37.246L208.588,37.37L208.66,37.16L208.572,37.047L208.438,36.93L208.368,36.713L208.438,36.572L208.604,36.543L208.789,36.616L208.92,36.778L208.99,36.658L209.111,36.512L209.151,36.406L209.268,36.547L209.397,36.612L209.542,36.609L209.705,36.537L209.476,36.198L209.654,35.99L210.256,35.802L210.878,35.488L211.161,35.278L211.427,35.019L211.808,34.408L212.042,34.215L212.224,34.762L212.388,34.665L212.542,34.459L212.588,34.357L212.784,34.261L213.022,34.177L213.151,34.211L213.032,34.467L213.259,34.589L213.418,34.481L213.551,34.279L213.705,34.106L213.916,34.02L214.588,33.996L214.938,33.89L215.263,33.673L215.502,33.356L215.594,32.961L215.568,32.844L215.522,32.704L215.496,32.587L215.538,32.54L215.598,32.511L215.654,32.434L215.69,32.334L215.703,32.234L215.773,31.964L216.078,31.625L216.22,31.134L216.401,31.139L216.632,31.252L216.854,31.325L217.042,31.252L217.684,30.724L218.126,31.221L218.344,31.325L218.578,31.205L218.672,31.041L218.911,30.363L218.936,30.354L219.059,30.256L219.079,30.232L219.156,30.201L219.125,30.13L219.054,30.054L219.022,30.003L218.99,29.917L218.918,29.795L218.871,29.659L218.911,29.521L219.085,29.553L219.433,29.577L219.689,29.482L219.584,29.16L220.2,29L220.876,28.716L221.435,28.322L221.694,27.829L221.562,27.083L221.556,26.682L221.745,26.507L222.056,26.456L222.396,26.329L222.702,26.171L222.921,26.027L223.174,25.76L223.373,25.408L223.442,25.017L223.303,24.641L223.331,24.451L223.632,24.309L224.006,24.2L224.247,24.097L224.312,23.989L224.401,23.721L224.469,23.617L224.601,23.548L224.764,23.51L224.929,23.447L225.077,23.31L225.199,23.082L225.202,22.942L225.154,22.806L225.122,22.592L225.154,22.365L225.234,22.198L225.745,21.549L225.895,21.449L226.071,21.4L226.465,21.36L226.625,21.268L227.212,20.569L227.455,20.359L228.05,20.022L228.67,19.853L230.006,19.759L231.028,20.026L231.287,19.946L231.633,19.643L231.92,19.591L232.238,19.638L232.67,19.64L233.239,19.449L234.41,18.782L235.113,18.563L235.47,18.507L235.794,18.415L236.027,18.228L236.117,17.893L236.276,17.661L236.645,17.643L237.344,17.727L237.634,17.502L238.007,16.8L238.168,16.649L238.241,16.443L238.117,15.214L238.497,14.721L238.805,14.395L239.053,14.248L239.05,14.167L239.388,13.704L239.535,13.641L241.495,13.531L241.783,13.42L242.044,13.189L242.357,12.974L242.78,12.923L243.665,13.115L244.129,13.16L244.429,13.054L244.541,13.128L244.643,13.151L244.882,13.162L245.23,12.974L245.823,12.641L246.159,12.566L246.969,12.763L247.372,12.804L247.546,12.631L247.684,12.341L247.993,12.271L248.541,12.325L249.141,12.049L249.471,12L249.766,12.208L249.957,12.134L251.049,12.078L251.379,12.173L252.32,12.804L252.873,12.923L253.27,13.135L253.854,13.187L254.09,13.256L254.532,13.531L254.691,13.596L255.039,13.675L255.205,13.758L255.513,14.093L255.534,14.171L255.571,14.227L256.053,14.285L256.291,14.386L256.753,14.726L257.141,14.923L257.426,14.945L258.144,14.845L258.544,14.876L258.847,14.968L259.088,15.118L259.315,15.323L259.824,15.683L260.378,15.819L260.979,15.797L261.636,15.681L261.944,15.582L262.552,15.299L262.863,15.214L263.169,15.203L264.219,15.326L264.687,15.323L264.836,15.363L265.083,15.536L265.194,15.573L265.437,15.498L265.872,15.185L266.19,15.084L267.994,14.939L268.522,14.726L268.994,14.854L269.968,14.961L271.732,15.379L272.285,15.625L272.566,15.681L272.718,15.647L272.839,15.62L273.377,15.359L273.618,15.323L273.792,15.431L274.121,15.833L274.234,15.922L274.351,15.956L274.603,16.119L274.734,16.171L274.864,16.155L275.126,16.043L275.286,16.05L275.448,16.182L275.825,16.74L275.666,17.055L276.382,19.29L277.218,21.899L278.051,24.507L278.719,26.596L279.832,30.081L279.93,30.615L279.591,34.64L279.69,35.368L279.992,35.995L281.547,37.682L281.867,38.321L282.492,40.533L283.149,42.085L283.376,42.456L283.681,42.745L284.727,43.52L284.918,43.747L285.005,44.029L285.016,44.319L285.122,47.129L285.226,47.881L286.146,49.887L286.714,51.123L287.122,52.488L287.209,53.863L287.077,55.087L287.09,57.569L287.107,60.574L287.118,62.705L287.133,65.549L287.157,69.439L286.881,70.315L286.816,70.769L286.796,71.359L286.856,71.919L287.025,72.29L287.119,72.664L287.269,73.791L287.271,74.181L287.204,74.42L287.093,74.53L286.936,74.626L286.729,74.827L286.601,75.044L285.914,76.848L285.815,77.346L285.882,77.885L286.518,79.958L285.589,80.421L285.127,80.531L284.661,80.39L283.242,79.466L282.977,79.293L281.49,78.326L279.775,77.212L278.059,76.099L277.648,75.961L277.171,75.969L276.61,76.118L276.155,76.346L274.521,77.807L273.087,79.092L272.877,79.468L272.63,80.418L271.758,82.517L270.659,84.484L269.484,85.975L267.982,87.885L267.631,89.24L267.651,91.167L267.676,93.669L267.838,94.913L267.948,95.337L268.229,95.32L268.498,95.268L268.773,95.114L269.021,94.902L269.207,94.671L269.289,94.915L269.569,95.744L269.783,96.072L270.247,96.566L270.419,96.834L270.515,97.194L270.495,97.647L270.327,98.36L270.396,98.813L270.759,99.444L272.422,100.957L273.195,102.129L273.445,102.381L273.69,102.546L275.109,103.038L275.683,103.237L276.922,103.666L278.587,104.243L279.673,104.465L281.46,104.489L283.818,104.521L285.374,104.544L286.826,104.563L286.817,104.322L286.77,104.115L286.688,103.921L286.578,103.723L286.488,103.456L286.447,102.106L286.436,101.759L286.402,100.637L286.687,98.967L286.939,97.474L287.214,95.87L287.179,95.326L288.265,95.331L288.524,95.382L288.923,95.783L289.184,95.901L289.658,96.005L290.482,95.907L290.951,95.926L292.13,96.119L293.043,96.269L294.933,96.217L297.025,96.155L299.297,96.087L301.801,96.012L301.598,96.752L301.351,99.122L301.054,100.279L301.016,100.675L300.931,101.055L300.354,101.867L300.311,102.024L300.244,102.549L300.208,102.705L300.058,102.985L299.987,103.464L298.295,108.292L297.172,113.65L297.148,114.06L297.116,114.247L296.965,114.681L296.918,114.878L296.915,115.102L297.006,115.446L297.028,115.641L296.255,120.212L296.148,120.553L294.788,122.696L294.696,122.99L294.632,123.412L294.452,123.798L294.174,124.08L293.811,124.189L293.871,124.368L293.93,124.419L294.013,124.389L294.144,124.315L294.274,124.953L294.096,125.637L293.829,126.304L293.689,126.905L293.483,127.228L292.086,128.669L291.874,128.837L291.354,129.092L291.147,129.233L290.99,129.438L290.688,129.968L290.475,130.243L288.696,131.781L288.252,131.411L287.613,131.511L287.242,131.905L287.601,132.411L287.73,132.251L287.945,132.062L288.204,131.92L288.474,131.893L288.166,132.489L287.535,133.019L285.532,134.096L284.944,134.218L284.323,134.196L283.6,134.051L283.621,134.209L283.653,134.316L283.713,134.388L283.821,134.443L283.821,134.557L283.326,134.864L280.174,138.489L279.409,139.177L279.154,139.301L279.056,139.375L279.018,139.488L278.955,139.814L278.89,139.882L278.682,140.029L278.061,140.906L277.828,141.11L277.277,141.458L277.057,141.657L276.977,141.84L276.89,142.229L276.687,142.353L276.555,142.471L276.434,142.616L276.306,142.947L274.172,145.892L272.046,150.169L271.879,150.91L272.051,151.633L271.402,151.63L271.246,151.78L271.167,152.271L271.412,152.136L271.964,151.949L272.172,151.749L272.172,151.888L272.143,152.019L272.09,152.15L271.949,152.387L271.532,152.895L269.85,154.44L269.376,155.031L268.597,156.402L267.689,158.54L265.343,162.708L265.016,163.469L264.956,163.755L264.824,164.023L264.06,164.857L261.307,170.002L260.848,170.666L260.591,170.936L260.358,171.043L260.141,171.232L259.629,172.343L258.127,174.361L256.952,175.943L256.493,176.267L255.97,177.404L255.115,178.418L252.753,180.68L252.463,180.833L251.464,181.12L251.095,181.295L250.776,181.551L250.642,181.882L249.648,183.114L249.293,183.267L249.146,183.372L249.037,183.736L248.925,183.884L248.798,183.994L248.71,184.034L248.348,184.127L248.056,184.362L247.537,184.942L247.279,185.096L246.641,185.333L246.222,185.634L246.082,185.667L245.93,185.681L245.758,185.734L245.679,185.743L245.5,185.715L245.426,185.734L245.327,185.86L245.35,185.96L245.41,186.043L245.426,186.124L245.106,186.838L244.63,187.109L244.541,187.224L244.475,187.692L244.299,187.943L243.768,188.334L243.241,188.917L242.991,189.277L242.883,189.583L242.841,189.764L242.552,190.289L242.378,190.391L242.331,190.43L242.303,190.505L242.25,190.738L242.22,190.807L241.151,191.304L240.994,191.538L240.927,191.851L240.765,192.206L240.321,192.905L238.329,195.066L236.662,197.37L235.8,197.908L235.657,198.095L233.483,200.122L233.113,200.669L232.976,200.792L232.708,200.923L232.562,201.036L231.965,201.668L231.679,202.069L231.555,202.423L231.451,202.653L229.652,204.067L229.238,204.291L228.711,204.74L228.45,204.878L228.399,205.182L228.023,205.479L227.225,205.916L226.463,206.471L225.981,206.736L225.086,207.002L224.675,207.394L224.363,207.927L224.24,208.498L224.09,208.91L223.738,209.311L222.08,210.706L221.59,210.885L221.445,211.036L221.234,211.348L221.013,211.48L220.986,211.551L220.982,211.65L220.967,211.755L220.902,211.853L220.127,212.211L219.812,212.573L219.632,212.658L219.318,212.708L218.517,213.009L218.239,213.183L216.791,214.727L216.25,215.176L215.106,215.616L214.922,215.778L214.848,215.806L214.471,216.367L214.347,216.438L214.224,216.476L214.088,216.459L213.915,216.367L213.799,216.862L213.412,217.285L212.531,217.995L212.136,218.231L212.07,218.231L212.002,218.184L211.949,218.132L211.917,218.112L211.862,218.17L211.796,218.377L210.071,219.576L209.917,219.766L208.691,220.363L208.438,220.565L208.315,220.7L208.259,220.832L208.228,220.979L208.138,221.134L208.009,221.254L207.861,221.302L207.529,221.362L206.126,222.127L205.813,222.206L205.423,222.232L205.065,222.345L204.157,223.148L203.829,223.238L203.049,223.333L202.508,223.659L200.956,224.333L200.761,224.355L200.634,224.439L200.528,224.802L200.425,224.888L200.073,224.942L198.523,225.728L197.891,225.902L197.223,225.937L195.847,225.732L195.419,225.75L195.108,225.892L194.823,225.943L194.443,225.78L193.835,225.418L191.68,224.983L189.457,224.862L188.035,225.076L186.707,225.499L185.504,226.095L184.984,226.504L184.564,227.04L184.256,227.673L183.988,228.77L183.946,229.231L184.018,229.444L184.335,229.598L184.407,229.769L184.485,229.889L184.951,230.237L185.253,230.731L185.394,230.904L185.37,231.057L185.34,231.119L185.284,231.182L184.774,231.019L184.422,231.135L184.096,231.341L183.674,231.448L183.168,231.389L182.311,231.116L181.845,231.038L181.039,231.143L180.636,231.144L180.199,230.884L179.624,230.782L179.07,230.37L178.482,230.132L177.108,229.761L175.625,229.73L174.175,229.933L173.226,230.21L172.84,230.419L172.585,230.721L172.813,231.523L172.634,231.914L172.357,232.251L172.186,232.383L171.415,233.09L171.303,233.386L171.369,233.624L171.522,233.751L171.675,233.847L171.743,233.987L171.688,234.156L171.411,234.372L171.303,234.522L171.192,234.522L170.988,234.229L170.648,234.113L169.541,234.084L168.649,233.84L168.276,233.789L167.252,233.987L166.944,233.96L165.544,233.585L164.843,233.216L164.275,232.7L163.963,232.579L161.992,232.341L161.71,232.183L161.486,232.022L160.437,231.571L157.54,231.303L157.191,231.221L156.494,230.96L154.767,230.782L151.893,230.103L151.133,230.133L148.526,230.742L148.178,230.899L147.867,231.109L147.608,231.376L147.451,231.803L147.56,232.193L147.846,232.46L148.215,232.517L148.215,232.651L142.62,232.116L142.533,231.99L142.437,231.431L142.396,231.303L141.908,231.265L141.708,231.186L141.571,231.038L141.629,231.332L141.749,231.448L141.906,231.51L142.069,231.644L142.23,231.916L142.233,232.059L142.125,232.183L142.027,232.083L141.8,232.013L141.352,231.971L141.144,232.019L140.989,232.089L140.817,232.14L140.567,232.116L139.274,231.707L138.756,231.383L138.548,231.316L138.366,231.195L138.234,230.904L138.199,230.721L138.211,230.585L138.319,230.512L138.567,230.515L138.311,230.295L137.952,230.179L137.238,230.103L137.391,230.397L137.606,230.686L137.86,230.919L138.124,231.038L137.826,231.143L137.433,231.065L135.609,230.418L135.285,230.37L134.861,230.384L134.542,230.446L134.278,230.57L133.439,231.267L132.784,231.615L132.057,231.782L130.544,231.612L129.865,231.628L128.474,231.971L128.149,232.126L127.885,232.331L127.41,232.856L127.207,233.267L127.278,233.585L127.513,233.818L127.802,233.987L127.58,234.178L127.257,234.293L125.151,234.61L124.551,234.876L124.142,235.325L124.093,235.644L124.176,236.285L124.022,236.504L123.702,237.077L123.607,237.147L122.65,237.715L121.989,237.964L121.298,238.103L120.594,238.146L118.887,237.795L118.28,237.418L117.922,237.329L117.57,237.394L116.894,237.68L116.325,237.789L116.21,237.897L116.139,238.028L116.052,238.146L115.945,238.233L114.867,238.708L114.17,238.814L113.467,238.755L110.81,237.758L110.162,237.613L108.589,237.469L107.815,237.556L107.169,237.878L107.287,237.878L106.362,238.141L106.062,238.293L106.499,238.367L106.887,238.664L107.082,239.076L106.947,239.485L106.643,239.608L103.781,239.086L101.516,239.397L100.84,239.715L100.278,240.164L99.391,241.372L99.088,241.666L98.78,241.791L98.548,241.843L98.437,241.971L98.349,242.143L98.183,242.329L98.044,242.403L97.519,242.611L97.258,242.794L96.964,243.069L96.724,243.399L96.625,243.739L96.451,243.679L96.056,243.785L95.398,244.075L94.199,244.957L93.743,245.576L93.961,246.105L93.961,246.229L93.7,246.301L93.277,246.574L93.012,246.634L92.758,246.597L92.504,246.5L92.27,246.372L91.25,245.603L91.015,245.361L90.731,245.209L88.135,245.287L87.9,245.345L87.631,245.618L87.407,245.69L87.233,245.65L87.125,245.528L87.05,245.39L86.975,245.287L86.158,244.781L84.922,243.526L84.093,243.05L83.841,242.851L83.588,242.537L83.287,242.297L82.899,242.248L82.51,242.358L82.202,242.611L82.061,242.507L81.919,242.476L81.778,242.512L81.638,242.611L81.699,242.392L82.662,241.055L82.742,240.841L82.663,240.304L82.408,239.675L82.075,239.09L81.759,238.683L81.533,238.51L81.327,238.459L80.195,238.696L79.203,238.625L78.985,238.562L78.763,238.343L78.467,237.789L78.21,237.613L78.21,237.479L78.628,237.402L78.821,237.115L78.929,236.705L79.096,236.26L78.815,236.423L78.433,237.067L78.262,237.208L77.024,237.126L76.815,237.141L76.348,237.316L74.772,237.584L74.432,237.811L74.368,237.971L74.211,238.015L74.029,237.974L73.878,237.878L73.726,237.639L73.744,237.447L73.878,237.208L73.768,236.561L73.759,236.407L73.814,236.19L73.889,236.097L73.984,236.025L74.1,235.858L74.235,235.475L74.211,235.188L73.979,234.522L73.957,234.117L74.1,233.939L74.322,233.778L74.534,233.439L73.854,232.398L73.593,232.25L72.632,232.013L71.118,231.868L69.625,231.943L69.386,232.045L69.248,232.14L68.663,232.383L68.384,232.589L68.249,232.729L68.099,232.929L67.86,233.181L67.789,233.319L67.767,233.585L67.806,233.788L67.888,233.894L67.995,233.979L68.099,234.108L68.32,234.924L68.344,235.115L68.355,235.293L68.21,236.592L68.276,236.992L68.552,237.208L68.249,237.3L67.846,237.086L67.461,236.732L67.216,236.407L66.826,235.628L66.773,235.395L66.792,235.271L66.866,235.002L66.884,234.849L66.852,234.777L66.784,234.732L66.706,234.696L66.663,234.656L66.507,234.141L66.375,233.929L65.908,233.769L65.759,233.579L65.719,233.327L65.769,233.052L65.888,232.898L66.038,232.843L66.164,232.742L66.22,232.45L66.228,232.183L66.259,231.975L66.328,231.782L66.441,231.571L66.204,231.606L66.109,231.639L65.988,231.715L65.757,231.351L65.735,231.068L65.869,230.81L66.109,230.515L66.334,230.152L66.508,229.455L66.663,229.037L67.188,228.612L67.812,228.627L68.335,228.545L68.552,227.826L68.481,227.454L68.169,226.948L68.099,226.695L68.059,226.311L67.63,224.587L67.206,223.735L67.116,223.355L66.968,223.279L66.22,222.364L65.954,222.189L65.824,222.073L65.769,221.899L65.769,221.098L65.727,220.695L65.615,220.36L65.216,219.7L64.753,219.197L63.004,217.966L63.164,217.64L63.069,217.257L62.662,216.497L62.451,215.983L62.058,215.447L62.009,215.242L61.855,214.99L61.112,214.269L60.838,214.121L60.503,213.986L60.278,213.674L60.097,213.319L59.908,213.051L60.321,212.844L60.561,212.784L60.733,212.853L60.859,213.075L60.949,213.284L61.059,213.467L61.244,213.592L61.171,213.803L61.289,213.962L61.733,214.32L62.032,214.742L62.243,214.965L62.451,215.044L62.701,214.896L62.635,214.679L62.286,214.32L62.201,214.156L62.168,213.83L62.12,213.699L62.049,213.652L61.867,213.632L61.788,213.592L61.432,213.234L61.299,213.045L61.244,212.853L61.294,212.018L61.244,211.733L61.013,211.358L60.63,211.168L60.161,211.127L59.677,211.205L59.823,211.51L59.908,211.612L59.71,211.66L59.541,211.744L59.225,211.998L59.048,211.793L58.951,211.592L58.911,211.413L58.902,211.278L58.84,211.111L58.728,210.938L58.672,210.725L58.784,210.426L58.706,210.274L58.508,209.716L58.411,209.289L58.397,209.132L58.453,208.969L58.618,208.762L58.711,208.527L58.621,208.301L58.247,207.796L58.158,207.745L58.096,207.673L58.11,207.506L58.173,207.482L58.292,207.507L58.4,207.517L58.451,207.44L58.503,207.382L58.752,207.159L58.843,207.11L58.975,207.084L59.004,207.016L59.009,206.915L59.064,206.781L59.076,206.631L59.062,206.037L59.114,205.796L59.337,205.617L59.72,205.457L60.111,205.367L60.35,205.39L60.23,205.533L60.42,205.818L61.244,206.584L61.942,206.864L62.562,206.705L63.101,206.285L65.06,204.289L65.437,203.54L65.67,202.853L66.049,201.287L66.109,200.525L66.033,199.19L65.939,198.886L65.745,198.455L65.836,198.142L66.22,197.632L66.295,196.859L65.669,194.355L65.487,192.313L65.2,191.483L65.105,191.068L65.145,190.235L65.121,189.832L64.939,189.444L64.736,189.178L64.552,188.855L64.454,188.601L64.441,188.43L64.457,188.278L64.441,188.075L64.098,186.745L63.824,186.111L63.437,185.463L62.682,184.492L62.562,184.223L62.527,184.081L61.788,182.995L61.015,182.177L60.893,181.882L60.791,181.536L60.543,181.245L60.009,180.768L59.378,179.777L58.917,179.415L58.756,178.946L58.562,178.051L58.361,177.814L57.7,177.279L57.557,177.08L57.47,176.833L56.593,175.383L56.513,175.324L56.347,174.859L56.285,174.738L56.075,174.413L55.733,173.565L55.565,173.247L54.439,171.642L53.54,169.832L53.456,169.564L53.321,168.873L53.124,168.212L52.172,166.898L51.737,166.083L51.798,165.371L51.4,164.911L50.493,163.228L50.348,162.792L50.051,162.425L49.011,160.608L48.938,160.418L48.888,159.932L48.75,159.337L48.683,159.181L48.646,158.682L47.794,157.188L47.576,156.565L47.515,155.835L47.138,154.335L46.124,151.945L46.018,151.308L45.983,151.215L45.907,151.119L45.832,150.989L45.797,150.794L45.785,150.597L45.357,149.061L45.457,149.061L45.378,148.819L45.38,148.319L45.357,148.055L44.956,146.981L44.964,146.783L44.749,146.607L44.638,146.204L44.571,145.499L44.093,144.171L43.973,143.964L43.375,142.123L43.306,142.004L42.992,141.66L42.923,141.478L42.876,141.391L42.581,141.033L42.239,139.914L42.146,139.745L41.978,139.565L41.907,139.406L41.922,138.981L41.863,138.804L41.712,138.525L41.577,138.096L41.517,137.662L41.596,137.36L41.348,136.94L40.315,136.021L40.164,135.789L39.918,135.075L39.793,134.822L39.064,133.798L37.973,132.853L37.798,132.453L37.634,131.797L37.545,131.145L37.595,130.76L37.529,130.637L37.389,130.318L37.364,130.18L37.302,130.084L37.167,130.051L37.015,130.04L36.912,130.002L36.567,129.221L36.301,129.008L35.892,128.567L35.862,128.468L36.029,128.347L36.132,128.076L36.169,127.783L36.139,127.599L36.435,127.459L36.859,127.17L37.305,126.937L37.925,126.737L39.151,125.513L39.319,125.448L39.463,125.538L39.535,125.747L39.581,125.981L39.648,126.153L39.918,126.181L40.241,125.903L40.532,125.511L40.709,125.197L40.755,124.887L40.775,124.466L40.858,124.099L41.096,123.939L41.268,123.789L41.155,123.452L40.81,122.924L40.694,122.641L40.629,122.264L40.699,121.936L40.987,121.793L41.128,121.86L41.289,121.979L41.453,122.036L41.605,121.92L41.637,121.689L41.543,121.47L41.421,121.284L41.372,121.155L41.437,120.982L41.526,120.914L41.871,120.915L42.119,120.857L42.112,120.724L41.827,120.357L41.784,120.26L41.816,120.15L41.914,120.07L41.98,120.099L42.048,120.152L42.318,120.144L42.401,120.211L42.472,120.22L42.591,120.036L42.711,118.579L42.768,118.53L43.044,118.213L43.143,118.133L43.27,118.167L43.432,118.366L43.595,118.397L43.789,118.321L44.02,118.072L44.207,118.021L44.639,118.133L45.18,117.729L45.362,117.634L45.682,117.555L45.846,117.559L46.028,117.634L46.254,117.908L46.44,118.283L46.652,118.617L46.967,118.761L47.374,118.888L47.521,119.207L47.518,119.621L47.474,120.036L47.553,120.896L47.896,121.324L48.415,121.423L49.442,121.178L49.861,121.155L50.043,121.242L50.108,121.445L50.132,121.679L50.194,121.856L50.341,122.082L50.388,122.27L50.405,122.458L50.468,122.684L50.58,122.873L50.838,123.219L50.922,123.426L50.955,123.819L50.917,124.325L50.781,124.759L50.523,124.946L50.251,125.016L49.969,125.201L49.759,125.446L49.695,125.711L49.827,126.044L50.266,126.619L50.359,127.038L50.485,127.349L51.077,127.57L51.255,127.976L51.153,128.7L50.95,129.467L50.98,130.022L51.584,130.12L52.301,129.946L52.972,129.866L53.302,129.784L53.61,129.639L53.884,129.578L54.128,129.751L54.215,130.142L54.202,130.597L54.276,130.971L54.625,131.127L55.148,131.278L55.355,131.265L55.511,131.19L55.832,130.969L56.008,130.887L56.53,130.841L59.233,131.444L59.82,131.693L60.367,132.044L61.352,132.869L61.972,133.194L63.333,133.674L63.634,133.68L64.212,133.477L65.636,133.269L65.997,133.295L66.679,133.55L67.075,133.619L67.39,133.485L67.515,133.403L67.693,133.347L68.009,133.295L68.098,133.267L68.238,133.175L68.329,133.158L68.401,133.2L68.598,133.385L68.672,133.422L69.02,133.311L69.607,132.986L72.712,132.527L76.094,133.022L76.364,133.278L76.772,133.926L76.943,134.125L77.057,134.165L77.624,134.238L77.803,134.299L77.878,134.376L78.153,134.737L78.777,134.703L79.446,134.479L80.369,133.987L80.501,133.852L80.678,133.557L80.777,133.489L81.309,133.445L81.5,133.326L81.508,133.102L80.904,132.054L80.797,131.651L80.856,131.265L81.137,130.73L81.321,130.486L81.527,130.307L81.761,130.287L82.148,130.604L82.32,130.635L82.554,130.532L83.868,130.192L84.199,130.039L84.481,129.809L84.65,129.541L85.117,128.062L85.215,127.902L85.371,127.839L85.473,127.774L85.61,127.435L85.697,127.284L85.841,127.105L85.937,126.956L86.04,126.829L86.209,126.718L86.352,126.673L87.977,126.549L88.256,126.402L88.576,126.147L88.944,126.018L89.726,125.962L90.199,125.825L90.924,125.165L91.351,124.923L91.531,124.9L92.055,124.969L92.223,124.951L92.726,124.824L92.752,124.278L92.752,123.551L92.752,122.521L92.752,121.489L92.752,120.46L92.75,119.431L92.748,118.401L92.748,117.371L92.748,116.344L92.748,115.315L92.748,114.287L92.748,113.263L92.748,112.236L92.748,111.21L92.747,110.186L92.747,109.16L92.747,108.135L92.747,107.113L92.747,106.093L92.747,105.07L92.747,104.047L92.745,103.026L92.743,102.005L92.743,100.983L92.743,99.964L92.743,98.946L92.743,97.926L92.743,96.909L92.741,95.89L92.741,94.874L92.741,93.856L92.741,92.841L92.741,91.824L92.74,90.81L92.738,89.796L92.738,88.781L92.738,87.768L92.738,86.754L92.738,85.742L92.738,84.728L92.736,83.717L92.736,82.705L92.736,81.695L92.736,80.686L92.736,79.675L92.735,78.665L92.733,77.657L92.733,76.647L92.733,75.64L92.733,74.634L92.733,73.859L92.733,73.627L92.733,72.62L92.733,71.613L92.733,70.608L92.731,69.602L92.731,68.598L92.731,67.595L92.731,66.59L92.731,65.586L92.731,64.584L92.731,63.583L92.73,62.58L92.728,61.579L92.728,60.577L92.728,59.576L92.728,58.577ZM238.45,133.806L237.56,132.89L236.909,131.738L236.702,131.486L236.478,131.291L236.474,131.288L236.23,131.139L235.974,131.042L235.962,131.038L235.456,130.946L235.322,130.843L234.852,129.952L234.613,129.749L233.895,129.73L233.724,129.471L233.607,128.714L233.508,128.351L233.361,128.046L233.145,127.785L232.839,127.559L232.598,127.589L231.676,128.218L231.354,128.296L229.1,128.447L228.769,128.586L228.454,128.903L228.016,129.66L227.704,129.944L227.378,130.07L227.003,130.12L226.63,130.079L226.303,129.934L226.1,129.955L225.224,130.043L225.077,129.986L224.916,130.215L224.7,130.484L224.253,131.145L224.201,131.251L223.483,132.021L222.871,132.841L222.802,132.988L222.807,133.131L222.787,133.24L222.643,133.282L222.203,133.282L222.021,133.188L221.87,132.994L221.678,132.816L221.373,132.778L221.137,132.913L221.007,133.158L220.904,133.45L220.754,133.729L220.322,133.924L218.478,133.798L218.597,134.11L218.423,134.253L218.168,134.341L218.036,134.489L218.034,134.745L218.018,134.894L217.98,134.993L217.944,135.053L217.926,135.11L217.925,135.246L217.899,135.323L217.833,135.317L217.756,135.292L217.695,135.315L217.382,135.768L217.183,135.983L216.982,136.073L216.725,136.144L216.799,136.314L217.002,136.523L217.142,136.706L217.039,136.726L216.89,136.802L216.809,136.833L216.698,136.706L216.588,136.833L216.649,137.176L216.667,137.279L216.3,137.969L215.373,139.111L215.256,139.176L215.09,139.239L214.927,139.337L214.819,139.502L214.811,139.68L214.912,140.112L214.939,140.327L214.777,140.465L214.644,140.509L213.983,140.726L213.715,140.897L213.666,141.046L213.634,141.478L213.594,141.645L213.437,141.86L213.286,141.943L213.137,141.993L212.992,142.112L212.953,142.24L213.018,142.348L213.114,142.463L213.161,142.609L213.137,142.845L213.074,142.957L212.967,143.037L212.294,143.777L212.115,144.067L212.046,144.402L211.959,144.481L211.579,144.463L211.492,144.531L211.46,144.744L211.38,144.94L211.273,145.106L211.237,145.143L211.162,145.223L210.635,145.535L210.291,145.681L209.835,145.775L209.546,145.935L209.382,145.996L208.906,146.046L208.45,146.231L208.363,146.291L207.839,146.847L207.765,146.899L207.633,146.841L207.591,146.726L207.541,146.63L207.382,146.633L207.295,146.712L207.171,147.013L207.061,147.153L206.908,146.932L206.738,146.932L206.615,147.107L206.609,147.407L206.409,147.869L206.54,147.933L206.772,148.122L206.984,148.241L207.2,148.434L207.672,149.149L207.81,149.426L207.81,149.428L207.812,149.428L209.149,152.627L209.594,153.693L209.904,154.059L210.68,154.718L210.911,155.095L211.131,155.982L211.239,156.245L211.439,156.557L211.589,156.617L211.79,156.569L212.15,156.569L212.398,156.638L212.55,156.764L212.537,156.95L212.294,157.198L211.94,158.08L211.97,158.617L212.331,159.627L212.304,159.919L212.48,159.941L212.491,159.944L212.813,160.036L212.978,160.061L213.092,160.041L213.435,159.898L213.695,159.902L213.813,160.024L213.932,160.484L214.106,160.769L214.361,160.982L214.952,161.255L215.011,161.466L215.064,161.649L215.487,162.069L215.877,162.622L215.931,162.789L215.939,162.958L215.966,163.127L216.068,163.286L217.054,164.042L217.929,165.042L218.416,165.353L218.98,165.53L219.659,165.622L219.822,165.595L220.131,165.441L220.272,165.418L220.459,165.482L220.597,165.591L220.724,165.719L220.878,165.842L221.201,166.005L221.54,166.116L223.453,166.283L223.843,166.454L223.847,166.087L223.806,165.785L223.796,165.48L223.888,165.101L223.993,164.926L224.128,164.829L224.266,164.753L224.395,164.642L224.524,164.471L224.58,164.356L224.854,163.482L224.874,163.329L224.822,163.142L224.633,162.812L224.598,162.664L224.725,162.441L226.101,161.352L226.315,161.098L226.429,160.693L226.386,160.264L226.196,160.098L225.959,159.987L225.781,159.733L225.816,159.384L226.066,159.101L226.406,158.894L226.702,158.774L227.178,158.704L227.334,158.634L227.447,158.522L227.647,158.228L227.798,158.113L228.052,157.858L228.326,157.337L228.463,157.076L228.784,156.793L229.174,156.731L229.955,156.845L230.355,156.702L231.058,156.278L231.321,156.214L231.592,156.245L232.379,156.551L232.926,156.555L234.38,156L235.451,155.768L236.494,155.336L238.377,154.093L239.016,153.694L240.285,152.903L240.482,152.814L240.911,152.687L241.096,152.594L241.2,152.434L241.162,152.251L240.984,151.892L240.949,151.629L240.959,151.463L240.914,151.33L240.71,151.17L240.474,150.836L240.482,150.389L240.579,149.895L240.6,149.479L240.603,149.428L240.905,148.871L241.11,148.343L241.373,147.877L241.843,147.504L243.09,147.117L243.272,146.884L243.269,146.576L243.294,146.285L243.558,146.102L243.327,145.814L243.216,145.369L243.217,145.296L243.222,144.892L243.339,144.502L243.68,144.152L244.137,143.95L244.619,143.8L245.046,143.612L245.23,143.474L245.366,143.308L245.441,143.101L245.43,142.832L245.46,142.54L245.76,142.11L245.819,141.839L245.769,141.732L245.553,141.517L245.481,141.403L245.464,141.269L245.48,140.985L245.464,140.872L245.3,140.471L244.849,139.855L244.671,139.201L244.549,138.887L244.326,138.636L244.073,138.442L243.891,138.22L243.809,137.153L243.317,136.946L242.67,136.929L242.136,136.766L240.8,135.349L240.243,135.093L239.878,134.995L239.664,134.848L239.57,134.613L239.565,134.249L239.417,134.064L239.068,133.898L238.686,133.792ZM379.032,504.748L379.556,504.594L380.102,504.671L381.6,505.118L382.367,506.016L382.81,506.202L382.635,506.83L382.292,507.409L381.849,507.832L381.364,508L381.228,507.971L380.953,507.849L379.157,507.768L378.912,507.822L378.325,507.73L378.054,507.595L377.817,507.351L377.738,507.17L377.643,506.838L377.622,506.524L377.917,506.252L378.27,505.7L378.423,505.573L378.524,505.459L378.868,504.928ZM382.248,500.203L382.31,499.685L382.885,499.344L383.616,499.311L384.138,499.72L384.116,500.405L383.504,500.633L382.735,500.522Z"/>
</svg>
