<svg xmlns="http://www.w3.org/2000/svg" viewBox="0 0 420 520" aria-label="Map of Zambia">
  <path fill="currentColor" d="M382.49,129.668L382.563,131.673L382.724,132.137L383.053,132.411L383.26,132.34L383.486,132.173L383.879,132.155L384.107,132.294L384.597,132.751L384.898,132.893L384.912,133.83L384.313,136.307L384.726,137.241L385.174,137.39L385.549,137.22L385.923,136.96L386.38,136.847L386.753,137.021L386.889,137.386L386.966,137.802L387.145,138.128L387.894,138.402L388.191,137.773L388.303,136.758L388.499,135.867L389.283,136.247L391.11,136.343L391.787,136.822L392.275,137.685L392.426,138.143L392.477,138.664L392.382,139.034L392.207,139.311L392.097,139.634L392.188,140.141L392.508,140.628L393.357,141.153L393.728,141.555L394.218,142.489L394.508,142.904L394.914,143.267L395.327,143.487L396.58,143.948L396.801,144.215L397.333,145.572L397.55,146.531L397.308,147.256L396.304,148.823L395.667,150.447L395.488,151.314L395.467,152.202L395.922,152.832L398.687,154.065L399.397,154.673L399.95,155.281L400.563,155.79L401.441,156.099L402.071,156.931L402.743,157.404L403.228,157.962L403.307,159.047L403.093,160.971L403.216,161.797L404.105,163.921L404.392,164.323L405.337,165.17L405.596,165.465L406.257,167.01L406.78,167.615L407.703,167.736L407.708,168.64L407.947,169.267L407.977,169.604L407.988,169.731L408,169.868L407.444,170.705L406.919,171.186L405.592,172.151L405.158,172.347L404.707,172.646L403.058,174.505L402.507,175.89L402.134,176.489L401.441,176.916L400.927,177.013L400.311,177.629L399.866,177.832L399.347,177.804L398.225,177.583L397.758,177.665L397.287,177.854L396.433,178.021L395.975,178.178L395.562,178.538L394.927,179.507L394.428,179.813L394.015,179.803L393.661,179.706L393.345,179.817L393.045,180.423L393.016,180.918L393.283,181.107L393.707,181.107L394.172,181.039L394.662,181.46L394.918,182.547L395.022,183.59L395.124,184.604L395.453,185.642L395.941,186.597L396.568,187.464L397.322,188.224L398.407,190.135L398.113,191.166L397.648,192.133L395.271,195.813L395.22,196.038L395.338,196.427L395.292,196.637L395.103,196.798L394.585,197.023L394.431,197.208L394.375,197.694L394.442,198.14L394.435,198.583L394.15,199.054L393.287,198.34L392.968,198.829L393.126,201.772L393.087,202.197L392.867,202.843L392.37,203.918L392.482,204.186L393.049,204.397L393.612,204.401L394.207,204.326L394.76,204.422L395.219,204.947L395.418,205.505L395.803,211.123L395.688,212.388L395.24,213.694L395.243,214.248L395.625,215.006L395.758,215.5L395.644,216.04L395.45,216.591L395.133,218.358L393.801,221.521L393.679,222.67L393.728,223.837L393.983,224.399L394.935,225.316L395.327,225.792L395.751,226.923L396.349,229.337L397.004,230.365L398.194,230.784L400.689,230.025L402.012,230.491L402.579,230.473L402.967,230.62L403.02,231.325L402.715,231.884L402.571,231.972L401.686,232.511L401.441,233.085L400.927,233.178L400.773,233.436L400.745,234.289L400.446,234.701L399.418,235.117L399.033,235.472L398.503,236.271L397.809,236.974L397.035,237.465L396.286,237.637L396.017,237.547L395.733,237.368L395.404,237.203L394.981,237.171L394.081,237.321L393.808,237.44L393.42,237.884L392.856,239.075L392.382,239.405L392.041,239.516L391.834,239.641L391.684,239.767L391.512,239.882L391.309,240.086L391.197,240.323L391.036,240.495L390.69,240.509L390.547,240.334L390.144,239.566L389.908,239.326L389.584,239.236L389.329,239.265L388.793,239.408L388.524,239.566L388.216,239.828L387.922,239.968L387.684,239.742L387.54,239.469L387.358,239.279L387.124,239.225L386.847,239.344L386.368,239.77L386.011,240.24L384.971,242.317L383.75,244.147L383.295,245.09L383.176,245.697L383.375,248.245L383.596,248.622L384.509,249.2L385.341,249.972L385.629,250.816L385.472,251.781L384.544,253.904L384.016,257.752L384.056,258.356L384.198,258.938L384.46,259.527L385.003,260.327L385.108,260.73L384.926,261.215L383.907,261.513L383.066,262.588L382.448,263.944L381.969,265.912L381.517,267.771L380.912,269.106L379.949,269.624L379.326,269.721L379.043,270.099L378.969,270.646L378.99,271.28L378.84,272.068L378.399,272.378L377.151,272.565L376.698,272.856L375.784,273.641L375.357,273.71L374.727,273.494L374.241,273.447L373.915,273.717L373.768,274.441L374.167,275.546L375.238,275.791L376.481,275.802L377.377,276.202L378.661,278.024L378.85,278.442L378.561,278.82L377.317,279.415L376.953,279.804L377.146,280.744L378.122,281.184L379.372,281.436L380.409,281.822L380.908,282.258L382.593,284.345L382.728,284.875L382.801,285.394L383.008,285.942L383.288,286.177L383.9,286.144L384.173,286.285L384.366,286.58L384.38,286.764L384.317,286.963L384.198,288.723L384.373,289.253L385.164,290.277L385.785,290.13L386.844,288.398L387.302,287.879L387.775,287.626L388.949,287.28L389.255,286.977L389.581,286.094L389.92,285.899L390.403,286.303L391.456,288.301L392.034,289L389.574,289.845L386.623,290.858L382.364,292.323L376.533,294.326L370.839,296.287L365.715,298.049L362.156,299.273L359.006,300.357L356.287,300.859L354.99,301.26L352.434,302.445L349.035,303.576L344.58,305.061L339.74,306.67L337.413,307.903L334.263,309.574L331.358,310.659L327.834,311.52L323.473,312.583L319.966,313.441L319.361,313.488L314.569,314.595L311.206,315.373L306.506,317.103L303.622,318.171L300.024,319.497L296.873,321.076L294.365,322.336L291.401,322.695L290.844,322.844L290.843,322.861L290.823,323.09L291.065,324.137L291.065,325.703L291.229,327.221L292.493,331.605L293.333,333.278L294.435,334L294.922,334.185L295.349,334.646L295.702,335.27L295.94,335.919L296.084,336.642L296.171,338.929L296.278,339.332L296.776,340.029L296.885,340.367L296.794,340.719L296.171,341.936L295.951,342.709L296.024,343.196L296.99,344.228L297.168,344.504L297.557,345.54L297.478,345.627L297,345.823L295.66,346.368L294.691,346.401L293.612,345.93L293.067,345.692L292.213,345.573L291.915,345.685L291.404,346.129L291.138,346.307L290.599,346.427L290.204,346.285L289.336,345.689L287.989,345.391L286.631,345.591L285.283,345.969L283.943,346.183L282.482,346.016L279.579,345.22L278.074,345.078L277.293,345.249L275.904,345.896L274.441,346.129L272.502,346.783L271.679,346.899L270.985,346.794L270.327,346.612L269.604,346.518L268.799,346.743L267.539,347.822L266.937,348.201L264.011,348.462L263.5,348.575L256.028,352.044L254.831,353.31L254.523,353.51L253.841,353.681L253.18,354.089L252.637,354.569L252.305,354.951L251.584,356.323L251.153,356.742L250.331,356.895L248.798,356.924L248.07,357.058L247.92,357.128L247.429,357.357L246.295,358.475L245.561,359.41L245.456,359.654L244.99,360.375L244.885,360.765L244.955,361.085L245.109,361.333L245.267,361.53L245.351,361.708L245.162,362.907L244.724,364.371L244.542,365.778L245.12,366.784L244.311,368.672L244.192,369.435L244.318,370.044L244.878,371.521L244.885,372.323L244.066,373.673L243.933,373.961L243.709,375.238L243.247,375.786L241.907,376.808L241.63,377.41L240.962,378.06L240.673,378.323L240.197,378.4L239.247,378.4L237.64,378.699L225.342,383.568L223.053,385.056L219.715,387.848L216.635,389.187L211.406,391.462L209.656,392.523L208.316,393.994L203.706,400.984L203.154,402.219L202.464,405.037L201.544,406.823L199.748,408.668L196.287,411.852L187.313,421.25L186.97,421.768L186.914,422.132L186.956,423.014L187.04,423.852L185.903,425.264L184.641,426.504L183.635,427.475L182.715,427.983L182.207,428.13L180.611,428.203L180.256,428.35L179.015,429.175L178.21,428.91L175.019,430.393L174.196,430.492L173.65,430.632L173.209,430.901L172.24,431.803L171.836,431.924L171.351,431.836L169.426,431.21L168.88,430.926L168.411,430.525L167.886,429.929L167.442,429.561L166.878,429.333L165.982,429.175L164.572,428.722L161.968,427.287L160.414,426.989L159.154,427.181L158.909,427.122L158.696,426.908L158.419,426.71L158.097,426.559L156.54,426.375L156.232,426.261L156.053,426.04L155.861,425.709L155.619,425.411L155.308,425.286L155.007,425.444L153.803,426.382L153.502,426.552L152.718,426.702L152.147,427.022L151.56,427.173L151.357,427.254L151.322,427.39L151.388,427.843L151.357,427.983L150.881,428.119L150.247,428.137L149.708,428.258L149.505,428.693L149.274,428.446L147.405,429.421L147.013,429.476L145.575,429.421L143.514,428.446L143.171,428.034L142.922,427.453L142.968,426.945L143.514,426.746L143.041,426.136L141.508,425.478L141.179,424.926L140.885,424.555L140.206,424.113L139.457,423.742L138.19,423.404L137.777,423.032L137.343,422.749L136.517,422.838L134.722,423.628L132.447,424.073L132.248,424.154L131.95,424.481L131.758,424.558L131.544,424.518L131.226,424.334L131.051,424.294L128.501,424.294L128.137,424.227L127.017,423.808L125.96,423.856L125.631,423.808L124.966,423.485L123.934,422.672L123.3,422.374L123.066,422.132L122.852,421.683L122.478,421.287L122.02,421.007L121.554,420.893L120.98,420.864L120.728,420.754L120.291,420.166L120.109,420.033L119.727,419.831L119.58,419.681L119.528,419.475L119.566,419.023L119.461,418.821L118.961,418.292L118.719,418.307L118.422,418.711L118.334,418.468L118.166,418.226L117.925,418.035L117.613,417.961L117.55,417.796L117.267,416.749L117.155,416.687L116.539,416.132L116.444,415.997L116.049,415.993L115.804,415.941L115.625,415.806L115.415,415.534L115.415,415.288L115.643,414.682L115.52,414.565L115.174,414.62L114.54,414.825L114.218,414.807L113.68,414.399L113.291,413.838L113.253,413.81L112.847,413.518L112.157,413.838L111.727,413.206L110.824,412.784L108.496,412.311L107.408,412.359L107.051,412.281L106.82,412.116L106.652,411.951L106.473,411.874L103.583,411.412L102.06,411.412L101.731,411.522L101.497,411.764L101.315,412.006L100.944,412.219L100.429,412.689L100.072,412.847L99.75,412.869L99.453,412.825L98.914,412.623L98.62,412.403L98.41,412.157L98.137,411.958L97.276,411.804L96.636,411.485L95.621,411.294L94.189,410.777L93.577,410.663L92.978,410.748L91.561,411.151L91.288,411.28L90.913,411.063L89.121,411.001L88.492,410.905L87.872,410.953L86.871,411.159L85.422,411.459L83.973,411.76L82.524,412.061L81.072,412.359L79.627,412.659L78.178,412.96L76.729,413.258L75.276,413.559L73.824,413.86L72.375,414.157L70.926,414.458L69.477,414.759L68.032,415.057L66.583,415.358L65.127,415.659L63.678,415.96L62.67,416.169L62.033,416.184L60.847,416.423L59.468,416.694L59.275,416.235L59.247,415.78L59.489,415.269L58.715,414.623L58.078,413.838L57.385,413.327L56.885,413.085L56.391,412.938L55.292,412.847L54.715,412.927L54.138,413.078L53.553,413.144L52.969,412.979L52.556,412.535L52.535,412.028L52.608,411.474L52.51,410.905L52.157,410.524L50.659,409.937L49.85,409.273L49.017,408.312L48.377,407.256L48.114,406.302L47.911,405.899L46.497,404.363L46.007,404.081L44.394,403.637L42.35,402.743L41.437,402.138L40.089,400.911L39.036,400.343L38.591,399.962L38.276,399.438L37.902,397.787L37.426,396.842L36.74,395.916L35.221,394.257L34.749,393.906L32.729,393.083L32.299,393.079L32.099,392.925L31.956,392.622L31.959,392.003L31.889,391.718L31.459,391.268L30.388,390.931L29.901,390.632L29.604,390.182L29.243,389.187L26.79,385.264L26.528,384.957L26.213,384.767L25.67,384.665L25.481,384.57L25.299,384.358L25.068,383.934L24.536,383.206L24.312,382.742L23.98,382.406L23.077,382.249L22.944,382.169L22.692,381.895L22.527,381.796L22.412,381.862L22.289,381.972L21.964,382.052L21.453,382.249L21.19,382.278L20.732,382.118L17.817,379.722L17.596,379.24L17.505,378.641L17.358,378.13L16.991,377.911L16.343,377.823L16.203,377.567L16.291,377.188L16.315,376.706L16.126,376.198L15.545,375.217L15.388,374.779L15.416,374.188L15.594,373.527L15.874,372.907L16.189,372.454L16.256,372.013L15.699,371.75L14.572,371.491L14.516,371.28L14.499,370.499L14.443,370.157L14.327,370L13.921,369.642L13.771,369.435L13.62,368.917L13.561,368.468L13.438,368.023L13.078,367.528L13.354,367.557L14.212,367.528L13.032,365.618L12.133,364.481L12.056,363.719L12.056,363.151L12.056,361.013L12.056,358.777L12.024,358.678L12.031,357.088L12.035,353.492L12.045,349.902L12.052,346.314L12.056,342.724L12.056,341.177L12.056,340.112L12.056,339.368L12.056,337.97L12.052,332.679L12.049,327.392L12.045,322.108L12.042,316.828L12.038,311.552L12.035,306.28L12.031,301.007L12.028,295.741L12.024,290.483L12.021,285.221L12.017,279.97L12.016,277.873L12.014,274.714L12.01,269.466L12.007,264.217L12.003,258.981L12,253.742L16.21,253.742L20.421,253.742L24.627,253.742L28.834,253.742L33.041,253.742L37.247,253.742L41.458,253.742L45.665,253.742L49.875,253.742L54.085,253.742L58.292,253.742L62.502,253.742L66.712,253.742L70.919,253.742L75.129,253.742L79.333,253.742L80.428,253.742L80.029,252.478L79.452,251.376L78.699,250.377L76.855,248.471L76.165,247.498L75.857,246.386L76.081,245.011L76.739,243.447L77.383,240.886L77.992,238.469L78.402,237.468L79.934,235.21L81.079,233.529L81.355,232.938L81.45,232.347L81.117,230.784L80.977,228.667L80.631,227.794L79.774,226.891L79.039,225.817L78.86,224.267L79.088,219.41L79.291,214.952L80.018,213.268L80.074,212.918L79.917,212.067L79.774,209.482L79.483,208.646L79.13,207.988L78.871,207.32L78.871,206.444L79.049,205.762L79.651,204.383L80.589,202.929L80.736,202.522L80.739,201.961L80.652,201.129L80.662,200.693L80.743,200.311L81.11,199.797L82.171,198.965L82.496,198.497L82.475,198.083L80.981,194.749L80.785,193.868L80.925,188.951L80.263,188.844L80.071,188.366L80.221,187.036L80.193,185.125L80.316,184.508L80.533,183.845L80.407,183.338L79.749,182.322L79.536,181.738L79.305,180.045L80.456,180.084L82.045,180.391L83.504,180.925L84.274,181.663L84.278,181.962L84.089,182.579L84.064,182.896L84.148,183.274L84.386,183.969L84.449,184.365L84.393,185.513L84.614,185.941L85.296,185.841L85.979,185.62L86.546,185.638L87.799,186.009L88.467,186.105L89.723,186.102L90.357,186.184L91.12,186.522L92.1,187.15L92.954,187.906L93.335,188.609L93.216,189.008L92.933,189.311L92.681,189.643L92.656,190.132L92.849,190.531L93.423,191.049L93.657,191.345L93.836,191.951L93.878,192.672L93.818,193.411L93.689,194.082L93.426,194.638L92.341,196.359L91.918,196.809L90.507,197.24L90.073,197.608L90.36,198.229L90.906,198.486L92.317,198.501L92.943,198.608L93.699,199.065L94.847,200.125L95.526,200.454L96.31,200.522L97.031,200.382L98.445,199.85L98.777,199.825L99.173,199.858L99.53,199.8L99.75,199.515L99.859,199.126L99.999,198.797L100.202,198.511L100.496,198.244L100.8,198.108L101.56,197.94L101.917,197.769L102.249,197.43L102.869,196.587L103.233,196.241L104.535,195.702L107.089,195.695L108.402,195.409L110.918,194.157L112.336,193.718L113.634,193.832L118.478,193.393L120.501,192.961L123.71,191.348L124.777,191.17L125.19,191.537L125.26,192.312L125.218,193.197L125.288,193.903L125.271,194.239L125.008,194.474L124.301,194.749L123.909,195.056L124.095,195.352L124.473,195.648L124.648,195.945L124.361,196.58L123.965,196.898L123.682,197.283L123.717,198.129L123.976,198.829L124.742,200.172L124.994,200.779L124.949,201.107L124.487,201.657L124.35,201.986L124.343,202.307L124.441,202.922L125.355,205.744L125.673,206.326L125.95,206.627L126.188,206.762L126.475,206.802L126.905,206.798L127.353,206.891L127.57,207.12L127.731,207.413L128.029,207.695L129.968,208.628L130.563,209.153L130.619,209.332L130.634,209.518L130.619,209.704L130.325,210.569L130.538,211.041L131.051,211.273L131.716,211.248L132.031,211.08L132.237,210.848L132.475,210.644L132.902,210.583L133.266,210.469L133.399,210.147L133.497,209.793L133.763,209.571L135.313,209.625L136.475,210.372L137.546,211.348L138.841,212.102L139.464,212.217L141.414,212.231L141.788,212.188L142.46,211.87L142.709,211.806L143.076,211.87L143.248,211.988L143.377,212.153L145.225,213.661L145.949,213.94L146.432,214.298L146.898,215.374L147.493,215.65L147.93,215.711L153.775,215.628L154.534,215.922L155.22,216.362L155.906,216.691L157.124,216.612L157.824,216.948L158.223,216.97L158.601,216.809L159.266,216.351L159.616,216.201L160.876,215.99L162.171,215.954L162.976,216.204L163.553,216.651L164.071,217.17L164.694,217.649L165.905,218.047L168.649,218.236L169.923,218.505L170.574,218.887L171.151,219.338L171.736,219.61L172.425,219.456L172.938,218.948L173.332,218.354L173.846,217.921L174.714,217.911L176.296,218.082L177.734,217.771L179.04,217.016L180.223,215.861L180.888,214.52L181.024,211.688L181.353,210.322L181.871,209.561L182.372,209.082L182.722,208.553L182.781,207.627L182.361,206.166L182.342,205.508L182.799,205.015L183.093,204.972L183.838,205.083L184.174,205.069L185.455,204.647L186.904,204.522L187.873,204.151L188.094,204.118L188.671,204.951L189.025,206.53L189.172,208.22L189.105,209.386L189.924,212.399L196.241,216.304L197.827,219.063L197.97,220.447L199.619,225.226L200.147,225.935L201.968,227.421L202.153,227.571L203.605,229.176L204.553,229.491L206.062,229.617L207.619,229.545L208.688,229.276L209.331,228.753L209.703,228.281L210.148,228.008L211.004,228.094L211.693,228.356L213.618,229.513L214.111,230.14L214.239,231.01L214.458,231.748L215.214,231.981L215.823,231.874L216.332,231.841L218.826,232.085L219.137,232.275L219.258,232.569L219.326,232.906L219.48,233.217L220.303,233.877L220.799,233.665L221.3,233.167L222.147,232.949L222.798,233.239L223.309,233.744L223.9,234.149L224.793,234.146L225.468,234.045L226.14,234.092L226.777,234.289L227.362,234.615L230.172,237.071L230.636,237.816L231.295,239.527L231.714,240.308L232.856,241.521L233.204,242.174L233.182,243.078L232.793,243.652L232.246,244.043L231.908,244.538L232.142,245.428L232.842,246.343L233.588,247.096L234.123,247.918L234.239,249.717L234.596,250.04L235.107,250.062L235.632,249.825L235.961,249.408L236.451,248.407L236.892,248.112L238.473,248.457L239.831,249.86L242.124,252.877L242.722,253.398L242.967,253.775L243.266,255.025L243.408,255.179L243.863,255.345L243.993,255.492L243.972,255.668L243.811,256.049L243.804,256.207L243.828,256.361L243.781,256.724L243.821,256.918L243.954,257.069L244.147,257.13L244.332,257.17L244.444,257.249L244.764,258.456L245.088,258.65L245.748,258.683L246.058,258.812L246.449,259.333L247.489,264.458L248.038,265.897L249.071,266.915L249.515,267.462L250.068,267.584L250.684,267.447L251.3,267.217L251.934,267.209L252.189,267.206L253.04,267.07L253.855,267.059L254.611,267.411L254.914,267.847L255.143,268.372L255.44,268.782L255.955,268.887L256.315,268.682L256.966,267.894L257.421,267.631L258.191,267.311L260.158,265.99L264.942,264.135L265.635,263.699L267.599,261.83L268.379,261.485L269.17,261.528L269.793,261.884L270.371,262.365L271.022,262.783L271.428,262.829L271.721,262.729L271.984,262.736L272.292,263.121L272.379,263.469L272.323,263.843L272.19,264.189L272.031,264.455L271.781,264.631L271.176,264.782L270.938,265.041L270.885,265.336L270.952,266.034L270.889,266.357L270.679,266.465L270.357,266.526L270.094,266.714L270.094,267.199L270.224,267.602L270.399,267.987L270.626,268.343L270.92,268.642L271.441,268.944L272.173,269.236L273.52,269.61L275.697,269.635L276.208,269.542L276.73,268.448L276.733,264.602L276.74,259.405L276.749,254.482L276.758,249.279L276.765,243.214L276.775,238.021L276.78,232.25L276.789,228.213L276.796,224.528L276.795,224.513L276.789,224.402L276.786,224.342L275.323,224.463L274.605,224.714L273.466,225.552L271.693,226.375L271.116,226.486L270.752,226.286L270.145,225.684L269.709,225.52L269.249,225.52L268.939,225.645L268.447,226.11L267.784,226.511L266.297,227.024L265.779,227.41L265.565,227.847L265.158,229.201L265.019,230.014L264.895,230.326L264.841,230.613L264.97,230.885L265.989,232.189L266.517,232.39L267.039,232.425L267.445,232.605L267.606,233.228L267.487,233.877L267.147,234.386L266.64,234.705L265.989,234.769L265.737,234.683L265.593,234.543L265.474,234.396L265.292,234.296L265.07,234.278L264.592,234.321L264.368,234.296L263.465,233.963L262.059,233.185L261.793,233.128L260.435,233.096L260.043,233.031L259.726,232.898L259.304,232.533L258.695,231.856L258.354,231.691L255.591,231.741L254.763,231.952L254.058,232.268L253.481,232.637L253.113,231.963L252.578,232.046L251.997,232.336L251.507,232.304L251.164,232.128L250.908,232.132L250.747,232.038L250.688,231.583L250.604,231.236L247.846,226.143L246.967,225.043L244.962,223.916L244.654,223.508L244.504,222.86L244.133,222.198L243.674,221.628L243.247,221.242L242.054,220.594L241.588,220.226L241.396,219.703L241.291,218.737L240.983,218.462L239.8,218.64L239.088,218.454L237.423,217.539L236.983,217.199L236.384,215.9L235.926,215.56L235.131,216.018L235.026,215.7L234.624,215.028L234.463,214.838L234.162,214.577L233.857,214.384L233.504,214.359L233.054,214.602L232.692,214.069L232.412,212.385L232.002,212.024L231.456,211.856L231.18,211.42L230.847,209.028L230.742,208.678L230.252,208.213L230.025,207.895L230.151,207.752L230.172,207.406L229.587,205.347L229.388,205.033L228.891,204.522L228.637,204.168L228.237,203.15L228.058,202.872L227.901,202.34L227.859,200.493L227.946,199.879L229.692,197.305L229.808,197.166L230.56,196.573L230.742,196.469L230.485,195.184L230.627,194.428L230.945,193.925L231.267,193.55L231.897,192.237L231.855,191.074L231.897,190.703L231.983,190.503L232.272,190.068L232.359,189.743L232.345,189.311L231.981,187.475L232.002,187.139L232.482,186.472L232.926,185.635L233.054,185.264L233.08,184.914L233.014,184.176L233.054,183.83L233.255,183.513L233.85,182.9L233.976,182.533L234.053,182.176L234.386,181.474L234.463,181.1L234.463,179.571L234.631,178.759L234.939,177.964L235.38,177.23L235.954,176.617L236.206,176.282L236.447,175.531L236.962,174.686L237.109,174.508L237.308,174.412L237.738,174.444L237.931,174.394L238.405,174.017L238.935,173.483L239.369,172.842L239.548,172.147L239.366,171.926L238.575,171.317L238.393,170.969L238.449,170.57L238.636,169.836L238.624,169.43L237.801,168.512L237.357,167.885L237.35,167.412L237.487,167.085L237.206,166.561L237.35,166.237L237.549,165.928L237.682,165.529L237.735,165.095L237.696,164.686L237.451,164.013L237.144,163.465L236.881,162.853L236.776,161.992L236.876,161.27L237.07,160.722L237.165,160.189L236.983,159.516L236.923,159.499L236.626,159.321L236.542,159.257L236.447,159.075L236.377,158.709L236.311,158.553L235.156,157.564L235.474,156.927L236.311,155.95L236.839,154.89L237.14,153.543L237.233,150.802L236.983,148.325L237.121,147.583L238.162,145.362L238.493,143.877L238.818,143.267L239.443,143.014L239.509,142.858L238.624,141.949L238.543,141.448L238.33,141.246L238.036,141.139L237.696,140.905L237.233,140.234L237.026,139.548L236.983,137.951L236.913,137.578L236.612,136.865L236.542,136.535L236.395,136.07L235.754,135.342L235.618,135.019L235.789,134.831L236.55,134.582L236.776,134.316L235.71,134.341L235.297,134.174L235.131,133.72L235.115,133.138L235.052,132.691L234.914,132.311L234.671,131.953L233.857,131.35L233.455,130.963L233.287,130.427L233.339,129.931L233.402,129.31L233.329,128.654L232.632,127.792L231.449,127.167L229.787,126.82L228.336,126.259L227.792,125.004L228.464,123.738L229.913,122.777L232.998,121.313L236.143,118.981L241.776,113.414L246.099,107.647L247.365,104.705L247.534,101.654L246.089,98.61L245.967,97.966L246.85,97.616L250.908,96.996L256.767,96.098L262.111,95.277L269.219,94.188L269.776,94.102L278.777,92.719L287.768,91.34L294.586,90.293L303.283,88.96L309.05,88.076L309.936,91.326L311.63,94.714L313.784,97.832L316.074,100.273L317.186,101.144L318.584,101.979L320.08,102.528L321.503,102.539L322.22,102.181L322.909,101.685L323.63,101.31L324.446,101.31L324.841,101.583L325.482,102.446L325.844,102.719L326.28,102.79L326.567,102.691L326.828,102.517L328.579,101.891L328.971,101.806L329.213,101.71L329.3,101.576L329.409,101.53L329.71,101.707L329.836,101.923L329.948,102.546L330.063,102.786L330.515,103.084L330.95,103.126L331.41,103.077L331.921,103.116L332.453,103.392L333.181,104.234L333.72,104.578L335.022,104.949L335.698,105.516L335.932,106.387L335.929,107.665L336.182,109.131L336.965,110.18L340.223,112.695L340.797,112.918L341.479,112.921L342.172,112.673L343.327,112.046L344.115,111.979L349.161,113.364L348.524,114.753L348.521,116.447L349.21,117.793L350.649,118.141L351.354,117.847L351.842,117.481L352.381,117.251L353.246,117.375L354.22,117.942L354.572,118.045L354.891,118.017L355.542,117.861L355.85,117.875L356.237,118.085L356.55,118.254L357.795,119.523L358.462,120.023L359.145,120.264L359.866,120.356L364.277,120.267L365.645,120.608L366.874,121.437L367.245,121.912L367.903,123.472L368.389,124.224L368.85,124.532L370.122,124.635L373.034,125.274L375.459,125.479L375.886,125.71L376.355,126.217L376.481,126.479L376.586,126.994L376.782,127.249L377.03,127.338L377.618,127.277L377.867,127.327L379.438,128.373L381.969,129.335Z"/>
</svg>
