<svg xmlns="http://www.w3.org/2000/svg" viewBox="0 0 420 520" aria-label="Map of Zimbabwe">
  <path fill="currentColor" d="M14.045,193.493L14.396,193.855L15.343,194.3L16.886,195.515L17.88,195.999L18.372,196.07L19.952,195.999L21.626,196.625L22.17,196.724L25.981,196.724L26.243,196.784L26.719,197.059L27.038,197.12L27.326,197.004L27.77,196.515L28.068,196.394L31.469,195.729L34.153,194.548L35.387,194.416L36.036,194.839L36.653,195.394L38.547,195.9L39.667,196.455L40.681,197.114L41.121,197.669L41.613,198.494L43.904,199.478L44.61,200.391L43.794,200.688L43.726,201.446L44.098,202.315L44.61,202.931L47.692,204.389L49.842,204.471L50.428,204.389L53.221,202.931L53.566,203.3L53.87,202.651L54.676,202.469L55.622,202.442L56.334,202.238L56.381,202.029L56.282,201.353L56.334,201.149L56.637,201.028L57.516,200.803L58.369,200.325L59.541,200.099L59.991,199.846L61.79,198.444L62.24,198.208L62.706,198.395L63.067,198.84L63.355,199.335L63.621,199.665L64.082,199.835L66.41,200.11L66.891,200.336L67.304,200.633L67.623,200.951L67.99,201.039L69.873,200.754L72.196,201.199L76.088,203.344L78.196,204.02L79.535,204.257L80.378,204.598L81.042,205.148L81.827,206.039L82.528,206.639L83.344,207.062L86.221,207.998L86.946,208.13L87.55,207.948L88.999,206.6L89.658,206.199L90.474,205.99L91.704,205.841L96.475,203.624L97.678,204.02L99.533,202.788L100.064,202.568L102.449,202.458L103.208,202.238L104.584,201.479L106.088,200.028L107.974,198.175L109.674,196.064L109.548,194.812L109.486,193.493L109.569,192.949L110.082,192.174L123.495,178.127L128.669,173.366L131.353,170.609L132.729,167.94L133.759,163.727L134.586,161.881L141.476,151.433L143.479,149.234L146.095,147.648L153.912,144.248L158.515,142.246L163.505,138.072L166.927,135.848L185.31,128.57L187.711,128.123L189.132,128.123L189.843,128.008L190.275,127.615L191.274,126.644L191.687,125.743L193.691,124.215L194.381,123.397L194.716,121.488L194.915,121.057L196.139,119.039L196.129,117.84L195.292,115.632L195.103,114.721L195.281,113.582L196.49,110.759L195.627,109.256L195.899,107.153L196.553,104.964L196.835,103.172L196.709,102.906L196.474,102.612L196.244,102.241L196.139,101.762L196.296,101.18L196.992,100.102L197.149,99.737L198.248,98.339L199.943,96.668L200.676,96.326L200.9,96.222L201.988,96.02L204.279,95.977L205.509,95.748L206.152,95.123L207.23,93.072L207.727,92.501L208.538,91.783L209.527,91.174L210.547,90.918L211.007,90.619L212.796,88.727L223.965,83.541L224.729,83.372L229.103,82.981L230.002,82.416L231.886,80.802L233.089,80.465L234.169,80.607L235.153,80.878L236.191,81.036L237.421,80.862L240.319,79.884L242.506,79.536L244.583,78.569L245.749,78.314L247.999,78.526L252.338,79.716L254.522,79.965L256.526,79.645L258.54,79.08L260.57,78.781L262.584,79.227L263.881,80.118L264.473,80.329L265.278,80.15L265.676,79.884L266.44,79.221L266.884,79.053L268.161,79.232L268.976,79.588L270.588,80.291L272.037,80.243L274.041,79.428L274.114,83.677L274.193,88.683L274.297,94.981L274.36,98.643L280.041,98.6L283.675,98.578L291.932,98.518L297.384,98.48L299.633,98.954L301.673,100.396L302.489,101.267L303.238,101.844L304.082,101.964L305.21,101.468L305.801,100.957L306.737,99.89L307.48,99.503L307.912,99.612L308.312,99.922L308.694,99.944L309.107,99.204L310.376,98.415L312.623,98.589L317.76,99.813L318.717,100.173L319.549,100.771L320.271,101.686L321.221,103.466L321.856,104.196L322.84,104.735L323.342,105.094L323.562,105.579L323.721,106.069L324.038,106.418L324.226,106.456L324.624,106.358L324.828,106.336L325.066,106.472L325.053,106.717L324.985,106.973L325.079,107.126L326.068,107.257L327.161,107.267L328.171,107.415L328.929,107.954L330.881,108.929L339.329,109.495L340.574,110.057L341.966,111.212L345.032,114.58L346.01,115.419L348.134,116.537L348.735,117.044L349.18,117.976L349.429,119.994L349.871,120.795L350.676,121.188L355.934,122.033L365.936,121.782L369.92,122.393L375.144,124.505L383.164,127.757L389.222,130.208L389.795,130.743L390.038,131.501L390.074,132.719L390.582,134.805L391.926,135.843L392.217,135.961L392.235,135.968L392.669,135.674L393.375,135.395L394.16,135.264L395.745,135.362L398.85,136.056L400.438,136.16L401.259,135.93L402.776,134.963L403.619,134.608L404.241,134.532L403.891,136.05L402.463,141.623L401.594,143.323L400.799,144.373L397.168,147.938L397.236,148.277L400.103,153.391L402.217,157.167L403.514,160.222L404.205,163.492L404.271,165.466L404.288,165.995L404.479,167.151L405.005,168.203L405.45,168.57L406.577,169.206L406.93,169.677L406.972,170.521L406.658,171.354L406.425,171.716L405.706,172.829L403.718,176.728L403.389,177.139L402.949,177.425L402.625,177.781L402.63,178.368L403.164,180.162L403.389,180.601L404.273,181.298L406.172,182.17L406.867,183.103L407.077,184.201L406.878,185.222L406.041,187.193L405.847,189.23L405.996,191.559L405.79,193.504L404.498,194.372L403.661,194.762L403.106,195.652L402.782,196.757L402.64,197.796L402.719,198.835L403.318,200.325L403.412,201.265L403.211,201.958L402.818,202.315L402.415,202.579L402.159,203.003L402.24,203.503L402.86,204.246L402.813,204.702L402.541,205.753L402.651,206.952L404.432,212.445L404.597,214.207L404.563,214.604L404.11,215.743L403.718,216.448L403.42,216.856L403.331,217.297L403.556,218.095L404.325,219.225L406.69,221.153L407.605,222.178L408,223.198L407.762,223.788L406.302,224.901L405.238,226.461L405.094,226.423L405.167,226.947L405.811,227.713L405.989,228.259L405.654,229.34L404.751,230.03L403.64,230.554L402.653,231.149L401.751,231.629L400.788,231.911L399.92,232.275L399.292,233.003L399.167,233.903L399.339,235.001L399.988,236.916L401.51,239.953L401.903,241.41L401.798,243.178L401.445,244.609L400.901,245.758L400.025,246.471L398.691,246.587L396.619,246.427L395.086,246.653L390.216,248.952L390.137,249.433L390.488,252.319L390.812,253.104L391.448,253.53L390.906,253.939L390.258,254.304L389.766,254.752L389.693,255.411L390.074,256.605L390.158,257.192L390.074,257.872L390.197,258.586L390.598,259.012L391.17,259.211L391.858,259.245L395.002,258.769L395.881,258.868L396.431,259.095L396.724,259.339L396.875,259.704L396.99,260.329L397.242,260.988L397.642,261.403L398.115,261.779L398.542,262.305L398.863,264.143L397.393,270.784L397.341,272.109L397.163,273.068L396.76,273.966L396.023,275.152L394.134,277.309L394.014,277.835L394.118,279.411L393.799,281.591L393.857,282.695L394.393,283.333L395.363,283.377L396.284,283.261L396.996,283.51L397.341,284.676L397.357,285.664L396.996,289.55L397.011,290.044L397.137,290.572L397.21,291.271L396.996,291.788L396.697,292.254L396.535,292.799L396.705,293.993L397.283,294.577L398.199,294.788L399.365,294.849L400.506,294.532L402.018,292.971L402.96,292.649L403.859,293.16L403.933,294.249L403.514,296.333L403.933,297.277L404.775,298.139L405.866,298.834L406.988,299.306L407.495,299.901L407.336,300.935L406.993,302.198L406.914,304.417L405.936,307.588L405.753,311.568L406.057,312.826L406.203,313.243L403.493,313.149L402.803,313.756L402.51,315.404L402.117,316.179L401.314,316.429L400.49,316.585L400.03,317.07L399.653,319.694L399.402,320.53L398.712,321.806L398.602,322.33L398.664,322.704L399.005,323.429L399.031,323.858L398.67,325.508L398.392,326.283L398,326.975L395.751,329.775L392.465,333.86L390.875,336.97L389.222,340.215L387.94,341.629L385.774,341.997L383.389,341.701L381.191,341.986L379.596,344.065L379.062,346.362L378.963,348.599L379.69,354.411L380.386,360.037L380.072,362.109L378.89,364.484L376.331,367.78L372.418,372.831L372.698,373.308L373.433,373.774L373.888,374.402L374.116,374.436L374.338,374.424L374.485,374.537L374.479,374.901L374.294,375.244L374.098,375.541L374.035,375.754L377.723,382.097L377.786,382.33L377.854,382.585L375.897,381.316L374.098,383.36L371.644,386.09L368.997,389.046L366.339,392.002L363.687,394.96L361.029,397.919L358.377,400.879L355.725,403.846L353.072,406.808L350.42,409.772L347.762,412.736L345.11,415.708L342.453,418.674L339.805,421.642L337.153,424.617L334.501,427.587L331.843,430.559L329.191,433.531L326.559,436.471L323.264,438.823L319.225,441.686L318.045,439.943L317.54,439.53L317.038,439.508L316.222,439.859L315.814,439.909L315.406,439.745L314.616,439.236L314.252,439.129L313.897,438.852L312.869,437.596L312.325,437.257L311.571,437.37L309.892,438.184L309.513,438.27L309.037,438.377L308.16,438.201L306.429,437.432L300.915,436.126L297.873,435.792L296.395,435.391L294.744,436.058L289.107,436.51L288.113,436.827L286.753,437.805L285.995,438.037L285.647,437.924L284.875,437.381L284.41,437.257L282.945,437.268L279.665,436.884L278.707,436.918L277.734,437.183L275.835,438.066L274.873,438.377L272.817,438.739L270.939,438.806L269.207,438.382L267.617,437.257L266.905,436.618L266.152,436.148L265.205,435.86L263.955,435.764L261.71,436.075L260.821,436.007L259.607,435.391L258.163,434.328L257.42,434.012L255.914,433.831L255.799,433.655L255.731,433.412L254.768,432.367L254.25,432.107L253.162,431.858L252.665,431.655L251.284,430.796L250.546,430.581L248.721,430.417L247.478,429.756L245.749,429.383L242.809,427.412L241.778,427.113L238.365,427.288L237.766,427.519L236.845,426.87L235.815,427.022L233.937,427.887L232.226,427.717L231.258,427.937L230.826,428.841L230.285,429.383L229.024,429.254L226.492,428.638L225.441,428.875L223.589,429.914L222.501,430.502L221.752,430.468L221.433,430.395L221.085,430.163L217.217,426.797L216.898,426.288L216.505,425.21L216.228,424.719L215.736,424.098L215.48,423.928L210.698,424.075L208.831,423.742L206.947,422.748L205.417,421.106L204.457,419.024L204.065,416.711L204.274,414.405L204.829,413.232L205.666,411.919L206.283,410.645L206.163,409.597L205.326,408.938L203.301,408.29L202.396,407.681L200.931,407.327L197.85,407.141L196.322,406.729L188.899,403.249L186.581,402.512L184.622,400.952L183.913,400.722L182.407,400.575L180.79,400.148L180.23,400.243L179.702,400.502L177.921,400.964L177.115,401.285L176.265,401.442L175.177,401.194L171.06,399.045L169.043,398.347L167.167,397.987L161.136,397.897L157.343,397.137L154.413,396.952L153.587,396.682L152.878,396.209L152.263,395.54L151.975,395.05L151.52,393.942L151.259,393.498L150.911,393.284L150.626,393.341L150.38,393.284L150.181,392.756L150.443,392.053L150.239,391.738L149.88,391.62L149.705,391.519L149.81,391.002L150.199,390.35L150.369,389.923L150.228,389.361L148.727,386.253L147.9,385.36L147.576,384.854L147.492,384.444L147.518,383.602L147.403,383.164L146.927,382.394L145.112,380.193L143.82,378.133L142.313,376.27L138.797,373.678L138.028,372.854L136.286,370.448L135.873,369.422L135.883,368.475L136.498,365.599L136.569,364.456L136.179,361.415L136.176,360.883L136.302,359.667L136.286,359.051L136.349,358.335L136.642,357.842L137.008,357.377L137.28,356.767L138.049,352.38L137.934,350.215L136.676,345.921L137.076,343.981L137.696,342.07L137.845,339.936L137.469,338.986L136.741,338.283L135.842,337.908L133.807,337.88L132.038,337.054L129.166,337.579L125.107,337.054L119.378,337.037L117.62,337.272L115.716,338.266L116.506,330.473L115.596,324.142L113.009,317.471L112.344,316.529L111.432,315.956L110.377,315.644L109.313,315.471L108.696,315.449L108.193,315.499L107.681,315.466L107.058,315.232L106.509,314.781L105.635,313.533L105.175,313.004L103.48,312.063L101.842,311.885L100.16,311.907L98.337,311.568L92.609,308.634L90.715,308.278L89.517,308.267L88.513,308.067L87.649,307.61L86.875,306.809L86.174,305.841L85.79,305.425L85.62,305.24L84.892,304.828L82.596,304.166L81.659,303.744L80.969,303.021L80.608,301.803L80.179,300.796L79.316,299.896L77.27,298.561L76.302,298.167L74.304,297.705L73.373,297.339L72.41,296.427L71.013,294.249L69.873,293.632L68.335,293.354L67.932,293.177L67.315,292.76L67.33,292.666L67.665,292.488L68.031,291.821L68.392,290.699L68.267,290.266L67.765,289.572L67.367,289.15L66.875,288.778L66.326,288.523L63.616,288.467L61.356,287.862L59.384,286.624L58.107,284.687L53.253,270.879L52.091,268.524L50.558,266.486L49.313,264.359L48.911,263.352L48.722,262.062L48.884,260.966L49.711,258.979L49.884,257.872L49.866,257.817L48.513,253.607L42.162,247.869L40.352,243.846L40.043,239.936L39.463,238.053L38.196,236.899L36.24,235.911L34.786,234.62L32.384,231.155L31.694,230.438L29.973,229.263L26.635,225.712L25.981,224.631L25.725,223.92L25.251,221.671L24.848,220.608L23.211,217.93L21.589,213.816L20.512,211.845L18.989,210.612L17.268,209.588L15.897,208.097L13.805,204.504L12.34,200.82L12,199.549L12,198.049Z"/>
</svg>
